M48
; DRILL file {KiCad (5.1.9)-1} date 04/28/21 14:37:47
; FORMAT={-:-/ absolute / inch / decimal}
; #@! TF.CreationDate,2021-04-28T14:37:47+02:00
; #@! TF.GenerationSoftware,Kicad,Pcbnew,(5.1.9)-1
FMAT,2
INCH
T1C0.0157
T2C0.0197
T3C0.0276
T4C0.0400
T5C0.1280
%
G90
G05
T1
X3.122Y-2.0512
X3.122Y-2.1024
X3.122Y-2.1575
X3.122Y-2.2126
X3.122Y-2.2677
X3.122Y-2.3228
X3.122Y-2.3819
X3.122Y-2.437
X3.122Y-2.4882
X3.122Y-2.5433
X3.122Y-2.5984
X3.122Y-2.6535
X3.122Y-2.7047
X3.122Y-2.752
X3.122Y-2.8031
X3.122Y-2.8543
X3.122Y-2.9016
X3.122Y-2.9488
X3.122Y-3.0
X3.122Y-3.0512
X3.122Y-3.1063
X3.122Y-3.1575
X3.122Y-3.2047
X3.122Y-3.252
X3.122Y-3.2992
X3.122Y-3.3465
X3.122Y-3.3937
X3.122Y-3.4449
X3.122Y-3.4961
X3.122Y-3.5433
X3.122Y-3.5906
X3.122Y-3.6378
X3.3129Y-2.3505
X3.3422Y-2.4431
X3.4223Y-2.2499
X3.5718Y-2.6687
X3.6201Y-2.3701
X3.6676Y-2.2538
X3.7051Y-2.4518
X3.7395Y-2.2742
X4.3258Y-1.6312
X4.4577Y-1.513
X4.5884Y-2.3218
X4.7552Y-2.3474
T3
X3.9372Y-3.513
X4.1281Y-3.513
T4
X4.545Y-3.05
X4.595Y-3.15
X4.645Y-3.05
X4.695Y-3.15
X4.745Y-3.05
X4.795Y-3.15
T5
X4.47Y-3.4
X4.87Y-3.4
T2
G00X3.8909Y-3.6073
M15
G01X3.8909Y-3.6384
M16
G05
G00X4.1744Y-3.6073
M15
G01X4.1744Y-3.6384
M16
G05
T0
M30
