%TF.GenerationSoftware,KiCad,Pcbnew,5.1.10-88a1d61d58~88~ubuntu20.10.1*%
%TF.CreationDate,2021-04-30T01:43:34+02:00*%
%TF.ProjectId,AidonBoard32,4169646f-6e42-46f6-9172-6433322e6b69,1*%
%TF.SameCoordinates,Original*%
%TF.FileFunction,Soldermask,Top*%
%TF.FilePolarity,Negative*%
%FSLAX46Y46*%
G04 Gerber Fmt 4.6, Leading zero omitted, Abs format (unit mm)*
G04 Created by KiCad (PCBNEW 5.1.10-88a1d61d58~88~ubuntu20.10.1) date 2021-04-30 01:43:34*
%MOMM*%
%LPD*%
G01*
G04 APERTURE LIST*
%ADD10C,3.650000*%
%ADD11C,1.798000*%
%ADD12O,2.900000X1.300000*%
%ADD13O,1.300000X2.900000*%
%ADD14O,1.500000X2.200000*%
%ADD15C,1.650000*%
G04 APERTURE END LIST*
%TO.C,R12*%
G36*
G01*
X116162500Y-50225000D02*
X116837500Y-50225000D01*
G75*
G02*
X117175000Y-50562500I0J-337500D01*
G01*
X117175000Y-51262500D01*
G75*
G02*
X116837500Y-51600000I-337500J0D01*
G01*
X116162500Y-51600000D01*
G75*
G02*
X115825000Y-51262500I0J337500D01*
G01*
X115825000Y-50562500D01*
G75*
G02*
X116162500Y-50225000I337500J0D01*
G01*
G37*
G36*
G01*
X116162500Y-48400000D02*
X116837500Y-48400000D01*
G75*
G02*
X117175000Y-48737500I0J-337500D01*
G01*
X117175000Y-49437500D01*
G75*
G02*
X116837500Y-49775000I-337500J0D01*
G01*
X116162500Y-49775000D01*
G75*
G02*
X115825000Y-49437500I0J337500D01*
G01*
X115825000Y-48737500D01*
G75*
G02*
X116162500Y-48400000I337500J0D01*
G01*
G37*
%TD*%
%TO.C,D6*%
G36*
G01*
X99600000Y-64150000D02*
X99600000Y-63150000D01*
G75*
G02*
X99800000Y-62950000I200000J0D01*
G01*
X101300000Y-62950000D01*
G75*
G02*
X101500000Y-63150000I0J-200000D01*
G01*
X101500000Y-64150000D01*
G75*
G02*
X101300000Y-64350000I-200000J0D01*
G01*
X99800000Y-64350000D01*
G75*
G02*
X99600000Y-64150000I0J200000D01*
G01*
G37*
G36*
G01*
X99600000Y-67350000D02*
X99600000Y-66350000D01*
G75*
G02*
X99800000Y-66150000I200000J0D01*
G01*
X101300000Y-66150000D01*
G75*
G02*
X101500000Y-66350000I0J-200000D01*
G01*
X101500000Y-67350000D01*
G75*
G02*
X101300000Y-67550000I-200000J0D01*
G01*
X99800000Y-67550000D01*
G75*
G02*
X99600000Y-67350000I0J200000D01*
G01*
G37*
G36*
G01*
X104500000Y-64150000D02*
X104500000Y-63150000D01*
G75*
G02*
X104700000Y-62950000I200000J0D01*
G01*
X106200000Y-62950000D01*
G75*
G02*
X106400000Y-63150000I0J-200000D01*
G01*
X106400000Y-64150000D01*
G75*
G02*
X106200000Y-64350000I-200000J0D01*
G01*
X104700000Y-64350000D01*
G75*
G02*
X104500000Y-64150000I0J200000D01*
G01*
G37*
G36*
G01*
X104500000Y-67350000D02*
X104500000Y-66350000D01*
G75*
G02*
X104700000Y-66150000I200000J0D01*
G01*
X106200000Y-66150000D01*
G75*
G02*
X106400000Y-66350000I0J-200000D01*
G01*
X106400000Y-67350000D01*
G75*
G02*
X106200000Y-67550000I-200000J0D01*
G01*
X104700000Y-67550000D01*
G75*
G02*
X104500000Y-67350000I0J200000D01*
G01*
G37*
%TD*%
%TO.C,D5*%
G36*
G01*
X88567100Y-84944800D02*
X89242100Y-84944800D01*
G75*
G02*
X89579600Y-85282300I0J-337500D01*
G01*
X89579600Y-86057300D01*
G75*
G02*
X89242100Y-86394800I-337500J0D01*
G01*
X88567100Y-86394800D01*
G75*
G02*
X88229600Y-86057300I0J337500D01*
G01*
X88229600Y-85282300D01*
G75*
G02*
X88567100Y-84944800I337500J0D01*
G01*
G37*
G36*
G01*
X88567100Y-83194800D02*
X89242100Y-83194800D01*
G75*
G02*
X89579600Y-83532300I0J-337500D01*
G01*
X89579600Y-84307300D01*
G75*
G02*
X89242100Y-84644800I-337500J0D01*
G01*
X88567100Y-84644800D01*
G75*
G02*
X88229600Y-84307300I0J337500D01*
G01*
X88229600Y-83532300D01*
G75*
G02*
X88567100Y-83194800I337500J0D01*
G01*
G37*
%TD*%
%TO.C,Q3*%
G36*
G01*
X117820000Y-61670000D02*
X117020000Y-61670000D01*
G75*
G02*
X116820000Y-61470000I0J200000D01*
G01*
X116820000Y-59570000D01*
G75*
G02*
X117020000Y-59370000I200000J0D01*
G01*
X117820000Y-59370000D01*
G75*
G02*
X118020000Y-59570000I0J-200000D01*
G01*
X118020000Y-61470000D01*
G75*
G02*
X117820000Y-61670000I-200000J0D01*
G01*
G37*
G36*
G01*
X118770000Y-64670000D02*
X117970000Y-64670000D01*
G75*
G02*
X117770000Y-64470000I0J200000D01*
G01*
X117770000Y-62570000D01*
G75*
G02*
X117970000Y-62370000I200000J0D01*
G01*
X118770000Y-62370000D01*
G75*
G02*
X118970000Y-62570000I0J-200000D01*
G01*
X118970000Y-64470000D01*
G75*
G02*
X118770000Y-64670000I-200000J0D01*
G01*
G37*
G36*
G01*
X116870000Y-64670000D02*
X116070000Y-64670000D01*
G75*
G02*
X115870000Y-64470000I0J200000D01*
G01*
X115870000Y-62570000D01*
G75*
G02*
X116070000Y-62370000I200000J0D01*
G01*
X116870000Y-62370000D01*
G75*
G02*
X117070000Y-62570000I0J-200000D01*
G01*
X117070000Y-64470000D01*
G75*
G02*
X116870000Y-64670000I-200000J0D01*
G01*
G37*
%TD*%
%TO.C,R11*%
G36*
G01*
X123162500Y-50225000D02*
X123837500Y-50225000D01*
G75*
G02*
X124175000Y-50562500I0J-337500D01*
G01*
X124175000Y-51262500D01*
G75*
G02*
X123837500Y-51600000I-337500J0D01*
G01*
X123162500Y-51600000D01*
G75*
G02*
X122825000Y-51262500I0J337500D01*
G01*
X122825000Y-50562500D01*
G75*
G02*
X123162500Y-50225000I337500J0D01*
G01*
G37*
G36*
G01*
X123162500Y-48400000D02*
X123837500Y-48400000D01*
G75*
G02*
X124175000Y-48737500I0J-337500D01*
G01*
X124175000Y-49437500D01*
G75*
G02*
X123837500Y-49775000I-337500J0D01*
G01*
X123162500Y-49775000D01*
G75*
G02*
X122825000Y-49437500I0J337500D01*
G01*
X122825000Y-48737500D01*
G75*
G02*
X123162500Y-48400000I337500J0D01*
G01*
G37*
%TD*%
%TO.C,R10*%
G36*
G01*
X120325000Y-51737500D02*
X120325000Y-51062500D01*
G75*
G02*
X120662500Y-50725000I337500J0D01*
G01*
X121362500Y-50725000D01*
G75*
G02*
X121700000Y-51062500I0J-337500D01*
G01*
X121700000Y-51737500D01*
G75*
G02*
X121362500Y-52075000I-337500J0D01*
G01*
X120662500Y-52075000D01*
G75*
G02*
X120325000Y-51737500I0J337500D01*
G01*
G37*
G36*
G01*
X118500000Y-51737500D02*
X118500000Y-51062500D01*
G75*
G02*
X118837500Y-50725000I337500J0D01*
G01*
X119537500Y-50725000D01*
G75*
G02*
X119875000Y-51062500I0J-337500D01*
G01*
X119875000Y-51737500D01*
G75*
G02*
X119537500Y-52075000I-337500J0D01*
G01*
X118837500Y-52075000D01*
G75*
G02*
X118500000Y-51737500I0J337500D01*
G01*
G37*
%TD*%
%TO.C,R9*%
G36*
G01*
X87162500Y-76225000D02*
X87837500Y-76225000D01*
G75*
G02*
X88175000Y-76562500I0J-337500D01*
G01*
X88175000Y-77262500D01*
G75*
G02*
X87837500Y-77600000I-337500J0D01*
G01*
X87162500Y-77600000D01*
G75*
G02*
X86825000Y-77262500I0J337500D01*
G01*
X86825000Y-76562500D01*
G75*
G02*
X87162500Y-76225000I337500J0D01*
G01*
G37*
G36*
G01*
X87162500Y-74400000D02*
X87837500Y-74400000D01*
G75*
G02*
X88175000Y-74737500I0J-337500D01*
G01*
X88175000Y-75437500D01*
G75*
G02*
X87837500Y-75775000I-337500J0D01*
G01*
X87162500Y-75775000D01*
G75*
G02*
X86825000Y-75437500I0J337500D01*
G01*
X86825000Y-74737500D01*
G75*
G02*
X87162500Y-74400000I337500J0D01*
G01*
G37*
%TD*%
%TO.C,R8*%
G36*
G01*
X85162500Y-76225000D02*
X85837500Y-76225000D01*
G75*
G02*
X86175000Y-76562500I0J-337500D01*
G01*
X86175000Y-77262500D01*
G75*
G02*
X85837500Y-77600000I-337500J0D01*
G01*
X85162500Y-77600000D01*
G75*
G02*
X84825000Y-77262500I0J337500D01*
G01*
X84825000Y-76562500D01*
G75*
G02*
X85162500Y-76225000I337500J0D01*
G01*
G37*
G36*
G01*
X85162500Y-74400000D02*
X85837500Y-74400000D01*
G75*
G02*
X86175000Y-74737500I0J-337500D01*
G01*
X86175000Y-75437500D01*
G75*
G02*
X85837500Y-75775000I-337500J0D01*
G01*
X85162500Y-75775000D01*
G75*
G02*
X84825000Y-75437500I0J337500D01*
G01*
X84825000Y-74737500D01*
G75*
G02*
X85162500Y-74400000I337500J0D01*
G01*
G37*
%TD*%
%TO.C,R7*%
G36*
G01*
X86275000Y-69662500D02*
X86275000Y-70337500D01*
G75*
G02*
X85937500Y-70675000I-337500J0D01*
G01*
X85237500Y-70675000D01*
G75*
G02*
X84900000Y-70337500I0J337500D01*
G01*
X84900000Y-69662500D01*
G75*
G02*
X85237500Y-69325000I337500J0D01*
G01*
X85937500Y-69325000D01*
G75*
G02*
X86275000Y-69662500I0J-337500D01*
G01*
G37*
G36*
G01*
X88100000Y-69662500D02*
X88100000Y-70337500D01*
G75*
G02*
X87762500Y-70675000I-337500J0D01*
G01*
X87062500Y-70675000D01*
G75*
G02*
X86725000Y-70337500I0J337500D01*
G01*
X86725000Y-69662500D01*
G75*
G02*
X87062500Y-69325000I337500J0D01*
G01*
X87762500Y-69325000D01*
G75*
G02*
X88100000Y-69662500I0J-337500D01*
G01*
G37*
%TD*%
%TO.C,R6*%
G36*
G01*
X86275000Y-56662500D02*
X86275000Y-57337500D01*
G75*
G02*
X85937500Y-57675000I-337500J0D01*
G01*
X85237500Y-57675000D01*
G75*
G02*
X84900000Y-57337500I0J337500D01*
G01*
X84900000Y-56662500D01*
G75*
G02*
X85237500Y-56325000I337500J0D01*
G01*
X85937500Y-56325000D01*
G75*
G02*
X86275000Y-56662500I0J-337500D01*
G01*
G37*
G36*
G01*
X88100000Y-56662500D02*
X88100000Y-57337500D01*
G75*
G02*
X87762500Y-57675000I-337500J0D01*
G01*
X87062500Y-57675000D01*
G75*
G02*
X86725000Y-57337500I0J337500D01*
G01*
X86725000Y-56662500D01*
G75*
G02*
X87062500Y-56325000I337500J0D01*
G01*
X87762500Y-56325000D01*
G75*
G02*
X88100000Y-56662500I0J-337500D01*
G01*
G37*
%TD*%
%TO.C,R5*%
G36*
G01*
X117645000Y-67357500D02*
X117645000Y-66682500D01*
G75*
G02*
X117982500Y-66345000I337500J0D01*
G01*
X118682500Y-66345000D01*
G75*
G02*
X119020000Y-66682500I0J-337500D01*
G01*
X119020000Y-67357500D01*
G75*
G02*
X118682500Y-67695000I-337500J0D01*
G01*
X117982500Y-67695000D01*
G75*
G02*
X117645000Y-67357500I0J337500D01*
G01*
G37*
G36*
G01*
X115820000Y-67357500D02*
X115820000Y-66682500D01*
G75*
G02*
X116157500Y-66345000I337500J0D01*
G01*
X116857500Y-66345000D01*
G75*
G02*
X117195000Y-66682500I0J-337500D01*
G01*
X117195000Y-67357500D01*
G75*
G02*
X116857500Y-67695000I-337500J0D01*
G01*
X116157500Y-67695000D01*
G75*
G02*
X115820000Y-67357500I0J337500D01*
G01*
G37*
%TD*%
%TO.C,R4*%
G36*
G01*
X122725000Y-60337500D02*
X122725000Y-59662500D01*
G75*
G02*
X123062500Y-59325000I337500J0D01*
G01*
X123762500Y-59325000D01*
G75*
G02*
X124100000Y-59662500I0J-337500D01*
G01*
X124100000Y-60337500D01*
G75*
G02*
X123762500Y-60675000I-337500J0D01*
G01*
X123062500Y-60675000D01*
G75*
G02*
X122725000Y-60337500I0J337500D01*
G01*
G37*
G36*
G01*
X120900000Y-60337500D02*
X120900000Y-59662500D01*
G75*
G02*
X121237500Y-59325000I337500J0D01*
G01*
X121937500Y-59325000D01*
G75*
G02*
X122275000Y-59662500I0J-337500D01*
G01*
X122275000Y-60337500D01*
G75*
G02*
X121937500Y-60675000I-337500J0D01*
G01*
X121237500Y-60675000D01*
G75*
G02*
X120900000Y-60337500I0J337500D01*
G01*
G37*
%TD*%
%TO.C,R3*%
G36*
G01*
X89225000Y-48337500D02*
X89225000Y-47662500D01*
G75*
G02*
X89562500Y-47325000I337500J0D01*
G01*
X90262500Y-47325000D01*
G75*
G02*
X90600000Y-47662500I0J-337500D01*
G01*
X90600000Y-48337500D01*
G75*
G02*
X90262500Y-48675000I-337500J0D01*
G01*
X89562500Y-48675000D01*
G75*
G02*
X89225000Y-48337500I0J337500D01*
G01*
G37*
G36*
G01*
X87400000Y-48337500D02*
X87400000Y-47662500D01*
G75*
G02*
X87737500Y-47325000I337500J0D01*
G01*
X88437500Y-47325000D01*
G75*
G02*
X88775000Y-47662500I0J-337500D01*
G01*
X88775000Y-48337500D01*
G75*
G02*
X88437500Y-48675000I-337500J0D01*
G01*
X87737500Y-48675000D01*
G75*
G02*
X87400000Y-48337500I0J337500D01*
G01*
G37*
%TD*%
%TO.C,R2*%
G36*
G01*
X95837500Y-63275000D02*
X95162500Y-63275000D01*
G75*
G02*
X94825000Y-62937500I0J337500D01*
G01*
X94825000Y-62237500D01*
G75*
G02*
X95162500Y-61900000I337500J0D01*
G01*
X95837500Y-61900000D01*
G75*
G02*
X96175000Y-62237500I0J-337500D01*
G01*
X96175000Y-62937500D01*
G75*
G02*
X95837500Y-63275000I-337500J0D01*
G01*
G37*
G36*
G01*
X95837500Y-65100000D02*
X95162500Y-65100000D01*
G75*
G02*
X94825000Y-64762500I0J337500D01*
G01*
X94825000Y-64062500D01*
G75*
G02*
X95162500Y-63725000I337500J0D01*
G01*
X95837500Y-63725000D01*
G75*
G02*
X96175000Y-64062500I0J-337500D01*
G01*
X96175000Y-64762500D01*
G75*
G02*
X95837500Y-65100000I-337500J0D01*
G01*
G37*
%TD*%
%TO.C,R1*%
G36*
G01*
X93561500Y-76113000D02*
X92886500Y-76113000D01*
G75*
G02*
X92549000Y-75775500I0J337500D01*
G01*
X92549000Y-75075500D01*
G75*
G02*
X92886500Y-74738000I337500J0D01*
G01*
X93561500Y-74738000D01*
G75*
G02*
X93899000Y-75075500I0J-337500D01*
G01*
X93899000Y-75775500D01*
G75*
G02*
X93561500Y-76113000I-337500J0D01*
G01*
G37*
G36*
G01*
X93561500Y-77938000D02*
X92886500Y-77938000D01*
G75*
G02*
X92549000Y-77600500I0J337500D01*
G01*
X92549000Y-76900500D01*
G75*
G02*
X92886500Y-76563000I337500J0D01*
G01*
X93561500Y-76563000D01*
G75*
G02*
X93899000Y-76900500I0J-337500D01*
G01*
X93899000Y-77600500D01*
G75*
G02*
X93561500Y-77938000I-337500J0D01*
G01*
G37*
%TD*%
%TO.C,Q4*%
G36*
G01*
X119600000Y-45850000D02*
X120400000Y-45850000D01*
G75*
G02*
X120600000Y-46050000I0J-200000D01*
G01*
X120600000Y-47950000D01*
G75*
G02*
X120400000Y-48150000I-200000J0D01*
G01*
X119600000Y-48150000D01*
G75*
G02*
X119400000Y-47950000I0J200000D01*
G01*
X119400000Y-46050000D01*
G75*
G02*
X119600000Y-45850000I200000J0D01*
G01*
G37*
G36*
G01*
X118650000Y-42850000D02*
X119450000Y-42850000D01*
G75*
G02*
X119650000Y-43050000I0J-200000D01*
G01*
X119650000Y-44950000D01*
G75*
G02*
X119450000Y-45150000I-200000J0D01*
G01*
X118650000Y-45150000D01*
G75*
G02*
X118450000Y-44950000I0J200000D01*
G01*
X118450000Y-43050000D01*
G75*
G02*
X118650000Y-42850000I200000J0D01*
G01*
G37*
G36*
G01*
X120550000Y-42850000D02*
X121350000Y-42850000D01*
G75*
G02*
X121550000Y-43050000I0J-200000D01*
G01*
X121550000Y-44950000D01*
G75*
G02*
X121350000Y-45150000I-200000J0D01*
G01*
X120550000Y-45150000D01*
G75*
G02*
X120350000Y-44950000I0J200000D01*
G01*
X120350000Y-43050000D01*
G75*
G02*
X120550000Y-42850000I200000J0D01*
G01*
G37*
%TD*%
D10*
%TO.C,J1*%
X124750000Y-83390000D03*
X114590000Y-83390000D03*
D11*
X122850000Y-77040000D03*
X121580000Y-74500000D03*
X120310000Y-77040000D03*
X119040000Y-74500000D03*
X117770000Y-77040000D03*
G36*
G01*
X115601000Y-75199000D02*
X115601000Y-73801000D01*
G75*
G02*
X115801000Y-73601000I200000J0D01*
G01*
X117199000Y-73601000D01*
G75*
G02*
X117399000Y-73801000I0J-200000D01*
G01*
X117399000Y-75199000D01*
G75*
G02*
X117199000Y-75399000I-200000J0D01*
G01*
X115801000Y-75399000D01*
G75*
G02*
X115601000Y-75199000I0J200000D01*
G01*
G37*
%TD*%
%TO.C,D4*%
G36*
G01*
X86462000Y-85300200D02*
X86462000Y-84625200D01*
G75*
G02*
X86799500Y-84287700I337500J0D01*
G01*
X87574500Y-84287700D01*
G75*
G02*
X87912000Y-84625200I0J-337500D01*
G01*
X87912000Y-85300200D01*
G75*
G02*
X87574500Y-85637700I-337500J0D01*
G01*
X86799500Y-85637700D01*
G75*
G02*
X86462000Y-85300200I0J337500D01*
G01*
G37*
G36*
G01*
X84712000Y-85300200D02*
X84712000Y-84625200D01*
G75*
G02*
X85049500Y-84287700I337500J0D01*
G01*
X85824500Y-84287700D01*
G75*
G02*
X86162000Y-84625200I0J-337500D01*
G01*
X86162000Y-85300200D01*
G75*
G02*
X85824500Y-85637700I-337500J0D01*
G01*
X85049500Y-85637700D01*
G75*
G02*
X84712000Y-85300200I0J337500D01*
G01*
G37*
%TD*%
%TO.C,D3*%
G36*
G01*
X90350000Y-68162500D02*
X90350000Y-68837500D01*
G75*
G02*
X90012500Y-69175000I-337500J0D01*
G01*
X89237500Y-69175000D01*
G75*
G02*
X88900000Y-68837500I0J337500D01*
G01*
X88900000Y-68162500D01*
G75*
G02*
X89237500Y-67825000I337500J0D01*
G01*
X90012500Y-67825000D01*
G75*
G02*
X90350000Y-68162500I0J-337500D01*
G01*
G37*
G36*
G01*
X92100000Y-68162500D02*
X92100000Y-68837500D01*
G75*
G02*
X91762500Y-69175000I-337500J0D01*
G01*
X90987500Y-69175000D01*
G75*
G02*
X90650000Y-68837500I0J337500D01*
G01*
X90650000Y-68162500D01*
G75*
G02*
X90987500Y-67825000I337500J0D01*
G01*
X91762500Y-67825000D01*
G75*
G02*
X92100000Y-68162500I0J-337500D01*
G01*
G37*
%TD*%
%TO.C,D2*%
G36*
G01*
X90350000Y-58162500D02*
X90350000Y-58837500D01*
G75*
G02*
X90012500Y-59175000I-337500J0D01*
G01*
X89237500Y-59175000D01*
G75*
G02*
X88900000Y-58837500I0J337500D01*
G01*
X88900000Y-58162500D01*
G75*
G02*
X89237500Y-57825000I337500J0D01*
G01*
X90012500Y-57825000D01*
G75*
G02*
X90350000Y-58162500I0J-337500D01*
G01*
G37*
G36*
G01*
X92100000Y-58162500D02*
X92100000Y-58837500D01*
G75*
G02*
X91762500Y-59175000I-337500J0D01*
G01*
X90987500Y-59175000D01*
G75*
G02*
X90650000Y-58837500I0J337500D01*
G01*
X90650000Y-58162500D01*
G75*
G02*
X90987500Y-57825000I337500J0D01*
G01*
X91762500Y-57825000D01*
G75*
G02*
X92100000Y-58162500I0J-337500D01*
G01*
G37*
%TD*%
%TO.C,D1*%
G36*
G01*
X94850000Y-84300000D02*
X96650000Y-84300000D01*
G75*
G02*
X96850000Y-84500000I0J-200000D01*
G01*
X96850000Y-87000000D01*
G75*
G02*
X96650000Y-87200000I-200000J0D01*
G01*
X94850000Y-87200000D01*
G75*
G02*
X94650000Y-87000000I0J200000D01*
G01*
X94650000Y-84500000D01*
G75*
G02*
X94850000Y-84300000I200000J0D01*
G01*
G37*
G36*
G01*
X94850000Y-80300000D02*
X96650000Y-80300000D01*
G75*
G02*
X96850000Y-80500000I0J-200000D01*
G01*
X96850000Y-83000000D01*
G75*
G02*
X96650000Y-83200000I-200000J0D01*
G01*
X94850000Y-83200000D01*
G75*
G02*
X94650000Y-83000000I0J200000D01*
G01*
X94650000Y-80500000D01*
G75*
G02*
X94850000Y-80300000I200000J0D01*
G01*
G37*
%TD*%
%TO.C,C10*%
G36*
G01*
X102875000Y-70162500D02*
X102875000Y-70837500D01*
G75*
G02*
X102537500Y-71175000I-337500J0D01*
G01*
X101737500Y-71175000D01*
G75*
G02*
X101400000Y-70837500I0J337500D01*
G01*
X101400000Y-70162500D01*
G75*
G02*
X101737500Y-69825000I337500J0D01*
G01*
X102537500Y-69825000D01*
G75*
G02*
X102875000Y-70162500I0J-337500D01*
G01*
G37*
G36*
G01*
X104600000Y-70162500D02*
X104600000Y-70837500D01*
G75*
G02*
X104262500Y-71175000I-337500J0D01*
G01*
X103462500Y-71175000D01*
G75*
G02*
X103125000Y-70837500I0J337500D01*
G01*
X103125000Y-70162500D01*
G75*
G02*
X103462500Y-69825000I337500J0D01*
G01*
X104262500Y-69825000D01*
G75*
G02*
X104600000Y-70162500I0J-337500D01*
G01*
G37*
%TD*%
%TO.C,C8*%
G36*
G01*
X84875000Y-47662500D02*
X84875000Y-48337500D01*
G75*
G02*
X84537500Y-48675000I-337500J0D01*
G01*
X83737500Y-48675000D01*
G75*
G02*
X83400000Y-48337500I0J337500D01*
G01*
X83400000Y-47662500D01*
G75*
G02*
X83737500Y-47325000I337500J0D01*
G01*
X84537500Y-47325000D01*
G75*
G02*
X84875000Y-47662500I0J-337500D01*
G01*
G37*
G36*
G01*
X86600000Y-47662500D02*
X86600000Y-48337500D01*
G75*
G02*
X86262500Y-48675000I-337500J0D01*
G01*
X85462500Y-48675000D01*
G75*
G02*
X85125000Y-48337500I0J337500D01*
G01*
X85125000Y-47662500D01*
G75*
G02*
X85462500Y-47325000I337500J0D01*
G01*
X86262500Y-47325000D01*
G75*
G02*
X86600000Y-47662500I0J-337500D01*
G01*
G37*
%TD*%
%TO.C,C6*%
G36*
G01*
X86337500Y-65875000D02*
X85662500Y-65875000D01*
G75*
G02*
X85325000Y-65537500I0J337500D01*
G01*
X85325000Y-64737500D01*
G75*
G02*
X85662500Y-64400000I337500J0D01*
G01*
X86337500Y-64400000D01*
G75*
G02*
X86675000Y-64737500I0J-337500D01*
G01*
X86675000Y-65537500D01*
G75*
G02*
X86337500Y-65875000I-337500J0D01*
G01*
G37*
G36*
G01*
X86337500Y-67600000D02*
X85662500Y-67600000D01*
G75*
G02*
X85325000Y-67262500I0J337500D01*
G01*
X85325000Y-66462500D01*
G75*
G02*
X85662500Y-66125000I337500J0D01*
G01*
X86337500Y-66125000D01*
G75*
G02*
X86675000Y-66462500I0J-337500D01*
G01*
X86675000Y-67262500D01*
G75*
G02*
X86337500Y-67600000I-337500J0D01*
G01*
G37*
%TD*%
%TO.C,C4*%
G36*
G01*
X85662500Y-61125000D02*
X86337500Y-61125000D01*
G75*
G02*
X86675000Y-61462500I0J-337500D01*
G01*
X86675000Y-62262500D01*
G75*
G02*
X86337500Y-62600000I-337500J0D01*
G01*
X85662500Y-62600000D01*
G75*
G02*
X85325000Y-62262500I0J337500D01*
G01*
X85325000Y-61462500D01*
G75*
G02*
X85662500Y-61125000I337500J0D01*
G01*
G37*
G36*
G01*
X85662500Y-59400000D02*
X86337500Y-59400000D01*
G75*
G02*
X86675000Y-59737500I0J-337500D01*
G01*
X86675000Y-60537500D01*
G75*
G02*
X86337500Y-60875000I-337500J0D01*
G01*
X85662500Y-60875000D01*
G75*
G02*
X85325000Y-60537500I0J337500D01*
G01*
X85325000Y-59737500D01*
G75*
G02*
X85662500Y-59400000I337500J0D01*
G01*
G37*
%TD*%
%TO.C,U3*%
G36*
G01*
X105900000Y-45450000D02*
X105900000Y-51450000D01*
G75*
G02*
X105700000Y-51650000I-200000J0D01*
G01*
X99700000Y-51650000D01*
G75*
G02*
X99500000Y-51450000I0J200000D01*
G01*
X99500000Y-45450000D01*
G75*
G02*
X99700000Y-45250000I200000J0D01*
G01*
X105700000Y-45250000D01*
G75*
G02*
X105900000Y-45450000I0J-200000D01*
G01*
G37*
D12*
X94000000Y-40750000D03*
X94000000Y-42020000D03*
X94000000Y-43290000D03*
X94000000Y-44560000D03*
X94000000Y-45830000D03*
X94000000Y-47100000D03*
X94000000Y-48370000D03*
X94000000Y-49640000D03*
X94000000Y-50910000D03*
X94000000Y-52180000D03*
X94000000Y-53450000D03*
X94000000Y-54720000D03*
X94000000Y-55990000D03*
X94000000Y-57260000D03*
D13*
X97285000Y-58750000D03*
X98555000Y-58750000D03*
X99825000Y-58750000D03*
X101095000Y-58750000D03*
X102365000Y-58750000D03*
X103635000Y-58750000D03*
X104905000Y-58750000D03*
X106175000Y-58750000D03*
X107445000Y-58750000D03*
X108715000Y-58750000D03*
D12*
X112000000Y-57260000D03*
X112000000Y-55990000D03*
X112000000Y-54720000D03*
X112000000Y-53450000D03*
X112000000Y-52180000D03*
X112000000Y-50910000D03*
X112000000Y-49640000D03*
X112000000Y-48370000D03*
X112000000Y-47100000D03*
X112000000Y-45830000D03*
X112000000Y-44560000D03*
X112000000Y-43290000D03*
X112000000Y-42020000D03*
X112000000Y-40750000D03*
%TD*%
%TO.C,U2*%
G36*
G01*
X89000000Y-64800000D02*
X89000000Y-62200000D01*
G75*
G02*
X89200000Y-62000000I200000J0D01*
G01*
X91800000Y-62000000D01*
G75*
G02*
X92000000Y-62200000I0J-200000D01*
G01*
X92000000Y-64800000D01*
G75*
G02*
X91800000Y-65000000I-200000J0D01*
G01*
X89200000Y-65000000D01*
G75*
G02*
X89000000Y-64800000I0J200000D01*
G01*
G37*
G36*
G01*
X88925000Y-62012500D02*
X88925000Y-61112500D01*
G75*
G02*
X89087500Y-60950000I162500J0D01*
G01*
X89412500Y-60950000D01*
G75*
G02*
X89575000Y-61112500I0J-162500D01*
G01*
X89575000Y-62012500D01*
G75*
G02*
X89412500Y-62175000I-162500J0D01*
G01*
X89087500Y-62175000D01*
G75*
G02*
X88925000Y-62012500I0J162500D01*
G01*
G37*
G36*
G01*
X89425000Y-62012500D02*
X89425000Y-61112500D01*
G75*
G02*
X89587500Y-60950000I162500J0D01*
G01*
X89912500Y-60950000D01*
G75*
G02*
X90075000Y-61112500I0J-162500D01*
G01*
X90075000Y-62012500D01*
G75*
G02*
X89912500Y-62175000I-162500J0D01*
G01*
X89587500Y-62175000D01*
G75*
G02*
X89425000Y-62012500I0J162500D01*
G01*
G37*
G36*
G01*
X89925000Y-62012500D02*
X89925000Y-61112500D01*
G75*
G02*
X90087500Y-60950000I162500J0D01*
G01*
X90412500Y-60950000D01*
G75*
G02*
X90575000Y-61112500I0J-162500D01*
G01*
X90575000Y-62012500D01*
G75*
G02*
X90412500Y-62175000I-162500J0D01*
G01*
X90087500Y-62175000D01*
G75*
G02*
X89925000Y-62012500I0J162500D01*
G01*
G37*
G36*
G01*
X90425000Y-62012500D02*
X90425000Y-61112500D01*
G75*
G02*
X90587500Y-60950000I162500J0D01*
G01*
X90912500Y-60950000D01*
G75*
G02*
X91075000Y-61112500I0J-162500D01*
G01*
X91075000Y-62012500D01*
G75*
G02*
X90912500Y-62175000I-162500J0D01*
G01*
X90587500Y-62175000D01*
G75*
G02*
X90425000Y-62012500I0J162500D01*
G01*
G37*
G36*
G01*
X90925000Y-62012500D02*
X90925000Y-61112500D01*
G75*
G02*
X91087500Y-60950000I162500J0D01*
G01*
X91412500Y-60950000D01*
G75*
G02*
X91575000Y-61112500I0J-162500D01*
G01*
X91575000Y-62012500D01*
G75*
G02*
X91412500Y-62175000I-162500J0D01*
G01*
X91087500Y-62175000D01*
G75*
G02*
X90925000Y-62012500I0J162500D01*
G01*
G37*
G36*
G01*
X91425000Y-62012500D02*
X91425000Y-61112500D01*
G75*
G02*
X91587500Y-60950000I162500J0D01*
G01*
X91912500Y-60950000D01*
G75*
G02*
X92075000Y-61112500I0J-162500D01*
G01*
X92075000Y-62012500D01*
G75*
G02*
X91912500Y-62175000I-162500J0D01*
G01*
X91587500Y-62175000D01*
G75*
G02*
X91425000Y-62012500I0J162500D01*
G01*
G37*
G36*
G01*
X91825000Y-62412500D02*
X91825000Y-62087500D01*
G75*
G02*
X91987500Y-61925000I162500J0D01*
G01*
X92887500Y-61925000D01*
G75*
G02*
X93050000Y-62087500I0J-162500D01*
G01*
X93050000Y-62412500D01*
G75*
G02*
X92887500Y-62575000I-162500J0D01*
G01*
X91987500Y-62575000D01*
G75*
G02*
X91825000Y-62412500I0J162500D01*
G01*
G37*
G36*
G01*
X91825000Y-62912500D02*
X91825000Y-62587500D01*
G75*
G02*
X91987500Y-62425000I162500J0D01*
G01*
X92887500Y-62425000D01*
G75*
G02*
X93050000Y-62587500I0J-162500D01*
G01*
X93050000Y-62912500D01*
G75*
G02*
X92887500Y-63075000I-162500J0D01*
G01*
X91987500Y-63075000D01*
G75*
G02*
X91825000Y-62912500I0J162500D01*
G01*
G37*
G36*
G01*
X91825000Y-63412500D02*
X91825000Y-63087500D01*
G75*
G02*
X91987500Y-62925000I162500J0D01*
G01*
X92887500Y-62925000D01*
G75*
G02*
X93050000Y-63087500I0J-162500D01*
G01*
X93050000Y-63412500D01*
G75*
G02*
X92887500Y-63575000I-162500J0D01*
G01*
X91987500Y-63575000D01*
G75*
G02*
X91825000Y-63412500I0J162500D01*
G01*
G37*
G36*
G01*
X91825000Y-63912500D02*
X91825000Y-63587500D01*
G75*
G02*
X91987500Y-63425000I162500J0D01*
G01*
X92887500Y-63425000D01*
G75*
G02*
X93050000Y-63587500I0J-162500D01*
G01*
X93050000Y-63912500D01*
G75*
G02*
X92887500Y-64075000I-162500J0D01*
G01*
X91987500Y-64075000D01*
G75*
G02*
X91825000Y-63912500I0J162500D01*
G01*
G37*
G36*
G01*
X91825000Y-64412500D02*
X91825000Y-64087500D01*
G75*
G02*
X91987500Y-63925000I162500J0D01*
G01*
X92887500Y-63925000D01*
G75*
G02*
X93050000Y-64087500I0J-162500D01*
G01*
X93050000Y-64412500D01*
G75*
G02*
X92887500Y-64575000I-162500J0D01*
G01*
X91987500Y-64575000D01*
G75*
G02*
X91825000Y-64412500I0J162500D01*
G01*
G37*
G36*
G01*
X91825000Y-64912500D02*
X91825000Y-64587500D01*
G75*
G02*
X91987500Y-64425000I162500J0D01*
G01*
X92887500Y-64425000D01*
G75*
G02*
X93050000Y-64587500I0J-162500D01*
G01*
X93050000Y-64912500D01*
G75*
G02*
X92887500Y-65075000I-162500J0D01*
G01*
X91987500Y-65075000D01*
G75*
G02*
X91825000Y-64912500I0J162500D01*
G01*
G37*
G36*
G01*
X91425000Y-65887500D02*
X91425000Y-64987500D01*
G75*
G02*
X91587500Y-64825000I162500J0D01*
G01*
X91912500Y-64825000D01*
G75*
G02*
X92075000Y-64987500I0J-162500D01*
G01*
X92075000Y-65887500D01*
G75*
G02*
X91912500Y-66050000I-162500J0D01*
G01*
X91587500Y-66050000D01*
G75*
G02*
X91425000Y-65887500I0J162500D01*
G01*
G37*
G36*
G01*
X90925000Y-65887500D02*
X90925000Y-64987500D01*
G75*
G02*
X91087500Y-64825000I162500J0D01*
G01*
X91412500Y-64825000D01*
G75*
G02*
X91575000Y-64987500I0J-162500D01*
G01*
X91575000Y-65887500D01*
G75*
G02*
X91412500Y-66050000I-162500J0D01*
G01*
X91087500Y-66050000D01*
G75*
G02*
X90925000Y-65887500I0J162500D01*
G01*
G37*
G36*
G01*
X90425000Y-65887500D02*
X90425000Y-64987500D01*
G75*
G02*
X90587500Y-64825000I162500J0D01*
G01*
X90912500Y-64825000D01*
G75*
G02*
X91075000Y-64987500I0J-162500D01*
G01*
X91075000Y-65887500D01*
G75*
G02*
X90912500Y-66050000I-162500J0D01*
G01*
X90587500Y-66050000D01*
G75*
G02*
X90425000Y-65887500I0J162500D01*
G01*
G37*
G36*
G01*
X89925000Y-65887500D02*
X89925000Y-64987500D01*
G75*
G02*
X90087500Y-64825000I162500J0D01*
G01*
X90412500Y-64825000D01*
G75*
G02*
X90575000Y-64987500I0J-162500D01*
G01*
X90575000Y-65887500D01*
G75*
G02*
X90412500Y-66050000I-162500J0D01*
G01*
X90087500Y-66050000D01*
G75*
G02*
X89925000Y-65887500I0J162500D01*
G01*
G37*
G36*
G01*
X89425000Y-65887500D02*
X89425000Y-64987500D01*
G75*
G02*
X89587500Y-64825000I162500J0D01*
G01*
X89912500Y-64825000D01*
G75*
G02*
X90075000Y-64987500I0J-162500D01*
G01*
X90075000Y-65887500D01*
G75*
G02*
X89912500Y-66050000I-162500J0D01*
G01*
X89587500Y-66050000D01*
G75*
G02*
X89425000Y-65887500I0J162500D01*
G01*
G37*
G36*
G01*
X88925000Y-65887500D02*
X88925000Y-64987500D01*
G75*
G02*
X89087500Y-64825000I162500J0D01*
G01*
X89412500Y-64825000D01*
G75*
G02*
X89575000Y-64987500I0J-162500D01*
G01*
X89575000Y-65887500D01*
G75*
G02*
X89412500Y-66050000I-162500J0D01*
G01*
X89087500Y-66050000D01*
G75*
G02*
X88925000Y-65887500I0J162500D01*
G01*
G37*
G36*
G01*
X87950000Y-64912500D02*
X87950000Y-64587500D01*
G75*
G02*
X88112500Y-64425000I162500J0D01*
G01*
X89012500Y-64425000D01*
G75*
G02*
X89175000Y-64587500I0J-162500D01*
G01*
X89175000Y-64912500D01*
G75*
G02*
X89012500Y-65075000I-162500J0D01*
G01*
X88112500Y-65075000D01*
G75*
G02*
X87950000Y-64912500I0J162500D01*
G01*
G37*
G36*
G01*
X87950000Y-64412500D02*
X87950000Y-64087500D01*
G75*
G02*
X88112500Y-63925000I162500J0D01*
G01*
X89012500Y-63925000D01*
G75*
G02*
X89175000Y-64087500I0J-162500D01*
G01*
X89175000Y-64412500D01*
G75*
G02*
X89012500Y-64575000I-162500J0D01*
G01*
X88112500Y-64575000D01*
G75*
G02*
X87950000Y-64412500I0J162500D01*
G01*
G37*
G36*
G01*
X87950000Y-63912500D02*
X87950000Y-63587500D01*
G75*
G02*
X88112500Y-63425000I162500J0D01*
G01*
X89012500Y-63425000D01*
G75*
G02*
X89175000Y-63587500I0J-162500D01*
G01*
X89175000Y-63912500D01*
G75*
G02*
X89012500Y-64075000I-162500J0D01*
G01*
X88112500Y-64075000D01*
G75*
G02*
X87950000Y-63912500I0J162500D01*
G01*
G37*
G36*
G01*
X87950000Y-63412500D02*
X87950000Y-63087500D01*
G75*
G02*
X88112500Y-62925000I162500J0D01*
G01*
X89012500Y-62925000D01*
G75*
G02*
X89175000Y-63087500I0J-162500D01*
G01*
X89175000Y-63412500D01*
G75*
G02*
X89012500Y-63575000I-162500J0D01*
G01*
X88112500Y-63575000D01*
G75*
G02*
X87950000Y-63412500I0J162500D01*
G01*
G37*
G36*
G01*
X87950000Y-62912500D02*
X87950000Y-62587500D01*
G75*
G02*
X88112500Y-62425000I162500J0D01*
G01*
X89012500Y-62425000D01*
G75*
G02*
X89175000Y-62587500I0J-162500D01*
G01*
X89175000Y-62912500D01*
G75*
G02*
X89012500Y-63075000I-162500J0D01*
G01*
X88112500Y-63075000D01*
G75*
G02*
X87950000Y-62912500I0J162500D01*
G01*
G37*
G36*
G01*
X87950000Y-62412500D02*
X87950000Y-62087500D01*
G75*
G02*
X88112500Y-61925000I162500J0D01*
G01*
X89012500Y-61925000D01*
G75*
G02*
X89175000Y-62087500I0J-162500D01*
G01*
X89175000Y-62412500D01*
G75*
G02*
X89012500Y-62575000I-162500J0D01*
G01*
X88112500Y-62575000D01*
G75*
G02*
X87950000Y-62412500I0J162500D01*
G01*
G37*
%TD*%
%TO.C,U1*%
G36*
G01*
X101450000Y-82350000D02*
X99950000Y-82350000D01*
G75*
G02*
X99750000Y-82150000I0J200000D01*
G01*
X99750000Y-80150000D01*
G75*
G02*
X99950000Y-79950000I200000J0D01*
G01*
X101450000Y-79950000D01*
G75*
G02*
X101650000Y-80150000I0J-200000D01*
G01*
X101650000Y-82150000D01*
G75*
G02*
X101450000Y-82350000I-200000J0D01*
G01*
G37*
G36*
G01*
X106050000Y-82350000D02*
X104550000Y-82350000D01*
G75*
G02*
X104350000Y-82150000I0J200000D01*
G01*
X104350000Y-80150000D01*
G75*
G02*
X104550000Y-79950000I200000J0D01*
G01*
X106050000Y-79950000D01*
G75*
G02*
X106250000Y-80150000I0J-200000D01*
G01*
X106250000Y-82150000D01*
G75*
G02*
X106050000Y-82350000I-200000J0D01*
G01*
G37*
G36*
G01*
X103750000Y-82350000D02*
X102250000Y-82350000D01*
G75*
G02*
X102050000Y-82150000I0J200000D01*
G01*
X102050000Y-80150000D01*
G75*
G02*
X102250000Y-79950000I200000J0D01*
G01*
X103750000Y-79950000D01*
G75*
G02*
X103950000Y-80150000I0J-200000D01*
G01*
X103950000Y-82150000D01*
G75*
G02*
X103750000Y-82350000I-200000J0D01*
G01*
G37*
G36*
G01*
X104900000Y-76050000D02*
X101100000Y-76050000D01*
G75*
G02*
X100900000Y-75850000I0J200000D01*
G01*
X100900000Y-73850000D01*
G75*
G02*
X101100000Y-73650000I200000J0D01*
G01*
X104900000Y-73650000D01*
G75*
G02*
X105100000Y-73850000I0J-200000D01*
G01*
X105100000Y-75850000D01*
G75*
G02*
X104900000Y-76050000I-200000J0D01*
G01*
G37*
%TD*%
%TO.C,Q2*%
G36*
G01*
X122900000Y-64650000D02*
X122100000Y-64650000D01*
G75*
G02*
X121900000Y-64450000I0J200000D01*
G01*
X121900000Y-62550000D01*
G75*
G02*
X122100000Y-62350000I200000J0D01*
G01*
X122900000Y-62350000D01*
G75*
G02*
X123100000Y-62550000I0J-200000D01*
G01*
X123100000Y-64450000D01*
G75*
G02*
X122900000Y-64650000I-200000J0D01*
G01*
G37*
G36*
G01*
X123850000Y-67650000D02*
X123050000Y-67650000D01*
G75*
G02*
X122850000Y-67450000I0J200000D01*
G01*
X122850000Y-65550000D01*
G75*
G02*
X123050000Y-65350000I200000J0D01*
G01*
X123850000Y-65350000D01*
G75*
G02*
X124050000Y-65550000I0J-200000D01*
G01*
X124050000Y-67450000D01*
G75*
G02*
X123850000Y-67650000I-200000J0D01*
G01*
G37*
G36*
G01*
X121950000Y-67650000D02*
X121150000Y-67650000D01*
G75*
G02*
X120950000Y-67450000I0J200000D01*
G01*
X120950000Y-65550000D01*
G75*
G02*
X121150000Y-65350000I200000J0D01*
G01*
X121950000Y-65350000D01*
G75*
G02*
X122150000Y-65550000I0J-200000D01*
G01*
X122150000Y-67450000D01*
G75*
G02*
X121950000Y-67650000I-200000J0D01*
G01*
G37*
%TD*%
%TO.C,Q1*%
G36*
G01*
X110134000Y-84116000D02*
X109334000Y-84116000D01*
G75*
G02*
X109134000Y-83916000I0J200000D01*
G01*
X109134000Y-82016000D01*
G75*
G02*
X109334000Y-81816000I200000J0D01*
G01*
X110134000Y-81816000D01*
G75*
G02*
X110334000Y-82016000I0J-200000D01*
G01*
X110334000Y-83916000D01*
G75*
G02*
X110134000Y-84116000I-200000J0D01*
G01*
G37*
G36*
G01*
X111084000Y-87116000D02*
X110284000Y-87116000D01*
G75*
G02*
X110084000Y-86916000I0J200000D01*
G01*
X110084000Y-85016000D01*
G75*
G02*
X110284000Y-84816000I200000J0D01*
G01*
X111084000Y-84816000D01*
G75*
G02*
X111284000Y-85016000I0J-200000D01*
G01*
X111284000Y-86916000D01*
G75*
G02*
X111084000Y-87116000I-200000J0D01*
G01*
G37*
G36*
G01*
X109184000Y-87116000D02*
X108384000Y-87116000D01*
G75*
G02*
X108184000Y-86916000I0J200000D01*
G01*
X108184000Y-85016000D01*
G75*
G02*
X108384000Y-84816000I200000J0D01*
G01*
X109184000Y-84816000D01*
G75*
G02*
X109384000Y-85016000I0J-200000D01*
G01*
X109384000Y-86916000D01*
G75*
G02*
X109184000Y-87116000I-200000J0D01*
G01*
G37*
%TD*%
%TO.C,C9*%
G36*
G01*
X86300000Y-50225467D02*
X86300000Y-51774533D01*
G75*
G02*
X85974533Y-52100000I-325467J0D01*
G01*
X84900467Y-52100000D01*
G75*
G02*
X84575000Y-51774533I0J325467D01*
G01*
X84575000Y-50225467D01*
G75*
G02*
X84900467Y-49900000I325467J0D01*
G01*
X85974533Y-49900000D01*
G75*
G02*
X86300000Y-50225467I0J-325467D01*
G01*
G37*
G36*
G01*
X89425000Y-50225467D02*
X89425000Y-51774533D01*
G75*
G02*
X89099533Y-52100000I-325467J0D01*
G01*
X88025467Y-52100000D01*
G75*
G02*
X87700000Y-51774533I0J325467D01*
G01*
X87700000Y-50225467D01*
G75*
G02*
X88025467Y-49900000I325467J0D01*
G01*
X89099533Y-49900000D01*
G75*
G02*
X89425000Y-50225467I0J-325467D01*
G01*
G37*
%TD*%
%TO.C,C7*%
G36*
G01*
X86300000Y-44225467D02*
X86300000Y-45774533D01*
G75*
G02*
X85974533Y-46100000I-325467J0D01*
G01*
X84900467Y-46100000D01*
G75*
G02*
X84575000Y-45774533I0J325467D01*
G01*
X84575000Y-44225467D01*
G75*
G02*
X84900467Y-43900000I325467J0D01*
G01*
X85974533Y-43900000D01*
G75*
G02*
X86300000Y-44225467I0J-325467D01*
G01*
G37*
G36*
G01*
X89425000Y-44225467D02*
X89425000Y-45774533D01*
G75*
G02*
X89099533Y-46100000I-325467J0D01*
G01*
X88025467Y-46100000D01*
G75*
G02*
X87700000Y-45774533I0J325467D01*
G01*
X87700000Y-44225467D01*
G75*
G02*
X88025467Y-43900000I325467J0D01*
G01*
X89099533Y-43900000D01*
G75*
G02*
X89425000Y-44225467I0J-325467D01*
G01*
G37*
%TD*%
%TO.C,C5*%
G36*
G01*
X83774533Y-66300000D02*
X82225467Y-66300000D01*
G75*
G02*
X81900000Y-65974533I0J325467D01*
G01*
X81900000Y-64900467D01*
G75*
G02*
X82225467Y-64575000I325467J0D01*
G01*
X83774533Y-64575000D01*
G75*
G02*
X84100000Y-64900467I0J-325467D01*
G01*
X84100000Y-65974533D01*
G75*
G02*
X83774533Y-66300000I-325467J0D01*
G01*
G37*
G36*
G01*
X83774533Y-69425000D02*
X82225467Y-69425000D01*
G75*
G02*
X81900000Y-69099533I0J325467D01*
G01*
X81900000Y-68025467D01*
G75*
G02*
X82225467Y-67700000I325467J0D01*
G01*
X83774533Y-67700000D01*
G75*
G02*
X84100000Y-68025467I0J-325467D01*
G01*
X84100000Y-69099533D01*
G75*
G02*
X83774533Y-69425000I-325467J0D01*
G01*
G37*
%TD*%
%TO.C,C3*%
G36*
G01*
X83774533Y-59300000D02*
X82225467Y-59300000D01*
G75*
G02*
X81900000Y-58974533I0J325467D01*
G01*
X81900000Y-57900467D01*
G75*
G02*
X82225467Y-57575000I325467J0D01*
G01*
X83774533Y-57575000D01*
G75*
G02*
X84100000Y-57900467I0J-325467D01*
G01*
X84100000Y-58974533D01*
G75*
G02*
X83774533Y-59300000I-325467J0D01*
G01*
G37*
G36*
G01*
X83774533Y-62425000D02*
X82225467Y-62425000D01*
G75*
G02*
X81900000Y-62099533I0J325467D01*
G01*
X81900000Y-61025467D01*
G75*
G02*
X82225467Y-60700000I325467J0D01*
G01*
X83774533Y-60700000D01*
G75*
G02*
X84100000Y-61025467I0J-325467D01*
G01*
X84100000Y-62099533D01*
G75*
G02*
X83774533Y-62425000I-325467J0D01*
G01*
G37*
%TD*%
%TO.C,C2*%
G36*
G01*
X110274533Y-75300000D02*
X108725467Y-75300000D01*
G75*
G02*
X108400000Y-74974533I0J325467D01*
G01*
X108400000Y-73900467D01*
G75*
G02*
X108725467Y-73575000I325467J0D01*
G01*
X110274533Y-73575000D01*
G75*
G02*
X110600000Y-73900467I0J-325467D01*
G01*
X110600000Y-74974533D01*
G75*
G02*
X110274533Y-75300000I-325467J0D01*
G01*
G37*
G36*
G01*
X110274533Y-78425000D02*
X108725467Y-78425000D01*
G75*
G02*
X108400000Y-78099533I0J325467D01*
G01*
X108400000Y-77025467D01*
G75*
G02*
X108725467Y-76700000I325467J0D01*
G01*
X110274533Y-76700000D01*
G75*
G02*
X110600000Y-77025467I0J-325467D01*
G01*
X110600000Y-78099533D01*
G75*
G02*
X110274533Y-78425000I-325467J0D01*
G01*
G37*
%TD*%
%TO.C,C1*%
G36*
G01*
X95725467Y-76700000D02*
X97274533Y-76700000D01*
G75*
G02*
X97600000Y-77025467I0J-325467D01*
G01*
X97600000Y-78099533D01*
G75*
G02*
X97274533Y-78425000I-325467J0D01*
G01*
X95725467Y-78425000D01*
G75*
G02*
X95400000Y-78099533I0J325467D01*
G01*
X95400000Y-77025467D01*
G75*
G02*
X95725467Y-76700000I325467J0D01*
G01*
G37*
G36*
G01*
X95725467Y-73575000D02*
X97274533Y-73575000D01*
G75*
G02*
X97600000Y-73900467I0J-325467D01*
G01*
X97600000Y-74974533D01*
G75*
G02*
X97274533Y-75300000I-325467J0D01*
G01*
X95725467Y-75300000D01*
G75*
G02*
X95400000Y-74974533I0J325467D01*
G01*
X95400000Y-73900467D01*
G75*
G02*
X95725467Y-73575000I325467J0D01*
G01*
G37*
%TD*%
D14*
%TO.C,M1*%
X99330000Y-88786600D03*
G36*
G01*
X101230000Y-86621600D02*
X101230000Y-85371600D01*
G75*
G02*
X101430000Y-85171600I200000J0D01*
G01*
X101830000Y-85171600D01*
G75*
G02*
X102030000Y-85371600I0J-200000D01*
G01*
X102030000Y-86621600D01*
G75*
G02*
X101830000Y-86821600I-200000J0D01*
G01*
X101430000Y-86821600D01*
G75*
G02*
X101230000Y-86621600I0J200000D01*
G01*
G37*
G36*
G01*
X101880000Y-86621600D02*
X101880000Y-85371600D01*
G75*
G02*
X102080000Y-85171600I200000J0D01*
G01*
X102480000Y-85171600D01*
G75*
G02*
X102680000Y-85371600I0J-200000D01*
G01*
X102680000Y-86621600D01*
G75*
G02*
X102480000Y-86821600I-200000J0D01*
G01*
X102080000Y-86821600D01*
G75*
G02*
X101880000Y-86621600I0J200000D01*
G01*
G37*
G36*
G01*
X103830000Y-86621600D02*
X103830000Y-85371600D01*
G75*
G02*
X104030000Y-85171600I200000J0D01*
G01*
X104430000Y-85171600D01*
G75*
G02*
X104630000Y-85371600I0J-200000D01*
G01*
X104630000Y-86621600D01*
G75*
G02*
X104430000Y-86821600I-200000J0D01*
G01*
X104030000Y-86821600D01*
G75*
G02*
X103830000Y-86621600I0J200000D01*
G01*
G37*
G36*
G01*
X103180000Y-86621600D02*
X103180000Y-85371600D01*
G75*
G02*
X103380000Y-85171600I200000J0D01*
G01*
X103780000Y-85171600D01*
G75*
G02*
X103980000Y-85371600I0J-200000D01*
G01*
X103980000Y-86621600D01*
G75*
G02*
X103780000Y-86821600I-200000J0D01*
G01*
X103380000Y-86821600D01*
G75*
G02*
X103180000Y-86621600I0J200000D01*
G01*
G37*
D15*
X100505000Y-85996600D03*
X105355000Y-85996600D03*
G36*
G01*
X102530000Y-86621600D02*
X102530000Y-85371600D01*
G75*
G02*
X102730000Y-85171600I200000J0D01*
G01*
X103130000Y-85171600D01*
G75*
G02*
X103330000Y-85371600I0J-200000D01*
G01*
X103330000Y-86621600D01*
G75*
G02*
X103130000Y-86821600I-200000J0D01*
G01*
X102730000Y-86821600D01*
G75*
G02*
X102530000Y-86621600I0J200000D01*
G01*
G37*
D14*
X106530000Y-88786600D03*
%TD*%
M02*
