%TF.GenerationSoftware,KiCad,Pcbnew,(5.1.9)-1*%
%TF.CreationDate,2021-04-30T15:53:42+02:00*%
%TF.ProjectId,AidonBoard32,4169646f-6e42-46f6-9172-6433322e6b69,2*%
%TF.SameCoordinates,Original*%
%TF.FileFunction,Copper,L2,Bot*%
%TF.FilePolarity,Positive*%
%FSLAX46Y46*%
G04 Gerber Fmt 4.6, Leading zero omitted, Abs format (unit mm)*
G04 Created by KiCad (PCBNEW (5.1.9)-1) date 2021-04-30 15:53:42*
%MOMM*%
%LPD*%
G01*
G04 APERTURE LIST*
%TA.AperFunction,ComponentPad*%
%ADD10C,1.398000*%
%TD*%
%TA.AperFunction,ComponentPad*%
%ADD11R,1.398000X1.398000*%
%TD*%
%TA.AperFunction,ComponentPad*%
%ADD12O,1.100000X1.800000*%
%TD*%
%TA.AperFunction,ComponentPad*%
%ADD13C,1.250000*%
%TD*%
%TA.AperFunction,ViaPad*%
%ADD14C,0.600000*%
%TD*%
%TA.AperFunction,Conductor*%
%ADD15C,0.250000*%
%TD*%
%TA.AperFunction,Conductor*%
%ADD16C,0.254000*%
%TD*%
%TA.AperFunction,Conductor*%
%ADD17C,0.100000*%
%TD*%
G04 APERTURE END LIST*
D10*
%TO.P,J1,6*%
%TO.N,GND*%
X122850000Y-77040000D03*
%TO.P,J1,5*%
%TO.N,/HAN_OUT*%
X121580000Y-74500000D03*
%TO.P,J1,4*%
%TO.N,N/C*%
X120310000Y-77040000D03*
%TO.P,J1,3*%
%TO.N,GND*%
X119040000Y-74500000D03*
%TO.P,J1,2*%
%TO.N,+5V*%
X117770000Y-77040000D03*
D11*
%TO.P,J1,1*%
X116500000Y-74500000D03*
%TD*%
D12*
%TO.P,M1,0*%
%TO.N,N/C*%
X99330000Y-88786600D03*
D13*
X100505000Y-85996600D03*
X105355000Y-85996600D03*
D12*
X106530000Y-88786600D03*
%TD*%
D14*
%TO.N,VBUS*%
X88507700Y-66716600D03*
X85910500Y-66608500D03*
%TO.N,GND*%
X85250000Y-70500000D03*
X85250000Y-71250000D03*
X85250000Y-72000000D03*
X85250000Y-72750000D03*
X93250000Y-80250000D03*
X93250000Y-79250000D03*
X93250000Y-79250000D03*
X93250000Y-78250000D03*
X93250000Y-77250000D03*
X85750000Y-60250000D03*
X85750000Y-59250000D03*
X85750000Y-58250000D03*
X85750000Y-57250000D03*
X85750000Y-56250000D03*
X85750000Y-55250000D03*
X83250000Y-68500000D03*
X80250000Y-90250000D03*
X81250000Y-90250000D03*
X82250000Y-90250000D03*
X83250000Y-90250000D03*
X84250000Y-90250000D03*
X85250000Y-90250000D03*
X86250000Y-90250000D03*
X87250000Y-90250000D03*
X88250000Y-90250000D03*
X89250000Y-90250000D03*
X90250000Y-90250000D03*
X91250000Y-90250000D03*
X92250000Y-90250000D03*
X93250000Y-90250000D03*
X94250000Y-90250000D03*
X93250000Y-76250000D03*
X93250000Y-75250000D03*
X93250000Y-74250000D03*
X93250000Y-73250000D03*
X93250000Y-72250000D03*
X80250000Y-89250000D03*
X80250000Y-88250000D03*
X80250000Y-87250000D03*
X80250000Y-86250000D03*
X80250000Y-85250000D03*
X80250000Y-84250000D03*
X80250000Y-83250000D03*
X103250000Y-78750000D03*
X104250000Y-78750000D03*
X105250000Y-78750000D03*
X106250000Y-78750000D03*
%TO.N,+3V3*%
X86970400Y-62087000D03*
X101203700Y-78424900D03*
X90921700Y-69141500D03*
X88108500Y-65375600D03*
X84900000Y-65392000D03*
%TO.N,/MCU_RX*%
X90296000Y-60544200D03*
X110245600Y-46009100D03*
%TO.N,/DTR*%
X116592600Y-66805000D03*
X89296000Y-60636000D03*
%TO.N,/EN*%
X121389900Y-63915100D03*
X93448000Y-58291900D03*
%TD*%
D15*
%TO.N,VBUS*%
X88507700Y-66716600D02*
X88399600Y-66608500D01*
X88399600Y-66608500D02*
X85910500Y-66608500D01*
%TO.N,+3V3*%
X86970400Y-64261300D02*
X86970400Y-62087000D01*
X84900000Y-65392000D02*
X86030700Y-64261300D01*
X86030700Y-64261300D02*
X86970400Y-64261300D01*
X88108500Y-65375600D02*
X88084700Y-65375600D01*
X88084700Y-65375600D02*
X86970400Y-64261300D01*
X90921700Y-69141500D02*
X91920300Y-69141500D01*
X91920300Y-69141500D02*
X98389400Y-75610600D01*
X88108500Y-65375600D02*
X90921700Y-68188800D01*
X90921700Y-68188800D02*
X90921700Y-69141500D01*
X98639400Y-75860600D02*
X101203700Y-78424900D01*
X98389400Y-75610600D02*
X98639400Y-75860600D01*
%TO.N,/MCU_RX*%
X90296000Y-60544200D02*
X104831100Y-46009100D01*
X104831100Y-46009100D02*
X110245600Y-46009100D01*
%TO.N,/DTR*%
X116592600Y-66805000D02*
X95465000Y-66805000D01*
X95465000Y-66805000D02*
X89296000Y-60636000D01*
%TO.N,/EN*%
X121389900Y-63915100D02*
X115766700Y-58291900D01*
X115766700Y-58291900D02*
X93448000Y-58291900D01*
%TD*%
D16*
%TO.N,GND*%
X126290000Y-81733878D02*
X126190666Y-81634544D01*
X125820511Y-81387214D01*
X125409218Y-81216851D01*
X124972591Y-81130000D01*
X124527409Y-81130000D01*
X124090782Y-81216851D01*
X123679489Y-81387214D01*
X123309334Y-81634544D01*
X122994544Y-81949334D01*
X122747214Y-82319489D01*
X122576851Y-82730782D01*
X122490000Y-83167409D01*
X122490000Y-83612591D01*
X122576851Y-84049218D01*
X122747214Y-84460511D01*
X122994544Y-84830666D01*
X123309334Y-85145456D01*
X123679489Y-85392786D01*
X124090782Y-85563149D01*
X124527409Y-85650000D01*
X124972591Y-85650000D01*
X125409218Y-85563149D01*
X125820511Y-85392786D01*
X126190666Y-85145456D01*
X126290000Y-85046122D01*
X126290000Y-90790000D01*
X79710000Y-90790000D01*
X79710000Y-88378394D01*
X98145000Y-88378394D01*
X98145000Y-89194807D01*
X98162147Y-89368900D01*
X98229906Y-89592274D01*
X98339943Y-89798136D01*
X98488026Y-89978575D01*
X98668465Y-90126658D01*
X98874327Y-90236694D01*
X99097701Y-90304453D01*
X99330000Y-90327333D01*
X99562300Y-90304453D01*
X99785674Y-90236694D01*
X99991536Y-90126658D01*
X100171975Y-89978575D01*
X100320058Y-89798136D01*
X100430094Y-89592274D01*
X100497853Y-89368899D01*
X100515000Y-89194806D01*
X100515000Y-88378394D01*
X105345000Y-88378394D01*
X105345000Y-89194807D01*
X105362147Y-89368900D01*
X105429906Y-89592274D01*
X105539943Y-89798136D01*
X105688026Y-89978575D01*
X105868465Y-90126658D01*
X106074327Y-90236694D01*
X106297701Y-90304453D01*
X106530000Y-90327333D01*
X106762300Y-90304453D01*
X106985674Y-90236694D01*
X107191536Y-90126658D01*
X107371975Y-89978575D01*
X107520058Y-89798136D01*
X107630094Y-89592274D01*
X107697853Y-89368899D01*
X107715000Y-89194806D01*
X107715000Y-88378393D01*
X107697853Y-88204300D01*
X107630094Y-87980926D01*
X107520058Y-87775064D01*
X107371975Y-87594625D01*
X107191535Y-87446542D01*
X106985673Y-87336506D01*
X106762299Y-87268747D01*
X106530000Y-87245867D01*
X106297700Y-87268747D01*
X106074326Y-87336506D01*
X105868464Y-87446542D01*
X105688025Y-87594625D01*
X105539942Y-87775065D01*
X105429906Y-87980927D01*
X105362147Y-88204301D01*
X105345000Y-88378394D01*
X100515000Y-88378394D01*
X100515000Y-88378393D01*
X100497853Y-88204300D01*
X100430094Y-87980926D01*
X100320058Y-87775064D01*
X100171975Y-87594625D01*
X99991535Y-87446542D01*
X99785673Y-87336506D01*
X99562299Y-87268747D01*
X99330000Y-87245867D01*
X99097700Y-87268747D01*
X98874326Y-87336506D01*
X98668464Y-87446542D01*
X98488025Y-87594625D01*
X98339942Y-87775065D01*
X98229906Y-87980927D01*
X98162147Y-88204301D01*
X98145000Y-88378394D01*
X79710000Y-88378394D01*
X79710000Y-85872501D01*
X99245000Y-85872501D01*
X99245000Y-86120699D01*
X99293421Y-86364129D01*
X99388402Y-86593434D01*
X99526294Y-86799803D01*
X99701797Y-86975306D01*
X99908166Y-87113198D01*
X100137471Y-87208179D01*
X100380901Y-87256600D01*
X100629099Y-87256600D01*
X100872529Y-87208179D01*
X101101834Y-87113198D01*
X101308203Y-86975306D01*
X101483706Y-86799803D01*
X101621598Y-86593434D01*
X101716579Y-86364129D01*
X101765000Y-86120699D01*
X101765000Y-85872501D01*
X104095000Y-85872501D01*
X104095000Y-86120699D01*
X104143421Y-86364129D01*
X104238402Y-86593434D01*
X104376294Y-86799803D01*
X104551797Y-86975306D01*
X104758166Y-87113198D01*
X104987471Y-87208179D01*
X105230901Y-87256600D01*
X105479099Y-87256600D01*
X105722529Y-87208179D01*
X105951834Y-87113198D01*
X106158203Y-86975306D01*
X106333706Y-86799803D01*
X106471598Y-86593434D01*
X106566579Y-86364129D01*
X106615000Y-86120699D01*
X106615000Y-85872501D01*
X106566579Y-85629071D01*
X106471598Y-85399766D01*
X106333706Y-85193397D01*
X106158203Y-85017894D01*
X105951834Y-84880002D01*
X105722529Y-84785021D01*
X105479099Y-84736600D01*
X105230901Y-84736600D01*
X104987471Y-84785021D01*
X104758166Y-84880002D01*
X104551797Y-85017894D01*
X104376294Y-85193397D01*
X104238402Y-85399766D01*
X104143421Y-85629071D01*
X104095000Y-85872501D01*
X101765000Y-85872501D01*
X101716579Y-85629071D01*
X101621598Y-85399766D01*
X101483706Y-85193397D01*
X101308203Y-85017894D01*
X101101834Y-84880002D01*
X100872529Y-84785021D01*
X100629099Y-84736600D01*
X100380901Y-84736600D01*
X100137471Y-84785021D01*
X99908166Y-84880002D01*
X99701797Y-85017894D01*
X99526294Y-85193397D01*
X99388402Y-85399766D01*
X99293421Y-85629071D01*
X99245000Y-85872501D01*
X79710000Y-85872501D01*
X79710000Y-83167409D01*
X112330000Y-83167409D01*
X112330000Y-83612591D01*
X112416851Y-84049218D01*
X112587214Y-84460511D01*
X112834544Y-84830666D01*
X113149334Y-85145456D01*
X113519489Y-85392786D01*
X113930782Y-85563149D01*
X114367409Y-85650000D01*
X114812591Y-85650000D01*
X115249218Y-85563149D01*
X115660511Y-85392786D01*
X116030666Y-85145456D01*
X116345456Y-84830666D01*
X116592786Y-84460511D01*
X116763149Y-84049218D01*
X116850000Y-83612591D01*
X116850000Y-83167409D01*
X116763149Y-82730782D01*
X116592786Y-82319489D01*
X116345456Y-81949334D01*
X116030666Y-81634544D01*
X115660511Y-81387214D01*
X115249218Y-81216851D01*
X114812591Y-81130000D01*
X114367409Y-81130000D01*
X113930782Y-81216851D01*
X113519489Y-81387214D01*
X113149334Y-81634544D01*
X112834544Y-81949334D01*
X112587214Y-82319489D01*
X112416851Y-82730782D01*
X112330000Y-83167409D01*
X79710000Y-83167409D01*
X79710000Y-65299911D01*
X83965000Y-65299911D01*
X83965000Y-65484089D01*
X84000932Y-65664729D01*
X84071414Y-65834889D01*
X84173738Y-65988028D01*
X84303972Y-66118262D01*
X84457111Y-66220586D01*
X84627271Y-66291068D01*
X84807911Y-66327000D01*
X84992089Y-66327000D01*
X85017128Y-66322019D01*
X85011432Y-66335771D01*
X84975500Y-66516411D01*
X84975500Y-66700589D01*
X85011432Y-66881229D01*
X85081914Y-67051389D01*
X85184238Y-67204528D01*
X85314472Y-67334762D01*
X85467611Y-67437086D01*
X85637771Y-67507568D01*
X85818411Y-67543500D01*
X86002589Y-67543500D01*
X86183229Y-67507568D01*
X86353389Y-67437086D01*
X86456035Y-67368500D01*
X87837310Y-67368500D01*
X87911672Y-67442862D01*
X88064811Y-67545186D01*
X88234971Y-67615668D01*
X88415611Y-67651600D01*
X88599789Y-67651600D01*
X88780429Y-67615668D01*
X88950589Y-67545186D01*
X89102069Y-67443971D01*
X90161700Y-68503602D01*
X90161700Y-68595964D01*
X90093114Y-68698611D01*
X90022632Y-68868771D01*
X89986700Y-69049411D01*
X89986700Y-69233589D01*
X90022632Y-69414229D01*
X90093114Y-69584389D01*
X90195438Y-69737528D01*
X90325672Y-69867762D01*
X90478811Y-69970086D01*
X90648971Y-70040568D01*
X90829611Y-70076500D01*
X91013789Y-70076500D01*
X91194429Y-70040568D01*
X91364589Y-69970086D01*
X91467235Y-69901500D01*
X91605499Y-69901500D01*
X97878397Y-76174399D01*
X97878402Y-76174403D01*
X98128397Y-76424399D01*
X98128402Y-76424403D01*
X100280547Y-78576549D01*
X100304632Y-78697629D01*
X100375114Y-78867789D01*
X100477438Y-79020928D01*
X100607672Y-79151162D01*
X100760811Y-79253486D01*
X100930971Y-79323968D01*
X101111611Y-79359900D01*
X101295789Y-79359900D01*
X101476429Y-79323968D01*
X101646589Y-79253486D01*
X101799728Y-79151162D01*
X101929962Y-79020928D01*
X102032286Y-78867789D01*
X102102768Y-78697629D01*
X102138700Y-78516989D01*
X102138700Y-78332811D01*
X102102768Y-78152171D01*
X102032286Y-77982011D01*
X101929962Y-77828872D01*
X101799728Y-77698638D01*
X101646589Y-77596314D01*
X101476429Y-77525832D01*
X101355349Y-77501747D01*
X99203203Y-75349602D01*
X99203199Y-75349597D01*
X98953203Y-75099602D01*
X98953199Y-75099597D01*
X97654602Y-73801000D01*
X115162928Y-73801000D01*
X115162928Y-75199000D01*
X115175188Y-75323482D01*
X115211498Y-75443180D01*
X115270463Y-75553494D01*
X115349815Y-75650185D01*
X115446506Y-75729537D01*
X115556820Y-75788502D01*
X115676518Y-75824812D01*
X115801000Y-75837072D01*
X117188214Y-75837072D01*
X117138114Y-75857824D01*
X116919624Y-76003814D01*
X116733814Y-76189624D01*
X116587824Y-76408114D01*
X116487265Y-76650886D01*
X116436000Y-76908612D01*
X116436000Y-77171388D01*
X116487265Y-77429114D01*
X116587824Y-77671886D01*
X116733814Y-77890376D01*
X116919624Y-78076186D01*
X117138114Y-78222176D01*
X117380886Y-78322735D01*
X117638612Y-78374000D01*
X117901388Y-78374000D01*
X118159114Y-78322735D01*
X118401886Y-78222176D01*
X118620376Y-78076186D01*
X118806186Y-77890376D01*
X118952176Y-77671886D01*
X119040000Y-77459859D01*
X119127824Y-77671886D01*
X119273814Y-77890376D01*
X119459624Y-78076186D01*
X119678114Y-78222176D01*
X119920886Y-78322735D01*
X120178612Y-78374000D01*
X120441388Y-78374000D01*
X120699114Y-78322735D01*
X120941886Y-78222176D01*
X121160376Y-78076186D01*
X121276007Y-77960555D01*
X122109050Y-77960555D01*
X122168389Y-78194221D01*
X122406664Y-78305018D01*
X122661975Y-78367202D01*
X122924512Y-78378382D01*
X123184186Y-78338129D01*
X123431017Y-78247990D01*
X123531611Y-78194221D01*
X123590950Y-77960555D01*
X122850000Y-77219605D01*
X122109050Y-77960555D01*
X121276007Y-77960555D01*
X121346186Y-77890376D01*
X121492176Y-77671886D01*
X121581678Y-77455808D01*
X121642010Y-77621017D01*
X121695779Y-77721611D01*
X121929445Y-77780950D01*
X122670395Y-77040000D01*
X123029605Y-77040000D01*
X123770555Y-77780950D01*
X124004221Y-77721611D01*
X124115018Y-77483336D01*
X124177202Y-77228025D01*
X124188382Y-76965488D01*
X124148129Y-76705814D01*
X124057990Y-76458983D01*
X124004221Y-76358389D01*
X123770555Y-76299050D01*
X123029605Y-77040000D01*
X122670395Y-77040000D01*
X121929445Y-76299050D01*
X121695779Y-76358389D01*
X121584982Y-76596664D01*
X121579536Y-76619022D01*
X121492176Y-76408114D01*
X121346186Y-76189624D01*
X121276007Y-76119445D01*
X122109050Y-76119445D01*
X122850000Y-76860395D01*
X123590950Y-76119445D01*
X123531611Y-75885779D01*
X123293336Y-75774982D01*
X123038025Y-75712798D01*
X122775488Y-75701618D01*
X122515814Y-75741871D01*
X122268983Y-75832010D01*
X122168389Y-75885779D01*
X122109050Y-76119445D01*
X121276007Y-76119445D01*
X121160376Y-76003814D01*
X120941886Y-75857824D01*
X120699114Y-75757265D01*
X120441388Y-75706000D01*
X120178612Y-75706000D01*
X119920886Y-75757265D01*
X119678114Y-75857824D01*
X119459624Y-76003814D01*
X119273814Y-76189624D01*
X119127824Y-76408114D01*
X119040000Y-76620141D01*
X118952176Y-76408114D01*
X118806186Y-76189624D01*
X118620376Y-76003814D01*
X118401886Y-75857824D01*
X118159114Y-75757265D01*
X117901388Y-75706000D01*
X117638612Y-75706000D01*
X117564119Y-75720818D01*
X117650185Y-75650185D01*
X117729537Y-75553494D01*
X117788502Y-75443180D01*
X117795365Y-75420555D01*
X118299050Y-75420555D01*
X118358389Y-75654221D01*
X118596664Y-75765018D01*
X118851975Y-75827202D01*
X119114512Y-75838382D01*
X119374186Y-75798129D01*
X119621017Y-75707990D01*
X119721611Y-75654221D01*
X119780950Y-75420555D01*
X119040000Y-74679605D01*
X118299050Y-75420555D01*
X117795365Y-75420555D01*
X117824812Y-75323482D01*
X117837072Y-75199000D01*
X117837072Y-75090487D01*
X117885779Y-75181611D01*
X118119445Y-75240950D01*
X118860395Y-74500000D01*
X119219605Y-74500000D01*
X119960555Y-75240950D01*
X120194221Y-75181611D01*
X120305018Y-74943336D01*
X120310464Y-74920978D01*
X120397824Y-75131886D01*
X120543814Y-75350376D01*
X120729624Y-75536186D01*
X120948114Y-75682176D01*
X121190886Y-75782735D01*
X121448612Y-75834000D01*
X121711388Y-75834000D01*
X121969114Y-75782735D01*
X122211886Y-75682176D01*
X122430376Y-75536186D01*
X122616186Y-75350376D01*
X122762176Y-75131886D01*
X122862735Y-74889114D01*
X122914000Y-74631388D01*
X122914000Y-74368612D01*
X122862735Y-74110886D01*
X122762176Y-73868114D01*
X122616186Y-73649624D01*
X122430376Y-73463814D01*
X122211886Y-73317824D01*
X121969114Y-73217265D01*
X121711388Y-73166000D01*
X121448612Y-73166000D01*
X121190886Y-73217265D01*
X120948114Y-73317824D01*
X120729624Y-73463814D01*
X120543814Y-73649624D01*
X120397824Y-73868114D01*
X120308322Y-74084192D01*
X120247990Y-73918983D01*
X120194221Y-73818389D01*
X119960555Y-73759050D01*
X119219605Y-74500000D01*
X118860395Y-74500000D01*
X118119445Y-73759050D01*
X117885779Y-73818389D01*
X117837072Y-73923136D01*
X117837072Y-73801000D01*
X117824812Y-73676518D01*
X117795366Y-73579445D01*
X118299050Y-73579445D01*
X119040000Y-74320395D01*
X119780950Y-73579445D01*
X119721611Y-73345779D01*
X119483336Y-73234982D01*
X119228025Y-73172798D01*
X118965488Y-73161618D01*
X118705814Y-73201871D01*
X118458983Y-73292010D01*
X118358389Y-73345779D01*
X118299050Y-73579445D01*
X117795366Y-73579445D01*
X117788502Y-73556820D01*
X117729537Y-73446506D01*
X117650185Y-73349815D01*
X117553494Y-73270463D01*
X117443180Y-73211498D01*
X117323482Y-73175188D01*
X117199000Y-73162928D01*
X115801000Y-73162928D01*
X115676518Y-73175188D01*
X115556820Y-73211498D01*
X115446506Y-73270463D01*
X115349815Y-73349815D01*
X115270463Y-73446506D01*
X115211498Y-73556820D01*
X115175188Y-73676518D01*
X115162928Y-73801000D01*
X97654602Y-73801000D01*
X92484104Y-68630503D01*
X92460301Y-68601499D01*
X92344576Y-68506526D01*
X92212547Y-68435954D01*
X92069286Y-68392497D01*
X91957633Y-68381500D01*
X91957622Y-68381500D01*
X91920300Y-68377824D01*
X91882978Y-68381500D01*
X91681700Y-68381500D01*
X91681700Y-68226133D01*
X91685377Y-68188800D01*
X91670703Y-68039814D01*
X91627246Y-67896553D01*
X91556674Y-67764524D01*
X91485499Y-67677797D01*
X91461701Y-67648799D01*
X91432704Y-67625002D01*
X89031653Y-65223952D01*
X89007568Y-65102871D01*
X88937086Y-64932711D01*
X88834762Y-64779572D01*
X88704528Y-64649338D01*
X88551389Y-64547014D01*
X88381229Y-64476532D01*
X88230439Y-64446538D01*
X87730400Y-63946499D01*
X87730400Y-62632535D01*
X87798986Y-62529889D01*
X87869468Y-62359729D01*
X87905400Y-62179089D01*
X87905400Y-61994911D01*
X87869468Y-61814271D01*
X87798986Y-61644111D01*
X87696662Y-61490972D01*
X87566428Y-61360738D01*
X87413289Y-61258414D01*
X87243129Y-61187932D01*
X87062489Y-61152000D01*
X86878311Y-61152000D01*
X86697671Y-61187932D01*
X86527511Y-61258414D01*
X86374372Y-61360738D01*
X86244138Y-61490972D01*
X86141814Y-61644111D01*
X86071332Y-61814271D01*
X86035400Y-61994911D01*
X86035400Y-62179089D01*
X86071332Y-62359729D01*
X86141814Y-62529889D01*
X86210401Y-62632537D01*
X86210400Y-63501300D01*
X86068022Y-63501300D01*
X86030699Y-63497624D01*
X85993376Y-63501300D01*
X85993367Y-63501300D01*
X85881714Y-63512297D01*
X85738453Y-63555754D01*
X85606424Y-63626326D01*
X85490699Y-63721299D01*
X85466901Y-63750297D01*
X84748351Y-64468847D01*
X84627271Y-64492932D01*
X84457111Y-64563414D01*
X84303972Y-64665738D01*
X84173738Y-64795972D01*
X84071414Y-64949111D01*
X84000932Y-65119271D01*
X83965000Y-65299911D01*
X79710000Y-65299911D01*
X79710000Y-60543911D01*
X88361000Y-60543911D01*
X88361000Y-60728089D01*
X88396932Y-60908729D01*
X88467414Y-61078889D01*
X88569738Y-61232028D01*
X88699972Y-61362262D01*
X88853111Y-61464586D01*
X89023271Y-61535068D01*
X89144352Y-61559153D01*
X94901205Y-67316008D01*
X94924999Y-67345001D01*
X94953992Y-67368795D01*
X94953996Y-67368799D01*
X94993268Y-67401028D01*
X95040724Y-67439974D01*
X95172753Y-67510546D01*
X95316014Y-67554003D01*
X95427667Y-67565000D01*
X95427676Y-67565000D01*
X95464999Y-67568676D01*
X95502322Y-67565000D01*
X116047065Y-67565000D01*
X116149711Y-67633586D01*
X116319871Y-67704068D01*
X116500511Y-67740000D01*
X116684689Y-67740000D01*
X116865329Y-67704068D01*
X117035489Y-67633586D01*
X117188628Y-67531262D01*
X117318862Y-67401028D01*
X117421186Y-67247889D01*
X117491668Y-67077729D01*
X117527600Y-66897089D01*
X117527600Y-66712911D01*
X117491668Y-66532271D01*
X117421186Y-66362111D01*
X117318862Y-66208972D01*
X117188628Y-66078738D01*
X117035489Y-65976414D01*
X116865329Y-65905932D01*
X116684689Y-65870000D01*
X116500511Y-65870000D01*
X116319871Y-65905932D01*
X116149711Y-65976414D01*
X116047065Y-66045000D01*
X95779803Y-66045000D01*
X90948646Y-61213844D01*
X91022262Y-61140228D01*
X91124586Y-60987089D01*
X91195068Y-60816929D01*
X91219153Y-60695848D01*
X92878868Y-59036133D01*
X93005111Y-59120486D01*
X93175271Y-59190968D01*
X93355911Y-59226900D01*
X93540089Y-59226900D01*
X93720729Y-59190968D01*
X93890889Y-59120486D01*
X93993535Y-59051900D01*
X115451899Y-59051900D01*
X120466747Y-64066749D01*
X120490832Y-64187829D01*
X120561314Y-64357989D01*
X120663638Y-64511128D01*
X120793872Y-64641362D01*
X120947011Y-64743686D01*
X121117171Y-64814168D01*
X121297811Y-64850100D01*
X121481989Y-64850100D01*
X121662629Y-64814168D01*
X121832789Y-64743686D01*
X121985928Y-64641362D01*
X122116162Y-64511128D01*
X122218486Y-64357989D01*
X122288968Y-64187829D01*
X122324900Y-64007189D01*
X122324900Y-63823011D01*
X122288968Y-63642371D01*
X122218486Y-63472211D01*
X122116162Y-63319072D01*
X121985928Y-63188838D01*
X121832789Y-63086514D01*
X121662629Y-63016032D01*
X121541549Y-62991947D01*
X116330504Y-57780903D01*
X116306701Y-57751899D01*
X116190976Y-57656926D01*
X116058947Y-57586354D01*
X115915686Y-57542897D01*
X115804033Y-57531900D01*
X115804022Y-57531900D01*
X115766700Y-57528224D01*
X115729378Y-57531900D01*
X94383101Y-57531900D01*
X105145902Y-46769100D01*
X109700065Y-46769100D01*
X109802711Y-46837686D01*
X109972871Y-46908168D01*
X110153511Y-46944100D01*
X110337689Y-46944100D01*
X110518329Y-46908168D01*
X110688489Y-46837686D01*
X110841628Y-46735362D01*
X110971862Y-46605128D01*
X111074186Y-46451989D01*
X111144668Y-46281829D01*
X111180600Y-46101189D01*
X111180600Y-45917011D01*
X111144668Y-45736371D01*
X111074186Y-45566211D01*
X110971862Y-45413072D01*
X110841628Y-45282838D01*
X110688489Y-45180514D01*
X110518329Y-45110032D01*
X110337689Y-45074100D01*
X110153511Y-45074100D01*
X109972871Y-45110032D01*
X109802711Y-45180514D01*
X109700065Y-45249100D01*
X104868433Y-45249100D01*
X104831100Y-45245423D01*
X104793767Y-45249100D01*
X104682114Y-45260097D01*
X104538853Y-45303554D01*
X104406824Y-45374126D01*
X104291099Y-45469099D01*
X104267301Y-45498097D01*
X90144352Y-59621047D01*
X90023271Y-59645132D01*
X89853111Y-59715614D01*
X89724588Y-59801490D01*
X89568729Y-59736932D01*
X89388089Y-59701000D01*
X89203911Y-59701000D01*
X89023271Y-59736932D01*
X88853111Y-59807414D01*
X88699972Y-59909738D01*
X88569738Y-60039972D01*
X88467414Y-60193111D01*
X88396932Y-60363271D01*
X88361000Y-60543911D01*
X79710000Y-60543911D01*
X79710000Y-39710000D01*
X126290001Y-39710000D01*
X126290000Y-81733878D01*
%TA.AperFunction,Conductor*%
D17*
G36*
X126290000Y-81733878D02*
G01*
X126190666Y-81634544D01*
X125820511Y-81387214D01*
X125409218Y-81216851D01*
X124972591Y-81130000D01*
X124527409Y-81130000D01*
X124090782Y-81216851D01*
X123679489Y-81387214D01*
X123309334Y-81634544D01*
X122994544Y-81949334D01*
X122747214Y-82319489D01*
X122576851Y-82730782D01*
X122490000Y-83167409D01*
X122490000Y-83612591D01*
X122576851Y-84049218D01*
X122747214Y-84460511D01*
X122994544Y-84830666D01*
X123309334Y-85145456D01*
X123679489Y-85392786D01*
X124090782Y-85563149D01*
X124527409Y-85650000D01*
X124972591Y-85650000D01*
X125409218Y-85563149D01*
X125820511Y-85392786D01*
X126190666Y-85145456D01*
X126290000Y-85046122D01*
X126290000Y-90790000D01*
X79710000Y-90790000D01*
X79710000Y-88378394D01*
X98145000Y-88378394D01*
X98145000Y-89194807D01*
X98162147Y-89368900D01*
X98229906Y-89592274D01*
X98339943Y-89798136D01*
X98488026Y-89978575D01*
X98668465Y-90126658D01*
X98874327Y-90236694D01*
X99097701Y-90304453D01*
X99330000Y-90327333D01*
X99562300Y-90304453D01*
X99785674Y-90236694D01*
X99991536Y-90126658D01*
X100171975Y-89978575D01*
X100320058Y-89798136D01*
X100430094Y-89592274D01*
X100497853Y-89368899D01*
X100515000Y-89194806D01*
X100515000Y-88378394D01*
X105345000Y-88378394D01*
X105345000Y-89194807D01*
X105362147Y-89368900D01*
X105429906Y-89592274D01*
X105539943Y-89798136D01*
X105688026Y-89978575D01*
X105868465Y-90126658D01*
X106074327Y-90236694D01*
X106297701Y-90304453D01*
X106530000Y-90327333D01*
X106762300Y-90304453D01*
X106985674Y-90236694D01*
X107191536Y-90126658D01*
X107371975Y-89978575D01*
X107520058Y-89798136D01*
X107630094Y-89592274D01*
X107697853Y-89368899D01*
X107715000Y-89194806D01*
X107715000Y-88378393D01*
X107697853Y-88204300D01*
X107630094Y-87980926D01*
X107520058Y-87775064D01*
X107371975Y-87594625D01*
X107191535Y-87446542D01*
X106985673Y-87336506D01*
X106762299Y-87268747D01*
X106530000Y-87245867D01*
X106297700Y-87268747D01*
X106074326Y-87336506D01*
X105868464Y-87446542D01*
X105688025Y-87594625D01*
X105539942Y-87775065D01*
X105429906Y-87980927D01*
X105362147Y-88204301D01*
X105345000Y-88378394D01*
X100515000Y-88378394D01*
X100515000Y-88378393D01*
X100497853Y-88204300D01*
X100430094Y-87980926D01*
X100320058Y-87775064D01*
X100171975Y-87594625D01*
X99991535Y-87446542D01*
X99785673Y-87336506D01*
X99562299Y-87268747D01*
X99330000Y-87245867D01*
X99097700Y-87268747D01*
X98874326Y-87336506D01*
X98668464Y-87446542D01*
X98488025Y-87594625D01*
X98339942Y-87775065D01*
X98229906Y-87980927D01*
X98162147Y-88204301D01*
X98145000Y-88378394D01*
X79710000Y-88378394D01*
X79710000Y-85872501D01*
X99245000Y-85872501D01*
X99245000Y-86120699D01*
X99293421Y-86364129D01*
X99388402Y-86593434D01*
X99526294Y-86799803D01*
X99701797Y-86975306D01*
X99908166Y-87113198D01*
X100137471Y-87208179D01*
X100380901Y-87256600D01*
X100629099Y-87256600D01*
X100872529Y-87208179D01*
X101101834Y-87113198D01*
X101308203Y-86975306D01*
X101483706Y-86799803D01*
X101621598Y-86593434D01*
X101716579Y-86364129D01*
X101765000Y-86120699D01*
X101765000Y-85872501D01*
X104095000Y-85872501D01*
X104095000Y-86120699D01*
X104143421Y-86364129D01*
X104238402Y-86593434D01*
X104376294Y-86799803D01*
X104551797Y-86975306D01*
X104758166Y-87113198D01*
X104987471Y-87208179D01*
X105230901Y-87256600D01*
X105479099Y-87256600D01*
X105722529Y-87208179D01*
X105951834Y-87113198D01*
X106158203Y-86975306D01*
X106333706Y-86799803D01*
X106471598Y-86593434D01*
X106566579Y-86364129D01*
X106615000Y-86120699D01*
X106615000Y-85872501D01*
X106566579Y-85629071D01*
X106471598Y-85399766D01*
X106333706Y-85193397D01*
X106158203Y-85017894D01*
X105951834Y-84880002D01*
X105722529Y-84785021D01*
X105479099Y-84736600D01*
X105230901Y-84736600D01*
X104987471Y-84785021D01*
X104758166Y-84880002D01*
X104551797Y-85017894D01*
X104376294Y-85193397D01*
X104238402Y-85399766D01*
X104143421Y-85629071D01*
X104095000Y-85872501D01*
X101765000Y-85872501D01*
X101716579Y-85629071D01*
X101621598Y-85399766D01*
X101483706Y-85193397D01*
X101308203Y-85017894D01*
X101101834Y-84880002D01*
X100872529Y-84785021D01*
X100629099Y-84736600D01*
X100380901Y-84736600D01*
X100137471Y-84785021D01*
X99908166Y-84880002D01*
X99701797Y-85017894D01*
X99526294Y-85193397D01*
X99388402Y-85399766D01*
X99293421Y-85629071D01*
X99245000Y-85872501D01*
X79710000Y-85872501D01*
X79710000Y-83167409D01*
X112330000Y-83167409D01*
X112330000Y-83612591D01*
X112416851Y-84049218D01*
X112587214Y-84460511D01*
X112834544Y-84830666D01*
X113149334Y-85145456D01*
X113519489Y-85392786D01*
X113930782Y-85563149D01*
X114367409Y-85650000D01*
X114812591Y-85650000D01*
X115249218Y-85563149D01*
X115660511Y-85392786D01*
X116030666Y-85145456D01*
X116345456Y-84830666D01*
X116592786Y-84460511D01*
X116763149Y-84049218D01*
X116850000Y-83612591D01*
X116850000Y-83167409D01*
X116763149Y-82730782D01*
X116592786Y-82319489D01*
X116345456Y-81949334D01*
X116030666Y-81634544D01*
X115660511Y-81387214D01*
X115249218Y-81216851D01*
X114812591Y-81130000D01*
X114367409Y-81130000D01*
X113930782Y-81216851D01*
X113519489Y-81387214D01*
X113149334Y-81634544D01*
X112834544Y-81949334D01*
X112587214Y-82319489D01*
X112416851Y-82730782D01*
X112330000Y-83167409D01*
X79710000Y-83167409D01*
X79710000Y-65299911D01*
X83965000Y-65299911D01*
X83965000Y-65484089D01*
X84000932Y-65664729D01*
X84071414Y-65834889D01*
X84173738Y-65988028D01*
X84303972Y-66118262D01*
X84457111Y-66220586D01*
X84627271Y-66291068D01*
X84807911Y-66327000D01*
X84992089Y-66327000D01*
X85017128Y-66322019D01*
X85011432Y-66335771D01*
X84975500Y-66516411D01*
X84975500Y-66700589D01*
X85011432Y-66881229D01*
X85081914Y-67051389D01*
X85184238Y-67204528D01*
X85314472Y-67334762D01*
X85467611Y-67437086D01*
X85637771Y-67507568D01*
X85818411Y-67543500D01*
X86002589Y-67543500D01*
X86183229Y-67507568D01*
X86353389Y-67437086D01*
X86456035Y-67368500D01*
X87837310Y-67368500D01*
X87911672Y-67442862D01*
X88064811Y-67545186D01*
X88234971Y-67615668D01*
X88415611Y-67651600D01*
X88599789Y-67651600D01*
X88780429Y-67615668D01*
X88950589Y-67545186D01*
X89102069Y-67443971D01*
X90161700Y-68503602D01*
X90161700Y-68595964D01*
X90093114Y-68698611D01*
X90022632Y-68868771D01*
X89986700Y-69049411D01*
X89986700Y-69233589D01*
X90022632Y-69414229D01*
X90093114Y-69584389D01*
X90195438Y-69737528D01*
X90325672Y-69867762D01*
X90478811Y-69970086D01*
X90648971Y-70040568D01*
X90829611Y-70076500D01*
X91013789Y-70076500D01*
X91194429Y-70040568D01*
X91364589Y-69970086D01*
X91467235Y-69901500D01*
X91605499Y-69901500D01*
X97878397Y-76174399D01*
X97878402Y-76174403D01*
X98128397Y-76424399D01*
X98128402Y-76424403D01*
X100280547Y-78576549D01*
X100304632Y-78697629D01*
X100375114Y-78867789D01*
X100477438Y-79020928D01*
X100607672Y-79151162D01*
X100760811Y-79253486D01*
X100930971Y-79323968D01*
X101111611Y-79359900D01*
X101295789Y-79359900D01*
X101476429Y-79323968D01*
X101646589Y-79253486D01*
X101799728Y-79151162D01*
X101929962Y-79020928D01*
X102032286Y-78867789D01*
X102102768Y-78697629D01*
X102138700Y-78516989D01*
X102138700Y-78332811D01*
X102102768Y-78152171D01*
X102032286Y-77982011D01*
X101929962Y-77828872D01*
X101799728Y-77698638D01*
X101646589Y-77596314D01*
X101476429Y-77525832D01*
X101355349Y-77501747D01*
X99203203Y-75349602D01*
X99203199Y-75349597D01*
X98953203Y-75099602D01*
X98953199Y-75099597D01*
X97654602Y-73801000D01*
X115162928Y-73801000D01*
X115162928Y-75199000D01*
X115175188Y-75323482D01*
X115211498Y-75443180D01*
X115270463Y-75553494D01*
X115349815Y-75650185D01*
X115446506Y-75729537D01*
X115556820Y-75788502D01*
X115676518Y-75824812D01*
X115801000Y-75837072D01*
X117188214Y-75837072D01*
X117138114Y-75857824D01*
X116919624Y-76003814D01*
X116733814Y-76189624D01*
X116587824Y-76408114D01*
X116487265Y-76650886D01*
X116436000Y-76908612D01*
X116436000Y-77171388D01*
X116487265Y-77429114D01*
X116587824Y-77671886D01*
X116733814Y-77890376D01*
X116919624Y-78076186D01*
X117138114Y-78222176D01*
X117380886Y-78322735D01*
X117638612Y-78374000D01*
X117901388Y-78374000D01*
X118159114Y-78322735D01*
X118401886Y-78222176D01*
X118620376Y-78076186D01*
X118806186Y-77890376D01*
X118952176Y-77671886D01*
X119040000Y-77459859D01*
X119127824Y-77671886D01*
X119273814Y-77890376D01*
X119459624Y-78076186D01*
X119678114Y-78222176D01*
X119920886Y-78322735D01*
X120178612Y-78374000D01*
X120441388Y-78374000D01*
X120699114Y-78322735D01*
X120941886Y-78222176D01*
X121160376Y-78076186D01*
X121276007Y-77960555D01*
X122109050Y-77960555D01*
X122168389Y-78194221D01*
X122406664Y-78305018D01*
X122661975Y-78367202D01*
X122924512Y-78378382D01*
X123184186Y-78338129D01*
X123431017Y-78247990D01*
X123531611Y-78194221D01*
X123590950Y-77960555D01*
X122850000Y-77219605D01*
X122109050Y-77960555D01*
X121276007Y-77960555D01*
X121346186Y-77890376D01*
X121492176Y-77671886D01*
X121581678Y-77455808D01*
X121642010Y-77621017D01*
X121695779Y-77721611D01*
X121929445Y-77780950D01*
X122670395Y-77040000D01*
X123029605Y-77040000D01*
X123770555Y-77780950D01*
X124004221Y-77721611D01*
X124115018Y-77483336D01*
X124177202Y-77228025D01*
X124188382Y-76965488D01*
X124148129Y-76705814D01*
X124057990Y-76458983D01*
X124004221Y-76358389D01*
X123770555Y-76299050D01*
X123029605Y-77040000D01*
X122670395Y-77040000D01*
X121929445Y-76299050D01*
X121695779Y-76358389D01*
X121584982Y-76596664D01*
X121579536Y-76619022D01*
X121492176Y-76408114D01*
X121346186Y-76189624D01*
X121276007Y-76119445D01*
X122109050Y-76119445D01*
X122850000Y-76860395D01*
X123590950Y-76119445D01*
X123531611Y-75885779D01*
X123293336Y-75774982D01*
X123038025Y-75712798D01*
X122775488Y-75701618D01*
X122515814Y-75741871D01*
X122268983Y-75832010D01*
X122168389Y-75885779D01*
X122109050Y-76119445D01*
X121276007Y-76119445D01*
X121160376Y-76003814D01*
X120941886Y-75857824D01*
X120699114Y-75757265D01*
X120441388Y-75706000D01*
X120178612Y-75706000D01*
X119920886Y-75757265D01*
X119678114Y-75857824D01*
X119459624Y-76003814D01*
X119273814Y-76189624D01*
X119127824Y-76408114D01*
X119040000Y-76620141D01*
X118952176Y-76408114D01*
X118806186Y-76189624D01*
X118620376Y-76003814D01*
X118401886Y-75857824D01*
X118159114Y-75757265D01*
X117901388Y-75706000D01*
X117638612Y-75706000D01*
X117564119Y-75720818D01*
X117650185Y-75650185D01*
X117729537Y-75553494D01*
X117788502Y-75443180D01*
X117795365Y-75420555D01*
X118299050Y-75420555D01*
X118358389Y-75654221D01*
X118596664Y-75765018D01*
X118851975Y-75827202D01*
X119114512Y-75838382D01*
X119374186Y-75798129D01*
X119621017Y-75707990D01*
X119721611Y-75654221D01*
X119780950Y-75420555D01*
X119040000Y-74679605D01*
X118299050Y-75420555D01*
X117795365Y-75420555D01*
X117824812Y-75323482D01*
X117837072Y-75199000D01*
X117837072Y-75090487D01*
X117885779Y-75181611D01*
X118119445Y-75240950D01*
X118860395Y-74500000D01*
X119219605Y-74500000D01*
X119960555Y-75240950D01*
X120194221Y-75181611D01*
X120305018Y-74943336D01*
X120310464Y-74920978D01*
X120397824Y-75131886D01*
X120543814Y-75350376D01*
X120729624Y-75536186D01*
X120948114Y-75682176D01*
X121190886Y-75782735D01*
X121448612Y-75834000D01*
X121711388Y-75834000D01*
X121969114Y-75782735D01*
X122211886Y-75682176D01*
X122430376Y-75536186D01*
X122616186Y-75350376D01*
X122762176Y-75131886D01*
X122862735Y-74889114D01*
X122914000Y-74631388D01*
X122914000Y-74368612D01*
X122862735Y-74110886D01*
X122762176Y-73868114D01*
X122616186Y-73649624D01*
X122430376Y-73463814D01*
X122211886Y-73317824D01*
X121969114Y-73217265D01*
X121711388Y-73166000D01*
X121448612Y-73166000D01*
X121190886Y-73217265D01*
X120948114Y-73317824D01*
X120729624Y-73463814D01*
X120543814Y-73649624D01*
X120397824Y-73868114D01*
X120308322Y-74084192D01*
X120247990Y-73918983D01*
X120194221Y-73818389D01*
X119960555Y-73759050D01*
X119219605Y-74500000D01*
X118860395Y-74500000D01*
X118119445Y-73759050D01*
X117885779Y-73818389D01*
X117837072Y-73923136D01*
X117837072Y-73801000D01*
X117824812Y-73676518D01*
X117795366Y-73579445D01*
X118299050Y-73579445D01*
X119040000Y-74320395D01*
X119780950Y-73579445D01*
X119721611Y-73345779D01*
X119483336Y-73234982D01*
X119228025Y-73172798D01*
X118965488Y-73161618D01*
X118705814Y-73201871D01*
X118458983Y-73292010D01*
X118358389Y-73345779D01*
X118299050Y-73579445D01*
X117795366Y-73579445D01*
X117788502Y-73556820D01*
X117729537Y-73446506D01*
X117650185Y-73349815D01*
X117553494Y-73270463D01*
X117443180Y-73211498D01*
X117323482Y-73175188D01*
X117199000Y-73162928D01*
X115801000Y-73162928D01*
X115676518Y-73175188D01*
X115556820Y-73211498D01*
X115446506Y-73270463D01*
X115349815Y-73349815D01*
X115270463Y-73446506D01*
X115211498Y-73556820D01*
X115175188Y-73676518D01*
X115162928Y-73801000D01*
X97654602Y-73801000D01*
X92484104Y-68630503D01*
X92460301Y-68601499D01*
X92344576Y-68506526D01*
X92212547Y-68435954D01*
X92069286Y-68392497D01*
X91957633Y-68381500D01*
X91957622Y-68381500D01*
X91920300Y-68377824D01*
X91882978Y-68381500D01*
X91681700Y-68381500D01*
X91681700Y-68226133D01*
X91685377Y-68188800D01*
X91670703Y-68039814D01*
X91627246Y-67896553D01*
X91556674Y-67764524D01*
X91485499Y-67677797D01*
X91461701Y-67648799D01*
X91432704Y-67625002D01*
X89031653Y-65223952D01*
X89007568Y-65102871D01*
X88937086Y-64932711D01*
X88834762Y-64779572D01*
X88704528Y-64649338D01*
X88551389Y-64547014D01*
X88381229Y-64476532D01*
X88230439Y-64446538D01*
X87730400Y-63946499D01*
X87730400Y-62632535D01*
X87798986Y-62529889D01*
X87869468Y-62359729D01*
X87905400Y-62179089D01*
X87905400Y-61994911D01*
X87869468Y-61814271D01*
X87798986Y-61644111D01*
X87696662Y-61490972D01*
X87566428Y-61360738D01*
X87413289Y-61258414D01*
X87243129Y-61187932D01*
X87062489Y-61152000D01*
X86878311Y-61152000D01*
X86697671Y-61187932D01*
X86527511Y-61258414D01*
X86374372Y-61360738D01*
X86244138Y-61490972D01*
X86141814Y-61644111D01*
X86071332Y-61814271D01*
X86035400Y-61994911D01*
X86035400Y-62179089D01*
X86071332Y-62359729D01*
X86141814Y-62529889D01*
X86210401Y-62632537D01*
X86210400Y-63501300D01*
X86068022Y-63501300D01*
X86030699Y-63497624D01*
X85993376Y-63501300D01*
X85993367Y-63501300D01*
X85881714Y-63512297D01*
X85738453Y-63555754D01*
X85606424Y-63626326D01*
X85490699Y-63721299D01*
X85466901Y-63750297D01*
X84748351Y-64468847D01*
X84627271Y-64492932D01*
X84457111Y-64563414D01*
X84303972Y-64665738D01*
X84173738Y-64795972D01*
X84071414Y-64949111D01*
X84000932Y-65119271D01*
X83965000Y-65299911D01*
X79710000Y-65299911D01*
X79710000Y-60543911D01*
X88361000Y-60543911D01*
X88361000Y-60728089D01*
X88396932Y-60908729D01*
X88467414Y-61078889D01*
X88569738Y-61232028D01*
X88699972Y-61362262D01*
X88853111Y-61464586D01*
X89023271Y-61535068D01*
X89144352Y-61559153D01*
X94901205Y-67316008D01*
X94924999Y-67345001D01*
X94953992Y-67368795D01*
X94953996Y-67368799D01*
X94993268Y-67401028D01*
X95040724Y-67439974D01*
X95172753Y-67510546D01*
X95316014Y-67554003D01*
X95427667Y-67565000D01*
X95427676Y-67565000D01*
X95464999Y-67568676D01*
X95502322Y-67565000D01*
X116047065Y-67565000D01*
X116149711Y-67633586D01*
X116319871Y-67704068D01*
X116500511Y-67740000D01*
X116684689Y-67740000D01*
X116865329Y-67704068D01*
X117035489Y-67633586D01*
X117188628Y-67531262D01*
X117318862Y-67401028D01*
X117421186Y-67247889D01*
X117491668Y-67077729D01*
X117527600Y-66897089D01*
X117527600Y-66712911D01*
X117491668Y-66532271D01*
X117421186Y-66362111D01*
X117318862Y-66208972D01*
X117188628Y-66078738D01*
X117035489Y-65976414D01*
X116865329Y-65905932D01*
X116684689Y-65870000D01*
X116500511Y-65870000D01*
X116319871Y-65905932D01*
X116149711Y-65976414D01*
X116047065Y-66045000D01*
X95779803Y-66045000D01*
X90948646Y-61213844D01*
X91022262Y-61140228D01*
X91124586Y-60987089D01*
X91195068Y-60816929D01*
X91219153Y-60695848D01*
X92878868Y-59036133D01*
X93005111Y-59120486D01*
X93175271Y-59190968D01*
X93355911Y-59226900D01*
X93540089Y-59226900D01*
X93720729Y-59190968D01*
X93890889Y-59120486D01*
X93993535Y-59051900D01*
X115451899Y-59051900D01*
X120466747Y-64066749D01*
X120490832Y-64187829D01*
X120561314Y-64357989D01*
X120663638Y-64511128D01*
X120793872Y-64641362D01*
X120947011Y-64743686D01*
X121117171Y-64814168D01*
X121297811Y-64850100D01*
X121481989Y-64850100D01*
X121662629Y-64814168D01*
X121832789Y-64743686D01*
X121985928Y-64641362D01*
X122116162Y-64511128D01*
X122218486Y-64357989D01*
X122288968Y-64187829D01*
X122324900Y-64007189D01*
X122324900Y-63823011D01*
X122288968Y-63642371D01*
X122218486Y-63472211D01*
X122116162Y-63319072D01*
X121985928Y-63188838D01*
X121832789Y-63086514D01*
X121662629Y-63016032D01*
X121541549Y-62991947D01*
X116330504Y-57780903D01*
X116306701Y-57751899D01*
X116190976Y-57656926D01*
X116058947Y-57586354D01*
X115915686Y-57542897D01*
X115804033Y-57531900D01*
X115804022Y-57531900D01*
X115766700Y-57528224D01*
X115729378Y-57531900D01*
X94383101Y-57531900D01*
X105145902Y-46769100D01*
X109700065Y-46769100D01*
X109802711Y-46837686D01*
X109972871Y-46908168D01*
X110153511Y-46944100D01*
X110337689Y-46944100D01*
X110518329Y-46908168D01*
X110688489Y-46837686D01*
X110841628Y-46735362D01*
X110971862Y-46605128D01*
X111074186Y-46451989D01*
X111144668Y-46281829D01*
X111180600Y-46101189D01*
X111180600Y-45917011D01*
X111144668Y-45736371D01*
X111074186Y-45566211D01*
X110971862Y-45413072D01*
X110841628Y-45282838D01*
X110688489Y-45180514D01*
X110518329Y-45110032D01*
X110337689Y-45074100D01*
X110153511Y-45074100D01*
X109972871Y-45110032D01*
X109802711Y-45180514D01*
X109700065Y-45249100D01*
X104868433Y-45249100D01*
X104831100Y-45245423D01*
X104793767Y-45249100D01*
X104682114Y-45260097D01*
X104538853Y-45303554D01*
X104406824Y-45374126D01*
X104291099Y-45469099D01*
X104267301Y-45498097D01*
X90144352Y-59621047D01*
X90023271Y-59645132D01*
X89853111Y-59715614D01*
X89724588Y-59801490D01*
X89568729Y-59736932D01*
X89388089Y-59701000D01*
X89203911Y-59701000D01*
X89023271Y-59736932D01*
X88853111Y-59807414D01*
X88699972Y-59909738D01*
X88569738Y-60039972D01*
X88467414Y-60193111D01*
X88396932Y-60363271D01*
X88361000Y-60543911D01*
X79710000Y-60543911D01*
X79710000Y-39710000D01*
X126290001Y-39710000D01*
X126290000Y-81733878D01*
G37*
%TD.AperFunction*%
%TD*%
M02*
