%TF.GenerationSoftware,KiCad,Pcbnew,(5.1.9)-1*%
%TF.CreationDate,2021-04-28T14:38:11+02:00*%
%TF.ProjectId,AidonBoard32,4169646f-6e42-46f6-9172-6433322e6b69,1*%
%TF.SameCoordinates,Original*%
%TF.FileFunction,Soldermask,Top*%
%TF.FilePolarity,Negative*%
%FSLAX46Y46*%
G04 Gerber Fmt 4.6, Leading zero omitted, Abs format (unit mm)*
G04 Created by KiCad (PCBNEW (5.1.9)-1) date 2021-04-28 14:38:11*
%MOMM*%
%LPD*%
G01*
G04 APERTURE LIST*
%ADD10C,3.651200*%
%ADD11C,2.082800*%
%ADD12O,2.900000X1.300000*%
%ADD13O,1.300000X2.900000*%
%ADD14O,1.500000X2.200000*%
%ADD15C,1.650000*%
G04 APERTURE END LIST*
%TO.C,D6*%
G36*
G01*
X105806000Y-83608000D02*
X105806000Y-82508000D01*
G75*
G02*
X106006000Y-82308000I200000J0D01*
G01*
X107106000Y-82308000D01*
G75*
G02*
X107306000Y-82508000I0J-200000D01*
G01*
X107306000Y-83608000D01*
G75*
G02*
X107106000Y-83808000I-200000J0D01*
G01*
X106006000Y-83808000D01*
G75*
G02*
X105806000Y-83608000I0J200000D01*
G01*
G37*
G36*
G01*
X103006000Y-83608000D02*
X103006000Y-82508000D01*
G75*
G02*
X103206000Y-82308000I200000J0D01*
G01*
X104306000Y-82308000D01*
G75*
G02*
X104506000Y-82508000I0J-200000D01*
G01*
X104506000Y-83608000D01*
G75*
G02*
X104306000Y-83808000I-200000J0D01*
G01*
X103206000Y-83808000D01*
G75*
G02*
X103006000Y-83608000I0J200000D01*
G01*
G37*
%TD*%
%TO.C,U4*%
G36*
G01*
X113788000Y-66518000D02*
X113288000Y-66518000D01*
G75*
G02*
X113038000Y-66268000I0J250000D01*
G01*
X113038000Y-64418000D01*
G75*
G02*
X113288000Y-64168000I250000J0D01*
G01*
X113788000Y-64168000D01*
G75*
G02*
X114038000Y-64418000I0J-250000D01*
G01*
X114038000Y-66268000D01*
G75*
G02*
X113788000Y-66518000I-250000J0D01*
G01*
G37*
G36*
G01*
X115058000Y-66518000D02*
X114558000Y-66518000D01*
G75*
G02*
X114308000Y-66268000I0J250000D01*
G01*
X114308000Y-64418000D01*
G75*
G02*
X114558000Y-64168000I250000J0D01*
G01*
X115058000Y-64168000D01*
G75*
G02*
X115308000Y-64418000I0J-250000D01*
G01*
X115308000Y-66268000D01*
G75*
G02*
X115058000Y-66518000I-250000J0D01*
G01*
G37*
G36*
G01*
X116328000Y-66518000D02*
X115828000Y-66518000D01*
G75*
G02*
X115578000Y-66268000I0J250000D01*
G01*
X115578000Y-64418000D01*
G75*
G02*
X115828000Y-64168000I250000J0D01*
G01*
X116328000Y-64168000D01*
G75*
G02*
X116578000Y-64418000I0J-250000D01*
G01*
X116578000Y-66268000D01*
G75*
G02*
X116328000Y-66518000I-250000J0D01*
G01*
G37*
G36*
G01*
X117598000Y-66518000D02*
X117098000Y-66518000D01*
G75*
G02*
X116848000Y-66268000I0J250000D01*
G01*
X116848000Y-64418000D01*
G75*
G02*
X117098000Y-64168000I250000J0D01*
G01*
X117598000Y-64168000D01*
G75*
G02*
X117848000Y-64418000I0J-250000D01*
G01*
X117848000Y-66268000D01*
G75*
G02*
X117598000Y-66518000I-250000J0D01*
G01*
G37*
G36*
G01*
X118868000Y-66518000D02*
X118368000Y-66518000D01*
G75*
G02*
X118118000Y-66268000I0J250000D01*
G01*
X118118000Y-64418000D01*
G75*
G02*
X118368000Y-64168000I250000J0D01*
G01*
X118868000Y-64168000D01*
G75*
G02*
X119118000Y-64418000I0J-250000D01*
G01*
X119118000Y-66268000D01*
G75*
G02*
X118868000Y-66518000I-250000J0D01*
G01*
G37*
G36*
G01*
X120138000Y-66518000D02*
X119638000Y-66518000D01*
G75*
G02*
X119388000Y-66268000I0J250000D01*
G01*
X119388000Y-64418000D01*
G75*
G02*
X119638000Y-64168000I250000J0D01*
G01*
X120138000Y-64168000D01*
G75*
G02*
X120388000Y-64418000I0J-250000D01*
G01*
X120388000Y-66268000D01*
G75*
G02*
X120138000Y-66518000I-250000J0D01*
G01*
G37*
G36*
G01*
X121408000Y-66518000D02*
X120908000Y-66518000D01*
G75*
G02*
X120658000Y-66268000I0J250000D01*
G01*
X120658000Y-64418000D01*
G75*
G02*
X120908000Y-64168000I250000J0D01*
G01*
X121408000Y-64168000D01*
G75*
G02*
X121658000Y-64418000I0J-250000D01*
G01*
X121658000Y-66268000D01*
G75*
G02*
X121408000Y-66518000I-250000J0D01*
G01*
G37*
G36*
G01*
X121408000Y-71468000D02*
X120908000Y-71468000D01*
G75*
G02*
X120658000Y-71218000I0J250000D01*
G01*
X120658000Y-69368000D01*
G75*
G02*
X120908000Y-69118000I250000J0D01*
G01*
X121408000Y-69118000D01*
G75*
G02*
X121658000Y-69368000I0J-250000D01*
G01*
X121658000Y-71218000D01*
G75*
G02*
X121408000Y-71468000I-250000J0D01*
G01*
G37*
G36*
G01*
X120138000Y-71468000D02*
X119638000Y-71468000D01*
G75*
G02*
X119388000Y-71218000I0J250000D01*
G01*
X119388000Y-69368000D01*
G75*
G02*
X119638000Y-69118000I250000J0D01*
G01*
X120138000Y-69118000D01*
G75*
G02*
X120388000Y-69368000I0J-250000D01*
G01*
X120388000Y-71218000D01*
G75*
G02*
X120138000Y-71468000I-250000J0D01*
G01*
G37*
G36*
G01*
X118868000Y-71468000D02*
X118368000Y-71468000D01*
G75*
G02*
X118118000Y-71218000I0J250000D01*
G01*
X118118000Y-69368000D01*
G75*
G02*
X118368000Y-69118000I250000J0D01*
G01*
X118868000Y-69118000D01*
G75*
G02*
X119118000Y-69368000I0J-250000D01*
G01*
X119118000Y-71218000D01*
G75*
G02*
X118868000Y-71468000I-250000J0D01*
G01*
G37*
G36*
G01*
X117598000Y-71468000D02*
X117098000Y-71468000D01*
G75*
G02*
X116848000Y-71218000I0J250000D01*
G01*
X116848000Y-69368000D01*
G75*
G02*
X117098000Y-69118000I250000J0D01*
G01*
X117598000Y-69118000D01*
G75*
G02*
X117848000Y-69368000I0J-250000D01*
G01*
X117848000Y-71218000D01*
G75*
G02*
X117598000Y-71468000I-250000J0D01*
G01*
G37*
G36*
G01*
X116328000Y-71468000D02*
X115828000Y-71468000D01*
G75*
G02*
X115578000Y-71218000I0J250000D01*
G01*
X115578000Y-69368000D01*
G75*
G02*
X115828000Y-69118000I250000J0D01*
G01*
X116328000Y-69118000D01*
G75*
G02*
X116578000Y-69368000I0J-250000D01*
G01*
X116578000Y-71218000D01*
G75*
G02*
X116328000Y-71468000I-250000J0D01*
G01*
G37*
G36*
G01*
X115058000Y-71468000D02*
X114558000Y-71468000D01*
G75*
G02*
X114308000Y-71218000I0J250000D01*
G01*
X114308000Y-69368000D01*
G75*
G02*
X114558000Y-69118000I250000J0D01*
G01*
X115058000Y-69118000D01*
G75*
G02*
X115308000Y-69368000I0J-250000D01*
G01*
X115308000Y-71218000D01*
G75*
G02*
X115058000Y-71468000I-250000J0D01*
G01*
G37*
G36*
G01*
X113788000Y-71468000D02*
X113288000Y-71468000D01*
G75*
G02*
X113038000Y-71218000I0J250000D01*
G01*
X113038000Y-69368000D01*
G75*
G02*
X113288000Y-69118000I250000J0D01*
G01*
X113788000Y-69118000D01*
G75*
G02*
X114038000Y-69368000I0J-250000D01*
G01*
X114038000Y-71218000D01*
G75*
G02*
X113788000Y-71468000I-250000J0D01*
G01*
G37*
%TD*%
D10*
%TO.C,J1*%
X123698000Y-86360000D03*
X113538000Y-86360000D03*
D11*
X121793000Y-80010000D03*
X120523000Y-77470000D03*
X119253000Y-80010000D03*
X117983000Y-77470000D03*
X116713000Y-80010000D03*
X115443000Y-77470000D03*
%TD*%
%TO.C,U3*%
G36*
G01*
X105350000Y-37850000D02*
X105350000Y-43850000D01*
G75*
G02*
X105150000Y-44050000I-200000J0D01*
G01*
X99150000Y-44050000D01*
G75*
G02*
X98950000Y-43850000I0J200000D01*
G01*
X98950000Y-37850000D01*
G75*
G02*
X99150000Y-37650000I200000J0D01*
G01*
X105150000Y-37650000D01*
G75*
G02*
X105350000Y-37850000I0J-200000D01*
G01*
G37*
D12*
X93450000Y-33150000D03*
X93450000Y-34420000D03*
X93450000Y-35690000D03*
X93450000Y-36960000D03*
X93450000Y-38230000D03*
X93450000Y-39500000D03*
X93450000Y-40770000D03*
X93450000Y-42040000D03*
X93450000Y-43310000D03*
X93450000Y-44580000D03*
X93450000Y-45850000D03*
X93450000Y-47120000D03*
X93450000Y-48390000D03*
X93450000Y-49660000D03*
D13*
X96735000Y-51150000D03*
X98005000Y-51150000D03*
X99275000Y-51150000D03*
X100545000Y-51150000D03*
X101815000Y-51150000D03*
X103085000Y-51150000D03*
X104355000Y-51150000D03*
X105625000Y-51150000D03*
X106895000Y-51150000D03*
X108165000Y-51150000D03*
D12*
X111450000Y-49660000D03*
X111450000Y-48390000D03*
X111450000Y-47120000D03*
X111450000Y-45850000D03*
X111450000Y-44580000D03*
X111450000Y-43310000D03*
X111450000Y-42040000D03*
X111450000Y-40770000D03*
X111450000Y-39500000D03*
X111450000Y-38230000D03*
X111450000Y-36960000D03*
X111450000Y-35690000D03*
X111450000Y-34420000D03*
X111450000Y-33150000D03*
%TD*%
%TO.C,U2*%
G36*
G01*
X91200000Y-67200000D02*
X91200000Y-64600000D01*
G75*
G02*
X91400000Y-64400000I200000J0D01*
G01*
X94000000Y-64400000D01*
G75*
G02*
X94200000Y-64600000I0J-200000D01*
G01*
X94200000Y-67200000D01*
G75*
G02*
X94000000Y-67400000I-200000J0D01*
G01*
X91400000Y-67400000D01*
G75*
G02*
X91200000Y-67200000I0J200000D01*
G01*
G37*
G36*
G01*
X91125000Y-64412500D02*
X91125000Y-63512500D01*
G75*
G02*
X91287500Y-63350000I162500J0D01*
G01*
X91612500Y-63350000D01*
G75*
G02*
X91775000Y-63512500I0J-162500D01*
G01*
X91775000Y-64412500D01*
G75*
G02*
X91612500Y-64575000I-162500J0D01*
G01*
X91287500Y-64575000D01*
G75*
G02*
X91125000Y-64412500I0J162500D01*
G01*
G37*
G36*
G01*
X91625000Y-64412500D02*
X91625000Y-63512500D01*
G75*
G02*
X91787500Y-63350000I162500J0D01*
G01*
X92112500Y-63350000D01*
G75*
G02*
X92275000Y-63512500I0J-162500D01*
G01*
X92275000Y-64412500D01*
G75*
G02*
X92112500Y-64575000I-162500J0D01*
G01*
X91787500Y-64575000D01*
G75*
G02*
X91625000Y-64412500I0J162500D01*
G01*
G37*
G36*
G01*
X92125000Y-64412500D02*
X92125000Y-63512500D01*
G75*
G02*
X92287500Y-63350000I162500J0D01*
G01*
X92612500Y-63350000D01*
G75*
G02*
X92775000Y-63512500I0J-162500D01*
G01*
X92775000Y-64412500D01*
G75*
G02*
X92612500Y-64575000I-162500J0D01*
G01*
X92287500Y-64575000D01*
G75*
G02*
X92125000Y-64412500I0J162500D01*
G01*
G37*
G36*
G01*
X92625000Y-64412500D02*
X92625000Y-63512500D01*
G75*
G02*
X92787500Y-63350000I162500J0D01*
G01*
X93112500Y-63350000D01*
G75*
G02*
X93275000Y-63512500I0J-162500D01*
G01*
X93275000Y-64412500D01*
G75*
G02*
X93112500Y-64575000I-162500J0D01*
G01*
X92787500Y-64575000D01*
G75*
G02*
X92625000Y-64412500I0J162500D01*
G01*
G37*
G36*
G01*
X93125000Y-64412500D02*
X93125000Y-63512500D01*
G75*
G02*
X93287500Y-63350000I162500J0D01*
G01*
X93612500Y-63350000D01*
G75*
G02*
X93775000Y-63512500I0J-162500D01*
G01*
X93775000Y-64412500D01*
G75*
G02*
X93612500Y-64575000I-162500J0D01*
G01*
X93287500Y-64575000D01*
G75*
G02*
X93125000Y-64412500I0J162500D01*
G01*
G37*
G36*
G01*
X93625000Y-64412500D02*
X93625000Y-63512500D01*
G75*
G02*
X93787500Y-63350000I162500J0D01*
G01*
X94112500Y-63350000D01*
G75*
G02*
X94275000Y-63512500I0J-162500D01*
G01*
X94275000Y-64412500D01*
G75*
G02*
X94112500Y-64575000I-162500J0D01*
G01*
X93787500Y-64575000D01*
G75*
G02*
X93625000Y-64412500I0J162500D01*
G01*
G37*
G36*
G01*
X94025000Y-64812500D02*
X94025000Y-64487500D01*
G75*
G02*
X94187500Y-64325000I162500J0D01*
G01*
X95087500Y-64325000D01*
G75*
G02*
X95250000Y-64487500I0J-162500D01*
G01*
X95250000Y-64812500D01*
G75*
G02*
X95087500Y-64975000I-162500J0D01*
G01*
X94187500Y-64975000D01*
G75*
G02*
X94025000Y-64812500I0J162500D01*
G01*
G37*
G36*
G01*
X94025000Y-65312500D02*
X94025000Y-64987500D01*
G75*
G02*
X94187500Y-64825000I162500J0D01*
G01*
X95087500Y-64825000D01*
G75*
G02*
X95250000Y-64987500I0J-162500D01*
G01*
X95250000Y-65312500D01*
G75*
G02*
X95087500Y-65475000I-162500J0D01*
G01*
X94187500Y-65475000D01*
G75*
G02*
X94025000Y-65312500I0J162500D01*
G01*
G37*
G36*
G01*
X94025000Y-65812500D02*
X94025000Y-65487500D01*
G75*
G02*
X94187500Y-65325000I162500J0D01*
G01*
X95087500Y-65325000D01*
G75*
G02*
X95250000Y-65487500I0J-162500D01*
G01*
X95250000Y-65812500D01*
G75*
G02*
X95087500Y-65975000I-162500J0D01*
G01*
X94187500Y-65975000D01*
G75*
G02*
X94025000Y-65812500I0J162500D01*
G01*
G37*
G36*
G01*
X94025000Y-66312500D02*
X94025000Y-65987500D01*
G75*
G02*
X94187500Y-65825000I162500J0D01*
G01*
X95087500Y-65825000D01*
G75*
G02*
X95250000Y-65987500I0J-162500D01*
G01*
X95250000Y-66312500D01*
G75*
G02*
X95087500Y-66475000I-162500J0D01*
G01*
X94187500Y-66475000D01*
G75*
G02*
X94025000Y-66312500I0J162500D01*
G01*
G37*
G36*
G01*
X94025000Y-66812500D02*
X94025000Y-66487500D01*
G75*
G02*
X94187500Y-66325000I162500J0D01*
G01*
X95087500Y-66325000D01*
G75*
G02*
X95250000Y-66487500I0J-162500D01*
G01*
X95250000Y-66812500D01*
G75*
G02*
X95087500Y-66975000I-162500J0D01*
G01*
X94187500Y-66975000D01*
G75*
G02*
X94025000Y-66812500I0J162500D01*
G01*
G37*
G36*
G01*
X94025000Y-67312500D02*
X94025000Y-66987500D01*
G75*
G02*
X94187500Y-66825000I162500J0D01*
G01*
X95087500Y-66825000D01*
G75*
G02*
X95250000Y-66987500I0J-162500D01*
G01*
X95250000Y-67312500D01*
G75*
G02*
X95087500Y-67475000I-162500J0D01*
G01*
X94187500Y-67475000D01*
G75*
G02*
X94025000Y-67312500I0J162500D01*
G01*
G37*
G36*
G01*
X93625000Y-68287500D02*
X93625000Y-67387500D01*
G75*
G02*
X93787500Y-67225000I162500J0D01*
G01*
X94112500Y-67225000D01*
G75*
G02*
X94275000Y-67387500I0J-162500D01*
G01*
X94275000Y-68287500D01*
G75*
G02*
X94112500Y-68450000I-162500J0D01*
G01*
X93787500Y-68450000D01*
G75*
G02*
X93625000Y-68287500I0J162500D01*
G01*
G37*
G36*
G01*
X93125000Y-68287500D02*
X93125000Y-67387500D01*
G75*
G02*
X93287500Y-67225000I162500J0D01*
G01*
X93612500Y-67225000D01*
G75*
G02*
X93775000Y-67387500I0J-162500D01*
G01*
X93775000Y-68287500D01*
G75*
G02*
X93612500Y-68450000I-162500J0D01*
G01*
X93287500Y-68450000D01*
G75*
G02*
X93125000Y-68287500I0J162500D01*
G01*
G37*
G36*
G01*
X92625000Y-68287500D02*
X92625000Y-67387500D01*
G75*
G02*
X92787500Y-67225000I162500J0D01*
G01*
X93112500Y-67225000D01*
G75*
G02*
X93275000Y-67387500I0J-162500D01*
G01*
X93275000Y-68287500D01*
G75*
G02*
X93112500Y-68450000I-162500J0D01*
G01*
X92787500Y-68450000D01*
G75*
G02*
X92625000Y-68287500I0J162500D01*
G01*
G37*
G36*
G01*
X92125000Y-68287500D02*
X92125000Y-67387500D01*
G75*
G02*
X92287500Y-67225000I162500J0D01*
G01*
X92612500Y-67225000D01*
G75*
G02*
X92775000Y-67387500I0J-162500D01*
G01*
X92775000Y-68287500D01*
G75*
G02*
X92612500Y-68450000I-162500J0D01*
G01*
X92287500Y-68450000D01*
G75*
G02*
X92125000Y-68287500I0J162500D01*
G01*
G37*
G36*
G01*
X91625000Y-68287500D02*
X91625000Y-67387500D01*
G75*
G02*
X91787500Y-67225000I162500J0D01*
G01*
X92112500Y-67225000D01*
G75*
G02*
X92275000Y-67387500I0J-162500D01*
G01*
X92275000Y-68287500D01*
G75*
G02*
X92112500Y-68450000I-162500J0D01*
G01*
X91787500Y-68450000D01*
G75*
G02*
X91625000Y-68287500I0J162500D01*
G01*
G37*
G36*
G01*
X91125000Y-68287500D02*
X91125000Y-67387500D01*
G75*
G02*
X91287500Y-67225000I162500J0D01*
G01*
X91612500Y-67225000D01*
G75*
G02*
X91775000Y-67387500I0J-162500D01*
G01*
X91775000Y-68287500D01*
G75*
G02*
X91612500Y-68450000I-162500J0D01*
G01*
X91287500Y-68450000D01*
G75*
G02*
X91125000Y-68287500I0J162500D01*
G01*
G37*
G36*
G01*
X90150000Y-67312500D02*
X90150000Y-66987500D01*
G75*
G02*
X90312500Y-66825000I162500J0D01*
G01*
X91212500Y-66825000D01*
G75*
G02*
X91375000Y-66987500I0J-162500D01*
G01*
X91375000Y-67312500D01*
G75*
G02*
X91212500Y-67475000I-162500J0D01*
G01*
X90312500Y-67475000D01*
G75*
G02*
X90150000Y-67312500I0J162500D01*
G01*
G37*
G36*
G01*
X90150000Y-66812500D02*
X90150000Y-66487500D01*
G75*
G02*
X90312500Y-66325000I162500J0D01*
G01*
X91212500Y-66325000D01*
G75*
G02*
X91375000Y-66487500I0J-162500D01*
G01*
X91375000Y-66812500D01*
G75*
G02*
X91212500Y-66975000I-162500J0D01*
G01*
X90312500Y-66975000D01*
G75*
G02*
X90150000Y-66812500I0J162500D01*
G01*
G37*
G36*
G01*
X90150000Y-66312500D02*
X90150000Y-65987500D01*
G75*
G02*
X90312500Y-65825000I162500J0D01*
G01*
X91212500Y-65825000D01*
G75*
G02*
X91375000Y-65987500I0J-162500D01*
G01*
X91375000Y-66312500D01*
G75*
G02*
X91212500Y-66475000I-162500J0D01*
G01*
X90312500Y-66475000D01*
G75*
G02*
X90150000Y-66312500I0J162500D01*
G01*
G37*
G36*
G01*
X90150000Y-65812500D02*
X90150000Y-65487500D01*
G75*
G02*
X90312500Y-65325000I162500J0D01*
G01*
X91212500Y-65325000D01*
G75*
G02*
X91375000Y-65487500I0J-162500D01*
G01*
X91375000Y-65812500D01*
G75*
G02*
X91212500Y-65975000I-162500J0D01*
G01*
X90312500Y-65975000D01*
G75*
G02*
X90150000Y-65812500I0J162500D01*
G01*
G37*
G36*
G01*
X90150000Y-65312500D02*
X90150000Y-64987500D01*
G75*
G02*
X90312500Y-64825000I162500J0D01*
G01*
X91212500Y-64825000D01*
G75*
G02*
X91375000Y-64987500I0J-162500D01*
G01*
X91375000Y-65312500D01*
G75*
G02*
X91212500Y-65475000I-162500J0D01*
G01*
X90312500Y-65475000D01*
G75*
G02*
X90150000Y-65312500I0J162500D01*
G01*
G37*
G36*
G01*
X90150000Y-64812500D02*
X90150000Y-64487500D01*
G75*
G02*
X90312500Y-64325000I162500J0D01*
G01*
X91212500Y-64325000D01*
G75*
G02*
X91375000Y-64487500I0J-162500D01*
G01*
X91375000Y-64812500D01*
G75*
G02*
X91212500Y-64975000I-162500J0D01*
G01*
X90312500Y-64975000D01*
G75*
G02*
X90150000Y-64812500I0J162500D01*
G01*
G37*
%TD*%
%TO.C,U1*%
G36*
G01*
X100812000Y-79250000D02*
X99312000Y-79250000D01*
G75*
G02*
X99112000Y-79050000I0J200000D01*
G01*
X99112000Y-77050000D01*
G75*
G02*
X99312000Y-76850000I200000J0D01*
G01*
X100812000Y-76850000D01*
G75*
G02*
X101012000Y-77050000I0J-200000D01*
G01*
X101012000Y-79050000D01*
G75*
G02*
X100812000Y-79250000I-200000J0D01*
G01*
G37*
G36*
G01*
X105412000Y-79250000D02*
X103912000Y-79250000D01*
G75*
G02*
X103712000Y-79050000I0J200000D01*
G01*
X103712000Y-77050000D01*
G75*
G02*
X103912000Y-76850000I200000J0D01*
G01*
X105412000Y-76850000D01*
G75*
G02*
X105612000Y-77050000I0J-200000D01*
G01*
X105612000Y-79050000D01*
G75*
G02*
X105412000Y-79250000I-200000J0D01*
G01*
G37*
G36*
G01*
X103112000Y-79250000D02*
X101612000Y-79250000D01*
G75*
G02*
X101412000Y-79050000I0J200000D01*
G01*
X101412000Y-77050000D01*
G75*
G02*
X101612000Y-76850000I200000J0D01*
G01*
X103112000Y-76850000D01*
G75*
G02*
X103312000Y-77050000I0J-200000D01*
G01*
X103312000Y-79050000D01*
G75*
G02*
X103112000Y-79250000I-200000J0D01*
G01*
G37*
G36*
G01*
X104262000Y-72950000D02*
X100462000Y-72950000D01*
G75*
G02*
X100262000Y-72750000I0J200000D01*
G01*
X100262000Y-70750000D01*
G75*
G02*
X100462000Y-70550000I200000J0D01*
G01*
X104262000Y-70550000D01*
G75*
G02*
X104462000Y-70750000I0J-200000D01*
G01*
X104462000Y-72750000D01*
G75*
G02*
X104262000Y-72950000I-200000J0D01*
G01*
G37*
%TD*%
%TO.C,R7*%
G36*
G01*
X83689921Y-40778900D02*
X85186079Y-40778900D01*
G75*
G02*
X85513000Y-41105821I0J-326921D01*
G01*
X85513000Y-42151979D01*
G75*
G02*
X85186079Y-42478900I-326921J0D01*
G01*
X83689921Y-42478900D01*
G75*
G02*
X83363000Y-42151979I0J326921D01*
G01*
X83363000Y-41105821D01*
G75*
G02*
X83689921Y-40778900I326921J0D01*
G01*
G37*
G36*
G01*
X83689921Y-43878900D02*
X85186079Y-43878900D01*
G75*
G02*
X85513000Y-44205821I0J-326921D01*
G01*
X85513000Y-45251979D01*
G75*
G02*
X85186079Y-45578900I-326921J0D01*
G01*
X83689921Y-45578900D01*
G75*
G02*
X83363000Y-45251979I0J326921D01*
G01*
X83363000Y-44205821D01*
G75*
G02*
X83689921Y-43878900I326921J0D01*
G01*
G37*
%TD*%
%TO.C,R6*%
G36*
G01*
X121425921Y-58612000D02*
X122922079Y-58612000D01*
G75*
G02*
X123249000Y-58938921I0J-326921D01*
G01*
X123249000Y-59985079D01*
G75*
G02*
X122922079Y-60312000I-326921J0D01*
G01*
X121425921Y-60312000D01*
G75*
G02*
X121099000Y-59985079I0J326921D01*
G01*
X121099000Y-58938921D01*
G75*
G02*
X121425921Y-58612000I326921J0D01*
G01*
G37*
G36*
G01*
X121425921Y-55512000D02*
X122922079Y-55512000D01*
G75*
G02*
X123249000Y-55838921I0J-326921D01*
G01*
X123249000Y-56885079D01*
G75*
G02*
X122922079Y-57212000I-326921J0D01*
G01*
X121425921Y-57212000D01*
G75*
G02*
X121099000Y-56885079I0J326921D01*
G01*
X121099000Y-55838921D01*
G75*
G02*
X121425921Y-55512000I326921J0D01*
G01*
G37*
%TD*%
%TO.C,R5*%
G36*
G01*
X86346079Y-57212000D02*
X84849921Y-57212000D01*
G75*
G02*
X84523000Y-56885079I0J326921D01*
G01*
X84523000Y-55838921D01*
G75*
G02*
X84849921Y-55512000I326921J0D01*
G01*
X86346079Y-55512000D01*
G75*
G02*
X86673000Y-55838921I0J-326921D01*
G01*
X86673000Y-56885079D01*
G75*
G02*
X86346079Y-57212000I-326921J0D01*
G01*
G37*
G36*
G01*
X86346079Y-60312000D02*
X84849921Y-60312000D01*
G75*
G02*
X84523000Y-59985079I0J326921D01*
G01*
X84523000Y-58938921D01*
G75*
G02*
X84849921Y-58612000I326921J0D01*
G01*
X86346079Y-58612000D01*
G75*
G02*
X86673000Y-58938921I0J-326921D01*
G01*
X86673000Y-59985079D01*
G75*
G02*
X86346079Y-60312000I-326921J0D01*
G01*
G37*
%TD*%
%TO.C,R4*%
G36*
G01*
X88201921Y-50160000D02*
X89698079Y-50160000D01*
G75*
G02*
X90025000Y-50486921I0J-326921D01*
G01*
X90025000Y-51533079D01*
G75*
G02*
X89698079Y-51860000I-326921J0D01*
G01*
X88201921Y-51860000D01*
G75*
G02*
X87875000Y-51533079I0J326921D01*
G01*
X87875000Y-50486921D01*
G75*
G02*
X88201921Y-50160000I326921J0D01*
G01*
G37*
G36*
G01*
X88201921Y-47060000D02*
X89698079Y-47060000D01*
G75*
G02*
X90025000Y-47386921I0J-326921D01*
G01*
X90025000Y-48433079D01*
G75*
G02*
X89698079Y-48760000I-326921J0D01*
G01*
X88201921Y-48760000D01*
G75*
G02*
X87875000Y-48433079I0J326921D01*
G01*
X87875000Y-47386921D01*
G75*
G02*
X88201921Y-47060000I326921J0D01*
G01*
G37*
%TD*%
%TO.C,R3*%
G36*
G01*
X112968000Y-59930079D02*
X112968000Y-58433921D01*
G75*
G02*
X113294921Y-58107000I326921J0D01*
G01*
X114341079Y-58107000D01*
G75*
G02*
X114668000Y-58433921I0J-326921D01*
G01*
X114668000Y-59930079D01*
G75*
G02*
X114341079Y-60257000I-326921J0D01*
G01*
X113294921Y-60257000D01*
G75*
G02*
X112968000Y-59930079I0J326921D01*
G01*
G37*
G36*
G01*
X109868000Y-59930079D02*
X109868000Y-58433921D01*
G75*
G02*
X110194921Y-58107000I326921J0D01*
G01*
X111241079Y-58107000D01*
G75*
G02*
X111568000Y-58433921I0J-326921D01*
G01*
X111568000Y-59930079D01*
G75*
G02*
X111241079Y-60257000I-326921J0D01*
G01*
X110194921Y-60257000D01*
G75*
G02*
X109868000Y-59930079I0J326921D01*
G01*
G37*
%TD*%
%TO.C,R2*%
G36*
G01*
X93156000Y-59898079D02*
X93156000Y-58401921D01*
G75*
G02*
X93482921Y-58075000I326921J0D01*
G01*
X94529079Y-58075000D01*
G75*
G02*
X94856000Y-58401921I0J-326921D01*
G01*
X94856000Y-59898079D01*
G75*
G02*
X94529079Y-60225000I-326921J0D01*
G01*
X93482921Y-60225000D01*
G75*
G02*
X93156000Y-59898079I0J326921D01*
G01*
G37*
G36*
G01*
X90056000Y-59898079D02*
X90056000Y-58401921D01*
G75*
G02*
X90382921Y-58075000I326921J0D01*
G01*
X91429079Y-58075000D01*
G75*
G02*
X91756000Y-58401921I0J-326921D01*
G01*
X91756000Y-59898079D01*
G75*
G02*
X91429079Y-60225000I-326921J0D01*
G01*
X90382921Y-60225000D01*
G75*
G02*
X90056000Y-59898079I0J326921D01*
G01*
G37*
%TD*%
%TO.C,R1*%
G36*
G01*
X92000000Y-71651921D02*
X92000000Y-73148079D01*
G75*
G02*
X91673079Y-73475000I-326921J0D01*
G01*
X90626921Y-73475000D01*
G75*
G02*
X90300000Y-73148079I0J326921D01*
G01*
X90300000Y-71651921D01*
G75*
G02*
X90626921Y-71325000I326921J0D01*
G01*
X91673079Y-71325000D01*
G75*
G02*
X92000000Y-71651921I0J-326921D01*
G01*
G37*
G36*
G01*
X95100000Y-71651921D02*
X95100000Y-73148079D01*
G75*
G02*
X94773079Y-73475000I-326921J0D01*
G01*
X93726921Y-73475000D01*
G75*
G02*
X93400000Y-73148079I0J326921D01*
G01*
X93400000Y-71651921D01*
G75*
G02*
X93726921Y-71325000I326921J0D01*
G01*
X94773079Y-71325000D01*
G75*
G02*
X95100000Y-71651921I0J-326921D01*
G01*
G37*
%TD*%
%TO.C,Q2*%
G36*
G01*
X119272000Y-57308000D02*
X118472000Y-57308000D01*
G75*
G02*
X118272000Y-57108000I0J200000D01*
G01*
X118272000Y-55208000D01*
G75*
G02*
X118472000Y-55008000I200000J0D01*
G01*
X119272000Y-55008000D01*
G75*
G02*
X119472000Y-55208000I0J-200000D01*
G01*
X119472000Y-57108000D01*
G75*
G02*
X119272000Y-57308000I-200000J0D01*
G01*
G37*
G36*
G01*
X120222000Y-60308000D02*
X119422000Y-60308000D01*
G75*
G02*
X119222000Y-60108000I0J200000D01*
G01*
X119222000Y-58208000D01*
G75*
G02*
X119422000Y-58008000I200000J0D01*
G01*
X120222000Y-58008000D01*
G75*
G02*
X120422000Y-58208000I0J-200000D01*
G01*
X120422000Y-60108000D01*
G75*
G02*
X120222000Y-60308000I-200000J0D01*
G01*
G37*
G36*
G01*
X118322000Y-60308000D02*
X117522000Y-60308000D01*
G75*
G02*
X117322000Y-60108000I0J200000D01*
G01*
X117322000Y-58208000D01*
G75*
G02*
X117522000Y-58008000I200000J0D01*
G01*
X118322000Y-58008000D01*
G75*
G02*
X118522000Y-58208000I0J-200000D01*
G01*
X118522000Y-60108000D01*
G75*
G02*
X118322000Y-60308000I-200000J0D01*
G01*
G37*
%TD*%
%TO.C,Q1*%
G36*
G01*
X82696000Y-57308000D02*
X81896000Y-57308000D01*
G75*
G02*
X81696000Y-57108000I0J200000D01*
G01*
X81696000Y-55208000D01*
G75*
G02*
X81896000Y-55008000I200000J0D01*
G01*
X82696000Y-55008000D01*
G75*
G02*
X82896000Y-55208000I0J-200000D01*
G01*
X82896000Y-57108000D01*
G75*
G02*
X82696000Y-57308000I-200000J0D01*
G01*
G37*
G36*
G01*
X83646000Y-60308000D02*
X82846000Y-60308000D01*
G75*
G02*
X82646000Y-60108000I0J200000D01*
G01*
X82646000Y-58208000D01*
G75*
G02*
X82846000Y-58008000I200000J0D01*
G01*
X83646000Y-58008000D01*
G75*
G02*
X83846000Y-58208000I0J-200000D01*
G01*
X83846000Y-60108000D01*
G75*
G02*
X83646000Y-60308000I-200000J0D01*
G01*
G37*
G36*
G01*
X81746000Y-60308000D02*
X80946000Y-60308000D01*
G75*
G02*
X80746000Y-60108000I0J200000D01*
G01*
X80746000Y-58208000D01*
G75*
G02*
X80946000Y-58008000I200000J0D01*
G01*
X81746000Y-58008000D01*
G75*
G02*
X81946000Y-58208000I0J-200000D01*
G01*
X81946000Y-60108000D01*
G75*
G02*
X81746000Y-60308000I-200000J0D01*
G01*
G37*
%TD*%
%TO.C,D5*%
G36*
G01*
X98798000Y-62984000D02*
X98798000Y-61984000D01*
G75*
G02*
X98998000Y-61784000I200000J0D01*
G01*
X100498000Y-61784000D01*
G75*
G02*
X100698000Y-61984000I0J-200000D01*
G01*
X100698000Y-62984000D01*
G75*
G02*
X100498000Y-63184000I-200000J0D01*
G01*
X98998000Y-63184000D01*
G75*
G02*
X98798000Y-62984000I0J200000D01*
G01*
G37*
G36*
G01*
X98798000Y-66184000D02*
X98798000Y-65184000D01*
G75*
G02*
X98998000Y-64984000I200000J0D01*
G01*
X100498000Y-64984000D01*
G75*
G02*
X100698000Y-65184000I0J-200000D01*
G01*
X100698000Y-66184000D01*
G75*
G02*
X100498000Y-66384000I-200000J0D01*
G01*
X98998000Y-66384000D01*
G75*
G02*
X98798000Y-66184000I0J200000D01*
G01*
G37*
G36*
G01*
X103698000Y-62984000D02*
X103698000Y-61984000D01*
G75*
G02*
X103898000Y-61784000I200000J0D01*
G01*
X105398000Y-61784000D01*
G75*
G02*
X105598000Y-61984000I0J-200000D01*
G01*
X105598000Y-62984000D01*
G75*
G02*
X105398000Y-63184000I-200000J0D01*
G01*
X103898000Y-63184000D01*
G75*
G02*
X103698000Y-62984000I0J200000D01*
G01*
G37*
G36*
G01*
X103698000Y-66184000D02*
X103698000Y-65184000D01*
G75*
G02*
X103898000Y-64984000I200000J0D01*
G01*
X105398000Y-64984000D01*
G75*
G02*
X105598000Y-65184000I0J-200000D01*
G01*
X105598000Y-66184000D01*
G75*
G02*
X105398000Y-66384000I-200000J0D01*
G01*
X103898000Y-66384000D01*
G75*
G02*
X103698000Y-66184000I0J200000D01*
G01*
G37*
%TD*%
%TO.C,D4*%
G36*
G01*
X85204825Y-48885000D02*
X83695175Y-48885000D01*
G75*
G02*
X83375000Y-48564825I0J320175D01*
G01*
X83375000Y-47380175D01*
G75*
G02*
X83695175Y-47060000I320175J0D01*
G01*
X85204825Y-47060000D01*
G75*
G02*
X85525000Y-47380175I0J-320175D01*
G01*
X85525000Y-48564825D01*
G75*
G02*
X85204825Y-48885000I-320175J0D01*
G01*
G37*
G36*
G01*
X85204825Y-51860000D02*
X83695175Y-51860000D01*
G75*
G02*
X83375000Y-51539825I0J320175D01*
G01*
X83375000Y-50355175D01*
G75*
G02*
X83695175Y-50035000I320175J0D01*
G01*
X85204825Y-50035000D01*
G75*
G02*
X85525000Y-50355175I0J-320175D01*
G01*
X85525000Y-51539825D01*
G75*
G02*
X85204825Y-51860000I-320175J0D01*
G01*
G37*
%TD*%
%TO.C,D3*%
G36*
G01*
X113097000Y-56126825D02*
X113097000Y-54617175D01*
G75*
G02*
X113417175Y-54297000I320175J0D01*
G01*
X114601825Y-54297000D01*
G75*
G02*
X114922000Y-54617175I0J-320175D01*
G01*
X114922000Y-56126825D01*
G75*
G02*
X114601825Y-56447000I-320175J0D01*
G01*
X113417175Y-56447000D01*
G75*
G02*
X113097000Y-56126825I0J320175D01*
G01*
G37*
G36*
G01*
X110122000Y-56126825D02*
X110122000Y-54617175D01*
G75*
G02*
X110442175Y-54297000I320175J0D01*
G01*
X111626825Y-54297000D01*
G75*
G02*
X111947000Y-54617175I0J-320175D01*
G01*
X111947000Y-56126825D01*
G75*
G02*
X111626825Y-56447000I-320175J0D01*
G01*
X110442175Y-56447000D01*
G75*
G02*
X110122000Y-56126825I0J320175D01*
G01*
G37*
%TD*%
%TO.C,D2*%
G36*
G01*
X91881000Y-54617175D02*
X91881000Y-56126825D01*
G75*
G02*
X91560825Y-56447000I-320175J0D01*
G01*
X90376175Y-56447000D01*
G75*
G02*
X90056000Y-56126825I0J320175D01*
G01*
X90056000Y-54617175D01*
G75*
G02*
X90376175Y-54297000I320175J0D01*
G01*
X91560825Y-54297000D01*
G75*
G02*
X91881000Y-54617175I0J-320175D01*
G01*
G37*
G36*
G01*
X94856000Y-54617175D02*
X94856000Y-56126825D01*
G75*
G02*
X94535825Y-56447000I-320175J0D01*
G01*
X93351175Y-56447000D01*
G75*
G02*
X93031000Y-56126825I0J320175D01*
G01*
X93031000Y-54617175D01*
G75*
G02*
X93351175Y-54297000I320175J0D01*
G01*
X94535825Y-54297000D01*
G75*
G02*
X94856000Y-54617175I0J-320175D01*
G01*
G37*
%TD*%
%TO.C,D1*%
G36*
G01*
X99172000Y-82508000D02*
X99172000Y-83608000D01*
G75*
G02*
X98972000Y-83808000I-200000J0D01*
G01*
X97872000Y-83808000D01*
G75*
G02*
X97672000Y-83608000I0J200000D01*
G01*
X97672000Y-82508000D01*
G75*
G02*
X97872000Y-82308000I200000J0D01*
G01*
X98972000Y-82308000D01*
G75*
G02*
X99172000Y-82508000I0J-200000D01*
G01*
G37*
G36*
G01*
X101972000Y-82508000D02*
X101972000Y-83608000D01*
G75*
G02*
X101772000Y-83808000I-200000J0D01*
G01*
X100672000Y-83808000D01*
G75*
G02*
X100472000Y-83608000I0J200000D01*
G01*
X100472000Y-82508000D01*
G75*
G02*
X100672000Y-82308000I200000J0D01*
G01*
X101772000Y-82308000D01*
G75*
G02*
X101972000Y-82508000I0J-200000D01*
G01*
G37*
%TD*%
%TO.C,C10*%
G36*
G01*
X89707531Y-45668900D02*
X88158469Y-45668900D01*
G75*
G02*
X87833000Y-45343431I0J325469D01*
G01*
X87833000Y-44269369D01*
G75*
G02*
X88158469Y-43943900I325469J0D01*
G01*
X89707531Y-43943900D01*
G75*
G02*
X90033000Y-44269369I0J-325469D01*
G01*
X90033000Y-45343431D01*
G75*
G02*
X89707531Y-45668900I-325469J0D01*
G01*
G37*
G36*
G01*
X89707531Y-42543900D02*
X88158469Y-42543900D01*
G75*
G02*
X87833000Y-42218431I0J325469D01*
G01*
X87833000Y-41144369D01*
G75*
G02*
X88158469Y-40818900I325469J0D01*
G01*
X89707531Y-40818900D01*
G75*
G02*
X90033000Y-41144369I0J-325469D01*
G01*
X90033000Y-42218431D01*
G75*
G02*
X89707531Y-42543900I-325469J0D01*
G01*
G37*
%TD*%
%TO.C,C9*%
G36*
G01*
X88175469Y-37350000D02*
X89724531Y-37350000D01*
G75*
G02*
X90050000Y-37675469I0J-325469D01*
G01*
X90050000Y-38749531D01*
G75*
G02*
X89724531Y-39075000I-325469J0D01*
G01*
X88175469Y-39075000D01*
G75*
G02*
X87850000Y-38749531I0J325469D01*
G01*
X87850000Y-37675469D01*
G75*
G02*
X88175469Y-37350000I325469J0D01*
G01*
G37*
G36*
G01*
X88175469Y-34225000D02*
X89724531Y-34225000D01*
G75*
G02*
X90050000Y-34550469I0J-325469D01*
G01*
X90050000Y-35624531D01*
G75*
G02*
X89724531Y-35950000I-325469J0D01*
G01*
X88175469Y-35950000D01*
G75*
G02*
X87850000Y-35624531I0J325469D01*
G01*
X87850000Y-34550469D01*
G75*
G02*
X88175469Y-34225000I325469J0D01*
G01*
G37*
%TD*%
%TO.C,C8*%
G36*
G01*
X83675469Y-37350000D02*
X85224531Y-37350000D01*
G75*
G02*
X85550000Y-37675469I0J-325469D01*
G01*
X85550000Y-38749531D01*
G75*
G02*
X85224531Y-39075000I-325469J0D01*
G01*
X83675469Y-39075000D01*
G75*
G02*
X83350000Y-38749531I0J325469D01*
G01*
X83350000Y-37675469D01*
G75*
G02*
X83675469Y-37350000I325469J0D01*
G01*
G37*
G36*
G01*
X83675469Y-34225000D02*
X85224531Y-34225000D01*
G75*
G02*
X85550000Y-34550469I0J-325469D01*
G01*
X85550000Y-35624531D01*
G75*
G02*
X85224531Y-35950000I-325469J0D01*
G01*
X83675469Y-35950000D01*
G75*
G02*
X83350000Y-35624531I0J325469D01*
G01*
X83350000Y-34550469D01*
G75*
G02*
X83675469Y-34225000I325469J0D01*
G01*
G37*
%TD*%
%TO.C,C7*%
G36*
G01*
X101662000Y-56121469D02*
X101662000Y-57670531D01*
G75*
G02*
X101336531Y-57996000I-325469J0D01*
G01*
X100262469Y-57996000D01*
G75*
G02*
X99937000Y-57670531I0J325469D01*
G01*
X99937000Y-56121469D01*
G75*
G02*
X100262469Y-55796000I325469J0D01*
G01*
X101336531Y-55796000D01*
G75*
G02*
X101662000Y-56121469I0J-325469D01*
G01*
G37*
G36*
G01*
X104787000Y-56121469D02*
X104787000Y-57670531D01*
G75*
G02*
X104461531Y-57996000I-325469J0D01*
G01*
X103387469Y-57996000D01*
G75*
G02*
X103062000Y-57670531I0J325469D01*
G01*
X103062000Y-56121469D01*
G75*
G02*
X103387469Y-55796000I325469J0D01*
G01*
X104461531Y-55796000D01*
G75*
G02*
X104787000Y-56121469I0J-325469D01*
G01*
G37*
%TD*%
%TO.C,C6*%
G36*
G01*
X84520000Y-73164531D02*
X84520000Y-71615469D01*
G75*
G02*
X84845469Y-71290000I325469J0D01*
G01*
X85919531Y-71290000D01*
G75*
G02*
X86245000Y-71615469I0J-325469D01*
G01*
X86245000Y-73164531D01*
G75*
G02*
X85919531Y-73490000I-325469J0D01*
G01*
X84845469Y-73490000D01*
G75*
G02*
X84520000Y-73164531I0J325469D01*
G01*
G37*
G36*
G01*
X81395000Y-73164531D02*
X81395000Y-71615469D01*
G75*
G02*
X81720469Y-71290000I325469J0D01*
G01*
X82794531Y-71290000D01*
G75*
G02*
X83120000Y-71615469I0J-325469D01*
G01*
X83120000Y-73164531D01*
G75*
G02*
X82794531Y-73490000I-325469J0D01*
G01*
X81720469Y-73490000D01*
G75*
G02*
X81395000Y-73164531I0J325469D01*
G01*
G37*
%TD*%
%TO.C,C5*%
G36*
G01*
X84520000Y-78244531D02*
X84520000Y-76695469D01*
G75*
G02*
X84845469Y-76370000I325469J0D01*
G01*
X85919531Y-76370000D01*
G75*
G02*
X86245000Y-76695469I0J-325469D01*
G01*
X86245000Y-78244531D01*
G75*
G02*
X85919531Y-78570000I-325469J0D01*
G01*
X84845469Y-78570000D01*
G75*
G02*
X84520000Y-78244531I0J325469D01*
G01*
G37*
G36*
G01*
X81395000Y-78244531D02*
X81395000Y-76695469D01*
G75*
G02*
X81720469Y-76370000I325469J0D01*
G01*
X82794531Y-76370000D01*
G75*
G02*
X83120000Y-76695469I0J-325469D01*
G01*
X83120000Y-78244531D01*
G75*
G02*
X82794531Y-78570000I-325469J0D01*
G01*
X81720469Y-78570000D01*
G75*
G02*
X81395000Y-78244531I0J325469D01*
G01*
G37*
%TD*%
%TO.C,C4*%
G36*
G01*
X84817869Y-66598300D02*
X86366931Y-66598300D01*
G75*
G02*
X86692400Y-66923769I0J-325469D01*
G01*
X86692400Y-67997831D01*
G75*
G02*
X86366931Y-68323300I-325469J0D01*
G01*
X84817869Y-68323300D01*
G75*
G02*
X84492400Y-67997831I0J325469D01*
G01*
X84492400Y-66923769D01*
G75*
G02*
X84817869Y-66598300I325469J0D01*
G01*
G37*
G36*
G01*
X84817869Y-63473300D02*
X86366931Y-63473300D01*
G75*
G02*
X86692400Y-63798769I0J-325469D01*
G01*
X86692400Y-64872831D01*
G75*
G02*
X86366931Y-65198300I-325469J0D01*
G01*
X84817869Y-65198300D01*
G75*
G02*
X84492400Y-64872831I0J325469D01*
G01*
X84492400Y-63798769D01*
G75*
G02*
X84817869Y-63473300I325469J0D01*
G01*
G37*
%TD*%
%TO.C,C3*%
G36*
G01*
X81425469Y-66600000D02*
X82974531Y-66600000D01*
G75*
G02*
X83300000Y-66925469I0J-325469D01*
G01*
X83300000Y-67999531D01*
G75*
G02*
X82974531Y-68325000I-325469J0D01*
G01*
X81425469Y-68325000D01*
G75*
G02*
X81100000Y-67999531I0J325469D01*
G01*
X81100000Y-66925469D01*
G75*
G02*
X81425469Y-66600000I325469J0D01*
G01*
G37*
G36*
G01*
X81425469Y-63475000D02*
X82974531Y-63475000D01*
G75*
G02*
X83300000Y-63800469I0J-325469D01*
G01*
X83300000Y-64874531D01*
G75*
G02*
X82974531Y-65200000I-325469J0D01*
G01*
X81425469Y-65200000D01*
G75*
G02*
X81100000Y-64874531I0J325469D01*
G01*
X81100000Y-63800469D01*
G75*
G02*
X81425469Y-63475000I325469J0D01*
G01*
G37*
%TD*%
%TO.C,C2*%
G36*
G01*
X96786531Y-78450000D02*
X95237469Y-78450000D01*
G75*
G02*
X94912000Y-78124531I0J325469D01*
G01*
X94912000Y-77050469D01*
G75*
G02*
X95237469Y-76725000I325469J0D01*
G01*
X96786531Y-76725000D01*
G75*
G02*
X97112000Y-77050469I0J-325469D01*
G01*
X97112000Y-78124531D01*
G75*
G02*
X96786531Y-78450000I-325469J0D01*
G01*
G37*
G36*
G01*
X96786531Y-81575000D02*
X95237469Y-81575000D01*
G75*
G02*
X94912000Y-81249531I0J325469D01*
G01*
X94912000Y-80175469D01*
G75*
G02*
X95237469Y-79850000I325469J0D01*
G01*
X96786531Y-79850000D01*
G75*
G02*
X97112000Y-80175469I0J-325469D01*
G01*
X97112000Y-81249531D01*
G75*
G02*
X96786531Y-81575000I-325469J0D01*
G01*
G37*
%TD*%
%TO.C,C1*%
G36*
G01*
X108191469Y-79694000D02*
X109740531Y-79694000D01*
G75*
G02*
X110066000Y-80019469I0J-325469D01*
G01*
X110066000Y-81093531D01*
G75*
G02*
X109740531Y-81419000I-325469J0D01*
G01*
X108191469Y-81419000D01*
G75*
G02*
X107866000Y-81093531I0J325469D01*
G01*
X107866000Y-80019469D01*
G75*
G02*
X108191469Y-79694000I325469J0D01*
G01*
G37*
G36*
G01*
X108191469Y-76569000D02*
X109740531Y-76569000D01*
G75*
G02*
X110066000Y-76894469I0J-325469D01*
G01*
X110066000Y-77968531D01*
G75*
G02*
X109740531Y-78294000I-325469J0D01*
G01*
X108191469Y-78294000D01*
G75*
G02*
X107866000Y-77968531I0J325469D01*
G01*
X107866000Y-76894469D01*
G75*
G02*
X108191469Y-76569000I325469J0D01*
G01*
G37*
%TD*%
D14*
%TO.C,M1*%
X98830000Y-92020000D03*
G36*
G01*
X100730000Y-89855000D02*
X100730000Y-88605000D01*
G75*
G02*
X100930000Y-88405000I200000J0D01*
G01*
X101330000Y-88405000D01*
G75*
G02*
X101530000Y-88605000I0J-200000D01*
G01*
X101530000Y-89855000D01*
G75*
G02*
X101330000Y-90055000I-200000J0D01*
G01*
X100930000Y-90055000D01*
G75*
G02*
X100730000Y-89855000I0J200000D01*
G01*
G37*
G36*
G01*
X101380000Y-89855000D02*
X101380000Y-88605000D01*
G75*
G02*
X101580000Y-88405000I200000J0D01*
G01*
X101980000Y-88405000D01*
G75*
G02*
X102180000Y-88605000I0J-200000D01*
G01*
X102180000Y-89855000D01*
G75*
G02*
X101980000Y-90055000I-200000J0D01*
G01*
X101580000Y-90055000D01*
G75*
G02*
X101380000Y-89855000I0J200000D01*
G01*
G37*
G36*
G01*
X103330000Y-89855000D02*
X103330000Y-88605000D01*
G75*
G02*
X103530000Y-88405000I200000J0D01*
G01*
X103930000Y-88405000D01*
G75*
G02*
X104130000Y-88605000I0J-200000D01*
G01*
X104130000Y-89855000D01*
G75*
G02*
X103930000Y-90055000I-200000J0D01*
G01*
X103530000Y-90055000D01*
G75*
G02*
X103330000Y-89855000I0J200000D01*
G01*
G37*
G36*
G01*
X102680000Y-89855000D02*
X102680000Y-88605000D01*
G75*
G02*
X102880000Y-88405000I200000J0D01*
G01*
X103280000Y-88405000D01*
G75*
G02*
X103480000Y-88605000I0J-200000D01*
G01*
X103480000Y-89855000D01*
G75*
G02*
X103280000Y-90055000I-200000J0D01*
G01*
X102880000Y-90055000D01*
G75*
G02*
X102680000Y-89855000I0J200000D01*
G01*
G37*
D15*
X100005000Y-89230000D03*
X104855000Y-89230000D03*
G36*
G01*
X102030000Y-89855000D02*
X102030000Y-88605000D01*
G75*
G02*
X102230000Y-88405000I200000J0D01*
G01*
X102630000Y-88405000D01*
G75*
G02*
X102830000Y-88605000I0J-200000D01*
G01*
X102830000Y-89855000D01*
G75*
G02*
X102630000Y-90055000I-200000J0D01*
G01*
X102230000Y-90055000D01*
G75*
G02*
X102030000Y-89855000I0J200000D01*
G01*
G37*
D14*
X106030000Y-92020000D03*
%TD*%
M02*
