%TF.GenerationSoftware,KiCad,Pcbnew,5.1.10-88a1d61d58~88~ubuntu20.10.1*%
%TF.CreationDate,2021-04-30T01:43:34+02:00*%
%TF.ProjectId,AidonBoard32,4169646f-6e42-46f6-9172-6433322e6b69,1*%
%TF.SameCoordinates,Original*%
%TF.FileFunction,Copper,L2,Bot*%
%TF.FilePolarity,Positive*%
%FSLAX46Y46*%
G04 Gerber Fmt 4.6, Leading zero omitted, Abs format (unit mm)*
G04 Created by KiCad (PCBNEW 5.1.10-88a1d61d58~88~ubuntu20.10.1) date 2021-04-30 01:43:34*
%MOMM*%
%LPD*%
G01*
G04 APERTURE LIST*
%TA.AperFunction,ComponentPad*%
%ADD10C,1.398000*%
%TD*%
%TA.AperFunction,ComponentPad*%
%ADD11R,1.398000X1.398000*%
%TD*%
%TA.AperFunction,ComponentPad*%
%ADD12O,1.100000X1.800000*%
%TD*%
%TA.AperFunction,ComponentPad*%
%ADD13C,1.250000*%
%TD*%
%TA.AperFunction,ViaPad*%
%ADD14C,0.600000*%
%TD*%
%TA.AperFunction,Conductor*%
%ADD15C,0.250000*%
%TD*%
%TA.AperFunction,Conductor*%
%ADD16C,0.254000*%
%TD*%
%TA.AperFunction,Conductor*%
%ADD17C,0.100000*%
%TD*%
G04 APERTURE END LIST*
D10*
%TO.P,J1,6*%
%TO.N,GND*%
X122850000Y-77040000D03*
%TO.P,J1,5*%
%TO.N,/HAN_OUT*%
X121580000Y-74500000D03*
%TO.P,J1,4*%
%TO.N,Net-(J1-Pad4)*%
X120310000Y-77040000D03*
%TO.P,J1,3*%
%TO.N,GND*%
X119040000Y-74500000D03*
%TO.P,J1,2*%
%TO.N,+5V*%
X117770000Y-77040000D03*
D11*
%TO.P,J1,1*%
X116500000Y-74500000D03*
%TD*%
D12*
%TO.P,M1,0*%
%TO.N,N/C*%
X99330000Y-88786600D03*
D13*
X100505000Y-85996600D03*
X105355000Y-85996600D03*
D12*
X106530000Y-88786600D03*
%TD*%
D14*
%TO.N,GND*%
X80500000Y-90000000D03*
X80500000Y-88500000D03*
X80500000Y-87000000D03*
X80500000Y-85500000D03*
X80500000Y-84000000D03*
X80500000Y-82500000D03*
X80500000Y-81000000D03*
X80500000Y-79500000D03*
X80500000Y-78000000D03*
X80500000Y-76500000D03*
X80500000Y-75000000D03*
X80500000Y-73500000D03*
X80500000Y-72000000D03*
X80500000Y-70500000D03*
X80500000Y-69000000D03*
X80500000Y-67500000D03*
X80500000Y-66000000D03*
X80500000Y-64500000D03*
X80500000Y-63000000D03*
X80500000Y-61500000D03*
X80500000Y-60000000D03*
X80500000Y-58500000D03*
X80500000Y-57000000D03*
X105500000Y-84000000D03*
X95500000Y-67500000D03*
X95500000Y-68500000D03*
X95500000Y-69500000D03*
X95500000Y-70500000D03*
X95500000Y-71500000D03*
X110500000Y-60500000D03*
X111500000Y-61500000D03*
X112500000Y-62500000D03*
X98000000Y-66000000D03*
X98000000Y-67000000D03*
X98000000Y-68000000D03*
X98000000Y-69000000D03*
X117000000Y-40000000D03*
X118500000Y-40000000D03*
X120000000Y-40000000D03*
X121500000Y-40000000D03*
X123000000Y-40000000D03*
X124500000Y-40000000D03*
X126000000Y-40000000D03*
%TO.N,+3V3*%
X88562500Y-65386600D03*
X115472600Y-49146900D03*
X86913100Y-60838900D03*
X95500000Y-61280600D03*
%TO.N,/D-*%
X87800100Y-66225500D03*
X102280000Y-84854900D03*
%TO.N,/D+*%
X86905700Y-66154600D03*
X99692900Y-82622000D03*
%TO.N,/LED_RX*%
X88448600Y-68905600D03*
X92475900Y-65667300D03*
%TO.N,/LED_TX*%
X92394100Y-59577800D03*
X94050300Y-61234000D03*
%TO.N,/MCU_RX*%
X88583400Y-58997600D03*
X110424700Y-47723900D03*
%TO.N,/DTR*%
X117464500Y-63532700D03*
X89750000Y-60628100D03*
X113467300Y-63532700D03*
%TO.N,/EN*%
X122500000Y-62018200D03*
X103819000Y-52760300D03*
%TO.N,Net-(D2-Pad2)*%
X88736800Y-67756000D03*
X90524700Y-59575400D03*
%TD*%
D15*
%TO.N,GND*%
X119040000Y-74500000D02*
X120526500Y-75986500D01*
X120526500Y-75986500D02*
X121796500Y-75986500D01*
X121796500Y-75986500D02*
X122850000Y-77040000D01*
%TO.N,+3V3*%
X94957200Y-60737800D02*
X106548100Y-49146900D01*
X106548100Y-49146900D02*
X115472600Y-49146900D01*
X94957200Y-60737800D02*
X93164300Y-58944900D01*
X93164300Y-58944900D02*
X89787700Y-58944900D01*
X89787700Y-58944900D02*
X88451000Y-60281600D01*
X88451000Y-60281600D02*
X88451000Y-60838900D01*
X94957200Y-60737800D02*
X95500000Y-61280600D01*
X88451000Y-60838900D02*
X86913100Y-60838900D01*
X88451000Y-60838900D02*
X88451000Y-65275100D01*
X88451000Y-65275100D02*
X88562500Y-65386600D01*
%TO.N,/D-*%
X102280000Y-84854900D02*
X102280000Y-84324700D01*
X102280000Y-84324700D02*
X87800100Y-69844800D01*
X87800100Y-69844800D02*
X87800100Y-66225500D01*
%TO.N,/D+*%
X86905700Y-66154600D02*
X86905700Y-69834800D01*
X86905700Y-69834800D02*
X99692900Y-82622000D01*
%TO.N,/LED_RX*%
X92475900Y-65667300D02*
X89237600Y-68905600D01*
X89237600Y-68905600D02*
X88448600Y-68905600D01*
%TO.N,/LED_TX*%
X94050300Y-61234000D02*
X92394100Y-59577800D01*
%TO.N,/MCU_RX*%
X88583400Y-58997600D02*
X99857100Y-47723900D01*
X99857100Y-47723900D02*
X110424700Y-47723900D01*
%TO.N,/DTR*%
X117464500Y-63532700D02*
X113467300Y-63532700D01*
X92654600Y-63532700D02*
X89750000Y-60628100D01*
X113467300Y-63532700D02*
X92654600Y-63532700D01*
%TO.N,/EN*%
X103819000Y-52760300D02*
X113076900Y-62018200D01*
X113076900Y-62018200D02*
X122500000Y-62018200D01*
%TO.N,+5V*%
X116500000Y-74500000D02*
X116500000Y-75770000D01*
X116500000Y-75770000D02*
X117770000Y-77040000D01*
%TO.N,Net-(D2-Pad2)*%
X88736800Y-67756000D02*
X89238200Y-67254600D01*
X89238200Y-67254600D02*
X89238200Y-64320300D01*
X89238200Y-64320300D02*
X89082100Y-64164200D01*
X89082100Y-64164200D02*
X89082100Y-60366900D01*
X89082100Y-60366900D02*
X89873600Y-59575400D01*
X89873600Y-59575400D02*
X90524700Y-59575400D01*
%TD*%
D16*
%TO.N,GND*%
X126290000Y-81733878D02*
X126190666Y-81634544D01*
X125820511Y-81387214D01*
X125409218Y-81216851D01*
X124972591Y-81130000D01*
X124527409Y-81130000D01*
X124090782Y-81216851D01*
X123679489Y-81387214D01*
X123309334Y-81634544D01*
X122994544Y-81949334D01*
X122747214Y-82319489D01*
X122576851Y-82730782D01*
X122490000Y-83167409D01*
X122490000Y-83612591D01*
X122576851Y-84049218D01*
X122747214Y-84460511D01*
X122994544Y-84830666D01*
X123309334Y-85145456D01*
X123679489Y-85392786D01*
X124090782Y-85563149D01*
X124527409Y-85650000D01*
X124972591Y-85650000D01*
X125409218Y-85563149D01*
X125820511Y-85392786D01*
X126190666Y-85145456D01*
X126290000Y-85046122D01*
X126290000Y-90790000D01*
X79710000Y-90790000D01*
X79710000Y-88378394D01*
X98145000Y-88378394D01*
X98145000Y-89194807D01*
X98162147Y-89368900D01*
X98229906Y-89592274D01*
X98339943Y-89798136D01*
X98488026Y-89978575D01*
X98668465Y-90126658D01*
X98874327Y-90236694D01*
X99097701Y-90304453D01*
X99330000Y-90327333D01*
X99562300Y-90304453D01*
X99785674Y-90236694D01*
X99991536Y-90126658D01*
X100171975Y-89978575D01*
X100320058Y-89798136D01*
X100430094Y-89592274D01*
X100497853Y-89368899D01*
X100515000Y-89194806D01*
X100515000Y-88378394D01*
X105345000Y-88378394D01*
X105345000Y-89194807D01*
X105362147Y-89368900D01*
X105429906Y-89592274D01*
X105539943Y-89798136D01*
X105688026Y-89978575D01*
X105868465Y-90126658D01*
X106074327Y-90236694D01*
X106297701Y-90304453D01*
X106530000Y-90327333D01*
X106762300Y-90304453D01*
X106985674Y-90236694D01*
X107191536Y-90126658D01*
X107371975Y-89978575D01*
X107520058Y-89798136D01*
X107630094Y-89592274D01*
X107697853Y-89368899D01*
X107715000Y-89194806D01*
X107715000Y-88378393D01*
X107697853Y-88204300D01*
X107630094Y-87980926D01*
X107520058Y-87775064D01*
X107371975Y-87594625D01*
X107191535Y-87446542D01*
X106985673Y-87336506D01*
X106762299Y-87268747D01*
X106530000Y-87245867D01*
X106297700Y-87268747D01*
X106074326Y-87336506D01*
X105868464Y-87446542D01*
X105688025Y-87594625D01*
X105539942Y-87775065D01*
X105429906Y-87980927D01*
X105362147Y-88204301D01*
X105345000Y-88378394D01*
X100515000Y-88378394D01*
X100515000Y-88378393D01*
X100497853Y-88204300D01*
X100430094Y-87980926D01*
X100320058Y-87775064D01*
X100171975Y-87594625D01*
X99991535Y-87446542D01*
X99785673Y-87336506D01*
X99562299Y-87268747D01*
X99330000Y-87245867D01*
X99097700Y-87268747D01*
X98874326Y-87336506D01*
X98668464Y-87446542D01*
X98488025Y-87594625D01*
X98339942Y-87775065D01*
X98229906Y-87980927D01*
X98162147Y-88204301D01*
X98145000Y-88378394D01*
X79710000Y-88378394D01*
X79710000Y-66062511D01*
X85970700Y-66062511D01*
X85970700Y-66246689D01*
X86006632Y-66427329D01*
X86077114Y-66597489D01*
X86145700Y-66700136D01*
X86145701Y-69797468D01*
X86142024Y-69834800D01*
X86145701Y-69872133D01*
X86156698Y-69983786D01*
X86169880Y-70027242D01*
X86200154Y-70127046D01*
X86270726Y-70259076D01*
X86341901Y-70345802D01*
X86365700Y-70374801D01*
X86394698Y-70398599D01*
X98769747Y-82773649D01*
X98793832Y-82894729D01*
X98864314Y-83064889D01*
X98966638Y-83218028D01*
X99096872Y-83348262D01*
X99250011Y-83450586D01*
X99420171Y-83521068D01*
X99600811Y-83557000D01*
X99784989Y-83557000D01*
X99965629Y-83521068D01*
X100135789Y-83450586D01*
X100252860Y-83372362D01*
X101404872Y-84524374D01*
X101380932Y-84582171D01*
X101345000Y-84762811D01*
X101345000Y-84946989D01*
X101371743Y-85081434D01*
X101308203Y-85017894D01*
X101101834Y-84880002D01*
X100872529Y-84785021D01*
X100629099Y-84736600D01*
X100380901Y-84736600D01*
X100137471Y-84785021D01*
X99908166Y-84880002D01*
X99701797Y-85017894D01*
X99526294Y-85193397D01*
X99388402Y-85399766D01*
X99293421Y-85629071D01*
X99245000Y-85872501D01*
X99245000Y-86120699D01*
X99293421Y-86364129D01*
X99388402Y-86593434D01*
X99526294Y-86799803D01*
X99701797Y-86975306D01*
X99908166Y-87113198D01*
X100137471Y-87208179D01*
X100380901Y-87256600D01*
X100629099Y-87256600D01*
X100872529Y-87208179D01*
X101101834Y-87113198D01*
X101308203Y-86975306D01*
X101483706Y-86799803D01*
X101621598Y-86593434D01*
X101716579Y-86364129D01*
X101765000Y-86120699D01*
X101765000Y-85872501D01*
X104095000Y-85872501D01*
X104095000Y-86120699D01*
X104143421Y-86364129D01*
X104238402Y-86593434D01*
X104376294Y-86799803D01*
X104551797Y-86975306D01*
X104758166Y-87113198D01*
X104987471Y-87208179D01*
X105230901Y-87256600D01*
X105479099Y-87256600D01*
X105722529Y-87208179D01*
X105951834Y-87113198D01*
X106158203Y-86975306D01*
X106333706Y-86799803D01*
X106471598Y-86593434D01*
X106566579Y-86364129D01*
X106615000Y-86120699D01*
X106615000Y-85872501D01*
X106566579Y-85629071D01*
X106471598Y-85399766D01*
X106333706Y-85193397D01*
X106158203Y-85017894D01*
X105951834Y-84880002D01*
X105722529Y-84785021D01*
X105479099Y-84736600D01*
X105230901Y-84736600D01*
X104987471Y-84785021D01*
X104758166Y-84880002D01*
X104551797Y-85017894D01*
X104376294Y-85193397D01*
X104238402Y-85399766D01*
X104143421Y-85629071D01*
X104095000Y-85872501D01*
X101765000Y-85872501D01*
X101716579Y-85629071D01*
X101701618Y-85592953D01*
X101837111Y-85683486D01*
X102007271Y-85753968D01*
X102187911Y-85789900D01*
X102372089Y-85789900D01*
X102552729Y-85753968D01*
X102722889Y-85683486D01*
X102876028Y-85581162D01*
X103006262Y-85450928D01*
X103108586Y-85297789D01*
X103179068Y-85127629D01*
X103215000Y-84946989D01*
X103215000Y-84762811D01*
X103179068Y-84582171D01*
X103108586Y-84412011D01*
X103042540Y-84313166D01*
X103040000Y-84287377D01*
X103040000Y-84287367D01*
X103029003Y-84175714D01*
X102985546Y-84032453D01*
X102944591Y-83955832D01*
X102914974Y-83900423D01*
X102843799Y-83813697D01*
X102820001Y-83784699D01*
X102791003Y-83760901D01*
X102197511Y-83167409D01*
X112330000Y-83167409D01*
X112330000Y-83612591D01*
X112416851Y-84049218D01*
X112587214Y-84460511D01*
X112834544Y-84830666D01*
X113149334Y-85145456D01*
X113519489Y-85392786D01*
X113930782Y-85563149D01*
X114367409Y-85650000D01*
X114812591Y-85650000D01*
X115249218Y-85563149D01*
X115660511Y-85392786D01*
X116030666Y-85145456D01*
X116345456Y-84830666D01*
X116592786Y-84460511D01*
X116763149Y-84049218D01*
X116850000Y-83612591D01*
X116850000Y-83167409D01*
X116763149Y-82730782D01*
X116592786Y-82319489D01*
X116345456Y-81949334D01*
X116030666Y-81634544D01*
X115660511Y-81387214D01*
X115249218Y-81216851D01*
X114812591Y-81130000D01*
X114367409Y-81130000D01*
X113930782Y-81216851D01*
X113519489Y-81387214D01*
X113149334Y-81634544D01*
X112834544Y-81949334D01*
X112587214Y-82319489D01*
X112416851Y-82730782D01*
X112330000Y-83167409D01*
X102197511Y-83167409D01*
X92831102Y-73801000D01*
X115162928Y-73801000D01*
X115162928Y-75199000D01*
X115175188Y-75323482D01*
X115211498Y-75443180D01*
X115270463Y-75553494D01*
X115349815Y-75650185D01*
X115446506Y-75729537D01*
X115556820Y-75788502D01*
X115676518Y-75824812D01*
X115742361Y-75831297D01*
X115750998Y-75918985D01*
X115794454Y-76062246D01*
X115865026Y-76194276D01*
X115936201Y-76281002D01*
X115960000Y-76310001D01*
X115988998Y-76333799D01*
X116457205Y-76802007D01*
X116436000Y-76908612D01*
X116436000Y-77171388D01*
X116487265Y-77429114D01*
X116587824Y-77671886D01*
X116733814Y-77890376D01*
X116919624Y-78076186D01*
X117138114Y-78222176D01*
X117380886Y-78322735D01*
X117638612Y-78374000D01*
X117901388Y-78374000D01*
X118159114Y-78322735D01*
X118401886Y-78222176D01*
X118620376Y-78076186D01*
X118806186Y-77890376D01*
X118952176Y-77671886D01*
X119040000Y-77459859D01*
X119127824Y-77671886D01*
X119273814Y-77890376D01*
X119459624Y-78076186D01*
X119678114Y-78222176D01*
X119920886Y-78322735D01*
X120178612Y-78374000D01*
X120441388Y-78374000D01*
X120699114Y-78322735D01*
X120941886Y-78222176D01*
X121160376Y-78076186D01*
X121276007Y-77960555D01*
X122109050Y-77960555D01*
X122168389Y-78194221D01*
X122406664Y-78305018D01*
X122661975Y-78367202D01*
X122924512Y-78378382D01*
X123184186Y-78338129D01*
X123431017Y-78247990D01*
X123531611Y-78194221D01*
X123590950Y-77960555D01*
X122850000Y-77219605D01*
X122109050Y-77960555D01*
X121276007Y-77960555D01*
X121346186Y-77890376D01*
X121492176Y-77671886D01*
X121581678Y-77455808D01*
X121642010Y-77621017D01*
X121695779Y-77721611D01*
X121929445Y-77780950D01*
X122670395Y-77040000D01*
X123029605Y-77040000D01*
X123770555Y-77780950D01*
X124004221Y-77721611D01*
X124115018Y-77483336D01*
X124177202Y-77228025D01*
X124188382Y-76965488D01*
X124148129Y-76705814D01*
X124057990Y-76458983D01*
X124004221Y-76358389D01*
X123770555Y-76299050D01*
X123029605Y-77040000D01*
X122670395Y-77040000D01*
X121929445Y-76299050D01*
X121695779Y-76358389D01*
X121584982Y-76596664D01*
X121579536Y-76619022D01*
X121492176Y-76408114D01*
X121346186Y-76189624D01*
X121276007Y-76119445D01*
X122109050Y-76119445D01*
X122850000Y-76860395D01*
X123590950Y-76119445D01*
X123531611Y-75885779D01*
X123293336Y-75774982D01*
X123038025Y-75712798D01*
X122775488Y-75701618D01*
X122515814Y-75741871D01*
X122268983Y-75832010D01*
X122168389Y-75885779D01*
X122109050Y-76119445D01*
X121276007Y-76119445D01*
X121160376Y-76003814D01*
X120941886Y-75857824D01*
X120699114Y-75757265D01*
X120441388Y-75706000D01*
X120178612Y-75706000D01*
X119920886Y-75757265D01*
X119678114Y-75857824D01*
X119459624Y-76003814D01*
X119273814Y-76189624D01*
X119127824Y-76408114D01*
X119040000Y-76620141D01*
X118952176Y-76408114D01*
X118806186Y-76189624D01*
X118620376Y-76003814D01*
X118401886Y-75857824D01*
X118159114Y-75757265D01*
X117901388Y-75706000D01*
X117638612Y-75706000D01*
X117564119Y-75720818D01*
X117650185Y-75650185D01*
X117729537Y-75553494D01*
X117788502Y-75443180D01*
X117795365Y-75420555D01*
X118299050Y-75420555D01*
X118358389Y-75654221D01*
X118596664Y-75765018D01*
X118851975Y-75827202D01*
X119114512Y-75838382D01*
X119374186Y-75798129D01*
X119621017Y-75707990D01*
X119721611Y-75654221D01*
X119780950Y-75420555D01*
X119040000Y-74679605D01*
X118299050Y-75420555D01*
X117795365Y-75420555D01*
X117824812Y-75323482D01*
X117837072Y-75199000D01*
X117837072Y-75090487D01*
X117885779Y-75181611D01*
X118119445Y-75240950D01*
X118860395Y-74500000D01*
X119219605Y-74500000D01*
X119960555Y-75240950D01*
X120194221Y-75181611D01*
X120305018Y-74943336D01*
X120310464Y-74920978D01*
X120397824Y-75131886D01*
X120543814Y-75350376D01*
X120729624Y-75536186D01*
X120948114Y-75682176D01*
X121190886Y-75782735D01*
X121448612Y-75834000D01*
X121711388Y-75834000D01*
X121969114Y-75782735D01*
X122211886Y-75682176D01*
X122430376Y-75536186D01*
X122616186Y-75350376D01*
X122762176Y-75131886D01*
X122862735Y-74889114D01*
X122914000Y-74631388D01*
X122914000Y-74368612D01*
X122862735Y-74110886D01*
X122762176Y-73868114D01*
X122616186Y-73649624D01*
X122430376Y-73463814D01*
X122211886Y-73317824D01*
X121969114Y-73217265D01*
X121711388Y-73166000D01*
X121448612Y-73166000D01*
X121190886Y-73217265D01*
X120948114Y-73317824D01*
X120729624Y-73463814D01*
X120543814Y-73649624D01*
X120397824Y-73868114D01*
X120308322Y-74084192D01*
X120247990Y-73918983D01*
X120194221Y-73818389D01*
X119960555Y-73759050D01*
X119219605Y-74500000D01*
X118860395Y-74500000D01*
X118119445Y-73759050D01*
X117885779Y-73818389D01*
X117837072Y-73923136D01*
X117837072Y-73801000D01*
X117824812Y-73676518D01*
X117795366Y-73579445D01*
X118299050Y-73579445D01*
X119040000Y-74320395D01*
X119780950Y-73579445D01*
X119721611Y-73345779D01*
X119483336Y-73234982D01*
X119228025Y-73172798D01*
X118965488Y-73161618D01*
X118705814Y-73201871D01*
X118458983Y-73292010D01*
X118358389Y-73345779D01*
X118299050Y-73579445D01*
X117795366Y-73579445D01*
X117788502Y-73556820D01*
X117729537Y-73446506D01*
X117650185Y-73349815D01*
X117553494Y-73270463D01*
X117443180Y-73211498D01*
X117323482Y-73175188D01*
X117199000Y-73162928D01*
X115801000Y-73162928D01*
X115676518Y-73175188D01*
X115556820Y-73211498D01*
X115446506Y-73270463D01*
X115349815Y-73349815D01*
X115270463Y-73446506D01*
X115211498Y-73556820D01*
X115175188Y-73676518D01*
X115162928Y-73801000D01*
X92831102Y-73801000D01*
X88801543Y-69771442D01*
X88891489Y-69734186D01*
X88994135Y-69665600D01*
X89200278Y-69665600D01*
X89237600Y-69669276D01*
X89274922Y-69665600D01*
X89274933Y-69665600D01*
X89386586Y-69654603D01*
X89529847Y-69611146D01*
X89661876Y-69540574D01*
X89777601Y-69445601D01*
X89801404Y-69416597D01*
X92627549Y-66590453D01*
X92748629Y-66566368D01*
X92918789Y-66495886D01*
X93071928Y-66393562D01*
X93202162Y-66263328D01*
X93304486Y-66110189D01*
X93374968Y-65940029D01*
X93410900Y-65759389D01*
X93410900Y-65575211D01*
X93374968Y-65394571D01*
X93304486Y-65224411D01*
X93202162Y-65071272D01*
X93071928Y-64941038D01*
X92918789Y-64838714D01*
X92748629Y-64768232D01*
X92567989Y-64732300D01*
X92383811Y-64732300D01*
X92203171Y-64768232D01*
X92033011Y-64838714D01*
X91879872Y-64941038D01*
X91749638Y-65071272D01*
X91647314Y-65224411D01*
X91576832Y-65394571D01*
X91552747Y-65515651D01*
X89998200Y-67070199D01*
X89998200Y-64357625D01*
X90001876Y-64320300D01*
X89998200Y-64282975D01*
X89998200Y-64282967D01*
X89987203Y-64171314D01*
X89943746Y-64028053D01*
X89873174Y-63896024D01*
X89842100Y-63858160D01*
X89842100Y-61795001D01*
X92090801Y-64043703D01*
X92114599Y-64072701D01*
X92230324Y-64167674D01*
X92362353Y-64238246D01*
X92505614Y-64281703D01*
X92617267Y-64292700D01*
X92617275Y-64292700D01*
X92654600Y-64296376D01*
X92691925Y-64292700D01*
X112921765Y-64292700D01*
X113024411Y-64361286D01*
X113194571Y-64431768D01*
X113375211Y-64467700D01*
X113559389Y-64467700D01*
X113740029Y-64431768D01*
X113910189Y-64361286D01*
X114012835Y-64292700D01*
X116918965Y-64292700D01*
X117021611Y-64361286D01*
X117191771Y-64431768D01*
X117372411Y-64467700D01*
X117556589Y-64467700D01*
X117737229Y-64431768D01*
X117907389Y-64361286D01*
X118060528Y-64258962D01*
X118190762Y-64128728D01*
X118293086Y-63975589D01*
X118363568Y-63805429D01*
X118399500Y-63624789D01*
X118399500Y-63440611D01*
X118363568Y-63259971D01*
X118293086Y-63089811D01*
X118190762Y-62936672D01*
X118060528Y-62806438D01*
X118018267Y-62778200D01*
X121954465Y-62778200D01*
X122057111Y-62846786D01*
X122227271Y-62917268D01*
X122407911Y-62953200D01*
X122592089Y-62953200D01*
X122772729Y-62917268D01*
X122942889Y-62846786D01*
X123096028Y-62744462D01*
X123226262Y-62614228D01*
X123328586Y-62461089D01*
X123399068Y-62290929D01*
X123435000Y-62110289D01*
X123435000Y-61926111D01*
X123399068Y-61745471D01*
X123328586Y-61575311D01*
X123226262Y-61422172D01*
X123096028Y-61291938D01*
X122942889Y-61189614D01*
X122772729Y-61119132D01*
X122592089Y-61083200D01*
X122407911Y-61083200D01*
X122227271Y-61119132D01*
X122057111Y-61189614D01*
X121954465Y-61258200D01*
X113391702Y-61258200D01*
X104742153Y-52608652D01*
X104718068Y-52487571D01*
X104647586Y-52317411D01*
X104569402Y-52200400D01*
X106862902Y-49906900D01*
X114927065Y-49906900D01*
X115029711Y-49975486D01*
X115199871Y-50045968D01*
X115380511Y-50081900D01*
X115564689Y-50081900D01*
X115745329Y-50045968D01*
X115915489Y-49975486D01*
X116068628Y-49873162D01*
X116198862Y-49742928D01*
X116301186Y-49589789D01*
X116371668Y-49419629D01*
X116407600Y-49238989D01*
X116407600Y-49054811D01*
X116371668Y-48874171D01*
X116301186Y-48704011D01*
X116198862Y-48550872D01*
X116068628Y-48420638D01*
X115915489Y-48318314D01*
X115745329Y-48247832D01*
X115564689Y-48211900D01*
X115380511Y-48211900D01*
X115199871Y-48247832D01*
X115029711Y-48318314D01*
X114927065Y-48386900D01*
X111083990Y-48386900D01*
X111150962Y-48319928D01*
X111253286Y-48166789D01*
X111323768Y-47996629D01*
X111359700Y-47815989D01*
X111359700Y-47631811D01*
X111323768Y-47451171D01*
X111253286Y-47281011D01*
X111150962Y-47127872D01*
X111020728Y-46997638D01*
X110867589Y-46895314D01*
X110697429Y-46824832D01*
X110516789Y-46788900D01*
X110332611Y-46788900D01*
X110151971Y-46824832D01*
X109981811Y-46895314D01*
X109879165Y-46963900D01*
X99894422Y-46963900D01*
X99857099Y-46960224D01*
X99819776Y-46963900D01*
X99819767Y-46963900D01*
X99708114Y-46974897D01*
X99564853Y-47018354D01*
X99432824Y-47088926D01*
X99432822Y-47088927D01*
X99432823Y-47088927D01*
X99346096Y-47160101D01*
X99346092Y-47160105D01*
X99317099Y-47183899D01*
X99293305Y-47212892D01*
X88431752Y-58074447D01*
X88310671Y-58098532D01*
X88140511Y-58169014D01*
X87987372Y-58271338D01*
X87857138Y-58401572D01*
X87754814Y-58554711D01*
X87684332Y-58724871D01*
X87648400Y-58905511D01*
X87648400Y-59089689D01*
X87684332Y-59270329D01*
X87754814Y-59440489D01*
X87857138Y-59593628D01*
X87960654Y-59697144D01*
X87940003Y-59717796D01*
X87910999Y-59741599D01*
X87863470Y-59799514D01*
X87816026Y-59857324D01*
X87781160Y-59922554D01*
X87745454Y-59989354D01*
X87718291Y-60078900D01*
X87458635Y-60078900D01*
X87355989Y-60010314D01*
X87185829Y-59939832D01*
X87005189Y-59903900D01*
X86821011Y-59903900D01*
X86640371Y-59939832D01*
X86470211Y-60010314D01*
X86317072Y-60112638D01*
X86186838Y-60242872D01*
X86084514Y-60396011D01*
X86014032Y-60566171D01*
X85978100Y-60746811D01*
X85978100Y-60930989D01*
X86014032Y-61111629D01*
X86084514Y-61281789D01*
X86186838Y-61434928D01*
X86317072Y-61565162D01*
X86470211Y-61667486D01*
X86640371Y-61737968D01*
X86821011Y-61773900D01*
X87005189Y-61773900D01*
X87185829Y-61737968D01*
X87355989Y-61667486D01*
X87458635Y-61598900D01*
X87691000Y-61598900D01*
X87691001Y-65047313D01*
X87663432Y-65113871D01*
X87627500Y-65294511D01*
X87627500Y-65306515D01*
X87527371Y-65326432D01*
X87417392Y-65371986D01*
X87348589Y-65326014D01*
X87178429Y-65255532D01*
X86997789Y-65219600D01*
X86813611Y-65219600D01*
X86632971Y-65255532D01*
X86462811Y-65326014D01*
X86309672Y-65428338D01*
X86179438Y-65558572D01*
X86077114Y-65711711D01*
X86006632Y-65881871D01*
X85970700Y-66062511D01*
X79710000Y-66062511D01*
X79710000Y-39710000D01*
X126290001Y-39710000D01*
X126290000Y-81733878D01*
%TA.AperFunction,Conductor*%
D17*
G36*
X126290000Y-81733878D02*
G01*
X126190666Y-81634544D01*
X125820511Y-81387214D01*
X125409218Y-81216851D01*
X124972591Y-81130000D01*
X124527409Y-81130000D01*
X124090782Y-81216851D01*
X123679489Y-81387214D01*
X123309334Y-81634544D01*
X122994544Y-81949334D01*
X122747214Y-82319489D01*
X122576851Y-82730782D01*
X122490000Y-83167409D01*
X122490000Y-83612591D01*
X122576851Y-84049218D01*
X122747214Y-84460511D01*
X122994544Y-84830666D01*
X123309334Y-85145456D01*
X123679489Y-85392786D01*
X124090782Y-85563149D01*
X124527409Y-85650000D01*
X124972591Y-85650000D01*
X125409218Y-85563149D01*
X125820511Y-85392786D01*
X126190666Y-85145456D01*
X126290000Y-85046122D01*
X126290000Y-90790000D01*
X79710000Y-90790000D01*
X79710000Y-88378394D01*
X98145000Y-88378394D01*
X98145000Y-89194807D01*
X98162147Y-89368900D01*
X98229906Y-89592274D01*
X98339943Y-89798136D01*
X98488026Y-89978575D01*
X98668465Y-90126658D01*
X98874327Y-90236694D01*
X99097701Y-90304453D01*
X99330000Y-90327333D01*
X99562300Y-90304453D01*
X99785674Y-90236694D01*
X99991536Y-90126658D01*
X100171975Y-89978575D01*
X100320058Y-89798136D01*
X100430094Y-89592274D01*
X100497853Y-89368899D01*
X100515000Y-89194806D01*
X100515000Y-88378394D01*
X105345000Y-88378394D01*
X105345000Y-89194807D01*
X105362147Y-89368900D01*
X105429906Y-89592274D01*
X105539943Y-89798136D01*
X105688026Y-89978575D01*
X105868465Y-90126658D01*
X106074327Y-90236694D01*
X106297701Y-90304453D01*
X106530000Y-90327333D01*
X106762300Y-90304453D01*
X106985674Y-90236694D01*
X107191536Y-90126658D01*
X107371975Y-89978575D01*
X107520058Y-89798136D01*
X107630094Y-89592274D01*
X107697853Y-89368899D01*
X107715000Y-89194806D01*
X107715000Y-88378393D01*
X107697853Y-88204300D01*
X107630094Y-87980926D01*
X107520058Y-87775064D01*
X107371975Y-87594625D01*
X107191535Y-87446542D01*
X106985673Y-87336506D01*
X106762299Y-87268747D01*
X106530000Y-87245867D01*
X106297700Y-87268747D01*
X106074326Y-87336506D01*
X105868464Y-87446542D01*
X105688025Y-87594625D01*
X105539942Y-87775065D01*
X105429906Y-87980927D01*
X105362147Y-88204301D01*
X105345000Y-88378394D01*
X100515000Y-88378394D01*
X100515000Y-88378393D01*
X100497853Y-88204300D01*
X100430094Y-87980926D01*
X100320058Y-87775064D01*
X100171975Y-87594625D01*
X99991535Y-87446542D01*
X99785673Y-87336506D01*
X99562299Y-87268747D01*
X99330000Y-87245867D01*
X99097700Y-87268747D01*
X98874326Y-87336506D01*
X98668464Y-87446542D01*
X98488025Y-87594625D01*
X98339942Y-87775065D01*
X98229906Y-87980927D01*
X98162147Y-88204301D01*
X98145000Y-88378394D01*
X79710000Y-88378394D01*
X79710000Y-66062511D01*
X85970700Y-66062511D01*
X85970700Y-66246689D01*
X86006632Y-66427329D01*
X86077114Y-66597489D01*
X86145700Y-66700136D01*
X86145701Y-69797468D01*
X86142024Y-69834800D01*
X86145701Y-69872133D01*
X86156698Y-69983786D01*
X86169880Y-70027242D01*
X86200154Y-70127046D01*
X86270726Y-70259076D01*
X86341901Y-70345802D01*
X86365700Y-70374801D01*
X86394698Y-70398599D01*
X98769747Y-82773649D01*
X98793832Y-82894729D01*
X98864314Y-83064889D01*
X98966638Y-83218028D01*
X99096872Y-83348262D01*
X99250011Y-83450586D01*
X99420171Y-83521068D01*
X99600811Y-83557000D01*
X99784989Y-83557000D01*
X99965629Y-83521068D01*
X100135789Y-83450586D01*
X100252860Y-83372362D01*
X101404872Y-84524374D01*
X101380932Y-84582171D01*
X101345000Y-84762811D01*
X101345000Y-84946989D01*
X101371743Y-85081434D01*
X101308203Y-85017894D01*
X101101834Y-84880002D01*
X100872529Y-84785021D01*
X100629099Y-84736600D01*
X100380901Y-84736600D01*
X100137471Y-84785021D01*
X99908166Y-84880002D01*
X99701797Y-85017894D01*
X99526294Y-85193397D01*
X99388402Y-85399766D01*
X99293421Y-85629071D01*
X99245000Y-85872501D01*
X99245000Y-86120699D01*
X99293421Y-86364129D01*
X99388402Y-86593434D01*
X99526294Y-86799803D01*
X99701797Y-86975306D01*
X99908166Y-87113198D01*
X100137471Y-87208179D01*
X100380901Y-87256600D01*
X100629099Y-87256600D01*
X100872529Y-87208179D01*
X101101834Y-87113198D01*
X101308203Y-86975306D01*
X101483706Y-86799803D01*
X101621598Y-86593434D01*
X101716579Y-86364129D01*
X101765000Y-86120699D01*
X101765000Y-85872501D01*
X104095000Y-85872501D01*
X104095000Y-86120699D01*
X104143421Y-86364129D01*
X104238402Y-86593434D01*
X104376294Y-86799803D01*
X104551797Y-86975306D01*
X104758166Y-87113198D01*
X104987471Y-87208179D01*
X105230901Y-87256600D01*
X105479099Y-87256600D01*
X105722529Y-87208179D01*
X105951834Y-87113198D01*
X106158203Y-86975306D01*
X106333706Y-86799803D01*
X106471598Y-86593434D01*
X106566579Y-86364129D01*
X106615000Y-86120699D01*
X106615000Y-85872501D01*
X106566579Y-85629071D01*
X106471598Y-85399766D01*
X106333706Y-85193397D01*
X106158203Y-85017894D01*
X105951834Y-84880002D01*
X105722529Y-84785021D01*
X105479099Y-84736600D01*
X105230901Y-84736600D01*
X104987471Y-84785021D01*
X104758166Y-84880002D01*
X104551797Y-85017894D01*
X104376294Y-85193397D01*
X104238402Y-85399766D01*
X104143421Y-85629071D01*
X104095000Y-85872501D01*
X101765000Y-85872501D01*
X101716579Y-85629071D01*
X101701618Y-85592953D01*
X101837111Y-85683486D01*
X102007271Y-85753968D01*
X102187911Y-85789900D01*
X102372089Y-85789900D01*
X102552729Y-85753968D01*
X102722889Y-85683486D01*
X102876028Y-85581162D01*
X103006262Y-85450928D01*
X103108586Y-85297789D01*
X103179068Y-85127629D01*
X103215000Y-84946989D01*
X103215000Y-84762811D01*
X103179068Y-84582171D01*
X103108586Y-84412011D01*
X103042540Y-84313166D01*
X103040000Y-84287377D01*
X103040000Y-84287367D01*
X103029003Y-84175714D01*
X102985546Y-84032453D01*
X102944591Y-83955832D01*
X102914974Y-83900423D01*
X102843799Y-83813697D01*
X102820001Y-83784699D01*
X102791003Y-83760901D01*
X102197511Y-83167409D01*
X112330000Y-83167409D01*
X112330000Y-83612591D01*
X112416851Y-84049218D01*
X112587214Y-84460511D01*
X112834544Y-84830666D01*
X113149334Y-85145456D01*
X113519489Y-85392786D01*
X113930782Y-85563149D01*
X114367409Y-85650000D01*
X114812591Y-85650000D01*
X115249218Y-85563149D01*
X115660511Y-85392786D01*
X116030666Y-85145456D01*
X116345456Y-84830666D01*
X116592786Y-84460511D01*
X116763149Y-84049218D01*
X116850000Y-83612591D01*
X116850000Y-83167409D01*
X116763149Y-82730782D01*
X116592786Y-82319489D01*
X116345456Y-81949334D01*
X116030666Y-81634544D01*
X115660511Y-81387214D01*
X115249218Y-81216851D01*
X114812591Y-81130000D01*
X114367409Y-81130000D01*
X113930782Y-81216851D01*
X113519489Y-81387214D01*
X113149334Y-81634544D01*
X112834544Y-81949334D01*
X112587214Y-82319489D01*
X112416851Y-82730782D01*
X112330000Y-83167409D01*
X102197511Y-83167409D01*
X92831102Y-73801000D01*
X115162928Y-73801000D01*
X115162928Y-75199000D01*
X115175188Y-75323482D01*
X115211498Y-75443180D01*
X115270463Y-75553494D01*
X115349815Y-75650185D01*
X115446506Y-75729537D01*
X115556820Y-75788502D01*
X115676518Y-75824812D01*
X115742361Y-75831297D01*
X115750998Y-75918985D01*
X115794454Y-76062246D01*
X115865026Y-76194276D01*
X115936201Y-76281002D01*
X115960000Y-76310001D01*
X115988998Y-76333799D01*
X116457205Y-76802007D01*
X116436000Y-76908612D01*
X116436000Y-77171388D01*
X116487265Y-77429114D01*
X116587824Y-77671886D01*
X116733814Y-77890376D01*
X116919624Y-78076186D01*
X117138114Y-78222176D01*
X117380886Y-78322735D01*
X117638612Y-78374000D01*
X117901388Y-78374000D01*
X118159114Y-78322735D01*
X118401886Y-78222176D01*
X118620376Y-78076186D01*
X118806186Y-77890376D01*
X118952176Y-77671886D01*
X119040000Y-77459859D01*
X119127824Y-77671886D01*
X119273814Y-77890376D01*
X119459624Y-78076186D01*
X119678114Y-78222176D01*
X119920886Y-78322735D01*
X120178612Y-78374000D01*
X120441388Y-78374000D01*
X120699114Y-78322735D01*
X120941886Y-78222176D01*
X121160376Y-78076186D01*
X121276007Y-77960555D01*
X122109050Y-77960555D01*
X122168389Y-78194221D01*
X122406664Y-78305018D01*
X122661975Y-78367202D01*
X122924512Y-78378382D01*
X123184186Y-78338129D01*
X123431017Y-78247990D01*
X123531611Y-78194221D01*
X123590950Y-77960555D01*
X122850000Y-77219605D01*
X122109050Y-77960555D01*
X121276007Y-77960555D01*
X121346186Y-77890376D01*
X121492176Y-77671886D01*
X121581678Y-77455808D01*
X121642010Y-77621017D01*
X121695779Y-77721611D01*
X121929445Y-77780950D01*
X122670395Y-77040000D01*
X123029605Y-77040000D01*
X123770555Y-77780950D01*
X124004221Y-77721611D01*
X124115018Y-77483336D01*
X124177202Y-77228025D01*
X124188382Y-76965488D01*
X124148129Y-76705814D01*
X124057990Y-76458983D01*
X124004221Y-76358389D01*
X123770555Y-76299050D01*
X123029605Y-77040000D01*
X122670395Y-77040000D01*
X121929445Y-76299050D01*
X121695779Y-76358389D01*
X121584982Y-76596664D01*
X121579536Y-76619022D01*
X121492176Y-76408114D01*
X121346186Y-76189624D01*
X121276007Y-76119445D01*
X122109050Y-76119445D01*
X122850000Y-76860395D01*
X123590950Y-76119445D01*
X123531611Y-75885779D01*
X123293336Y-75774982D01*
X123038025Y-75712798D01*
X122775488Y-75701618D01*
X122515814Y-75741871D01*
X122268983Y-75832010D01*
X122168389Y-75885779D01*
X122109050Y-76119445D01*
X121276007Y-76119445D01*
X121160376Y-76003814D01*
X120941886Y-75857824D01*
X120699114Y-75757265D01*
X120441388Y-75706000D01*
X120178612Y-75706000D01*
X119920886Y-75757265D01*
X119678114Y-75857824D01*
X119459624Y-76003814D01*
X119273814Y-76189624D01*
X119127824Y-76408114D01*
X119040000Y-76620141D01*
X118952176Y-76408114D01*
X118806186Y-76189624D01*
X118620376Y-76003814D01*
X118401886Y-75857824D01*
X118159114Y-75757265D01*
X117901388Y-75706000D01*
X117638612Y-75706000D01*
X117564119Y-75720818D01*
X117650185Y-75650185D01*
X117729537Y-75553494D01*
X117788502Y-75443180D01*
X117795365Y-75420555D01*
X118299050Y-75420555D01*
X118358389Y-75654221D01*
X118596664Y-75765018D01*
X118851975Y-75827202D01*
X119114512Y-75838382D01*
X119374186Y-75798129D01*
X119621017Y-75707990D01*
X119721611Y-75654221D01*
X119780950Y-75420555D01*
X119040000Y-74679605D01*
X118299050Y-75420555D01*
X117795365Y-75420555D01*
X117824812Y-75323482D01*
X117837072Y-75199000D01*
X117837072Y-75090487D01*
X117885779Y-75181611D01*
X118119445Y-75240950D01*
X118860395Y-74500000D01*
X119219605Y-74500000D01*
X119960555Y-75240950D01*
X120194221Y-75181611D01*
X120305018Y-74943336D01*
X120310464Y-74920978D01*
X120397824Y-75131886D01*
X120543814Y-75350376D01*
X120729624Y-75536186D01*
X120948114Y-75682176D01*
X121190886Y-75782735D01*
X121448612Y-75834000D01*
X121711388Y-75834000D01*
X121969114Y-75782735D01*
X122211886Y-75682176D01*
X122430376Y-75536186D01*
X122616186Y-75350376D01*
X122762176Y-75131886D01*
X122862735Y-74889114D01*
X122914000Y-74631388D01*
X122914000Y-74368612D01*
X122862735Y-74110886D01*
X122762176Y-73868114D01*
X122616186Y-73649624D01*
X122430376Y-73463814D01*
X122211886Y-73317824D01*
X121969114Y-73217265D01*
X121711388Y-73166000D01*
X121448612Y-73166000D01*
X121190886Y-73217265D01*
X120948114Y-73317824D01*
X120729624Y-73463814D01*
X120543814Y-73649624D01*
X120397824Y-73868114D01*
X120308322Y-74084192D01*
X120247990Y-73918983D01*
X120194221Y-73818389D01*
X119960555Y-73759050D01*
X119219605Y-74500000D01*
X118860395Y-74500000D01*
X118119445Y-73759050D01*
X117885779Y-73818389D01*
X117837072Y-73923136D01*
X117837072Y-73801000D01*
X117824812Y-73676518D01*
X117795366Y-73579445D01*
X118299050Y-73579445D01*
X119040000Y-74320395D01*
X119780950Y-73579445D01*
X119721611Y-73345779D01*
X119483336Y-73234982D01*
X119228025Y-73172798D01*
X118965488Y-73161618D01*
X118705814Y-73201871D01*
X118458983Y-73292010D01*
X118358389Y-73345779D01*
X118299050Y-73579445D01*
X117795366Y-73579445D01*
X117788502Y-73556820D01*
X117729537Y-73446506D01*
X117650185Y-73349815D01*
X117553494Y-73270463D01*
X117443180Y-73211498D01*
X117323482Y-73175188D01*
X117199000Y-73162928D01*
X115801000Y-73162928D01*
X115676518Y-73175188D01*
X115556820Y-73211498D01*
X115446506Y-73270463D01*
X115349815Y-73349815D01*
X115270463Y-73446506D01*
X115211498Y-73556820D01*
X115175188Y-73676518D01*
X115162928Y-73801000D01*
X92831102Y-73801000D01*
X88801543Y-69771442D01*
X88891489Y-69734186D01*
X88994135Y-69665600D01*
X89200278Y-69665600D01*
X89237600Y-69669276D01*
X89274922Y-69665600D01*
X89274933Y-69665600D01*
X89386586Y-69654603D01*
X89529847Y-69611146D01*
X89661876Y-69540574D01*
X89777601Y-69445601D01*
X89801404Y-69416597D01*
X92627549Y-66590453D01*
X92748629Y-66566368D01*
X92918789Y-66495886D01*
X93071928Y-66393562D01*
X93202162Y-66263328D01*
X93304486Y-66110189D01*
X93374968Y-65940029D01*
X93410900Y-65759389D01*
X93410900Y-65575211D01*
X93374968Y-65394571D01*
X93304486Y-65224411D01*
X93202162Y-65071272D01*
X93071928Y-64941038D01*
X92918789Y-64838714D01*
X92748629Y-64768232D01*
X92567989Y-64732300D01*
X92383811Y-64732300D01*
X92203171Y-64768232D01*
X92033011Y-64838714D01*
X91879872Y-64941038D01*
X91749638Y-65071272D01*
X91647314Y-65224411D01*
X91576832Y-65394571D01*
X91552747Y-65515651D01*
X89998200Y-67070199D01*
X89998200Y-64357625D01*
X90001876Y-64320300D01*
X89998200Y-64282975D01*
X89998200Y-64282967D01*
X89987203Y-64171314D01*
X89943746Y-64028053D01*
X89873174Y-63896024D01*
X89842100Y-63858160D01*
X89842100Y-61795001D01*
X92090801Y-64043703D01*
X92114599Y-64072701D01*
X92230324Y-64167674D01*
X92362353Y-64238246D01*
X92505614Y-64281703D01*
X92617267Y-64292700D01*
X92617275Y-64292700D01*
X92654600Y-64296376D01*
X92691925Y-64292700D01*
X112921765Y-64292700D01*
X113024411Y-64361286D01*
X113194571Y-64431768D01*
X113375211Y-64467700D01*
X113559389Y-64467700D01*
X113740029Y-64431768D01*
X113910189Y-64361286D01*
X114012835Y-64292700D01*
X116918965Y-64292700D01*
X117021611Y-64361286D01*
X117191771Y-64431768D01*
X117372411Y-64467700D01*
X117556589Y-64467700D01*
X117737229Y-64431768D01*
X117907389Y-64361286D01*
X118060528Y-64258962D01*
X118190762Y-64128728D01*
X118293086Y-63975589D01*
X118363568Y-63805429D01*
X118399500Y-63624789D01*
X118399500Y-63440611D01*
X118363568Y-63259971D01*
X118293086Y-63089811D01*
X118190762Y-62936672D01*
X118060528Y-62806438D01*
X118018267Y-62778200D01*
X121954465Y-62778200D01*
X122057111Y-62846786D01*
X122227271Y-62917268D01*
X122407911Y-62953200D01*
X122592089Y-62953200D01*
X122772729Y-62917268D01*
X122942889Y-62846786D01*
X123096028Y-62744462D01*
X123226262Y-62614228D01*
X123328586Y-62461089D01*
X123399068Y-62290929D01*
X123435000Y-62110289D01*
X123435000Y-61926111D01*
X123399068Y-61745471D01*
X123328586Y-61575311D01*
X123226262Y-61422172D01*
X123096028Y-61291938D01*
X122942889Y-61189614D01*
X122772729Y-61119132D01*
X122592089Y-61083200D01*
X122407911Y-61083200D01*
X122227271Y-61119132D01*
X122057111Y-61189614D01*
X121954465Y-61258200D01*
X113391702Y-61258200D01*
X104742153Y-52608652D01*
X104718068Y-52487571D01*
X104647586Y-52317411D01*
X104569402Y-52200400D01*
X106862902Y-49906900D01*
X114927065Y-49906900D01*
X115029711Y-49975486D01*
X115199871Y-50045968D01*
X115380511Y-50081900D01*
X115564689Y-50081900D01*
X115745329Y-50045968D01*
X115915489Y-49975486D01*
X116068628Y-49873162D01*
X116198862Y-49742928D01*
X116301186Y-49589789D01*
X116371668Y-49419629D01*
X116407600Y-49238989D01*
X116407600Y-49054811D01*
X116371668Y-48874171D01*
X116301186Y-48704011D01*
X116198862Y-48550872D01*
X116068628Y-48420638D01*
X115915489Y-48318314D01*
X115745329Y-48247832D01*
X115564689Y-48211900D01*
X115380511Y-48211900D01*
X115199871Y-48247832D01*
X115029711Y-48318314D01*
X114927065Y-48386900D01*
X111083990Y-48386900D01*
X111150962Y-48319928D01*
X111253286Y-48166789D01*
X111323768Y-47996629D01*
X111359700Y-47815989D01*
X111359700Y-47631811D01*
X111323768Y-47451171D01*
X111253286Y-47281011D01*
X111150962Y-47127872D01*
X111020728Y-46997638D01*
X110867589Y-46895314D01*
X110697429Y-46824832D01*
X110516789Y-46788900D01*
X110332611Y-46788900D01*
X110151971Y-46824832D01*
X109981811Y-46895314D01*
X109879165Y-46963900D01*
X99894422Y-46963900D01*
X99857099Y-46960224D01*
X99819776Y-46963900D01*
X99819767Y-46963900D01*
X99708114Y-46974897D01*
X99564853Y-47018354D01*
X99432824Y-47088926D01*
X99432822Y-47088927D01*
X99432823Y-47088927D01*
X99346096Y-47160101D01*
X99346092Y-47160105D01*
X99317099Y-47183899D01*
X99293305Y-47212892D01*
X88431752Y-58074447D01*
X88310671Y-58098532D01*
X88140511Y-58169014D01*
X87987372Y-58271338D01*
X87857138Y-58401572D01*
X87754814Y-58554711D01*
X87684332Y-58724871D01*
X87648400Y-58905511D01*
X87648400Y-59089689D01*
X87684332Y-59270329D01*
X87754814Y-59440489D01*
X87857138Y-59593628D01*
X87960654Y-59697144D01*
X87940003Y-59717796D01*
X87910999Y-59741599D01*
X87863470Y-59799514D01*
X87816026Y-59857324D01*
X87781160Y-59922554D01*
X87745454Y-59989354D01*
X87718291Y-60078900D01*
X87458635Y-60078900D01*
X87355989Y-60010314D01*
X87185829Y-59939832D01*
X87005189Y-59903900D01*
X86821011Y-59903900D01*
X86640371Y-59939832D01*
X86470211Y-60010314D01*
X86317072Y-60112638D01*
X86186838Y-60242872D01*
X86084514Y-60396011D01*
X86014032Y-60566171D01*
X85978100Y-60746811D01*
X85978100Y-60930989D01*
X86014032Y-61111629D01*
X86084514Y-61281789D01*
X86186838Y-61434928D01*
X86317072Y-61565162D01*
X86470211Y-61667486D01*
X86640371Y-61737968D01*
X86821011Y-61773900D01*
X87005189Y-61773900D01*
X87185829Y-61737968D01*
X87355989Y-61667486D01*
X87458635Y-61598900D01*
X87691000Y-61598900D01*
X87691001Y-65047313D01*
X87663432Y-65113871D01*
X87627500Y-65294511D01*
X87627500Y-65306515D01*
X87527371Y-65326432D01*
X87417392Y-65371986D01*
X87348589Y-65326014D01*
X87178429Y-65255532D01*
X86997789Y-65219600D01*
X86813611Y-65219600D01*
X86632971Y-65255532D01*
X86462811Y-65326014D01*
X86309672Y-65428338D01*
X86179438Y-65558572D01*
X86077114Y-65711711D01*
X86006632Y-65881871D01*
X85970700Y-66062511D01*
X79710000Y-66062511D01*
X79710000Y-39710000D01*
X126290001Y-39710000D01*
X126290000Y-81733878D01*
G37*
%TD.AperFunction*%
D16*
X103376111Y-53588886D02*
X103546271Y-53659368D01*
X103667352Y-53683453D01*
X112513101Y-62529203D01*
X112536899Y-62558201D01*
X112652624Y-62653174D01*
X112784653Y-62723746D01*
X112927914Y-62767203D01*
X112929725Y-62767381D01*
X112921765Y-62772700D01*
X92969402Y-62772700D01*
X90692117Y-60495416D01*
X90797429Y-60474468D01*
X90967589Y-60403986D01*
X91120728Y-60301662D01*
X91250962Y-60171428D01*
X91353286Y-60018289D01*
X91423768Y-59848129D01*
X91452258Y-59704900D01*
X91466064Y-59704900D01*
X91495032Y-59850529D01*
X91565514Y-60020689D01*
X91667838Y-60173828D01*
X91798072Y-60304062D01*
X91951211Y-60406386D01*
X92121371Y-60476868D01*
X92242451Y-60500953D01*
X93127147Y-61385649D01*
X93151232Y-61506729D01*
X93221714Y-61676889D01*
X93324038Y-61830028D01*
X93454272Y-61960262D01*
X93607411Y-62062586D01*
X93777571Y-62133068D01*
X93958211Y-62169000D01*
X94142389Y-62169000D01*
X94323029Y-62133068D01*
X94493189Y-62062586D01*
X94646328Y-61960262D01*
X94756204Y-61850386D01*
X94773738Y-61876628D01*
X94903972Y-62006862D01*
X95057111Y-62109186D01*
X95227271Y-62179668D01*
X95407911Y-62215600D01*
X95592089Y-62215600D01*
X95772729Y-62179668D01*
X95942889Y-62109186D01*
X96096028Y-62006862D01*
X96226262Y-61876628D01*
X96328586Y-61723489D01*
X96399068Y-61553329D01*
X96435000Y-61372689D01*
X96435000Y-61188511D01*
X96399068Y-61007871D01*
X96328586Y-60837711D01*
X96226262Y-60684572D01*
X96155746Y-60614056D01*
X103259100Y-53510702D01*
X103376111Y-53588886D01*
%TA.AperFunction,Conductor*%
D17*
G36*
X103376111Y-53588886D02*
G01*
X103546271Y-53659368D01*
X103667352Y-53683453D01*
X112513101Y-62529203D01*
X112536899Y-62558201D01*
X112652624Y-62653174D01*
X112784653Y-62723746D01*
X112927914Y-62767203D01*
X112929725Y-62767381D01*
X112921765Y-62772700D01*
X92969402Y-62772700D01*
X90692117Y-60495416D01*
X90797429Y-60474468D01*
X90967589Y-60403986D01*
X91120728Y-60301662D01*
X91250962Y-60171428D01*
X91353286Y-60018289D01*
X91423768Y-59848129D01*
X91452258Y-59704900D01*
X91466064Y-59704900D01*
X91495032Y-59850529D01*
X91565514Y-60020689D01*
X91667838Y-60173828D01*
X91798072Y-60304062D01*
X91951211Y-60406386D01*
X92121371Y-60476868D01*
X92242451Y-60500953D01*
X93127147Y-61385649D01*
X93151232Y-61506729D01*
X93221714Y-61676889D01*
X93324038Y-61830028D01*
X93454272Y-61960262D01*
X93607411Y-62062586D01*
X93777571Y-62133068D01*
X93958211Y-62169000D01*
X94142389Y-62169000D01*
X94323029Y-62133068D01*
X94493189Y-62062586D01*
X94646328Y-61960262D01*
X94756204Y-61850386D01*
X94773738Y-61876628D01*
X94903972Y-62006862D01*
X95057111Y-62109186D01*
X95227271Y-62179668D01*
X95407911Y-62215600D01*
X95592089Y-62215600D01*
X95772729Y-62179668D01*
X95942889Y-62109186D01*
X96096028Y-62006862D01*
X96226262Y-61876628D01*
X96328586Y-61723489D01*
X96399068Y-61553329D01*
X96435000Y-61372689D01*
X96435000Y-61188511D01*
X96399068Y-61007871D01*
X96328586Y-60837711D01*
X96226262Y-60684572D01*
X96155746Y-60614056D01*
X103259100Y-53510702D01*
X103376111Y-53588886D01*
G37*
%TD.AperFunction*%
%TD*%
M02*
