%TF.GenerationSoftware,KiCad,Pcbnew,5.1.10-88a1d61d58~88~ubuntu20.10.1*%
%TF.CreationDate,2021-04-30T01:43:34+02:00*%
%TF.ProjectId,AidonBoard32,4169646f-6e42-46f6-9172-6433322e6b69,1*%
%TF.SameCoordinates,Original*%
%TF.FileFunction,Copper,L1,Top*%
%TF.FilePolarity,Positive*%
%FSLAX46Y46*%
G04 Gerber Fmt 4.6, Leading zero omitted, Abs format (unit mm)*
G04 Created by KiCad (PCBNEW 5.1.10-88a1d61d58~88~ubuntu20.10.1) date 2021-04-30 01:43:34*
%MOMM*%
%LPD*%
G01*
G04 APERTURE LIST*
%TA.AperFunction,SMDPad,CuDef*%
%ADD10R,1.500000X1.000000*%
%TD*%
%TA.AperFunction,SMDPad,CuDef*%
%ADD11R,0.800000X1.900000*%
%TD*%
%TA.AperFunction,ComponentPad*%
%ADD12C,1.398000*%
%TD*%
%TA.AperFunction,ComponentPad*%
%ADD13R,1.398000X1.398000*%
%TD*%
%TA.AperFunction,SMDPad,CuDef*%
%ADD14R,1.800000X2.500000*%
%TD*%
%TA.AperFunction,SMDPad,CuDef*%
%ADD15R,6.000000X6.000000*%
%TD*%
%TA.AperFunction,SMDPad,CuDef*%
%ADD16O,2.500000X0.900000*%
%TD*%
%TA.AperFunction,SMDPad,CuDef*%
%ADD17O,0.900000X2.500000*%
%TD*%
%TA.AperFunction,SMDPad,CuDef*%
%ADD18R,2.600000X2.600000*%
%TD*%
%TA.AperFunction,SMDPad,CuDef*%
%ADD19R,1.500000X2.000000*%
%TD*%
%TA.AperFunction,SMDPad,CuDef*%
%ADD20R,3.800000X2.000000*%
%TD*%
%TA.AperFunction,ComponentPad*%
%ADD21O,1.100000X1.800000*%
%TD*%
%TA.AperFunction,SMDPad,CuDef*%
%ADD22R,0.400000X1.250000*%
%TD*%
%TA.AperFunction,ComponentPad*%
%ADD23C,1.250000*%
%TD*%
%TA.AperFunction,ViaPad*%
%ADD24C,0.600000*%
%TD*%
%TA.AperFunction,Conductor*%
%ADD25C,0.250000*%
%TD*%
%TA.AperFunction,Conductor*%
%ADD26C,0.254000*%
%TD*%
%TA.AperFunction,Conductor*%
%ADD27C,0.100000*%
%TD*%
G04 APERTURE END LIST*
%TO.P,R12,2*%
%TO.N,/UART_RX*%
%TA.AperFunction,SMDPad,CuDef*%
G36*
G01*
X116262500Y-50425000D02*
X116737500Y-50425000D01*
G75*
G02*
X116975000Y-50662500I0J-237500D01*
G01*
X116975000Y-51162500D01*
G75*
G02*
X116737500Y-51400000I-237500J0D01*
G01*
X116262500Y-51400000D01*
G75*
G02*
X116025000Y-51162500I0J237500D01*
G01*
X116025000Y-50662500D01*
G75*
G02*
X116262500Y-50425000I237500J0D01*
G01*
G37*
%TD.AperFunction*%
%TO.P,R12,1*%
%TO.N,+3V3*%
%TA.AperFunction,SMDPad,CuDef*%
G36*
G01*
X116262500Y-48600000D02*
X116737500Y-48600000D01*
G75*
G02*
X116975000Y-48837500I0J-237500D01*
G01*
X116975000Y-49337500D01*
G75*
G02*
X116737500Y-49575000I-237500J0D01*
G01*
X116262500Y-49575000D01*
G75*
G02*
X116025000Y-49337500I0J237500D01*
G01*
X116025000Y-48837500D01*
G75*
G02*
X116262500Y-48600000I237500J0D01*
G01*
G37*
%TD.AperFunction*%
%TD*%
D10*
%TO.P,D6,1*%
%TO.N,VCC*%
X100550000Y-63650000D03*
%TO.P,D6,2*%
%TO.N,Net-(D6-Pad2)*%
X100550000Y-66850000D03*
%TO.P,D6,4*%
%TO.N,/IO13*%
X105450000Y-63650000D03*
%TO.P,D6,3*%
%TO.N,GND*%
X105450000Y-66850000D03*
%TD*%
%TO.P,D5,2*%
%TO.N,Net-(D2-Pad2)*%
%TA.AperFunction,SMDPad,CuDef*%
G36*
G01*
X88667100Y-85144800D02*
X89142100Y-85144800D01*
G75*
G02*
X89379600Y-85382300I0J-237500D01*
G01*
X89379600Y-85957300D01*
G75*
G02*
X89142100Y-86194800I-237500J0D01*
G01*
X88667100Y-86194800D01*
G75*
G02*
X88429600Y-85957300I0J237500D01*
G01*
X88429600Y-85382300D01*
G75*
G02*
X88667100Y-85144800I237500J0D01*
G01*
G37*
%TD.AperFunction*%
%TO.P,D5,1*%
%TO.N,Net-(D5-Pad1)*%
%TA.AperFunction,SMDPad,CuDef*%
G36*
G01*
X88667100Y-83394800D02*
X89142100Y-83394800D01*
G75*
G02*
X89379600Y-83632300I0J-237500D01*
G01*
X89379600Y-84207300D01*
G75*
G02*
X89142100Y-84444800I-237500J0D01*
G01*
X88667100Y-84444800D01*
G75*
G02*
X88429600Y-84207300I0J237500D01*
G01*
X88429600Y-83632300D01*
G75*
G02*
X88667100Y-83394800I237500J0D01*
G01*
G37*
%TD.AperFunction*%
%TD*%
D11*
%TO.P,Q3,3*%
%TO.N,/IO0*%
X117420000Y-60520000D03*
%TO.P,Q3,2*%
%TO.N,/DTR*%
X118370000Y-63520000D03*
%TO.P,Q3,1*%
%TO.N,Net-(Q3-Pad1)*%
X116470000Y-63520000D03*
%TD*%
%TO.P,R11,2*%
%TO.N,/HAN_OUT*%
%TA.AperFunction,SMDPad,CuDef*%
G36*
G01*
X123262500Y-50425000D02*
X123737500Y-50425000D01*
G75*
G02*
X123975000Y-50662500I0J-237500D01*
G01*
X123975000Y-51162500D01*
G75*
G02*
X123737500Y-51400000I-237500J0D01*
G01*
X123262500Y-51400000D01*
G75*
G02*
X123025000Y-51162500I0J237500D01*
G01*
X123025000Y-50662500D01*
G75*
G02*
X123262500Y-50425000I237500J0D01*
G01*
G37*
%TD.AperFunction*%
%TO.P,R11,1*%
%TO.N,Net-(Q4-Pad1)*%
%TA.AperFunction,SMDPad,CuDef*%
G36*
G01*
X123262500Y-48600000D02*
X123737500Y-48600000D01*
G75*
G02*
X123975000Y-48837500I0J-237500D01*
G01*
X123975000Y-49337500D01*
G75*
G02*
X123737500Y-49575000I-237500J0D01*
G01*
X123262500Y-49575000D01*
G75*
G02*
X123025000Y-49337500I0J237500D01*
G01*
X123025000Y-48837500D01*
G75*
G02*
X123262500Y-48600000I237500J0D01*
G01*
G37*
%TD.AperFunction*%
%TD*%
%TO.P,R10,2*%
%TO.N,/HAN_OUT*%
%TA.AperFunction,SMDPad,CuDef*%
G36*
G01*
X120525000Y-51637500D02*
X120525000Y-51162500D01*
G75*
G02*
X120762500Y-50925000I237500J0D01*
G01*
X121262500Y-50925000D01*
G75*
G02*
X121500000Y-51162500I0J-237500D01*
G01*
X121500000Y-51637500D01*
G75*
G02*
X121262500Y-51875000I-237500J0D01*
G01*
X120762500Y-51875000D01*
G75*
G02*
X120525000Y-51637500I0J237500D01*
G01*
G37*
%TD.AperFunction*%
%TO.P,R10,1*%
%TO.N,+5V*%
%TA.AperFunction,SMDPad,CuDef*%
G36*
G01*
X118700000Y-51637500D02*
X118700000Y-51162500D01*
G75*
G02*
X118937500Y-50925000I237500J0D01*
G01*
X119437500Y-50925000D01*
G75*
G02*
X119675000Y-51162500I0J-237500D01*
G01*
X119675000Y-51637500D01*
G75*
G02*
X119437500Y-51875000I-237500J0D01*
G01*
X118937500Y-51875000D01*
G75*
G02*
X118700000Y-51637500I0J237500D01*
G01*
G37*
%TD.AperFunction*%
%TD*%
%TO.P,R9,2*%
%TO.N,Net-(D5-Pad1)*%
%TA.AperFunction,SMDPad,CuDef*%
G36*
G01*
X87262500Y-76425000D02*
X87737500Y-76425000D01*
G75*
G02*
X87975000Y-76662500I0J-237500D01*
G01*
X87975000Y-77162500D01*
G75*
G02*
X87737500Y-77400000I-237500J0D01*
G01*
X87262500Y-77400000D01*
G75*
G02*
X87025000Y-77162500I0J237500D01*
G01*
X87025000Y-76662500D01*
G75*
G02*
X87262500Y-76425000I237500J0D01*
G01*
G37*
%TD.AperFunction*%
%TO.P,R9,1*%
%TO.N,GND*%
%TA.AperFunction,SMDPad,CuDef*%
G36*
G01*
X87262500Y-74600000D02*
X87737500Y-74600000D01*
G75*
G02*
X87975000Y-74837500I0J-237500D01*
G01*
X87975000Y-75337500D01*
G75*
G02*
X87737500Y-75575000I-237500J0D01*
G01*
X87262500Y-75575000D01*
G75*
G02*
X87025000Y-75337500I0J237500D01*
G01*
X87025000Y-74837500D01*
G75*
G02*
X87262500Y-74600000I237500J0D01*
G01*
G37*
%TD.AperFunction*%
%TD*%
%TO.P,R8,2*%
%TO.N,Net-(D4-Pad1)*%
%TA.AperFunction,SMDPad,CuDef*%
G36*
G01*
X85262500Y-76425000D02*
X85737500Y-76425000D01*
G75*
G02*
X85975000Y-76662500I0J-237500D01*
G01*
X85975000Y-77162500D01*
G75*
G02*
X85737500Y-77400000I-237500J0D01*
G01*
X85262500Y-77400000D01*
G75*
G02*
X85025000Y-77162500I0J237500D01*
G01*
X85025000Y-76662500D01*
G75*
G02*
X85262500Y-76425000I237500J0D01*
G01*
G37*
%TD.AperFunction*%
%TO.P,R8,1*%
%TO.N,GND*%
%TA.AperFunction,SMDPad,CuDef*%
G36*
G01*
X85262500Y-74600000D02*
X85737500Y-74600000D01*
G75*
G02*
X85975000Y-74837500I0J-237500D01*
G01*
X85975000Y-75337500D01*
G75*
G02*
X85737500Y-75575000I-237500J0D01*
G01*
X85262500Y-75575000D01*
G75*
G02*
X85025000Y-75337500I0J237500D01*
G01*
X85025000Y-74837500D01*
G75*
G02*
X85262500Y-74600000I237500J0D01*
G01*
G37*
%TD.AperFunction*%
%TD*%
%TO.P,R7,2*%
%TO.N,Net-(D3-Pad1)*%
%TA.AperFunction,SMDPad,CuDef*%
G36*
G01*
X86075000Y-69762500D02*
X86075000Y-70237500D01*
G75*
G02*
X85837500Y-70475000I-237500J0D01*
G01*
X85337500Y-70475000D01*
G75*
G02*
X85100000Y-70237500I0J237500D01*
G01*
X85100000Y-69762500D01*
G75*
G02*
X85337500Y-69525000I237500J0D01*
G01*
X85837500Y-69525000D01*
G75*
G02*
X86075000Y-69762500I0J-237500D01*
G01*
G37*
%TD.AperFunction*%
%TO.P,R7,1*%
%TO.N,/LED_RX*%
%TA.AperFunction,SMDPad,CuDef*%
G36*
G01*
X87900000Y-69762500D02*
X87900000Y-70237500D01*
G75*
G02*
X87662500Y-70475000I-237500J0D01*
G01*
X87162500Y-70475000D01*
G75*
G02*
X86925000Y-70237500I0J237500D01*
G01*
X86925000Y-69762500D01*
G75*
G02*
X87162500Y-69525000I237500J0D01*
G01*
X87662500Y-69525000D01*
G75*
G02*
X87900000Y-69762500I0J-237500D01*
G01*
G37*
%TD.AperFunction*%
%TD*%
%TO.P,R6,2*%
%TO.N,Net-(D2-Pad1)*%
%TA.AperFunction,SMDPad,CuDef*%
G36*
G01*
X86075000Y-56762500D02*
X86075000Y-57237500D01*
G75*
G02*
X85837500Y-57475000I-237500J0D01*
G01*
X85337500Y-57475000D01*
G75*
G02*
X85100000Y-57237500I0J237500D01*
G01*
X85100000Y-56762500D01*
G75*
G02*
X85337500Y-56525000I237500J0D01*
G01*
X85837500Y-56525000D01*
G75*
G02*
X86075000Y-56762500I0J-237500D01*
G01*
G37*
%TD.AperFunction*%
%TO.P,R6,1*%
%TO.N,/LED_TX*%
%TA.AperFunction,SMDPad,CuDef*%
G36*
G01*
X87900000Y-56762500D02*
X87900000Y-57237500D01*
G75*
G02*
X87662500Y-57475000I-237500J0D01*
G01*
X87162500Y-57475000D01*
G75*
G02*
X86925000Y-57237500I0J237500D01*
G01*
X86925000Y-56762500D01*
G75*
G02*
X87162500Y-56525000I237500J0D01*
G01*
X87662500Y-56525000D01*
G75*
G02*
X87900000Y-56762500I0J-237500D01*
G01*
G37*
%TD.AperFunction*%
%TD*%
%TO.P,R5,2*%
%TO.N,/RTS*%
%TA.AperFunction,SMDPad,CuDef*%
G36*
G01*
X117845000Y-67257500D02*
X117845000Y-66782500D01*
G75*
G02*
X118082500Y-66545000I237500J0D01*
G01*
X118582500Y-66545000D01*
G75*
G02*
X118820000Y-66782500I0J-237500D01*
G01*
X118820000Y-67257500D01*
G75*
G02*
X118582500Y-67495000I-237500J0D01*
G01*
X118082500Y-67495000D01*
G75*
G02*
X117845000Y-67257500I0J237500D01*
G01*
G37*
%TD.AperFunction*%
%TO.P,R5,1*%
%TO.N,Net-(Q3-Pad1)*%
%TA.AperFunction,SMDPad,CuDef*%
G36*
G01*
X116020000Y-67257500D02*
X116020000Y-66782500D01*
G75*
G02*
X116257500Y-66545000I237500J0D01*
G01*
X116757500Y-66545000D01*
G75*
G02*
X116995000Y-66782500I0J-237500D01*
G01*
X116995000Y-67257500D01*
G75*
G02*
X116757500Y-67495000I-237500J0D01*
G01*
X116257500Y-67495000D01*
G75*
G02*
X116020000Y-67257500I0J237500D01*
G01*
G37*
%TD.AperFunction*%
%TD*%
%TO.P,R4,2*%
%TO.N,/DTR*%
%TA.AperFunction,SMDPad,CuDef*%
G36*
G01*
X122925000Y-60237500D02*
X122925000Y-59762500D01*
G75*
G02*
X123162500Y-59525000I237500J0D01*
G01*
X123662500Y-59525000D01*
G75*
G02*
X123900000Y-59762500I0J-237500D01*
G01*
X123900000Y-60237500D01*
G75*
G02*
X123662500Y-60475000I-237500J0D01*
G01*
X123162500Y-60475000D01*
G75*
G02*
X122925000Y-60237500I0J237500D01*
G01*
G37*
%TD.AperFunction*%
%TO.P,R4,1*%
%TO.N,Net-(Q2-Pad1)*%
%TA.AperFunction,SMDPad,CuDef*%
G36*
G01*
X121100000Y-60237500D02*
X121100000Y-59762500D01*
G75*
G02*
X121337500Y-59525000I237500J0D01*
G01*
X121837500Y-59525000D01*
G75*
G02*
X122075000Y-59762500I0J-237500D01*
G01*
X122075000Y-60237500D01*
G75*
G02*
X121837500Y-60475000I-237500J0D01*
G01*
X121337500Y-60475000D01*
G75*
G02*
X121100000Y-60237500I0J237500D01*
G01*
G37*
%TD.AperFunction*%
%TD*%
%TO.P,R3,2*%
%TO.N,/EN*%
%TA.AperFunction,SMDPad,CuDef*%
G36*
G01*
X89425000Y-48237500D02*
X89425000Y-47762500D01*
G75*
G02*
X89662500Y-47525000I237500J0D01*
G01*
X90162500Y-47525000D01*
G75*
G02*
X90400000Y-47762500I0J-237500D01*
G01*
X90400000Y-48237500D01*
G75*
G02*
X90162500Y-48475000I-237500J0D01*
G01*
X89662500Y-48475000D01*
G75*
G02*
X89425000Y-48237500I0J237500D01*
G01*
G37*
%TD.AperFunction*%
%TO.P,R3,1*%
%TO.N,+3V3*%
%TA.AperFunction,SMDPad,CuDef*%
G36*
G01*
X87600000Y-48237500D02*
X87600000Y-47762500D01*
G75*
G02*
X87837500Y-47525000I237500J0D01*
G01*
X88337500Y-47525000D01*
G75*
G02*
X88575000Y-47762500I0J-237500D01*
G01*
X88575000Y-48237500D01*
G75*
G02*
X88337500Y-48475000I-237500J0D01*
G01*
X87837500Y-48475000D01*
G75*
G02*
X87600000Y-48237500I0J237500D01*
G01*
G37*
%TD.AperFunction*%
%TD*%
%TO.P,R2,2*%
%TO.N,+3V3*%
%TA.AperFunction,SMDPad,CuDef*%
G36*
G01*
X95737500Y-63075000D02*
X95262500Y-63075000D01*
G75*
G02*
X95025000Y-62837500I0J237500D01*
G01*
X95025000Y-62337500D01*
G75*
G02*
X95262500Y-62100000I237500J0D01*
G01*
X95737500Y-62100000D01*
G75*
G02*
X95975000Y-62337500I0J-237500D01*
G01*
X95975000Y-62837500D01*
G75*
G02*
X95737500Y-63075000I-237500J0D01*
G01*
G37*
%TD.AperFunction*%
%TO.P,R2,1*%
%TO.N,Net-(R2-Pad1)*%
%TA.AperFunction,SMDPad,CuDef*%
G36*
G01*
X95737500Y-64900000D02*
X95262500Y-64900000D01*
G75*
G02*
X95025000Y-64662500I0J237500D01*
G01*
X95025000Y-64162500D01*
G75*
G02*
X95262500Y-63925000I237500J0D01*
G01*
X95737500Y-63925000D01*
G75*
G02*
X95975000Y-64162500I0J-237500D01*
G01*
X95975000Y-64662500D01*
G75*
G02*
X95737500Y-64900000I-237500J0D01*
G01*
G37*
%TD.AperFunction*%
%TD*%
%TO.P,R1,2*%
%TO.N,GND*%
%TA.AperFunction,SMDPad,CuDef*%
G36*
G01*
X93461500Y-75913000D02*
X92986500Y-75913000D01*
G75*
G02*
X92749000Y-75675500I0J237500D01*
G01*
X92749000Y-75175500D01*
G75*
G02*
X92986500Y-74938000I237500J0D01*
G01*
X93461500Y-74938000D01*
G75*
G02*
X93699000Y-75175500I0J-237500D01*
G01*
X93699000Y-75675500D01*
G75*
G02*
X93461500Y-75913000I-237500J0D01*
G01*
G37*
%TD.AperFunction*%
%TO.P,R1,1*%
%TO.N,VBUS*%
%TA.AperFunction,SMDPad,CuDef*%
G36*
G01*
X93461500Y-77738000D02*
X92986500Y-77738000D01*
G75*
G02*
X92749000Y-77500500I0J237500D01*
G01*
X92749000Y-77000500D01*
G75*
G02*
X92986500Y-76763000I237500J0D01*
G01*
X93461500Y-76763000D01*
G75*
G02*
X93699000Y-77000500I0J-237500D01*
G01*
X93699000Y-77500500D01*
G75*
G02*
X93461500Y-77738000I-237500J0D01*
G01*
G37*
%TD.AperFunction*%
%TD*%
%TO.P,Q4,3*%
%TO.N,/UART_RX*%
X120000000Y-47000000D03*
%TO.P,Q4,2*%
%TO.N,GND*%
X119050000Y-44000000D03*
%TO.P,Q4,1*%
%TO.N,Net-(Q4-Pad1)*%
X120950000Y-44000000D03*
%TD*%
D12*
%TO.P,J1,6*%
%TO.N,GND*%
X122850000Y-77040000D03*
%TO.P,J1,5*%
%TO.N,/HAN_OUT*%
X121580000Y-74500000D03*
%TO.P,J1,4*%
%TO.N,Net-(J1-Pad4)*%
X120310000Y-77040000D03*
%TO.P,J1,3*%
%TO.N,GND*%
X119040000Y-74500000D03*
%TO.P,J1,2*%
%TO.N,+5V*%
X117770000Y-77040000D03*
D13*
%TO.P,J1,1*%
X116500000Y-74500000D03*
%TD*%
%TO.P,D4,2*%
%TO.N,Net-(D2-Pad2)*%
%TA.AperFunction,SMDPad,CuDef*%
G36*
G01*
X86662000Y-85200200D02*
X86662000Y-84725200D01*
G75*
G02*
X86899500Y-84487700I237500J0D01*
G01*
X87474500Y-84487700D01*
G75*
G02*
X87712000Y-84725200I0J-237500D01*
G01*
X87712000Y-85200200D01*
G75*
G02*
X87474500Y-85437700I-237500J0D01*
G01*
X86899500Y-85437700D01*
G75*
G02*
X86662000Y-85200200I0J237500D01*
G01*
G37*
%TD.AperFunction*%
%TO.P,D4,1*%
%TO.N,Net-(D4-Pad1)*%
%TA.AperFunction,SMDPad,CuDef*%
G36*
G01*
X84912000Y-85200200D02*
X84912000Y-84725200D01*
G75*
G02*
X85149500Y-84487700I237500J0D01*
G01*
X85724500Y-84487700D01*
G75*
G02*
X85962000Y-84725200I0J-237500D01*
G01*
X85962000Y-85200200D01*
G75*
G02*
X85724500Y-85437700I-237500J0D01*
G01*
X85149500Y-85437700D01*
G75*
G02*
X84912000Y-85200200I0J237500D01*
G01*
G37*
%TD.AperFunction*%
%TD*%
%TO.P,D3,2*%
%TO.N,Net-(D2-Pad2)*%
%TA.AperFunction,SMDPad,CuDef*%
G36*
G01*
X90150000Y-68262500D02*
X90150000Y-68737500D01*
G75*
G02*
X89912500Y-68975000I-237500J0D01*
G01*
X89337500Y-68975000D01*
G75*
G02*
X89100000Y-68737500I0J237500D01*
G01*
X89100000Y-68262500D01*
G75*
G02*
X89337500Y-68025000I237500J0D01*
G01*
X89912500Y-68025000D01*
G75*
G02*
X90150000Y-68262500I0J-237500D01*
G01*
G37*
%TD.AperFunction*%
%TO.P,D3,1*%
%TO.N,Net-(D3-Pad1)*%
%TA.AperFunction,SMDPad,CuDef*%
G36*
G01*
X91900000Y-68262500D02*
X91900000Y-68737500D01*
G75*
G02*
X91662500Y-68975000I-237500J0D01*
G01*
X91087500Y-68975000D01*
G75*
G02*
X90850000Y-68737500I0J237500D01*
G01*
X90850000Y-68262500D01*
G75*
G02*
X91087500Y-68025000I237500J0D01*
G01*
X91662500Y-68025000D01*
G75*
G02*
X91900000Y-68262500I0J-237500D01*
G01*
G37*
%TD.AperFunction*%
%TD*%
%TO.P,D2,2*%
%TO.N,Net-(D2-Pad2)*%
%TA.AperFunction,SMDPad,CuDef*%
G36*
G01*
X90150000Y-58262500D02*
X90150000Y-58737500D01*
G75*
G02*
X89912500Y-58975000I-237500J0D01*
G01*
X89337500Y-58975000D01*
G75*
G02*
X89100000Y-58737500I0J237500D01*
G01*
X89100000Y-58262500D01*
G75*
G02*
X89337500Y-58025000I237500J0D01*
G01*
X89912500Y-58025000D01*
G75*
G02*
X90150000Y-58262500I0J-237500D01*
G01*
G37*
%TD.AperFunction*%
%TO.P,D2,1*%
%TO.N,Net-(D2-Pad1)*%
%TA.AperFunction,SMDPad,CuDef*%
G36*
G01*
X91900000Y-58262500D02*
X91900000Y-58737500D01*
G75*
G02*
X91662500Y-58975000I-237500J0D01*
G01*
X91087500Y-58975000D01*
G75*
G02*
X90850000Y-58737500I0J237500D01*
G01*
X90850000Y-58262500D01*
G75*
G02*
X91087500Y-58025000I237500J0D01*
G01*
X91662500Y-58025000D01*
G75*
G02*
X91900000Y-58262500I0J-237500D01*
G01*
G37*
%TD.AperFunction*%
%TD*%
D14*
%TO.P,D1,2*%
%TO.N,VBUS*%
X95750000Y-85750000D03*
%TO.P,D1,1*%
%TO.N,VCC*%
X95750000Y-81750000D03*
%TD*%
%TO.P,C10,2*%
%TO.N,VCC*%
%TA.AperFunction,SMDPad,CuDef*%
G36*
G01*
X102675000Y-70262500D02*
X102675000Y-70737500D01*
G75*
G02*
X102437500Y-70975000I-237500J0D01*
G01*
X101837500Y-70975000D01*
G75*
G02*
X101600000Y-70737500I0J237500D01*
G01*
X101600000Y-70262500D01*
G75*
G02*
X101837500Y-70025000I237500J0D01*
G01*
X102437500Y-70025000D01*
G75*
G02*
X102675000Y-70262500I0J-237500D01*
G01*
G37*
%TD.AperFunction*%
%TO.P,C10,1*%
%TO.N,GND*%
%TA.AperFunction,SMDPad,CuDef*%
G36*
G01*
X104400000Y-70262500D02*
X104400000Y-70737500D01*
G75*
G02*
X104162500Y-70975000I-237500J0D01*
G01*
X103562500Y-70975000D01*
G75*
G02*
X103325000Y-70737500I0J237500D01*
G01*
X103325000Y-70262500D01*
G75*
G02*
X103562500Y-70025000I237500J0D01*
G01*
X104162500Y-70025000D01*
G75*
G02*
X104400000Y-70262500I0J-237500D01*
G01*
G37*
%TD.AperFunction*%
%TD*%
%TO.P,C8,2*%
%TO.N,GND*%
%TA.AperFunction,SMDPad,CuDef*%
G36*
G01*
X84675000Y-47762500D02*
X84675000Y-48237500D01*
G75*
G02*
X84437500Y-48475000I-237500J0D01*
G01*
X83837500Y-48475000D01*
G75*
G02*
X83600000Y-48237500I0J237500D01*
G01*
X83600000Y-47762500D01*
G75*
G02*
X83837500Y-47525000I237500J0D01*
G01*
X84437500Y-47525000D01*
G75*
G02*
X84675000Y-47762500I0J-237500D01*
G01*
G37*
%TD.AperFunction*%
%TO.P,C8,1*%
%TO.N,+3V3*%
%TA.AperFunction,SMDPad,CuDef*%
G36*
G01*
X86400000Y-47762500D02*
X86400000Y-48237500D01*
G75*
G02*
X86162500Y-48475000I-237500J0D01*
G01*
X85562500Y-48475000D01*
G75*
G02*
X85325000Y-48237500I0J237500D01*
G01*
X85325000Y-47762500D01*
G75*
G02*
X85562500Y-47525000I237500J0D01*
G01*
X86162500Y-47525000D01*
G75*
G02*
X86400000Y-47762500I0J-237500D01*
G01*
G37*
%TD.AperFunction*%
%TD*%
%TO.P,C6,2*%
%TO.N,GND*%
%TA.AperFunction,SMDPad,CuDef*%
G36*
G01*
X86237500Y-65675000D02*
X85762500Y-65675000D01*
G75*
G02*
X85525000Y-65437500I0J237500D01*
G01*
X85525000Y-64837500D01*
G75*
G02*
X85762500Y-64600000I237500J0D01*
G01*
X86237500Y-64600000D01*
G75*
G02*
X86475000Y-64837500I0J-237500D01*
G01*
X86475000Y-65437500D01*
G75*
G02*
X86237500Y-65675000I-237500J0D01*
G01*
G37*
%TD.AperFunction*%
%TO.P,C6,1*%
%TO.N,VBUS*%
%TA.AperFunction,SMDPad,CuDef*%
G36*
G01*
X86237500Y-67400000D02*
X85762500Y-67400000D01*
G75*
G02*
X85525000Y-67162500I0J237500D01*
G01*
X85525000Y-66562500D01*
G75*
G02*
X85762500Y-66325000I237500J0D01*
G01*
X86237500Y-66325000D01*
G75*
G02*
X86475000Y-66562500I0J-237500D01*
G01*
X86475000Y-67162500D01*
G75*
G02*
X86237500Y-67400000I-237500J0D01*
G01*
G37*
%TD.AperFunction*%
%TD*%
%TO.P,C4,2*%
%TO.N,GND*%
%TA.AperFunction,SMDPad,CuDef*%
G36*
G01*
X85762500Y-61325000D02*
X86237500Y-61325000D01*
G75*
G02*
X86475000Y-61562500I0J-237500D01*
G01*
X86475000Y-62162500D01*
G75*
G02*
X86237500Y-62400000I-237500J0D01*
G01*
X85762500Y-62400000D01*
G75*
G02*
X85525000Y-62162500I0J237500D01*
G01*
X85525000Y-61562500D01*
G75*
G02*
X85762500Y-61325000I237500J0D01*
G01*
G37*
%TD.AperFunction*%
%TO.P,C4,1*%
%TO.N,+3V3*%
%TA.AperFunction,SMDPad,CuDef*%
G36*
G01*
X85762500Y-59600000D02*
X86237500Y-59600000D01*
G75*
G02*
X86475000Y-59837500I0J-237500D01*
G01*
X86475000Y-60437500D01*
G75*
G02*
X86237500Y-60675000I-237500J0D01*
G01*
X85762500Y-60675000D01*
G75*
G02*
X85525000Y-60437500I0J237500D01*
G01*
X85525000Y-59837500D01*
G75*
G02*
X85762500Y-59600000I237500J0D01*
G01*
G37*
%TD.AperFunction*%
%TD*%
D15*
%TO.P,U3,39*%
%TO.N,GND*%
X102700000Y-48450000D03*
D16*
%TO.P,U3,1*%
X94000000Y-40750000D03*
%TO.P,U3,2*%
%TO.N,+3V3*%
X94000000Y-42020000D03*
%TO.P,U3,3*%
%TO.N,/EN*%
X94000000Y-43290000D03*
%TO.P,U3,4*%
%TO.N,Net-(U3-Pad4)*%
X94000000Y-44560000D03*
%TO.P,U3,5*%
%TO.N,Net-(U3-Pad5)*%
X94000000Y-45830000D03*
%TO.P,U3,6*%
%TO.N,Net-(U3-Pad6)*%
X94000000Y-47100000D03*
%TO.P,U3,7*%
%TO.N,Net-(U3-Pad7)*%
X94000000Y-48370000D03*
%TO.P,U3,8*%
%TO.N,Net-(U3-Pad8)*%
X94000000Y-49640000D03*
%TO.P,U3,9*%
%TO.N,Net-(U3-Pad9)*%
X94000000Y-50910000D03*
%TO.P,U3,10*%
%TO.N,Net-(U3-Pad10)*%
X94000000Y-52180000D03*
%TO.P,U3,11*%
%TO.N,Net-(U3-Pad11)*%
X94000000Y-53450000D03*
%TO.P,U3,12*%
%TO.N,Net-(U3-Pad12)*%
X94000000Y-54720000D03*
%TO.P,U3,13*%
%TO.N,Net-(U3-Pad13)*%
X94000000Y-55990000D03*
%TO.P,U3,14*%
%TO.N,Net-(U3-Pad14)*%
X94000000Y-57260000D03*
D17*
%TO.P,U3,15*%
%TO.N,GND*%
X97285000Y-58750000D03*
%TO.P,U3,16*%
%TO.N,/IO13*%
X98555000Y-58750000D03*
%TO.P,U3,17*%
%TO.N,Net-(U3-Pad17)*%
X99825000Y-58750000D03*
%TO.P,U3,18*%
%TO.N,Net-(U3-Pad18)*%
X101095000Y-58750000D03*
%TO.P,U3,19*%
%TO.N,Net-(U3-Pad19)*%
X102365000Y-58750000D03*
%TO.P,U3,20*%
%TO.N,Net-(U3-Pad20)*%
X103635000Y-58750000D03*
%TO.P,U3,21*%
%TO.N,Net-(U3-Pad21)*%
X104905000Y-58750000D03*
%TO.P,U3,22*%
%TO.N,Net-(U3-Pad22)*%
X106175000Y-58750000D03*
%TO.P,U3,23*%
%TO.N,Net-(U3-Pad23)*%
X107445000Y-58750000D03*
%TO.P,U3,24*%
%TO.N,Net-(U3-Pad24)*%
X108715000Y-58750000D03*
D16*
%TO.P,U3,25*%
%TO.N,/IO0*%
X112000000Y-57260000D03*
%TO.P,U3,26*%
%TO.N,Net-(U3-Pad26)*%
X112000000Y-55990000D03*
%TO.P,U3,27*%
%TO.N,/UART_RX*%
X112000000Y-54720000D03*
%TO.P,U3,28*%
%TO.N,Net-(U3-Pad28)*%
X112000000Y-53450000D03*
%TO.P,U3,29*%
%TO.N,Net-(U3-Pad29)*%
X112000000Y-52180000D03*
%TO.P,U3,30*%
%TO.N,Net-(U3-Pad30)*%
X112000000Y-50910000D03*
%TO.P,U3,31*%
%TO.N,Net-(U3-Pad31)*%
X112000000Y-49640000D03*
%TO.P,U3,32*%
%TO.N,Net-(U3-Pad32)*%
X112000000Y-48370000D03*
%TO.P,U3,33*%
%TO.N,Net-(U3-Pad33)*%
X112000000Y-47100000D03*
%TO.P,U3,34*%
%TO.N,/MCU_RX*%
X112000000Y-45830000D03*
%TO.P,U3,35*%
%TO.N,/MCU_TX*%
X112000000Y-44560000D03*
%TO.P,U3,36*%
%TO.N,Net-(U3-Pad36)*%
X112000000Y-43290000D03*
%TO.P,U3,37*%
%TO.N,Net-(U3-Pad37)*%
X112000000Y-42020000D03*
%TO.P,U3,38*%
%TO.N,GND*%
X112000000Y-40750000D03*
%TD*%
D18*
%TO.P,U2,25*%
%TO.N,GND*%
X90500000Y-63500000D03*
%TO.P,U2,24*%
%TO.N,Net-(U2-Pad24)*%
%TA.AperFunction,SMDPad,CuDef*%
G36*
G01*
X89125000Y-61912500D02*
X89125000Y-61212500D01*
G75*
G02*
X89187500Y-61150000I62500J0D01*
G01*
X89312500Y-61150000D01*
G75*
G02*
X89375000Y-61212500I0J-62500D01*
G01*
X89375000Y-61912500D01*
G75*
G02*
X89312500Y-61975000I-62500J0D01*
G01*
X89187500Y-61975000D01*
G75*
G02*
X89125000Y-61912500I0J62500D01*
G01*
G37*
%TD.AperFunction*%
%TO.P,U2,23*%
%TO.N,/DTR*%
%TA.AperFunction,SMDPad,CuDef*%
G36*
G01*
X89625000Y-61912500D02*
X89625000Y-61212500D01*
G75*
G02*
X89687500Y-61150000I62500J0D01*
G01*
X89812500Y-61150000D01*
G75*
G02*
X89875000Y-61212500I0J-62500D01*
G01*
X89875000Y-61912500D01*
G75*
G02*
X89812500Y-61975000I-62500J0D01*
G01*
X89687500Y-61975000D01*
G75*
G02*
X89625000Y-61912500I0J62500D01*
G01*
G37*
%TD.AperFunction*%
%TO.P,U2,22*%
%TO.N,Net-(U2-Pad22)*%
%TA.AperFunction,SMDPad,CuDef*%
G36*
G01*
X90125000Y-61912500D02*
X90125000Y-61212500D01*
G75*
G02*
X90187500Y-61150000I62500J0D01*
G01*
X90312500Y-61150000D01*
G75*
G02*
X90375000Y-61212500I0J-62500D01*
G01*
X90375000Y-61912500D01*
G75*
G02*
X90312500Y-61975000I-62500J0D01*
G01*
X90187500Y-61975000D01*
G75*
G02*
X90125000Y-61912500I0J62500D01*
G01*
G37*
%TD.AperFunction*%
%TO.P,U2,21*%
%TO.N,/MCU_RX*%
%TA.AperFunction,SMDPad,CuDef*%
G36*
G01*
X90625000Y-61912500D02*
X90625000Y-61212500D01*
G75*
G02*
X90687500Y-61150000I62500J0D01*
G01*
X90812500Y-61150000D01*
G75*
G02*
X90875000Y-61212500I0J-62500D01*
G01*
X90875000Y-61912500D01*
G75*
G02*
X90812500Y-61975000I-62500J0D01*
G01*
X90687500Y-61975000D01*
G75*
G02*
X90625000Y-61912500I0J62500D01*
G01*
G37*
%TD.AperFunction*%
%TO.P,U2,20*%
%TO.N,/MCU_TX*%
%TA.AperFunction,SMDPad,CuDef*%
G36*
G01*
X91125000Y-61912500D02*
X91125000Y-61212500D01*
G75*
G02*
X91187500Y-61150000I62500J0D01*
G01*
X91312500Y-61150000D01*
G75*
G02*
X91375000Y-61212500I0J-62500D01*
G01*
X91375000Y-61912500D01*
G75*
G02*
X91312500Y-61975000I-62500J0D01*
G01*
X91187500Y-61975000D01*
G75*
G02*
X91125000Y-61912500I0J62500D01*
G01*
G37*
%TD.AperFunction*%
%TO.P,U2,19*%
%TO.N,/RTS*%
%TA.AperFunction,SMDPad,CuDef*%
G36*
G01*
X91625000Y-61912500D02*
X91625000Y-61212500D01*
G75*
G02*
X91687500Y-61150000I62500J0D01*
G01*
X91812500Y-61150000D01*
G75*
G02*
X91875000Y-61212500I0J-62500D01*
G01*
X91875000Y-61912500D01*
G75*
G02*
X91812500Y-61975000I-62500J0D01*
G01*
X91687500Y-61975000D01*
G75*
G02*
X91625000Y-61912500I0J62500D01*
G01*
G37*
%TD.AperFunction*%
%TO.P,U2,18*%
%TO.N,Net-(U2-Pad18)*%
%TA.AperFunction,SMDPad,CuDef*%
G36*
G01*
X92025000Y-62312500D02*
X92025000Y-62187500D01*
G75*
G02*
X92087500Y-62125000I62500J0D01*
G01*
X92787500Y-62125000D01*
G75*
G02*
X92850000Y-62187500I0J-62500D01*
G01*
X92850000Y-62312500D01*
G75*
G02*
X92787500Y-62375000I-62500J0D01*
G01*
X92087500Y-62375000D01*
G75*
G02*
X92025000Y-62312500I0J62500D01*
G01*
G37*
%TD.AperFunction*%
%TO.P,U2,17*%
%TO.N,Net-(U2-Pad17)*%
%TA.AperFunction,SMDPad,CuDef*%
G36*
G01*
X92025000Y-62812500D02*
X92025000Y-62687500D01*
G75*
G02*
X92087500Y-62625000I62500J0D01*
G01*
X92787500Y-62625000D01*
G75*
G02*
X92850000Y-62687500I0J-62500D01*
G01*
X92850000Y-62812500D01*
G75*
G02*
X92787500Y-62875000I-62500J0D01*
G01*
X92087500Y-62875000D01*
G75*
G02*
X92025000Y-62812500I0J62500D01*
G01*
G37*
%TD.AperFunction*%
%TO.P,U2,16*%
%TO.N,Net-(U2-Pad16)*%
%TA.AperFunction,SMDPad,CuDef*%
G36*
G01*
X92025000Y-63312500D02*
X92025000Y-63187500D01*
G75*
G02*
X92087500Y-63125000I62500J0D01*
G01*
X92787500Y-63125000D01*
G75*
G02*
X92850000Y-63187500I0J-62500D01*
G01*
X92850000Y-63312500D01*
G75*
G02*
X92787500Y-63375000I-62500J0D01*
G01*
X92087500Y-63375000D01*
G75*
G02*
X92025000Y-63312500I0J62500D01*
G01*
G37*
%TD.AperFunction*%
%TO.P,U2,15*%
%TO.N,Net-(U2-Pad15)*%
%TA.AperFunction,SMDPad,CuDef*%
G36*
G01*
X92025000Y-63812500D02*
X92025000Y-63687500D01*
G75*
G02*
X92087500Y-63625000I62500J0D01*
G01*
X92787500Y-63625000D01*
G75*
G02*
X92850000Y-63687500I0J-62500D01*
G01*
X92850000Y-63812500D01*
G75*
G02*
X92787500Y-63875000I-62500J0D01*
G01*
X92087500Y-63875000D01*
G75*
G02*
X92025000Y-63812500I0J62500D01*
G01*
G37*
%TD.AperFunction*%
%TO.P,U2,14*%
%TO.N,/LED_TX*%
%TA.AperFunction,SMDPad,CuDef*%
G36*
G01*
X92025000Y-64312500D02*
X92025000Y-64187500D01*
G75*
G02*
X92087500Y-64125000I62500J0D01*
G01*
X92787500Y-64125000D01*
G75*
G02*
X92850000Y-64187500I0J-62500D01*
G01*
X92850000Y-64312500D01*
G75*
G02*
X92787500Y-64375000I-62500J0D01*
G01*
X92087500Y-64375000D01*
G75*
G02*
X92025000Y-64312500I0J62500D01*
G01*
G37*
%TD.AperFunction*%
%TO.P,U2,13*%
%TO.N,/LED_RX*%
%TA.AperFunction,SMDPad,CuDef*%
G36*
G01*
X92025000Y-64812500D02*
X92025000Y-64687500D01*
G75*
G02*
X92087500Y-64625000I62500J0D01*
G01*
X92787500Y-64625000D01*
G75*
G02*
X92850000Y-64687500I0J-62500D01*
G01*
X92850000Y-64812500D01*
G75*
G02*
X92787500Y-64875000I-62500J0D01*
G01*
X92087500Y-64875000D01*
G75*
G02*
X92025000Y-64812500I0J62500D01*
G01*
G37*
%TD.AperFunction*%
%TO.P,U2,12*%
%TO.N,Net-(U2-Pad12)*%
%TA.AperFunction,SMDPad,CuDef*%
G36*
G01*
X91625000Y-65787500D02*
X91625000Y-65087500D01*
G75*
G02*
X91687500Y-65025000I62500J0D01*
G01*
X91812500Y-65025000D01*
G75*
G02*
X91875000Y-65087500I0J-62500D01*
G01*
X91875000Y-65787500D01*
G75*
G02*
X91812500Y-65850000I-62500J0D01*
G01*
X91687500Y-65850000D01*
G75*
G02*
X91625000Y-65787500I0J62500D01*
G01*
G37*
%TD.AperFunction*%
%TO.P,U2,11*%
%TO.N,Net-(U2-Pad11)*%
%TA.AperFunction,SMDPad,CuDef*%
G36*
G01*
X91125000Y-65787500D02*
X91125000Y-65087500D01*
G75*
G02*
X91187500Y-65025000I62500J0D01*
G01*
X91312500Y-65025000D01*
G75*
G02*
X91375000Y-65087500I0J-62500D01*
G01*
X91375000Y-65787500D01*
G75*
G02*
X91312500Y-65850000I-62500J0D01*
G01*
X91187500Y-65850000D01*
G75*
G02*
X91125000Y-65787500I0J62500D01*
G01*
G37*
%TD.AperFunction*%
%TO.P,U2,10*%
%TO.N,Net-(U2-Pad10)*%
%TA.AperFunction,SMDPad,CuDef*%
G36*
G01*
X90625000Y-65787500D02*
X90625000Y-65087500D01*
G75*
G02*
X90687500Y-65025000I62500J0D01*
G01*
X90812500Y-65025000D01*
G75*
G02*
X90875000Y-65087500I0J-62500D01*
G01*
X90875000Y-65787500D01*
G75*
G02*
X90812500Y-65850000I-62500J0D01*
G01*
X90687500Y-65850000D01*
G75*
G02*
X90625000Y-65787500I0J62500D01*
G01*
G37*
%TD.AperFunction*%
%TO.P,U2,9*%
%TO.N,Net-(R2-Pad1)*%
%TA.AperFunction,SMDPad,CuDef*%
G36*
G01*
X90125000Y-65787500D02*
X90125000Y-65087500D01*
G75*
G02*
X90187500Y-65025000I62500J0D01*
G01*
X90312500Y-65025000D01*
G75*
G02*
X90375000Y-65087500I0J-62500D01*
G01*
X90375000Y-65787500D01*
G75*
G02*
X90312500Y-65850000I-62500J0D01*
G01*
X90187500Y-65850000D01*
G75*
G02*
X90125000Y-65787500I0J62500D01*
G01*
G37*
%TD.AperFunction*%
%TO.P,U2,8*%
%TO.N,VBUS*%
%TA.AperFunction,SMDPad,CuDef*%
G36*
G01*
X89625000Y-65787500D02*
X89625000Y-65087500D01*
G75*
G02*
X89687500Y-65025000I62500J0D01*
G01*
X89812500Y-65025000D01*
G75*
G02*
X89875000Y-65087500I0J-62500D01*
G01*
X89875000Y-65787500D01*
G75*
G02*
X89812500Y-65850000I-62500J0D01*
G01*
X89687500Y-65850000D01*
G75*
G02*
X89625000Y-65787500I0J62500D01*
G01*
G37*
%TD.AperFunction*%
%TO.P,U2,7*%
%TO.N,+3V3*%
%TA.AperFunction,SMDPad,CuDef*%
G36*
G01*
X89125000Y-65787500D02*
X89125000Y-65087500D01*
G75*
G02*
X89187500Y-65025000I62500J0D01*
G01*
X89312500Y-65025000D01*
G75*
G02*
X89375000Y-65087500I0J-62500D01*
G01*
X89375000Y-65787500D01*
G75*
G02*
X89312500Y-65850000I-62500J0D01*
G01*
X89187500Y-65850000D01*
G75*
G02*
X89125000Y-65787500I0J62500D01*
G01*
G37*
%TD.AperFunction*%
%TO.P,U2,6*%
%TA.AperFunction,SMDPad,CuDef*%
G36*
G01*
X88150000Y-64812500D02*
X88150000Y-64687500D01*
G75*
G02*
X88212500Y-64625000I62500J0D01*
G01*
X88912500Y-64625000D01*
G75*
G02*
X88975000Y-64687500I0J-62500D01*
G01*
X88975000Y-64812500D01*
G75*
G02*
X88912500Y-64875000I-62500J0D01*
G01*
X88212500Y-64875000D01*
G75*
G02*
X88150000Y-64812500I0J62500D01*
G01*
G37*
%TD.AperFunction*%
%TO.P,U2,5*%
%TA.AperFunction,SMDPad,CuDef*%
G36*
G01*
X88150000Y-64312500D02*
X88150000Y-64187500D01*
G75*
G02*
X88212500Y-64125000I62500J0D01*
G01*
X88912500Y-64125000D01*
G75*
G02*
X88975000Y-64187500I0J-62500D01*
G01*
X88975000Y-64312500D01*
G75*
G02*
X88912500Y-64375000I-62500J0D01*
G01*
X88212500Y-64375000D01*
G75*
G02*
X88150000Y-64312500I0J62500D01*
G01*
G37*
%TD.AperFunction*%
%TO.P,U2,4*%
%TO.N,/D-*%
%TA.AperFunction,SMDPad,CuDef*%
G36*
G01*
X88150000Y-63812500D02*
X88150000Y-63687500D01*
G75*
G02*
X88212500Y-63625000I62500J0D01*
G01*
X88912500Y-63625000D01*
G75*
G02*
X88975000Y-63687500I0J-62500D01*
G01*
X88975000Y-63812500D01*
G75*
G02*
X88912500Y-63875000I-62500J0D01*
G01*
X88212500Y-63875000D01*
G75*
G02*
X88150000Y-63812500I0J62500D01*
G01*
G37*
%TD.AperFunction*%
%TO.P,U2,3*%
%TO.N,/D+*%
%TA.AperFunction,SMDPad,CuDef*%
G36*
G01*
X88150000Y-63312500D02*
X88150000Y-63187500D01*
G75*
G02*
X88212500Y-63125000I62500J0D01*
G01*
X88912500Y-63125000D01*
G75*
G02*
X88975000Y-63187500I0J-62500D01*
G01*
X88975000Y-63312500D01*
G75*
G02*
X88912500Y-63375000I-62500J0D01*
G01*
X88212500Y-63375000D01*
G75*
G02*
X88150000Y-63312500I0J62500D01*
G01*
G37*
%TD.AperFunction*%
%TO.P,U2,2*%
%TO.N,GND*%
%TA.AperFunction,SMDPad,CuDef*%
G36*
G01*
X88150000Y-62812500D02*
X88150000Y-62687500D01*
G75*
G02*
X88212500Y-62625000I62500J0D01*
G01*
X88912500Y-62625000D01*
G75*
G02*
X88975000Y-62687500I0J-62500D01*
G01*
X88975000Y-62812500D01*
G75*
G02*
X88912500Y-62875000I-62500J0D01*
G01*
X88212500Y-62875000D01*
G75*
G02*
X88150000Y-62812500I0J62500D01*
G01*
G37*
%TD.AperFunction*%
%TO.P,U2,1*%
%TO.N,Net-(U2-Pad1)*%
%TA.AperFunction,SMDPad,CuDef*%
G36*
G01*
X88150000Y-62312500D02*
X88150000Y-62187500D01*
G75*
G02*
X88212500Y-62125000I62500J0D01*
G01*
X88912500Y-62125000D01*
G75*
G02*
X88975000Y-62187500I0J-62500D01*
G01*
X88975000Y-62312500D01*
G75*
G02*
X88912500Y-62375000I-62500J0D01*
G01*
X88212500Y-62375000D01*
G75*
G02*
X88150000Y-62312500I0J62500D01*
G01*
G37*
%TD.AperFunction*%
%TD*%
D19*
%TO.P,U1,1*%
%TO.N,GND*%
X100700000Y-81150000D03*
%TO.P,U1,3*%
%TO.N,VCC*%
X105300000Y-81150000D03*
%TO.P,U1,2*%
%TO.N,+3V3*%
X103000000Y-81150000D03*
D20*
%TO.P,U1,4*%
%TO.N,N/C*%
X103000000Y-74850000D03*
%TD*%
D11*
%TO.P,Q2,3*%
%TO.N,/EN*%
X122500000Y-63500000D03*
%TO.P,Q2,2*%
%TO.N,/RTS*%
X123450000Y-66500000D03*
%TO.P,Q2,1*%
%TO.N,Net-(Q2-Pad1)*%
X121550000Y-66500000D03*
%TD*%
%TO.P,Q1,3*%
%TO.N,+5V*%
X109734000Y-82966000D03*
%TO.P,Q1,2*%
%TO.N,VCC*%
X110684000Y-85966000D03*
%TO.P,Q1,1*%
%TO.N,VBUS*%
X108784000Y-85966000D03*
%TD*%
%TO.P,C9,2*%
%TO.N,GND*%
%TA.AperFunction,SMDPad,CuDef*%
G36*
G01*
X86100000Y-50349997D02*
X86100000Y-51650003D01*
G75*
G02*
X85850003Y-51900000I-249997J0D01*
G01*
X85024997Y-51900000D01*
G75*
G02*
X84775000Y-51650003I0J249997D01*
G01*
X84775000Y-50349997D01*
G75*
G02*
X85024997Y-50100000I249997J0D01*
G01*
X85850003Y-50100000D01*
G75*
G02*
X86100000Y-50349997I0J-249997D01*
G01*
G37*
%TD.AperFunction*%
%TO.P,C9,1*%
%TO.N,/EN*%
%TA.AperFunction,SMDPad,CuDef*%
G36*
G01*
X89225000Y-50349997D02*
X89225000Y-51650003D01*
G75*
G02*
X88975003Y-51900000I-249997J0D01*
G01*
X88149997Y-51900000D01*
G75*
G02*
X87900000Y-51650003I0J249997D01*
G01*
X87900000Y-50349997D01*
G75*
G02*
X88149997Y-50100000I249997J0D01*
G01*
X88975003Y-50100000D01*
G75*
G02*
X89225000Y-50349997I0J-249997D01*
G01*
G37*
%TD.AperFunction*%
%TD*%
%TO.P,C7,2*%
%TO.N,GND*%
%TA.AperFunction,SMDPad,CuDef*%
G36*
G01*
X86100000Y-44349997D02*
X86100000Y-45650003D01*
G75*
G02*
X85850003Y-45900000I-249997J0D01*
G01*
X85024997Y-45900000D01*
G75*
G02*
X84775000Y-45650003I0J249997D01*
G01*
X84775000Y-44349997D01*
G75*
G02*
X85024997Y-44100000I249997J0D01*
G01*
X85850003Y-44100000D01*
G75*
G02*
X86100000Y-44349997I0J-249997D01*
G01*
G37*
%TD.AperFunction*%
%TO.P,C7,1*%
%TO.N,+3V3*%
%TA.AperFunction,SMDPad,CuDef*%
G36*
G01*
X89225000Y-44349997D02*
X89225000Y-45650003D01*
G75*
G02*
X88975003Y-45900000I-249997J0D01*
G01*
X88149997Y-45900000D01*
G75*
G02*
X87900000Y-45650003I0J249997D01*
G01*
X87900000Y-44349997D01*
G75*
G02*
X88149997Y-44100000I249997J0D01*
G01*
X88975003Y-44100000D01*
G75*
G02*
X89225000Y-44349997I0J-249997D01*
G01*
G37*
%TD.AperFunction*%
%TD*%
%TO.P,C5,2*%
%TO.N,GND*%
%TA.AperFunction,SMDPad,CuDef*%
G36*
G01*
X83650003Y-66100000D02*
X82349997Y-66100000D01*
G75*
G02*
X82100000Y-65850003I0J249997D01*
G01*
X82100000Y-65024997D01*
G75*
G02*
X82349997Y-64775000I249997J0D01*
G01*
X83650003Y-64775000D01*
G75*
G02*
X83900000Y-65024997I0J-249997D01*
G01*
X83900000Y-65850003D01*
G75*
G02*
X83650003Y-66100000I-249997J0D01*
G01*
G37*
%TD.AperFunction*%
%TO.P,C5,1*%
%TO.N,VBUS*%
%TA.AperFunction,SMDPad,CuDef*%
G36*
G01*
X83650003Y-69225000D02*
X82349997Y-69225000D01*
G75*
G02*
X82100000Y-68975003I0J249997D01*
G01*
X82100000Y-68149997D01*
G75*
G02*
X82349997Y-67900000I249997J0D01*
G01*
X83650003Y-67900000D01*
G75*
G02*
X83900000Y-68149997I0J-249997D01*
G01*
X83900000Y-68975003D01*
G75*
G02*
X83650003Y-69225000I-249997J0D01*
G01*
G37*
%TD.AperFunction*%
%TD*%
%TO.P,C3,2*%
%TO.N,GND*%
%TA.AperFunction,SMDPad,CuDef*%
G36*
G01*
X83650003Y-59100000D02*
X82349997Y-59100000D01*
G75*
G02*
X82100000Y-58850003I0J249997D01*
G01*
X82100000Y-58024997D01*
G75*
G02*
X82349997Y-57775000I249997J0D01*
G01*
X83650003Y-57775000D01*
G75*
G02*
X83900000Y-58024997I0J-249997D01*
G01*
X83900000Y-58850003D01*
G75*
G02*
X83650003Y-59100000I-249997J0D01*
G01*
G37*
%TD.AperFunction*%
%TO.P,C3,1*%
%TO.N,+3V3*%
%TA.AperFunction,SMDPad,CuDef*%
G36*
G01*
X83650003Y-62225000D02*
X82349997Y-62225000D01*
G75*
G02*
X82100000Y-61975003I0J249997D01*
G01*
X82100000Y-61149997D01*
G75*
G02*
X82349997Y-60900000I249997J0D01*
G01*
X83650003Y-60900000D01*
G75*
G02*
X83900000Y-61149997I0J-249997D01*
G01*
X83900000Y-61975003D01*
G75*
G02*
X83650003Y-62225000I-249997J0D01*
G01*
G37*
%TD.AperFunction*%
%TD*%
%TO.P,C2,2*%
%TO.N,GND*%
%TA.AperFunction,SMDPad,CuDef*%
G36*
G01*
X110150003Y-75100000D02*
X108849997Y-75100000D01*
G75*
G02*
X108600000Y-74850003I0J249997D01*
G01*
X108600000Y-74024997D01*
G75*
G02*
X108849997Y-73775000I249997J0D01*
G01*
X110150003Y-73775000D01*
G75*
G02*
X110400000Y-74024997I0J-249997D01*
G01*
X110400000Y-74850003D01*
G75*
G02*
X110150003Y-75100000I-249997J0D01*
G01*
G37*
%TD.AperFunction*%
%TO.P,C2,1*%
%TO.N,+3V3*%
%TA.AperFunction,SMDPad,CuDef*%
G36*
G01*
X110150003Y-78225000D02*
X108849997Y-78225000D01*
G75*
G02*
X108600000Y-77975003I0J249997D01*
G01*
X108600000Y-77149997D01*
G75*
G02*
X108849997Y-76900000I249997J0D01*
G01*
X110150003Y-76900000D01*
G75*
G02*
X110400000Y-77149997I0J-249997D01*
G01*
X110400000Y-77975003D01*
G75*
G02*
X110150003Y-78225000I-249997J0D01*
G01*
G37*
%TD.AperFunction*%
%TD*%
%TO.P,C1,2*%
%TO.N,GND*%
%TA.AperFunction,SMDPad,CuDef*%
G36*
G01*
X95849997Y-76900000D02*
X97150003Y-76900000D01*
G75*
G02*
X97400000Y-77149997I0J-249997D01*
G01*
X97400000Y-77975003D01*
G75*
G02*
X97150003Y-78225000I-249997J0D01*
G01*
X95849997Y-78225000D01*
G75*
G02*
X95600000Y-77975003I0J249997D01*
G01*
X95600000Y-77149997D01*
G75*
G02*
X95849997Y-76900000I249997J0D01*
G01*
G37*
%TD.AperFunction*%
%TO.P,C1,1*%
%TO.N,VCC*%
%TA.AperFunction,SMDPad,CuDef*%
G36*
G01*
X95849997Y-73775000D02*
X97150003Y-73775000D01*
G75*
G02*
X97400000Y-74024997I0J-249997D01*
G01*
X97400000Y-74850003D01*
G75*
G02*
X97150003Y-75100000I-249997J0D01*
G01*
X95849997Y-75100000D01*
G75*
G02*
X95600000Y-74850003I0J249997D01*
G01*
X95600000Y-74024997D01*
G75*
G02*
X95849997Y-73775000I249997J0D01*
G01*
G37*
%TD.AperFunction*%
%TD*%
D21*
%TO.P,M1,0*%
%TO.N,N/C*%
X99330000Y-88786600D03*
D22*
%TO.P,M1,1*%
%TO.N,VBUS*%
X101630000Y-85996600D03*
%TO.P,M1,2*%
%TO.N,/D-*%
X102280000Y-85996600D03*
%TO.P,M1,5*%
%TO.N,GND*%
X104230000Y-85996600D03*
%TO.P,M1,4*%
%TO.N,Net-(M1-Pad4)*%
X103580000Y-85996600D03*
D23*
%TO.P,M1,0*%
%TO.N,N/C*%
X100505000Y-85996600D03*
X105355000Y-85996600D03*
D22*
%TO.P,M1,3*%
%TO.N,/D+*%
X102930000Y-85996600D03*
D21*
%TO.P,M1,0*%
%TO.N,N/C*%
X106530000Y-88786600D03*
%TD*%
D24*
%TO.N,GND*%
X80500000Y-90000000D03*
X80500000Y-88500000D03*
X80500000Y-87000000D03*
X80500000Y-85500000D03*
X80500000Y-84000000D03*
X80500000Y-82500000D03*
X80500000Y-81000000D03*
X80500000Y-79500000D03*
X80500000Y-78000000D03*
X80500000Y-76500000D03*
X80500000Y-75000000D03*
X80500000Y-73500000D03*
X80500000Y-72000000D03*
X80500000Y-70500000D03*
X80500000Y-69000000D03*
X80500000Y-67500000D03*
X80500000Y-66000000D03*
X80500000Y-64500000D03*
X80500000Y-63000000D03*
X80500000Y-61500000D03*
X80500000Y-60000000D03*
X80500000Y-58500000D03*
X80500000Y-57000000D03*
X105500000Y-84000000D03*
X95500000Y-67500000D03*
X95500000Y-68500000D03*
X95500000Y-69500000D03*
X95500000Y-70500000D03*
X95500000Y-71500000D03*
X110500000Y-60500000D03*
X111500000Y-61500000D03*
X112500000Y-62500000D03*
X98000000Y-66000000D03*
X98000000Y-67000000D03*
X98000000Y-68000000D03*
X98000000Y-69000000D03*
X117000000Y-40000000D03*
X118500000Y-40000000D03*
X120000000Y-40000000D03*
X121500000Y-40000000D03*
X123000000Y-40000000D03*
X124500000Y-40000000D03*
X126000000Y-40000000D03*
%TO.N,+3V3*%
X88562500Y-65386600D03*
X115472600Y-49146900D03*
X86913100Y-60838900D03*
X95500000Y-61280600D03*
%TO.N,/D-*%
X87800100Y-66225500D03*
X102280000Y-84854900D03*
%TO.N,/D+*%
X86905700Y-66154600D03*
X99692900Y-82622000D03*
%TO.N,/LED_RX*%
X88448600Y-68905600D03*
X92475900Y-65667300D03*
%TO.N,/LED_TX*%
X92394100Y-59577800D03*
X94050300Y-61234000D03*
%TO.N,/MCU_RX*%
X88583400Y-58997600D03*
X110424700Y-47723900D03*
%TO.N,/DTR*%
X117464500Y-63532700D03*
X89750000Y-60628100D03*
X113467300Y-63532700D03*
%TO.N,/EN*%
X122500000Y-62018200D03*
X103819000Y-52760300D03*
%TO.N,Net-(D2-Pad2)*%
X88736800Y-67756000D03*
X90524700Y-59575400D03*
%TD*%
D25*
%TO.N,VBUS*%
X89750000Y-66070400D02*
X89164800Y-66655600D01*
X89164800Y-66655600D02*
X88299000Y-66655600D01*
X88299000Y-66655600D02*
X88092100Y-66862500D01*
X88092100Y-66862500D02*
X86000000Y-66862500D01*
X108784000Y-85966000D02*
X108058700Y-85966000D01*
X101630000Y-86946900D02*
X107077800Y-86946900D01*
X107077800Y-86946900D02*
X108058700Y-85966000D01*
X101630000Y-86834300D02*
X101630000Y-86946900D01*
X101630000Y-85996600D02*
X101630000Y-86834300D01*
X95750000Y-85750000D02*
X96975300Y-85750000D01*
X101630000Y-86946900D02*
X98172200Y-86946900D01*
X98172200Y-86946900D02*
X96975300Y-85750000D01*
X93224000Y-77250500D02*
X93224000Y-84449300D01*
X93224000Y-84449300D02*
X94524700Y-85750000D01*
X89750000Y-66070400D02*
X90592500Y-66912900D01*
X90592500Y-66912900D02*
X91131100Y-66912900D01*
X91131100Y-66912900D02*
X92422800Y-68204600D01*
X92422800Y-68204600D02*
X92422800Y-76449300D01*
X92422800Y-76449300D02*
X93224000Y-77250500D01*
X95750000Y-85750000D02*
X94524700Y-85750000D01*
X83000000Y-68562500D02*
X84300000Y-68562500D01*
X84300000Y-68562500D02*
X86000000Y-66862500D01*
X89750000Y-66070400D02*
X89750000Y-65437500D01*
%TO.N,GND*%
X88562500Y-62750000D02*
X89750000Y-62750000D01*
X89750000Y-62750000D02*
X90500000Y-63500000D01*
X100700000Y-81150000D02*
X101775300Y-81150000D01*
X104230000Y-84680000D02*
X101775300Y-82225300D01*
X101775300Y-82225300D02*
X101775300Y-81150000D01*
X100700000Y-81150000D02*
X99624700Y-81150000D01*
X99624700Y-81150000D02*
X96983700Y-83791000D01*
X96983700Y-83791000D02*
X94417700Y-83791000D01*
X94417700Y-83791000D02*
X94025300Y-83398600D01*
X94025300Y-83398600D02*
X94025300Y-78627500D01*
X94025300Y-78627500D02*
X95090300Y-77562500D01*
X95090300Y-77562500D02*
X95090300Y-77291800D01*
X98981500Y-62021800D02*
X100654200Y-62021800D01*
X96500000Y-77562500D02*
X95090300Y-77562500D01*
X105450000Y-66850000D02*
X104912400Y-66850000D01*
X102700000Y-48450000D02*
X102700000Y-45124700D01*
X84137500Y-46300000D02*
X84137500Y-48000000D01*
X85437500Y-49300000D02*
X85437500Y-51000000D01*
X94000000Y-40750000D02*
X95575300Y-40750000D01*
X83300000Y-65137500D02*
X83000000Y-65437500D01*
X117462700Y-75537300D02*
X117000000Y-76000000D01*
X118002700Y-75537300D02*
X117462700Y-75537300D01*
X119040000Y-74500000D02*
X118002700Y-75537300D01*
X104230000Y-85996600D02*
X104230000Y-84680000D01*
X88512510Y-62799990D02*
X88562500Y-62750000D01*
X87000000Y-62799990D02*
X88512510Y-62799990D01*
X96750000Y-58750000D02*
X96000000Y-59500000D01*
X97285000Y-58750000D02*
X96750000Y-58750000D01*
X96045300Y-65500000D02*
X96000000Y-65500000D01*
X96302100Y-65243200D02*
X96045300Y-65500000D01*
X96302100Y-63889600D02*
X96302100Y-65243200D01*
X96011300Y-63598800D02*
X96302100Y-63889600D01*
X95149400Y-63598800D02*
X96011300Y-63598800D01*
X94698700Y-63148100D02*
X95149400Y-63598800D01*
X94698700Y-60698700D02*
X94698700Y-63148100D01*
X94500000Y-60500000D02*
X94698700Y-60698700D01*
X124500000Y-50000000D02*
X122500000Y-50000000D01*
%TO.N,+3V3*%
X115472600Y-49146900D02*
X116440600Y-49146900D01*
X116440600Y-49146900D02*
X116500000Y-49087500D01*
X88562500Y-45000000D02*
X91542500Y-42020000D01*
X91542500Y-42020000D02*
X94000000Y-42020000D01*
X88087500Y-48000000D02*
X88087500Y-45475000D01*
X88087500Y-45475000D02*
X88562500Y-45000000D01*
X95500000Y-62587500D02*
X95500000Y-61280600D01*
X88562500Y-65386600D02*
X89199100Y-65386600D01*
X89199100Y-65386600D02*
X89250000Y-65437500D01*
X88562500Y-64750000D02*
X88562500Y-65386600D01*
X86913100Y-60838900D02*
X86701400Y-60838900D01*
X86701400Y-60838900D02*
X86000000Y-60137500D01*
X103268900Y-80875600D02*
X102205400Y-79812100D01*
X102205400Y-79812100D02*
X99754700Y-79812100D01*
X99754700Y-79812100D02*
X98135700Y-81431100D01*
X98135700Y-81431100D02*
X98135700Y-81991800D01*
X98135700Y-81991800D02*
X96802100Y-83325400D01*
X96802100Y-83325400D02*
X94663700Y-83325400D01*
X94663700Y-83325400D02*
X94524700Y-83186400D01*
X94524700Y-83186400D02*
X94524700Y-80365200D01*
X94524700Y-80365200D02*
X95216500Y-79673400D01*
X95216500Y-79673400D02*
X96324600Y-79673400D01*
X96324600Y-79673400D02*
X97749200Y-78248800D01*
X97749200Y-78248800D02*
X97749200Y-76854800D01*
X97749200Y-76854800D02*
X96396200Y-75501800D01*
X96396200Y-75501800D02*
X95659400Y-75501800D01*
X95659400Y-75501800D02*
X95252700Y-75095100D01*
X95252700Y-75095100D02*
X95252700Y-73206700D01*
X95252700Y-73206700D02*
X96753300Y-71706100D01*
X96753300Y-71706100D02*
X96753300Y-63703900D01*
X96753300Y-63703900D02*
X95636900Y-62587500D01*
X95636900Y-62587500D02*
X95500000Y-62587500D01*
X86480500Y-48543800D02*
X87543700Y-48543800D01*
X87543700Y-48543800D02*
X88087500Y-48000000D01*
X85862500Y-48000000D02*
X86406300Y-48543800D01*
X86406300Y-48543800D02*
X86480500Y-48543800D01*
X84724300Y-60137500D02*
X84724300Y-56533900D01*
X84724300Y-56533900D02*
X86480500Y-54777700D01*
X86480500Y-54777700D02*
X86480500Y-48543800D01*
X84724300Y-60137500D02*
X84425000Y-60137500D01*
X84425000Y-60137500D02*
X83000000Y-61562500D01*
X86000000Y-60137500D02*
X84724300Y-60137500D01*
X103268900Y-80875600D02*
X103268900Y-80881100D01*
X103268900Y-80881100D02*
X103000000Y-81150000D01*
X109500000Y-77562500D02*
X106582000Y-77562500D01*
X106582000Y-77562500D02*
X103268900Y-80875600D01*
X88562500Y-64750000D02*
X88562500Y-64250000D01*
%TO.N,/D-*%
X88562500Y-63750000D02*
X88058100Y-63750000D01*
X88058100Y-63750000D02*
X87800100Y-64008000D01*
X87800100Y-64008000D02*
X87800100Y-66225500D01*
X102280000Y-85046300D02*
X102280000Y-84854900D01*
X102280000Y-85996600D02*
X102280000Y-85046300D01*
%TO.N,/D+*%
X102930000Y-85996600D02*
X102930000Y-84578900D01*
X102930000Y-84578900D02*
X100973100Y-82622000D01*
X100973100Y-82622000D02*
X99692900Y-82622000D01*
X88562500Y-63250000D02*
X87853400Y-63250000D01*
X87853400Y-63250000D02*
X86905700Y-64197700D01*
X86905700Y-64197700D02*
X86905700Y-66154600D01*
%TO.N,/LED_RX*%
X88448600Y-68905600D02*
X87412500Y-69941700D01*
X87412500Y-69941700D02*
X87412500Y-70000000D01*
X92437500Y-64750000D02*
X92475900Y-64788400D01*
X92475900Y-64788400D02*
X92475900Y-65667300D01*
%TO.N,/LED_TX*%
X87412500Y-57000000D02*
X91227200Y-57000000D01*
X91227200Y-57000000D02*
X92394100Y-58166900D01*
X92394100Y-58166900D02*
X92394100Y-59577800D01*
X94050300Y-61234000D02*
X94050300Y-63120000D01*
X94050300Y-63120000D02*
X92920300Y-64250000D01*
X92920300Y-64250000D02*
X92437500Y-64250000D01*
%TO.N,/RTS*%
X91750000Y-61562500D02*
X92230900Y-61562500D01*
X92230900Y-61562500D02*
X96619000Y-57174400D01*
X96619000Y-57174400D02*
X109095500Y-57174400D01*
X109095500Y-57174400D02*
X115536000Y-63614900D01*
X115536000Y-63614900D02*
X115536000Y-67358400D01*
X115536000Y-67358400D02*
X116006700Y-67829100D01*
X116006700Y-67829100D02*
X117523400Y-67829100D01*
X117523400Y-67829100D02*
X118332500Y-67020000D01*
X122724700Y-66500000D02*
X122724700Y-67225300D01*
X122724700Y-67225300D02*
X122165000Y-67785000D01*
X122165000Y-67785000D02*
X119097500Y-67785000D01*
X119097500Y-67785000D02*
X118332500Y-67020000D01*
X123450000Y-66500000D02*
X122724700Y-66500000D01*
%TO.N,/MCU_TX*%
X110424700Y-44560000D02*
X109348500Y-45636200D01*
X109348500Y-45636200D02*
X109348500Y-48302800D01*
X109348500Y-48302800D02*
X103776200Y-53875100D01*
X103776200Y-53875100D02*
X99281400Y-53875100D01*
X99281400Y-53875100D02*
X92756200Y-60400300D01*
X92756200Y-60400300D02*
X91894400Y-60400300D01*
X91894400Y-60400300D02*
X91250000Y-61044700D01*
X91250000Y-61044700D02*
X91250000Y-61562500D01*
X112000000Y-44560000D02*
X110424700Y-44560000D01*
%TO.N,/MCU_RX*%
X112000000Y-45830000D02*
X110424700Y-45830000D01*
X110424700Y-45830000D02*
X110424700Y-47723900D01*
X88583400Y-58997600D02*
X89078400Y-59492600D01*
X89078400Y-59492600D02*
X89528300Y-59492600D01*
X89528300Y-59492600D02*
X90750000Y-60714300D01*
X90750000Y-60714300D02*
X90750000Y-61562500D01*
%TO.N,/DTR*%
X89750000Y-61562500D02*
X89750000Y-60628100D01*
X117464500Y-63532700D02*
X118132700Y-63532700D01*
X118132700Y-63532700D02*
X118145400Y-63520000D01*
X118145400Y-63520000D02*
X118145400Y-62144500D01*
X118145400Y-62144500D02*
X121099300Y-59190600D01*
X121099300Y-59190600D02*
X122603100Y-59190600D01*
X122603100Y-59190600D02*
X123412500Y-60000000D01*
X118370000Y-63520000D02*
X118145400Y-63520000D01*
%TO.N,Net-(D2-Pad1)*%
X91375000Y-58500000D02*
X90573400Y-57698400D01*
X90573400Y-57698400D02*
X88876600Y-57698400D01*
X88876600Y-57698400D02*
X88760800Y-57814200D01*
X88760800Y-57814200D02*
X86401700Y-57814200D01*
X86401700Y-57814200D02*
X85587500Y-57000000D01*
%TO.N,Net-(D3-Pad1)*%
X91375000Y-68500000D02*
X89980900Y-67105900D01*
X89980900Y-67105900D02*
X88485600Y-67105900D01*
X88485600Y-67105900D02*
X85591500Y-70000000D01*
X85591500Y-70000000D02*
X85587500Y-70000000D01*
%TO.N,/IO13*%
X104374700Y-63650000D02*
X101050000Y-60325300D01*
X101050000Y-60325300D02*
X98555000Y-60325300D01*
X105450000Y-63650000D02*
X104374700Y-63650000D01*
X98555000Y-58750000D02*
X98555000Y-60325300D01*
%TO.N,/EN*%
X94000000Y-43290000D02*
X92424700Y-43290000D01*
X89912500Y-48000000D02*
X89912500Y-45802200D01*
X89912500Y-45802200D02*
X92424700Y-43290000D01*
X88562500Y-51000000D02*
X89912500Y-49650000D01*
X89912500Y-49650000D02*
X89912500Y-48000000D01*
X94000000Y-43290000D02*
X95575300Y-43290000D01*
X122500000Y-62224700D02*
X122500000Y-62018200D01*
X122500000Y-63500000D02*
X122500000Y-62224700D01*
X95575300Y-43290000D02*
X95575300Y-47812900D01*
X95575300Y-47812900D02*
X100522700Y-52760300D01*
X100522700Y-52760300D02*
X103819000Y-52760300D01*
%TO.N,/IO0*%
X112000000Y-57260000D02*
X115260000Y-60520000D01*
X115260000Y-60520000D02*
X117420000Y-60520000D01*
%TO.N,/UART_RX*%
X116500000Y-50912500D02*
X117362800Y-50912500D01*
X117362800Y-50912500D02*
X120000000Y-48275300D01*
X113575300Y-54720000D02*
X113575300Y-53837200D01*
X113575300Y-53837200D02*
X116500000Y-50912500D01*
X120000000Y-47000000D02*
X120000000Y-48275300D01*
X112000000Y-54720000D02*
X113575300Y-54720000D01*
%TO.N,Net-(D4-Pad1)*%
X85437000Y-84962700D02*
X85437000Y-76975500D01*
X85437000Y-76975500D02*
X85500000Y-76912500D01*
%TO.N,Net-(Q2-Pad1)*%
X121587500Y-60000000D02*
X121550000Y-60037500D01*
X121550000Y-60037500D02*
X121550000Y-65224700D01*
X121550000Y-66500000D02*
X121550000Y-65224700D01*
%TO.N,/HAN_OUT*%
X121580000Y-74500000D02*
X124679500Y-71400500D01*
X124679500Y-71400500D02*
X124679500Y-53067000D01*
X124679500Y-53067000D02*
X123012500Y-51400000D01*
X123012500Y-51400000D02*
X123500000Y-50912500D01*
X121012500Y-51400000D02*
X123012500Y-51400000D01*
%TO.N,+5V*%
X116500000Y-74500000D02*
X117524300Y-74500000D01*
X117524300Y-74500000D02*
X124227700Y-67796600D01*
X124227700Y-67796600D02*
X124227700Y-56440200D01*
X124227700Y-56440200D02*
X119187500Y-51400000D01*
X109734000Y-82966000D02*
X110459300Y-82966000D01*
X117770000Y-77040000D02*
X116385300Y-77040000D01*
X116385300Y-77040000D02*
X110459300Y-82966000D01*
%TO.N,Net-(Q3-Pad1)*%
X116470000Y-63520000D02*
X116470000Y-64795300D01*
X116470000Y-64795300D02*
X116507500Y-64832800D01*
X116507500Y-64832800D02*
X116507500Y-67020000D01*
%TO.N,Net-(Q4-Pad1)*%
X123500000Y-49087500D02*
X121675300Y-47262800D01*
X121675300Y-47262800D02*
X121675300Y-44000000D01*
X120950000Y-44000000D02*
X121675300Y-44000000D01*
%TO.N,Net-(R2-Pad1)*%
X90250000Y-65437500D02*
X90250000Y-65900900D01*
X90250000Y-65900900D02*
X90641700Y-66292600D01*
X90641700Y-66292600D02*
X93619900Y-66292600D01*
X93619900Y-66292600D02*
X95500000Y-64412500D01*
%TO.N,VCC*%
X107835800Y-81150000D02*
X106375300Y-81150000D01*
X102137500Y-71925600D02*
X104753400Y-71925600D01*
X104753400Y-71925600D02*
X109211300Y-76383500D01*
X109211300Y-76383500D02*
X110259400Y-76383500D01*
X110259400Y-76383500D02*
X110735700Y-76859800D01*
X110735700Y-76859800D02*
X110735700Y-78250100D01*
X110735700Y-78250100D02*
X107835800Y-81150000D01*
X107835800Y-81150000D02*
X107835800Y-83117800D01*
X107835800Y-83117800D02*
X109958700Y-85240700D01*
X109958700Y-85240700D02*
X109958700Y-85966000D01*
X110684000Y-85966000D02*
X109958700Y-85966000D01*
X98092000Y-75971100D02*
X96558400Y-74437500D01*
X96558400Y-74437500D02*
X96500000Y-74437500D01*
X96975300Y-81750000D02*
X98199500Y-80525800D01*
X98199500Y-80525800D02*
X98199500Y-76078600D01*
X98199500Y-76078600D02*
X98092000Y-75971100D01*
X98092000Y-75971100D02*
X102137500Y-71925600D01*
X102137500Y-71925600D02*
X102137500Y-70500000D01*
X105300000Y-81150000D02*
X106375300Y-81150000D01*
X101625300Y-63650000D02*
X102137500Y-64162200D01*
X102137500Y-64162200D02*
X102137500Y-70500000D01*
X95750000Y-81750000D02*
X96975300Y-81750000D01*
X100550000Y-63650000D02*
X101625300Y-63650000D01*
%TO.N,Net-(D2-Pad2)*%
X89625000Y-58500000D02*
X90524700Y-59399700D01*
X90524700Y-59399700D02*
X90524700Y-59575400D01*
X88736800Y-67756000D02*
X88881000Y-67756000D01*
X88881000Y-67756000D02*
X89625000Y-68500000D01*
X88904600Y-85482900D02*
X87707200Y-85482900D01*
X87707200Y-85482900D02*
X87187000Y-84962700D01*
X89625000Y-68500000D02*
X89708300Y-68583300D01*
X89708300Y-68583300D02*
X89708300Y-84679200D01*
X89708300Y-84679200D02*
X88904600Y-85482900D01*
X88904600Y-85482900D02*
X88904600Y-85669800D01*
%TO.N,Net-(D5-Pad1)*%
X88904600Y-83919800D02*
X88904600Y-78317100D01*
X88904600Y-78317100D02*
X87500000Y-76912500D01*
%TD*%
D26*
%TO.N,GND*%
X92863767Y-39710624D02*
X92667455Y-39796191D01*
X92491609Y-39918413D01*
X92342986Y-40072592D01*
X92227298Y-40252803D01*
X92155592Y-40455999D01*
X92282498Y-40623000D01*
X93873000Y-40623000D01*
X93873000Y-40603000D01*
X94127000Y-40603000D01*
X94127000Y-40623000D01*
X95717502Y-40623000D01*
X95844408Y-40455999D01*
X95772702Y-40252803D01*
X95657014Y-40072592D01*
X95508391Y-39918413D01*
X95332545Y-39796191D01*
X95136233Y-39710624D01*
X95133371Y-39710000D01*
X110866629Y-39710000D01*
X110863767Y-39710624D01*
X110667455Y-39796191D01*
X110491609Y-39918413D01*
X110342986Y-40072592D01*
X110227298Y-40252803D01*
X110155592Y-40455999D01*
X110282498Y-40623000D01*
X111873000Y-40623000D01*
X111873000Y-40603000D01*
X112127000Y-40603000D01*
X112127000Y-40623000D01*
X113717502Y-40623000D01*
X113844408Y-40455999D01*
X113772702Y-40252803D01*
X113657014Y-40072592D01*
X113508391Y-39918413D01*
X113332545Y-39796191D01*
X113136233Y-39710624D01*
X113133371Y-39710000D01*
X126290001Y-39710000D01*
X126290000Y-81733878D01*
X126190666Y-81634544D01*
X125820511Y-81387214D01*
X125409218Y-81216851D01*
X124972591Y-81130000D01*
X124527409Y-81130000D01*
X124090782Y-81216851D01*
X123679489Y-81387214D01*
X123309334Y-81634544D01*
X122994544Y-81949334D01*
X122747214Y-82319489D01*
X122576851Y-82730782D01*
X122490000Y-83167409D01*
X122490000Y-83612591D01*
X122576851Y-84049218D01*
X122747214Y-84460511D01*
X122994544Y-84830666D01*
X123309334Y-85145456D01*
X123679489Y-85392786D01*
X124090782Y-85563149D01*
X124527409Y-85650000D01*
X124972591Y-85650000D01*
X125409218Y-85563149D01*
X125820511Y-85392786D01*
X126190666Y-85145456D01*
X126290000Y-85046122D01*
X126290000Y-90790000D01*
X79710000Y-90790000D01*
X79710000Y-74600000D01*
X84386928Y-74600000D01*
X84390000Y-74801750D01*
X84548750Y-74960500D01*
X85373000Y-74960500D01*
X85373000Y-74123750D01*
X85627000Y-74123750D01*
X85627000Y-74960500D01*
X86451250Y-74960500D01*
X86500000Y-74911750D01*
X86548750Y-74960500D01*
X87373000Y-74960500D01*
X87373000Y-74123750D01*
X87627000Y-74123750D01*
X87627000Y-74960500D01*
X88451250Y-74960500D01*
X88610000Y-74801750D01*
X88613072Y-74600000D01*
X88600812Y-74475518D01*
X88564502Y-74355820D01*
X88505537Y-74245506D01*
X88426185Y-74148815D01*
X88329494Y-74069463D01*
X88219180Y-74010498D01*
X88099482Y-73974188D01*
X87975000Y-73961928D01*
X87785750Y-73965000D01*
X87627000Y-74123750D01*
X87373000Y-74123750D01*
X87214250Y-73965000D01*
X87025000Y-73961928D01*
X86900518Y-73974188D01*
X86780820Y-74010498D01*
X86670506Y-74069463D01*
X86573815Y-74148815D01*
X86500000Y-74238759D01*
X86426185Y-74148815D01*
X86329494Y-74069463D01*
X86219180Y-74010498D01*
X86099482Y-73974188D01*
X85975000Y-73961928D01*
X85785750Y-73965000D01*
X85627000Y-74123750D01*
X85373000Y-74123750D01*
X85214250Y-73965000D01*
X85025000Y-73961928D01*
X84900518Y-73974188D01*
X84780820Y-74010498D01*
X84670506Y-74069463D01*
X84573815Y-74148815D01*
X84494463Y-74245506D01*
X84435498Y-74355820D01*
X84399188Y-74475518D01*
X84386928Y-74600000D01*
X79710000Y-74600000D01*
X79710000Y-66100000D01*
X81461928Y-66100000D01*
X81474188Y-66224482D01*
X81510498Y-66344180D01*
X81569463Y-66454494D01*
X81648815Y-66551185D01*
X81745506Y-66630537D01*
X81855820Y-66689502D01*
X81975518Y-66725812D01*
X82100000Y-66738072D01*
X82714250Y-66735000D01*
X82873000Y-66576250D01*
X82873000Y-65564500D01*
X83127000Y-65564500D01*
X83127000Y-66576250D01*
X83285750Y-66735000D01*
X83900000Y-66738072D01*
X84024482Y-66725812D01*
X84144180Y-66689502D01*
X84254494Y-66630537D01*
X84351185Y-66551185D01*
X84430537Y-66454494D01*
X84489502Y-66344180D01*
X84525812Y-66224482D01*
X84538072Y-66100000D01*
X84535000Y-65723250D01*
X84376250Y-65564500D01*
X83127000Y-65564500D01*
X82873000Y-65564500D01*
X81623750Y-65564500D01*
X81465000Y-65723250D01*
X81461928Y-66100000D01*
X79710000Y-66100000D01*
X79710000Y-64775000D01*
X81461928Y-64775000D01*
X81465000Y-65151750D01*
X81623750Y-65310500D01*
X82873000Y-65310500D01*
X82873000Y-64298750D01*
X83127000Y-64298750D01*
X83127000Y-65310500D01*
X84376250Y-65310500D01*
X84535000Y-65151750D01*
X84538072Y-64775000D01*
X84525812Y-64650518D01*
X84510488Y-64600000D01*
X84886928Y-64600000D01*
X84890000Y-64851750D01*
X85048750Y-65010500D01*
X85873000Y-65010500D01*
X85873000Y-64123750D01*
X85714250Y-63965000D01*
X85525000Y-63961928D01*
X85400518Y-63974188D01*
X85280820Y-64010498D01*
X85170506Y-64069463D01*
X85073815Y-64148815D01*
X84994463Y-64245506D01*
X84935498Y-64355820D01*
X84899188Y-64475518D01*
X84886928Y-64600000D01*
X84510488Y-64600000D01*
X84489502Y-64530820D01*
X84430537Y-64420506D01*
X84351185Y-64323815D01*
X84254494Y-64244463D01*
X84144180Y-64185498D01*
X84024482Y-64149188D01*
X83900000Y-64136928D01*
X83285750Y-64140000D01*
X83127000Y-64298750D01*
X82873000Y-64298750D01*
X82714250Y-64140000D01*
X82100000Y-64136928D01*
X81975518Y-64149188D01*
X81855820Y-64185498D01*
X81745506Y-64244463D01*
X81648815Y-64323815D01*
X81569463Y-64420506D01*
X81510498Y-64530820D01*
X81474188Y-64650518D01*
X81461928Y-64775000D01*
X79710000Y-64775000D01*
X79710000Y-61149997D01*
X81461928Y-61149997D01*
X81461928Y-61975003D01*
X81478992Y-62148257D01*
X81529528Y-62314852D01*
X81611595Y-62468388D01*
X81722037Y-62602963D01*
X81856612Y-62713405D01*
X82010148Y-62795472D01*
X82176743Y-62846008D01*
X82349997Y-62863072D01*
X83650003Y-62863072D01*
X83823257Y-62846008D01*
X83989852Y-62795472D01*
X84143388Y-62713405D01*
X84277963Y-62602963D01*
X84388405Y-62468388D01*
X84424959Y-62400000D01*
X84886928Y-62400000D01*
X84899188Y-62524482D01*
X84935498Y-62644180D01*
X84994463Y-62754494D01*
X85073815Y-62851185D01*
X85170506Y-62930537D01*
X85280820Y-62989502D01*
X85400518Y-63025812D01*
X85525000Y-63038072D01*
X85714250Y-63035000D01*
X85873000Y-62876250D01*
X85873000Y-61989500D01*
X86127000Y-61989500D01*
X86127000Y-62876250D01*
X86285750Y-63035000D01*
X86475000Y-63038072D01*
X86599482Y-63025812D01*
X86719180Y-62989502D01*
X86829494Y-62930537D01*
X86926185Y-62851185D01*
X87005537Y-62754494D01*
X87064502Y-62644180D01*
X87100812Y-62524482D01*
X87113072Y-62400000D01*
X87110000Y-62148250D01*
X86951250Y-61989500D01*
X86127000Y-61989500D01*
X85873000Y-61989500D01*
X85048750Y-61989500D01*
X84890000Y-62148250D01*
X84886928Y-62400000D01*
X84424959Y-62400000D01*
X84470472Y-62314852D01*
X84521008Y-62148257D01*
X84538072Y-61975003D01*
X84538072Y-61149997D01*
X84533520Y-61103782D01*
X84737417Y-60899885D01*
X84761633Y-60897500D01*
X85020355Y-60897500D01*
X85033774Y-60922606D01*
X84994463Y-60970506D01*
X84935498Y-61080820D01*
X84899188Y-61200518D01*
X84886928Y-61325000D01*
X84890000Y-61576750D01*
X85048750Y-61735500D01*
X85873000Y-61735500D01*
X85873000Y-61715500D01*
X86127000Y-61715500D01*
X86127000Y-61735500D01*
X86634413Y-61735500D01*
X86640371Y-61737968D01*
X86821011Y-61773900D01*
X87005189Y-61773900D01*
X87185829Y-61737968D01*
X87355989Y-61667486D01*
X87509128Y-61565162D01*
X87639362Y-61434928D01*
X87741686Y-61281789D01*
X87812168Y-61111629D01*
X87848100Y-60930989D01*
X87848100Y-60746811D01*
X87812168Y-60566171D01*
X87741686Y-60396011D01*
X87639362Y-60242872D01*
X87509128Y-60112638D01*
X87355989Y-60010314D01*
X87185829Y-59939832D01*
X87113072Y-59925360D01*
X87113072Y-59837500D01*
X87096248Y-59666684D01*
X87046423Y-59502433D01*
X86965512Y-59351058D01*
X86856623Y-59218377D01*
X86723942Y-59109488D01*
X86572567Y-59028577D01*
X86408316Y-58978752D01*
X86237500Y-58961928D01*
X85762500Y-58961928D01*
X85591684Y-58978752D01*
X85484300Y-59011327D01*
X85484300Y-58113072D01*
X85625770Y-58113072D01*
X85837901Y-58325202D01*
X85861699Y-58354201D01*
X85977424Y-58449174D01*
X86109453Y-58519746D01*
X86252714Y-58563203D01*
X86364367Y-58574200D01*
X86364375Y-58574200D01*
X86401700Y-58577876D01*
X86439025Y-58574200D01*
X87746741Y-58574200D01*
X87684332Y-58724871D01*
X87648400Y-58905511D01*
X87648400Y-59089689D01*
X87684332Y-59270329D01*
X87754814Y-59440489D01*
X87857138Y-59593628D01*
X87987372Y-59723862D01*
X88140511Y-59826186D01*
X88310671Y-59896668D01*
X88431752Y-59920753D01*
X88514596Y-60003597D01*
X88538399Y-60032601D01*
X88654124Y-60127574D01*
X88786153Y-60198146D01*
X88901556Y-60233153D01*
X88850932Y-60355371D01*
X88815000Y-60536011D01*
X88815000Y-60621061D01*
X88798283Y-60629996D01*
X88692121Y-60717121D01*
X88604996Y-60823283D01*
X88540256Y-60944403D01*
X88500389Y-61075825D01*
X88486928Y-61212500D01*
X88486928Y-61486928D01*
X88212500Y-61486928D01*
X88075825Y-61500389D01*
X87944403Y-61540256D01*
X87823283Y-61604996D01*
X87717121Y-61692121D01*
X87629996Y-61798283D01*
X87565256Y-61919403D01*
X87525389Y-62050825D01*
X87511928Y-62187500D01*
X87511928Y-62312500D01*
X87525389Y-62449175D01*
X87532098Y-62471290D01*
X87527232Y-62486089D01*
X87517744Y-62567657D01*
X87429124Y-62615026D01*
X87313399Y-62709999D01*
X87289601Y-62738997D01*
X86394702Y-63633896D01*
X86365699Y-63657699D01*
X86337450Y-63692121D01*
X86270726Y-63773424D01*
X86219638Y-63869003D01*
X86200154Y-63905454D01*
X86156697Y-64048715D01*
X86151744Y-64099006D01*
X86127000Y-64123750D01*
X86127000Y-65010500D01*
X86145700Y-65010500D01*
X86145701Y-65264500D01*
X86127000Y-65264500D01*
X86127000Y-65284500D01*
X85873000Y-65284500D01*
X85873000Y-65264500D01*
X85048750Y-65264500D01*
X84890000Y-65423250D01*
X84886928Y-65675000D01*
X84899188Y-65799482D01*
X84935498Y-65919180D01*
X84994463Y-66029494D01*
X85033774Y-66077394D01*
X84953577Y-66227433D01*
X84903752Y-66391684D01*
X84886928Y-66562500D01*
X84886928Y-66900770D01*
X84271207Y-67516492D01*
X84143388Y-67411595D01*
X83989852Y-67329528D01*
X83823257Y-67278992D01*
X83650003Y-67261928D01*
X82349997Y-67261928D01*
X82176743Y-67278992D01*
X82010148Y-67329528D01*
X81856612Y-67411595D01*
X81722037Y-67522037D01*
X81611595Y-67656612D01*
X81529528Y-67810148D01*
X81478992Y-67976743D01*
X81461928Y-68149997D01*
X81461928Y-68975003D01*
X81478992Y-69148257D01*
X81529528Y-69314852D01*
X81611595Y-69468388D01*
X81722037Y-69602963D01*
X81856612Y-69713405D01*
X82010148Y-69795472D01*
X82176743Y-69846008D01*
X82349997Y-69863072D01*
X83650003Y-69863072D01*
X83823257Y-69846008D01*
X83989852Y-69795472D01*
X84143388Y-69713405D01*
X84277963Y-69602963D01*
X84388405Y-69468388D01*
X84470472Y-69314852D01*
X84473768Y-69303985D01*
X84592247Y-69268046D01*
X84634675Y-69245367D01*
X84609488Y-69276058D01*
X84528577Y-69427433D01*
X84478752Y-69591684D01*
X84461928Y-69762500D01*
X84461928Y-70237500D01*
X84478752Y-70408316D01*
X84528577Y-70572567D01*
X84609488Y-70723942D01*
X84718377Y-70856623D01*
X84851058Y-70965512D01*
X85002433Y-71046423D01*
X85166684Y-71096248D01*
X85337500Y-71113072D01*
X85837500Y-71113072D01*
X86008316Y-71096248D01*
X86172567Y-71046423D01*
X86323942Y-70965512D01*
X86456623Y-70856623D01*
X86500000Y-70803768D01*
X86543377Y-70856623D01*
X86676058Y-70965512D01*
X86827433Y-71046423D01*
X86991684Y-71096248D01*
X87162500Y-71113072D01*
X87662500Y-71113072D01*
X87833316Y-71096248D01*
X87997567Y-71046423D01*
X88148942Y-70965512D01*
X88281623Y-70856623D01*
X88390512Y-70723942D01*
X88471423Y-70572567D01*
X88521248Y-70408316D01*
X88538072Y-70237500D01*
X88538072Y-69890930D01*
X88600249Y-69828753D01*
X88721329Y-69804668D01*
X88891489Y-69734186D01*
X88948300Y-69696226D01*
X88948301Y-77285999D01*
X88613072Y-76950771D01*
X88613072Y-76662500D01*
X88596248Y-76491684D01*
X88546423Y-76327433D01*
X88465512Y-76176058D01*
X88376188Y-76067217D01*
X88426185Y-76026185D01*
X88505537Y-75929494D01*
X88564502Y-75819180D01*
X88600812Y-75699482D01*
X88613072Y-75575000D01*
X88610000Y-75373250D01*
X88451250Y-75214500D01*
X87627000Y-75214500D01*
X87627000Y-75234500D01*
X87373000Y-75234500D01*
X87373000Y-75214500D01*
X86548750Y-75214500D01*
X86500000Y-75263250D01*
X86451250Y-75214500D01*
X85627000Y-75214500D01*
X85627000Y-75234500D01*
X85373000Y-75234500D01*
X85373000Y-75214500D01*
X84548750Y-75214500D01*
X84390000Y-75373250D01*
X84386928Y-75575000D01*
X84399188Y-75699482D01*
X84435498Y-75819180D01*
X84494463Y-75929494D01*
X84573815Y-76026185D01*
X84623812Y-76067217D01*
X84534488Y-76176058D01*
X84453577Y-76327433D01*
X84403752Y-76491684D01*
X84386928Y-76662500D01*
X84386928Y-77162500D01*
X84403752Y-77333316D01*
X84453577Y-77497567D01*
X84534488Y-77648942D01*
X84643377Y-77781623D01*
X84677001Y-77809218D01*
X84677000Y-83989736D01*
X84663058Y-83997188D01*
X84530377Y-84106077D01*
X84421488Y-84238758D01*
X84340577Y-84390133D01*
X84290752Y-84554384D01*
X84273928Y-84725200D01*
X84273928Y-85200200D01*
X84290752Y-85371016D01*
X84340577Y-85535267D01*
X84421488Y-85686642D01*
X84530377Y-85819323D01*
X84663058Y-85928212D01*
X84814433Y-86009123D01*
X84978684Y-86058948D01*
X85149500Y-86075772D01*
X85724500Y-86075772D01*
X85895316Y-86058948D01*
X86059567Y-86009123D01*
X86210942Y-85928212D01*
X86312000Y-85845275D01*
X86413058Y-85928212D01*
X86564433Y-86009123D01*
X86728684Y-86058948D01*
X86899500Y-86075772D01*
X87231622Y-86075772D01*
X87282923Y-86117874D01*
X87388443Y-86174276D01*
X87414953Y-86188446D01*
X87558214Y-86231903D01*
X87669867Y-86242900D01*
X87669877Y-86242900D01*
X87707200Y-86246576D01*
X87744523Y-86242900D01*
X87843171Y-86242900D01*
X87858177Y-86292367D01*
X87939088Y-86443742D01*
X88047977Y-86576423D01*
X88180658Y-86685312D01*
X88332033Y-86766223D01*
X88496284Y-86816048D01*
X88667100Y-86832872D01*
X89142100Y-86832872D01*
X89312916Y-86816048D01*
X89477167Y-86766223D01*
X89628542Y-86685312D01*
X89761223Y-86576423D01*
X89870112Y-86443742D01*
X89951023Y-86292367D01*
X90000848Y-86128116D01*
X90017672Y-85957300D01*
X90017672Y-85444630D01*
X90219308Y-85242995D01*
X90248301Y-85219201D01*
X90272095Y-85190208D01*
X90272099Y-85190204D01*
X90343273Y-85103477D01*
X90349560Y-85091715D01*
X90413846Y-84971447D01*
X90457303Y-84828186D01*
X90468300Y-84716533D01*
X90468300Y-84716524D01*
X90471976Y-84679201D01*
X90468300Y-84641878D01*
X90468300Y-69408591D01*
X90500000Y-69382575D01*
X90601058Y-69465512D01*
X90752433Y-69546423D01*
X90916684Y-69596248D01*
X91087500Y-69613072D01*
X91662500Y-69613072D01*
X91662800Y-69613042D01*
X91662801Y-76411968D01*
X91659124Y-76449300D01*
X91662801Y-76486633D01*
X91673798Y-76598286D01*
X91680462Y-76620254D01*
X91717254Y-76741546D01*
X91787826Y-76873576D01*
X91857320Y-76958254D01*
X91882800Y-76989301D01*
X91911798Y-77013099D01*
X92110928Y-77212229D01*
X92110928Y-77500500D01*
X92127752Y-77671316D01*
X92177577Y-77835567D01*
X92258488Y-77986942D01*
X92367377Y-78119623D01*
X92464000Y-78198920D01*
X92464001Y-84411968D01*
X92460324Y-84449300D01*
X92464001Y-84486633D01*
X92474998Y-84598286D01*
X92488180Y-84641742D01*
X92518454Y-84741546D01*
X92589026Y-84873576D01*
X92660201Y-84960302D01*
X92684000Y-84989301D01*
X92712998Y-85013099D01*
X93960900Y-86261002D01*
X93984699Y-86290001D01*
X94013697Y-86313799D01*
X94100424Y-86384974D01*
X94211928Y-86444575D01*
X94211928Y-87000000D01*
X94224188Y-87124482D01*
X94260498Y-87244180D01*
X94319463Y-87354494D01*
X94398815Y-87451185D01*
X94495506Y-87530537D01*
X94605820Y-87589502D01*
X94725518Y-87625812D01*
X94850000Y-87638072D01*
X96650000Y-87638072D01*
X96774482Y-87625812D01*
X96894180Y-87589502D01*
X97004494Y-87530537D01*
X97101185Y-87451185D01*
X97180537Y-87354494D01*
X97239502Y-87244180D01*
X97275618Y-87125120D01*
X97608401Y-87457903D01*
X97632199Y-87486901D01*
X97747924Y-87581874D01*
X97879953Y-87652446D01*
X98023214Y-87695903D01*
X98134867Y-87706900D01*
X98134876Y-87706900D01*
X98172199Y-87710576D01*
X98209522Y-87706900D01*
X98395883Y-87706900D01*
X98339942Y-87775065D01*
X98229906Y-87980927D01*
X98162147Y-88204301D01*
X98145000Y-88378394D01*
X98145000Y-89194807D01*
X98162147Y-89368900D01*
X98229906Y-89592274D01*
X98339943Y-89798136D01*
X98488026Y-89978575D01*
X98668465Y-90126658D01*
X98874327Y-90236694D01*
X99097701Y-90304453D01*
X99330000Y-90327333D01*
X99562300Y-90304453D01*
X99785674Y-90236694D01*
X99991536Y-90126658D01*
X100171975Y-89978575D01*
X100320058Y-89798136D01*
X100430094Y-89592274D01*
X100497853Y-89368899D01*
X100515000Y-89194806D01*
X100515000Y-88378393D01*
X100497853Y-88204300D01*
X100430094Y-87980926D01*
X100320058Y-87775064D01*
X100264117Y-87706900D01*
X101592667Y-87706900D01*
X101630000Y-87710577D01*
X101667333Y-87706900D01*
X105595883Y-87706900D01*
X105539942Y-87775065D01*
X105429906Y-87980927D01*
X105362147Y-88204301D01*
X105345000Y-88378394D01*
X105345000Y-89194807D01*
X105362147Y-89368900D01*
X105429906Y-89592274D01*
X105539943Y-89798136D01*
X105688026Y-89978575D01*
X105868465Y-90126658D01*
X106074327Y-90236694D01*
X106297701Y-90304453D01*
X106530000Y-90327333D01*
X106762300Y-90304453D01*
X106985674Y-90236694D01*
X107191536Y-90126658D01*
X107371975Y-89978575D01*
X107520058Y-89798136D01*
X107630094Y-89592274D01*
X107697853Y-89368899D01*
X107715000Y-89194806D01*
X107715000Y-88378393D01*
X107697853Y-88204300D01*
X107630094Y-87980926D01*
X107520058Y-87775064D01*
X107404371Y-87634099D01*
X107502076Y-87581874D01*
X107617801Y-87486901D01*
X107641604Y-87457898D01*
X107844944Y-87254557D01*
X107853463Y-87270494D01*
X107932815Y-87367185D01*
X108029506Y-87446537D01*
X108139820Y-87505502D01*
X108259518Y-87541812D01*
X108384000Y-87554072D01*
X109184000Y-87554072D01*
X109308482Y-87541812D01*
X109428180Y-87505502D01*
X109538494Y-87446537D01*
X109635185Y-87367185D01*
X109714537Y-87270494D01*
X109734000Y-87234082D01*
X109753463Y-87270494D01*
X109832815Y-87367185D01*
X109929506Y-87446537D01*
X110039820Y-87505502D01*
X110159518Y-87541812D01*
X110284000Y-87554072D01*
X111084000Y-87554072D01*
X111208482Y-87541812D01*
X111328180Y-87505502D01*
X111438494Y-87446537D01*
X111535185Y-87367185D01*
X111614537Y-87270494D01*
X111673502Y-87160180D01*
X111709812Y-87040482D01*
X111722072Y-86916000D01*
X111722072Y-85016000D01*
X111709812Y-84891518D01*
X111673502Y-84771820D01*
X111614537Y-84661506D01*
X111535185Y-84564815D01*
X111438494Y-84485463D01*
X111328180Y-84426498D01*
X111208482Y-84390188D01*
X111084000Y-84377928D01*
X110572095Y-84377928D01*
X110585185Y-84367185D01*
X110664537Y-84270494D01*
X110723502Y-84160180D01*
X110759812Y-84040482D01*
X110772072Y-83916000D01*
X110772072Y-83660575D01*
X110883576Y-83600974D01*
X110999301Y-83506001D01*
X111023104Y-83476997D01*
X111332692Y-83167409D01*
X112330000Y-83167409D01*
X112330000Y-83612591D01*
X112416851Y-84049218D01*
X112587214Y-84460511D01*
X112834544Y-84830666D01*
X113149334Y-85145456D01*
X113519489Y-85392786D01*
X113930782Y-85563149D01*
X114367409Y-85650000D01*
X114812591Y-85650000D01*
X115249218Y-85563149D01*
X115660511Y-85392786D01*
X116030666Y-85145456D01*
X116345456Y-84830666D01*
X116592786Y-84460511D01*
X116763149Y-84049218D01*
X116850000Y-83612591D01*
X116850000Y-83167409D01*
X116763149Y-82730782D01*
X116592786Y-82319489D01*
X116345456Y-81949334D01*
X116030666Y-81634544D01*
X115660511Y-81387214D01*
X115249218Y-81216851D01*
X114812591Y-81130000D01*
X114367409Y-81130000D01*
X113930782Y-81216851D01*
X113519489Y-81387214D01*
X113149334Y-81634544D01*
X112834544Y-81949334D01*
X112587214Y-82319489D01*
X112416851Y-82730782D01*
X112330000Y-83167409D01*
X111332692Y-83167409D01*
X116684111Y-77815991D01*
X116733814Y-77890376D01*
X116919624Y-78076186D01*
X117138114Y-78222176D01*
X117380886Y-78322735D01*
X117638612Y-78374000D01*
X117901388Y-78374000D01*
X118159114Y-78322735D01*
X118401886Y-78222176D01*
X118620376Y-78076186D01*
X118806186Y-77890376D01*
X118952176Y-77671886D01*
X119040000Y-77459859D01*
X119127824Y-77671886D01*
X119273814Y-77890376D01*
X119459624Y-78076186D01*
X119678114Y-78222176D01*
X119920886Y-78322735D01*
X120178612Y-78374000D01*
X120441388Y-78374000D01*
X120699114Y-78322735D01*
X120941886Y-78222176D01*
X121160376Y-78076186D01*
X121276007Y-77960555D01*
X122109050Y-77960555D01*
X122168389Y-78194221D01*
X122406664Y-78305018D01*
X122661975Y-78367202D01*
X122924512Y-78378382D01*
X123184186Y-78338129D01*
X123431017Y-78247990D01*
X123531611Y-78194221D01*
X123590950Y-77960555D01*
X122850000Y-77219605D01*
X122109050Y-77960555D01*
X121276007Y-77960555D01*
X121346186Y-77890376D01*
X121492176Y-77671886D01*
X121581678Y-77455808D01*
X121642010Y-77621017D01*
X121695779Y-77721611D01*
X121929445Y-77780950D01*
X122670395Y-77040000D01*
X123029605Y-77040000D01*
X123770555Y-77780950D01*
X124004221Y-77721611D01*
X124115018Y-77483336D01*
X124177202Y-77228025D01*
X124188382Y-76965488D01*
X124148129Y-76705814D01*
X124057990Y-76458983D01*
X124004221Y-76358389D01*
X123770555Y-76299050D01*
X123029605Y-77040000D01*
X122670395Y-77040000D01*
X121929445Y-76299050D01*
X121695779Y-76358389D01*
X121584982Y-76596664D01*
X121579536Y-76619022D01*
X121492176Y-76408114D01*
X121346186Y-76189624D01*
X121276007Y-76119445D01*
X122109050Y-76119445D01*
X122850000Y-76860395D01*
X123590950Y-76119445D01*
X123531611Y-75885779D01*
X123293336Y-75774982D01*
X123038025Y-75712798D01*
X122775488Y-75701618D01*
X122515814Y-75741871D01*
X122268983Y-75832010D01*
X122168389Y-75885779D01*
X122109050Y-76119445D01*
X121276007Y-76119445D01*
X121160376Y-76003814D01*
X120941886Y-75857824D01*
X120699114Y-75757265D01*
X120441388Y-75706000D01*
X120178612Y-75706000D01*
X119920886Y-75757265D01*
X119678114Y-75857824D01*
X119459624Y-76003814D01*
X119273814Y-76189624D01*
X119127824Y-76408114D01*
X119040000Y-76620141D01*
X118952176Y-76408114D01*
X118806186Y-76189624D01*
X118620376Y-76003814D01*
X118401886Y-75857824D01*
X118159114Y-75757265D01*
X117901388Y-75706000D01*
X117638612Y-75706000D01*
X117564119Y-75720818D01*
X117650185Y-75650185D01*
X117729537Y-75553494D01*
X117788502Y-75443180D01*
X117795365Y-75420555D01*
X118299050Y-75420555D01*
X118358389Y-75654221D01*
X118596664Y-75765018D01*
X118851975Y-75827202D01*
X119114512Y-75838382D01*
X119374186Y-75798129D01*
X119621017Y-75707990D01*
X119721611Y-75654221D01*
X119780950Y-75420555D01*
X119040000Y-74679605D01*
X118299050Y-75420555D01*
X117795365Y-75420555D01*
X117824812Y-75323482D01*
X117837072Y-75199000D01*
X117837072Y-75194575D01*
X117880345Y-75171445D01*
X117885779Y-75181611D01*
X118119445Y-75240950D01*
X118860395Y-74500000D01*
X118846253Y-74485858D01*
X119025858Y-74306253D01*
X119040000Y-74320395D01*
X119780950Y-73579445D01*
X119728033Y-73371068D01*
X123919500Y-69179602D01*
X123919500Y-71085698D01*
X121817994Y-73187205D01*
X121711388Y-73166000D01*
X121448612Y-73166000D01*
X121190886Y-73217265D01*
X120948114Y-73317824D01*
X120729624Y-73463814D01*
X120543814Y-73649624D01*
X120397824Y-73868114D01*
X120308322Y-74084192D01*
X120247990Y-73918983D01*
X120194221Y-73818389D01*
X119960555Y-73759050D01*
X119219605Y-74500000D01*
X119960555Y-75240950D01*
X120194221Y-75181611D01*
X120305018Y-74943336D01*
X120310464Y-74920978D01*
X120397824Y-75131886D01*
X120543814Y-75350376D01*
X120729624Y-75536186D01*
X120948114Y-75682176D01*
X121190886Y-75782735D01*
X121448612Y-75834000D01*
X121711388Y-75834000D01*
X121969114Y-75782735D01*
X122211886Y-75682176D01*
X122430376Y-75536186D01*
X122616186Y-75350376D01*
X122762176Y-75131886D01*
X122862735Y-74889114D01*
X122914000Y-74631388D01*
X122914000Y-74368612D01*
X122892795Y-74262006D01*
X125190504Y-71964298D01*
X125219501Y-71940501D01*
X125245832Y-71908417D01*
X125314474Y-71824777D01*
X125385046Y-71692747D01*
X125403062Y-71633354D01*
X125428503Y-71549486D01*
X125439500Y-71437833D01*
X125439500Y-71437823D01*
X125443176Y-71400500D01*
X125439500Y-71363177D01*
X125439500Y-53104322D01*
X125443176Y-53066999D01*
X125439500Y-53029677D01*
X125439500Y-53029667D01*
X125428503Y-52918014D01*
X125385046Y-52774753D01*
X125333906Y-52679078D01*
X125314474Y-52642723D01*
X125243299Y-52555997D01*
X125219501Y-52526999D01*
X125190503Y-52503201D01*
X124407244Y-51719942D01*
X124465512Y-51648942D01*
X124546423Y-51497567D01*
X124596248Y-51333316D01*
X124613072Y-51162500D01*
X124613072Y-50662500D01*
X124596248Y-50491684D01*
X124546423Y-50327433D01*
X124465512Y-50176058D01*
X124356623Y-50043377D01*
X124303768Y-50000000D01*
X124356623Y-49956623D01*
X124465512Y-49823942D01*
X124546423Y-49672567D01*
X124596248Y-49508316D01*
X124613072Y-49337500D01*
X124613072Y-48837500D01*
X124596248Y-48666684D01*
X124546423Y-48502433D01*
X124465512Y-48351058D01*
X124356623Y-48218377D01*
X124223942Y-48109488D01*
X124072567Y-48028577D01*
X123908316Y-47978752D01*
X123737500Y-47961928D01*
X123449230Y-47961928D01*
X122435300Y-46947999D01*
X122435300Y-44037333D01*
X122438977Y-44000000D01*
X122424303Y-43851014D01*
X122380846Y-43707753D01*
X122310274Y-43575724D01*
X122215301Y-43459999D01*
X122099576Y-43365026D01*
X121988072Y-43305425D01*
X121988072Y-43050000D01*
X121975812Y-42925518D01*
X121939502Y-42805820D01*
X121880537Y-42695506D01*
X121801185Y-42598815D01*
X121704494Y-42519463D01*
X121594180Y-42460498D01*
X121474482Y-42424188D01*
X121350000Y-42411928D01*
X120550000Y-42411928D01*
X120425518Y-42424188D01*
X120305820Y-42460498D01*
X120195506Y-42519463D01*
X120098815Y-42598815D01*
X120019463Y-42695506D01*
X120000000Y-42731918D01*
X119980537Y-42695506D01*
X119901185Y-42598815D01*
X119804494Y-42519463D01*
X119694180Y-42460498D01*
X119574482Y-42424188D01*
X119450000Y-42411928D01*
X119335750Y-42415000D01*
X119177000Y-42573750D01*
X119177000Y-43873000D01*
X119197000Y-43873000D01*
X119197000Y-44127000D01*
X119177000Y-44127000D01*
X119177000Y-45426250D01*
X119261607Y-45510857D01*
X119245506Y-45519463D01*
X119148815Y-45598815D01*
X119069463Y-45695506D01*
X119010498Y-45805820D01*
X118974188Y-45925518D01*
X118961928Y-46050000D01*
X118961928Y-47950000D01*
X118974188Y-48074482D01*
X119009525Y-48190973D01*
X117554475Y-49646024D01*
X117596248Y-49508316D01*
X117613072Y-49337500D01*
X117613072Y-48837500D01*
X117596248Y-48666684D01*
X117546423Y-48502433D01*
X117465512Y-48351058D01*
X117356623Y-48218377D01*
X117223942Y-48109488D01*
X117072567Y-48028577D01*
X116908316Y-47978752D01*
X116737500Y-47961928D01*
X116262500Y-47961928D01*
X116091684Y-47978752D01*
X115927433Y-48028577D01*
X115776058Y-48109488D01*
X115643377Y-48218377D01*
X115636904Y-48226265D01*
X115564689Y-48211900D01*
X115380511Y-48211900D01*
X115199871Y-48247832D01*
X115029711Y-48318314D01*
X114876572Y-48420638D01*
X114746338Y-48550872D01*
X114644014Y-48704011D01*
X114573532Y-48874171D01*
X114537600Y-49054811D01*
X114537600Y-49238989D01*
X114573532Y-49419629D01*
X114644014Y-49589789D01*
X114746338Y-49742928D01*
X114876572Y-49873162D01*
X115029711Y-49975486D01*
X115199871Y-50045968D01*
X115380511Y-50081900D01*
X115564689Y-50081900D01*
X115620945Y-50070710D01*
X115534488Y-50176058D01*
X115453577Y-50327433D01*
X115403752Y-50491684D01*
X115386928Y-50662500D01*
X115386928Y-50950769D01*
X113836337Y-52501361D01*
X113869300Y-52392697D01*
X113890249Y-52180000D01*
X113869300Y-51967303D01*
X113807259Y-51762780D01*
X113706509Y-51574290D01*
X113682471Y-51545000D01*
X113706509Y-51515710D01*
X113807259Y-51327220D01*
X113869300Y-51122697D01*
X113890249Y-50910000D01*
X113869300Y-50697303D01*
X113807259Y-50492780D01*
X113706509Y-50304290D01*
X113682471Y-50275000D01*
X113706509Y-50245710D01*
X113807259Y-50057220D01*
X113869300Y-49852697D01*
X113890249Y-49640000D01*
X113869300Y-49427303D01*
X113807259Y-49222780D01*
X113706509Y-49034290D01*
X113682471Y-49005000D01*
X113706509Y-48975710D01*
X113807259Y-48787220D01*
X113869300Y-48582697D01*
X113890249Y-48370000D01*
X113869300Y-48157303D01*
X113807259Y-47952780D01*
X113706509Y-47764290D01*
X113682471Y-47735000D01*
X113706509Y-47705710D01*
X113807259Y-47517220D01*
X113869300Y-47312697D01*
X113890249Y-47100000D01*
X113869300Y-46887303D01*
X113807259Y-46682780D01*
X113706509Y-46494290D01*
X113682471Y-46465000D01*
X113706509Y-46435710D01*
X113807259Y-46247220D01*
X113869300Y-46042697D01*
X113890249Y-45830000D01*
X113869300Y-45617303D01*
X113807259Y-45412780D01*
X113706509Y-45224290D01*
X113682471Y-45195000D01*
X113706509Y-45165710D01*
X113807259Y-44977220D01*
X113815516Y-44950000D01*
X118011928Y-44950000D01*
X118024188Y-45074482D01*
X118060498Y-45194180D01*
X118119463Y-45304494D01*
X118198815Y-45401185D01*
X118295506Y-45480537D01*
X118405820Y-45539502D01*
X118525518Y-45575812D01*
X118650000Y-45588072D01*
X118764250Y-45585000D01*
X118923000Y-45426250D01*
X118923000Y-44127000D01*
X118173750Y-44127000D01*
X118015000Y-44285750D01*
X118011928Y-44950000D01*
X113815516Y-44950000D01*
X113869300Y-44772697D01*
X113890249Y-44560000D01*
X113869300Y-44347303D01*
X113807259Y-44142780D01*
X113706509Y-43954290D01*
X113682471Y-43925000D01*
X113706509Y-43895710D01*
X113807259Y-43707220D01*
X113869300Y-43502697D01*
X113890249Y-43290000D01*
X113869300Y-43077303D01*
X113861018Y-43050000D01*
X118011928Y-43050000D01*
X118015000Y-43714250D01*
X118173750Y-43873000D01*
X118923000Y-43873000D01*
X118923000Y-42573750D01*
X118764250Y-42415000D01*
X118650000Y-42411928D01*
X118525518Y-42424188D01*
X118405820Y-42460498D01*
X118295506Y-42519463D01*
X118198815Y-42598815D01*
X118119463Y-42695506D01*
X118060498Y-42805820D01*
X118024188Y-42925518D01*
X118011928Y-43050000D01*
X113861018Y-43050000D01*
X113807259Y-42872780D01*
X113706509Y-42684290D01*
X113682471Y-42655000D01*
X113706509Y-42625710D01*
X113807259Y-42437220D01*
X113869300Y-42232697D01*
X113890249Y-42020000D01*
X113869300Y-41807303D01*
X113807259Y-41602780D01*
X113706509Y-41414290D01*
X113683463Y-41386208D01*
X113772702Y-41247197D01*
X113844408Y-41044001D01*
X113717502Y-40877000D01*
X112127000Y-40877000D01*
X112127000Y-40897000D01*
X111873000Y-40897000D01*
X111873000Y-40877000D01*
X110282498Y-40877000D01*
X110155592Y-41044001D01*
X110227298Y-41247197D01*
X110316537Y-41386208D01*
X110293491Y-41414290D01*
X110192741Y-41602780D01*
X110130700Y-41807303D01*
X110109751Y-42020000D01*
X110130700Y-42232697D01*
X110192741Y-42437220D01*
X110293491Y-42625710D01*
X110317529Y-42655000D01*
X110293491Y-42684290D01*
X110192741Y-42872780D01*
X110130700Y-43077303D01*
X110109751Y-43290000D01*
X110130700Y-43502697D01*
X110192741Y-43707220D01*
X110252048Y-43818176D01*
X110132453Y-43854454D01*
X110000424Y-43925026D01*
X109884699Y-44019999D01*
X109860901Y-44048997D01*
X108837502Y-45072396D01*
X108808499Y-45096199D01*
X108753371Y-45163374D01*
X108713526Y-45211924D01*
X108674065Y-45285750D01*
X108642954Y-45343954D01*
X108599497Y-45487215D01*
X108588500Y-45598868D01*
X108588500Y-45598878D01*
X108584824Y-45636200D01*
X108588500Y-45673523D01*
X108588501Y-47987997D01*
X106336702Y-50239796D01*
X106335000Y-48735750D01*
X106176250Y-48577000D01*
X102827000Y-48577000D01*
X102827000Y-48597000D01*
X102573000Y-48597000D01*
X102573000Y-48577000D01*
X99223750Y-48577000D01*
X99065000Y-48735750D01*
X99063313Y-50226112D01*
X96335300Y-47498099D01*
X96335300Y-45450000D01*
X99061928Y-45450000D01*
X99065000Y-48164250D01*
X99223750Y-48323000D01*
X102573000Y-48323000D01*
X102573000Y-44973750D01*
X102827000Y-44973750D01*
X102827000Y-48323000D01*
X106176250Y-48323000D01*
X106335000Y-48164250D01*
X106338072Y-45450000D01*
X106325812Y-45325518D01*
X106289502Y-45205820D01*
X106230537Y-45095506D01*
X106151185Y-44998815D01*
X106054494Y-44919463D01*
X105944180Y-44860498D01*
X105824482Y-44824188D01*
X105700000Y-44811928D01*
X102985750Y-44815000D01*
X102827000Y-44973750D01*
X102573000Y-44973750D01*
X102414250Y-44815000D01*
X99700000Y-44811928D01*
X99575518Y-44824188D01*
X99455820Y-44860498D01*
X99345506Y-44919463D01*
X99248815Y-44998815D01*
X99169463Y-45095506D01*
X99110498Y-45205820D01*
X99074188Y-45325518D01*
X99061928Y-45450000D01*
X96335300Y-45450000D01*
X96335300Y-43327333D01*
X96338977Y-43290000D01*
X96335136Y-43250997D01*
X96324303Y-43141014D01*
X96280846Y-42997753D01*
X96210274Y-42865724D01*
X96115301Y-42749999D01*
X96085505Y-42725546D01*
X95999576Y-42655026D01*
X95867547Y-42584454D01*
X95747952Y-42548176D01*
X95807259Y-42437220D01*
X95869300Y-42232697D01*
X95890249Y-42020000D01*
X95869300Y-41807303D01*
X95807259Y-41602780D01*
X95706509Y-41414290D01*
X95683463Y-41386208D01*
X95772702Y-41247197D01*
X95844408Y-41044001D01*
X95717502Y-40877000D01*
X94127000Y-40877000D01*
X94127000Y-40897000D01*
X93873000Y-40897000D01*
X93873000Y-40877000D01*
X92282498Y-40877000D01*
X92155592Y-41044001D01*
X92227298Y-41247197D01*
X92235517Y-41260000D01*
X91579822Y-41260000D01*
X91542499Y-41256324D01*
X91505176Y-41260000D01*
X91505167Y-41260000D01*
X91393514Y-41270997D01*
X91250253Y-41314454D01*
X91118224Y-41385026D01*
X91118222Y-41385027D01*
X91118223Y-41385027D01*
X91031496Y-41456201D01*
X91031492Y-41456205D01*
X91002499Y-41479999D01*
X90978705Y-41508992D01*
X89021219Y-43466480D01*
X88975003Y-43461928D01*
X88149997Y-43461928D01*
X87976743Y-43478992D01*
X87810148Y-43529528D01*
X87656612Y-43611595D01*
X87522037Y-43722037D01*
X87411595Y-43856612D01*
X87329528Y-44010148D01*
X87278992Y-44176743D01*
X87261928Y-44349997D01*
X87261928Y-45650003D01*
X87278992Y-45823257D01*
X87327501Y-45983169D01*
X87327500Y-47053821D01*
X87218377Y-47143377D01*
X87109488Y-47276058D01*
X87028577Y-47427433D01*
X87000000Y-47521639D01*
X86971423Y-47427433D01*
X86890512Y-47276058D01*
X86781623Y-47143377D01*
X86648942Y-47034488D01*
X86497567Y-46953577D01*
X86333316Y-46903752D01*
X86162500Y-46886928D01*
X85562500Y-46886928D01*
X85391684Y-46903752D01*
X85227433Y-46953577D01*
X85077394Y-47033774D01*
X85029494Y-46994463D01*
X84919180Y-46935498D01*
X84799482Y-46899188D01*
X84675000Y-46886928D01*
X84423250Y-46890000D01*
X84264500Y-47048750D01*
X84264500Y-47873000D01*
X84284500Y-47873000D01*
X84284500Y-48127000D01*
X84264500Y-48127000D01*
X84264500Y-48951250D01*
X84423250Y-49110000D01*
X84675000Y-49113072D01*
X84799482Y-49100812D01*
X84919180Y-49064502D01*
X85029494Y-49005537D01*
X85077394Y-48966226D01*
X85227433Y-49046423D01*
X85391684Y-49096248D01*
X85562500Y-49113072D01*
X85720501Y-49113072D01*
X85720501Y-49467749D01*
X85564500Y-49623750D01*
X85564500Y-50873000D01*
X85584500Y-50873000D01*
X85584500Y-51127000D01*
X85564500Y-51127000D01*
X85564500Y-52376250D01*
X85720500Y-52532250D01*
X85720500Y-54462898D01*
X84213298Y-55970101D01*
X84184300Y-55993899D01*
X84160502Y-56022897D01*
X84160501Y-56022898D01*
X84089326Y-56109624D01*
X84018754Y-56241654D01*
X83975298Y-56384915D01*
X83960624Y-56533900D01*
X83964301Y-56571232D01*
X83964301Y-57143261D01*
X83900000Y-57136928D01*
X83285750Y-57140000D01*
X83127000Y-57298750D01*
X83127000Y-58310500D01*
X83147000Y-58310500D01*
X83147000Y-58564500D01*
X83127000Y-58564500D01*
X83127000Y-59576250D01*
X83285750Y-59735000D01*
X83750374Y-59737324D01*
X83225770Y-60261928D01*
X82349997Y-60261928D01*
X82176743Y-60278992D01*
X82010148Y-60329528D01*
X81856612Y-60411595D01*
X81722037Y-60522037D01*
X81611595Y-60656612D01*
X81529528Y-60810148D01*
X81478992Y-60976743D01*
X81461928Y-61149997D01*
X79710000Y-61149997D01*
X79710000Y-59100000D01*
X81461928Y-59100000D01*
X81474188Y-59224482D01*
X81510498Y-59344180D01*
X81569463Y-59454494D01*
X81648815Y-59551185D01*
X81745506Y-59630537D01*
X81855820Y-59689502D01*
X81975518Y-59725812D01*
X82100000Y-59738072D01*
X82714250Y-59735000D01*
X82873000Y-59576250D01*
X82873000Y-58564500D01*
X81623750Y-58564500D01*
X81465000Y-58723250D01*
X81461928Y-59100000D01*
X79710000Y-59100000D01*
X79710000Y-57775000D01*
X81461928Y-57775000D01*
X81465000Y-58151750D01*
X81623750Y-58310500D01*
X82873000Y-58310500D01*
X82873000Y-57298750D01*
X82714250Y-57140000D01*
X82100000Y-57136928D01*
X81975518Y-57149188D01*
X81855820Y-57185498D01*
X81745506Y-57244463D01*
X81648815Y-57323815D01*
X81569463Y-57420506D01*
X81510498Y-57530820D01*
X81474188Y-57650518D01*
X81461928Y-57775000D01*
X79710000Y-57775000D01*
X79710000Y-56627000D01*
X81500000Y-56627000D01*
X81524776Y-56624560D01*
X81548601Y-56617333D01*
X81570557Y-56605597D01*
X81589803Y-56589803D01*
X82589803Y-55589803D01*
X82605597Y-55570557D01*
X82617333Y-55548601D01*
X82624560Y-55524776D01*
X82627000Y-55500000D01*
X82627000Y-51900000D01*
X84136928Y-51900000D01*
X84149188Y-52024482D01*
X84185498Y-52144180D01*
X84244463Y-52254494D01*
X84323815Y-52351185D01*
X84420506Y-52430537D01*
X84530820Y-52489502D01*
X84650518Y-52525812D01*
X84775000Y-52538072D01*
X85151750Y-52535000D01*
X85310500Y-52376250D01*
X85310500Y-51127000D01*
X84298750Y-51127000D01*
X84140000Y-51285750D01*
X84136928Y-51900000D01*
X82627000Y-51900000D01*
X82627000Y-50100000D01*
X84136928Y-50100000D01*
X84140000Y-50714250D01*
X84298750Y-50873000D01*
X85310500Y-50873000D01*
X85310500Y-49623750D01*
X85151750Y-49465000D01*
X84775000Y-49461928D01*
X84650518Y-49474188D01*
X84530820Y-49510498D01*
X84420506Y-49569463D01*
X84323815Y-49648815D01*
X84244463Y-49745506D01*
X84185498Y-49855820D01*
X84149188Y-49975518D01*
X84136928Y-50100000D01*
X82627000Y-50100000D01*
X82627000Y-48475000D01*
X82961928Y-48475000D01*
X82974188Y-48599482D01*
X83010498Y-48719180D01*
X83069463Y-48829494D01*
X83148815Y-48926185D01*
X83245506Y-49005537D01*
X83355820Y-49064502D01*
X83475518Y-49100812D01*
X83600000Y-49113072D01*
X83851750Y-49110000D01*
X84010500Y-48951250D01*
X84010500Y-48127000D01*
X83123750Y-48127000D01*
X82965000Y-48285750D01*
X82961928Y-48475000D01*
X82627000Y-48475000D01*
X82627000Y-47525000D01*
X82961928Y-47525000D01*
X82965000Y-47714250D01*
X83123750Y-47873000D01*
X84010500Y-47873000D01*
X84010500Y-47048750D01*
X83851750Y-46890000D01*
X83600000Y-46886928D01*
X83475518Y-46899188D01*
X83355820Y-46935498D01*
X83245506Y-46994463D01*
X83148815Y-47073815D01*
X83069463Y-47170506D01*
X83010498Y-47280820D01*
X82974188Y-47400518D01*
X82961928Y-47525000D01*
X82627000Y-47525000D01*
X82627000Y-45900000D01*
X84136928Y-45900000D01*
X84149188Y-46024482D01*
X84185498Y-46144180D01*
X84244463Y-46254494D01*
X84323815Y-46351185D01*
X84420506Y-46430537D01*
X84530820Y-46489502D01*
X84650518Y-46525812D01*
X84775000Y-46538072D01*
X85151750Y-46535000D01*
X85310500Y-46376250D01*
X85310500Y-45127000D01*
X85564500Y-45127000D01*
X85564500Y-46376250D01*
X85723250Y-46535000D01*
X86100000Y-46538072D01*
X86224482Y-46525812D01*
X86344180Y-46489502D01*
X86454494Y-46430537D01*
X86551185Y-46351185D01*
X86630537Y-46254494D01*
X86689502Y-46144180D01*
X86725812Y-46024482D01*
X86738072Y-45900000D01*
X86735000Y-45285750D01*
X86576250Y-45127000D01*
X85564500Y-45127000D01*
X85310500Y-45127000D01*
X84298750Y-45127000D01*
X84140000Y-45285750D01*
X84136928Y-45900000D01*
X82627000Y-45900000D01*
X82627000Y-44100000D01*
X84136928Y-44100000D01*
X84140000Y-44714250D01*
X84298750Y-44873000D01*
X85310500Y-44873000D01*
X85310500Y-43623750D01*
X85564500Y-43623750D01*
X85564500Y-44873000D01*
X86576250Y-44873000D01*
X86735000Y-44714250D01*
X86738072Y-44100000D01*
X86725812Y-43975518D01*
X86689502Y-43855820D01*
X86630537Y-43745506D01*
X86551185Y-43648815D01*
X86454494Y-43569463D01*
X86344180Y-43510498D01*
X86224482Y-43474188D01*
X86100000Y-43461928D01*
X85723250Y-43465000D01*
X85564500Y-43623750D01*
X85310500Y-43623750D01*
X85151750Y-43465000D01*
X84775000Y-43461928D01*
X84650518Y-43474188D01*
X84530820Y-43510498D01*
X84420506Y-43569463D01*
X84323815Y-43648815D01*
X84244463Y-43745506D01*
X84185498Y-43855820D01*
X84149188Y-43975518D01*
X84136928Y-44100000D01*
X82627000Y-44100000D01*
X82627000Y-39710000D01*
X92866629Y-39710000D01*
X92863767Y-39710624D01*
%TA.AperFunction,Conductor*%
D27*
G36*
X92863767Y-39710624D02*
G01*
X92667455Y-39796191D01*
X92491609Y-39918413D01*
X92342986Y-40072592D01*
X92227298Y-40252803D01*
X92155592Y-40455999D01*
X92282498Y-40623000D01*
X93873000Y-40623000D01*
X93873000Y-40603000D01*
X94127000Y-40603000D01*
X94127000Y-40623000D01*
X95717502Y-40623000D01*
X95844408Y-40455999D01*
X95772702Y-40252803D01*
X95657014Y-40072592D01*
X95508391Y-39918413D01*
X95332545Y-39796191D01*
X95136233Y-39710624D01*
X95133371Y-39710000D01*
X110866629Y-39710000D01*
X110863767Y-39710624D01*
X110667455Y-39796191D01*
X110491609Y-39918413D01*
X110342986Y-40072592D01*
X110227298Y-40252803D01*
X110155592Y-40455999D01*
X110282498Y-40623000D01*
X111873000Y-40623000D01*
X111873000Y-40603000D01*
X112127000Y-40603000D01*
X112127000Y-40623000D01*
X113717502Y-40623000D01*
X113844408Y-40455999D01*
X113772702Y-40252803D01*
X113657014Y-40072592D01*
X113508391Y-39918413D01*
X113332545Y-39796191D01*
X113136233Y-39710624D01*
X113133371Y-39710000D01*
X126290001Y-39710000D01*
X126290000Y-81733878D01*
X126190666Y-81634544D01*
X125820511Y-81387214D01*
X125409218Y-81216851D01*
X124972591Y-81130000D01*
X124527409Y-81130000D01*
X124090782Y-81216851D01*
X123679489Y-81387214D01*
X123309334Y-81634544D01*
X122994544Y-81949334D01*
X122747214Y-82319489D01*
X122576851Y-82730782D01*
X122490000Y-83167409D01*
X122490000Y-83612591D01*
X122576851Y-84049218D01*
X122747214Y-84460511D01*
X122994544Y-84830666D01*
X123309334Y-85145456D01*
X123679489Y-85392786D01*
X124090782Y-85563149D01*
X124527409Y-85650000D01*
X124972591Y-85650000D01*
X125409218Y-85563149D01*
X125820511Y-85392786D01*
X126190666Y-85145456D01*
X126290000Y-85046122D01*
X126290000Y-90790000D01*
X79710000Y-90790000D01*
X79710000Y-74600000D01*
X84386928Y-74600000D01*
X84390000Y-74801750D01*
X84548750Y-74960500D01*
X85373000Y-74960500D01*
X85373000Y-74123750D01*
X85627000Y-74123750D01*
X85627000Y-74960500D01*
X86451250Y-74960500D01*
X86500000Y-74911750D01*
X86548750Y-74960500D01*
X87373000Y-74960500D01*
X87373000Y-74123750D01*
X87627000Y-74123750D01*
X87627000Y-74960500D01*
X88451250Y-74960500D01*
X88610000Y-74801750D01*
X88613072Y-74600000D01*
X88600812Y-74475518D01*
X88564502Y-74355820D01*
X88505537Y-74245506D01*
X88426185Y-74148815D01*
X88329494Y-74069463D01*
X88219180Y-74010498D01*
X88099482Y-73974188D01*
X87975000Y-73961928D01*
X87785750Y-73965000D01*
X87627000Y-74123750D01*
X87373000Y-74123750D01*
X87214250Y-73965000D01*
X87025000Y-73961928D01*
X86900518Y-73974188D01*
X86780820Y-74010498D01*
X86670506Y-74069463D01*
X86573815Y-74148815D01*
X86500000Y-74238759D01*
X86426185Y-74148815D01*
X86329494Y-74069463D01*
X86219180Y-74010498D01*
X86099482Y-73974188D01*
X85975000Y-73961928D01*
X85785750Y-73965000D01*
X85627000Y-74123750D01*
X85373000Y-74123750D01*
X85214250Y-73965000D01*
X85025000Y-73961928D01*
X84900518Y-73974188D01*
X84780820Y-74010498D01*
X84670506Y-74069463D01*
X84573815Y-74148815D01*
X84494463Y-74245506D01*
X84435498Y-74355820D01*
X84399188Y-74475518D01*
X84386928Y-74600000D01*
X79710000Y-74600000D01*
X79710000Y-66100000D01*
X81461928Y-66100000D01*
X81474188Y-66224482D01*
X81510498Y-66344180D01*
X81569463Y-66454494D01*
X81648815Y-66551185D01*
X81745506Y-66630537D01*
X81855820Y-66689502D01*
X81975518Y-66725812D01*
X82100000Y-66738072D01*
X82714250Y-66735000D01*
X82873000Y-66576250D01*
X82873000Y-65564500D01*
X83127000Y-65564500D01*
X83127000Y-66576250D01*
X83285750Y-66735000D01*
X83900000Y-66738072D01*
X84024482Y-66725812D01*
X84144180Y-66689502D01*
X84254494Y-66630537D01*
X84351185Y-66551185D01*
X84430537Y-66454494D01*
X84489502Y-66344180D01*
X84525812Y-66224482D01*
X84538072Y-66100000D01*
X84535000Y-65723250D01*
X84376250Y-65564500D01*
X83127000Y-65564500D01*
X82873000Y-65564500D01*
X81623750Y-65564500D01*
X81465000Y-65723250D01*
X81461928Y-66100000D01*
X79710000Y-66100000D01*
X79710000Y-64775000D01*
X81461928Y-64775000D01*
X81465000Y-65151750D01*
X81623750Y-65310500D01*
X82873000Y-65310500D01*
X82873000Y-64298750D01*
X83127000Y-64298750D01*
X83127000Y-65310500D01*
X84376250Y-65310500D01*
X84535000Y-65151750D01*
X84538072Y-64775000D01*
X84525812Y-64650518D01*
X84510488Y-64600000D01*
X84886928Y-64600000D01*
X84890000Y-64851750D01*
X85048750Y-65010500D01*
X85873000Y-65010500D01*
X85873000Y-64123750D01*
X85714250Y-63965000D01*
X85525000Y-63961928D01*
X85400518Y-63974188D01*
X85280820Y-64010498D01*
X85170506Y-64069463D01*
X85073815Y-64148815D01*
X84994463Y-64245506D01*
X84935498Y-64355820D01*
X84899188Y-64475518D01*
X84886928Y-64600000D01*
X84510488Y-64600000D01*
X84489502Y-64530820D01*
X84430537Y-64420506D01*
X84351185Y-64323815D01*
X84254494Y-64244463D01*
X84144180Y-64185498D01*
X84024482Y-64149188D01*
X83900000Y-64136928D01*
X83285750Y-64140000D01*
X83127000Y-64298750D01*
X82873000Y-64298750D01*
X82714250Y-64140000D01*
X82100000Y-64136928D01*
X81975518Y-64149188D01*
X81855820Y-64185498D01*
X81745506Y-64244463D01*
X81648815Y-64323815D01*
X81569463Y-64420506D01*
X81510498Y-64530820D01*
X81474188Y-64650518D01*
X81461928Y-64775000D01*
X79710000Y-64775000D01*
X79710000Y-61149997D01*
X81461928Y-61149997D01*
X81461928Y-61975003D01*
X81478992Y-62148257D01*
X81529528Y-62314852D01*
X81611595Y-62468388D01*
X81722037Y-62602963D01*
X81856612Y-62713405D01*
X82010148Y-62795472D01*
X82176743Y-62846008D01*
X82349997Y-62863072D01*
X83650003Y-62863072D01*
X83823257Y-62846008D01*
X83989852Y-62795472D01*
X84143388Y-62713405D01*
X84277963Y-62602963D01*
X84388405Y-62468388D01*
X84424959Y-62400000D01*
X84886928Y-62400000D01*
X84899188Y-62524482D01*
X84935498Y-62644180D01*
X84994463Y-62754494D01*
X85073815Y-62851185D01*
X85170506Y-62930537D01*
X85280820Y-62989502D01*
X85400518Y-63025812D01*
X85525000Y-63038072D01*
X85714250Y-63035000D01*
X85873000Y-62876250D01*
X85873000Y-61989500D01*
X86127000Y-61989500D01*
X86127000Y-62876250D01*
X86285750Y-63035000D01*
X86475000Y-63038072D01*
X86599482Y-63025812D01*
X86719180Y-62989502D01*
X86829494Y-62930537D01*
X86926185Y-62851185D01*
X87005537Y-62754494D01*
X87064502Y-62644180D01*
X87100812Y-62524482D01*
X87113072Y-62400000D01*
X87110000Y-62148250D01*
X86951250Y-61989500D01*
X86127000Y-61989500D01*
X85873000Y-61989500D01*
X85048750Y-61989500D01*
X84890000Y-62148250D01*
X84886928Y-62400000D01*
X84424959Y-62400000D01*
X84470472Y-62314852D01*
X84521008Y-62148257D01*
X84538072Y-61975003D01*
X84538072Y-61149997D01*
X84533520Y-61103782D01*
X84737417Y-60899885D01*
X84761633Y-60897500D01*
X85020355Y-60897500D01*
X85033774Y-60922606D01*
X84994463Y-60970506D01*
X84935498Y-61080820D01*
X84899188Y-61200518D01*
X84886928Y-61325000D01*
X84890000Y-61576750D01*
X85048750Y-61735500D01*
X85873000Y-61735500D01*
X85873000Y-61715500D01*
X86127000Y-61715500D01*
X86127000Y-61735500D01*
X86634413Y-61735500D01*
X86640371Y-61737968D01*
X86821011Y-61773900D01*
X87005189Y-61773900D01*
X87185829Y-61737968D01*
X87355989Y-61667486D01*
X87509128Y-61565162D01*
X87639362Y-61434928D01*
X87741686Y-61281789D01*
X87812168Y-61111629D01*
X87848100Y-60930989D01*
X87848100Y-60746811D01*
X87812168Y-60566171D01*
X87741686Y-60396011D01*
X87639362Y-60242872D01*
X87509128Y-60112638D01*
X87355989Y-60010314D01*
X87185829Y-59939832D01*
X87113072Y-59925360D01*
X87113072Y-59837500D01*
X87096248Y-59666684D01*
X87046423Y-59502433D01*
X86965512Y-59351058D01*
X86856623Y-59218377D01*
X86723942Y-59109488D01*
X86572567Y-59028577D01*
X86408316Y-58978752D01*
X86237500Y-58961928D01*
X85762500Y-58961928D01*
X85591684Y-58978752D01*
X85484300Y-59011327D01*
X85484300Y-58113072D01*
X85625770Y-58113072D01*
X85837901Y-58325202D01*
X85861699Y-58354201D01*
X85977424Y-58449174D01*
X86109453Y-58519746D01*
X86252714Y-58563203D01*
X86364367Y-58574200D01*
X86364375Y-58574200D01*
X86401700Y-58577876D01*
X86439025Y-58574200D01*
X87746741Y-58574200D01*
X87684332Y-58724871D01*
X87648400Y-58905511D01*
X87648400Y-59089689D01*
X87684332Y-59270329D01*
X87754814Y-59440489D01*
X87857138Y-59593628D01*
X87987372Y-59723862D01*
X88140511Y-59826186D01*
X88310671Y-59896668D01*
X88431752Y-59920753D01*
X88514596Y-60003597D01*
X88538399Y-60032601D01*
X88654124Y-60127574D01*
X88786153Y-60198146D01*
X88901556Y-60233153D01*
X88850932Y-60355371D01*
X88815000Y-60536011D01*
X88815000Y-60621061D01*
X88798283Y-60629996D01*
X88692121Y-60717121D01*
X88604996Y-60823283D01*
X88540256Y-60944403D01*
X88500389Y-61075825D01*
X88486928Y-61212500D01*
X88486928Y-61486928D01*
X88212500Y-61486928D01*
X88075825Y-61500389D01*
X87944403Y-61540256D01*
X87823283Y-61604996D01*
X87717121Y-61692121D01*
X87629996Y-61798283D01*
X87565256Y-61919403D01*
X87525389Y-62050825D01*
X87511928Y-62187500D01*
X87511928Y-62312500D01*
X87525389Y-62449175D01*
X87532098Y-62471290D01*
X87527232Y-62486089D01*
X87517744Y-62567657D01*
X87429124Y-62615026D01*
X87313399Y-62709999D01*
X87289601Y-62738997D01*
X86394702Y-63633896D01*
X86365699Y-63657699D01*
X86337450Y-63692121D01*
X86270726Y-63773424D01*
X86219638Y-63869003D01*
X86200154Y-63905454D01*
X86156697Y-64048715D01*
X86151744Y-64099006D01*
X86127000Y-64123750D01*
X86127000Y-65010500D01*
X86145700Y-65010500D01*
X86145701Y-65264500D01*
X86127000Y-65264500D01*
X86127000Y-65284500D01*
X85873000Y-65284500D01*
X85873000Y-65264500D01*
X85048750Y-65264500D01*
X84890000Y-65423250D01*
X84886928Y-65675000D01*
X84899188Y-65799482D01*
X84935498Y-65919180D01*
X84994463Y-66029494D01*
X85033774Y-66077394D01*
X84953577Y-66227433D01*
X84903752Y-66391684D01*
X84886928Y-66562500D01*
X84886928Y-66900770D01*
X84271207Y-67516492D01*
X84143388Y-67411595D01*
X83989852Y-67329528D01*
X83823257Y-67278992D01*
X83650003Y-67261928D01*
X82349997Y-67261928D01*
X82176743Y-67278992D01*
X82010148Y-67329528D01*
X81856612Y-67411595D01*
X81722037Y-67522037D01*
X81611595Y-67656612D01*
X81529528Y-67810148D01*
X81478992Y-67976743D01*
X81461928Y-68149997D01*
X81461928Y-68975003D01*
X81478992Y-69148257D01*
X81529528Y-69314852D01*
X81611595Y-69468388D01*
X81722037Y-69602963D01*
X81856612Y-69713405D01*
X82010148Y-69795472D01*
X82176743Y-69846008D01*
X82349997Y-69863072D01*
X83650003Y-69863072D01*
X83823257Y-69846008D01*
X83989852Y-69795472D01*
X84143388Y-69713405D01*
X84277963Y-69602963D01*
X84388405Y-69468388D01*
X84470472Y-69314852D01*
X84473768Y-69303985D01*
X84592247Y-69268046D01*
X84634675Y-69245367D01*
X84609488Y-69276058D01*
X84528577Y-69427433D01*
X84478752Y-69591684D01*
X84461928Y-69762500D01*
X84461928Y-70237500D01*
X84478752Y-70408316D01*
X84528577Y-70572567D01*
X84609488Y-70723942D01*
X84718377Y-70856623D01*
X84851058Y-70965512D01*
X85002433Y-71046423D01*
X85166684Y-71096248D01*
X85337500Y-71113072D01*
X85837500Y-71113072D01*
X86008316Y-71096248D01*
X86172567Y-71046423D01*
X86323942Y-70965512D01*
X86456623Y-70856623D01*
X86500000Y-70803768D01*
X86543377Y-70856623D01*
X86676058Y-70965512D01*
X86827433Y-71046423D01*
X86991684Y-71096248D01*
X87162500Y-71113072D01*
X87662500Y-71113072D01*
X87833316Y-71096248D01*
X87997567Y-71046423D01*
X88148942Y-70965512D01*
X88281623Y-70856623D01*
X88390512Y-70723942D01*
X88471423Y-70572567D01*
X88521248Y-70408316D01*
X88538072Y-70237500D01*
X88538072Y-69890930D01*
X88600249Y-69828753D01*
X88721329Y-69804668D01*
X88891489Y-69734186D01*
X88948300Y-69696226D01*
X88948301Y-77285999D01*
X88613072Y-76950771D01*
X88613072Y-76662500D01*
X88596248Y-76491684D01*
X88546423Y-76327433D01*
X88465512Y-76176058D01*
X88376188Y-76067217D01*
X88426185Y-76026185D01*
X88505537Y-75929494D01*
X88564502Y-75819180D01*
X88600812Y-75699482D01*
X88613072Y-75575000D01*
X88610000Y-75373250D01*
X88451250Y-75214500D01*
X87627000Y-75214500D01*
X87627000Y-75234500D01*
X87373000Y-75234500D01*
X87373000Y-75214500D01*
X86548750Y-75214500D01*
X86500000Y-75263250D01*
X86451250Y-75214500D01*
X85627000Y-75214500D01*
X85627000Y-75234500D01*
X85373000Y-75234500D01*
X85373000Y-75214500D01*
X84548750Y-75214500D01*
X84390000Y-75373250D01*
X84386928Y-75575000D01*
X84399188Y-75699482D01*
X84435498Y-75819180D01*
X84494463Y-75929494D01*
X84573815Y-76026185D01*
X84623812Y-76067217D01*
X84534488Y-76176058D01*
X84453577Y-76327433D01*
X84403752Y-76491684D01*
X84386928Y-76662500D01*
X84386928Y-77162500D01*
X84403752Y-77333316D01*
X84453577Y-77497567D01*
X84534488Y-77648942D01*
X84643377Y-77781623D01*
X84677001Y-77809218D01*
X84677000Y-83989736D01*
X84663058Y-83997188D01*
X84530377Y-84106077D01*
X84421488Y-84238758D01*
X84340577Y-84390133D01*
X84290752Y-84554384D01*
X84273928Y-84725200D01*
X84273928Y-85200200D01*
X84290752Y-85371016D01*
X84340577Y-85535267D01*
X84421488Y-85686642D01*
X84530377Y-85819323D01*
X84663058Y-85928212D01*
X84814433Y-86009123D01*
X84978684Y-86058948D01*
X85149500Y-86075772D01*
X85724500Y-86075772D01*
X85895316Y-86058948D01*
X86059567Y-86009123D01*
X86210942Y-85928212D01*
X86312000Y-85845275D01*
X86413058Y-85928212D01*
X86564433Y-86009123D01*
X86728684Y-86058948D01*
X86899500Y-86075772D01*
X87231622Y-86075772D01*
X87282923Y-86117874D01*
X87388443Y-86174276D01*
X87414953Y-86188446D01*
X87558214Y-86231903D01*
X87669867Y-86242900D01*
X87669877Y-86242900D01*
X87707200Y-86246576D01*
X87744523Y-86242900D01*
X87843171Y-86242900D01*
X87858177Y-86292367D01*
X87939088Y-86443742D01*
X88047977Y-86576423D01*
X88180658Y-86685312D01*
X88332033Y-86766223D01*
X88496284Y-86816048D01*
X88667100Y-86832872D01*
X89142100Y-86832872D01*
X89312916Y-86816048D01*
X89477167Y-86766223D01*
X89628542Y-86685312D01*
X89761223Y-86576423D01*
X89870112Y-86443742D01*
X89951023Y-86292367D01*
X90000848Y-86128116D01*
X90017672Y-85957300D01*
X90017672Y-85444630D01*
X90219308Y-85242995D01*
X90248301Y-85219201D01*
X90272095Y-85190208D01*
X90272099Y-85190204D01*
X90343273Y-85103477D01*
X90349560Y-85091715D01*
X90413846Y-84971447D01*
X90457303Y-84828186D01*
X90468300Y-84716533D01*
X90468300Y-84716524D01*
X90471976Y-84679201D01*
X90468300Y-84641878D01*
X90468300Y-69408591D01*
X90500000Y-69382575D01*
X90601058Y-69465512D01*
X90752433Y-69546423D01*
X90916684Y-69596248D01*
X91087500Y-69613072D01*
X91662500Y-69613072D01*
X91662800Y-69613042D01*
X91662801Y-76411968D01*
X91659124Y-76449300D01*
X91662801Y-76486633D01*
X91673798Y-76598286D01*
X91680462Y-76620254D01*
X91717254Y-76741546D01*
X91787826Y-76873576D01*
X91857320Y-76958254D01*
X91882800Y-76989301D01*
X91911798Y-77013099D01*
X92110928Y-77212229D01*
X92110928Y-77500500D01*
X92127752Y-77671316D01*
X92177577Y-77835567D01*
X92258488Y-77986942D01*
X92367377Y-78119623D01*
X92464000Y-78198920D01*
X92464001Y-84411968D01*
X92460324Y-84449300D01*
X92464001Y-84486633D01*
X92474998Y-84598286D01*
X92488180Y-84641742D01*
X92518454Y-84741546D01*
X92589026Y-84873576D01*
X92660201Y-84960302D01*
X92684000Y-84989301D01*
X92712998Y-85013099D01*
X93960900Y-86261002D01*
X93984699Y-86290001D01*
X94013697Y-86313799D01*
X94100424Y-86384974D01*
X94211928Y-86444575D01*
X94211928Y-87000000D01*
X94224188Y-87124482D01*
X94260498Y-87244180D01*
X94319463Y-87354494D01*
X94398815Y-87451185D01*
X94495506Y-87530537D01*
X94605820Y-87589502D01*
X94725518Y-87625812D01*
X94850000Y-87638072D01*
X96650000Y-87638072D01*
X96774482Y-87625812D01*
X96894180Y-87589502D01*
X97004494Y-87530537D01*
X97101185Y-87451185D01*
X97180537Y-87354494D01*
X97239502Y-87244180D01*
X97275618Y-87125120D01*
X97608401Y-87457903D01*
X97632199Y-87486901D01*
X97747924Y-87581874D01*
X97879953Y-87652446D01*
X98023214Y-87695903D01*
X98134867Y-87706900D01*
X98134876Y-87706900D01*
X98172199Y-87710576D01*
X98209522Y-87706900D01*
X98395883Y-87706900D01*
X98339942Y-87775065D01*
X98229906Y-87980927D01*
X98162147Y-88204301D01*
X98145000Y-88378394D01*
X98145000Y-89194807D01*
X98162147Y-89368900D01*
X98229906Y-89592274D01*
X98339943Y-89798136D01*
X98488026Y-89978575D01*
X98668465Y-90126658D01*
X98874327Y-90236694D01*
X99097701Y-90304453D01*
X99330000Y-90327333D01*
X99562300Y-90304453D01*
X99785674Y-90236694D01*
X99991536Y-90126658D01*
X100171975Y-89978575D01*
X100320058Y-89798136D01*
X100430094Y-89592274D01*
X100497853Y-89368899D01*
X100515000Y-89194806D01*
X100515000Y-88378393D01*
X100497853Y-88204300D01*
X100430094Y-87980926D01*
X100320058Y-87775064D01*
X100264117Y-87706900D01*
X101592667Y-87706900D01*
X101630000Y-87710577D01*
X101667333Y-87706900D01*
X105595883Y-87706900D01*
X105539942Y-87775065D01*
X105429906Y-87980927D01*
X105362147Y-88204301D01*
X105345000Y-88378394D01*
X105345000Y-89194807D01*
X105362147Y-89368900D01*
X105429906Y-89592274D01*
X105539943Y-89798136D01*
X105688026Y-89978575D01*
X105868465Y-90126658D01*
X106074327Y-90236694D01*
X106297701Y-90304453D01*
X106530000Y-90327333D01*
X106762300Y-90304453D01*
X106985674Y-90236694D01*
X107191536Y-90126658D01*
X107371975Y-89978575D01*
X107520058Y-89798136D01*
X107630094Y-89592274D01*
X107697853Y-89368899D01*
X107715000Y-89194806D01*
X107715000Y-88378393D01*
X107697853Y-88204300D01*
X107630094Y-87980926D01*
X107520058Y-87775064D01*
X107404371Y-87634099D01*
X107502076Y-87581874D01*
X107617801Y-87486901D01*
X107641604Y-87457898D01*
X107844944Y-87254557D01*
X107853463Y-87270494D01*
X107932815Y-87367185D01*
X108029506Y-87446537D01*
X108139820Y-87505502D01*
X108259518Y-87541812D01*
X108384000Y-87554072D01*
X109184000Y-87554072D01*
X109308482Y-87541812D01*
X109428180Y-87505502D01*
X109538494Y-87446537D01*
X109635185Y-87367185D01*
X109714537Y-87270494D01*
X109734000Y-87234082D01*
X109753463Y-87270494D01*
X109832815Y-87367185D01*
X109929506Y-87446537D01*
X110039820Y-87505502D01*
X110159518Y-87541812D01*
X110284000Y-87554072D01*
X111084000Y-87554072D01*
X111208482Y-87541812D01*
X111328180Y-87505502D01*
X111438494Y-87446537D01*
X111535185Y-87367185D01*
X111614537Y-87270494D01*
X111673502Y-87160180D01*
X111709812Y-87040482D01*
X111722072Y-86916000D01*
X111722072Y-85016000D01*
X111709812Y-84891518D01*
X111673502Y-84771820D01*
X111614537Y-84661506D01*
X111535185Y-84564815D01*
X111438494Y-84485463D01*
X111328180Y-84426498D01*
X111208482Y-84390188D01*
X111084000Y-84377928D01*
X110572095Y-84377928D01*
X110585185Y-84367185D01*
X110664537Y-84270494D01*
X110723502Y-84160180D01*
X110759812Y-84040482D01*
X110772072Y-83916000D01*
X110772072Y-83660575D01*
X110883576Y-83600974D01*
X110999301Y-83506001D01*
X111023104Y-83476997D01*
X111332692Y-83167409D01*
X112330000Y-83167409D01*
X112330000Y-83612591D01*
X112416851Y-84049218D01*
X112587214Y-84460511D01*
X112834544Y-84830666D01*
X113149334Y-85145456D01*
X113519489Y-85392786D01*
X113930782Y-85563149D01*
X114367409Y-85650000D01*
X114812591Y-85650000D01*
X115249218Y-85563149D01*
X115660511Y-85392786D01*
X116030666Y-85145456D01*
X116345456Y-84830666D01*
X116592786Y-84460511D01*
X116763149Y-84049218D01*
X116850000Y-83612591D01*
X116850000Y-83167409D01*
X116763149Y-82730782D01*
X116592786Y-82319489D01*
X116345456Y-81949334D01*
X116030666Y-81634544D01*
X115660511Y-81387214D01*
X115249218Y-81216851D01*
X114812591Y-81130000D01*
X114367409Y-81130000D01*
X113930782Y-81216851D01*
X113519489Y-81387214D01*
X113149334Y-81634544D01*
X112834544Y-81949334D01*
X112587214Y-82319489D01*
X112416851Y-82730782D01*
X112330000Y-83167409D01*
X111332692Y-83167409D01*
X116684111Y-77815991D01*
X116733814Y-77890376D01*
X116919624Y-78076186D01*
X117138114Y-78222176D01*
X117380886Y-78322735D01*
X117638612Y-78374000D01*
X117901388Y-78374000D01*
X118159114Y-78322735D01*
X118401886Y-78222176D01*
X118620376Y-78076186D01*
X118806186Y-77890376D01*
X118952176Y-77671886D01*
X119040000Y-77459859D01*
X119127824Y-77671886D01*
X119273814Y-77890376D01*
X119459624Y-78076186D01*
X119678114Y-78222176D01*
X119920886Y-78322735D01*
X120178612Y-78374000D01*
X120441388Y-78374000D01*
X120699114Y-78322735D01*
X120941886Y-78222176D01*
X121160376Y-78076186D01*
X121276007Y-77960555D01*
X122109050Y-77960555D01*
X122168389Y-78194221D01*
X122406664Y-78305018D01*
X122661975Y-78367202D01*
X122924512Y-78378382D01*
X123184186Y-78338129D01*
X123431017Y-78247990D01*
X123531611Y-78194221D01*
X123590950Y-77960555D01*
X122850000Y-77219605D01*
X122109050Y-77960555D01*
X121276007Y-77960555D01*
X121346186Y-77890376D01*
X121492176Y-77671886D01*
X121581678Y-77455808D01*
X121642010Y-77621017D01*
X121695779Y-77721611D01*
X121929445Y-77780950D01*
X122670395Y-77040000D01*
X123029605Y-77040000D01*
X123770555Y-77780950D01*
X124004221Y-77721611D01*
X124115018Y-77483336D01*
X124177202Y-77228025D01*
X124188382Y-76965488D01*
X124148129Y-76705814D01*
X124057990Y-76458983D01*
X124004221Y-76358389D01*
X123770555Y-76299050D01*
X123029605Y-77040000D01*
X122670395Y-77040000D01*
X121929445Y-76299050D01*
X121695779Y-76358389D01*
X121584982Y-76596664D01*
X121579536Y-76619022D01*
X121492176Y-76408114D01*
X121346186Y-76189624D01*
X121276007Y-76119445D01*
X122109050Y-76119445D01*
X122850000Y-76860395D01*
X123590950Y-76119445D01*
X123531611Y-75885779D01*
X123293336Y-75774982D01*
X123038025Y-75712798D01*
X122775488Y-75701618D01*
X122515814Y-75741871D01*
X122268983Y-75832010D01*
X122168389Y-75885779D01*
X122109050Y-76119445D01*
X121276007Y-76119445D01*
X121160376Y-76003814D01*
X120941886Y-75857824D01*
X120699114Y-75757265D01*
X120441388Y-75706000D01*
X120178612Y-75706000D01*
X119920886Y-75757265D01*
X119678114Y-75857824D01*
X119459624Y-76003814D01*
X119273814Y-76189624D01*
X119127824Y-76408114D01*
X119040000Y-76620141D01*
X118952176Y-76408114D01*
X118806186Y-76189624D01*
X118620376Y-76003814D01*
X118401886Y-75857824D01*
X118159114Y-75757265D01*
X117901388Y-75706000D01*
X117638612Y-75706000D01*
X117564119Y-75720818D01*
X117650185Y-75650185D01*
X117729537Y-75553494D01*
X117788502Y-75443180D01*
X117795365Y-75420555D01*
X118299050Y-75420555D01*
X118358389Y-75654221D01*
X118596664Y-75765018D01*
X118851975Y-75827202D01*
X119114512Y-75838382D01*
X119374186Y-75798129D01*
X119621017Y-75707990D01*
X119721611Y-75654221D01*
X119780950Y-75420555D01*
X119040000Y-74679605D01*
X118299050Y-75420555D01*
X117795365Y-75420555D01*
X117824812Y-75323482D01*
X117837072Y-75199000D01*
X117837072Y-75194575D01*
X117880345Y-75171445D01*
X117885779Y-75181611D01*
X118119445Y-75240950D01*
X118860395Y-74500000D01*
X118846253Y-74485858D01*
X119025858Y-74306253D01*
X119040000Y-74320395D01*
X119780950Y-73579445D01*
X119728033Y-73371068D01*
X123919500Y-69179602D01*
X123919500Y-71085698D01*
X121817994Y-73187205D01*
X121711388Y-73166000D01*
X121448612Y-73166000D01*
X121190886Y-73217265D01*
X120948114Y-73317824D01*
X120729624Y-73463814D01*
X120543814Y-73649624D01*
X120397824Y-73868114D01*
X120308322Y-74084192D01*
X120247990Y-73918983D01*
X120194221Y-73818389D01*
X119960555Y-73759050D01*
X119219605Y-74500000D01*
X119960555Y-75240950D01*
X120194221Y-75181611D01*
X120305018Y-74943336D01*
X120310464Y-74920978D01*
X120397824Y-75131886D01*
X120543814Y-75350376D01*
X120729624Y-75536186D01*
X120948114Y-75682176D01*
X121190886Y-75782735D01*
X121448612Y-75834000D01*
X121711388Y-75834000D01*
X121969114Y-75782735D01*
X122211886Y-75682176D01*
X122430376Y-75536186D01*
X122616186Y-75350376D01*
X122762176Y-75131886D01*
X122862735Y-74889114D01*
X122914000Y-74631388D01*
X122914000Y-74368612D01*
X122892795Y-74262006D01*
X125190504Y-71964298D01*
X125219501Y-71940501D01*
X125245832Y-71908417D01*
X125314474Y-71824777D01*
X125385046Y-71692747D01*
X125403062Y-71633354D01*
X125428503Y-71549486D01*
X125439500Y-71437833D01*
X125439500Y-71437823D01*
X125443176Y-71400500D01*
X125439500Y-71363177D01*
X125439500Y-53104322D01*
X125443176Y-53066999D01*
X125439500Y-53029677D01*
X125439500Y-53029667D01*
X125428503Y-52918014D01*
X125385046Y-52774753D01*
X125333906Y-52679078D01*
X125314474Y-52642723D01*
X125243299Y-52555997D01*
X125219501Y-52526999D01*
X125190503Y-52503201D01*
X124407244Y-51719942D01*
X124465512Y-51648942D01*
X124546423Y-51497567D01*
X124596248Y-51333316D01*
X124613072Y-51162500D01*
X124613072Y-50662500D01*
X124596248Y-50491684D01*
X124546423Y-50327433D01*
X124465512Y-50176058D01*
X124356623Y-50043377D01*
X124303768Y-50000000D01*
X124356623Y-49956623D01*
X124465512Y-49823942D01*
X124546423Y-49672567D01*
X124596248Y-49508316D01*
X124613072Y-49337500D01*
X124613072Y-48837500D01*
X124596248Y-48666684D01*
X124546423Y-48502433D01*
X124465512Y-48351058D01*
X124356623Y-48218377D01*
X124223942Y-48109488D01*
X124072567Y-48028577D01*
X123908316Y-47978752D01*
X123737500Y-47961928D01*
X123449230Y-47961928D01*
X122435300Y-46947999D01*
X122435300Y-44037333D01*
X122438977Y-44000000D01*
X122424303Y-43851014D01*
X122380846Y-43707753D01*
X122310274Y-43575724D01*
X122215301Y-43459999D01*
X122099576Y-43365026D01*
X121988072Y-43305425D01*
X121988072Y-43050000D01*
X121975812Y-42925518D01*
X121939502Y-42805820D01*
X121880537Y-42695506D01*
X121801185Y-42598815D01*
X121704494Y-42519463D01*
X121594180Y-42460498D01*
X121474482Y-42424188D01*
X121350000Y-42411928D01*
X120550000Y-42411928D01*
X120425518Y-42424188D01*
X120305820Y-42460498D01*
X120195506Y-42519463D01*
X120098815Y-42598815D01*
X120019463Y-42695506D01*
X120000000Y-42731918D01*
X119980537Y-42695506D01*
X119901185Y-42598815D01*
X119804494Y-42519463D01*
X119694180Y-42460498D01*
X119574482Y-42424188D01*
X119450000Y-42411928D01*
X119335750Y-42415000D01*
X119177000Y-42573750D01*
X119177000Y-43873000D01*
X119197000Y-43873000D01*
X119197000Y-44127000D01*
X119177000Y-44127000D01*
X119177000Y-45426250D01*
X119261607Y-45510857D01*
X119245506Y-45519463D01*
X119148815Y-45598815D01*
X119069463Y-45695506D01*
X119010498Y-45805820D01*
X118974188Y-45925518D01*
X118961928Y-46050000D01*
X118961928Y-47950000D01*
X118974188Y-48074482D01*
X119009525Y-48190973D01*
X117554475Y-49646024D01*
X117596248Y-49508316D01*
X117613072Y-49337500D01*
X117613072Y-48837500D01*
X117596248Y-48666684D01*
X117546423Y-48502433D01*
X117465512Y-48351058D01*
X117356623Y-48218377D01*
X117223942Y-48109488D01*
X117072567Y-48028577D01*
X116908316Y-47978752D01*
X116737500Y-47961928D01*
X116262500Y-47961928D01*
X116091684Y-47978752D01*
X115927433Y-48028577D01*
X115776058Y-48109488D01*
X115643377Y-48218377D01*
X115636904Y-48226265D01*
X115564689Y-48211900D01*
X115380511Y-48211900D01*
X115199871Y-48247832D01*
X115029711Y-48318314D01*
X114876572Y-48420638D01*
X114746338Y-48550872D01*
X114644014Y-48704011D01*
X114573532Y-48874171D01*
X114537600Y-49054811D01*
X114537600Y-49238989D01*
X114573532Y-49419629D01*
X114644014Y-49589789D01*
X114746338Y-49742928D01*
X114876572Y-49873162D01*
X115029711Y-49975486D01*
X115199871Y-50045968D01*
X115380511Y-50081900D01*
X115564689Y-50081900D01*
X115620945Y-50070710D01*
X115534488Y-50176058D01*
X115453577Y-50327433D01*
X115403752Y-50491684D01*
X115386928Y-50662500D01*
X115386928Y-50950769D01*
X113836337Y-52501361D01*
X113869300Y-52392697D01*
X113890249Y-52180000D01*
X113869300Y-51967303D01*
X113807259Y-51762780D01*
X113706509Y-51574290D01*
X113682471Y-51545000D01*
X113706509Y-51515710D01*
X113807259Y-51327220D01*
X113869300Y-51122697D01*
X113890249Y-50910000D01*
X113869300Y-50697303D01*
X113807259Y-50492780D01*
X113706509Y-50304290D01*
X113682471Y-50275000D01*
X113706509Y-50245710D01*
X113807259Y-50057220D01*
X113869300Y-49852697D01*
X113890249Y-49640000D01*
X113869300Y-49427303D01*
X113807259Y-49222780D01*
X113706509Y-49034290D01*
X113682471Y-49005000D01*
X113706509Y-48975710D01*
X113807259Y-48787220D01*
X113869300Y-48582697D01*
X113890249Y-48370000D01*
X113869300Y-48157303D01*
X113807259Y-47952780D01*
X113706509Y-47764290D01*
X113682471Y-47735000D01*
X113706509Y-47705710D01*
X113807259Y-47517220D01*
X113869300Y-47312697D01*
X113890249Y-47100000D01*
X113869300Y-46887303D01*
X113807259Y-46682780D01*
X113706509Y-46494290D01*
X113682471Y-46465000D01*
X113706509Y-46435710D01*
X113807259Y-46247220D01*
X113869300Y-46042697D01*
X113890249Y-45830000D01*
X113869300Y-45617303D01*
X113807259Y-45412780D01*
X113706509Y-45224290D01*
X113682471Y-45195000D01*
X113706509Y-45165710D01*
X113807259Y-44977220D01*
X113815516Y-44950000D01*
X118011928Y-44950000D01*
X118024188Y-45074482D01*
X118060498Y-45194180D01*
X118119463Y-45304494D01*
X118198815Y-45401185D01*
X118295506Y-45480537D01*
X118405820Y-45539502D01*
X118525518Y-45575812D01*
X118650000Y-45588072D01*
X118764250Y-45585000D01*
X118923000Y-45426250D01*
X118923000Y-44127000D01*
X118173750Y-44127000D01*
X118015000Y-44285750D01*
X118011928Y-44950000D01*
X113815516Y-44950000D01*
X113869300Y-44772697D01*
X113890249Y-44560000D01*
X113869300Y-44347303D01*
X113807259Y-44142780D01*
X113706509Y-43954290D01*
X113682471Y-43925000D01*
X113706509Y-43895710D01*
X113807259Y-43707220D01*
X113869300Y-43502697D01*
X113890249Y-43290000D01*
X113869300Y-43077303D01*
X113861018Y-43050000D01*
X118011928Y-43050000D01*
X118015000Y-43714250D01*
X118173750Y-43873000D01*
X118923000Y-43873000D01*
X118923000Y-42573750D01*
X118764250Y-42415000D01*
X118650000Y-42411928D01*
X118525518Y-42424188D01*
X118405820Y-42460498D01*
X118295506Y-42519463D01*
X118198815Y-42598815D01*
X118119463Y-42695506D01*
X118060498Y-42805820D01*
X118024188Y-42925518D01*
X118011928Y-43050000D01*
X113861018Y-43050000D01*
X113807259Y-42872780D01*
X113706509Y-42684290D01*
X113682471Y-42655000D01*
X113706509Y-42625710D01*
X113807259Y-42437220D01*
X113869300Y-42232697D01*
X113890249Y-42020000D01*
X113869300Y-41807303D01*
X113807259Y-41602780D01*
X113706509Y-41414290D01*
X113683463Y-41386208D01*
X113772702Y-41247197D01*
X113844408Y-41044001D01*
X113717502Y-40877000D01*
X112127000Y-40877000D01*
X112127000Y-40897000D01*
X111873000Y-40897000D01*
X111873000Y-40877000D01*
X110282498Y-40877000D01*
X110155592Y-41044001D01*
X110227298Y-41247197D01*
X110316537Y-41386208D01*
X110293491Y-41414290D01*
X110192741Y-41602780D01*
X110130700Y-41807303D01*
X110109751Y-42020000D01*
X110130700Y-42232697D01*
X110192741Y-42437220D01*
X110293491Y-42625710D01*
X110317529Y-42655000D01*
X110293491Y-42684290D01*
X110192741Y-42872780D01*
X110130700Y-43077303D01*
X110109751Y-43290000D01*
X110130700Y-43502697D01*
X110192741Y-43707220D01*
X110252048Y-43818176D01*
X110132453Y-43854454D01*
X110000424Y-43925026D01*
X109884699Y-44019999D01*
X109860901Y-44048997D01*
X108837502Y-45072396D01*
X108808499Y-45096199D01*
X108753371Y-45163374D01*
X108713526Y-45211924D01*
X108674065Y-45285750D01*
X108642954Y-45343954D01*
X108599497Y-45487215D01*
X108588500Y-45598868D01*
X108588500Y-45598878D01*
X108584824Y-45636200D01*
X108588500Y-45673523D01*
X108588501Y-47987997D01*
X106336702Y-50239796D01*
X106335000Y-48735750D01*
X106176250Y-48577000D01*
X102827000Y-48577000D01*
X102827000Y-48597000D01*
X102573000Y-48597000D01*
X102573000Y-48577000D01*
X99223750Y-48577000D01*
X99065000Y-48735750D01*
X99063313Y-50226112D01*
X96335300Y-47498099D01*
X96335300Y-45450000D01*
X99061928Y-45450000D01*
X99065000Y-48164250D01*
X99223750Y-48323000D01*
X102573000Y-48323000D01*
X102573000Y-44973750D01*
X102827000Y-44973750D01*
X102827000Y-48323000D01*
X106176250Y-48323000D01*
X106335000Y-48164250D01*
X106338072Y-45450000D01*
X106325812Y-45325518D01*
X106289502Y-45205820D01*
X106230537Y-45095506D01*
X106151185Y-44998815D01*
X106054494Y-44919463D01*
X105944180Y-44860498D01*
X105824482Y-44824188D01*
X105700000Y-44811928D01*
X102985750Y-44815000D01*
X102827000Y-44973750D01*
X102573000Y-44973750D01*
X102414250Y-44815000D01*
X99700000Y-44811928D01*
X99575518Y-44824188D01*
X99455820Y-44860498D01*
X99345506Y-44919463D01*
X99248815Y-44998815D01*
X99169463Y-45095506D01*
X99110498Y-45205820D01*
X99074188Y-45325518D01*
X99061928Y-45450000D01*
X96335300Y-45450000D01*
X96335300Y-43327333D01*
X96338977Y-43290000D01*
X96335136Y-43250997D01*
X96324303Y-43141014D01*
X96280846Y-42997753D01*
X96210274Y-42865724D01*
X96115301Y-42749999D01*
X96085505Y-42725546D01*
X95999576Y-42655026D01*
X95867547Y-42584454D01*
X95747952Y-42548176D01*
X95807259Y-42437220D01*
X95869300Y-42232697D01*
X95890249Y-42020000D01*
X95869300Y-41807303D01*
X95807259Y-41602780D01*
X95706509Y-41414290D01*
X95683463Y-41386208D01*
X95772702Y-41247197D01*
X95844408Y-41044001D01*
X95717502Y-40877000D01*
X94127000Y-40877000D01*
X94127000Y-40897000D01*
X93873000Y-40897000D01*
X93873000Y-40877000D01*
X92282498Y-40877000D01*
X92155592Y-41044001D01*
X92227298Y-41247197D01*
X92235517Y-41260000D01*
X91579822Y-41260000D01*
X91542499Y-41256324D01*
X91505176Y-41260000D01*
X91505167Y-41260000D01*
X91393514Y-41270997D01*
X91250253Y-41314454D01*
X91118224Y-41385026D01*
X91118222Y-41385027D01*
X91118223Y-41385027D01*
X91031496Y-41456201D01*
X91031492Y-41456205D01*
X91002499Y-41479999D01*
X90978705Y-41508992D01*
X89021219Y-43466480D01*
X88975003Y-43461928D01*
X88149997Y-43461928D01*
X87976743Y-43478992D01*
X87810148Y-43529528D01*
X87656612Y-43611595D01*
X87522037Y-43722037D01*
X87411595Y-43856612D01*
X87329528Y-44010148D01*
X87278992Y-44176743D01*
X87261928Y-44349997D01*
X87261928Y-45650003D01*
X87278992Y-45823257D01*
X87327501Y-45983169D01*
X87327500Y-47053821D01*
X87218377Y-47143377D01*
X87109488Y-47276058D01*
X87028577Y-47427433D01*
X87000000Y-47521639D01*
X86971423Y-47427433D01*
X86890512Y-47276058D01*
X86781623Y-47143377D01*
X86648942Y-47034488D01*
X86497567Y-46953577D01*
X86333316Y-46903752D01*
X86162500Y-46886928D01*
X85562500Y-46886928D01*
X85391684Y-46903752D01*
X85227433Y-46953577D01*
X85077394Y-47033774D01*
X85029494Y-46994463D01*
X84919180Y-46935498D01*
X84799482Y-46899188D01*
X84675000Y-46886928D01*
X84423250Y-46890000D01*
X84264500Y-47048750D01*
X84264500Y-47873000D01*
X84284500Y-47873000D01*
X84284500Y-48127000D01*
X84264500Y-48127000D01*
X84264500Y-48951250D01*
X84423250Y-49110000D01*
X84675000Y-49113072D01*
X84799482Y-49100812D01*
X84919180Y-49064502D01*
X85029494Y-49005537D01*
X85077394Y-48966226D01*
X85227433Y-49046423D01*
X85391684Y-49096248D01*
X85562500Y-49113072D01*
X85720501Y-49113072D01*
X85720501Y-49467749D01*
X85564500Y-49623750D01*
X85564500Y-50873000D01*
X85584500Y-50873000D01*
X85584500Y-51127000D01*
X85564500Y-51127000D01*
X85564500Y-52376250D01*
X85720500Y-52532250D01*
X85720500Y-54462898D01*
X84213298Y-55970101D01*
X84184300Y-55993899D01*
X84160502Y-56022897D01*
X84160501Y-56022898D01*
X84089326Y-56109624D01*
X84018754Y-56241654D01*
X83975298Y-56384915D01*
X83960624Y-56533900D01*
X83964301Y-56571232D01*
X83964301Y-57143261D01*
X83900000Y-57136928D01*
X83285750Y-57140000D01*
X83127000Y-57298750D01*
X83127000Y-58310500D01*
X83147000Y-58310500D01*
X83147000Y-58564500D01*
X83127000Y-58564500D01*
X83127000Y-59576250D01*
X83285750Y-59735000D01*
X83750374Y-59737324D01*
X83225770Y-60261928D01*
X82349997Y-60261928D01*
X82176743Y-60278992D01*
X82010148Y-60329528D01*
X81856612Y-60411595D01*
X81722037Y-60522037D01*
X81611595Y-60656612D01*
X81529528Y-60810148D01*
X81478992Y-60976743D01*
X81461928Y-61149997D01*
X79710000Y-61149997D01*
X79710000Y-59100000D01*
X81461928Y-59100000D01*
X81474188Y-59224482D01*
X81510498Y-59344180D01*
X81569463Y-59454494D01*
X81648815Y-59551185D01*
X81745506Y-59630537D01*
X81855820Y-59689502D01*
X81975518Y-59725812D01*
X82100000Y-59738072D01*
X82714250Y-59735000D01*
X82873000Y-59576250D01*
X82873000Y-58564500D01*
X81623750Y-58564500D01*
X81465000Y-58723250D01*
X81461928Y-59100000D01*
X79710000Y-59100000D01*
X79710000Y-57775000D01*
X81461928Y-57775000D01*
X81465000Y-58151750D01*
X81623750Y-58310500D01*
X82873000Y-58310500D01*
X82873000Y-57298750D01*
X82714250Y-57140000D01*
X82100000Y-57136928D01*
X81975518Y-57149188D01*
X81855820Y-57185498D01*
X81745506Y-57244463D01*
X81648815Y-57323815D01*
X81569463Y-57420506D01*
X81510498Y-57530820D01*
X81474188Y-57650518D01*
X81461928Y-57775000D01*
X79710000Y-57775000D01*
X79710000Y-56627000D01*
X81500000Y-56627000D01*
X81524776Y-56624560D01*
X81548601Y-56617333D01*
X81570557Y-56605597D01*
X81589803Y-56589803D01*
X82589803Y-55589803D01*
X82605597Y-55570557D01*
X82617333Y-55548601D01*
X82624560Y-55524776D01*
X82627000Y-55500000D01*
X82627000Y-51900000D01*
X84136928Y-51900000D01*
X84149188Y-52024482D01*
X84185498Y-52144180D01*
X84244463Y-52254494D01*
X84323815Y-52351185D01*
X84420506Y-52430537D01*
X84530820Y-52489502D01*
X84650518Y-52525812D01*
X84775000Y-52538072D01*
X85151750Y-52535000D01*
X85310500Y-52376250D01*
X85310500Y-51127000D01*
X84298750Y-51127000D01*
X84140000Y-51285750D01*
X84136928Y-51900000D01*
X82627000Y-51900000D01*
X82627000Y-50100000D01*
X84136928Y-50100000D01*
X84140000Y-50714250D01*
X84298750Y-50873000D01*
X85310500Y-50873000D01*
X85310500Y-49623750D01*
X85151750Y-49465000D01*
X84775000Y-49461928D01*
X84650518Y-49474188D01*
X84530820Y-49510498D01*
X84420506Y-49569463D01*
X84323815Y-49648815D01*
X84244463Y-49745506D01*
X84185498Y-49855820D01*
X84149188Y-49975518D01*
X84136928Y-50100000D01*
X82627000Y-50100000D01*
X82627000Y-48475000D01*
X82961928Y-48475000D01*
X82974188Y-48599482D01*
X83010498Y-48719180D01*
X83069463Y-48829494D01*
X83148815Y-48926185D01*
X83245506Y-49005537D01*
X83355820Y-49064502D01*
X83475518Y-49100812D01*
X83600000Y-49113072D01*
X83851750Y-49110000D01*
X84010500Y-48951250D01*
X84010500Y-48127000D01*
X83123750Y-48127000D01*
X82965000Y-48285750D01*
X82961928Y-48475000D01*
X82627000Y-48475000D01*
X82627000Y-47525000D01*
X82961928Y-47525000D01*
X82965000Y-47714250D01*
X83123750Y-47873000D01*
X84010500Y-47873000D01*
X84010500Y-47048750D01*
X83851750Y-46890000D01*
X83600000Y-46886928D01*
X83475518Y-46899188D01*
X83355820Y-46935498D01*
X83245506Y-46994463D01*
X83148815Y-47073815D01*
X83069463Y-47170506D01*
X83010498Y-47280820D01*
X82974188Y-47400518D01*
X82961928Y-47525000D01*
X82627000Y-47525000D01*
X82627000Y-45900000D01*
X84136928Y-45900000D01*
X84149188Y-46024482D01*
X84185498Y-46144180D01*
X84244463Y-46254494D01*
X84323815Y-46351185D01*
X84420506Y-46430537D01*
X84530820Y-46489502D01*
X84650518Y-46525812D01*
X84775000Y-46538072D01*
X85151750Y-46535000D01*
X85310500Y-46376250D01*
X85310500Y-45127000D01*
X85564500Y-45127000D01*
X85564500Y-46376250D01*
X85723250Y-46535000D01*
X86100000Y-46538072D01*
X86224482Y-46525812D01*
X86344180Y-46489502D01*
X86454494Y-46430537D01*
X86551185Y-46351185D01*
X86630537Y-46254494D01*
X86689502Y-46144180D01*
X86725812Y-46024482D01*
X86738072Y-45900000D01*
X86735000Y-45285750D01*
X86576250Y-45127000D01*
X85564500Y-45127000D01*
X85310500Y-45127000D01*
X84298750Y-45127000D01*
X84140000Y-45285750D01*
X84136928Y-45900000D01*
X82627000Y-45900000D01*
X82627000Y-44100000D01*
X84136928Y-44100000D01*
X84140000Y-44714250D01*
X84298750Y-44873000D01*
X85310500Y-44873000D01*
X85310500Y-43623750D01*
X85564500Y-43623750D01*
X85564500Y-44873000D01*
X86576250Y-44873000D01*
X86735000Y-44714250D01*
X86738072Y-44100000D01*
X86725812Y-43975518D01*
X86689502Y-43855820D01*
X86630537Y-43745506D01*
X86551185Y-43648815D01*
X86454494Y-43569463D01*
X86344180Y-43510498D01*
X86224482Y-43474188D01*
X86100000Y-43461928D01*
X85723250Y-43465000D01*
X85564500Y-43623750D01*
X85310500Y-43623750D01*
X85151750Y-43465000D01*
X84775000Y-43461928D01*
X84650518Y-43474188D01*
X84530820Y-43510498D01*
X84420506Y-43569463D01*
X84323815Y-43648815D01*
X84244463Y-43745506D01*
X84185498Y-43855820D01*
X84149188Y-43975518D01*
X84136928Y-44100000D01*
X82627000Y-44100000D01*
X82627000Y-39710000D01*
X92866629Y-39710000D01*
X92863767Y-39710624D01*
G37*
%TD.AperFunction*%
D26*
X107075801Y-83080468D02*
X107072124Y-83117800D01*
X107075801Y-83155133D01*
X107084572Y-83244180D01*
X107086798Y-83266785D01*
X107130254Y-83410046D01*
X107200826Y-83542076D01*
X107262846Y-83617647D01*
X107295800Y-83657801D01*
X107324798Y-83681599D01*
X108094123Y-84450924D01*
X108029506Y-84485463D01*
X107932815Y-84564815D01*
X107853463Y-84661506D01*
X107794498Y-84771820D01*
X107758188Y-84891518D01*
X107745928Y-85016000D01*
X107745928Y-85271425D01*
X107634423Y-85331026D01*
X107559169Y-85392786D01*
X107518699Y-85425999D01*
X107494901Y-85454997D01*
X106762999Y-86186900D01*
X106601832Y-86186900D01*
X106615000Y-86120699D01*
X106615000Y-85872501D01*
X106566579Y-85629071D01*
X106471598Y-85399766D01*
X106333706Y-85193397D01*
X106158203Y-85017894D01*
X105951834Y-84880002D01*
X105722529Y-84785021D01*
X105479099Y-84736600D01*
X105230901Y-84736600D01*
X104987471Y-84785021D01*
X104807869Y-84859414D01*
X104793378Y-84847108D01*
X104684073Y-84786294D01*
X104565003Y-84747974D01*
X104461750Y-84736600D01*
X104303000Y-84895350D01*
X104303000Y-85007922D01*
X104231185Y-84920415D01*
X104134494Y-84841063D01*
X104066218Y-84804568D01*
X103998250Y-84736600D01*
X103907242Y-84746625D01*
X103904482Y-84745788D01*
X103780000Y-84733528D01*
X103690000Y-84733528D01*
X103690000Y-84616233D01*
X103693677Y-84578900D01*
X103679003Y-84429914D01*
X103635546Y-84286653D01*
X103564974Y-84154624D01*
X103493799Y-84067897D01*
X103470001Y-84038899D01*
X103441003Y-84015101D01*
X102210038Y-82784136D01*
X102250000Y-82788072D01*
X103750000Y-82788072D01*
X103874482Y-82775812D01*
X103994180Y-82739502D01*
X104104494Y-82680537D01*
X104150000Y-82643191D01*
X104195506Y-82680537D01*
X104305820Y-82739502D01*
X104425518Y-82775812D01*
X104550000Y-82788072D01*
X106050000Y-82788072D01*
X106174482Y-82775812D01*
X106294180Y-82739502D01*
X106404494Y-82680537D01*
X106501185Y-82601185D01*
X106580537Y-82504494D01*
X106639502Y-82394180D01*
X106675812Y-82274482D01*
X106688072Y-82150000D01*
X106688072Y-81910000D01*
X107075800Y-81910000D01*
X107075801Y-83080468D01*
%TA.AperFunction,Conductor*%
D27*
G36*
X107075801Y-83080468D02*
G01*
X107072124Y-83117800D01*
X107075801Y-83155133D01*
X107084572Y-83244180D01*
X107086798Y-83266785D01*
X107130254Y-83410046D01*
X107200826Y-83542076D01*
X107262846Y-83617647D01*
X107295800Y-83657801D01*
X107324798Y-83681599D01*
X108094123Y-84450924D01*
X108029506Y-84485463D01*
X107932815Y-84564815D01*
X107853463Y-84661506D01*
X107794498Y-84771820D01*
X107758188Y-84891518D01*
X107745928Y-85016000D01*
X107745928Y-85271425D01*
X107634423Y-85331026D01*
X107559169Y-85392786D01*
X107518699Y-85425999D01*
X107494901Y-85454997D01*
X106762999Y-86186900D01*
X106601832Y-86186900D01*
X106615000Y-86120699D01*
X106615000Y-85872501D01*
X106566579Y-85629071D01*
X106471598Y-85399766D01*
X106333706Y-85193397D01*
X106158203Y-85017894D01*
X105951834Y-84880002D01*
X105722529Y-84785021D01*
X105479099Y-84736600D01*
X105230901Y-84736600D01*
X104987471Y-84785021D01*
X104807869Y-84859414D01*
X104793378Y-84847108D01*
X104684073Y-84786294D01*
X104565003Y-84747974D01*
X104461750Y-84736600D01*
X104303000Y-84895350D01*
X104303000Y-85007922D01*
X104231185Y-84920415D01*
X104134494Y-84841063D01*
X104066218Y-84804568D01*
X103998250Y-84736600D01*
X103907242Y-84746625D01*
X103904482Y-84745788D01*
X103780000Y-84733528D01*
X103690000Y-84733528D01*
X103690000Y-84616233D01*
X103693677Y-84578900D01*
X103679003Y-84429914D01*
X103635546Y-84286653D01*
X103564974Y-84154624D01*
X103493799Y-84067897D01*
X103470001Y-84038899D01*
X103441003Y-84015101D01*
X102210038Y-82784136D01*
X102250000Y-82788072D01*
X103750000Y-82788072D01*
X103874482Y-82775812D01*
X103994180Y-82739502D01*
X104104494Y-82680537D01*
X104150000Y-82643191D01*
X104195506Y-82680537D01*
X104305820Y-82739502D01*
X104425518Y-82775812D01*
X104550000Y-82788072D01*
X106050000Y-82788072D01*
X106174482Y-82775812D01*
X106294180Y-82739502D01*
X106404494Y-82680537D01*
X106501185Y-82601185D01*
X106580537Y-82504494D01*
X106639502Y-82394180D01*
X106675812Y-82274482D01*
X106688072Y-82150000D01*
X106688072Y-81910000D01*
X107075800Y-81910000D01*
X107075801Y-83080468D01*
G37*
%TD.AperFunction*%
D26*
X97412000Y-58623000D02*
X97432000Y-58623000D01*
X97432000Y-58877000D01*
X97412000Y-58877000D01*
X97412000Y-60467502D01*
X97579001Y-60594408D01*
X97782197Y-60522702D01*
X97814411Y-60502022D01*
X97849454Y-60617547D01*
X97920026Y-60749576D01*
X98014999Y-60865301D01*
X98130724Y-60960274D01*
X98262753Y-61030846D01*
X98406014Y-61074303D01*
X98517667Y-61085300D01*
X98555000Y-61088977D01*
X98592333Y-61085300D01*
X100735199Y-61085300D01*
X103810900Y-64161002D01*
X103834699Y-64190001D01*
X103950424Y-64284974D01*
X104082453Y-64355546D01*
X104100433Y-64361000D01*
X104110498Y-64394180D01*
X104169463Y-64504494D01*
X104248815Y-64601185D01*
X104345506Y-64680537D01*
X104455820Y-64739502D01*
X104575518Y-64775812D01*
X104700000Y-64788072D01*
X106200000Y-64788072D01*
X106324482Y-64775812D01*
X106444180Y-64739502D01*
X106554494Y-64680537D01*
X106651185Y-64601185D01*
X106730537Y-64504494D01*
X106789502Y-64394180D01*
X106825812Y-64274482D01*
X106838072Y-64150000D01*
X106838072Y-63150000D01*
X106825812Y-63025518D01*
X106789502Y-62905820D01*
X106730537Y-62795506D01*
X106651185Y-62698815D01*
X106554494Y-62619463D01*
X106444180Y-62560498D01*
X106324482Y-62524188D01*
X106200000Y-62511928D01*
X104700000Y-62511928D01*
X104575518Y-62524188D01*
X104455820Y-62560498D01*
X104393377Y-62593875D01*
X102433048Y-60633547D01*
X102577696Y-60619300D01*
X102782219Y-60557259D01*
X102970710Y-60456509D01*
X103000000Y-60432471D01*
X103029290Y-60456509D01*
X103217780Y-60557259D01*
X103422303Y-60619300D01*
X103635000Y-60640249D01*
X103847696Y-60619300D01*
X104052219Y-60557259D01*
X104240710Y-60456509D01*
X104270000Y-60432471D01*
X104299290Y-60456509D01*
X104487780Y-60557259D01*
X104692303Y-60619300D01*
X104905000Y-60640249D01*
X105117696Y-60619300D01*
X105322219Y-60557259D01*
X105510710Y-60456509D01*
X105540000Y-60432471D01*
X105569290Y-60456509D01*
X105757780Y-60557259D01*
X105962303Y-60619300D01*
X106175000Y-60640249D01*
X106387696Y-60619300D01*
X106592219Y-60557259D01*
X106780710Y-60456509D01*
X106810000Y-60432471D01*
X106839290Y-60456509D01*
X107027780Y-60557259D01*
X107232303Y-60619300D01*
X107445000Y-60640249D01*
X107657696Y-60619300D01*
X107862219Y-60557259D01*
X108050710Y-60456509D01*
X108080000Y-60432471D01*
X108109290Y-60456509D01*
X108297780Y-60557259D01*
X108502303Y-60619300D01*
X108715000Y-60640249D01*
X108927696Y-60619300D01*
X109132219Y-60557259D01*
X109320710Y-60456509D01*
X109485922Y-60320922D01*
X109621509Y-60155710D01*
X109722259Y-59967220D01*
X109784300Y-59762697D01*
X109800000Y-59603294D01*
X109800000Y-58953701D01*
X113443997Y-62597700D01*
X113375211Y-62597700D01*
X113194571Y-62633632D01*
X113024411Y-62704114D01*
X112871272Y-62806438D01*
X112741038Y-62936672D01*
X112638714Y-63089811D01*
X112568232Y-63259971D01*
X112532300Y-63440611D01*
X112532300Y-63624789D01*
X112568232Y-63805429D01*
X112638714Y-63975589D01*
X112741038Y-64128728D01*
X112871272Y-64258962D01*
X113024411Y-64361286D01*
X113194571Y-64431768D01*
X113375211Y-64467700D01*
X113559389Y-64467700D01*
X113740029Y-64431768D01*
X113910189Y-64361286D01*
X114063328Y-64258962D01*
X114193562Y-64128728D01*
X114295886Y-63975589D01*
X114366368Y-63805429D01*
X114402300Y-63624789D01*
X114402300Y-63556003D01*
X114776000Y-63929703D01*
X114776001Y-67321068D01*
X114772324Y-67358400D01*
X114776001Y-67395733D01*
X114786998Y-67507386D01*
X114794162Y-67531002D01*
X114830454Y-67650646D01*
X114901026Y-67782676D01*
X114943391Y-67834297D01*
X114996000Y-67898401D01*
X115024998Y-67922199D01*
X115442896Y-68340097D01*
X115466699Y-68369101D01*
X115582424Y-68464074D01*
X115714453Y-68534646D01*
X115857714Y-68578103D01*
X115969367Y-68589100D01*
X115969376Y-68589100D01*
X116006699Y-68592776D01*
X116044022Y-68589100D01*
X117486078Y-68589100D01*
X117523400Y-68592776D01*
X117560722Y-68589100D01*
X117560733Y-68589100D01*
X117672386Y-68578103D01*
X117815647Y-68534646D01*
X117947676Y-68464074D01*
X118063401Y-68369101D01*
X118087203Y-68340098D01*
X118294229Y-68133072D01*
X118370770Y-68133072D01*
X118533705Y-68296008D01*
X118557499Y-68325001D01*
X118586492Y-68348795D01*
X118586496Y-68348799D01*
X118637887Y-68390974D01*
X118673224Y-68419974D01*
X118805253Y-68490546D01*
X118948514Y-68534003D01*
X119060167Y-68545000D01*
X119060176Y-68545000D01*
X119097499Y-68548676D01*
X119134822Y-68545000D01*
X122127678Y-68545000D01*
X122165000Y-68548676D01*
X122202322Y-68545000D01*
X122202333Y-68545000D01*
X122313986Y-68534003D01*
X122457247Y-68490546D01*
X122460910Y-68488588D01*
X117622447Y-73327051D01*
X117553494Y-73270463D01*
X117443180Y-73211498D01*
X117323482Y-73175188D01*
X117199000Y-73162928D01*
X115801000Y-73162928D01*
X115676518Y-73175188D01*
X115556820Y-73211498D01*
X115446506Y-73270463D01*
X115349815Y-73349815D01*
X115270463Y-73446506D01*
X115211498Y-73556820D01*
X115175188Y-73676518D01*
X115162928Y-73801000D01*
X115162928Y-75199000D01*
X115175188Y-75323482D01*
X115211498Y-75443180D01*
X115270463Y-75553494D01*
X115349815Y-75650185D01*
X115446506Y-75729537D01*
X115556820Y-75788502D01*
X115676518Y-75824812D01*
X115801000Y-75837072D01*
X117188214Y-75837072D01*
X117138114Y-75857824D01*
X116919624Y-76003814D01*
X116733814Y-76189624D01*
X116673427Y-76280000D01*
X116422633Y-76280000D01*
X116385300Y-76276323D01*
X116347967Y-76280000D01*
X116236314Y-76290997D01*
X116093053Y-76334454D01*
X115961024Y-76405026D01*
X115845299Y-76499999D01*
X115821501Y-76528997D01*
X110673056Y-81677443D01*
X110664537Y-81661506D01*
X110585185Y-81564815D01*
X110488494Y-81485463D01*
X110378180Y-81426498D01*
X110258482Y-81390188D01*
X110134000Y-81377928D01*
X109334000Y-81377928D01*
X109209518Y-81390188D01*
X109089820Y-81426498D01*
X108979506Y-81485463D01*
X108882815Y-81564815D01*
X108803463Y-81661506D01*
X108744498Y-81771820D01*
X108708188Y-81891518D01*
X108695928Y-82016000D01*
X108695928Y-82903127D01*
X108595800Y-82802999D01*
X108595800Y-81464801D01*
X111246703Y-78813899D01*
X111275701Y-78790101D01*
X111304067Y-78755537D01*
X111370674Y-78674377D01*
X111441246Y-78542347D01*
X111441641Y-78541046D01*
X111484703Y-78399086D01*
X111495700Y-78287433D01*
X111495700Y-78287423D01*
X111499376Y-78250100D01*
X111495700Y-78212777D01*
X111495700Y-76897123D01*
X111499376Y-76859800D01*
X111495700Y-76822477D01*
X111495700Y-76822467D01*
X111484703Y-76710814D01*
X111441246Y-76567553D01*
X111430795Y-76548000D01*
X111370674Y-76435523D01*
X111325547Y-76380537D01*
X111275701Y-76319799D01*
X111246698Y-76295997D01*
X110823204Y-75872503D01*
X110799401Y-75843499D01*
X110683676Y-75748526D01*
X110598931Y-75703228D01*
X110644180Y-75689502D01*
X110754494Y-75630537D01*
X110851185Y-75551185D01*
X110930537Y-75454494D01*
X110989502Y-75344180D01*
X111025812Y-75224482D01*
X111038072Y-75100000D01*
X111035000Y-74723250D01*
X110876250Y-74564500D01*
X109627000Y-74564500D01*
X109627000Y-74584500D01*
X109373000Y-74584500D01*
X109373000Y-74564500D01*
X109353000Y-74564500D01*
X109353000Y-74310500D01*
X109373000Y-74310500D01*
X109373000Y-73298750D01*
X109627000Y-73298750D01*
X109627000Y-74310500D01*
X110876250Y-74310500D01*
X111035000Y-74151750D01*
X111038072Y-73775000D01*
X111025812Y-73650518D01*
X110989502Y-73530820D01*
X110930537Y-73420506D01*
X110851185Y-73323815D01*
X110754494Y-73244463D01*
X110644180Y-73185498D01*
X110524482Y-73149188D01*
X110400000Y-73136928D01*
X109785750Y-73140000D01*
X109627000Y-73298750D01*
X109373000Y-73298750D01*
X109214250Y-73140000D01*
X108600000Y-73136928D01*
X108475518Y-73149188D01*
X108355820Y-73185498D01*
X108245506Y-73244463D01*
X108148815Y-73323815D01*
X108069463Y-73420506D01*
X108010498Y-73530820D01*
X107974188Y-73650518D01*
X107961928Y-73775000D01*
X107964265Y-74061664D01*
X105317204Y-71414603D01*
X105293401Y-71385599D01*
X105177676Y-71290626D01*
X105045647Y-71220054D01*
X104993990Y-71204384D01*
X105025812Y-71099482D01*
X105038072Y-70975000D01*
X105035000Y-70785750D01*
X104876250Y-70627000D01*
X103989500Y-70627000D01*
X103989500Y-70647000D01*
X103735500Y-70647000D01*
X103735500Y-70627000D01*
X103715500Y-70627000D01*
X103715500Y-70373000D01*
X103735500Y-70373000D01*
X103735500Y-69548750D01*
X103989500Y-69548750D01*
X103989500Y-70373000D01*
X104876250Y-70373000D01*
X105035000Y-70214250D01*
X105038072Y-70025000D01*
X105025812Y-69900518D01*
X104989502Y-69780820D01*
X104930537Y-69670506D01*
X104851185Y-69573815D01*
X104754494Y-69494463D01*
X104644180Y-69435498D01*
X104524482Y-69399188D01*
X104400000Y-69386928D01*
X104148250Y-69390000D01*
X103989500Y-69548750D01*
X103735500Y-69548750D01*
X103576750Y-69390000D01*
X103325000Y-69386928D01*
X103200518Y-69399188D01*
X103080820Y-69435498D01*
X102970506Y-69494463D01*
X102922606Y-69533774D01*
X102897500Y-69520355D01*
X102897500Y-67350000D01*
X104061928Y-67350000D01*
X104074188Y-67474482D01*
X104110498Y-67594180D01*
X104169463Y-67704494D01*
X104248815Y-67801185D01*
X104345506Y-67880537D01*
X104455820Y-67939502D01*
X104575518Y-67975812D01*
X104700000Y-67988072D01*
X105164250Y-67985000D01*
X105323000Y-67826250D01*
X105323000Y-66977000D01*
X105577000Y-66977000D01*
X105577000Y-67826250D01*
X105735750Y-67985000D01*
X106200000Y-67988072D01*
X106324482Y-67975812D01*
X106444180Y-67939502D01*
X106554494Y-67880537D01*
X106651185Y-67801185D01*
X106730537Y-67704494D01*
X106789502Y-67594180D01*
X106825812Y-67474482D01*
X106838072Y-67350000D01*
X106835000Y-67135750D01*
X106676250Y-66977000D01*
X105577000Y-66977000D01*
X105323000Y-66977000D01*
X104223750Y-66977000D01*
X104065000Y-67135750D01*
X104061928Y-67350000D01*
X102897500Y-67350000D01*
X102897500Y-66350000D01*
X104061928Y-66350000D01*
X104065000Y-66564250D01*
X104223750Y-66723000D01*
X105323000Y-66723000D01*
X105323000Y-65873750D01*
X105577000Y-65873750D01*
X105577000Y-66723000D01*
X106676250Y-66723000D01*
X106835000Y-66564250D01*
X106838072Y-66350000D01*
X106825812Y-66225518D01*
X106789502Y-66105820D01*
X106730537Y-65995506D01*
X106651185Y-65898815D01*
X106554494Y-65819463D01*
X106444180Y-65760498D01*
X106324482Y-65724188D01*
X106200000Y-65711928D01*
X105735750Y-65715000D01*
X105577000Y-65873750D01*
X105323000Y-65873750D01*
X105164250Y-65715000D01*
X104700000Y-65711928D01*
X104575518Y-65724188D01*
X104455820Y-65760498D01*
X104345506Y-65819463D01*
X104248815Y-65898815D01*
X104169463Y-65995506D01*
X104110498Y-66105820D01*
X104074188Y-66225518D01*
X104061928Y-66350000D01*
X102897500Y-66350000D01*
X102897500Y-64199522D01*
X102901176Y-64162199D01*
X102897500Y-64124876D01*
X102897500Y-64124867D01*
X102886503Y-64013214D01*
X102843046Y-63869953D01*
X102772474Y-63737924D01*
X102677501Y-63622199D01*
X102648503Y-63598402D01*
X102189103Y-63139002D01*
X102165301Y-63109999D01*
X102049576Y-63015026D01*
X101917547Y-62944454D01*
X101899567Y-62939000D01*
X101889502Y-62905820D01*
X101830537Y-62795506D01*
X101751185Y-62698815D01*
X101654494Y-62619463D01*
X101544180Y-62560498D01*
X101424482Y-62524188D01*
X101300000Y-62511928D01*
X99800000Y-62511928D01*
X99675518Y-62524188D01*
X99555820Y-62560498D01*
X99445506Y-62619463D01*
X99348815Y-62698815D01*
X99269463Y-62795506D01*
X99210498Y-62905820D01*
X99174188Y-63025518D01*
X99161928Y-63150000D01*
X99161928Y-64150000D01*
X99174188Y-64274482D01*
X99210498Y-64394180D01*
X99269463Y-64504494D01*
X99348815Y-64601185D01*
X99445506Y-64680537D01*
X99555820Y-64739502D01*
X99675518Y-64775812D01*
X99800000Y-64788072D01*
X101300000Y-64788072D01*
X101377500Y-64780439D01*
X101377500Y-65719561D01*
X101300000Y-65711928D01*
X99800000Y-65711928D01*
X99675518Y-65724188D01*
X99555820Y-65760498D01*
X99445506Y-65819463D01*
X99348815Y-65898815D01*
X99269463Y-65995506D01*
X99210498Y-66105820D01*
X99174188Y-66225518D01*
X99161928Y-66350000D01*
X99161928Y-67350000D01*
X99174188Y-67474482D01*
X99210498Y-67594180D01*
X99269463Y-67704494D01*
X99348815Y-67801185D01*
X99445506Y-67880537D01*
X99555820Y-67939502D01*
X99675518Y-67975812D01*
X99800000Y-67988072D01*
X101300000Y-67988072D01*
X101377501Y-67980439D01*
X101377501Y-69520354D01*
X101351058Y-69534488D01*
X101218377Y-69643377D01*
X101109488Y-69776058D01*
X101028577Y-69927433D01*
X100978752Y-70091684D01*
X100961928Y-70262500D01*
X100961928Y-70737500D01*
X100978752Y-70908316D01*
X101028577Y-71072567D01*
X101109488Y-71223942D01*
X101218377Y-71356623D01*
X101351058Y-71465512D01*
X101377500Y-71479646D01*
X101377500Y-71610798D01*
X98092000Y-74896299D01*
X98038072Y-74842370D01*
X98038072Y-74024997D01*
X98021008Y-73851743D01*
X97970472Y-73685148D01*
X97888405Y-73531612D01*
X97777963Y-73397037D01*
X97643388Y-73286595D01*
X97489852Y-73204528D01*
X97323257Y-73153992D01*
X97150003Y-73136928D01*
X96397273Y-73136928D01*
X97264304Y-72269898D01*
X97293301Y-72246101D01*
X97388274Y-72130376D01*
X97458846Y-71998347D01*
X97502303Y-71855086D01*
X97513300Y-71743433D01*
X97513300Y-71743423D01*
X97516976Y-71706100D01*
X97513300Y-71668777D01*
X97513300Y-63741222D01*
X97516976Y-63703899D01*
X97513300Y-63666577D01*
X97513300Y-63666567D01*
X97502303Y-63554914D01*
X97458846Y-63411653D01*
X97430036Y-63357754D01*
X97388274Y-63279623D01*
X97317099Y-63192897D01*
X97293301Y-63163899D01*
X97264303Y-63140101D01*
X96613072Y-62488871D01*
X96613072Y-62337500D01*
X96596248Y-62166684D01*
X96546423Y-62002433D01*
X96465512Y-61851058D01*
X96356623Y-61718377D01*
X96337279Y-61702502D01*
X96399068Y-61553329D01*
X96435000Y-61372689D01*
X96435000Y-61188511D01*
X96399068Y-61007871D01*
X96328586Y-60837711D01*
X96226262Y-60684572D01*
X96096028Y-60554338D01*
X95942889Y-60452014D01*
X95772729Y-60381532D01*
X95592089Y-60345600D01*
X95407911Y-60345600D01*
X95227271Y-60381532D01*
X95057111Y-60452014D01*
X94903972Y-60554338D01*
X94794096Y-60664214D01*
X94776562Y-60637972D01*
X94646328Y-60507738D01*
X94493189Y-60405414D01*
X94471692Y-60396510D01*
X95991202Y-58877000D01*
X96200000Y-58877000D01*
X96200000Y-59677000D01*
X96245624Y-59886233D01*
X96331191Y-60082545D01*
X96453413Y-60258391D01*
X96607592Y-60407014D01*
X96787803Y-60522702D01*
X96990999Y-60594408D01*
X97158000Y-60467502D01*
X97158000Y-58877000D01*
X96200000Y-58877000D01*
X95991202Y-58877000D01*
X96245202Y-58623000D01*
X97158000Y-58623000D01*
X97158000Y-58603000D01*
X97412000Y-58603000D01*
X97412000Y-58623000D01*
%TA.AperFunction,Conductor*%
D27*
G36*
X97412000Y-58623000D02*
G01*
X97432000Y-58623000D01*
X97432000Y-58877000D01*
X97412000Y-58877000D01*
X97412000Y-60467502D01*
X97579001Y-60594408D01*
X97782197Y-60522702D01*
X97814411Y-60502022D01*
X97849454Y-60617547D01*
X97920026Y-60749576D01*
X98014999Y-60865301D01*
X98130724Y-60960274D01*
X98262753Y-61030846D01*
X98406014Y-61074303D01*
X98517667Y-61085300D01*
X98555000Y-61088977D01*
X98592333Y-61085300D01*
X100735199Y-61085300D01*
X103810900Y-64161002D01*
X103834699Y-64190001D01*
X103950424Y-64284974D01*
X104082453Y-64355546D01*
X104100433Y-64361000D01*
X104110498Y-64394180D01*
X104169463Y-64504494D01*
X104248815Y-64601185D01*
X104345506Y-64680537D01*
X104455820Y-64739502D01*
X104575518Y-64775812D01*
X104700000Y-64788072D01*
X106200000Y-64788072D01*
X106324482Y-64775812D01*
X106444180Y-64739502D01*
X106554494Y-64680537D01*
X106651185Y-64601185D01*
X106730537Y-64504494D01*
X106789502Y-64394180D01*
X106825812Y-64274482D01*
X106838072Y-64150000D01*
X106838072Y-63150000D01*
X106825812Y-63025518D01*
X106789502Y-62905820D01*
X106730537Y-62795506D01*
X106651185Y-62698815D01*
X106554494Y-62619463D01*
X106444180Y-62560498D01*
X106324482Y-62524188D01*
X106200000Y-62511928D01*
X104700000Y-62511928D01*
X104575518Y-62524188D01*
X104455820Y-62560498D01*
X104393377Y-62593875D01*
X102433048Y-60633547D01*
X102577696Y-60619300D01*
X102782219Y-60557259D01*
X102970710Y-60456509D01*
X103000000Y-60432471D01*
X103029290Y-60456509D01*
X103217780Y-60557259D01*
X103422303Y-60619300D01*
X103635000Y-60640249D01*
X103847696Y-60619300D01*
X104052219Y-60557259D01*
X104240710Y-60456509D01*
X104270000Y-60432471D01*
X104299290Y-60456509D01*
X104487780Y-60557259D01*
X104692303Y-60619300D01*
X104905000Y-60640249D01*
X105117696Y-60619300D01*
X105322219Y-60557259D01*
X105510710Y-60456509D01*
X105540000Y-60432471D01*
X105569290Y-60456509D01*
X105757780Y-60557259D01*
X105962303Y-60619300D01*
X106175000Y-60640249D01*
X106387696Y-60619300D01*
X106592219Y-60557259D01*
X106780710Y-60456509D01*
X106810000Y-60432471D01*
X106839290Y-60456509D01*
X107027780Y-60557259D01*
X107232303Y-60619300D01*
X107445000Y-60640249D01*
X107657696Y-60619300D01*
X107862219Y-60557259D01*
X108050710Y-60456509D01*
X108080000Y-60432471D01*
X108109290Y-60456509D01*
X108297780Y-60557259D01*
X108502303Y-60619300D01*
X108715000Y-60640249D01*
X108927696Y-60619300D01*
X109132219Y-60557259D01*
X109320710Y-60456509D01*
X109485922Y-60320922D01*
X109621509Y-60155710D01*
X109722259Y-59967220D01*
X109784300Y-59762697D01*
X109800000Y-59603294D01*
X109800000Y-58953701D01*
X113443997Y-62597700D01*
X113375211Y-62597700D01*
X113194571Y-62633632D01*
X113024411Y-62704114D01*
X112871272Y-62806438D01*
X112741038Y-62936672D01*
X112638714Y-63089811D01*
X112568232Y-63259971D01*
X112532300Y-63440611D01*
X112532300Y-63624789D01*
X112568232Y-63805429D01*
X112638714Y-63975589D01*
X112741038Y-64128728D01*
X112871272Y-64258962D01*
X113024411Y-64361286D01*
X113194571Y-64431768D01*
X113375211Y-64467700D01*
X113559389Y-64467700D01*
X113740029Y-64431768D01*
X113910189Y-64361286D01*
X114063328Y-64258962D01*
X114193562Y-64128728D01*
X114295886Y-63975589D01*
X114366368Y-63805429D01*
X114402300Y-63624789D01*
X114402300Y-63556003D01*
X114776000Y-63929703D01*
X114776001Y-67321068D01*
X114772324Y-67358400D01*
X114776001Y-67395733D01*
X114786998Y-67507386D01*
X114794162Y-67531002D01*
X114830454Y-67650646D01*
X114901026Y-67782676D01*
X114943391Y-67834297D01*
X114996000Y-67898401D01*
X115024998Y-67922199D01*
X115442896Y-68340097D01*
X115466699Y-68369101D01*
X115582424Y-68464074D01*
X115714453Y-68534646D01*
X115857714Y-68578103D01*
X115969367Y-68589100D01*
X115969376Y-68589100D01*
X116006699Y-68592776D01*
X116044022Y-68589100D01*
X117486078Y-68589100D01*
X117523400Y-68592776D01*
X117560722Y-68589100D01*
X117560733Y-68589100D01*
X117672386Y-68578103D01*
X117815647Y-68534646D01*
X117947676Y-68464074D01*
X118063401Y-68369101D01*
X118087203Y-68340098D01*
X118294229Y-68133072D01*
X118370770Y-68133072D01*
X118533705Y-68296008D01*
X118557499Y-68325001D01*
X118586492Y-68348795D01*
X118586496Y-68348799D01*
X118637887Y-68390974D01*
X118673224Y-68419974D01*
X118805253Y-68490546D01*
X118948514Y-68534003D01*
X119060167Y-68545000D01*
X119060176Y-68545000D01*
X119097499Y-68548676D01*
X119134822Y-68545000D01*
X122127678Y-68545000D01*
X122165000Y-68548676D01*
X122202322Y-68545000D01*
X122202333Y-68545000D01*
X122313986Y-68534003D01*
X122457247Y-68490546D01*
X122460910Y-68488588D01*
X117622447Y-73327051D01*
X117553494Y-73270463D01*
X117443180Y-73211498D01*
X117323482Y-73175188D01*
X117199000Y-73162928D01*
X115801000Y-73162928D01*
X115676518Y-73175188D01*
X115556820Y-73211498D01*
X115446506Y-73270463D01*
X115349815Y-73349815D01*
X115270463Y-73446506D01*
X115211498Y-73556820D01*
X115175188Y-73676518D01*
X115162928Y-73801000D01*
X115162928Y-75199000D01*
X115175188Y-75323482D01*
X115211498Y-75443180D01*
X115270463Y-75553494D01*
X115349815Y-75650185D01*
X115446506Y-75729537D01*
X115556820Y-75788502D01*
X115676518Y-75824812D01*
X115801000Y-75837072D01*
X117188214Y-75837072D01*
X117138114Y-75857824D01*
X116919624Y-76003814D01*
X116733814Y-76189624D01*
X116673427Y-76280000D01*
X116422633Y-76280000D01*
X116385300Y-76276323D01*
X116347967Y-76280000D01*
X116236314Y-76290997D01*
X116093053Y-76334454D01*
X115961024Y-76405026D01*
X115845299Y-76499999D01*
X115821501Y-76528997D01*
X110673056Y-81677443D01*
X110664537Y-81661506D01*
X110585185Y-81564815D01*
X110488494Y-81485463D01*
X110378180Y-81426498D01*
X110258482Y-81390188D01*
X110134000Y-81377928D01*
X109334000Y-81377928D01*
X109209518Y-81390188D01*
X109089820Y-81426498D01*
X108979506Y-81485463D01*
X108882815Y-81564815D01*
X108803463Y-81661506D01*
X108744498Y-81771820D01*
X108708188Y-81891518D01*
X108695928Y-82016000D01*
X108695928Y-82903127D01*
X108595800Y-82802999D01*
X108595800Y-81464801D01*
X111246703Y-78813899D01*
X111275701Y-78790101D01*
X111304067Y-78755537D01*
X111370674Y-78674377D01*
X111441246Y-78542347D01*
X111441641Y-78541046D01*
X111484703Y-78399086D01*
X111495700Y-78287433D01*
X111495700Y-78287423D01*
X111499376Y-78250100D01*
X111495700Y-78212777D01*
X111495700Y-76897123D01*
X111499376Y-76859800D01*
X111495700Y-76822477D01*
X111495700Y-76822467D01*
X111484703Y-76710814D01*
X111441246Y-76567553D01*
X111430795Y-76548000D01*
X111370674Y-76435523D01*
X111325547Y-76380537D01*
X111275701Y-76319799D01*
X111246698Y-76295997D01*
X110823204Y-75872503D01*
X110799401Y-75843499D01*
X110683676Y-75748526D01*
X110598931Y-75703228D01*
X110644180Y-75689502D01*
X110754494Y-75630537D01*
X110851185Y-75551185D01*
X110930537Y-75454494D01*
X110989502Y-75344180D01*
X111025812Y-75224482D01*
X111038072Y-75100000D01*
X111035000Y-74723250D01*
X110876250Y-74564500D01*
X109627000Y-74564500D01*
X109627000Y-74584500D01*
X109373000Y-74584500D01*
X109373000Y-74564500D01*
X109353000Y-74564500D01*
X109353000Y-74310500D01*
X109373000Y-74310500D01*
X109373000Y-73298750D01*
X109627000Y-73298750D01*
X109627000Y-74310500D01*
X110876250Y-74310500D01*
X111035000Y-74151750D01*
X111038072Y-73775000D01*
X111025812Y-73650518D01*
X110989502Y-73530820D01*
X110930537Y-73420506D01*
X110851185Y-73323815D01*
X110754494Y-73244463D01*
X110644180Y-73185498D01*
X110524482Y-73149188D01*
X110400000Y-73136928D01*
X109785750Y-73140000D01*
X109627000Y-73298750D01*
X109373000Y-73298750D01*
X109214250Y-73140000D01*
X108600000Y-73136928D01*
X108475518Y-73149188D01*
X108355820Y-73185498D01*
X108245506Y-73244463D01*
X108148815Y-73323815D01*
X108069463Y-73420506D01*
X108010498Y-73530820D01*
X107974188Y-73650518D01*
X107961928Y-73775000D01*
X107964265Y-74061664D01*
X105317204Y-71414603D01*
X105293401Y-71385599D01*
X105177676Y-71290626D01*
X105045647Y-71220054D01*
X104993990Y-71204384D01*
X105025812Y-71099482D01*
X105038072Y-70975000D01*
X105035000Y-70785750D01*
X104876250Y-70627000D01*
X103989500Y-70627000D01*
X103989500Y-70647000D01*
X103735500Y-70647000D01*
X103735500Y-70627000D01*
X103715500Y-70627000D01*
X103715500Y-70373000D01*
X103735500Y-70373000D01*
X103735500Y-69548750D01*
X103989500Y-69548750D01*
X103989500Y-70373000D01*
X104876250Y-70373000D01*
X105035000Y-70214250D01*
X105038072Y-70025000D01*
X105025812Y-69900518D01*
X104989502Y-69780820D01*
X104930537Y-69670506D01*
X104851185Y-69573815D01*
X104754494Y-69494463D01*
X104644180Y-69435498D01*
X104524482Y-69399188D01*
X104400000Y-69386928D01*
X104148250Y-69390000D01*
X103989500Y-69548750D01*
X103735500Y-69548750D01*
X103576750Y-69390000D01*
X103325000Y-69386928D01*
X103200518Y-69399188D01*
X103080820Y-69435498D01*
X102970506Y-69494463D01*
X102922606Y-69533774D01*
X102897500Y-69520355D01*
X102897500Y-67350000D01*
X104061928Y-67350000D01*
X104074188Y-67474482D01*
X104110498Y-67594180D01*
X104169463Y-67704494D01*
X104248815Y-67801185D01*
X104345506Y-67880537D01*
X104455820Y-67939502D01*
X104575518Y-67975812D01*
X104700000Y-67988072D01*
X105164250Y-67985000D01*
X105323000Y-67826250D01*
X105323000Y-66977000D01*
X105577000Y-66977000D01*
X105577000Y-67826250D01*
X105735750Y-67985000D01*
X106200000Y-67988072D01*
X106324482Y-67975812D01*
X106444180Y-67939502D01*
X106554494Y-67880537D01*
X106651185Y-67801185D01*
X106730537Y-67704494D01*
X106789502Y-67594180D01*
X106825812Y-67474482D01*
X106838072Y-67350000D01*
X106835000Y-67135750D01*
X106676250Y-66977000D01*
X105577000Y-66977000D01*
X105323000Y-66977000D01*
X104223750Y-66977000D01*
X104065000Y-67135750D01*
X104061928Y-67350000D01*
X102897500Y-67350000D01*
X102897500Y-66350000D01*
X104061928Y-66350000D01*
X104065000Y-66564250D01*
X104223750Y-66723000D01*
X105323000Y-66723000D01*
X105323000Y-65873750D01*
X105577000Y-65873750D01*
X105577000Y-66723000D01*
X106676250Y-66723000D01*
X106835000Y-66564250D01*
X106838072Y-66350000D01*
X106825812Y-66225518D01*
X106789502Y-66105820D01*
X106730537Y-65995506D01*
X106651185Y-65898815D01*
X106554494Y-65819463D01*
X106444180Y-65760498D01*
X106324482Y-65724188D01*
X106200000Y-65711928D01*
X105735750Y-65715000D01*
X105577000Y-65873750D01*
X105323000Y-65873750D01*
X105164250Y-65715000D01*
X104700000Y-65711928D01*
X104575518Y-65724188D01*
X104455820Y-65760498D01*
X104345506Y-65819463D01*
X104248815Y-65898815D01*
X104169463Y-65995506D01*
X104110498Y-66105820D01*
X104074188Y-66225518D01*
X104061928Y-66350000D01*
X102897500Y-66350000D01*
X102897500Y-64199522D01*
X102901176Y-64162199D01*
X102897500Y-64124876D01*
X102897500Y-64124867D01*
X102886503Y-64013214D01*
X102843046Y-63869953D01*
X102772474Y-63737924D01*
X102677501Y-63622199D01*
X102648503Y-63598402D01*
X102189103Y-63139002D01*
X102165301Y-63109999D01*
X102049576Y-63015026D01*
X101917547Y-62944454D01*
X101899567Y-62939000D01*
X101889502Y-62905820D01*
X101830537Y-62795506D01*
X101751185Y-62698815D01*
X101654494Y-62619463D01*
X101544180Y-62560498D01*
X101424482Y-62524188D01*
X101300000Y-62511928D01*
X99800000Y-62511928D01*
X99675518Y-62524188D01*
X99555820Y-62560498D01*
X99445506Y-62619463D01*
X99348815Y-62698815D01*
X99269463Y-62795506D01*
X99210498Y-62905820D01*
X99174188Y-63025518D01*
X99161928Y-63150000D01*
X99161928Y-64150000D01*
X99174188Y-64274482D01*
X99210498Y-64394180D01*
X99269463Y-64504494D01*
X99348815Y-64601185D01*
X99445506Y-64680537D01*
X99555820Y-64739502D01*
X99675518Y-64775812D01*
X99800000Y-64788072D01*
X101300000Y-64788072D01*
X101377500Y-64780439D01*
X101377500Y-65719561D01*
X101300000Y-65711928D01*
X99800000Y-65711928D01*
X99675518Y-65724188D01*
X99555820Y-65760498D01*
X99445506Y-65819463D01*
X99348815Y-65898815D01*
X99269463Y-65995506D01*
X99210498Y-66105820D01*
X99174188Y-66225518D01*
X99161928Y-66350000D01*
X99161928Y-67350000D01*
X99174188Y-67474482D01*
X99210498Y-67594180D01*
X99269463Y-67704494D01*
X99348815Y-67801185D01*
X99445506Y-67880537D01*
X99555820Y-67939502D01*
X99675518Y-67975812D01*
X99800000Y-67988072D01*
X101300000Y-67988072D01*
X101377501Y-67980439D01*
X101377501Y-69520354D01*
X101351058Y-69534488D01*
X101218377Y-69643377D01*
X101109488Y-69776058D01*
X101028577Y-69927433D01*
X100978752Y-70091684D01*
X100961928Y-70262500D01*
X100961928Y-70737500D01*
X100978752Y-70908316D01*
X101028577Y-71072567D01*
X101109488Y-71223942D01*
X101218377Y-71356623D01*
X101351058Y-71465512D01*
X101377500Y-71479646D01*
X101377500Y-71610798D01*
X98092000Y-74896299D01*
X98038072Y-74842370D01*
X98038072Y-74024997D01*
X98021008Y-73851743D01*
X97970472Y-73685148D01*
X97888405Y-73531612D01*
X97777963Y-73397037D01*
X97643388Y-73286595D01*
X97489852Y-73204528D01*
X97323257Y-73153992D01*
X97150003Y-73136928D01*
X96397273Y-73136928D01*
X97264304Y-72269898D01*
X97293301Y-72246101D01*
X97388274Y-72130376D01*
X97458846Y-71998347D01*
X97502303Y-71855086D01*
X97513300Y-71743433D01*
X97513300Y-71743423D01*
X97516976Y-71706100D01*
X97513300Y-71668777D01*
X97513300Y-63741222D01*
X97516976Y-63703899D01*
X97513300Y-63666577D01*
X97513300Y-63666567D01*
X97502303Y-63554914D01*
X97458846Y-63411653D01*
X97430036Y-63357754D01*
X97388274Y-63279623D01*
X97317099Y-63192897D01*
X97293301Y-63163899D01*
X97264303Y-63140101D01*
X96613072Y-62488871D01*
X96613072Y-62337500D01*
X96596248Y-62166684D01*
X96546423Y-62002433D01*
X96465512Y-61851058D01*
X96356623Y-61718377D01*
X96337279Y-61702502D01*
X96399068Y-61553329D01*
X96435000Y-61372689D01*
X96435000Y-61188511D01*
X96399068Y-61007871D01*
X96328586Y-60837711D01*
X96226262Y-60684572D01*
X96096028Y-60554338D01*
X95942889Y-60452014D01*
X95772729Y-60381532D01*
X95592089Y-60345600D01*
X95407911Y-60345600D01*
X95227271Y-60381532D01*
X95057111Y-60452014D01*
X94903972Y-60554338D01*
X94794096Y-60664214D01*
X94776562Y-60637972D01*
X94646328Y-60507738D01*
X94493189Y-60405414D01*
X94471692Y-60396510D01*
X95991202Y-58877000D01*
X96200000Y-58877000D01*
X96200000Y-59677000D01*
X96245624Y-59886233D01*
X96331191Y-60082545D01*
X96453413Y-60258391D01*
X96607592Y-60407014D01*
X96787803Y-60522702D01*
X96990999Y-60594408D01*
X97158000Y-60467502D01*
X97158000Y-58877000D01*
X96200000Y-58877000D01*
X95991202Y-58877000D01*
X96245202Y-58623000D01*
X97158000Y-58623000D01*
X97158000Y-58603000D01*
X97412000Y-58603000D01*
X97412000Y-58623000D01*
G37*
%TD.AperFunction*%
D26*
X100827000Y-81023000D02*
X100847000Y-81023000D01*
X100847000Y-81277000D01*
X100827000Y-81277000D01*
X100827000Y-81297000D01*
X100573000Y-81297000D01*
X100573000Y-81277000D01*
X100553000Y-81277000D01*
X100553000Y-81023000D01*
X100573000Y-81023000D01*
X100573000Y-81003000D01*
X100827000Y-81003000D01*
X100827000Y-81023000D01*
%TA.AperFunction,Conductor*%
D27*
G36*
X100827000Y-81023000D02*
G01*
X100847000Y-81023000D01*
X100847000Y-81277000D01*
X100827000Y-81277000D01*
X100827000Y-81297000D01*
X100573000Y-81297000D01*
X100573000Y-81277000D01*
X100553000Y-81277000D01*
X100553000Y-81023000D01*
X100573000Y-81023000D01*
X100573000Y-81003000D01*
X100827000Y-81003000D01*
X100827000Y-81023000D01*
G37*
%TD.AperFunction*%
D26*
X95993300Y-71391298D02*
X94741698Y-72642901D01*
X94712700Y-72666699D01*
X94688902Y-72695697D01*
X94688901Y-72695698D01*
X94617726Y-72782424D01*
X94547154Y-72914454D01*
X94516880Y-73014258D01*
X94503698Y-73057714D01*
X94494215Y-73153992D01*
X94489024Y-73206700D01*
X94492701Y-73244032D01*
X94492700Y-75057777D01*
X94489024Y-75095100D01*
X94492700Y-75132422D01*
X94492700Y-75132432D01*
X94503697Y-75244085D01*
X94542819Y-75373054D01*
X94547154Y-75387346D01*
X94617726Y-75519376D01*
X94645726Y-75553494D01*
X94712699Y-75635101D01*
X94741703Y-75658904D01*
X95095596Y-76012797D01*
X95119399Y-76041801D01*
X95235124Y-76136774D01*
X95367153Y-76207346D01*
X95510414Y-76250803D01*
X95622067Y-76261800D01*
X95622075Y-76261800D01*
X95624625Y-76262051D01*
X95600000Y-76261928D01*
X95475518Y-76274188D01*
X95355820Y-76310498D01*
X95245506Y-76369463D01*
X95148815Y-76448815D01*
X95069463Y-76545506D01*
X95010498Y-76655820D01*
X94974188Y-76775518D01*
X94961928Y-76900000D01*
X94965000Y-77276750D01*
X95123750Y-77435500D01*
X96373000Y-77435500D01*
X96373000Y-77415500D01*
X96627000Y-77415500D01*
X96627000Y-77435500D01*
X96647000Y-77435500D01*
X96647000Y-77689500D01*
X96627000Y-77689500D01*
X96627000Y-77709500D01*
X96373000Y-77709500D01*
X96373000Y-77689500D01*
X95123750Y-77689500D01*
X94965000Y-77848250D01*
X94961928Y-78225000D01*
X94974188Y-78349482D01*
X95010498Y-78469180D01*
X95069463Y-78579494D01*
X95148815Y-78676185D01*
X95245506Y-78755537D01*
X95355820Y-78814502D01*
X95475518Y-78850812D01*
X95600000Y-78863072D01*
X96062440Y-78860759D01*
X96009799Y-78913400D01*
X95253823Y-78913400D01*
X95216500Y-78909724D01*
X95179177Y-78913400D01*
X95179167Y-78913400D01*
X95067514Y-78924397D01*
X94924253Y-78967854D01*
X94792223Y-79038426D01*
X94740620Y-79080776D01*
X94676499Y-79133399D01*
X94652701Y-79162398D01*
X94013698Y-79801401D01*
X93984700Y-79825199D01*
X93984000Y-79826052D01*
X93984000Y-78198920D01*
X94080623Y-78119623D01*
X94189512Y-77986942D01*
X94270423Y-77835567D01*
X94320248Y-77671316D01*
X94337072Y-77500500D01*
X94337072Y-77000500D01*
X94320248Y-76829684D01*
X94270423Y-76665433D01*
X94189512Y-76514058D01*
X94100188Y-76405217D01*
X94150185Y-76364185D01*
X94229537Y-76267494D01*
X94288502Y-76157180D01*
X94324812Y-76037482D01*
X94337072Y-75913000D01*
X94334000Y-75711250D01*
X94175250Y-75552500D01*
X93351000Y-75552500D01*
X93351000Y-75572500D01*
X93182800Y-75572500D01*
X93182800Y-74461750D01*
X93351000Y-74461750D01*
X93351000Y-75298500D01*
X94175250Y-75298500D01*
X94334000Y-75139750D01*
X94337072Y-74938000D01*
X94324812Y-74813518D01*
X94288502Y-74693820D01*
X94229537Y-74583506D01*
X94150185Y-74486815D01*
X94053494Y-74407463D01*
X93943180Y-74348498D01*
X93823482Y-74312188D01*
X93699000Y-74299928D01*
X93509750Y-74303000D01*
X93351000Y-74461750D01*
X93182800Y-74461750D01*
X93182800Y-68241925D01*
X93186476Y-68204600D01*
X93182800Y-68167275D01*
X93182800Y-68167267D01*
X93171803Y-68055614D01*
X93128346Y-67912353D01*
X93057774Y-67780324D01*
X92962801Y-67664599D01*
X92933804Y-67640802D01*
X92345602Y-67052600D01*
X93582578Y-67052600D01*
X93619900Y-67056276D01*
X93657222Y-67052600D01*
X93657233Y-67052600D01*
X93768886Y-67041603D01*
X93912147Y-66998146D01*
X94044176Y-66927574D01*
X94159901Y-66832601D01*
X94183704Y-66803597D01*
X95449230Y-65538072D01*
X95737500Y-65538072D01*
X95908316Y-65521248D01*
X95993301Y-65495468D01*
X95993300Y-71391298D01*
%TA.AperFunction,Conductor*%
D27*
G36*
X95993300Y-71391298D02*
G01*
X94741698Y-72642901D01*
X94712700Y-72666699D01*
X94688902Y-72695697D01*
X94688901Y-72695698D01*
X94617726Y-72782424D01*
X94547154Y-72914454D01*
X94516880Y-73014258D01*
X94503698Y-73057714D01*
X94494215Y-73153992D01*
X94489024Y-73206700D01*
X94492701Y-73244032D01*
X94492700Y-75057777D01*
X94489024Y-75095100D01*
X94492700Y-75132422D01*
X94492700Y-75132432D01*
X94503697Y-75244085D01*
X94542819Y-75373054D01*
X94547154Y-75387346D01*
X94617726Y-75519376D01*
X94645726Y-75553494D01*
X94712699Y-75635101D01*
X94741703Y-75658904D01*
X95095596Y-76012797D01*
X95119399Y-76041801D01*
X95235124Y-76136774D01*
X95367153Y-76207346D01*
X95510414Y-76250803D01*
X95622067Y-76261800D01*
X95622075Y-76261800D01*
X95624625Y-76262051D01*
X95600000Y-76261928D01*
X95475518Y-76274188D01*
X95355820Y-76310498D01*
X95245506Y-76369463D01*
X95148815Y-76448815D01*
X95069463Y-76545506D01*
X95010498Y-76655820D01*
X94974188Y-76775518D01*
X94961928Y-76900000D01*
X94965000Y-77276750D01*
X95123750Y-77435500D01*
X96373000Y-77435500D01*
X96373000Y-77415500D01*
X96627000Y-77415500D01*
X96627000Y-77435500D01*
X96647000Y-77435500D01*
X96647000Y-77689500D01*
X96627000Y-77689500D01*
X96627000Y-77709500D01*
X96373000Y-77709500D01*
X96373000Y-77689500D01*
X95123750Y-77689500D01*
X94965000Y-77848250D01*
X94961928Y-78225000D01*
X94974188Y-78349482D01*
X95010498Y-78469180D01*
X95069463Y-78579494D01*
X95148815Y-78676185D01*
X95245506Y-78755537D01*
X95355820Y-78814502D01*
X95475518Y-78850812D01*
X95600000Y-78863072D01*
X96062440Y-78860759D01*
X96009799Y-78913400D01*
X95253823Y-78913400D01*
X95216500Y-78909724D01*
X95179177Y-78913400D01*
X95179167Y-78913400D01*
X95067514Y-78924397D01*
X94924253Y-78967854D01*
X94792223Y-79038426D01*
X94740620Y-79080776D01*
X94676499Y-79133399D01*
X94652701Y-79162398D01*
X94013698Y-79801401D01*
X93984700Y-79825199D01*
X93984000Y-79826052D01*
X93984000Y-78198920D01*
X94080623Y-78119623D01*
X94189512Y-77986942D01*
X94270423Y-77835567D01*
X94320248Y-77671316D01*
X94337072Y-77500500D01*
X94337072Y-77000500D01*
X94320248Y-76829684D01*
X94270423Y-76665433D01*
X94189512Y-76514058D01*
X94100188Y-76405217D01*
X94150185Y-76364185D01*
X94229537Y-76267494D01*
X94288502Y-76157180D01*
X94324812Y-76037482D01*
X94337072Y-75913000D01*
X94334000Y-75711250D01*
X94175250Y-75552500D01*
X93351000Y-75552500D01*
X93351000Y-75572500D01*
X93182800Y-75572500D01*
X93182800Y-74461750D01*
X93351000Y-74461750D01*
X93351000Y-75298500D01*
X94175250Y-75298500D01*
X94334000Y-75139750D01*
X94337072Y-74938000D01*
X94324812Y-74813518D01*
X94288502Y-74693820D01*
X94229537Y-74583506D01*
X94150185Y-74486815D01*
X94053494Y-74407463D01*
X93943180Y-74348498D01*
X93823482Y-74312188D01*
X93699000Y-74299928D01*
X93509750Y-74303000D01*
X93351000Y-74461750D01*
X93182800Y-74461750D01*
X93182800Y-68241925D01*
X93186476Y-68204600D01*
X93182800Y-68167275D01*
X93182800Y-68167267D01*
X93171803Y-68055614D01*
X93128346Y-67912353D01*
X93057774Y-67780324D01*
X92962801Y-67664599D01*
X92933804Y-67640802D01*
X92345602Y-67052600D01*
X93582578Y-67052600D01*
X93619900Y-67056276D01*
X93657222Y-67052600D01*
X93657233Y-67052600D01*
X93768886Y-67041603D01*
X93912147Y-66998146D01*
X94044176Y-66927574D01*
X94159901Y-66832601D01*
X94183704Y-66803597D01*
X95449230Y-65538072D01*
X95737500Y-65538072D01*
X95908316Y-65521248D01*
X95993301Y-65495468D01*
X95993300Y-71391298D01*
G37*
%TD.AperFunction*%
D26*
X90627000Y-63373000D02*
X90647000Y-63373000D01*
X90647000Y-63627000D01*
X90627000Y-63627000D01*
X90627000Y-63647000D01*
X90373000Y-63647000D01*
X90373000Y-63627000D01*
X90353000Y-63627000D01*
X90353000Y-63373000D01*
X90373000Y-63373000D01*
X90373000Y-63353000D01*
X90627000Y-63353000D01*
X90627000Y-63373000D01*
%TA.AperFunction,Conductor*%
D27*
G36*
X90627000Y-63373000D02*
G01*
X90647000Y-63373000D01*
X90647000Y-63627000D01*
X90627000Y-63627000D01*
X90627000Y-63647000D01*
X90373000Y-63647000D01*
X90373000Y-63627000D01*
X90353000Y-63627000D01*
X90353000Y-63373000D01*
X90373000Y-63373000D01*
X90373000Y-63353000D01*
X90627000Y-63353000D01*
X90627000Y-63373000D01*
G37*
%TD.AperFunction*%
D26*
X121040326Y-47687076D02*
X121079902Y-47735299D01*
X121135299Y-47802801D01*
X121164302Y-47826603D01*
X122386928Y-49049230D01*
X122386928Y-49337500D01*
X122403752Y-49508316D01*
X122453577Y-49672567D01*
X122534488Y-49823942D01*
X122643377Y-49956623D01*
X122696232Y-50000000D01*
X122643377Y-50043377D01*
X122534488Y-50176058D01*
X122453577Y-50327433D01*
X122403752Y-50491684D01*
X122389144Y-50640000D01*
X121960920Y-50640000D01*
X121881623Y-50543377D01*
X121748942Y-50434488D01*
X121597567Y-50353577D01*
X121433316Y-50303752D01*
X121262500Y-50286928D01*
X120762500Y-50286928D01*
X120591684Y-50303752D01*
X120427433Y-50353577D01*
X120276058Y-50434488D01*
X120143377Y-50543377D01*
X120100000Y-50596232D01*
X120056623Y-50543377D01*
X119923942Y-50434488D01*
X119772567Y-50353577D01*
X119608316Y-50303752D01*
X119437500Y-50286928D01*
X119063173Y-50286928D01*
X120511003Y-48839099D01*
X120540001Y-48815301D01*
X120582368Y-48763677D01*
X120634974Y-48699577D01*
X120705546Y-48567547D01*
X120724074Y-48506467D01*
X120727575Y-48494926D01*
X120754494Y-48480537D01*
X120851185Y-48401185D01*
X120930537Y-48304494D01*
X120989502Y-48194180D01*
X121025812Y-48074482D01*
X121038072Y-47950000D01*
X121038072Y-47682859D01*
X121040326Y-47687076D01*
%TA.AperFunction,Conductor*%
D27*
G36*
X121040326Y-47687076D02*
G01*
X121079902Y-47735299D01*
X121135299Y-47802801D01*
X121164302Y-47826603D01*
X122386928Y-49049230D01*
X122386928Y-49337500D01*
X122403752Y-49508316D01*
X122453577Y-49672567D01*
X122534488Y-49823942D01*
X122643377Y-49956623D01*
X122696232Y-50000000D01*
X122643377Y-50043377D01*
X122534488Y-50176058D01*
X122453577Y-50327433D01*
X122403752Y-50491684D01*
X122389144Y-50640000D01*
X121960920Y-50640000D01*
X121881623Y-50543377D01*
X121748942Y-50434488D01*
X121597567Y-50353577D01*
X121433316Y-50303752D01*
X121262500Y-50286928D01*
X120762500Y-50286928D01*
X120591684Y-50303752D01*
X120427433Y-50353577D01*
X120276058Y-50434488D01*
X120143377Y-50543377D01*
X120100000Y-50596232D01*
X120056623Y-50543377D01*
X119923942Y-50434488D01*
X119772567Y-50353577D01*
X119608316Y-50303752D01*
X119437500Y-50286928D01*
X119063173Y-50286928D01*
X120511003Y-48839099D01*
X120540001Y-48815301D01*
X120582368Y-48763677D01*
X120634974Y-48699577D01*
X120705546Y-48567547D01*
X120724074Y-48506467D01*
X120727575Y-48494926D01*
X120754494Y-48480537D01*
X120851185Y-48401185D01*
X120930537Y-48304494D01*
X120989502Y-48194180D01*
X121025812Y-48074482D01*
X121038072Y-47950000D01*
X121038072Y-47682859D01*
X121040326Y-47687076D01*
G37*
%TD.AperFunction*%
%TD*%
M02*
