%TF.GenerationSoftware,KiCad,Pcbnew,(5.1.9)-1*%
%TF.CreationDate,2021-05-01T00:36:51+02:00*%
%TF.ProjectId,AidonBoard32,4169646f-6e42-46f6-9172-6433322e6b69,2*%
%TF.SameCoordinates,Original*%
%TF.FileFunction,Legend,Bot*%
%TF.FilePolarity,Positive*%
%FSLAX46Y46*%
G04 Gerber Fmt 4.6, Leading zero omitted, Abs format (unit mm)*
G04 Created by KiCad (PCBNEW (5.1.9)-1) date 2021-05-01 00:36:51*
%MOMM*%
%LPD*%
G01*
G04 APERTURE LIST*
%ADD10C,0.300000*%
G04 APERTURE END LIST*
D10*
X111750000Y-75985714D02*
X111892857Y-75914285D01*
X112178571Y-75914285D01*
X112321428Y-75985714D01*
X112464285Y-76128571D01*
X112535714Y-76271428D01*
X112535714Y-76557142D01*
X112464285Y-76700000D01*
X112321428Y-76842857D01*
X112178571Y-76914285D01*
X111892857Y-76914285D01*
X111750000Y-76842857D01*
X112035714Y-75414285D02*
X112392857Y-75485714D01*
X112750000Y-75700000D01*
X112964285Y-76057142D01*
X113035714Y-76414285D01*
X112964285Y-76771428D01*
X112750000Y-77128571D01*
X112392857Y-77342857D01*
X112035714Y-77414285D01*
X111678571Y-77342857D01*
X111321428Y-77128571D01*
X111107142Y-76771428D01*
X111035714Y-76414285D01*
X111107142Y-76057142D01*
X111321428Y-75700000D01*
X111678571Y-75485714D01*
X112035714Y-75414285D01*
X109250000Y-77128571D02*
X109250000Y-75628571D01*
X109250000Y-76342857D02*
X108392857Y-76342857D01*
X108392857Y-77128571D02*
X108392857Y-75628571D01*
X107107142Y-77057142D02*
X107250000Y-77128571D01*
X107535714Y-77128571D01*
X107678571Y-77057142D01*
X107750000Y-76914285D01*
X107750000Y-76342857D01*
X107678571Y-76200000D01*
X107535714Y-76128571D01*
X107250000Y-76128571D01*
X107107142Y-76200000D01*
X107035714Y-76342857D01*
X107035714Y-76485714D01*
X107750000Y-76628571D01*
X106392857Y-76128571D02*
X106392857Y-77128571D01*
X106392857Y-76271428D02*
X106321428Y-76200000D01*
X106178571Y-76128571D01*
X105964285Y-76128571D01*
X105821428Y-76200000D01*
X105750000Y-76342857D01*
X105750000Y-77128571D01*
X105035714Y-77128571D02*
X105035714Y-76128571D01*
X105035714Y-76414285D02*
X104964285Y-76271428D01*
X104892857Y-76200000D01*
X104750000Y-76128571D01*
X104607142Y-76128571D01*
X104107142Y-77128571D02*
X104107142Y-76128571D01*
X104107142Y-75628571D02*
X104178571Y-75700000D01*
X104107142Y-75771428D01*
X104035714Y-75700000D01*
X104107142Y-75628571D01*
X104107142Y-75771428D01*
X103392857Y-77128571D02*
X103392857Y-75628571D01*
X103250000Y-76557142D02*
X102821428Y-77128571D01*
X102821428Y-76128571D02*
X103392857Y-76700000D01*
X101035714Y-77128571D02*
X101035714Y-75628571D01*
X100178571Y-77128571D01*
X100178571Y-75628571D01*
X98892857Y-77057142D02*
X99035714Y-77128571D01*
X99321428Y-77128571D01*
X99464285Y-77057142D01*
X99535714Y-76914285D01*
X99535714Y-76342857D01*
X99464285Y-76200000D01*
X99321428Y-76128571D01*
X99035714Y-76128571D01*
X98892857Y-76200000D01*
X98821428Y-76342857D01*
X98821428Y-76485714D01*
X99535714Y-76628571D01*
X97964285Y-77128571D02*
X98107142Y-77057142D01*
X98178571Y-76914285D01*
X98178571Y-75628571D01*
X97464285Y-77057142D02*
X97321428Y-77128571D01*
X97035714Y-77128571D01*
X96892857Y-77057142D01*
X96821428Y-76914285D01*
X96821428Y-76842857D01*
X96892857Y-76700000D01*
X97035714Y-76628571D01*
X97250000Y-76628571D01*
X97392857Y-76557142D01*
X97464285Y-76414285D01*
X97464285Y-76342857D01*
X97392857Y-76200000D01*
X97250000Y-76128571D01*
X97035714Y-76128571D01*
X96892857Y-76200000D01*
X95964285Y-77128571D02*
X96107142Y-77057142D01*
X96178571Y-76985714D01*
X96250000Y-76842857D01*
X96250000Y-76414285D01*
X96178571Y-76271428D01*
X96107142Y-76200000D01*
X95964285Y-76128571D01*
X95750000Y-76128571D01*
X95607142Y-76200000D01*
X95535714Y-76271428D01*
X95464285Y-76414285D01*
X95464285Y-76842857D01*
X95535714Y-76985714D01*
X95607142Y-77057142D01*
X95750000Y-77128571D01*
X95964285Y-77128571D01*
X94821428Y-76128571D02*
X94821428Y-77128571D01*
X94821428Y-76271428D02*
X94750000Y-76200000D01*
X94607142Y-76128571D01*
X94392857Y-76128571D01*
X94250000Y-76200000D01*
X94178571Y-76342857D01*
X94178571Y-77128571D01*
X114000000Y-80178571D02*
X114357142Y-80178571D01*
X114357142Y-78035714D01*
X114000000Y-78035714D01*
X113428571Y-79678571D02*
X113428571Y-78178571D01*
X112785714Y-79678571D02*
X112785714Y-78892857D01*
X112857142Y-78750000D01*
X113000000Y-78678571D01*
X113214285Y-78678571D01*
X113357142Y-78750000D01*
X113428571Y-78821428D01*
X111500000Y-79607142D02*
X111642857Y-79678571D01*
X111928571Y-79678571D01*
X112071428Y-79607142D01*
X112142857Y-79464285D01*
X112142857Y-78892857D01*
X112071428Y-78750000D01*
X111928571Y-78678571D01*
X111642857Y-78678571D01*
X111500000Y-78750000D01*
X111428571Y-78892857D01*
X111428571Y-79035714D01*
X112142857Y-79178571D01*
X110785714Y-78678571D02*
X110785714Y-79678571D01*
X110785714Y-78821428D02*
X110714285Y-78750000D01*
X110571428Y-78678571D01*
X110357142Y-78678571D01*
X110214285Y-78750000D01*
X110142857Y-78892857D01*
X110142857Y-79678571D01*
X109428571Y-79678571D02*
X109428571Y-78678571D01*
X109428571Y-78964285D02*
X109357142Y-78821428D01*
X109285714Y-78750000D01*
X109142857Y-78678571D01*
X109000000Y-78678571D01*
X108500000Y-79678571D02*
X108500000Y-78678571D01*
X108500000Y-78178571D02*
X108571428Y-78250000D01*
X108500000Y-78321428D01*
X108428571Y-78250000D01*
X108500000Y-78178571D01*
X108500000Y-78321428D01*
X107785714Y-79678571D02*
X107785714Y-78178571D01*
X107642857Y-79107142D02*
X107214285Y-79678571D01*
X107214285Y-78678571D02*
X107785714Y-79250000D01*
X105642857Y-78964285D02*
X105714285Y-78892857D01*
X105857142Y-78821428D01*
X106000000Y-78821428D01*
X106142857Y-78892857D01*
X106214285Y-78964285D01*
X106285714Y-79107142D01*
X106285714Y-79250000D01*
X106214285Y-79392857D01*
X106142857Y-79464285D01*
X106000000Y-79535714D01*
X105857142Y-79535714D01*
X105714285Y-79464285D01*
X105642857Y-79392857D01*
X105642857Y-78821428D02*
X105642857Y-79392857D01*
X105571428Y-79464285D01*
X105500000Y-79464285D01*
X105357142Y-79392857D01*
X105285714Y-79250000D01*
X105285714Y-78892857D01*
X105428571Y-78678571D01*
X105642857Y-78535714D01*
X105928571Y-78464285D01*
X106214285Y-78535714D01*
X106428571Y-78678571D01*
X106571428Y-78892857D01*
X106642857Y-79178571D01*
X106571428Y-79464285D01*
X106428571Y-79678571D01*
X106214285Y-79821428D01*
X105928571Y-79892857D01*
X105642857Y-79821428D01*
X105428571Y-79678571D01*
X104000000Y-79607142D02*
X104142857Y-79678571D01*
X104428571Y-79678571D01*
X104571428Y-79607142D01*
X104642857Y-79535714D01*
X104714285Y-79392857D01*
X104714285Y-78964285D01*
X104642857Y-78821428D01*
X104571428Y-78750000D01*
X104428571Y-78678571D01*
X104142857Y-78678571D01*
X104000000Y-78750000D01*
X103142857Y-79678571D02*
X103285714Y-79607142D01*
X103357142Y-79464285D01*
X103357142Y-78178571D01*
X102571428Y-79678571D02*
X102571428Y-78678571D01*
X102571428Y-78178571D02*
X102642857Y-78250000D01*
X102571428Y-78321428D01*
X102500000Y-78250000D01*
X102571428Y-78178571D01*
X102571428Y-78321428D01*
X102071428Y-78678571D02*
X101500000Y-78678571D01*
X101857142Y-79678571D02*
X101857142Y-78392857D01*
X101785714Y-78250000D01*
X101642857Y-78178571D01*
X101500000Y-78178571D01*
X101214285Y-78678571D02*
X100642857Y-78678571D01*
X101000000Y-79678571D02*
X101000000Y-78392857D01*
X100928571Y-78250000D01*
X100785714Y-78178571D01*
X100642857Y-78178571D01*
X99928571Y-79678571D02*
X100071428Y-79607142D01*
X100142857Y-79535714D01*
X100214285Y-79392857D01*
X100214285Y-78964285D01*
X100142857Y-78821428D01*
X100071428Y-78750000D01*
X99928571Y-78678571D01*
X99714285Y-78678571D01*
X99571428Y-78750000D01*
X99500000Y-78821428D01*
X99428571Y-78964285D01*
X99428571Y-79392857D01*
X99500000Y-79535714D01*
X99571428Y-79607142D01*
X99714285Y-79678571D01*
X99928571Y-79678571D01*
X98785714Y-79678571D02*
X98785714Y-78678571D01*
X98785714Y-78964285D02*
X98714285Y-78821428D01*
X98642857Y-78750000D01*
X98500000Y-78678571D01*
X98357142Y-78678571D01*
X97214285Y-79678571D02*
X97214285Y-78178571D01*
X97214285Y-79607142D02*
X97357142Y-79678571D01*
X97642857Y-79678571D01*
X97785714Y-79607142D01*
X97857142Y-79535714D01*
X97928571Y-79392857D01*
X97928571Y-78964285D01*
X97857142Y-78821428D01*
X97785714Y-78750000D01*
X97642857Y-78678571D01*
X97357142Y-78678571D01*
X97214285Y-78750000D01*
X96571428Y-79607142D02*
X96428571Y-79678571D01*
X96142857Y-79678571D01*
X96000000Y-79607142D01*
X95928571Y-79464285D01*
X95928571Y-79392857D01*
X96000000Y-79250000D01*
X96142857Y-79178571D01*
X96357142Y-79178571D01*
X96500000Y-79107142D01*
X96571428Y-78964285D01*
X96571428Y-78892857D01*
X96500000Y-78750000D01*
X96357142Y-78678571D01*
X96142857Y-78678571D01*
X96000000Y-78750000D01*
X95285714Y-79535714D02*
X95214285Y-79607142D01*
X95285714Y-79678571D01*
X95357142Y-79607142D01*
X95285714Y-79535714D01*
X95285714Y-79678571D01*
X94571428Y-78678571D02*
X94571428Y-79678571D01*
X94571428Y-78821428D02*
X94500000Y-78750000D01*
X94357142Y-78678571D01*
X94142857Y-78678571D01*
X94000000Y-78750000D01*
X93928571Y-78892857D01*
X93928571Y-79678571D01*
X92571428Y-78678571D02*
X92571428Y-79678571D01*
X93214285Y-78678571D02*
X93214285Y-79464285D01*
X93142857Y-79607142D01*
X93000000Y-79678571D01*
X92785714Y-79678571D01*
X92642857Y-79607142D01*
X92571428Y-79535714D01*
X92000000Y-80178571D02*
X91642857Y-80178571D01*
X91642857Y-78035714D01*
X92000000Y-78035714D01*
X105571428Y-80871428D02*
X105500000Y-80800000D01*
X105357142Y-80728571D01*
X105000000Y-80728571D01*
X104857142Y-80800000D01*
X104785714Y-80871428D01*
X104714285Y-81014285D01*
X104714285Y-81157142D01*
X104785714Y-81371428D01*
X105642857Y-82228571D01*
X104714285Y-82228571D01*
X103785714Y-80728571D02*
X103642857Y-80728571D01*
X103500000Y-80800000D01*
X103428571Y-80871428D01*
X103357142Y-81014285D01*
X103285714Y-81300000D01*
X103285714Y-81657142D01*
X103357142Y-81942857D01*
X103428571Y-82085714D01*
X103500000Y-82157142D01*
X103642857Y-82228571D01*
X103785714Y-82228571D01*
X103928571Y-82157142D01*
X104000000Y-82085714D01*
X104071428Y-81942857D01*
X104142857Y-81657142D01*
X104142857Y-81300000D01*
X104071428Y-81014285D01*
X104000000Y-80871428D01*
X103928571Y-80800000D01*
X103785714Y-80728571D01*
X102714285Y-80871428D02*
X102642857Y-80800000D01*
X102500000Y-80728571D01*
X102142857Y-80728571D01*
X102000000Y-80800000D01*
X101928571Y-80871428D01*
X101857142Y-81014285D01*
X101857142Y-81157142D01*
X101928571Y-81371428D01*
X102785714Y-82228571D01*
X101857142Y-82228571D01*
X100428571Y-82228571D02*
X101285714Y-82228571D01*
X100857142Y-82228571D02*
X100857142Y-80728571D01*
X101000000Y-80942857D01*
X101142857Y-81085714D01*
X101285714Y-81157142D01*
M02*
