%TF.GenerationSoftware,KiCad,Pcbnew,(5.1.9)-1*%
%TF.CreationDate,2021-04-28T14:38:11+02:00*%
%TF.ProjectId,AidonBoard32,4169646f-6e42-46f6-9172-6433322e6b69,1*%
%TF.SameCoordinates,Original*%
%TF.FileFunction,Copper,L1,Top*%
%TF.FilePolarity,Positive*%
%FSLAX46Y46*%
G04 Gerber Fmt 4.6, Leading zero omitted, Abs format (unit mm)*
G04 Created by KiCad (PCBNEW (5.1.9)-1) date 2021-04-28 14:38:11*
%MOMM*%
%LPD*%
G01*
G04 APERTURE LIST*
%TA.AperFunction,SMDPad,CuDef*%
%ADD10R,1.100000X1.100000*%
%TD*%
%TA.AperFunction,ComponentPad*%
%ADD11C,1.879600*%
%TD*%
%TA.AperFunction,SMDPad,CuDef*%
%ADD12R,6.000000X6.000000*%
%TD*%
%TA.AperFunction,SMDPad,CuDef*%
%ADD13O,2.500000X0.900000*%
%TD*%
%TA.AperFunction,SMDPad,CuDef*%
%ADD14O,0.900000X2.500000*%
%TD*%
%TA.AperFunction,SMDPad,CuDef*%
%ADD15R,2.600000X2.600000*%
%TD*%
%TA.AperFunction,SMDPad,CuDef*%
%ADD16R,1.500000X2.000000*%
%TD*%
%TA.AperFunction,SMDPad,CuDef*%
%ADD17R,3.800000X2.000000*%
%TD*%
%TA.AperFunction,SMDPad,CuDef*%
%ADD18R,0.800000X1.900000*%
%TD*%
%TA.AperFunction,SMDPad,CuDef*%
%ADD19R,1.500000X1.000000*%
%TD*%
%TA.AperFunction,ComponentPad*%
%ADD20O,1.100000X1.800000*%
%TD*%
%TA.AperFunction,SMDPad,CuDef*%
%ADD21R,0.400000X1.250000*%
%TD*%
%TA.AperFunction,ComponentPad*%
%ADD22C,1.250000*%
%TD*%
%TA.AperFunction,ViaPad*%
%ADD23C,0.600000*%
%TD*%
%TA.AperFunction,Conductor*%
%ADD24C,0.250000*%
%TD*%
%TA.AperFunction,Conductor*%
%ADD25C,0.254000*%
%TD*%
%TA.AperFunction,Conductor*%
%ADD26C,0.100000*%
%TD*%
G04 APERTURE END LIST*
D10*
%TO.P,D6,2*%
%TO.N,VDD*%
X106556000Y-83058000D03*
%TO.P,D6,1*%
%TO.N,+5V*%
X103756000Y-83058000D03*
%TD*%
%TO.P,U4,14*%
%TO.N,VDD*%
%TA.AperFunction,SMDPad,CuDef*%
G36*
G01*
X113688000Y-66318000D02*
X113388000Y-66318000D01*
G75*
G02*
X113238000Y-66168000I0J150000D01*
G01*
X113238000Y-64518000D01*
G75*
G02*
X113388000Y-64368000I150000J0D01*
G01*
X113688000Y-64368000D01*
G75*
G02*
X113838000Y-64518000I0J-150000D01*
G01*
X113838000Y-66168000D01*
G75*
G02*
X113688000Y-66318000I-150000J0D01*
G01*
G37*
%TD.AperFunction*%
%TO.P,U4,13*%
%TO.N,Net-(U4-Pad13)*%
%TA.AperFunction,SMDPad,CuDef*%
G36*
G01*
X114958000Y-66318000D02*
X114658000Y-66318000D01*
G75*
G02*
X114508000Y-66168000I0J150000D01*
G01*
X114508000Y-64518000D01*
G75*
G02*
X114658000Y-64368000I150000J0D01*
G01*
X114958000Y-64368000D01*
G75*
G02*
X115108000Y-64518000I0J-150000D01*
G01*
X115108000Y-66168000D01*
G75*
G02*
X114958000Y-66318000I-150000J0D01*
G01*
G37*
%TD.AperFunction*%
%TO.P,U4,12*%
%TO.N,Net-(U4-Pad12)*%
%TA.AperFunction,SMDPad,CuDef*%
G36*
G01*
X116228000Y-66318000D02*
X115928000Y-66318000D01*
G75*
G02*
X115778000Y-66168000I0J150000D01*
G01*
X115778000Y-64518000D01*
G75*
G02*
X115928000Y-64368000I150000J0D01*
G01*
X116228000Y-64368000D01*
G75*
G02*
X116378000Y-64518000I0J-150000D01*
G01*
X116378000Y-66168000D01*
G75*
G02*
X116228000Y-66318000I-150000J0D01*
G01*
G37*
%TD.AperFunction*%
%TO.P,U4,11*%
%TO.N,Net-(U4-Pad11)*%
%TA.AperFunction,SMDPad,CuDef*%
G36*
G01*
X117498000Y-66318000D02*
X117198000Y-66318000D01*
G75*
G02*
X117048000Y-66168000I0J150000D01*
G01*
X117048000Y-64518000D01*
G75*
G02*
X117198000Y-64368000I150000J0D01*
G01*
X117498000Y-64368000D01*
G75*
G02*
X117648000Y-64518000I0J-150000D01*
G01*
X117648000Y-66168000D01*
G75*
G02*
X117498000Y-66318000I-150000J0D01*
G01*
G37*
%TD.AperFunction*%
%TO.P,U4,10*%
%TO.N,Net-(U4-Pad10)*%
%TA.AperFunction,SMDPad,CuDef*%
G36*
G01*
X118768000Y-66318000D02*
X118468000Y-66318000D01*
G75*
G02*
X118318000Y-66168000I0J150000D01*
G01*
X118318000Y-64518000D01*
G75*
G02*
X118468000Y-64368000I150000J0D01*
G01*
X118768000Y-64368000D01*
G75*
G02*
X118918000Y-64518000I0J-150000D01*
G01*
X118918000Y-66168000D01*
G75*
G02*
X118768000Y-66318000I-150000J0D01*
G01*
G37*
%TD.AperFunction*%
%TO.P,U4,9*%
%TO.N,Net-(U4-Pad9)*%
%TA.AperFunction,SMDPad,CuDef*%
G36*
G01*
X120038000Y-66318000D02*
X119738000Y-66318000D01*
G75*
G02*
X119588000Y-66168000I0J150000D01*
G01*
X119588000Y-64518000D01*
G75*
G02*
X119738000Y-64368000I150000J0D01*
G01*
X120038000Y-64368000D01*
G75*
G02*
X120188000Y-64518000I0J-150000D01*
G01*
X120188000Y-66168000D01*
G75*
G02*
X120038000Y-66318000I-150000J0D01*
G01*
G37*
%TD.AperFunction*%
%TO.P,U4,8*%
%TO.N,Net-(U4-Pad8)*%
%TA.AperFunction,SMDPad,CuDef*%
G36*
G01*
X121308000Y-66318000D02*
X121008000Y-66318000D01*
G75*
G02*
X120858000Y-66168000I0J150000D01*
G01*
X120858000Y-64518000D01*
G75*
G02*
X121008000Y-64368000I150000J0D01*
G01*
X121308000Y-64368000D01*
G75*
G02*
X121458000Y-64518000I0J-150000D01*
G01*
X121458000Y-66168000D01*
G75*
G02*
X121308000Y-66318000I-150000J0D01*
G01*
G37*
%TD.AperFunction*%
%TO.P,U4,7*%
%TO.N,GND*%
%TA.AperFunction,SMDPad,CuDef*%
G36*
G01*
X121308000Y-71268000D02*
X121008000Y-71268000D01*
G75*
G02*
X120858000Y-71118000I0J150000D01*
G01*
X120858000Y-69468000D01*
G75*
G02*
X121008000Y-69318000I150000J0D01*
G01*
X121308000Y-69318000D01*
G75*
G02*
X121458000Y-69468000I0J-150000D01*
G01*
X121458000Y-71118000D01*
G75*
G02*
X121308000Y-71268000I-150000J0D01*
G01*
G37*
%TD.AperFunction*%
%TO.P,U4,6*%
%TO.N,Net-(U4-Pad6)*%
%TA.AperFunction,SMDPad,CuDef*%
G36*
G01*
X120038000Y-71268000D02*
X119738000Y-71268000D01*
G75*
G02*
X119588000Y-71118000I0J150000D01*
G01*
X119588000Y-69468000D01*
G75*
G02*
X119738000Y-69318000I150000J0D01*
G01*
X120038000Y-69318000D01*
G75*
G02*
X120188000Y-69468000I0J-150000D01*
G01*
X120188000Y-71118000D01*
G75*
G02*
X120038000Y-71268000I-150000J0D01*
G01*
G37*
%TD.AperFunction*%
%TO.P,U4,5*%
%TO.N,Net-(U4-Pad5)*%
%TA.AperFunction,SMDPad,CuDef*%
G36*
G01*
X118768000Y-71268000D02*
X118468000Y-71268000D01*
G75*
G02*
X118318000Y-71118000I0J150000D01*
G01*
X118318000Y-69468000D01*
G75*
G02*
X118468000Y-69318000I150000J0D01*
G01*
X118768000Y-69318000D01*
G75*
G02*
X118918000Y-69468000I0J-150000D01*
G01*
X118918000Y-71118000D01*
G75*
G02*
X118768000Y-71268000I-150000J0D01*
G01*
G37*
%TD.AperFunction*%
%TO.P,U4,4*%
%TO.N,Net-(U4-Pad4)*%
%TA.AperFunction,SMDPad,CuDef*%
G36*
G01*
X117498000Y-71268000D02*
X117198000Y-71268000D01*
G75*
G02*
X117048000Y-71118000I0J150000D01*
G01*
X117048000Y-69468000D01*
G75*
G02*
X117198000Y-69318000I150000J0D01*
G01*
X117498000Y-69318000D01*
G75*
G02*
X117648000Y-69468000I0J-150000D01*
G01*
X117648000Y-71118000D01*
G75*
G02*
X117498000Y-71268000I-150000J0D01*
G01*
G37*
%TD.AperFunction*%
%TO.P,U4,3*%
%TO.N,Net-(U4-Pad3)*%
%TA.AperFunction,SMDPad,CuDef*%
G36*
G01*
X116228000Y-71268000D02*
X115928000Y-71268000D01*
G75*
G02*
X115778000Y-71118000I0J150000D01*
G01*
X115778000Y-69468000D01*
G75*
G02*
X115928000Y-69318000I150000J0D01*
G01*
X116228000Y-69318000D01*
G75*
G02*
X116378000Y-69468000I0J-150000D01*
G01*
X116378000Y-71118000D01*
G75*
G02*
X116228000Y-71268000I-150000J0D01*
G01*
G37*
%TD.AperFunction*%
%TO.P,U4,2*%
%TO.N,/UART_RX*%
%TA.AperFunction,SMDPad,CuDef*%
G36*
G01*
X114958000Y-71268000D02*
X114658000Y-71268000D01*
G75*
G02*
X114508000Y-71118000I0J150000D01*
G01*
X114508000Y-69468000D01*
G75*
G02*
X114658000Y-69318000I150000J0D01*
G01*
X114958000Y-69318000D01*
G75*
G02*
X115108000Y-69468000I0J-150000D01*
G01*
X115108000Y-71118000D01*
G75*
G02*
X114958000Y-71268000I-150000J0D01*
G01*
G37*
%TD.AperFunction*%
%TO.P,U4,1*%
%TO.N,/HAN_OUT*%
%TA.AperFunction,SMDPad,CuDef*%
G36*
G01*
X113688000Y-71268000D02*
X113388000Y-71268000D01*
G75*
G02*
X113238000Y-71118000I0J150000D01*
G01*
X113238000Y-69468000D01*
G75*
G02*
X113388000Y-69318000I150000J0D01*
G01*
X113688000Y-69318000D01*
G75*
G02*
X113838000Y-69468000I0J-150000D01*
G01*
X113838000Y-71118000D01*
G75*
G02*
X113688000Y-71268000I-150000J0D01*
G01*
G37*
%TD.AperFunction*%
%TD*%
D11*
%TO.P,J1,6*%
%TO.N,GND*%
X121793000Y-80010000D03*
%TO.P,J1,5*%
%TO.N,/HAN_OUT*%
X120523000Y-77470000D03*
%TO.P,J1,4*%
%TO.N,Net-(J1-Pad4)*%
X119253000Y-80010000D03*
%TO.P,J1,3*%
%TO.N,Net-(J1-Pad3)*%
X117983000Y-77470000D03*
%TO.P,J1,2*%
%TO.N,VDD*%
X116713000Y-80010000D03*
%TO.P,J1,1*%
X115443000Y-77470000D03*
%TD*%
D12*
%TO.P,U3,39*%
%TO.N,GND*%
X102150000Y-40850000D03*
D13*
%TO.P,U3,1*%
X93450000Y-33150000D03*
%TO.P,U3,2*%
%TO.N,+3V3*%
X93450000Y-34420000D03*
%TO.P,U3,3*%
%TO.N,/EN*%
X93450000Y-35690000D03*
%TO.P,U3,4*%
%TO.N,Net-(U3-Pad4)*%
X93450000Y-36960000D03*
%TO.P,U3,5*%
%TO.N,Net-(U3-Pad5)*%
X93450000Y-38230000D03*
%TO.P,U3,6*%
%TO.N,Net-(U3-Pad6)*%
X93450000Y-39500000D03*
%TO.P,U3,7*%
%TO.N,Net-(U3-Pad7)*%
X93450000Y-40770000D03*
%TO.P,U3,8*%
%TO.N,Net-(U3-Pad8)*%
X93450000Y-42040000D03*
%TO.P,U3,9*%
%TO.N,Net-(U3-Pad9)*%
X93450000Y-43310000D03*
%TO.P,U3,10*%
%TO.N,Net-(U3-Pad10)*%
X93450000Y-44580000D03*
%TO.P,U3,11*%
%TO.N,Net-(U3-Pad11)*%
X93450000Y-45850000D03*
%TO.P,U3,12*%
%TO.N,Net-(U3-Pad12)*%
X93450000Y-47120000D03*
%TO.P,U3,13*%
%TO.N,Net-(U3-Pad13)*%
X93450000Y-48390000D03*
%TO.P,U3,14*%
%TO.N,Net-(U3-Pad14)*%
X93450000Y-49660000D03*
D14*
%TO.P,U3,15*%
%TO.N,GND*%
X96735000Y-51150000D03*
%TO.P,U3,16*%
%TO.N,/IO13*%
X98005000Y-51150000D03*
%TO.P,U3,17*%
%TO.N,Net-(U3-Pad17)*%
X99275000Y-51150000D03*
%TO.P,U3,18*%
%TO.N,Net-(U3-Pad18)*%
X100545000Y-51150000D03*
%TO.P,U3,19*%
%TO.N,Net-(U3-Pad19)*%
X101815000Y-51150000D03*
%TO.P,U3,20*%
%TO.N,Net-(U3-Pad20)*%
X103085000Y-51150000D03*
%TO.P,U3,21*%
%TO.N,Net-(U3-Pad21)*%
X104355000Y-51150000D03*
%TO.P,U3,22*%
%TO.N,Net-(U3-Pad22)*%
X105625000Y-51150000D03*
%TO.P,U3,23*%
%TO.N,Net-(U3-Pad23)*%
X106895000Y-51150000D03*
%TO.P,U3,24*%
%TO.N,Net-(U3-Pad24)*%
X108165000Y-51150000D03*
D13*
%TO.P,U3,25*%
%TO.N,/IO0*%
X111450000Y-49660000D03*
%TO.P,U3,26*%
%TO.N,Net-(U3-Pad26)*%
X111450000Y-48390000D03*
%TO.P,U3,27*%
%TO.N,/UART_RX*%
X111450000Y-47120000D03*
%TO.P,U3,28*%
%TO.N,Net-(U3-Pad28)*%
X111450000Y-45850000D03*
%TO.P,U3,29*%
%TO.N,Net-(U3-Pad29)*%
X111450000Y-44580000D03*
%TO.P,U3,30*%
%TO.N,Net-(U3-Pad30)*%
X111450000Y-43310000D03*
%TO.P,U3,31*%
%TO.N,Net-(U3-Pad31)*%
X111450000Y-42040000D03*
%TO.P,U3,32*%
%TO.N,Net-(U3-Pad32)*%
X111450000Y-40770000D03*
%TO.P,U3,33*%
%TO.N,Net-(U3-Pad33)*%
X111450000Y-39500000D03*
%TO.P,U3,34*%
%TO.N,/MCU_RX*%
X111450000Y-38230000D03*
%TO.P,U3,35*%
%TO.N,/MCU_TX*%
X111450000Y-36960000D03*
%TO.P,U3,36*%
%TO.N,Net-(U3-Pad36)*%
X111450000Y-35690000D03*
%TO.P,U3,37*%
%TO.N,Net-(U3-Pad37)*%
X111450000Y-34420000D03*
%TO.P,U3,38*%
%TO.N,GND*%
X111450000Y-33150000D03*
%TD*%
D15*
%TO.P,U2,25*%
%TO.N,GND*%
X92700000Y-65900000D03*
%TO.P,U2,24*%
%TO.N,Net-(U2-Pad24)*%
%TA.AperFunction,SMDPad,CuDef*%
G36*
G01*
X91325000Y-64312500D02*
X91325000Y-63612500D01*
G75*
G02*
X91387500Y-63550000I62500J0D01*
G01*
X91512500Y-63550000D01*
G75*
G02*
X91575000Y-63612500I0J-62500D01*
G01*
X91575000Y-64312500D01*
G75*
G02*
X91512500Y-64375000I-62500J0D01*
G01*
X91387500Y-64375000D01*
G75*
G02*
X91325000Y-64312500I0J62500D01*
G01*
G37*
%TD.AperFunction*%
%TO.P,U2,23*%
%TO.N,/DTR*%
%TA.AperFunction,SMDPad,CuDef*%
G36*
G01*
X91825000Y-64312500D02*
X91825000Y-63612500D01*
G75*
G02*
X91887500Y-63550000I62500J0D01*
G01*
X92012500Y-63550000D01*
G75*
G02*
X92075000Y-63612500I0J-62500D01*
G01*
X92075000Y-64312500D01*
G75*
G02*
X92012500Y-64375000I-62500J0D01*
G01*
X91887500Y-64375000D01*
G75*
G02*
X91825000Y-64312500I0J62500D01*
G01*
G37*
%TD.AperFunction*%
%TO.P,U2,22*%
%TO.N,Net-(U2-Pad22)*%
%TA.AperFunction,SMDPad,CuDef*%
G36*
G01*
X92325000Y-64312500D02*
X92325000Y-63612500D01*
G75*
G02*
X92387500Y-63550000I62500J0D01*
G01*
X92512500Y-63550000D01*
G75*
G02*
X92575000Y-63612500I0J-62500D01*
G01*
X92575000Y-64312500D01*
G75*
G02*
X92512500Y-64375000I-62500J0D01*
G01*
X92387500Y-64375000D01*
G75*
G02*
X92325000Y-64312500I0J62500D01*
G01*
G37*
%TD.AperFunction*%
%TO.P,U2,21*%
%TO.N,/MCU_RX*%
%TA.AperFunction,SMDPad,CuDef*%
G36*
G01*
X92825000Y-64312500D02*
X92825000Y-63612500D01*
G75*
G02*
X92887500Y-63550000I62500J0D01*
G01*
X93012500Y-63550000D01*
G75*
G02*
X93075000Y-63612500I0J-62500D01*
G01*
X93075000Y-64312500D01*
G75*
G02*
X93012500Y-64375000I-62500J0D01*
G01*
X92887500Y-64375000D01*
G75*
G02*
X92825000Y-64312500I0J62500D01*
G01*
G37*
%TD.AperFunction*%
%TO.P,U2,20*%
%TO.N,/MCU_TX*%
%TA.AperFunction,SMDPad,CuDef*%
G36*
G01*
X93325000Y-64312500D02*
X93325000Y-63612500D01*
G75*
G02*
X93387500Y-63550000I62500J0D01*
G01*
X93512500Y-63550000D01*
G75*
G02*
X93575000Y-63612500I0J-62500D01*
G01*
X93575000Y-64312500D01*
G75*
G02*
X93512500Y-64375000I-62500J0D01*
G01*
X93387500Y-64375000D01*
G75*
G02*
X93325000Y-64312500I0J62500D01*
G01*
G37*
%TD.AperFunction*%
%TO.P,U2,19*%
%TO.N,/RTS*%
%TA.AperFunction,SMDPad,CuDef*%
G36*
G01*
X93825000Y-64312500D02*
X93825000Y-63612500D01*
G75*
G02*
X93887500Y-63550000I62500J0D01*
G01*
X94012500Y-63550000D01*
G75*
G02*
X94075000Y-63612500I0J-62500D01*
G01*
X94075000Y-64312500D01*
G75*
G02*
X94012500Y-64375000I-62500J0D01*
G01*
X93887500Y-64375000D01*
G75*
G02*
X93825000Y-64312500I0J62500D01*
G01*
G37*
%TD.AperFunction*%
%TO.P,U2,18*%
%TO.N,Net-(U2-Pad18)*%
%TA.AperFunction,SMDPad,CuDef*%
G36*
G01*
X94225000Y-64712500D02*
X94225000Y-64587500D01*
G75*
G02*
X94287500Y-64525000I62500J0D01*
G01*
X94987500Y-64525000D01*
G75*
G02*
X95050000Y-64587500I0J-62500D01*
G01*
X95050000Y-64712500D01*
G75*
G02*
X94987500Y-64775000I-62500J0D01*
G01*
X94287500Y-64775000D01*
G75*
G02*
X94225000Y-64712500I0J62500D01*
G01*
G37*
%TD.AperFunction*%
%TO.P,U2,17*%
%TO.N,Net-(U2-Pad17)*%
%TA.AperFunction,SMDPad,CuDef*%
G36*
G01*
X94225000Y-65212500D02*
X94225000Y-65087500D01*
G75*
G02*
X94287500Y-65025000I62500J0D01*
G01*
X94987500Y-65025000D01*
G75*
G02*
X95050000Y-65087500I0J-62500D01*
G01*
X95050000Y-65212500D01*
G75*
G02*
X94987500Y-65275000I-62500J0D01*
G01*
X94287500Y-65275000D01*
G75*
G02*
X94225000Y-65212500I0J62500D01*
G01*
G37*
%TD.AperFunction*%
%TO.P,U2,16*%
%TO.N,Net-(U2-Pad16)*%
%TA.AperFunction,SMDPad,CuDef*%
G36*
G01*
X94225000Y-65712500D02*
X94225000Y-65587500D01*
G75*
G02*
X94287500Y-65525000I62500J0D01*
G01*
X94987500Y-65525000D01*
G75*
G02*
X95050000Y-65587500I0J-62500D01*
G01*
X95050000Y-65712500D01*
G75*
G02*
X94987500Y-65775000I-62500J0D01*
G01*
X94287500Y-65775000D01*
G75*
G02*
X94225000Y-65712500I0J62500D01*
G01*
G37*
%TD.AperFunction*%
%TO.P,U2,15*%
%TO.N,Net-(U2-Pad15)*%
%TA.AperFunction,SMDPad,CuDef*%
G36*
G01*
X94225000Y-66212500D02*
X94225000Y-66087500D01*
G75*
G02*
X94287500Y-66025000I62500J0D01*
G01*
X94987500Y-66025000D01*
G75*
G02*
X95050000Y-66087500I0J-62500D01*
G01*
X95050000Y-66212500D01*
G75*
G02*
X94987500Y-66275000I-62500J0D01*
G01*
X94287500Y-66275000D01*
G75*
G02*
X94225000Y-66212500I0J62500D01*
G01*
G37*
%TD.AperFunction*%
%TO.P,U2,14*%
%TO.N,/LED_TX*%
%TA.AperFunction,SMDPad,CuDef*%
G36*
G01*
X94225000Y-66712500D02*
X94225000Y-66587500D01*
G75*
G02*
X94287500Y-66525000I62500J0D01*
G01*
X94987500Y-66525000D01*
G75*
G02*
X95050000Y-66587500I0J-62500D01*
G01*
X95050000Y-66712500D01*
G75*
G02*
X94987500Y-66775000I-62500J0D01*
G01*
X94287500Y-66775000D01*
G75*
G02*
X94225000Y-66712500I0J62500D01*
G01*
G37*
%TD.AperFunction*%
%TO.P,U2,13*%
%TO.N,/LED_RX*%
%TA.AperFunction,SMDPad,CuDef*%
G36*
G01*
X94225000Y-67212500D02*
X94225000Y-67087500D01*
G75*
G02*
X94287500Y-67025000I62500J0D01*
G01*
X94987500Y-67025000D01*
G75*
G02*
X95050000Y-67087500I0J-62500D01*
G01*
X95050000Y-67212500D01*
G75*
G02*
X94987500Y-67275000I-62500J0D01*
G01*
X94287500Y-67275000D01*
G75*
G02*
X94225000Y-67212500I0J62500D01*
G01*
G37*
%TD.AperFunction*%
%TO.P,U2,12*%
%TO.N,Net-(U2-Pad12)*%
%TA.AperFunction,SMDPad,CuDef*%
G36*
G01*
X93825000Y-68187500D02*
X93825000Y-67487500D01*
G75*
G02*
X93887500Y-67425000I62500J0D01*
G01*
X94012500Y-67425000D01*
G75*
G02*
X94075000Y-67487500I0J-62500D01*
G01*
X94075000Y-68187500D01*
G75*
G02*
X94012500Y-68250000I-62500J0D01*
G01*
X93887500Y-68250000D01*
G75*
G02*
X93825000Y-68187500I0J62500D01*
G01*
G37*
%TD.AperFunction*%
%TO.P,U2,11*%
%TO.N,Net-(U2-Pad11)*%
%TA.AperFunction,SMDPad,CuDef*%
G36*
G01*
X93325000Y-68187500D02*
X93325000Y-67487500D01*
G75*
G02*
X93387500Y-67425000I62500J0D01*
G01*
X93512500Y-67425000D01*
G75*
G02*
X93575000Y-67487500I0J-62500D01*
G01*
X93575000Y-68187500D01*
G75*
G02*
X93512500Y-68250000I-62500J0D01*
G01*
X93387500Y-68250000D01*
G75*
G02*
X93325000Y-68187500I0J62500D01*
G01*
G37*
%TD.AperFunction*%
%TO.P,U2,10*%
%TO.N,Net-(U2-Pad10)*%
%TA.AperFunction,SMDPad,CuDef*%
G36*
G01*
X92825000Y-68187500D02*
X92825000Y-67487500D01*
G75*
G02*
X92887500Y-67425000I62500J0D01*
G01*
X93012500Y-67425000D01*
G75*
G02*
X93075000Y-67487500I0J-62500D01*
G01*
X93075000Y-68187500D01*
G75*
G02*
X93012500Y-68250000I-62500J0D01*
G01*
X92887500Y-68250000D01*
G75*
G02*
X92825000Y-68187500I0J62500D01*
G01*
G37*
%TD.AperFunction*%
%TO.P,U2,9*%
%TO.N,Net-(R1-Pad1)*%
%TA.AperFunction,SMDPad,CuDef*%
G36*
G01*
X92325000Y-68187500D02*
X92325000Y-67487500D01*
G75*
G02*
X92387500Y-67425000I62500J0D01*
G01*
X92512500Y-67425000D01*
G75*
G02*
X92575000Y-67487500I0J-62500D01*
G01*
X92575000Y-68187500D01*
G75*
G02*
X92512500Y-68250000I-62500J0D01*
G01*
X92387500Y-68250000D01*
G75*
G02*
X92325000Y-68187500I0J62500D01*
G01*
G37*
%TD.AperFunction*%
%TO.P,U2,8*%
%TO.N,VBUS*%
%TA.AperFunction,SMDPad,CuDef*%
G36*
G01*
X91825000Y-68187500D02*
X91825000Y-67487500D01*
G75*
G02*
X91887500Y-67425000I62500J0D01*
G01*
X92012500Y-67425000D01*
G75*
G02*
X92075000Y-67487500I0J-62500D01*
G01*
X92075000Y-68187500D01*
G75*
G02*
X92012500Y-68250000I-62500J0D01*
G01*
X91887500Y-68250000D01*
G75*
G02*
X91825000Y-68187500I0J62500D01*
G01*
G37*
%TD.AperFunction*%
%TO.P,U2,7*%
%TO.N,+3V3*%
%TA.AperFunction,SMDPad,CuDef*%
G36*
G01*
X91325000Y-68187500D02*
X91325000Y-67487500D01*
G75*
G02*
X91387500Y-67425000I62500J0D01*
G01*
X91512500Y-67425000D01*
G75*
G02*
X91575000Y-67487500I0J-62500D01*
G01*
X91575000Y-68187500D01*
G75*
G02*
X91512500Y-68250000I-62500J0D01*
G01*
X91387500Y-68250000D01*
G75*
G02*
X91325000Y-68187500I0J62500D01*
G01*
G37*
%TD.AperFunction*%
%TO.P,U2,6*%
%TA.AperFunction,SMDPad,CuDef*%
G36*
G01*
X90350000Y-67212500D02*
X90350000Y-67087500D01*
G75*
G02*
X90412500Y-67025000I62500J0D01*
G01*
X91112500Y-67025000D01*
G75*
G02*
X91175000Y-67087500I0J-62500D01*
G01*
X91175000Y-67212500D01*
G75*
G02*
X91112500Y-67275000I-62500J0D01*
G01*
X90412500Y-67275000D01*
G75*
G02*
X90350000Y-67212500I0J62500D01*
G01*
G37*
%TD.AperFunction*%
%TO.P,U2,5*%
%TA.AperFunction,SMDPad,CuDef*%
G36*
G01*
X90350000Y-66712500D02*
X90350000Y-66587500D01*
G75*
G02*
X90412500Y-66525000I62500J0D01*
G01*
X91112500Y-66525000D01*
G75*
G02*
X91175000Y-66587500I0J-62500D01*
G01*
X91175000Y-66712500D01*
G75*
G02*
X91112500Y-66775000I-62500J0D01*
G01*
X90412500Y-66775000D01*
G75*
G02*
X90350000Y-66712500I0J62500D01*
G01*
G37*
%TD.AperFunction*%
%TO.P,U2,4*%
%TO.N,/D-*%
%TA.AperFunction,SMDPad,CuDef*%
G36*
G01*
X90350000Y-66212500D02*
X90350000Y-66087500D01*
G75*
G02*
X90412500Y-66025000I62500J0D01*
G01*
X91112500Y-66025000D01*
G75*
G02*
X91175000Y-66087500I0J-62500D01*
G01*
X91175000Y-66212500D01*
G75*
G02*
X91112500Y-66275000I-62500J0D01*
G01*
X90412500Y-66275000D01*
G75*
G02*
X90350000Y-66212500I0J62500D01*
G01*
G37*
%TD.AperFunction*%
%TO.P,U2,3*%
%TO.N,/D+*%
%TA.AperFunction,SMDPad,CuDef*%
G36*
G01*
X90350000Y-65712500D02*
X90350000Y-65587500D01*
G75*
G02*
X90412500Y-65525000I62500J0D01*
G01*
X91112500Y-65525000D01*
G75*
G02*
X91175000Y-65587500I0J-62500D01*
G01*
X91175000Y-65712500D01*
G75*
G02*
X91112500Y-65775000I-62500J0D01*
G01*
X90412500Y-65775000D01*
G75*
G02*
X90350000Y-65712500I0J62500D01*
G01*
G37*
%TD.AperFunction*%
%TO.P,U2,2*%
%TO.N,GND*%
%TA.AperFunction,SMDPad,CuDef*%
G36*
G01*
X90350000Y-65212500D02*
X90350000Y-65087500D01*
G75*
G02*
X90412500Y-65025000I62500J0D01*
G01*
X91112500Y-65025000D01*
G75*
G02*
X91175000Y-65087500I0J-62500D01*
G01*
X91175000Y-65212500D01*
G75*
G02*
X91112500Y-65275000I-62500J0D01*
G01*
X90412500Y-65275000D01*
G75*
G02*
X90350000Y-65212500I0J62500D01*
G01*
G37*
%TD.AperFunction*%
%TO.P,U2,1*%
%TO.N,Net-(U2-Pad1)*%
%TA.AperFunction,SMDPad,CuDef*%
G36*
G01*
X90350000Y-64712500D02*
X90350000Y-64587500D01*
G75*
G02*
X90412500Y-64525000I62500J0D01*
G01*
X91112500Y-64525000D01*
G75*
G02*
X91175000Y-64587500I0J-62500D01*
G01*
X91175000Y-64712500D01*
G75*
G02*
X91112500Y-64775000I-62500J0D01*
G01*
X90412500Y-64775000D01*
G75*
G02*
X90350000Y-64712500I0J62500D01*
G01*
G37*
%TD.AperFunction*%
%TD*%
D16*
%TO.P,U1,1*%
%TO.N,GND*%
X100062000Y-78050000D03*
%TO.P,U1,3*%
%TO.N,+5V*%
X104662000Y-78050000D03*
%TO.P,U1,2*%
%TO.N,+3V3*%
X102362000Y-78050000D03*
D17*
%TO.P,U1,4*%
%TO.N,N/C*%
X102362000Y-71750000D03*
%TD*%
%TO.P,R7,1*%
%TO.N,+3V3*%
%TA.AperFunction,SMDPad,CuDef*%
G36*
G01*
X83812999Y-40978900D02*
X85063001Y-40978900D01*
G75*
G02*
X85313000Y-41228899I0J-249999D01*
G01*
X85313000Y-42028901D01*
G75*
G02*
X85063001Y-42278900I-249999J0D01*
G01*
X83812999Y-42278900D01*
G75*
G02*
X83563000Y-42028901I0J249999D01*
G01*
X83563000Y-41228899D01*
G75*
G02*
X83812999Y-40978900I249999J0D01*
G01*
G37*
%TD.AperFunction*%
%TO.P,R7,2*%
%TO.N,/EN*%
%TA.AperFunction,SMDPad,CuDef*%
G36*
G01*
X83812999Y-44078900D02*
X85063001Y-44078900D01*
G75*
G02*
X85313000Y-44328899I0J-249999D01*
G01*
X85313000Y-45128901D01*
G75*
G02*
X85063001Y-45378900I-249999J0D01*
G01*
X83812999Y-45378900D01*
G75*
G02*
X83563000Y-45128901I0J249999D01*
G01*
X83563000Y-44328899D01*
G75*
G02*
X83812999Y-44078900I249999J0D01*
G01*
G37*
%TD.AperFunction*%
%TD*%
%TO.P,R6,2*%
%TO.N,/RTS*%
%TA.AperFunction,SMDPad,CuDef*%
G36*
G01*
X121548999Y-58812000D02*
X122799001Y-58812000D01*
G75*
G02*
X123049000Y-59061999I0J-249999D01*
G01*
X123049000Y-59862001D01*
G75*
G02*
X122799001Y-60112000I-249999J0D01*
G01*
X121548999Y-60112000D01*
G75*
G02*
X121299000Y-59862001I0J249999D01*
G01*
X121299000Y-59061999D01*
G75*
G02*
X121548999Y-58812000I249999J0D01*
G01*
G37*
%TD.AperFunction*%
%TO.P,R6,1*%
%TO.N,Net-(Q2-Pad1)*%
%TA.AperFunction,SMDPad,CuDef*%
G36*
G01*
X121548999Y-55712000D02*
X122799001Y-55712000D01*
G75*
G02*
X123049000Y-55961999I0J-249999D01*
G01*
X123049000Y-56762001D01*
G75*
G02*
X122799001Y-57012000I-249999J0D01*
G01*
X121548999Y-57012000D01*
G75*
G02*
X121299000Y-56762001I0J249999D01*
G01*
X121299000Y-55961999D01*
G75*
G02*
X121548999Y-55712000I249999J0D01*
G01*
G37*
%TD.AperFunction*%
%TD*%
%TO.P,R5,2*%
%TO.N,/DTR*%
%TA.AperFunction,SMDPad,CuDef*%
G36*
G01*
X86223001Y-57012000D02*
X84972999Y-57012000D01*
G75*
G02*
X84723000Y-56762001I0J249999D01*
G01*
X84723000Y-55961999D01*
G75*
G02*
X84972999Y-55712000I249999J0D01*
G01*
X86223001Y-55712000D01*
G75*
G02*
X86473000Y-55961999I0J-249999D01*
G01*
X86473000Y-56762001D01*
G75*
G02*
X86223001Y-57012000I-249999J0D01*
G01*
G37*
%TD.AperFunction*%
%TO.P,R5,1*%
%TO.N,Net-(Q1-Pad1)*%
%TA.AperFunction,SMDPad,CuDef*%
G36*
G01*
X86223001Y-60112000D02*
X84972999Y-60112000D01*
G75*
G02*
X84723000Y-59862001I0J249999D01*
G01*
X84723000Y-59061999D01*
G75*
G02*
X84972999Y-58812000I249999J0D01*
G01*
X86223001Y-58812000D01*
G75*
G02*
X86473000Y-59061999I0J-249999D01*
G01*
X86473000Y-59862001D01*
G75*
G02*
X86223001Y-60112000I-249999J0D01*
G01*
G37*
%TD.AperFunction*%
%TD*%
%TO.P,R4,2*%
%TO.N,Net-(D4-Pad1)*%
%TA.AperFunction,SMDPad,CuDef*%
G36*
G01*
X88324999Y-50360000D02*
X89575001Y-50360000D01*
G75*
G02*
X89825000Y-50609999I0J-249999D01*
G01*
X89825000Y-51410001D01*
G75*
G02*
X89575001Y-51660000I-249999J0D01*
G01*
X88324999Y-51660000D01*
G75*
G02*
X88075000Y-51410001I0J249999D01*
G01*
X88075000Y-50609999D01*
G75*
G02*
X88324999Y-50360000I249999J0D01*
G01*
G37*
%TD.AperFunction*%
%TO.P,R4,1*%
%TO.N,GND*%
%TA.AperFunction,SMDPad,CuDef*%
G36*
G01*
X88324999Y-47260000D02*
X89575001Y-47260000D01*
G75*
G02*
X89825000Y-47509999I0J-249999D01*
G01*
X89825000Y-48310001D01*
G75*
G02*
X89575001Y-48560000I-249999J0D01*
G01*
X88324999Y-48560000D01*
G75*
G02*
X88075000Y-48310001I0J249999D01*
G01*
X88075000Y-47509999D01*
G75*
G02*
X88324999Y-47260000I249999J0D01*
G01*
G37*
%TD.AperFunction*%
%TD*%
%TO.P,R3,2*%
%TO.N,Net-(D3-Pad1)*%
%TA.AperFunction,SMDPad,CuDef*%
G36*
G01*
X113168000Y-59807001D02*
X113168000Y-58556999D01*
G75*
G02*
X113417999Y-58307000I249999J0D01*
G01*
X114218001Y-58307000D01*
G75*
G02*
X114468000Y-58556999I0J-249999D01*
G01*
X114468000Y-59807001D01*
G75*
G02*
X114218001Y-60057000I-249999J0D01*
G01*
X113417999Y-60057000D01*
G75*
G02*
X113168000Y-59807001I0J249999D01*
G01*
G37*
%TD.AperFunction*%
%TO.P,R3,1*%
%TO.N,/LED_RX*%
%TA.AperFunction,SMDPad,CuDef*%
G36*
G01*
X110068000Y-59807001D02*
X110068000Y-58556999D01*
G75*
G02*
X110317999Y-58307000I249999J0D01*
G01*
X111118001Y-58307000D01*
G75*
G02*
X111368000Y-58556999I0J-249999D01*
G01*
X111368000Y-59807001D01*
G75*
G02*
X111118001Y-60057000I-249999J0D01*
G01*
X110317999Y-60057000D01*
G75*
G02*
X110068000Y-59807001I0J249999D01*
G01*
G37*
%TD.AperFunction*%
%TD*%
%TO.P,R2,2*%
%TO.N,Net-(D2-Pad1)*%
%TA.AperFunction,SMDPad,CuDef*%
G36*
G01*
X93356000Y-59775001D02*
X93356000Y-58524999D01*
G75*
G02*
X93605999Y-58275000I249999J0D01*
G01*
X94406001Y-58275000D01*
G75*
G02*
X94656000Y-58524999I0J-249999D01*
G01*
X94656000Y-59775001D01*
G75*
G02*
X94406001Y-60025000I-249999J0D01*
G01*
X93605999Y-60025000D01*
G75*
G02*
X93356000Y-59775001I0J249999D01*
G01*
G37*
%TD.AperFunction*%
%TO.P,R2,1*%
%TO.N,/LED_TX*%
%TA.AperFunction,SMDPad,CuDef*%
G36*
G01*
X90256000Y-59775001D02*
X90256000Y-58524999D01*
G75*
G02*
X90505999Y-58275000I249999J0D01*
G01*
X91306001Y-58275000D01*
G75*
G02*
X91556000Y-58524999I0J-249999D01*
G01*
X91556000Y-59775001D01*
G75*
G02*
X91306001Y-60025000I-249999J0D01*
G01*
X90505999Y-60025000D01*
G75*
G02*
X90256000Y-59775001I0J249999D01*
G01*
G37*
%TD.AperFunction*%
%TD*%
%TO.P,R1,2*%
%TO.N,+3V3*%
%TA.AperFunction,SMDPad,CuDef*%
G36*
G01*
X91800000Y-71774999D02*
X91800000Y-73025001D01*
G75*
G02*
X91550001Y-73275000I-249999J0D01*
G01*
X90749999Y-73275000D01*
G75*
G02*
X90500000Y-73025001I0J249999D01*
G01*
X90500000Y-71774999D01*
G75*
G02*
X90749999Y-71525000I249999J0D01*
G01*
X91550001Y-71525000D01*
G75*
G02*
X91800000Y-71774999I0J-249999D01*
G01*
G37*
%TD.AperFunction*%
%TO.P,R1,1*%
%TO.N,Net-(R1-Pad1)*%
%TA.AperFunction,SMDPad,CuDef*%
G36*
G01*
X94900000Y-71774999D02*
X94900000Y-73025001D01*
G75*
G02*
X94650001Y-73275000I-249999J0D01*
G01*
X93849999Y-73275000D01*
G75*
G02*
X93600000Y-73025001I0J249999D01*
G01*
X93600000Y-71774999D01*
G75*
G02*
X93849999Y-71525000I249999J0D01*
G01*
X94650001Y-71525000D01*
G75*
G02*
X94900000Y-71774999I0J-249999D01*
G01*
G37*
%TD.AperFunction*%
%TD*%
D18*
%TO.P,Q2,3*%
%TO.N,/IO0*%
X118872000Y-56158000D03*
%TO.P,Q2,2*%
%TO.N,/DTR*%
X119822000Y-59158000D03*
%TO.P,Q2,1*%
%TO.N,Net-(Q2-Pad1)*%
X117922000Y-59158000D03*
%TD*%
%TO.P,Q1,3*%
%TO.N,/EN*%
X82296000Y-56158000D03*
%TO.P,Q1,2*%
%TO.N,/RTS*%
X83246000Y-59158000D03*
%TO.P,Q1,1*%
%TO.N,Net-(Q1-Pad1)*%
X81346000Y-59158000D03*
%TD*%
D19*
%TO.P,D5,1*%
%TO.N,+5V*%
X99748000Y-62484000D03*
%TO.P,D5,2*%
%TO.N,Net-(D5-Pad2)*%
X99748000Y-65684000D03*
%TO.P,D5,4*%
%TO.N,/IO13*%
X104648000Y-62484000D03*
%TO.P,D5,3*%
%TO.N,GND*%
X104648000Y-65684000D03*
%TD*%
%TO.P,D4,2*%
%TO.N,+3V3*%
%TA.AperFunction,SMDPad,CuDef*%
G36*
G01*
X85075000Y-48685000D02*
X83825000Y-48685000D01*
G75*
G02*
X83575000Y-48435000I0J250000D01*
G01*
X83575000Y-47510000D01*
G75*
G02*
X83825000Y-47260000I250000J0D01*
G01*
X85075000Y-47260000D01*
G75*
G02*
X85325000Y-47510000I0J-250000D01*
G01*
X85325000Y-48435000D01*
G75*
G02*
X85075000Y-48685000I-250000J0D01*
G01*
G37*
%TD.AperFunction*%
%TO.P,D4,1*%
%TO.N,Net-(D4-Pad1)*%
%TA.AperFunction,SMDPad,CuDef*%
G36*
G01*
X85075000Y-51660000D02*
X83825000Y-51660000D01*
G75*
G02*
X83575000Y-51410000I0J250000D01*
G01*
X83575000Y-50485000D01*
G75*
G02*
X83825000Y-50235000I250000J0D01*
G01*
X85075000Y-50235000D01*
G75*
G02*
X85325000Y-50485000I0J-250000D01*
G01*
X85325000Y-51410000D01*
G75*
G02*
X85075000Y-51660000I-250000J0D01*
G01*
G37*
%TD.AperFunction*%
%TD*%
%TO.P,D3,2*%
%TO.N,+3V3*%
%TA.AperFunction,SMDPad,CuDef*%
G36*
G01*
X113297000Y-55997000D02*
X113297000Y-54747000D01*
G75*
G02*
X113547000Y-54497000I250000J0D01*
G01*
X114472000Y-54497000D01*
G75*
G02*
X114722000Y-54747000I0J-250000D01*
G01*
X114722000Y-55997000D01*
G75*
G02*
X114472000Y-56247000I-250000J0D01*
G01*
X113547000Y-56247000D01*
G75*
G02*
X113297000Y-55997000I0J250000D01*
G01*
G37*
%TD.AperFunction*%
%TO.P,D3,1*%
%TO.N,Net-(D3-Pad1)*%
%TA.AperFunction,SMDPad,CuDef*%
G36*
G01*
X110322000Y-55997000D02*
X110322000Y-54747000D01*
G75*
G02*
X110572000Y-54497000I250000J0D01*
G01*
X111497000Y-54497000D01*
G75*
G02*
X111747000Y-54747000I0J-250000D01*
G01*
X111747000Y-55997000D01*
G75*
G02*
X111497000Y-56247000I-250000J0D01*
G01*
X110572000Y-56247000D01*
G75*
G02*
X110322000Y-55997000I0J250000D01*
G01*
G37*
%TD.AperFunction*%
%TD*%
%TO.P,D2,2*%
%TO.N,+3V3*%
%TA.AperFunction,SMDPad,CuDef*%
G36*
G01*
X91681000Y-54747000D02*
X91681000Y-55997000D01*
G75*
G02*
X91431000Y-56247000I-250000J0D01*
G01*
X90506000Y-56247000D01*
G75*
G02*
X90256000Y-55997000I0J250000D01*
G01*
X90256000Y-54747000D01*
G75*
G02*
X90506000Y-54497000I250000J0D01*
G01*
X91431000Y-54497000D01*
G75*
G02*
X91681000Y-54747000I0J-250000D01*
G01*
G37*
%TD.AperFunction*%
%TO.P,D2,1*%
%TO.N,Net-(D2-Pad1)*%
%TA.AperFunction,SMDPad,CuDef*%
G36*
G01*
X94656000Y-54747000D02*
X94656000Y-55997000D01*
G75*
G02*
X94406000Y-56247000I-250000J0D01*
G01*
X93481000Y-56247000D01*
G75*
G02*
X93231000Y-55997000I0J250000D01*
G01*
X93231000Y-54747000D01*
G75*
G02*
X93481000Y-54497000I250000J0D01*
G01*
X94406000Y-54497000D01*
G75*
G02*
X94656000Y-54747000I0J-250000D01*
G01*
G37*
%TD.AperFunction*%
%TD*%
D10*
%TO.P,D1,2*%
%TO.N,VBUS*%
X98422000Y-83058000D03*
%TO.P,D1,1*%
%TO.N,+5V*%
X101222000Y-83058000D03*
%TD*%
%TO.P,C10,1*%
%TO.N,/EN*%
%TA.AperFunction,SMDPad,CuDef*%
G36*
G01*
X89583002Y-45468900D02*
X88282998Y-45468900D01*
G75*
G02*
X88033000Y-45218902I0J249998D01*
G01*
X88033000Y-44393898D01*
G75*
G02*
X88282998Y-44143900I249998J0D01*
G01*
X89583002Y-44143900D01*
G75*
G02*
X89833000Y-44393898I0J-249998D01*
G01*
X89833000Y-45218902D01*
G75*
G02*
X89583002Y-45468900I-249998J0D01*
G01*
G37*
%TD.AperFunction*%
%TO.P,C10,2*%
%TO.N,GND*%
%TA.AperFunction,SMDPad,CuDef*%
G36*
G01*
X89583002Y-42343900D02*
X88282998Y-42343900D01*
G75*
G02*
X88033000Y-42093902I0J249998D01*
G01*
X88033000Y-41268898D01*
G75*
G02*
X88282998Y-41018900I249998J0D01*
G01*
X89583002Y-41018900D01*
G75*
G02*
X89833000Y-41268898I0J-249998D01*
G01*
X89833000Y-42093902D01*
G75*
G02*
X89583002Y-42343900I-249998J0D01*
G01*
G37*
%TD.AperFunction*%
%TD*%
%TO.P,C9,2*%
%TO.N,GND*%
%TA.AperFunction,SMDPad,CuDef*%
G36*
G01*
X88299998Y-37550000D02*
X89600002Y-37550000D01*
G75*
G02*
X89850000Y-37799998I0J-249998D01*
G01*
X89850000Y-38625002D01*
G75*
G02*
X89600002Y-38875000I-249998J0D01*
G01*
X88299998Y-38875000D01*
G75*
G02*
X88050000Y-38625002I0J249998D01*
G01*
X88050000Y-37799998D01*
G75*
G02*
X88299998Y-37550000I249998J0D01*
G01*
G37*
%TD.AperFunction*%
%TO.P,C9,1*%
%TO.N,+3V3*%
%TA.AperFunction,SMDPad,CuDef*%
G36*
G01*
X88299998Y-34425000D02*
X89600002Y-34425000D01*
G75*
G02*
X89850000Y-34674998I0J-249998D01*
G01*
X89850000Y-35500002D01*
G75*
G02*
X89600002Y-35750000I-249998J0D01*
G01*
X88299998Y-35750000D01*
G75*
G02*
X88050000Y-35500002I0J249998D01*
G01*
X88050000Y-34674998D01*
G75*
G02*
X88299998Y-34425000I249998J0D01*
G01*
G37*
%TD.AperFunction*%
%TD*%
%TO.P,C8,2*%
%TO.N,GND*%
%TA.AperFunction,SMDPad,CuDef*%
G36*
G01*
X83799998Y-37550000D02*
X85100002Y-37550000D01*
G75*
G02*
X85350000Y-37799998I0J-249998D01*
G01*
X85350000Y-38625002D01*
G75*
G02*
X85100002Y-38875000I-249998J0D01*
G01*
X83799998Y-38875000D01*
G75*
G02*
X83550000Y-38625002I0J249998D01*
G01*
X83550000Y-37799998D01*
G75*
G02*
X83799998Y-37550000I249998J0D01*
G01*
G37*
%TD.AperFunction*%
%TO.P,C8,1*%
%TO.N,+3V3*%
%TA.AperFunction,SMDPad,CuDef*%
G36*
G01*
X83799998Y-34425000D02*
X85100002Y-34425000D01*
G75*
G02*
X85350000Y-34674998I0J-249998D01*
G01*
X85350000Y-35500002D01*
G75*
G02*
X85100002Y-35750000I-249998J0D01*
G01*
X83799998Y-35750000D01*
G75*
G02*
X83550000Y-35500002I0J249998D01*
G01*
X83550000Y-34674998D01*
G75*
G02*
X83799998Y-34425000I249998J0D01*
G01*
G37*
%TD.AperFunction*%
%TD*%
%TO.P,C7,2*%
%TO.N,+5V*%
%TA.AperFunction,SMDPad,CuDef*%
G36*
G01*
X101462000Y-56245998D02*
X101462000Y-57546002D01*
G75*
G02*
X101212002Y-57796000I-249998J0D01*
G01*
X100386998Y-57796000D01*
G75*
G02*
X100137000Y-57546002I0J249998D01*
G01*
X100137000Y-56245998D01*
G75*
G02*
X100386998Y-55996000I249998J0D01*
G01*
X101212002Y-55996000D01*
G75*
G02*
X101462000Y-56245998I0J-249998D01*
G01*
G37*
%TD.AperFunction*%
%TO.P,C7,1*%
%TO.N,GND*%
%TA.AperFunction,SMDPad,CuDef*%
G36*
G01*
X104587000Y-56245998D02*
X104587000Y-57546002D01*
G75*
G02*
X104337002Y-57796000I-249998J0D01*
G01*
X103511998Y-57796000D01*
G75*
G02*
X103262000Y-57546002I0J249998D01*
G01*
X103262000Y-56245998D01*
G75*
G02*
X103511998Y-55996000I249998J0D01*
G01*
X104337002Y-55996000D01*
G75*
G02*
X104587000Y-56245998I0J-249998D01*
G01*
G37*
%TD.AperFunction*%
%TD*%
%TO.P,C6,2*%
%TO.N,GND*%
%TA.AperFunction,SMDPad,CuDef*%
G36*
G01*
X84720000Y-73040002D02*
X84720000Y-71739998D01*
G75*
G02*
X84969998Y-71490000I249998J0D01*
G01*
X85795002Y-71490000D01*
G75*
G02*
X86045000Y-71739998I0J-249998D01*
G01*
X86045000Y-73040002D01*
G75*
G02*
X85795002Y-73290000I-249998J0D01*
G01*
X84969998Y-73290000D01*
G75*
G02*
X84720000Y-73040002I0J249998D01*
G01*
G37*
%TD.AperFunction*%
%TO.P,C6,1*%
%TO.N,VBUS*%
%TA.AperFunction,SMDPad,CuDef*%
G36*
G01*
X81595000Y-73040002D02*
X81595000Y-71739998D01*
G75*
G02*
X81844998Y-71490000I249998J0D01*
G01*
X82670002Y-71490000D01*
G75*
G02*
X82920000Y-71739998I0J-249998D01*
G01*
X82920000Y-73040002D01*
G75*
G02*
X82670002Y-73290000I-249998J0D01*
G01*
X81844998Y-73290000D01*
G75*
G02*
X81595000Y-73040002I0J249998D01*
G01*
G37*
%TD.AperFunction*%
%TD*%
%TO.P,C5,2*%
%TO.N,GND*%
%TA.AperFunction,SMDPad,CuDef*%
G36*
G01*
X84720000Y-78120002D02*
X84720000Y-76819998D01*
G75*
G02*
X84969998Y-76570000I249998J0D01*
G01*
X85795002Y-76570000D01*
G75*
G02*
X86045000Y-76819998I0J-249998D01*
G01*
X86045000Y-78120002D01*
G75*
G02*
X85795002Y-78370000I-249998J0D01*
G01*
X84969998Y-78370000D01*
G75*
G02*
X84720000Y-78120002I0J249998D01*
G01*
G37*
%TD.AperFunction*%
%TO.P,C5,1*%
%TO.N,VBUS*%
%TA.AperFunction,SMDPad,CuDef*%
G36*
G01*
X81595000Y-78120002D02*
X81595000Y-76819998D01*
G75*
G02*
X81844998Y-76570000I249998J0D01*
G01*
X82670002Y-76570000D01*
G75*
G02*
X82920000Y-76819998I0J-249998D01*
G01*
X82920000Y-78120002D01*
G75*
G02*
X82670002Y-78370000I-249998J0D01*
G01*
X81844998Y-78370000D01*
G75*
G02*
X81595000Y-78120002I0J249998D01*
G01*
G37*
%TD.AperFunction*%
%TD*%
%TO.P,C4,2*%
%TO.N,GND*%
%TA.AperFunction,SMDPad,CuDef*%
G36*
G01*
X84942398Y-66798300D02*
X86242402Y-66798300D01*
G75*
G02*
X86492400Y-67048298I0J-249998D01*
G01*
X86492400Y-67873302D01*
G75*
G02*
X86242402Y-68123300I-249998J0D01*
G01*
X84942398Y-68123300D01*
G75*
G02*
X84692400Y-67873302I0J249998D01*
G01*
X84692400Y-67048298D01*
G75*
G02*
X84942398Y-66798300I249998J0D01*
G01*
G37*
%TD.AperFunction*%
%TO.P,C4,1*%
%TO.N,+3V3*%
%TA.AperFunction,SMDPad,CuDef*%
G36*
G01*
X84942398Y-63673300D02*
X86242402Y-63673300D01*
G75*
G02*
X86492400Y-63923298I0J-249998D01*
G01*
X86492400Y-64748302D01*
G75*
G02*
X86242402Y-64998300I-249998J0D01*
G01*
X84942398Y-64998300D01*
G75*
G02*
X84692400Y-64748302I0J249998D01*
G01*
X84692400Y-63923298D01*
G75*
G02*
X84942398Y-63673300I249998J0D01*
G01*
G37*
%TD.AperFunction*%
%TD*%
%TO.P,C3,2*%
%TO.N,GND*%
%TA.AperFunction,SMDPad,CuDef*%
G36*
G01*
X81549998Y-66800000D02*
X82850002Y-66800000D01*
G75*
G02*
X83100000Y-67049998I0J-249998D01*
G01*
X83100000Y-67875002D01*
G75*
G02*
X82850002Y-68125000I-249998J0D01*
G01*
X81549998Y-68125000D01*
G75*
G02*
X81300000Y-67875002I0J249998D01*
G01*
X81300000Y-67049998D01*
G75*
G02*
X81549998Y-66800000I249998J0D01*
G01*
G37*
%TD.AperFunction*%
%TO.P,C3,1*%
%TO.N,+3V3*%
%TA.AperFunction,SMDPad,CuDef*%
G36*
G01*
X81549998Y-63675000D02*
X82850002Y-63675000D01*
G75*
G02*
X83100000Y-63924998I0J-249998D01*
G01*
X83100000Y-64750002D01*
G75*
G02*
X82850002Y-65000000I-249998J0D01*
G01*
X81549998Y-65000000D01*
G75*
G02*
X81300000Y-64750002I0J249998D01*
G01*
X81300000Y-63924998D01*
G75*
G02*
X81549998Y-63675000I249998J0D01*
G01*
G37*
%TD.AperFunction*%
%TD*%
%TO.P,C2,2*%
%TO.N,GND*%
%TA.AperFunction,SMDPad,CuDef*%
G36*
G01*
X96662002Y-78250000D02*
X95361998Y-78250000D01*
G75*
G02*
X95112000Y-78000002I0J249998D01*
G01*
X95112000Y-77174998D01*
G75*
G02*
X95361998Y-76925000I249998J0D01*
G01*
X96662002Y-76925000D01*
G75*
G02*
X96912000Y-77174998I0J-249998D01*
G01*
X96912000Y-78000002D01*
G75*
G02*
X96662002Y-78250000I-249998J0D01*
G01*
G37*
%TD.AperFunction*%
%TO.P,C2,1*%
%TO.N,+3V3*%
%TA.AperFunction,SMDPad,CuDef*%
G36*
G01*
X96662002Y-81375000D02*
X95361998Y-81375000D01*
G75*
G02*
X95112000Y-81125002I0J249998D01*
G01*
X95112000Y-80299998D01*
G75*
G02*
X95361998Y-80050000I249998J0D01*
G01*
X96662002Y-80050000D01*
G75*
G02*
X96912000Y-80299998I0J-249998D01*
G01*
X96912000Y-81125002D01*
G75*
G02*
X96662002Y-81375000I-249998J0D01*
G01*
G37*
%TD.AperFunction*%
%TD*%
%TO.P,C1,2*%
%TO.N,GND*%
%TA.AperFunction,SMDPad,CuDef*%
G36*
G01*
X108315998Y-79894000D02*
X109616002Y-79894000D01*
G75*
G02*
X109866000Y-80143998I0J-249998D01*
G01*
X109866000Y-80969002D01*
G75*
G02*
X109616002Y-81219000I-249998J0D01*
G01*
X108315998Y-81219000D01*
G75*
G02*
X108066000Y-80969002I0J249998D01*
G01*
X108066000Y-80143998D01*
G75*
G02*
X108315998Y-79894000I249998J0D01*
G01*
G37*
%TD.AperFunction*%
%TO.P,C1,1*%
%TO.N,+5V*%
%TA.AperFunction,SMDPad,CuDef*%
G36*
G01*
X108315998Y-76769000D02*
X109616002Y-76769000D01*
G75*
G02*
X109866000Y-77018998I0J-249998D01*
G01*
X109866000Y-77844002D01*
G75*
G02*
X109616002Y-78094000I-249998J0D01*
G01*
X108315998Y-78094000D01*
G75*
G02*
X108066000Y-77844002I0J249998D01*
G01*
X108066000Y-77018998D01*
G75*
G02*
X108315998Y-76769000I249998J0D01*
G01*
G37*
%TD.AperFunction*%
%TD*%
D20*
%TO.P,M1,0*%
%TO.N,N/C*%
X98830000Y-92020000D03*
D21*
%TO.P,M1,1*%
%TO.N,VBUS*%
X101130000Y-89230000D03*
%TO.P,M1,2*%
%TO.N,/D-*%
X101780000Y-89230000D03*
%TO.P,M1,5*%
%TO.N,GND*%
X103730000Y-89230000D03*
%TO.P,M1,4*%
%TO.N,Net-(M1-Pad4)*%
X103080000Y-89230000D03*
D22*
%TO.P,M1,0*%
%TO.N,N/C*%
X100005000Y-89230000D03*
X104855000Y-89230000D03*
D21*
%TO.P,M1,3*%
%TO.N,/D+*%
X102430000Y-89230000D03*
D20*
%TO.P,M1,0*%
%TO.N,N/C*%
X106030000Y-92020000D03*
%TD*%
D23*
%TO.N,GND*%
X79300000Y-52100000D03*
X79300000Y-53400000D03*
X79300000Y-54800000D03*
X79300000Y-56200000D03*
X79300000Y-57600000D03*
X79300000Y-59000000D03*
X79300000Y-60500000D03*
X79300000Y-61900000D03*
X79300000Y-63200000D03*
X79300000Y-64600000D03*
X79300000Y-66000000D03*
X79300000Y-67400000D03*
X79300000Y-68700000D03*
X79300000Y-69900000D03*
X79300000Y-71200000D03*
X79300000Y-73700000D03*
X79300000Y-74900000D03*
X79300000Y-76200000D03*
X79300000Y-77500000D03*
X79300000Y-81400000D03*
X79300000Y-80200000D03*
X79300000Y-82600000D03*
X79300000Y-83800000D03*
X79300000Y-85000000D03*
X79300000Y-91200000D03*
X79300000Y-92400000D03*
X79300000Y-72500000D03*
X79300000Y-78900000D03*
X79300000Y-86200000D03*
X79300000Y-87500000D03*
X79300000Y-88800000D03*
X79300000Y-90000000D03*
%TO.N,+3V3*%
X84892800Y-62054600D03*
X90723900Y-67784600D03*
%TO.N,/RTS*%
X120782200Y-59623500D03*
X84147700Y-59702600D03*
X94110400Y-62274800D03*
%TO.N,/MCU_TX*%
X109874700Y-41433300D03*
X94982300Y-57765300D03*
%TO.N,/MCU_RX*%
X113224800Y-38429600D03*
X93156100Y-57247300D03*
%TO.N,/DTR*%
X116545000Y-58974300D03*
X86925600Y-57147500D03*
X91950000Y-60201500D03*
%TD*%
D24*
%TO.N,VBUS*%
X92144000Y-78781200D02*
X92144000Y-70831800D01*
X92144000Y-70831800D02*
X91950000Y-70637800D01*
X91950000Y-70637800D02*
X91950000Y-67837500D01*
X98422000Y-83495600D02*
X96858400Y-83495600D01*
X96858400Y-83495600D02*
X92144000Y-78781200D01*
X82257500Y-77470000D02*
X82257500Y-77701300D01*
X82257500Y-77701300D02*
X84261500Y-79705300D01*
X84261500Y-79705300D02*
X91219900Y-79705300D01*
X91219900Y-79705300D02*
X92144000Y-78781200D01*
X82257500Y-72390000D02*
X82257500Y-77470000D01*
X98422000Y-83495600D02*
X98422000Y-83933300D01*
X98422000Y-83058000D02*
X98422000Y-83495600D01*
X101130000Y-89230000D02*
X101130000Y-86641300D01*
X101130000Y-86641300D02*
X98422000Y-83933300D01*
%TO.N,GND*%
X85382500Y-67462500D02*
X85590700Y-67462500D01*
X85590700Y-67462500D02*
X85592400Y-67460800D01*
X102150000Y-40850000D02*
X102150000Y-37524700D01*
X103730000Y-89230000D02*
X103730000Y-90180300D01*
X90762500Y-65150000D02*
X91950000Y-65150000D01*
X91950000Y-65150000D02*
X92700000Y-65900000D01*
X89890100Y-65150000D02*
X90762500Y-65150000D01*
X103730000Y-88392300D02*
X103730000Y-88279700D01*
X103730000Y-88279700D02*
X103910000Y-88099700D01*
X103910000Y-87331900D02*
X103910000Y-87331800D01*
X108966000Y-80556500D02*
X108966000Y-81288500D01*
X99676300Y-55666600D02*
X101991500Y-55666600D01*
X101991500Y-55666600D02*
X103572700Y-57247800D01*
X100062000Y-78050000D02*
X98986700Y-78050000D01*
X98986700Y-78050000D02*
X98524200Y-77587500D01*
X103924500Y-56896000D02*
X103572700Y-57247800D01*
X88950000Y-38212500D02*
X88933000Y-38229500D01*
X79300000Y-67400000D02*
X79300000Y-67462500D01*
X103730000Y-89230000D02*
X103730000Y-88392300D01*
X101354400Y-85413200D02*
X101991300Y-85413200D01*
X99893100Y-83951900D02*
X101354400Y-85413200D01*
X99893100Y-81939700D02*
X99893100Y-83951900D01*
X99822000Y-81868600D02*
X99893100Y-81939700D01*
X100062000Y-78050000D02*
X99822000Y-78290000D01*
X89890100Y-65150000D02*
X89890100Y-63982100D01*
X92202000Y-55880000D02*
X92202000Y-54102000D01*
X92006010Y-56075990D02*
X92202000Y-55880000D01*
X92006010Y-56235180D02*
X92006010Y-56075990D01*
X91669180Y-56572010D02*
X92006010Y-56235180D01*
X91509990Y-56572010D02*
X91669180Y-56572010D01*
X89662000Y-58420000D02*
X91509990Y-56572010D01*
%TO.N,+3V3*%
X95025300Y-49536300D02*
X95025300Y-34420000D01*
X90968500Y-51178600D02*
X93864800Y-51178600D01*
X93864800Y-51178600D02*
X95025300Y-50018100D01*
X95025300Y-50018100D02*
X95025300Y-49536300D01*
X95025300Y-49536300D02*
X108481300Y-49536300D01*
X108481300Y-49536300D02*
X114009500Y-55064500D01*
X114009500Y-55064500D02*
X114009500Y-55372000D01*
X90968500Y-51178600D02*
X90968500Y-55372000D01*
X84450000Y-47972500D02*
X86459200Y-49981700D01*
X86459200Y-49981700D02*
X89771600Y-49981700D01*
X89771600Y-49981700D02*
X90968500Y-51178600D01*
X93450000Y-34420000D02*
X95025300Y-34420000D01*
X114009500Y-55372000D02*
X114794400Y-56156900D01*
X114794400Y-56156900D02*
X114794400Y-61619600D01*
X114794400Y-61619600D02*
X110779900Y-65634100D01*
X110779900Y-65634100D02*
X110779900Y-77493800D01*
X110779900Y-77493800D02*
X109773300Y-78500400D01*
X109773300Y-78500400D02*
X108435000Y-78500400D01*
X108435000Y-78500400D02*
X105286800Y-81648600D01*
X105286800Y-81648600D02*
X105286800Y-83115600D01*
X105286800Y-83115600D02*
X104423500Y-83978900D01*
X104423500Y-83978900D02*
X100557000Y-83978900D01*
X100557000Y-83978900D02*
X100343400Y-83765300D01*
X100343400Y-83765300D02*
X100343400Y-82351600D01*
X100343400Y-82351600D02*
X101286700Y-81408300D01*
X101286700Y-81408300D02*
X101286700Y-78050000D01*
X85715600Y-35087500D02*
X88950000Y-35087500D01*
X96012000Y-80712500D02*
X94777000Y-79477500D01*
X94777000Y-79477500D02*
X94777000Y-76920000D01*
X94777000Y-76920000D02*
X95142300Y-76554700D01*
X95142300Y-76554700D02*
X100798200Y-76554700D01*
X100798200Y-76554700D02*
X101286700Y-77043200D01*
X101286700Y-77043200D02*
X101286700Y-78050000D01*
X84920600Y-62054600D02*
X84892800Y-62054600D01*
X85592400Y-64335800D02*
X85592400Y-62726400D01*
X85592400Y-62726400D02*
X84920600Y-62054600D01*
X90968500Y-55372000D02*
X90968500Y-56006700D01*
X90968500Y-56006700D02*
X84920600Y-62054600D01*
X91060500Y-67448000D02*
X91450000Y-67837500D01*
X90762500Y-67150000D02*
X91060500Y-67448000D01*
X91060500Y-67448000D02*
X90723900Y-67784600D01*
X91150000Y-72400000D02*
X91450000Y-72100000D01*
X91450000Y-72100000D02*
X91450000Y-67837500D01*
X102362000Y-78050000D02*
X101286700Y-78050000D01*
X85715600Y-35087500D02*
X84450000Y-35087500D01*
X85715600Y-35087500D02*
X85715600Y-40351300D01*
X85715600Y-40351300D02*
X84438000Y-41628900D01*
X93450000Y-34420000D02*
X89617500Y-34420000D01*
X89617500Y-34420000D02*
X88950000Y-35087500D01*
X85592400Y-64335800D02*
X82201700Y-64335800D01*
X82201700Y-64335800D02*
X82200000Y-64337500D01*
X90762500Y-66650000D02*
X90762500Y-67150000D01*
%TO.N,/D-*%
X101780000Y-89230000D02*
X101780000Y-90180300D01*
X101780000Y-90180300D02*
X93090400Y-90180300D01*
X93090400Y-90180300D02*
X81214200Y-78304100D01*
X81214200Y-78304100D02*
X81214200Y-71516900D01*
X81214200Y-71516900D02*
X81567500Y-71163600D01*
X81567500Y-71163600D02*
X82908400Y-71163600D01*
X82908400Y-71163600D02*
X83246300Y-71501500D01*
X83246300Y-71501500D02*
X83246300Y-77981200D01*
X83246300Y-77981200D02*
X84470000Y-79204900D01*
X84470000Y-79204900D02*
X86290900Y-79204900D01*
X86290900Y-79204900D02*
X89998000Y-75497800D01*
X89998000Y-75497800D02*
X89998000Y-66395900D01*
X89998000Y-66395900D02*
X90243900Y-66150000D01*
X90243900Y-66150000D02*
X90762500Y-66150000D01*
%TO.N,/D+*%
X90762500Y-65650000D02*
X90107000Y-65650000D01*
X90107000Y-65650000D02*
X88952100Y-66804900D01*
X88952100Y-66804900D02*
X88952100Y-75854700D01*
X88952100Y-75854700D02*
X86063500Y-78743300D01*
X86063500Y-78743300D02*
X84702500Y-78743300D01*
X84702500Y-78743300D02*
X83908700Y-77949500D01*
X83908700Y-77949500D02*
X83908700Y-71527000D01*
X83908700Y-71527000D02*
X83095000Y-70713300D01*
X83095000Y-70713300D02*
X81380900Y-70713300D01*
X81380900Y-70713300D02*
X80763900Y-71330300D01*
X80763900Y-71330300D02*
X80763900Y-78490700D01*
X80763900Y-78490700D02*
X92903800Y-90630600D01*
X92903800Y-90630600D02*
X101979700Y-90630600D01*
X101979700Y-90630600D02*
X102430000Y-90180300D01*
X102430000Y-89230000D02*
X102430000Y-90180300D01*
%TO.N,Net-(R1-Pad1)*%
X94250000Y-72400000D02*
X94250000Y-71126300D01*
X94250000Y-71126300D02*
X92450000Y-69326300D01*
X92450000Y-69326300D02*
X92450000Y-67837500D01*
%TO.N,/LED_RX*%
X94637500Y-67150000D02*
X105578800Y-67150000D01*
X105578800Y-67150000D02*
X110718000Y-62010800D01*
X110718000Y-62010800D02*
X110718000Y-59182000D01*
%TO.N,/LED_TX*%
X95109400Y-66650000D02*
X94637500Y-66650000D01*
X95612800Y-66146600D02*
X95109400Y-66650000D01*
X94614600Y-54133000D02*
X95612800Y-55131200D01*
X92652011Y-56261100D02*
X92652011Y-54748489D01*
X95612800Y-55131200D02*
X95612800Y-66146600D01*
X92652011Y-54748489D02*
X93267500Y-54133000D01*
X90906000Y-58007111D02*
X92652011Y-56261100D01*
X93267500Y-54133000D02*
X94614600Y-54133000D01*
X90906000Y-59150000D02*
X90906000Y-58007111D01*
%TO.N,/RTS*%
X120782200Y-59623500D02*
X122012500Y-59623500D01*
X122012500Y-59623500D02*
X122174000Y-59462000D01*
X83246000Y-59158000D02*
X83971300Y-59158000D01*
X83971300Y-59158000D02*
X83971300Y-59526200D01*
X83971300Y-59526200D02*
X84147700Y-59702600D01*
X93950000Y-63962500D02*
X93950000Y-62435200D01*
X93950000Y-62435200D02*
X94110400Y-62274800D01*
%TO.N,/MCU_TX*%
X109874700Y-36960000D02*
X109874700Y-41433300D01*
X93450000Y-63962500D02*
X93450000Y-61620900D01*
X93450000Y-61620900D02*
X94982300Y-60088600D01*
X94982300Y-60088600D02*
X94982300Y-57765300D01*
X111450000Y-36960000D02*
X109874700Y-36960000D01*
%TO.N,/MCU_RX*%
X92950000Y-63962500D02*
X92950000Y-57453400D01*
X92950000Y-57453400D02*
X93156100Y-57247300D01*
X113025300Y-38230000D02*
X113224800Y-38429500D01*
X113224800Y-38429500D02*
X113224800Y-38429600D01*
X111450000Y-38230000D02*
X113025300Y-38230000D01*
%TO.N,/DTR*%
X119822000Y-59158000D02*
X118546600Y-60433400D01*
X118546600Y-60433400D02*
X117365300Y-60433400D01*
X117365300Y-60433400D02*
X116545000Y-59613100D01*
X116545000Y-59613100D02*
X116545000Y-58974300D01*
X86925600Y-57147500D02*
X86383500Y-57147500D01*
X86383500Y-57147500D02*
X85598000Y-56362000D01*
X91950000Y-63962500D02*
X91950000Y-60201500D01*
%TO.N,Net-(D2-Pad1)*%
X93943500Y-55372000D02*
X93943500Y-59087500D01*
X93943500Y-59087500D02*
X94006000Y-59150000D01*
%TO.N,Net-(D3-Pad1)*%
X111034500Y-55372000D02*
X111034500Y-56398500D01*
X111034500Y-56398500D02*
X113818000Y-59182000D01*
%TO.N,/IO13*%
X98005000Y-52725300D02*
X101670300Y-52725300D01*
X101670300Y-52725300D02*
X105723300Y-56778300D01*
X105723300Y-56778300D02*
X105723300Y-62484000D01*
X98005000Y-51150000D02*
X98005000Y-52725300D01*
X104648000Y-62484000D02*
X105723300Y-62484000D01*
%TO.N,/EN*%
X84515500Y-44806400D02*
X84438000Y-44728900D01*
X87728000Y-44806400D02*
X84515500Y-44806400D01*
X88933000Y-44806400D02*
X87728000Y-44806400D01*
X87728000Y-44806400D02*
X87728000Y-48526800D01*
X87728000Y-48526800D02*
X88099300Y-48898100D01*
X88099300Y-48898100D02*
X89800600Y-48898100D01*
X89800600Y-48898100D02*
X91874700Y-46824000D01*
X91874700Y-46824000D02*
X91874700Y-35690000D01*
X93450000Y-35690000D02*
X91874700Y-35690000D01*
X82296000Y-55118000D02*
X82296000Y-56158000D01*
X82804000Y-54610000D02*
X82296000Y-55118000D01*
X82804000Y-46517900D02*
X82804000Y-54610000D01*
X84515500Y-44806400D02*
X82804000Y-46517900D01*
%TO.N,/IO0*%
X118872000Y-56158000D02*
X118146700Y-56158000D01*
X118146700Y-56158000D02*
X111648700Y-49660000D01*
X111648700Y-49660000D02*
X111450000Y-49660000D01*
%TO.N,/UART_RX*%
X114808000Y-70293000D02*
X115443000Y-69658000D01*
X115443000Y-69658000D02*
X115443000Y-54899900D01*
X115443000Y-54899900D02*
X113970600Y-53427500D01*
X113970600Y-53427500D02*
X113259200Y-53427500D01*
X113259200Y-53427500D02*
X109874700Y-50043000D01*
X109874700Y-50043000D02*
X109874700Y-47120000D01*
X111450000Y-47120000D02*
X109874700Y-47120000D01*
%TO.N,Net-(D4-Pad1)*%
X84450000Y-50947500D02*
X88887500Y-50947500D01*
X88887500Y-50947500D02*
X88950000Y-51010000D01*
%TO.N,Net-(Q1-Pad1)*%
X81346000Y-59158000D02*
X82071300Y-59158000D01*
X82071300Y-59158000D02*
X82071300Y-59883300D01*
X82071300Y-59883300D02*
X82627100Y-60439100D01*
X82627100Y-60439100D02*
X84620900Y-60439100D01*
X84620900Y-60439100D02*
X85598000Y-59462000D01*
%TO.N,Net-(Q2-Pad1)*%
X117922000Y-59158000D02*
X118647300Y-59158000D01*
X118647300Y-59158000D02*
X118647300Y-58432700D01*
X118647300Y-58432700D02*
X120718000Y-56362000D01*
X120718000Y-56362000D02*
X122174000Y-56362000D01*
%TO.N,/HAN_OUT*%
X120523000Y-77470000D02*
X120333300Y-77470000D01*
X120333300Y-77470000D02*
X113538000Y-70674700D01*
X113538000Y-70674700D02*
X113538000Y-70293000D01*
%TO.N,+5V*%
X108966000Y-77431500D02*
X108966000Y-66811100D01*
X108966000Y-66811100D02*
X111741900Y-64035200D01*
X111741900Y-64035200D02*
X111741900Y-58322100D01*
X111741900Y-58322100D02*
X111383000Y-57963200D01*
X111383000Y-57963200D02*
X110071100Y-57963200D01*
X110071100Y-57963200D02*
X106826600Y-61207700D01*
X106826600Y-61207700D02*
X106826600Y-65265300D01*
X106826600Y-65265300D02*
X105582500Y-66509400D01*
X105582500Y-66509400D02*
X103745900Y-66509400D01*
X103745900Y-66509400D02*
X100799500Y-63563000D01*
X100799500Y-63563000D02*
X100799500Y-62484000D01*
X108966000Y-77431500D02*
X106355800Y-77431500D01*
X106355800Y-77431500D02*
X105737300Y-78050000D01*
X101222000Y-83058000D02*
X102097300Y-83058000D01*
X103756000Y-82948500D02*
X102206800Y-82948500D01*
X102206800Y-82948500D02*
X102097300Y-83058000D01*
X103756000Y-82948500D02*
X103756000Y-82182700D01*
X103756000Y-83058000D02*
X103756000Y-82948500D01*
X105199700Y-78050000D02*
X105199700Y-80739000D01*
X105199700Y-80739000D02*
X103756000Y-82182700D01*
X105199700Y-78050000D02*
X105737300Y-78050000D01*
X104662000Y-78050000D02*
X105199700Y-78050000D01*
X99748000Y-62484000D02*
X100799500Y-62484000D01*
X100799500Y-56896000D02*
X100799500Y-62484000D01*
%TO.N,VDD*%
X112841500Y-76076100D02*
X109817700Y-79099900D01*
X109817700Y-79099900D02*
X108472400Y-79099900D01*
X108472400Y-79099900D02*
X106556000Y-81016300D01*
X106556000Y-81016300D02*
X106556000Y-83058000D01*
X113538000Y-65343000D02*
X112841500Y-66039500D01*
X112841500Y-66039500D02*
X112841500Y-76076100D01*
X115443000Y-77470000D02*
X114049100Y-76076100D01*
X114049100Y-76076100D02*
X112841500Y-76076100D01*
X116713000Y-80010000D02*
X115443000Y-78740000D01*
X115443000Y-78740000D02*
X115443000Y-77470000D01*
%TD*%
D25*
%TO.N,GND*%
X92313767Y-32110624D02*
X92117455Y-32196191D01*
X91941609Y-32318413D01*
X91792986Y-32472592D01*
X91677298Y-32652803D01*
X91605592Y-32855999D01*
X91732498Y-33023000D01*
X93323000Y-33023000D01*
X93323000Y-33003000D01*
X93577000Y-33003000D01*
X93577000Y-33023000D01*
X95167502Y-33023000D01*
X95294408Y-32855999D01*
X95222702Y-32652803D01*
X95107014Y-32472592D01*
X94958391Y-32318413D01*
X94782545Y-32196191D01*
X94586233Y-32110624D01*
X94583371Y-32110000D01*
X110316629Y-32110000D01*
X110313767Y-32110624D01*
X110117455Y-32196191D01*
X109941609Y-32318413D01*
X109792986Y-32472592D01*
X109677298Y-32652803D01*
X109605592Y-32855999D01*
X109732498Y-33023000D01*
X111323000Y-33023000D01*
X111323000Y-33003000D01*
X111577000Y-33003000D01*
X111577000Y-33023000D01*
X113167502Y-33023000D01*
X113294408Y-32855999D01*
X113222702Y-32652803D01*
X113107014Y-32472592D01*
X112958391Y-32318413D01*
X112782545Y-32196191D01*
X112586233Y-32110624D01*
X112583371Y-32110000D01*
X126240000Y-32110000D01*
X126240001Y-39615123D01*
X126240000Y-93940000D01*
X78660000Y-93940000D01*
X78660000Y-71330300D01*
X80000224Y-71330300D01*
X80003900Y-71367623D01*
X80003901Y-78453368D01*
X80000224Y-78490700D01*
X80003901Y-78528033D01*
X80014898Y-78639686D01*
X80028080Y-78683142D01*
X80058354Y-78782946D01*
X80128926Y-78914976D01*
X80185805Y-78984282D01*
X80223900Y-79030701D01*
X80252898Y-79054499D01*
X92340001Y-91141603D01*
X92363799Y-91170601D01*
X92479524Y-91265574D01*
X92611553Y-91336146D01*
X92754814Y-91379603D01*
X92866467Y-91390600D01*
X92866476Y-91390600D01*
X92903799Y-91394276D01*
X92941122Y-91390600D01*
X97676435Y-91390600D01*
X97662147Y-91437701D01*
X97645000Y-91611794D01*
X97645000Y-92428207D01*
X97662147Y-92602300D01*
X97729906Y-92825674D01*
X97839943Y-93031536D01*
X97988026Y-93211975D01*
X98168465Y-93360058D01*
X98374327Y-93470094D01*
X98597701Y-93537853D01*
X98830000Y-93560733D01*
X99062300Y-93537853D01*
X99285674Y-93470094D01*
X99491536Y-93360058D01*
X99671975Y-93211975D01*
X99820058Y-93031536D01*
X99930094Y-92825674D01*
X99997853Y-92602299D01*
X100015000Y-92428206D01*
X100015000Y-91611794D01*
X104845000Y-91611794D01*
X104845000Y-92428207D01*
X104862147Y-92602300D01*
X104929906Y-92825674D01*
X105039943Y-93031536D01*
X105188026Y-93211975D01*
X105368465Y-93360058D01*
X105574327Y-93470094D01*
X105797701Y-93537853D01*
X106030000Y-93560733D01*
X106262300Y-93537853D01*
X106485674Y-93470094D01*
X106691536Y-93360058D01*
X106871975Y-93211975D01*
X107020058Y-93031536D01*
X107130094Y-92825674D01*
X107197853Y-92602299D01*
X107215000Y-92428206D01*
X107215000Y-91611793D01*
X107197853Y-91437700D01*
X107130094Y-91214326D01*
X107020058Y-91008464D01*
X106871975Y-90828025D01*
X106691535Y-90679942D01*
X106485673Y-90569906D01*
X106262299Y-90502147D01*
X106030000Y-90479267D01*
X105797700Y-90502147D01*
X105574326Y-90569906D01*
X105368464Y-90679942D01*
X105188025Y-90828025D01*
X105039942Y-91008465D01*
X104929906Y-91214327D01*
X104862147Y-91437701D01*
X104845000Y-91611794D01*
X100015000Y-91611794D01*
X100015000Y-91611793D01*
X99997853Y-91437700D01*
X99983566Y-91390600D01*
X101942378Y-91390600D01*
X101979700Y-91394276D01*
X102017022Y-91390600D01*
X102017033Y-91390600D01*
X102128686Y-91379603D01*
X102271947Y-91336146D01*
X102403976Y-91265574D01*
X102519701Y-91170601D01*
X102543504Y-91141597D01*
X102940997Y-90744104D01*
X102970001Y-90720301D01*
X103064974Y-90604576D01*
X103124575Y-90493072D01*
X103280000Y-90493072D01*
X103404482Y-90480812D01*
X103407242Y-90479975D01*
X103498250Y-90490000D01*
X103566218Y-90422032D01*
X103634494Y-90385537D01*
X103731185Y-90306185D01*
X103803000Y-90218678D01*
X103803000Y-90331250D01*
X103961750Y-90490000D01*
X104065003Y-90478626D01*
X104184073Y-90440306D01*
X104293378Y-90379492D01*
X104307869Y-90367186D01*
X104487471Y-90441579D01*
X104730901Y-90490000D01*
X104979099Y-90490000D01*
X105222529Y-90441579D01*
X105451834Y-90346598D01*
X105658203Y-90208706D01*
X105833706Y-90033203D01*
X105971598Y-89826834D01*
X106066579Y-89597529D01*
X106115000Y-89354099D01*
X106115000Y-89105901D01*
X106066579Y-88862471D01*
X105971598Y-88633166D01*
X105833706Y-88426797D01*
X105658203Y-88251294D01*
X105451834Y-88113402D01*
X105222529Y-88018421D01*
X104979099Y-87970000D01*
X104730901Y-87970000D01*
X104487471Y-88018421D01*
X104307869Y-88092814D01*
X104293378Y-88080508D01*
X104184073Y-88019694D01*
X104065003Y-87981374D01*
X103961750Y-87970000D01*
X103803000Y-88128750D01*
X103803000Y-88241322D01*
X103731185Y-88153815D01*
X103634494Y-88074463D01*
X103566218Y-88037968D01*
X103498250Y-87970000D01*
X103407242Y-87980025D01*
X103404482Y-87979188D01*
X103280000Y-87966928D01*
X102880000Y-87966928D01*
X102755518Y-87979188D01*
X102755000Y-87979345D01*
X102754482Y-87979188D01*
X102630000Y-87966928D01*
X102230000Y-87966928D01*
X102105518Y-87979188D01*
X102105000Y-87979345D01*
X102104482Y-87979188D01*
X101980000Y-87966928D01*
X101890000Y-87966928D01*
X101890000Y-86678622D01*
X101893676Y-86641299D01*
X101890000Y-86603976D01*
X101890000Y-86603967D01*
X101879003Y-86492314D01*
X101835546Y-86349053D01*
X101764974Y-86217024D01*
X101699588Y-86137350D01*
X111277400Y-86137350D01*
X111277400Y-86582650D01*
X111364274Y-87019393D01*
X111534682Y-87430796D01*
X111782077Y-87801048D01*
X112096952Y-88115923D01*
X112467204Y-88363318D01*
X112878607Y-88533726D01*
X113315350Y-88620600D01*
X113760650Y-88620600D01*
X114197393Y-88533726D01*
X114608796Y-88363318D01*
X114979048Y-88115923D01*
X115293923Y-87801048D01*
X115541318Y-87430796D01*
X115711726Y-87019393D01*
X115798600Y-86582650D01*
X115798600Y-86137350D01*
X121437400Y-86137350D01*
X121437400Y-86582650D01*
X121524274Y-87019393D01*
X121694682Y-87430796D01*
X121942077Y-87801048D01*
X122256952Y-88115923D01*
X122627204Y-88363318D01*
X123038607Y-88533726D01*
X123475350Y-88620600D01*
X123920650Y-88620600D01*
X124357393Y-88533726D01*
X124768796Y-88363318D01*
X125139048Y-88115923D01*
X125453923Y-87801048D01*
X125701318Y-87430796D01*
X125871726Y-87019393D01*
X125958600Y-86582650D01*
X125958600Y-86137350D01*
X125871726Y-85700607D01*
X125701318Y-85289204D01*
X125453923Y-84918952D01*
X125139048Y-84604077D01*
X124768796Y-84356682D01*
X124357393Y-84186274D01*
X123920650Y-84099400D01*
X123475350Y-84099400D01*
X123038607Y-84186274D01*
X122627204Y-84356682D01*
X122256952Y-84604077D01*
X121942077Y-84918952D01*
X121694682Y-85289204D01*
X121524274Y-85700607D01*
X121437400Y-86137350D01*
X115798600Y-86137350D01*
X115711726Y-85700607D01*
X115541318Y-85289204D01*
X115293923Y-84918952D01*
X114979048Y-84604077D01*
X114608796Y-84356682D01*
X114197393Y-84186274D01*
X113760650Y-84099400D01*
X113315350Y-84099400D01*
X112878607Y-84186274D01*
X112467204Y-84356682D01*
X112096952Y-84604077D01*
X111782077Y-84918952D01*
X111534682Y-85289204D01*
X111364274Y-85700607D01*
X111277400Y-86137350D01*
X101699588Y-86137350D01*
X101670001Y-86101299D01*
X101641003Y-86077501D01*
X100228649Y-84665148D01*
X100264753Y-84684446D01*
X100408014Y-84727903D01*
X100519667Y-84738900D01*
X100519677Y-84738900D01*
X100556999Y-84742576D01*
X100594322Y-84738900D01*
X104386178Y-84738900D01*
X104423500Y-84742576D01*
X104460822Y-84738900D01*
X104460833Y-84738900D01*
X104572486Y-84727903D01*
X104715747Y-84684446D01*
X104847776Y-84613874D01*
X104963501Y-84518901D01*
X104987303Y-84489898D01*
X105493153Y-83984049D01*
X105554815Y-84059185D01*
X105651506Y-84138537D01*
X105761820Y-84197502D01*
X105881518Y-84233812D01*
X106006000Y-84246072D01*
X107106000Y-84246072D01*
X107230482Y-84233812D01*
X107350180Y-84197502D01*
X107460494Y-84138537D01*
X107557185Y-84059185D01*
X107636537Y-83962494D01*
X107695502Y-83852180D01*
X107731812Y-83732482D01*
X107744072Y-83608000D01*
X107744072Y-82508000D01*
X107731812Y-82383518D01*
X107695502Y-82263820D01*
X107636537Y-82153506D01*
X107557185Y-82056815D01*
X107460494Y-81977463D01*
X107350180Y-81918498D01*
X107316000Y-81908130D01*
X107316000Y-81331101D01*
X107427944Y-81219158D01*
X107440188Y-81343482D01*
X107476498Y-81463180D01*
X107535463Y-81573494D01*
X107614815Y-81670185D01*
X107711506Y-81749537D01*
X107821820Y-81808502D01*
X107941518Y-81844812D01*
X108066000Y-81857072D01*
X108680250Y-81854000D01*
X108839000Y-81695250D01*
X108839000Y-80683500D01*
X109093000Y-80683500D01*
X109093000Y-81695250D01*
X109251750Y-81854000D01*
X109866000Y-81857072D01*
X109990482Y-81844812D01*
X110110180Y-81808502D01*
X110220494Y-81749537D01*
X110317185Y-81670185D01*
X110396537Y-81573494D01*
X110455502Y-81463180D01*
X110491812Y-81343482D01*
X110504072Y-81219000D01*
X110501000Y-80842250D01*
X110342250Y-80683500D01*
X109093000Y-80683500D01*
X108839000Y-80683500D01*
X108819000Y-80683500D01*
X108819000Y-80429500D01*
X108839000Y-80429500D01*
X108839000Y-80409500D01*
X109093000Y-80409500D01*
X109093000Y-80429500D01*
X110342250Y-80429500D01*
X110501000Y-80270750D01*
X110504072Y-79894000D01*
X110491812Y-79769518D01*
X110455502Y-79649820D01*
X110416168Y-79576233D01*
X113156302Y-76836100D01*
X113734299Y-76836100D01*
X113925421Y-77027222D01*
X113868200Y-77314896D01*
X113868200Y-77625104D01*
X113928718Y-77929352D01*
X114047430Y-78215948D01*
X114219773Y-78473877D01*
X114439123Y-78693227D01*
X114691313Y-78861735D01*
X114693997Y-78888985D01*
X114736985Y-79030701D01*
X114737454Y-79032246D01*
X114808026Y-79164276D01*
X114841365Y-79204899D01*
X114902999Y-79280001D01*
X114932003Y-79303804D01*
X115195421Y-79567222D01*
X115138200Y-79854896D01*
X115138200Y-80165104D01*
X115198718Y-80469352D01*
X115317430Y-80755948D01*
X115489773Y-81013877D01*
X115709123Y-81233227D01*
X115967052Y-81405570D01*
X116253648Y-81524282D01*
X116557896Y-81584800D01*
X116868104Y-81584800D01*
X117172352Y-81524282D01*
X117458948Y-81405570D01*
X117716877Y-81233227D01*
X117936227Y-81013877D01*
X117983000Y-80943876D01*
X118029773Y-81013877D01*
X118249123Y-81233227D01*
X118507052Y-81405570D01*
X118793648Y-81524282D01*
X119097896Y-81584800D01*
X119408104Y-81584800D01*
X119712352Y-81524282D01*
X119998948Y-81405570D01*
X120256877Y-81233227D01*
X120387628Y-81102476D01*
X120880129Y-81102476D01*
X120968623Y-81360723D01*
X121247976Y-81495597D01*
X121548275Y-81573381D01*
X121857977Y-81591084D01*
X122165184Y-81548027D01*
X122458086Y-81445865D01*
X122617377Y-81360723D01*
X122705871Y-81102476D01*
X121793000Y-80189605D01*
X120880129Y-81102476D01*
X120387628Y-81102476D01*
X120476227Y-81013877D01*
X120567495Y-80877286D01*
X120700524Y-80922871D01*
X121613395Y-80010000D01*
X121972605Y-80010000D01*
X122885476Y-80922871D01*
X123143723Y-80834377D01*
X123278597Y-80555024D01*
X123356381Y-80254725D01*
X123374084Y-79945023D01*
X123331027Y-79637816D01*
X123228865Y-79344914D01*
X123143723Y-79185623D01*
X122885476Y-79097129D01*
X121972605Y-80010000D01*
X121613395Y-80010000D01*
X121599253Y-79995858D01*
X121778858Y-79816253D01*
X121793000Y-79830395D01*
X122705871Y-78917524D01*
X122617377Y-78659277D01*
X122338024Y-78524403D01*
X122037725Y-78446619D01*
X121774494Y-78431572D01*
X121918570Y-78215948D01*
X122037282Y-77929352D01*
X122097800Y-77625104D01*
X122097800Y-77314896D01*
X122037282Y-77010648D01*
X121918570Y-76724052D01*
X121746227Y-76466123D01*
X121526877Y-76246773D01*
X121268948Y-76074430D01*
X120982352Y-75955718D01*
X120678104Y-75895200D01*
X120367896Y-75895200D01*
X120063648Y-75955718D01*
X119943562Y-76005459D01*
X115835015Y-71896914D01*
X115928000Y-71906072D01*
X116228000Y-71906072D01*
X116381745Y-71890929D01*
X116529582Y-71846084D01*
X116665829Y-71773258D01*
X116713000Y-71734546D01*
X116760171Y-71773258D01*
X116896418Y-71846084D01*
X117044255Y-71890929D01*
X117198000Y-71906072D01*
X117498000Y-71906072D01*
X117651745Y-71890929D01*
X117799582Y-71846084D01*
X117935829Y-71773258D01*
X117983000Y-71734546D01*
X118030171Y-71773258D01*
X118166418Y-71846084D01*
X118314255Y-71890929D01*
X118468000Y-71906072D01*
X118768000Y-71906072D01*
X118921745Y-71890929D01*
X119069582Y-71846084D01*
X119205829Y-71773258D01*
X119253000Y-71734546D01*
X119300171Y-71773258D01*
X119436418Y-71846084D01*
X119584255Y-71890929D01*
X119738000Y-71906072D01*
X120038000Y-71906072D01*
X120191745Y-71890929D01*
X120339582Y-71846084D01*
X120473936Y-71774270D01*
X120503506Y-71798537D01*
X120613820Y-71857502D01*
X120733518Y-71893812D01*
X120858000Y-71906072D01*
X120872250Y-71903000D01*
X121031000Y-71744250D01*
X121031000Y-70420000D01*
X121285000Y-70420000D01*
X121285000Y-71744250D01*
X121443750Y-71903000D01*
X121458000Y-71906072D01*
X121582482Y-71893812D01*
X121702180Y-71857502D01*
X121812494Y-71798537D01*
X121909185Y-71719185D01*
X121988537Y-71622494D01*
X122047502Y-71512180D01*
X122083812Y-71392482D01*
X122096072Y-71268000D01*
X122093000Y-70578750D01*
X121934250Y-70420000D01*
X121285000Y-70420000D01*
X121031000Y-70420000D01*
X121011000Y-70420000D01*
X121011000Y-70166000D01*
X121031000Y-70166000D01*
X121031000Y-68841750D01*
X121285000Y-68841750D01*
X121285000Y-70166000D01*
X121934250Y-70166000D01*
X122093000Y-70007250D01*
X122096072Y-69318000D01*
X122083812Y-69193518D01*
X122047502Y-69073820D01*
X121988537Y-68963506D01*
X121909185Y-68866815D01*
X121812494Y-68787463D01*
X121702180Y-68728498D01*
X121582482Y-68692188D01*
X121458000Y-68679928D01*
X121443750Y-68683000D01*
X121285000Y-68841750D01*
X121031000Y-68841750D01*
X120872250Y-68683000D01*
X120858000Y-68679928D01*
X120733518Y-68692188D01*
X120613820Y-68728498D01*
X120503506Y-68787463D01*
X120473936Y-68811730D01*
X120339582Y-68739916D01*
X120191745Y-68695071D01*
X120038000Y-68679928D01*
X119738000Y-68679928D01*
X119584255Y-68695071D01*
X119436418Y-68739916D01*
X119300171Y-68812742D01*
X119253000Y-68851454D01*
X119205829Y-68812742D01*
X119069582Y-68739916D01*
X118921745Y-68695071D01*
X118768000Y-68679928D01*
X118468000Y-68679928D01*
X118314255Y-68695071D01*
X118166418Y-68739916D01*
X118030171Y-68812742D01*
X117983000Y-68851454D01*
X117935829Y-68812742D01*
X117799582Y-68739916D01*
X117651745Y-68695071D01*
X117498000Y-68679928D01*
X117198000Y-68679928D01*
X117044255Y-68695071D01*
X116896418Y-68739916D01*
X116760171Y-68812742D01*
X116713000Y-68851454D01*
X116665829Y-68812742D01*
X116529582Y-68739916D01*
X116381745Y-68695071D01*
X116228000Y-68679928D01*
X116203000Y-68679928D01*
X116203000Y-66956072D01*
X116228000Y-66956072D01*
X116381745Y-66940929D01*
X116529582Y-66896084D01*
X116665829Y-66823258D01*
X116713000Y-66784546D01*
X116760171Y-66823258D01*
X116896418Y-66896084D01*
X117044255Y-66940929D01*
X117198000Y-66956072D01*
X117498000Y-66956072D01*
X117651745Y-66940929D01*
X117799582Y-66896084D01*
X117935829Y-66823258D01*
X117983000Y-66784546D01*
X118030171Y-66823258D01*
X118166418Y-66896084D01*
X118314255Y-66940929D01*
X118468000Y-66956072D01*
X118768000Y-66956072D01*
X118921745Y-66940929D01*
X119069582Y-66896084D01*
X119205829Y-66823258D01*
X119253000Y-66784546D01*
X119300171Y-66823258D01*
X119436418Y-66896084D01*
X119584255Y-66940929D01*
X119738000Y-66956072D01*
X120038000Y-66956072D01*
X120191745Y-66940929D01*
X120339582Y-66896084D01*
X120475829Y-66823258D01*
X120523000Y-66784546D01*
X120570171Y-66823258D01*
X120706418Y-66896084D01*
X120854255Y-66940929D01*
X121008000Y-66956072D01*
X121308000Y-66956072D01*
X121461745Y-66940929D01*
X121609582Y-66896084D01*
X121745829Y-66823258D01*
X121865251Y-66725251D01*
X121963258Y-66605829D01*
X122036084Y-66469582D01*
X122080929Y-66321745D01*
X122096072Y-66168000D01*
X122096072Y-64518000D01*
X122080929Y-64364255D01*
X122036084Y-64216418D01*
X121963258Y-64080171D01*
X121865251Y-63960749D01*
X121745829Y-63862742D01*
X121609582Y-63789916D01*
X121461745Y-63745071D01*
X121308000Y-63729928D01*
X121008000Y-63729928D01*
X120854255Y-63745071D01*
X120706418Y-63789916D01*
X120570171Y-63862742D01*
X120523000Y-63901454D01*
X120475829Y-63862742D01*
X120339582Y-63789916D01*
X120191745Y-63745071D01*
X120038000Y-63729928D01*
X119738000Y-63729928D01*
X119584255Y-63745071D01*
X119436418Y-63789916D01*
X119300171Y-63862742D01*
X119253000Y-63901454D01*
X119205829Y-63862742D01*
X119069582Y-63789916D01*
X118921745Y-63745071D01*
X118768000Y-63729928D01*
X118468000Y-63729928D01*
X118314255Y-63745071D01*
X118166418Y-63789916D01*
X118030171Y-63862742D01*
X117983000Y-63901454D01*
X117935829Y-63862742D01*
X117799582Y-63789916D01*
X117651745Y-63745071D01*
X117498000Y-63729928D01*
X117198000Y-63729928D01*
X117044255Y-63745071D01*
X116896418Y-63789916D01*
X116760171Y-63862742D01*
X116713000Y-63901454D01*
X116665829Y-63862742D01*
X116529582Y-63789916D01*
X116381745Y-63745071D01*
X116228000Y-63729928D01*
X116203000Y-63729928D01*
X116203000Y-60345902D01*
X116801505Y-60944408D01*
X116825299Y-60973401D01*
X116854292Y-60997195D01*
X116854296Y-60997199D01*
X116924985Y-61055211D01*
X116941024Y-61068374D01*
X117073053Y-61138946D01*
X117216314Y-61182403D01*
X117327967Y-61193400D01*
X117327976Y-61193400D01*
X117365299Y-61197076D01*
X117402622Y-61193400D01*
X118509278Y-61193400D01*
X118546600Y-61197076D01*
X118583922Y-61193400D01*
X118583933Y-61193400D01*
X118695586Y-61182403D01*
X118838847Y-61138946D01*
X118970876Y-61068374D01*
X119086601Y-60973401D01*
X119110404Y-60944397D01*
X119318885Y-60735916D01*
X119422000Y-60746072D01*
X120222000Y-60746072D01*
X120346482Y-60733812D01*
X120466180Y-60697502D01*
X120576494Y-60638537D01*
X120673185Y-60559185D01*
X120676044Y-60555702D01*
X120690111Y-60558500D01*
X120874289Y-60558500D01*
X120979138Y-60537644D01*
X121055613Y-60600405D01*
X121209149Y-60682472D01*
X121375745Y-60733008D01*
X121548999Y-60750072D01*
X122799001Y-60750072D01*
X122972255Y-60733008D01*
X123138851Y-60682472D01*
X123292387Y-60600405D01*
X123426962Y-60489962D01*
X123537405Y-60355387D01*
X123619472Y-60201851D01*
X123670008Y-60035255D01*
X123687072Y-59862001D01*
X123687072Y-59061999D01*
X123670008Y-58888745D01*
X123619472Y-58722149D01*
X123537405Y-58568613D01*
X123426962Y-58434038D01*
X123292387Y-58323595D01*
X123138851Y-58241528D01*
X122972255Y-58190992D01*
X122799001Y-58173928D01*
X121548999Y-58173928D01*
X121375745Y-58190992D01*
X121209149Y-58241528D01*
X121055613Y-58323595D01*
X120921038Y-58434038D01*
X120860072Y-58508325D01*
X120860072Y-58208000D01*
X120847812Y-58083518D01*
X120811502Y-57963820D01*
X120752537Y-57853506D01*
X120673185Y-57756815D01*
X120576494Y-57677463D01*
X120511877Y-57642924D01*
X120850631Y-57304171D01*
X120921038Y-57389962D01*
X121055613Y-57500405D01*
X121209149Y-57582472D01*
X121375745Y-57633008D01*
X121548999Y-57650072D01*
X122799001Y-57650072D01*
X122972255Y-57633008D01*
X123138851Y-57582472D01*
X123292387Y-57500405D01*
X123426962Y-57389962D01*
X123537405Y-57255387D01*
X123619472Y-57101851D01*
X123670008Y-56935255D01*
X123687072Y-56762001D01*
X123687072Y-55961999D01*
X123670008Y-55788745D01*
X123619472Y-55622149D01*
X123537405Y-55468613D01*
X123426962Y-55334038D01*
X123292387Y-55223595D01*
X123138851Y-55141528D01*
X122972255Y-55090992D01*
X122799001Y-55073928D01*
X121548999Y-55073928D01*
X121375745Y-55090992D01*
X121209149Y-55141528D01*
X121055613Y-55223595D01*
X120921038Y-55334038D01*
X120810595Y-55468613D01*
X120740099Y-55600501D01*
X120717999Y-55598324D01*
X120680676Y-55602000D01*
X120680667Y-55602000D01*
X120569014Y-55612997D01*
X120425753Y-55656454D01*
X120293723Y-55727026D01*
X120246022Y-55766174D01*
X120177999Y-55821999D01*
X120154201Y-55850997D01*
X119910072Y-56095126D01*
X119910072Y-55208000D01*
X119897812Y-55083518D01*
X119861502Y-54963820D01*
X119802537Y-54853506D01*
X119723185Y-54756815D01*
X119626494Y-54677463D01*
X119516180Y-54618498D01*
X119396482Y-54582188D01*
X119272000Y-54569928D01*
X118472000Y-54569928D01*
X118347518Y-54582188D01*
X118227820Y-54618498D01*
X118117506Y-54677463D01*
X118020815Y-54756815D01*
X117941463Y-54853506D01*
X117932945Y-54869443D01*
X113216666Y-50153165D01*
X113257259Y-50077220D01*
X113319300Y-49872697D01*
X113340249Y-49660000D01*
X113319300Y-49447303D01*
X113257259Y-49242780D01*
X113156509Y-49054290D01*
X113132471Y-49025000D01*
X113156509Y-48995710D01*
X113257259Y-48807220D01*
X113319300Y-48602697D01*
X113340249Y-48390000D01*
X113319300Y-48177303D01*
X113257259Y-47972780D01*
X113156509Y-47784290D01*
X113132471Y-47755000D01*
X113156509Y-47725710D01*
X113257259Y-47537220D01*
X113319300Y-47332697D01*
X113340249Y-47120000D01*
X113319300Y-46907303D01*
X113257259Y-46702780D01*
X113156509Y-46514290D01*
X113132471Y-46485000D01*
X113156509Y-46455710D01*
X113257259Y-46267220D01*
X113319300Y-46062697D01*
X113340249Y-45850000D01*
X113319300Y-45637303D01*
X113257259Y-45432780D01*
X113156509Y-45244290D01*
X113132471Y-45215000D01*
X113156509Y-45185710D01*
X113257259Y-44997220D01*
X113319300Y-44792697D01*
X113340249Y-44580000D01*
X113319300Y-44367303D01*
X113257259Y-44162780D01*
X113156509Y-43974290D01*
X113132471Y-43945000D01*
X113156509Y-43915710D01*
X113257259Y-43727220D01*
X113319300Y-43522697D01*
X113340249Y-43310000D01*
X113319300Y-43097303D01*
X113257259Y-42892780D01*
X113156509Y-42704290D01*
X113132471Y-42675000D01*
X113156509Y-42645710D01*
X113257259Y-42457220D01*
X113319300Y-42252697D01*
X113340249Y-42040000D01*
X113319300Y-41827303D01*
X113257259Y-41622780D01*
X113156509Y-41434290D01*
X113132471Y-41405000D01*
X113156509Y-41375710D01*
X113257259Y-41187220D01*
X113319300Y-40982697D01*
X113340249Y-40770000D01*
X113319300Y-40557303D01*
X113257259Y-40352780D01*
X113156509Y-40164290D01*
X113132471Y-40135000D01*
X113156509Y-40105710D01*
X113257259Y-39917220D01*
X113319300Y-39712697D01*
X113340249Y-39500000D01*
X113326721Y-39362644D01*
X113497529Y-39328668D01*
X113667689Y-39258186D01*
X113820828Y-39155862D01*
X113951062Y-39025628D01*
X114053386Y-38872489D01*
X114123868Y-38702329D01*
X114159800Y-38521689D01*
X114159800Y-38337511D01*
X114123868Y-38156871D01*
X114053386Y-37986711D01*
X113951062Y-37833572D01*
X113820828Y-37703338D01*
X113667689Y-37601014D01*
X113497529Y-37530532D01*
X113316889Y-37494600D01*
X113219130Y-37494600D01*
X113197952Y-37488176D01*
X113257259Y-37377220D01*
X113319300Y-37172697D01*
X113340249Y-36960000D01*
X113319300Y-36747303D01*
X113257259Y-36542780D01*
X113156509Y-36354290D01*
X113132471Y-36325000D01*
X113156509Y-36295710D01*
X113257259Y-36107220D01*
X113319300Y-35902697D01*
X113340249Y-35690000D01*
X113319300Y-35477303D01*
X113257259Y-35272780D01*
X113156509Y-35084290D01*
X113132471Y-35055000D01*
X113156509Y-35025710D01*
X113257259Y-34837220D01*
X113319300Y-34632697D01*
X113340249Y-34420000D01*
X113319300Y-34207303D01*
X113257259Y-34002780D01*
X113156509Y-33814290D01*
X113133463Y-33786208D01*
X113222702Y-33647197D01*
X113294408Y-33444001D01*
X113167502Y-33277000D01*
X111577000Y-33277000D01*
X111577000Y-33297000D01*
X111323000Y-33297000D01*
X111323000Y-33277000D01*
X109732498Y-33277000D01*
X109605592Y-33444001D01*
X109677298Y-33647197D01*
X109766537Y-33786208D01*
X109743491Y-33814290D01*
X109642741Y-34002780D01*
X109580700Y-34207303D01*
X109559751Y-34420000D01*
X109580700Y-34632697D01*
X109642741Y-34837220D01*
X109743491Y-35025710D01*
X109767529Y-35055000D01*
X109743491Y-35084290D01*
X109642741Y-35272780D01*
X109580700Y-35477303D01*
X109559751Y-35690000D01*
X109580700Y-35902697D01*
X109642741Y-36107220D01*
X109702048Y-36218176D01*
X109582453Y-36254454D01*
X109450424Y-36325026D01*
X109334699Y-36419999D01*
X109239726Y-36535724D01*
X109169154Y-36667753D01*
X109125697Y-36811014D01*
X109111023Y-36960000D01*
X109114700Y-36997333D01*
X109114701Y-40887763D01*
X109046114Y-40990411D01*
X108975632Y-41160571D01*
X108939700Y-41341211D01*
X108939700Y-41525389D01*
X108975632Y-41706029D01*
X109046114Y-41876189D01*
X109148438Y-42029328D01*
X109278672Y-42159562D01*
X109431811Y-42261886D01*
X109601971Y-42332368D01*
X109605054Y-42332981D01*
X109642741Y-42457220D01*
X109743491Y-42645710D01*
X109767529Y-42675000D01*
X109743491Y-42704290D01*
X109642741Y-42892780D01*
X109580700Y-43097303D01*
X109559751Y-43310000D01*
X109580700Y-43522697D01*
X109642741Y-43727220D01*
X109743491Y-43915710D01*
X109767529Y-43945000D01*
X109743491Y-43974290D01*
X109642741Y-44162780D01*
X109580700Y-44367303D01*
X109559751Y-44580000D01*
X109580700Y-44792697D01*
X109642741Y-44997220D01*
X109743491Y-45185710D01*
X109767529Y-45215000D01*
X109743491Y-45244290D01*
X109642741Y-45432780D01*
X109580700Y-45637303D01*
X109559751Y-45850000D01*
X109580700Y-46062697D01*
X109642741Y-46267220D01*
X109702048Y-46378176D01*
X109582453Y-46414454D01*
X109450424Y-46485026D01*
X109334699Y-46579999D01*
X109239726Y-46695724D01*
X109169154Y-46827753D01*
X109125697Y-46971014D01*
X109111023Y-47120000D01*
X109114701Y-47157343D01*
X109114700Y-49094899D01*
X109045104Y-49025303D01*
X109021301Y-48996299D01*
X108905576Y-48901326D01*
X108773547Y-48830754D01*
X108630286Y-48787297D01*
X108518633Y-48776300D01*
X108518622Y-48776300D01*
X108481300Y-48772624D01*
X108443978Y-48776300D01*
X95785300Y-48776300D01*
X95785300Y-43850000D01*
X98511928Y-43850000D01*
X98524188Y-43974482D01*
X98560498Y-44094180D01*
X98619463Y-44204494D01*
X98698815Y-44301185D01*
X98795506Y-44380537D01*
X98905820Y-44439502D01*
X99025518Y-44475812D01*
X99150000Y-44488072D01*
X101864250Y-44485000D01*
X102023000Y-44326250D01*
X102023000Y-40977000D01*
X102277000Y-40977000D01*
X102277000Y-44326250D01*
X102435750Y-44485000D01*
X105150000Y-44488072D01*
X105274482Y-44475812D01*
X105394180Y-44439502D01*
X105504494Y-44380537D01*
X105601185Y-44301185D01*
X105680537Y-44204494D01*
X105739502Y-44094180D01*
X105775812Y-43974482D01*
X105788072Y-43850000D01*
X105785000Y-41135750D01*
X105626250Y-40977000D01*
X102277000Y-40977000D01*
X102023000Y-40977000D01*
X98673750Y-40977000D01*
X98515000Y-41135750D01*
X98511928Y-43850000D01*
X95785300Y-43850000D01*
X95785300Y-37850000D01*
X98511928Y-37850000D01*
X98515000Y-40564250D01*
X98673750Y-40723000D01*
X102023000Y-40723000D01*
X102023000Y-37373750D01*
X102277000Y-37373750D01*
X102277000Y-40723000D01*
X105626250Y-40723000D01*
X105785000Y-40564250D01*
X105788072Y-37850000D01*
X105775812Y-37725518D01*
X105739502Y-37605820D01*
X105680537Y-37495506D01*
X105601185Y-37398815D01*
X105504494Y-37319463D01*
X105394180Y-37260498D01*
X105274482Y-37224188D01*
X105150000Y-37211928D01*
X102435750Y-37215000D01*
X102277000Y-37373750D01*
X102023000Y-37373750D01*
X101864250Y-37215000D01*
X99150000Y-37211928D01*
X99025518Y-37224188D01*
X98905820Y-37260498D01*
X98795506Y-37319463D01*
X98698815Y-37398815D01*
X98619463Y-37495506D01*
X98560498Y-37605820D01*
X98524188Y-37725518D01*
X98511928Y-37850000D01*
X95785300Y-37850000D01*
X95785300Y-34457333D01*
X95788977Y-34420000D01*
X95774303Y-34271014D01*
X95730846Y-34127753D01*
X95660274Y-33995724D01*
X95565301Y-33879999D01*
X95449576Y-33785026D01*
X95317547Y-33714454D01*
X95202022Y-33679411D01*
X95222702Y-33647197D01*
X95294408Y-33444001D01*
X95167502Y-33277000D01*
X93577000Y-33277000D01*
X93577000Y-33297000D01*
X93323000Y-33297000D01*
X93323000Y-33277000D01*
X91732498Y-33277000D01*
X91605592Y-33444001D01*
X91677298Y-33647197D01*
X91685517Y-33660000D01*
X89654833Y-33660000D01*
X89617500Y-33656323D01*
X89580167Y-33660000D01*
X89468514Y-33670997D01*
X89325253Y-33714454D01*
X89193224Y-33785026D01*
X89190906Y-33786928D01*
X88299998Y-33786928D01*
X88126744Y-33803992D01*
X87960148Y-33854528D01*
X87806613Y-33936595D01*
X87672038Y-34047038D01*
X87561595Y-34181613D01*
X87483616Y-34327500D01*
X85916384Y-34327500D01*
X85838405Y-34181613D01*
X85727962Y-34047038D01*
X85593387Y-33936595D01*
X85439852Y-33854528D01*
X85273256Y-33803992D01*
X85100002Y-33786928D01*
X83799998Y-33786928D01*
X83626744Y-33803992D01*
X83460148Y-33854528D01*
X83306613Y-33936595D01*
X83172038Y-34047038D01*
X83061595Y-34181613D01*
X82979528Y-34335148D01*
X82928992Y-34501744D01*
X82911928Y-34674998D01*
X82911928Y-35500002D01*
X82928992Y-35673256D01*
X82979528Y-35839852D01*
X83061595Y-35993387D01*
X83172038Y-36127962D01*
X83306613Y-36238405D01*
X83460148Y-36320472D01*
X83626744Y-36371008D01*
X83799998Y-36388072D01*
X84955600Y-36388072D01*
X84955600Y-36913900D01*
X84735750Y-36915000D01*
X84577000Y-37073750D01*
X84577000Y-38085500D01*
X84597000Y-38085500D01*
X84597000Y-38339500D01*
X84577000Y-38339500D01*
X84577000Y-39351250D01*
X84735750Y-39510000D01*
X84955601Y-39511100D01*
X84955601Y-40036497D01*
X84651270Y-40340828D01*
X83812999Y-40340828D01*
X83639745Y-40357892D01*
X83473149Y-40408428D01*
X83319613Y-40490495D01*
X83185038Y-40600938D01*
X83074595Y-40735513D01*
X82992528Y-40889049D01*
X82941992Y-41055645D01*
X82924928Y-41228899D01*
X82924928Y-42028901D01*
X82941992Y-42202155D01*
X82992528Y-42368751D01*
X83074595Y-42522287D01*
X83185038Y-42656862D01*
X83319613Y-42767305D01*
X83473149Y-42849372D01*
X83639745Y-42899908D01*
X83812999Y-42916972D01*
X85063001Y-42916972D01*
X85236255Y-42899908D01*
X85402851Y-42849372D01*
X85556387Y-42767305D01*
X85690962Y-42656862D01*
X85801405Y-42522287D01*
X85883472Y-42368751D01*
X85891010Y-42343900D01*
X87394928Y-42343900D01*
X87407188Y-42468382D01*
X87443498Y-42588080D01*
X87502463Y-42698394D01*
X87581815Y-42795085D01*
X87678506Y-42874437D01*
X87788820Y-42933402D01*
X87908518Y-42969712D01*
X88033000Y-42981972D01*
X88647250Y-42978900D01*
X88806000Y-42820150D01*
X88806000Y-41808400D01*
X89060000Y-41808400D01*
X89060000Y-42820150D01*
X89218750Y-42978900D01*
X89833000Y-42981972D01*
X89957482Y-42969712D01*
X90077180Y-42933402D01*
X90187494Y-42874437D01*
X90284185Y-42795085D01*
X90363537Y-42698394D01*
X90422502Y-42588080D01*
X90458812Y-42468382D01*
X90471072Y-42343900D01*
X90468000Y-41967150D01*
X90309250Y-41808400D01*
X89060000Y-41808400D01*
X88806000Y-41808400D01*
X87556750Y-41808400D01*
X87398000Y-41967150D01*
X87394928Y-42343900D01*
X85891010Y-42343900D01*
X85934008Y-42202155D01*
X85951072Y-42028901D01*
X85951072Y-41228899D01*
X85947641Y-41194061D01*
X86122802Y-41018900D01*
X87394928Y-41018900D01*
X87398000Y-41395650D01*
X87556750Y-41554400D01*
X88806000Y-41554400D01*
X88806000Y-40542650D01*
X89060000Y-40542650D01*
X89060000Y-41554400D01*
X90309250Y-41554400D01*
X90468000Y-41395650D01*
X90471072Y-41018900D01*
X90458812Y-40894418D01*
X90422502Y-40774720D01*
X90363537Y-40664406D01*
X90284185Y-40567715D01*
X90187494Y-40488363D01*
X90077180Y-40429398D01*
X89957482Y-40393088D01*
X89833000Y-40380828D01*
X89218750Y-40383900D01*
X89060000Y-40542650D01*
X88806000Y-40542650D01*
X88647250Y-40383900D01*
X88033000Y-40380828D01*
X87908518Y-40393088D01*
X87788820Y-40429398D01*
X87678506Y-40488363D01*
X87581815Y-40567715D01*
X87502463Y-40664406D01*
X87443498Y-40774720D01*
X87407188Y-40894418D01*
X87394928Y-41018900D01*
X86122802Y-41018900D01*
X86226603Y-40915099D01*
X86255601Y-40891301D01*
X86350574Y-40775576D01*
X86421146Y-40643547D01*
X86464603Y-40500286D01*
X86475600Y-40388633D01*
X86475600Y-40388624D01*
X86479276Y-40351301D01*
X86475600Y-40313978D01*
X86475600Y-38875000D01*
X87411928Y-38875000D01*
X87424188Y-38999482D01*
X87460498Y-39119180D01*
X87519463Y-39229494D01*
X87598815Y-39326185D01*
X87695506Y-39405537D01*
X87805820Y-39464502D01*
X87925518Y-39500812D01*
X88050000Y-39513072D01*
X88664250Y-39510000D01*
X88823000Y-39351250D01*
X88823000Y-38339500D01*
X89077000Y-38339500D01*
X89077000Y-39351250D01*
X89235750Y-39510000D01*
X89850000Y-39513072D01*
X89974482Y-39500812D01*
X90094180Y-39464502D01*
X90204494Y-39405537D01*
X90301185Y-39326185D01*
X90380537Y-39229494D01*
X90439502Y-39119180D01*
X90475812Y-38999482D01*
X90488072Y-38875000D01*
X90485000Y-38498250D01*
X90326250Y-38339500D01*
X89077000Y-38339500D01*
X88823000Y-38339500D01*
X87573750Y-38339500D01*
X87415000Y-38498250D01*
X87411928Y-38875000D01*
X86475600Y-38875000D01*
X86475600Y-37550000D01*
X87411928Y-37550000D01*
X87415000Y-37926750D01*
X87573750Y-38085500D01*
X88823000Y-38085500D01*
X88823000Y-37073750D01*
X89077000Y-37073750D01*
X89077000Y-38085500D01*
X90326250Y-38085500D01*
X90485000Y-37926750D01*
X90488072Y-37550000D01*
X90475812Y-37425518D01*
X90439502Y-37305820D01*
X90380537Y-37195506D01*
X90301185Y-37098815D01*
X90204494Y-37019463D01*
X90094180Y-36960498D01*
X89974482Y-36924188D01*
X89850000Y-36911928D01*
X89235750Y-36915000D01*
X89077000Y-37073750D01*
X88823000Y-37073750D01*
X88664250Y-36915000D01*
X88050000Y-36911928D01*
X87925518Y-36924188D01*
X87805820Y-36960498D01*
X87695506Y-37019463D01*
X87598815Y-37098815D01*
X87519463Y-37195506D01*
X87460498Y-37305820D01*
X87424188Y-37425518D01*
X87411928Y-37550000D01*
X86475600Y-37550000D01*
X86475600Y-35847500D01*
X87483616Y-35847500D01*
X87561595Y-35993387D01*
X87672038Y-36127962D01*
X87806613Y-36238405D01*
X87960148Y-36320472D01*
X88126744Y-36371008D01*
X88299998Y-36388072D01*
X89600002Y-36388072D01*
X89773256Y-36371008D01*
X89939852Y-36320472D01*
X90093387Y-36238405D01*
X90227962Y-36127962D01*
X90338405Y-35993387D01*
X90420472Y-35839852D01*
X90471008Y-35673256D01*
X90488072Y-35500002D01*
X90488072Y-35180000D01*
X91310078Y-35180000D01*
X91239726Y-35265724D01*
X91169154Y-35397753D01*
X91125697Y-35541014D01*
X91111023Y-35690000D01*
X91114701Y-35727343D01*
X91114700Y-46509198D01*
X90454180Y-47169718D01*
X90450812Y-47135518D01*
X90414502Y-47015820D01*
X90355537Y-46905506D01*
X90276185Y-46808815D01*
X90179494Y-46729463D01*
X90069180Y-46670498D01*
X89949482Y-46634188D01*
X89825000Y-46621928D01*
X89235750Y-46625000D01*
X89077000Y-46783750D01*
X89077000Y-47783000D01*
X89097000Y-47783000D01*
X89097000Y-48037000D01*
X89077000Y-48037000D01*
X89077000Y-48057000D01*
X88823000Y-48057000D01*
X88823000Y-48037000D01*
X88803000Y-48037000D01*
X88803000Y-47783000D01*
X88823000Y-47783000D01*
X88823000Y-46783750D01*
X88664250Y-46625000D01*
X88488000Y-46624081D01*
X88488000Y-46106972D01*
X89583002Y-46106972D01*
X89756256Y-46089908D01*
X89922852Y-46039372D01*
X90076387Y-45957305D01*
X90210962Y-45846862D01*
X90321405Y-45712287D01*
X90403472Y-45558752D01*
X90454008Y-45392156D01*
X90471072Y-45218902D01*
X90471072Y-44393898D01*
X90454008Y-44220644D01*
X90403472Y-44054048D01*
X90321405Y-43900513D01*
X90210962Y-43765938D01*
X90076387Y-43655495D01*
X89922852Y-43573428D01*
X89756256Y-43522892D01*
X89583002Y-43505828D01*
X88282998Y-43505828D01*
X88109744Y-43522892D01*
X87943148Y-43573428D01*
X87789613Y-43655495D01*
X87655038Y-43765938D01*
X87544595Y-43900513D01*
X87466616Y-44046400D01*
X85900869Y-44046400D01*
X85883472Y-43989049D01*
X85801405Y-43835513D01*
X85690962Y-43700938D01*
X85556387Y-43590495D01*
X85402851Y-43508428D01*
X85236255Y-43457892D01*
X85063001Y-43440828D01*
X83812999Y-43440828D01*
X83639745Y-43457892D01*
X83473149Y-43508428D01*
X83319613Y-43590495D01*
X83185038Y-43700938D01*
X83074595Y-43835513D01*
X82992528Y-43989049D01*
X82941992Y-44155645D01*
X82924928Y-44328899D01*
X82924928Y-45128901D01*
X82941992Y-45302155D01*
X82942679Y-45304420D01*
X82293003Y-45954096D01*
X82263999Y-45977899D01*
X82231933Y-46016972D01*
X82169026Y-46093624D01*
X82118032Y-46189027D01*
X82098454Y-46225654D01*
X82054997Y-46368915D01*
X82044000Y-46480568D01*
X82044000Y-46480578D01*
X82040324Y-46517900D01*
X82044000Y-46555222D01*
X82044001Y-54295197D01*
X81785002Y-54554197D01*
X81755999Y-54577999D01*
X81746278Y-54589845D01*
X81651820Y-54618498D01*
X81541506Y-54677463D01*
X81444815Y-54756815D01*
X81365463Y-54853506D01*
X81306498Y-54963820D01*
X81270188Y-55083518D01*
X81257928Y-55208000D01*
X81257928Y-57108000D01*
X81270188Y-57232482D01*
X81306498Y-57352180D01*
X81365463Y-57462494D01*
X81444815Y-57559185D01*
X81457905Y-57569928D01*
X80946000Y-57569928D01*
X80821518Y-57582188D01*
X80701820Y-57618498D01*
X80591506Y-57677463D01*
X80494815Y-57756815D01*
X80415463Y-57853506D01*
X80356498Y-57963820D01*
X80320188Y-58083518D01*
X80307928Y-58208000D01*
X80307928Y-60108000D01*
X80320188Y-60232482D01*
X80356498Y-60352180D01*
X80415463Y-60462494D01*
X80494815Y-60559185D01*
X80591506Y-60638537D01*
X80701820Y-60697502D01*
X80821518Y-60733812D01*
X80946000Y-60746072D01*
X81746000Y-60746072D01*
X81849115Y-60735916D01*
X82063300Y-60950102D01*
X82087099Y-60979101D01*
X82116097Y-61002899D01*
X82202823Y-61074074D01*
X82269845Y-61109898D01*
X82334853Y-61144646D01*
X82478114Y-61188103D01*
X82589767Y-61199100D01*
X82589777Y-61199100D01*
X82627100Y-61202776D01*
X82664423Y-61199100D01*
X84514888Y-61199100D01*
X84449911Y-61226014D01*
X84296772Y-61328338D01*
X84166538Y-61458572D01*
X84064214Y-61611711D01*
X83993732Y-61781871D01*
X83957800Y-61962511D01*
X83957800Y-62146689D01*
X83993732Y-62327329D01*
X84064214Y-62497489D01*
X84166538Y-62650628D01*
X84296772Y-62780862D01*
X84449911Y-62883186D01*
X84620071Y-62953668D01*
X84775854Y-62984656D01*
X84832401Y-63041202D01*
X84832401Y-63046062D01*
X84769144Y-63052292D01*
X84602548Y-63102828D01*
X84449013Y-63184895D01*
X84314438Y-63295338D01*
X84203995Y-63429913D01*
X84126016Y-63575800D01*
X83665475Y-63575800D01*
X83588405Y-63431613D01*
X83477962Y-63297038D01*
X83343387Y-63186595D01*
X83189852Y-63104528D01*
X83023256Y-63053992D01*
X82850002Y-63036928D01*
X81549998Y-63036928D01*
X81376744Y-63053992D01*
X81210148Y-63104528D01*
X81056613Y-63186595D01*
X80922038Y-63297038D01*
X80811595Y-63431613D01*
X80729528Y-63585148D01*
X80678992Y-63751744D01*
X80661928Y-63924998D01*
X80661928Y-64750002D01*
X80678992Y-64923256D01*
X80729528Y-65089852D01*
X80811595Y-65243387D01*
X80922038Y-65377962D01*
X81056613Y-65488405D01*
X81210148Y-65570472D01*
X81376744Y-65621008D01*
X81549998Y-65638072D01*
X82850002Y-65638072D01*
X83023256Y-65621008D01*
X83189852Y-65570472D01*
X83343387Y-65488405D01*
X83477962Y-65377962D01*
X83588405Y-65243387D01*
X83667293Y-65095800D01*
X84126016Y-65095800D01*
X84203995Y-65241687D01*
X84314438Y-65376262D01*
X84449013Y-65486705D01*
X84602548Y-65568772D01*
X84769144Y-65619308D01*
X84942398Y-65636372D01*
X86242402Y-65636372D01*
X86415656Y-65619308D01*
X86582252Y-65568772D01*
X86735787Y-65486705D01*
X86870362Y-65376262D01*
X86980805Y-65241687D01*
X87062872Y-65088152D01*
X87113408Y-64921556D01*
X87130472Y-64748302D01*
X87130472Y-63923298D01*
X87113408Y-63750044D01*
X87062872Y-63583448D01*
X86980805Y-63429913D01*
X86870362Y-63295338D01*
X86735787Y-63184895D01*
X86582252Y-63102828D01*
X86415656Y-63052292D01*
X86352400Y-63046062D01*
X86352400Y-62763725D01*
X86356076Y-62726400D01*
X86352400Y-62689075D01*
X86352400Y-62689067D01*
X86341403Y-62577414D01*
X86297946Y-62434153D01*
X86227374Y-62302124D01*
X86132401Y-62186399D01*
X86103402Y-62162600D01*
X85995401Y-62054600D01*
X89628080Y-58421921D01*
X89617928Y-58524999D01*
X89617928Y-59775001D01*
X89634992Y-59948255D01*
X89685528Y-60114851D01*
X89767595Y-60268387D01*
X89878038Y-60402962D01*
X90012613Y-60513405D01*
X90166149Y-60595472D01*
X90332745Y-60646008D01*
X90505999Y-60663072D01*
X91133898Y-60663072D01*
X91190001Y-60747037D01*
X91190000Y-62943840D01*
X91119403Y-62965256D01*
X90998283Y-63029996D01*
X90892121Y-63117121D01*
X90804996Y-63223283D01*
X90740256Y-63344403D01*
X90700389Y-63475825D01*
X90686928Y-63612500D01*
X90686928Y-63886928D01*
X90412500Y-63886928D01*
X90275825Y-63900389D01*
X90144403Y-63940256D01*
X90023283Y-64004996D01*
X89917121Y-64092121D01*
X89829996Y-64198283D01*
X89765256Y-64319403D01*
X89725389Y-64450825D01*
X89711928Y-64587500D01*
X89711928Y-64712500D01*
X89725389Y-64849175D01*
X89732098Y-64871290D01*
X89727232Y-64886089D01*
X89715000Y-64991250D01*
X89719251Y-64995501D01*
X89682724Y-65015026D01*
X89566999Y-65109999D01*
X89543201Y-65138997D01*
X88441103Y-66241096D01*
X88412099Y-66264899D01*
X88376332Y-66308482D01*
X88317126Y-66380624D01*
X88283008Y-66444454D01*
X88246554Y-66512654D01*
X88203097Y-66655915D01*
X88192100Y-66767568D01*
X88192100Y-66767578D01*
X88188424Y-66804900D01*
X88192100Y-66842222D01*
X88192101Y-75539897D01*
X86680665Y-77051334D01*
X86683072Y-76570000D01*
X86670812Y-76445518D01*
X86634502Y-76325820D01*
X86575537Y-76215506D01*
X86496185Y-76118815D01*
X86399494Y-76039463D01*
X86289180Y-75980498D01*
X86169482Y-75944188D01*
X86045000Y-75931928D01*
X85668250Y-75935000D01*
X85509500Y-76093750D01*
X85509500Y-77343000D01*
X85529500Y-77343000D01*
X85529500Y-77597000D01*
X85509500Y-77597000D01*
X85509500Y-77617000D01*
X85255500Y-77617000D01*
X85255500Y-77597000D01*
X85235500Y-77597000D01*
X85235500Y-77343000D01*
X85255500Y-77343000D01*
X85255500Y-76093750D01*
X85096750Y-75935000D01*
X84720000Y-75931928D01*
X84668700Y-75936980D01*
X84668700Y-73923020D01*
X84720000Y-73928072D01*
X85096750Y-73925000D01*
X85255500Y-73766250D01*
X85255500Y-72517000D01*
X85509500Y-72517000D01*
X85509500Y-73766250D01*
X85668250Y-73925000D01*
X86045000Y-73928072D01*
X86169482Y-73915812D01*
X86289180Y-73879502D01*
X86399494Y-73820537D01*
X86496185Y-73741185D01*
X86575537Y-73644494D01*
X86634502Y-73534180D01*
X86670812Y-73414482D01*
X86683072Y-73290000D01*
X86680000Y-72675750D01*
X86521250Y-72517000D01*
X85509500Y-72517000D01*
X85255500Y-72517000D01*
X85235500Y-72517000D01*
X85235500Y-72263000D01*
X85255500Y-72263000D01*
X85255500Y-71013750D01*
X85509500Y-71013750D01*
X85509500Y-72263000D01*
X86521250Y-72263000D01*
X86680000Y-72104250D01*
X86683072Y-71490000D01*
X86670812Y-71365518D01*
X86634502Y-71245820D01*
X86575537Y-71135506D01*
X86496185Y-71038815D01*
X86399494Y-70959463D01*
X86289180Y-70900498D01*
X86169482Y-70864188D01*
X86045000Y-70851928D01*
X85668250Y-70855000D01*
X85509500Y-71013750D01*
X85255500Y-71013750D01*
X85096750Y-70855000D01*
X84720000Y-70851928D01*
X84595518Y-70864188D01*
X84475820Y-70900498D01*
X84398389Y-70941887D01*
X83658803Y-70202302D01*
X83635001Y-70173299D01*
X83519276Y-70078326D01*
X83387247Y-70007754D01*
X83243986Y-69964297D01*
X83132333Y-69953300D01*
X83132322Y-69953300D01*
X83095000Y-69949624D01*
X83057678Y-69953300D01*
X81418225Y-69953300D01*
X81380900Y-69949624D01*
X81343575Y-69953300D01*
X81343567Y-69953300D01*
X81231914Y-69964297D01*
X81088653Y-70007754D01*
X80956624Y-70078326D01*
X80840899Y-70173299D01*
X80817100Y-70202298D01*
X80252902Y-70766497D01*
X80223899Y-70790299D01*
X80173322Y-70851928D01*
X80128926Y-70906024D01*
X80070144Y-71015997D01*
X80058354Y-71038054D01*
X80014897Y-71181315D01*
X80003900Y-71292968D01*
X80003900Y-71292978D01*
X80000224Y-71330300D01*
X78660000Y-71330300D01*
X78660000Y-68125000D01*
X80661928Y-68125000D01*
X80674188Y-68249482D01*
X80710498Y-68369180D01*
X80769463Y-68479494D01*
X80848815Y-68576185D01*
X80945506Y-68655537D01*
X81055820Y-68714502D01*
X81175518Y-68750812D01*
X81300000Y-68763072D01*
X81914250Y-68760000D01*
X82073000Y-68601250D01*
X82073000Y-67589500D01*
X82327000Y-67589500D01*
X82327000Y-68601250D01*
X82485750Y-68760000D01*
X83100000Y-68763072D01*
X83224482Y-68750812D01*
X83344180Y-68714502D01*
X83454494Y-68655537D01*
X83551185Y-68576185D01*
X83630537Y-68479494D01*
X83689502Y-68369180D01*
X83725812Y-68249482D01*
X83738072Y-68125000D01*
X83738059Y-68123300D01*
X84054328Y-68123300D01*
X84066588Y-68247782D01*
X84102898Y-68367480D01*
X84161863Y-68477794D01*
X84241215Y-68574485D01*
X84337906Y-68653837D01*
X84448220Y-68712802D01*
X84567918Y-68749112D01*
X84692400Y-68761372D01*
X85306650Y-68758300D01*
X85465400Y-68599550D01*
X85465400Y-67587800D01*
X85719400Y-67587800D01*
X85719400Y-68599550D01*
X85878150Y-68758300D01*
X86492400Y-68761372D01*
X86616882Y-68749112D01*
X86736580Y-68712802D01*
X86846894Y-68653837D01*
X86943585Y-68574485D01*
X87022937Y-68477794D01*
X87081902Y-68367480D01*
X87118212Y-68247782D01*
X87130472Y-68123300D01*
X87127400Y-67746550D01*
X86968650Y-67587800D01*
X85719400Y-67587800D01*
X85465400Y-67587800D01*
X84216150Y-67587800D01*
X84057400Y-67746550D01*
X84054328Y-68123300D01*
X83738059Y-68123300D01*
X83735000Y-67748250D01*
X83576250Y-67589500D01*
X82327000Y-67589500D01*
X82073000Y-67589500D01*
X80823750Y-67589500D01*
X80665000Y-67748250D01*
X80661928Y-68125000D01*
X78660000Y-68125000D01*
X78660000Y-66800000D01*
X80661928Y-66800000D01*
X80665000Y-67176750D01*
X80823750Y-67335500D01*
X82073000Y-67335500D01*
X82073000Y-66323750D01*
X82327000Y-66323750D01*
X82327000Y-67335500D01*
X83576250Y-67335500D01*
X83735000Y-67176750D01*
X83738072Y-66800000D01*
X83737905Y-66798300D01*
X84054328Y-66798300D01*
X84057400Y-67175050D01*
X84216150Y-67333800D01*
X85465400Y-67333800D01*
X85465400Y-66322050D01*
X85719400Y-66322050D01*
X85719400Y-67333800D01*
X86968650Y-67333800D01*
X87127400Y-67175050D01*
X87130472Y-66798300D01*
X87118212Y-66673818D01*
X87081902Y-66554120D01*
X87022937Y-66443806D01*
X86943585Y-66347115D01*
X86846894Y-66267763D01*
X86736580Y-66208798D01*
X86616882Y-66172488D01*
X86492400Y-66160228D01*
X85878150Y-66163300D01*
X85719400Y-66322050D01*
X85465400Y-66322050D01*
X85306650Y-66163300D01*
X84692400Y-66160228D01*
X84567918Y-66172488D01*
X84448220Y-66208798D01*
X84337906Y-66267763D01*
X84241215Y-66347115D01*
X84161863Y-66443806D01*
X84102898Y-66554120D01*
X84066588Y-66673818D01*
X84054328Y-66798300D01*
X83737905Y-66798300D01*
X83725812Y-66675518D01*
X83689502Y-66555820D01*
X83630537Y-66445506D01*
X83551185Y-66348815D01*
X83454494Y-66269463D01*
X83344180Y-66210498D01*
X83224482Y-66174188D01*
X83100000Y-66161928D01*
X82485750Y-66165000D01*
X82327000Y-66323750D01*
X82073000Y-66323750D01*
X81914250Y-66165000D01*
X81300000Y-66161928D01*
X81175518Y-66174188D01*
X81055820Y-66210498D01*
X80945506Y-66269463D01*
X80848815Y-66348815D01*
X80769463Y-66445506D01*
X80710498Y-66555820D01*
X80674188Y-66675518D01*
X80661928Y-66800000D01*
X78660000Y-66800000D01*
X78660000Y-49149000D01*
X80518000Y-49149000D01*
X80542776Y-49146560D01*
X80566601Y-49139333D01*
X80588557Y-49127597D01*
X80607803Y-49111803D01*
X81877803Y-47841803D01*
X81893597Y-47822557D01*
X81905333Y-47800601D01*
X81912560Y-47776776D01*
X81915000Y-47752000D01*
X81915000Y-38875000D01*
X82911928Y-38875000D01*
X82924188Y-38999482D01*
X82960498Y-39119180D01*
X83019463Y-39229494D01*
X83098815Y-39326185D01*
X83195506Y-39405537D01*
X83305820Y-39464502D01*
X83425518Y-39500812D01*
X83550000Y-39513072D01*
X84164250Y-39510000D01*
X84323000Y-39351250D01*
X84323000Y-38339500D01*
X83073750Y-38339500D01*
X82915000Y-38498250D01*
X82911928Y-38875000D01*
X81915000Y-38875000D01*
X81915000Y-37550000D01*
X82911928Y-37550000D01*
X82915000Y-37926750D01*
X83073750Y-38085500D01*
X84323000Y-38085500D01*
X84323000Y-37073750D01*
X84164250Y-36915000D01*
X83550000Y-36911928D01*
X83425518Y-36924188D01*
X83305820Y-36960498D01*
X83195506Y-37019463D01*
X83098815Y-37098815D01*
X83019463Y-37195506D01*
X82960498Y-37305820D01*
X82924188Y-37425518D01*
X82911928Y-37550000D01*
X81915000Y-37550000D01*
X81915000Y-32110000D01*
X92316629Y-32110000D01*
X92313767Y-32110624D01*
%TA.AperFunction,Conductor*%
D26*
G36*
X92313767Y-32110624D02*
G01*
X92117455Y-32196191D01*
X91941609Y-32318413D01*
X91792986Y-32472592D01*
X91677298Y-32652803D01*
X91605592Y-32855999D01*
X91732498Y-33023000D01*
X93323000Y-33023000D01*
X93323000Y-33003000D01*
X93577000Y-33003000D01*
X93577000Y-33023000D01*
X95167502Y-33023000D01*
X95294408Y-32855999D01*
X95222702Y-32652803D01*
X95107014Y-32472592D01*
X94958391Y-32318413D01*
X94782545Y-32196191D01*
X94586233Y-32110624D01*
X94583371Y-32110000D01*
X110316629Y-32110000D01*
X110313767Y-32110624D01*
X110117455Y-32196191D01*
X109941609Y-32318413D01*
X109792986Y-32472592D01*
X109677298Y-32652803D01*
X109605592Y-32855999D01*
X109732498Y-33023000D01*
X111323000Y-33023000D01*
X111323000Y-33003000D01*
X111577000Y-33003000D01*
X111577000Y-33023000D01*
X113167502Y-33023000D01*
X113294408Y-32855999D01*
X113222702Y-32652803D01*
X113107014Y-32472592D01*
X112958391Y-32318413D01*
X112782545Y-32196191D01*
X112586233Y-32110624D01*
X112583371Y-32110000D01*
X126240000Y-32110000D01*
X126240001Y-39615123D01*
X126240000Y-93940000D01*
X78660000Y-93940000D01*
X78660000Y-71330300D01*
X80000224Y-71330300D01*
X80003900Y-71367623D01*
X80003901Y-78453368D01*
X80000224Y-78490700D01*
X80003901Y-78528033D01*
X80014898Y-78639686D01*
X80028080Y-78683142D01*
X80058354Y-78782946D01*
X80128926Y-78914976D01*
X80185805Y-78984282D01*
X80223900Y-79030701D01*
X80252898Y-79054499D01*
X92340001Y-91141603D01*
X92363799Y-91170601D01*
X92479524Y-91265574D01*
X92611553Y-91336146D01*
X92754814Y-91379603D01*
X92866467Y-91390600D01*
X92866476Y-91390600D01*
X92903799Y-91394276D01*
X92941122Y-91390600D01*
X97676435Y-91390600D01*
X97662147Y-91437701D01*
X97645000Y-91611794D01*
X97645000Y-92428207D01*
X97662147Y-92602300D01*
X97729906Y-92825674D01*
X97839943Y-93031536D01*
X97988026Y-93211975D01*
X98168465Y-93360058D01*
X98374327Y-93470094D01*
X98597701Y-93537853D01*
X98830000Y-93560733D01*
X99062300Y-93537853D01*
X99285674Y-93470094D01*
X99491536Y-93360058D01*
X99671975Y-93211975D01*
X99820058Y-93031536D01*
X99930094Y-92825674D01*
X99997853Y-92602299D01*
X100015000Y-92428206D01*
X100015000Y-91611794D01*
X104845000Y-91611794D01*
X104845000Y-92428207D01*
X104862147Y-92602300D01*
X104929906Y-92825674D01*
X105039943Y-93031536D01*
X105188026Y-93211975D01*
X105368465Y-93360058D01*
X105574327Y-93470094D01*
X105797701Y-93537853D01*
X106030000Y-93560733D01*
X106262300Y-93537853D01*
X106485674Y-93470094D01*
X106691536Y-93360058D01*
X106871975Y-93211975D01*
X107020058Y-93031536D01*
X107130094Y-92825674D01*
X107197853Y-92602299D01*
X107215000Y-92428206D01*
X107215000Y-91611793D01*
X107197853Y-91437700D01*
X107130094Y-91214326D01*
X107020058Y-91008464D01*
X106871975Y-90828025D01*
X106691535Y-90679942D01*
X106485673Y-90569906D01*
X106262299Y-90502147D01*
X106030000Y-90479267D01*
X105797700Y-90502147D01*
X105574326Y-90569906D01*
X105368464Y-90679942D01*
X105188025Y-90828025D01*
X105039942Y-91008465D01*
X104929906Y-91214327D01*
X104862147Y-91437701D01*
X104845000Y-91611794D01*
X100015000Y-91611794D01*
X100015000Y-91611793D01*
X99997853Y-91437700D01*
X99983566Y-91390600D01*
X101942378Y-91390600D01*
X101979700Y-91394276D01*
X102017022Y-91390600D01*
X102017033Y-91390600D01*
X102128686Y-91379603D01*
X102271947Y-91336146D01*
X102403976Y-91265574D01*
X102519701Y-91170601D01*
X102543504Y-91141597D01*
X102940997Y-90744104D01*
X102970001Y-90720301D01*
X103064974Y-90604576D01*
X103124575Y-90493072D01*
X103280000Y-90493072D01*
X103404482Y-90480812D01*
X103407242Y-90479975D01*
X103498250Y-90490000D01*
X103566218Y-90422032D01*
X103634494Y-90385537D01*
X103731185Y-90306185D01*
X103803000Y-90218678D01*
X103803000Y-90331250D01*
X103961750Y-90490000D01*
X104065003Y-90478626D01*
X104184073Y-90440306D01*
X104293378Y-90379492D01*
X104307869Y-90367186D01*
X104487471Y-90441579D01*
X104730901Y-90490000D01*
X104979099Y-90490000D01*
X105222529Y-90441579D01*
X105451834Y-90346598D01*
X105658203Y-90208706D01*
X105833706Y-90033203D01*
X105971598Y-89826834D01*
X106066579Y-89597529D01*
X106115000Y-89354099D01*
X106115000Y-89105901D01*
X106066579Y-88862471D01*
X105971598Y-88633166D01*
X105833706Y-88426797D01*
X105658203Y-88251294D01*
X105451834Y-88113402D01*
X105222529Y-88018421D01*
X104979099Y-87970000D01*
X104730901Y-87970000D01*
X104487471Y-88018421D01*
X104307869Y-88092814D01*
X104293378Y-88080508D01*
X104184073Y-88019694D01*
X104065003Y-87981374D01*
X103961750Y-87970000D01*
X103803000Y-88128750D01*
X103803000Y-88241322D01*
X103731185Y-88153815D01*
X103634494Y-88074463D01*
X103566218Y-88037968D01*
X103498250Y-87970000D01*
X103407242Y-87980025D01*
X103404482Y-87979188D01*
X103280000Y-87966928D01*
X102880000Y-87966928D01*
X102755518Y-87979188D01*
X102755000Y-87979345D01*
X102754482Y-87979188D01*
X102630000Y-87966928D01*
X102230000Y-87966928D01*
X102105518Y-87979188D01*
X102105000Y-87979345D01*
X102104482Y-87979188D01*
X101980000Y-87966928D01*
X101890000Y-87966928D01*
X101890000Y-86678622D01*
X101893676Y-86641299D01*
X101890000Y-86603976D01*
X101890000Y-86603967D01*
X101879003Y-86492314D01*
X101835546Y-86349053D01*
X101764974Y-86217024D01*
X101699588Y-86137350D01*
X111277400Y-86137350D01*
X111277400Y-86582650D01*
X111364274Y-87019393D01*
X111534682Y-87430796D01*
X111782077Y-87801048D01*
X112096952Y-88115923D01*
X112467204Y-88363318D01*
X112878607Y-88533726D01*
X113315350Y-88620600D01*
X113760650Y-88620600D01*
X114197393Y-88533726D01*
X114608796Y-88363318D01*
X114979048Y-88115923D01*
X115293923Y-87801048D01*
X115541318Y-87430796D01*
X115711726Y-87019393D01*
X115798600Y-86582650D01*
X115798600Y-86137350D01*
X121437400Y-86137350D01*
X121437400Y-86582650D01*
X121524274Y-87019393D01*
X121694682Y-87430796D01*
X121942077Y-87801048D01*
X122256952Y-88115923D01*
X122627204Y-88363318D01*
X123038607Y-88533726D01*
X123475350Y-88620600D01*
X123920650Y-88620600D01*
X124357393Y-88533726D01*
X124768796Y-88363318D01*
X125139048Y-88115923D01*
X125453923Y-87801048D01*
X125701318Y-87430796D01*
X125871726Y-87019393D01*
X125958600Y-86582650D01*
X125958600Y-86137350D01*
X125871726Y-85700607D01*
X125701318Y-85289204D01*
X125453923Y-84918952D01*
X125139048Y-84604077D01*
X124768796Y-84356682D01*
X124357393Y-84186274D01*
X123920650Y-84099400D01*
X123475350Y-84099400D01*
X123038607Y-84186274D01*
X122627204Y-84356682D01*
X122256952Y-84604077D01*
X121942077Y-84918952D01*
X121694682Y-85289204D01*
X121524274Y-85700607D01*
X121437400Y-86137350D01*
X115798600Y-86137350D01*
X115711726Y-85700607D01*
X115541318Y-85289204D01*
X115293923Y-84918952D01*
X114979048Y-84604077D01*
X114608796Y-84356682D01*
X114197393Y-84186274D01*
X113760650Y-84099400D01*
X113315350Y-84099400D01*
X112878607Y-84186274D01*
X112467204Y-84356682D01*
X112096952Y-84604077D01*
X111782077Y-84918952D01*
X111534682Y-85289204D01*
X111364274Y-85700607D01*
X111277400Y-86137350D01*
X101699588Y-86137350D01*
X101670001Y-86101299D01*
X101641003Y-86077501D01*
X100228649Y-84665148D01*
X100264753Y-84684446D01*
X100408014Y-84727903D01*
X100519667Y-84738900D01*
X100519677Y-84738900D01*
X100556999Y-84742576D01*
X100594322Y-84738900D01*
X104386178Y-84738900D01*
X104423500Y-84742576D01*
X104460822Y-84738900D01*
X104460833Y-84738900D01*
X104572486Y-84727903D01*
X104715747Y-84684446D01*
X104847776Y-84613874D01*
X104963501Y-84518901D01*
X104987303Y-84489898D01*
X105493153Y-83984049D01*
X105554815Y-84059185D01*
X105651506Y-84138537D01*
X105761820Y-84197502D01*
X105881518Y-84233812D01*
X106006000Y-84246072D01*
X107106000Y-84246072D01*
X107230482Y-84233812D01*
X107350180Y-84197502D01*
X107460494Y-84138537D01*
X107557185Y-84059185D01*
X107636537Y-83962494D01*
X107695502Y-83852180D01*
X107731812Y-83732482D01*
X107744072Y-83608000D01*
X107744072Y-82508000D01*
X107731812Y-82383518D01*
X107695502Y-82263820D01*
X107636537Y-82153506D01*
X107557185Y-82056815D01*
X107460494Y-81977463D01*
X107350180Y-81918498D01*
X107316000Y-81908130D01*
X107316000Y-81331101D01*
X107427944Y-81219158D01*
X107440188Y-81343482D01*
X107476498Y-81463180D01*
X107535463Y-81573494D01*
X107614815Y-81670185D01*
X107711506Y-81749537D01*
X107821820Y-81808502D01*
X107941518Y-81844812D01*
X108066000Y-81857072D01*
X108680250Y-81854000D01*
X108839000Y-81695250D01*
X108839000Y-80683500D01*
X109093000Y-80683500D01*
X109093000Y-81695250D01*
X109251750Y-81854000D01*
X109866000Y-81857072D01*
X109990482Y-81844812D01*
X110110180Y-81808502D01*
X110220494Y-81749537D01*
X110317185Y-81670185D01*
X110396537Y-81573494D01*
X110455502Y-81463180D01*
X110491812Y-81343482D01*
X110504072Y-81219000D01*
X110501000Y-80842250D01*
X110342250Y-80683500D01*
X109093000Y-80683500D01*
X108839000Y-80683500D01*
X108819000Y-80683500D01*
X108819000Y-80429500D01*
X108839000Y-80429500D01*
X108839000Y-80409500D01*
X109093000Y-80409500D01*
X109093000Y-80429500D01*
X110342250Y-80429500D01*
X110501000Y-80270750D01*
X110504072Y-79894000D01*
X110491812Y-79769518D01*
X110455502Y-79649820D01*
X110416168Y-79576233D01*
X113156302Y-76836100D01*
X113734299Y-76836100D01*
X113925421Y-77027222D01*
X113868200Y-77314896D01*
X113868200Y-77625104D01*
X113928718Y-77929352D01*
X114047430Y-78215948D01*
X114219773Y-78473877D01*
X114439123Y-78693227D01*
X114691313Y-78861735D01*
X114693997Y-78888985D01*
X114736985Y-79030701D01*
X114737454Y-79032246D01*
X114808026Y-79164276D01*
X114841365Y-79204899D01*
X114902999Y-79280001D01*
X114932003Y-79303804D01*
X115195421Y-79567222D01*
X115138200Y-79854896D01*
X115138200Y-80165104D01*
X115198718Y-80469352D01*
X115317430Y-80755948D01*
X115489773Y-81013877D01*
X115709123Y-81233227D01*
X115967052Y-81405570D01*
X116253648Y-81524282D01*
X116557896Y-81584800D01*
X116868104Y-81584800D01*
X117172352Y-81524282D01*
X117458948Y-81405570D01*
X117716877Y-81233227D01*
X117936227Y-81013877D01*
X117983000Y-80943876D01*
X118029773Y-81013877D01*
X118249123Y-81233227D01*
X118507052Y-81405570D01*
X118793648Y-81524282D01*
X119097896Y-81584800D01*
X119408104Y-81584800D01*
X119712352Y-81524282D01*
X119998948Y-81405570D01*
X120256877Y-81233227D01*
X120387628Y-81102476D01*
X120880129Y-81102476D01*
X120968623Y-81360723D01*
X121247976Y-81495597D01*
X121548275Y-81573381D01*
X121857977Y-81591084D01*
X122165184Y-81548027D01*
X122458086Y-81445865D01*
X122617377Y-81360723D01*
X122705871Y-81102476D01*
X121793000Y-80189605D01*
X120880129Y-81102476D01*
X120387628Y-81102476D01*
X120476227Y-81013877D01*
X120567495Y-80877286D01*
X120700524Y-80922871D01*
X121613395Y-80010000D01*
X121972605Y-80010000D01*
X122885476Y-80922871D01*
X123143723Y-80834377D01*
X123278597Y-80555024D01*
X123356381Y-80254725D01*
X123374084Y-79945023D01*
X123331027Y-79637816D01*
X123228865Y-79344914D01*
X123143723Y-79185623D01*
X122885476Y-79097129D01*
X121972605Y-80010000D01*
X121613395Y-80010000D01*
X121599253Y-79995858D01*
X121778858Y-79816253D01*
X121793000Y-79830395D01*
X122705871Y-78917524D01*
X122617377Y-78659277D01*
X122338024Y-78524403D01*
X122037725Y-78446619D01*
X121774494Y-78431572D01*
X121918570Y-78215948D01*
X122037282Y-77929352D01*
X122097800Y-77625104D01*
X122097800Y-77314896D01*
X122037282Y-77010648D01*
X121918570Y-76724052D01*
X121746227Y-76466123D01*
X121526877Y-76246773D01*
X121268948Y-76074430D01*
X120982352Y-75955718D01*
X120678104Y-75895200D01*
X120367896Y-75895200D01*
X120063648Y-75955718D01*
X119943562Y-76005459D01*
X115835015Y-71896914D01*
X115928000Y-71906072D01*
X116228000Y-71906072D01*
X116381745Y-71890929D01*
X116529582Y-71846084D01*
X116665829Y-71773258D01*
X116713000Y-71734546D01*
X116760171Y-71773258D01*
X116896418Y-71846084D01*
X117044255Y-71890929D01*
X117198000Y-71906072D01*
X117498000Y-71906072D01*
X117651745Y-71890929D01*
X117799582Y-71846084D01*
X117935829Y-71773258D01*
X117983000Y-71734546D01*
X118030171Y-71773258D01*
X118166418Y-71846084D01*
X118314255Y-71890929D01*
X118468000Y-71906072D01*
X118768000Y-71906072D01*
X118921745Y-71890929D01*
X119069582Y-71846084D01*
X119205829Y-71773258D01*
X119253000Y-71734546D01*
X119300171Y-71773258D01*
X119436418Y-71846084D01*
X119584255Y-71890929D01*
X119738000Y-71906072D01*
X120038000Y-71906072D01*
X120191745Y-71890929D01*
X120339582Y-71846084D01*
X120473936Y-71774270D01*
X120503506Y-71798537D01*
X120613820Y-71857502D01*
X120733518Y-71893812D01*
X120858000Y-71906072D01*
X120872250Y-71903000D01*
X121031000Y-71744250D01*
X121031000Y-70420000D01*
X121285000Y-70420000D01*
X121285000Y-71744250D01*
X121443750Y-71903000D01*
X121458000Y-71906072D01*
X121582482Y-71893812D01*
X121702180Y-71857502D01*
X121812494Y-71798537D01*
X121909185Y-71719185D01*
X121988537Y-71622494D01*
X122047502Y-71512180D01*
X122083812Y-71392482D01*
X122096072Y-71268000D01*
X122093000Y-70578750D01*
X121934250Y-70420000D01*
X121285000Y-70420000D01*
X121031000Y-70420000D01*
X121011000Y-70420000D01*
X121011000Y-70166000D01*
X121031000Y-70166000D01*
X121031000Y-68841750D01*
X121285000Y-68841750D01*
X121285000Y-70166000D01*
X121934250Y-70166000D01*
X122093000Y-70007250D01*
X122096072Y-69318000D01*
X122083812Y-69193518D01*
X122047502Y-69073820D01*
X121988537Y-68963506D01*
X121909185Y-68866815D01*
X121812494Y-68787463D01*
X121702180Y-68728498D01*
X121582482Y-68692188D01*
X121458000Y-68679928D01*
X121443750Y-68683000D01*
X121285000Y-68841750D01*
X121031000Y-68841750D01*
X120872250Y-68683000D01*
X120858000Y-68679928D01*
X120733518Y-68692188D01*
X120613820Y-68728498D01*
X120503506Y-68787463D01*
X120473936Y-68811730D01*
X120339582Y-68739916D01*
X120191745Y-68695071D01*
X120038000Y-68679928D01*
X119738000Y-68679928D01*
X119584255Y-68695071D01*
X119436418Y-68739916D01*
X119300171Y-68812742D01*
X119253000Y-68851454D01*
X119205829Y-68812742D01*
X119069582Y-68739916D01*
X118921745Y-68695071D01*
X118768000Y-68679928D01*
X118468000Y-68679928D01*
X118314255Y-68695071D01*
X118166418Y-68739916D01*
X118030171Y-68812742D01*
X117983000Y-68851454D01*
X117935829Y-68812742D01*
X117799582Y-68739916D01*
X117651745Y-68695071D01*
X117498000Y-68679928D01*
X117198000Y-68679928D01*
X117044255Y-68695071D01*
X116896418Y-68739916D01*
X116760171Y-68812742D01*
X116713000Y-68851454D01*
X116665829Y-68812742D01*
X116529582Y-68739916D01*
X116381745Y-68695071D01*
X116228000Y-68679928D01*
X116203000Y-68679928D01*
X116203000Y-66956072D01*
X116228000Y-66956072D01*
X116381745Y-66940929D01*
X116529582Y-66896084D01*
X116665829Y-66823258D01*
X116713000Y-66784546D01*
X116760171Y-66823258D01*
X116896418Y-66896084D01*
X117044255Y-66940929D01*
X117198000Y-66956072D01*
X117498000Y-66956072D01*
X117651745Y-66940929D01*
X117799582Y-66896084D01*
X117935829Y-66823258D01*
X117983000Y-66784546D01*
X118030171Y-66823258D01*
X118166418Y-66896084D01*
X118314255Y-66940929D01*
X118468000Y-66956072D01*
X118768000Y-66956072D01*
X118921745Y-66940929D01*
X119069582Y-66896084D01*
X119205829Y-66823258D01*
X119253000Y-66784546D01*
X119300171Y-66823258D01*
X119436418Y-66896084D01*
X119584255Y-66940929D01*
X119738000Y-66956072D01*
X120038000Y-66956072D01*
X120191745Y-66940929D01*
X120339582Y-66896084D01*
X120475829Y-66823258D01*
X120523000Y-66784546D01*
X120570171Y-66823258D01*
X120706418Y-66896084D01*
X120854255Y-66940929D01*
X121008000Y-66956072D01*
X121308000Y-66956072D01*
X121461745Y-66940929D01*
X121609582Y-66896084D01*
X121745829Y-66823258D01*
X121865251Y-66725251D01*
X121963258Y-66605829D01*
X122036084Y-66469582D01*
X122080929Y-66321745D01*
X122096072Y-66168000D01*
X122096072Y-64518000D01*
X122080929Y-64364255D01*
X122036084Y-64216418D01*
X121963258Y-64080171D01*
X121865251Y-63960749D01*
X121745829Y-63862742D01*
X121609582Y-63789916D01*
X121461745Y-63745071D01*
X121308000Y-63729928D01*
X121008000Y-63729928D01*
X120854255Y-63745071D01*
X120706418Y-63789916D01*
X120570171Y-63862742D01*
X120523000Y-63901454D01*
X120475829Y-63862742D01*
X120339582Y-63789916D01*
X120191745Y-63745071D01*
X120038000Y-63729928D01*
X119738000Y-63729928D01*
X119584255Y-63745071D01*
X119436418Y-63789916D01*
X119300171Y-63862742D01*
X119253000Y-63901454D01*
X119205829Y-63862742D01*
X119069582Y-63789916D01*
X118921745Y-63745071D01*
X118768000Y-63729928D01*
X118468000Y-63729928D01*
X118314255Y-63745071D01*
X118166418Y-63789916D01*
X118030171Y-63862742D01*
X117983000Y-63901454D01*
X117935829Y-63862742D01*
X117799582Y-63789916D01*
X117651745Y-63745071D01*
X117498000Y-63729928D01*
X117198000Y-63729928D01*
X117044255Y-63745071D01*
X116896418Y-63789916D01*
X116760171Y-63862742D01*
X116713000Y-63901454D01*
X116665829Y-63862742D01*
X116529582Y-63789916D01*
X116381745Y-63745071D01*
X116228000Y-63729928D01*
X116203000Y-63729928D01*
X116203000Y-60345902D01*
X116801505Y-60944408D01*
X116825299Y-60973401D01*
X116854292Y-60997195D01*
X116854296Y-60997199D01*
X116924985Y-61055211D01*
X116941024Y-61068374D01*
X117073053Y-61138946D01*
X117216314Y-61182403D01*
X117327967Y-61193400D01*
X117327976Y-61193400D01*
X117365299Y-61197076D01*
X117402622Y-61193400D01*
X118509278Y-61193400D01*
X118546600Y-61197076D01*
X118583922Y-61193400D01*
X118583933Y-61193400D01*
X118695586Y-61182403D01*
X118838847Y-61138946D01*
X118970876Y-61068374D01*
X119086601Y-60973401D01*
X119110404Y-60944397D01*
X119318885Y-60735916D01*
X119422000Y-60746072D01*
X120222000Y-60746072D01*
X120346482Y-60733812D01*
X120466180Y-60697502D01*
X120576494Y-60638537D01*
X120673185Y-60559185D01*
X120676044Y-60555702D01*
X120690111Y-60558500D01*
X120874289Y-60558500D01*
X120979138Y-60537644D01*
X121055613Y-60600405D01*
X121209149Y-60682472D01*
X121375745Y-60733008D01*
X121548999Y-60750072D01*
X122799001Y-60750072D01*
X122972255Y-60733008D01*
X123138851Y-60682472D01*
X123292387Y-60600405D01*
X123426962Y-60489962D01*
X123537405Y-60355387D01*
X123619472Y-60201851D01*
X123670008Y-60035255D01*
X123687072Y-59862001D01*
X123687072Y-59061999D01*
X123670008Y-58888745D01*
X123619472Y-58722149D01*
X123537405Y-58568613D01*
X123426962Y-58434038D01*
X123292387Y-58323595D01*
X123138851Y-58241528D01*
X122972255Y-58190992D01*
X122799001Y-58173928D01*
X121548999Y-58173928D01*
X121375745Y-58190992D01*
X121209149Y-58241528D01*
X121055613Y-58323595D01*
X120921038Y-58434038D01*
X120860072Y-58508325D01*
X120860072Y-58208000D01*
X120847812Y-58083518D01*
X120811502Y-57963820D01*
X120752537Y-57853506D01*
X120673185Y-57756815D01*
X120576494Y-57677463D01*
X120511877Y-57642924D01*
X120850631Y-57304171D01*
X120921038Y-57389962D01*
X121055613Y-57500405D01*
X121209149Y-57582472D01*
X121375745Y-57633008D01*
X121548999Y-57650072D01*
X122799001Y-57650072D01*
X122972255Y-57633008D01*
X123138851Y-57582472D01*
X123292387Y-57500405D01*
X123426962Y-57389962D01*
X123537405Y-57255387D01*
X123619472Y-57101851D01*
X123670008Y-56935255D01*
X123687072Y-56762001D01*
X123687072Y-55961999D01*
X123670008Y-55788745D01*
X123619472Y-55622149D01*
X123537405Y-55468613D01*
X123426962Y-55334038D01*
X123292387Y-55223595D01*
X123138851Y-55141528D01*
X122972255Y-55090992D01*
X122799001Y-55073928D01*
X121548999Y-55073928D01*
X121375745Y-55090992D01*
X121209149Y-55141528D01*
X121055613Y-55223595D01*
X120921038Y-55334038D01*
X120810595Y-55468613D01*
X120740099Y-55600501D01*
X120717999Y-55598324D01*
X120680676Y-55602000D01*
X120680667Y-55602000D01*
X120569014Y-55612997D01*
X120425753Y-55656454D01*
X120293723Y-55727026D01*
X120246022Y-55766174D01*
X120177999Y-55821999D01*
X120154201Y-55850997D01*
X119910072Y-56095126D01*
X119910072Y-55208000D01*
X119897812Y-55083518D01*
X119861502Y-54963820D01*
X119802537Y-54853506D01*
X119723185Y-54756815D01*
X119626494Y-54677463D01*
X119516180Y-54618498D01*
X119396482Y-54582188D01*
X119272000Y-54569928D01*
X118472000Y-54569928D01*
X118347518Y-54582188D01*
X118227820Y-54618498D01*
X118117506Y-54677463D01*
X118020815Y-54756815D01*
X117941463Y-54853506D01*
X117932945Y-54869443D01*
X113216666Y-50153165D01*
X113257259Y-50077220D01*
X113319300Y-49872697D01*
X113340249Y-49660000D01*
X113319300Y-49447303D01*
X113257259Y-49242780D01*
X113156509Y-49054290D01*
X113132471Y-49025000D01*
X113156509Y-48995710D01*
X113257259Y-48807220D01*
X113319300Y-48602697D01*
X113340249Y-48390000D01*
X113319300Y-48177303D01*
X113257259Y-47972780D01*
X113156509Y-47784290D01*
X113132471Y-47755000D01*
X113156509Y-47725710D01*
X113257259Y-47537220D01*
X113319300Y-47332697D01*
X113340249Y-47120000D01*
X113319300Y-46907303D01*
X113257259Y-46702780D01*
X113156509Y-46514290D01*
X113132471Y-46485000D01*
X113156509Y-46455710D01*
X113257259Y-46267220D01*
X113319300Y-46062697D01*
X113340249Y-45850000D01*
X113319300Y-45637303D01*
X113257259Y-45432780D01*
X113156509Y-45244290D01*
X113132471Y-45215000D01*
X113156509Y-45185710D01*
X113257259Y-44997220D01*
X113319300Y-44792697D01*
X113340249Y-44580000D01*
X113319300Y-44367303D01*
X113257259Y-44162780D01*
X113156509Y-43974290D01*
X113132471Y-43945000D01*
X113156509Y-43915710D01*
X113257259Y-43727220D01*
X113319300Y-43522697D01*
X113340249Y-43310000D01*
X113319300Y-43097303D01*
X113257259Y-42892780D01*
X113156509Y-42704290D01*
X113132471Y-42675000D01*
X113156509Y-42645710D01*
X113257259Y-42457220D01*
X113319300Y-42252697D01*
X113340249Y-42040000D01*
X113319300Y-41827303D01*
X113257259Y-41622780D01*
X113156509Y-41434290D01*
X113132471Y-41405000D01*
X113156509Y-41375710D01*
X113257259Y-41187220D01*
X113319300Y-40982697D01*
X113340249Y-40770000D01*
X113319300Y-40557303D01*
X113257259Y-40352780D01*
X113156509Y-40164290D01*
X113132471Y-40135000D01*
X113156509Y-40105710D01*
X113257259Y-39917220D01*
X113319300Y-39712697D01*
X113340249Y-39500000D01*
X113326721Y-39362644D01*
X113497529Y-39328668D01*
X113667689Y-39258186D01*
X113820828Y-39155862D01*
X113951062Y-39025628D01*
X114053386Y-38872489D01*
X114123868Y-38702329D01*
X114159800Y-38521689D01*
X114159800Y-38337511D01*
X114123868Y-38156871D01*
X114053386Y-37986711D01*
X113951062Y-37833572D01*
X113820828Y-37703338D01*
X113667689Y-37601014D01*
X113497529Y-37530532D01*
X113316889Y-37494600D01*
X113219130Y-37494600D01*
X113197952Y-37488176D01*
X113257259Y-37377220D01*
X113319300Y-37172697D01*
X113340249Y-36960000D01*
X113319300Y-36747303D01*
X113257259Y-36542780D01*
X113156509Y-36354290D01*
X113132471Y-36325000D01*
X113156509Y-36295710D01*
X113257259Y-36107220D01*
X113319300Y-35902697D01*
X113340249Y-35690000D01*
X113319300Y-35477303D01*
X113257259Y-35272780D01*
X113156509Y-35084290D01*
X113132471Y-35055000D01*
X113156509Y-35025710D01*
X113257259Y-34837220D01*
X113319300Y-34632697D01*
X113340249Y-34420000D01*
X113319300Y-34207303D01*
X113257259Y-34002780D01*
X113156509Y-33814290D01*
X113133463Y-33786208D01*
X113222702Y-33647197D01*
X113294408Y-33444001D01*
X113167502Y-33277000D01*
X111577000Y-33277000D01*
X111577000Y-33297000D01*
X111323000Y-33297000D01*
X111323000Y-33277000D01*
X109732498Y-33277000D01*
X109605592Y-33444001D01*
X109677298Y-33647197D01*
X109766537Y-33786208D01*
X109743491Y-33814290D01*
X109642741Y-34002780D01*
X109580700Y-34207303D01*
X109559751Y-34420000D01*
X109580700Y-34632697D01*
X109642741Y-34837220D01*
X109743491Y-35025710D01*
X109767529Y-35055000D01*
X109743491Y-35084290D01*
X109642741Y-35272780D01*
X109580700Y-35477303D01*
X109559751Y-35690000D01*
X109580700Y-35902697D01*
X109642741Y-36107220D01*
X109702048Y-36218176D01*
X109582453Y-36254454D01*
X109450424Y-36325026D01*
X109334699Y-36419999D01*
X109239726Y-36535724D01*
X109169154Y-36667753D01*
X109125697Y-36811014D01*
X109111023Y-36960000D01*
X109114700Y-36997333D01*
X109114701Y-40887763D01*
X109046114Y-40990411D01*
X108975632Y-41160571D01*
X108939700Y-41341211D01*
X108939700Y-41525389D01*
X108975632Y-41706029D01*
X109046114Y-41876189D01*
X109148438Y-42029328D01*
X109278672Y-42159562D01*
X109431811Y-42261886D01*
X109601971Y-42332368D01*
X109605054Y-42332981D01*
X109642741Y-42457220D01*
X109743491Y-42645710D01*
X109767529Y-42675000D01*
X109743491Y-42704290D01*
X109642741Y-42892780D01*
X109580700Y-43097303D01*
X109559751Y-43310000D01*
X109580700Y-43522697D01*
X109642741Y-43727220D01*
X109743491Y-43915710D01*
X109767529Y-43945000D01*
X109743491Y-43974290D01*
X109642741Y-44162780D01*
X109580700Y-44367303D01*
X109559751Y-44580000D01*
X109580700Y-44792697D01*
X109642741Y-44997220D01*
X109743491Y-45185710D01*
X109767529Y-45215000D01*
X109743491Y-45244290D01*
X109642741Y-45432780D01*
X109580700Y-45637303D01*
X109559751Y-45850000D01*
X109580700Y-46062697D01*
X109642741Y-46267220D01*
X109702048Y-46378176D01*
X109582453Y-46414454D01*
X109450424Y-46485026D01*
X109334699Y-46579999D01*
X109239726Y-46695724D01*
X109169154Y-46827753D01*
X109125697Y-46971014D01*
X109111023Y-47120000D01*
X109114701Y-47157343D01*
X109114700Y-49094899D01*
X109045104Y-49025303D01*
X109021301Y-48996299D01*
X108905576Y-48901326D01*
X108773547Y-48830754D01*
X108630286Y-48787297D01*
X108518633Y-48776300D01*
X108518622Y-48776300D01*
X108481300Y-48772624D01*
X108443978Y-48776300D01*
X95785300Y-48776300D01*
X95785300Y-43850000D01*
X98511928Y-43850000D01*
X98524188Y-43974482D01*
X98560498Y-44094180D01*
X98619463Y-44204494D01*
X98698815Y-44301185D01*
X98795506Y-44380537D01*
X98905820Y-44439502D01*
X99025518Y-44475812D01*
X99150000Y-44488072D01*
X101864250Y-44485000D01*
X102023000Y-44326250D01*
X102023000Y-40977000D01*
X102277000Y-40977000D01*
X102277000Y-44326250D01*
X102435750Y-44485000D01*
X105150000Y-44488072D01*
X105274482Y-44475812D01*
X105394180Y-44439502D01*
X105504494Y-44380537D01*
X105601185Y-44301185D01*
X105680537Y-44204494D01*
X105739502Y-44094180D01*
X105775812Y-43974482D01*
X105788072Y-43850000D01*
X105785000Y-41135750D01*
X105626250Y-40977000D01*
X102277000Y-40977000D01*
X102023000Y-40977000D01*
X98673750Y-40977000D01*
X98515000Y-41135750D01*
X98511928Y-43850000D01*
X95785300Y-43850000D01*
X95785300Y-37850000D01*
X98511928Y-37850000D01*
X98515000Y-40564250D01*
X98673750Y-40723000D01*
X102023000Y-40723000D01*
X102023000Y-37373750D01*
X102277000Y-37373750D01*
X102277000Y-40723000D01*
X105626250Y-40723000D01*
X105785000Y-40564250D01*
X105788072Y-37850000D01*
X105775812Y-37725518D01*
X105739502Y-37605820D01*
X105680537Y-37495506D01*
X105601185Y-37398815D01*
X105504494Y-37319463D01*
X105394180Y-37260498D01*
X105274482Y-37224188D01*
X105150000Y-37211928D01*
X102435750Y-37215000D01*
X102277000Y-37373750D01*
X102023000Y-37373750D01*
X101864250Y-37215000D01*
X99150000Y-37211928D01*
X99025518Y-37224188D01*
X98905820Y-37260498D01*
X98795506Y-37319463D01*
X98698815Y-37398815D01*
X98619463Y-37495506D01*
X98560498Y-37605820D01*
X98524188Y-37725518D01*
X98511928Y-37850000D01*
X95785300Y-37850000D01*
X95785300Y-34457333D01*
X95788977Y-34420000D01*
X95774303Y-34271014D01*
X95730846Y-34127753D01*
X95660274Y-33995724D01*
X95565301Y-33879999D01*
X95449576Y-33785026D01*
X95317547Y-33714454D01*
X95202022Y-33679411D01*
X95222702Y-33647197D01*
X95294408Y-33444001D01*
X95167502Y-33277000D01*
X93577000Y-33277000D01*
X93577000Y-33297000D01*
X93323000Y-33297000D01*
X93323000Y-33277000D01*
X91732498Y-33277000D01*
X91605592Y-33444001D01*
X91677298Y-33647197D01*
X91685517Y-33660000D01*
X89654833Y-33660000D01*
X89617500Y-33656323D01*
X89580167Y-33660000D01*
X89468514Y-33670997D01*
X89325253Y-33714454D01*
X89193224Y-33785026D01*
X89190906Y-33786928D01*
X88299998Y-33786928D01*
X88126744Y-33803992D01*
X87960148Y-33854528D01*
X87806613Y-33936595D01*
X87672038Y-34047038D01*
X87561595Y-34181613D01*
X87483616Y-34327500D01*
X85916384Y-34327500D01*
X85838405Y-34181613D01*
X85727962Y-34047038D01*
X85593387Y-33936595D01*
X85439852Y-33854528D01*
X85273256Y-33803992D01*
X85100002Y-33786928D01*
X83799998Y-33786928D01*
X83626744Y-33803992D01*
X83460148Y-33854528D01*
X83306613Y-33936595D01*
X83172038Y-34047038D01*
X83061595Y-34181613D01*
X82979528Y-34335148D01*
X82928992Y-34501744D01*
X82911928Y-34674998D01*
X82911928Y-35500002D01*
X82928992Y-35673256D01*
X82979528Y-35839852D01*
X83061595Y-35993387D01*
X83172038Y-36127962D01*
X83306613Y-36238405D01*
X83460148Y-36320472D01*
X83626744Y-36371008D01*
X83799998Y-36388072D01*
X84955600Y-36388072D01*
X84955600Y-36913900D01*
X84735750Y-36915000D01*
X84577000Y-37073750D01*
X84577000Y-38085500D01*
X84597000Y-38085500D01*
X84597000Y-38339500D01*
X84577000Y-38339500D01*
X84577000Y-39351250D01*
X84735750Y-39510000D01*
X84955601Y-39511100D01*
X84955601Y-40036497D01*
X84651270Y-40340828D01*
X83812999Y-40340828D01*
X83639745Y-40357892D01*
X83473149Y-40408428D01*
X83319613Y-40490495D01*
X83185038Y-40600938D01*
X83074595Y-40735513D01*
X82992528Y-40889049D01*
X82941992Y-41055645D01*
X82924928Y-41228899D01*
X82924928Y-42028901D01*
X82941992Y-42202155D01*
X82992528Y-42368751D01*
X83074595Y-42522287D01*
X83185038Y-42656862D01*
X83319613Y-42767305D01*
X83473149Y-42849372D01*
X83639745Y-42899908D01*
X83812999Y-42916972D01*
X85063001Y-42916972D01*
X85236255Y-42899908D01*
X85402851Y-42849372D01*
X85556387Y-42767305D01*
X85690962Y-42656862D01*
X85801405Y-42522287D01*
X85883472Y-42368751D01*
X85891010Y-42343900D01*
X87394928Y-42343900D01*
X87407188Y-42468382D01*
X87443498Y-42588080D01*
X87502463Y-42698394D01*
X87581815Y-42795085D01*
X87678506Y-42874437D01*
X87788820Y-42933402D01*
X87908518Y-42969712D01*
X88033000Y-42981972D01*
X88647250Y-42978900D01*
X88806000Y-42820150D01*
X88806000Y-41808400D01*
X89060000Y-41808400D01*
X89060000Y-42820150D01*
X89218750Y-42978900D01*
X89833000Y-42981972D01*
X89957482Y-42969712D01*
X90077180Y-42933402D01*
X90187494Y-42874437D01*
X90284185Y-42795085D01*
X90363537Y-42698394D01*
X90422502Y-42588080D01*
X90458812Y-42468382D01*
X90471072Y-42343900D01*
X90468000Y-41967150D01*
X90309250Y-41808400D01*
X89060000Y-41808400D01*
X88806000Y-41808400D01*
X87556750Y-41808400D01*
X87398000Y-41967150D01*
X87394928Y-42343900D01*
X85891010Y-42343900D01*
X85934008Y-42202155D01*
X85951072Y-42028901D01*
X85951072Y-41228899D01*
X85947641Y-41194061D01*
X86122802Y-41018900D01*
X87394928Y-41018900D01*
X87398000Y-41395650D01*
X87556750Y-41554400D01*
X88806000Y-41554400D01*
X88806000Y-40542650D01*
X89060000Y-40542650D01*
X89060000Y-41554400D01*
X90309250Y-41554400D01*
X90468000Y-41395650D01*
X90471072Y-41018900D01*
X90458812Y-40894418D01*
X90422502Y-40774720D01*
X90363537Y-40664406D01*
X90284185Y-40567715D01*
X90187494Y-40488363D01*
X90077180Y-40429398D01*
X89957482Y-40393088D01*
X89833000Y-40380828D01*
X89218750Y-40383900D01*
X89060000Y-40542650D01*
X88806000Y-40542650D01*
X88647250Y-40383900D01*
X88033000Y-40380828D01*
X87908518Y-40393088D01*
X87788820Y-40429398D01*
X87678506Y-40488363D01*
X87581815Y-40567715D01*
X87502463Y-40664406D01*
X87443498Y-40774720D01*
X87407188Y-40894418D01*
X87394928Y-41018900D01*
X86122802Y-41018900D01*
X86226603Y-40915099D01*
X86255601Y-40891301D01*
X86350574Y-40775576D01*
X86421146Y-40643547D01*
X86464603Y-40500286D01*
X86475600Y-40388633D01*
X86475600Y-40388624D01*
X86479276Y-40351301D01*
X86475600Y-40313978D01*
X86475600Y-38875000D01*
X87411928Y-38875000D01*
X87424188Y-38999482D01*
X87460498Y-39119180D01*
X87519463Y-39229494D01*
X87598815Y-39326185D01*
X87695506Y-39405537D01*
X87805820Y-39464502D01*
X87925518Y-39500812D01*
X88050000Y-39513072D01*
X88664250Y-39510000D01*
X88823000Y-39351250D01*
X88823000Y-38339500D01*
X89077000Y-38339500D01*
X89077000Y-39351250D01*
X89235750Y-39510000D01*
X89850000Y-39513072D01*
X89974482Y-39500812D01*
X90094180Y-39464502D01*
X90204494Y-39405537D01*
X90301185Y-39326185D01*
X90380537Y-39229494D01*
X90439502Y-39119180D01*
X90475812Y-38999482D01*
X90488072Y-38875000D01*
X90485000Y-38498250D01*
X90326250Y-38339500D01*
X89077000Y-38339500D01*
X88823000Y-38339500D01*
X87573750Y-38339500D01*
X87415000Y-38498250D01*
X87411928Y-38875000D01*
X86475600Y-38875000D01*
X86475600Y-37550000D01*
X87411928Y-37550000D01*
X87415000Y-37926750D01*
X87573750Y-38085500D01*
X88823000Y-38085500D01*
X88823000Y-37073750D01*
X89077000Y-37073750D01*
X89077000Y-38085500D01*
X90326250Y-38085500D01*
X90485000Y-37926750D01*
X90488072Y-37550000D01*
X90475812Y-37425518D01*
X90439502Y-37305820D01*
X90380537Y-37195506D01*
X90301185Y-37098815D01*
X90204494Y-37019463D01*
X90094180Y-36960498D01*
X89974482Y-36924188D01*
X89850000Y-36911928D01*
X89235750Y-36915000D01*
X89077000Y-37073750D01*
X88823000Y-37073750D01*
X88664250Y-36915000D01*
X88050000Y-36911928D01*
X87925518Y-36924188D01*
X87805820Y-36960498D01*
X87695506Y-37019463D01*
X87598815Y-37098815D01*
X87519463Y-37195506D01*
X87460498Y-37305820D01*
X87424188Y-37425518D01*
X87411928Y-37550000D01*
X86475600Y-37550000D01*
X86475600Y-35847500D01*
X87483616Y-35847500D01*
X87561595Y-35993387D01*
X87672038Y-36127962D01*
X87806613Y-36238405D01*
X87960148Y-36320472D01*
X88126744Y-36371008D01*
X88299998Y-36388072D01*
X89600002Y-36388072D01*
X89773256Y-36371008D01*
X89939852Y-36320472D01*
X90093387Y-36238405D01*
X90227962Y-36127962D01*
X90338405Y-35993387D01*
X90420472Y-35839852D01*
X90471008Y-35673256D01*
X90488072Y-35500002D01*
X90488072Y-35180000D01*
X91310078Y-35180000D01*
X91239726Y-35265724D01*
X91169154Y-35397753D01*
X91125697Y-35541014D01*
X91111023Y-35690000D01*
X91114701Y-35727343D01*
X91114700Y-46509198D01*
X90454180Y-47169718D01*
X90450812Y-47135518D01*
X90414502Y-47015820D01*
X90355537Y-46905506D01*
X90276185Y-46808815D01*
X90179494Y-46729463D01*
X90069180Y-46670498D01*
X89949482Y-46634188D01*
X89825000Y-46621928D01*
X89235750Y-46625000D01*
X89077000Y-46783750D01*
X89077000Y-47783000D01*
X89097000Y-47783000D01*
X89097000Y-48037000D01*
X89077000Y-48037000D01*
X89077000Y-48057000D01*
X88823000Y-48057000D01*
X88823000Y-48037000D01*
X88803000Y-48037000D01*
X88803000Y-47783000D01*
X88823000Y-47783000D01*
X88823000Y-46783750D01*
X88664250Y-46625000D01*
X88488000Y-46624081D01*
X88488000Y-46106972D01*
X89583002Y-46106972D01*
X89756256Y-46089908D01*
X89922852Y-46039372D01*
X90076387Y-45957305D01*
X90210962Y-45846862D01*
X90321405Y-45712287D01*
X90403472Y-45558752D01*
X90454008Y-45392156D01*
X90471072Y-45218902D01*
X90471072Y-44393898D01*
X90454008Y-44220644D01*
X90403472Y-44054048D01*
X90321405Y-43900513D01*
X90210962Y-43765938D01*
X90076387Y-43655495D01*
X89922852Y-43573428D01*
X89756256Y-43522892D01*
X89583002Y-43505828D01*
X88282998Y-43505828D01*
X88109744Y-43522892D01*
X87943148Y-43573428D01*
X87789613Y-43655495D01*
X87655038Y-43765938D01*
X87544595Y-43900513D01*
X87466616Y-44046400D01*
X85900869Y-44046400D01*
X85883472Y-43989049D01*
X85801405Y-43835513D01*
X85690962Y-43700938D01*
X85556387Y-43590495D01*
X85402851Y-43508428D01*
X85236255Y-43457892D01*
X85063001Y-43440828D01*
X83812999Y-43440828D01*
X83639745Y-43457892D01*
X83473149Y-43508428D01*
X83319613Y-43590495D01*
X83185038Y-43700938D01*
X83074595Y-43835513D01*
X82992528Y-43989049D01*
X82941992Y-44155645D01*
X82924928Y-44328899D01*
X82924928Y-45128901D01*
X82941992Y-45302155D01*
X82942679Y-45304420D01*
X82293003Y-45954096D01*
X82263999Y-45977899D01*
X82231933Y-46016972D01*
X82169026Y-46093624D01*
X82118032Y-46189027D01*
X82098454Y-46225654D01*
X82054997Y-46368915D01*
X82044000Y-46480568D01*
X82044000Y-46480578D01*
X82040324Y-46517900D01*
X82044000Y-46555222D01*
X82044001Y-54295197D01*
X81785002Y-54554197D01*
X81755999Y-54577999D01*
X81746278Y-54589845D01*
X81651820Y-54618498D01*
X81541506Y-54677463D01*
X81444815Y-54756815D01*
X81365463Y-54853506D01*
X81306498Y-54963820D01*
X81270188Y-55083518D01*
X81257928Y-55208000D01*
X81257928Y-57108000D01*
X81270188Y-57232482D01*
X81306498Y-57352180D01*
X81365463Y-57462494D01*
X81444815Y-57559185D01*
X81457905Y-57569928D01*
X80946000Y-57569928D01*
X80821518Y-57582188D01*
X80701820Y-57618498D01*
X80591506Y-57677463D01*
X80494815Y-57756815D01*
X80415463Y-57853506D01*
X80356498Y-57963820D01*
X80320188Y-58083518D01*
X80307928Y-58208000D01*
X80307928Y-60108000D01*
X80320188Y-60232482D01*
X80356498Y-60352180D01*
X80415463Y-60462494D01*
X80494815Y-60559185D01*
X80591506Y-60638537D01*
X80701820Y-60697502D01*
X80821518Y-60733812D01*
X80946000Y-60746072D01*
X81746000Y-60746072D01*
X81849115Y-60735916D01*
X82063300Y-60950102D01*
X82087099Y-60979101D01*
X82116097Y-61002899D01*
X82202823Y-61074074D01*
X82269845Y-61109898D01*
X82334853Y-61144646D01*
X82478114Y-61188103D01*
X82589767Y-61199100D01*
X82589777Y-61199100D01*
X82627100Y-61202776D01*
X82664423Y-61199100D01*
X84514888Y-61199100D01*
X84449911Y-61226014D01*
X84296772Y-61328338D01*
X84166538Y-61458572D01*
X84064214Y-61611711D01*
X83993732Y-61781871D01*
X83957800Y-61962511D01*
X83957800Y-62146689D01*
X83993732Y-62327329D01*
X84064214Y-62497489D01*
X84166538Y-62650628D01*
X84296772Y-62780862D01*
X84449911Y-62883186D01*
X84620071Y-62953668D01*
X84775854Y-62984656D01*
X84832401Y-63041202D01*
X84832401Y-63046062D01*
X84769144Y-63052292D01*
X84602548Y-63102828D01*
X84449013Y-63184895D01*
X84314438Y-63295338D01*
X84203995Y-63429913D01*
X84126016Y-63575800D01*
X83665475Y-63575800D01*
X83588405Y-63431613D01*
X83477962Y-63297038D01*
X83343387Y-63186595D01*
X83189852Y-63104528D01*
X83023256Y-63053992D01*
X82850002Y-63036928D01*
X81549998Y-63036928D01*
X81376744Y-63053992D01*
X81210148Y-63104528D01*
X81056613Y-63186595D01*
X80922038Y-63297038D01*
X80811595Y-63431613D01*
X80729528Y-63585148D01*
X80678992Y-63751744D01*
X80661928Y-63924998D01*
X80661928Y-64750002D01*
X80678992Y-64923256D01*
X80729528Y-65089852D01*
X80811595Y-65243387D01*
X80922038Y-65377962D01*
X81056613Y-65488405D01*
X81210148Y-65570472D01*
X81376744Y-65621008D01*
X81549998Y-65638072D01*
X82850002Y-65638072D01*
X83023256Y-65621008D01*
X83189852Y-65570472D01*
X83343387Y-65488405D01*
X83477962Y-65377962D01*
X83588405Y-65243387D01*
X83667293Y-65095800D01*
X84126016Y-65095800D01*
X84203995Y-65241687D01*
X84314438Y-65376262D01*
X84449013Y-65486705D01*
X84602548Y-65568772D01*
X84769144Y-65619308D01*
X84942398Y-65636372D01*
X86242402Y-65636372D01*
X86415656Y-65619308D01*
X86582252Y-65568772D01*
X86735787Y-65486705D01*
X86870362Y-65376262D01*
X86980805Y-65241687D01*
X87062872Y-65088152D01*
X87113408Y-64921556D01*
X87130472Y-64748302D01*
X87130472Y-63923298D01*
X87113408Y-63750044D01*
X87062872Y-63583448D01*
X86980805Y-63429913D01*
X86870362Y-63295338D01*
X86735787Y-63184895D01*
X86582252Y-63102828D01*
X86415656Y-63052292D01*
X86352400Y-63046062D01*
X86352400Y-62763725D01*
X86356076Y-62726400D01*
X86352400Y-62689075D01*
X86352400Y-62689067D01*
X86341403Y-62577414D01*
X86297946Y-62434153D01*
X86227374Y-62302124D01*
X86132401Y-62186399D01*
X86103402Y-62162600D01*
X85995401Y-62054600D01*
X89628080Y-58421921D01*
X89617928Y-58524999D01*
X89617928Y-59775001D01*
X89634992Y-59948255D01*
X89685528Y-60114851D01*
X89767595Y-60268387D01*
X89878038Y-60402962D01*
X90012613Y-60513405D01*
X90166149Y-60595472D01*
X90332745Y-60646008D01*
X90505999Y-60663072D01*
X91133898Y-60663072D01*
X91190001Y-60747037D01*
X91190000Y-62943840D01*
X91119403Y-62965256D01*
X90998283Y-63029996D01*
X90892121Y-63117121D01*
X90804996Y-63223283D01*
X90740256Y-63344403D01*
X90700389Y-63475825D01*
X90686928Y-63612500D01*
X90686928Y-63886928D01*
X90412500Y-63886928D01*
X90275825Y-63900389D01*
X90144403Y-63940256D01*
X90023283Y-64004996D01*
X89917121Y-64092121D01*
X89829996Y-64198283D01*
X89765256Y-64319403D01*
X89725389Y-64450825D01*
X89711928Y-64587500D01*
X89711928Y-64712500D01*
X89725389Y-64849175D01*
X89732098Y-64871290D01*
X89727232Y-64886089D01*
X89715000Y-64991250D01*
X89719251Y-64995501D01*
X89682724Y-65015026D01*
X89566999Y-65109999D01*
X89543201Y-65138997D01*
X88441103Y-66241096D01*
X88412099Y-66264899D01*
X88376332Y-66308482D01*
X88317126Y-66380624D01*
X88283008Y-66444454D01*
X88246554Y-66512654D01*
X88203097Y-66655915D01*
X88192100Y-66767568D01*
X88192100Y-66767578D01*
X88188424Y-66804900D01*
X88192100Y-66842222D01*
X88192101Y-75539897D01*
X86680665Y-77051334D01*
X86683072Y-76570000D01*
X86670812Y-76445518D01*
X86634502Y-76325820D01*
X86575537Y-76215506D01*
X86496185Y-76118815D01*
X86399494Y-76039463D01*
X86289180Y-75980498D01*
X86169482Y-75944188D01*
X86045000Y-75931928D01*
X85668250Y-75935000D01*
X85509500Y-76093750D01*
X85509500Y-77343000D01*
X85529500Y-77343000D01*
X85529500Y-77597000D01*
X85509500Y-77597000D01*
X85509500Y-77617000D01*
X85255500Y-77617000D01*
X85255500Y-77597000D01*
X85235500Y-77597000D01*
X85235500Y-77343000D01*
X85255500Y-77343000D01*
X85255500Y-76093750D01*
X85096750Y-75935000D01*
X84720000Y-75931928D01*
X84668700Y-75936980D01*
X84668700Y-73923020D01*
X84720000Y-73928072D01*
X85096750Y-73925000D01*
X85255500Y-73766250D01*
X85255500Y-72517000D01*
X85509500Y-72517000D01*
X85509500Y-73766250D01*
X85668250Y-73925000D01*
X86045000Y-73928072D01*
X86169482Y-73915812D01*
X86289180Y-73879502D01*
X86399494Y-73820537D01*
X86496185Y-73741185D01*
X86575537Y-73644494D01*
X86634502Y-73534180D01*
X86670812Y-73414482D01*
X86683072Y-73290000D01*
X86680000Y-72675750D01*
X86521250Y-72517000D01*
X85509500Y-72517000D01*
X85255500Y-72517000D01*
X85235500Y-72517000D01*
X85235500Y-72263000D01*
X85255500Y-72263000D01*
X85255500Y-71013750D01*
X85509500Y-71013750D01*
X85509500Y-72263000D01*
X86521250Y-72263000D01*
X86680000Y-72104250D01*
X86683072Y-71490000D01*
X86670812Y-71365518D01*
X86634502Y-71245820D01*
X86575537Y-71135506D01*
X86496185Y-71038815D01*
X86399494Y-70959463D01*
X86289180Y-70900498D01*
X86169482Y-70864188D01*
X86045000Y-70851928D01*
X85668250Y-70855000D01*
X85509500Y-71013750D01*
X85255500Y-71013750D01*
X85096750Y-70855000D01*
X84720000Y-70851928D01*
X84595518Y-70864188D01*
X84475820Y-70900498D01*
X84398389Y-70941887D01*
X83658803Y-70202302D01*
X83635001Y-70173299D01*
X83519276Y-70078326D01*
X83387247Y-70007754D01*
X83243986Y-69964297D01*
X83132333Y-69953300D01*
X83132322Y-69953300D01*
X83095000Y-69949624D01*
X83057678Y-69953300D01*
X81418225Y-69953300D01*
X81380900Y-69949624D01*
X81343575Y-69953300D01*
X81343567Y-69953300D01*
X81231914Y-69964297D01*
X81088653Y-70007754D01*
X80956624Y-70078326D01*
X80840899Y-70173299D01*
X80817100Y-70202298D01*
X80252902Y-70766497D01*
X80223899Y-70790299D01*
X80173322Y-70851928D01*
X80128926Y-70906024D01*
X80070144Y-71015997D01*
X80058354Y-71038054D01*
X80014897Y-71181315D01*
X80003900Y-71292968D01*
X80003900Y-71292978D01*
X80000224Y-71330300D01*
X78660000Y-71330300D01*
X78660000Y-68125000D01*
X80661928Y-68125000D01*
X80674188Y-68249482D01*
X80710498Y-68369180D01*
X80769463Y-68479494D01*
X80848815Y-68576185D01*
X80945506Y-68655537D01*
X81055820Y-68714502D01*
X81175518Y-68750812D01*
X81300000Y-68763072D01*
X81914250Y-68760000D01*
X82073000Y-68601250D01*
X82073000Y-67589500D01*
X82327000Y-67589500D01*
X82327000Y-68601250D01*
X82485750Y-68760000D01*
X83100000Y-68763072D01*
X83224482Y-68750812D01*
X83344180Y-68714502D01*
X83454494Y-68655537D01*
X83551185Y-68576185D01*
X83630537Y-68479494D01*
X83689502Y-68369180D01*
X83725812Y-68249482D01*
X83738072Y-68125000D01*
X83738059Y-68123300D01*
X84054328Y-68123300D01*
X84066588Y-68247782D01*
X84102898Y-68367480D01*
X84161863Y-68477794D01*
X84241215Y-68574485D01*
X84337906Y-68653837D01*
X84448220Y-68712802D01*
X84567918Y-68749112D01*
X84692400Y-68761372D01*
X85306650Y-68758300D01*
X85465400Y-68599550D01*
X85465400Y-67587800D01*
X85719400Y-67587800D01*
X85719400Y-68599550D01*
X85878150Y-68758300D01*
X86492400Y-68761372D01*
X86616882Y-68749112D01*
X86736580Y-68712802D01*
X86846894Y-68653837D01*
X86943585Y-68574485D01*
X87022937Y-68477794D01*
X87081902Y-68367480D01*
X87118212Y-68247782D01*
X87130472Y-68123300D01*
X87127400Y-67746550D01*
X86968650Y-67587800D01*
X85719400Y-67587800D01*
X85465400Y-67587800D01*
X84216150Y-67587800D01*
X84057400Y-67746550D01*
X84054328Y-68123300D01*
X83738059Y-68123300D01*
X83735000Y-67748250D01*
X83576250Y-67589500D01*
X82327000Y-67589500D01*
X82073000Y-67589500D01*
X80823750Y-67589500D01*
X80665000Y-67748250D01*
X80661928Y-68125000D01*
X78660000Y-68125000D01*
X78660000Y-66800000D01*
X80661928Y-66800000D01*
X80665000Y-67176750D01*
X80823750Y-67335500D01*
X82073000Y-67335500D01*
X82073000Y-66323750D01*
X82327000Y-66323750D01*
X82327000Y-67335500D01*
X83576250Y-67335500D01*
X83735000Y-67176750D01*
X83738072Y-66800000D01*
X83737905Y-66798300D01*
X84054328Y-66798300D01*
X84057400Y-67175050D01*
X84216150Y-67333800D01*
X85465400Y-67333800D01*
X85465400Y-66322050D01*
X85719400Y-66322050D01*
X85719400Y-67333800D01*
X86968650Y-67333800D01*
X87127400Y-67175050D01*
X87130472Y-66798300D01*
X87118212Y-66673818D01*
X87081902Y-66554120D01*
X87022937Y-66443806D01*
X86943585Y-66347115D01*
X86846894Y-66267763D01*
X86736580Y-66208798D01*
X86616882Y-66172488D01*
X86492400Y-66160228D01*
X85878150Y-66163300D01*
X85719400Y-66322050D01*
X85465400Y-66322050D01*
X85306650Y-66163300D01*
X84692400Y-66160228D01*
X84567918Y-66172488D01*
X84448220Y-66208798D01*
X84337906Y-66267763D01*
X84241215Y-66347115D01*
X84161863Y-66443806D01*
X84102898Y-66554120D01*
X84066588Y-66673818D01*
X84054328Y-66798300D01*
X83737905Y-66798300D01*
X83725812Y-66675518D01*
X83689502Y-66555820D01*
X83630537Y-66445506D01*
X83551185Y-66348815D01*
X83454494Y-66269463D01*
X83344180Y-66210498D01*
X83224482Y-66174188D01*
X83100000Y-66161928D01*
X82485750Y-66165000D01*
X82327000Y-66323750D01*
X82073000Y-66323750D01*
X81914250Y-66165000D01*
X81300000Y-66161928D01*
X81175518Y-66174188D01*
X81055820Y-66210498D01*
X80945506Y-66269463D01*
X80848815Y-66348815D01*
X80769463Y-66445506D01*
X80710498Y-66555820D01*
X80674188Y-66675518D01*
X80661928Y-66800000D01*
X78660000Y-66800000D01*
X78660000Y-49149000D01*
X80518000Y-49149000D01*
X80542776Y-49146560D01*
X80566601Y-49139333D01*
X80588557Y-49127597D01*
X80607803Y-49111803D01*
X81877803Y-47841803D01*
X81893597Y-47822557D01*
X81905333Y-47800601D01*
X81912560Y-47776776D01*
X81915000Y-47752000D01*
X81915000Y-38875000D01*
X82911928Y-38875000D01*
X82924188Y-38999482D01*
X82960498Y-39119180D01*
X83019463Y-39229494D01*
X83098815Y-39326185D01*
X83195506Y-39405537D01*
X83305820Y-39464502D01*
X83425518Y-39500812D01*
X83550000Y-39513072D01*
X84164250Y-39510000D01*
X84323000Y-39351250D01*
X84323000Y-38339500D01*
X83073750Y-38339500D01*
X82915000Y-38498250D01*
X82911928Y-38875000D01*
X81915000Y-38875000D01*
X81915000Y-37550000D01*
X82911928Y-37550000D01*
X82915000Y-37926750D01*
X83073750Y-38085500D01*
X84323000Y-38085500D01*
X84323000Y-37073750D01*
X84164250Y-36915000D01*
X83550000Y-36911928D01*
X83425518Y-36924188D01*
X83305820Y-36960498D01*
X83195506Y-37019463D01*
X83098815Y-37098815D01*
X83019463Y-37195506D01*
X82960498Y-37305820D01*
X82924188Y-37425518D01*
X82911928Y-37550000D01*
X81915000Y-37550000D01*
X81915000Y-32110000D01*
X92316629Y-32110000D01*
X92313767Y-32110624D01*
G37*
%TD.AperFunction*%
D25*
X98677000Y-77764250D02*
X98835750Y-77923000D01*
X99935000Y-77923000D01*
X99935000Y-77903000D01*
X100189000Y-77903000D01*
X100189000Y-77923000D01*
X100209000Y-77923000D01*
X100209000Y-78177000D01*
X100189000Y-78177000D01*
X100189000Y-79526250D01*
X100347750Y-79685000D01*
X100526701Y-79686184D01*
X100526700Y-81093498D01*
X99832398Y-81787801D01*
X99803400Y-81811599D01*
X99779602Y-81840597D01*
X99779601Y-81840598D01*
X99708426Y-81927324D01*
X99637854Y-82059354D01*
X99621325Y-82113846D01*
X99598680Y-82188500D01*
X99594398Y-82202615D01*
X99581784Y-82330682D01*
X99561502Y-82263820D01*
X99502537Y-82153506D01*
X99423185Y-82056815D01*
X99326494Y-81977463D01*
X99216180Y-81918498D01*
X99096482Y-81882188D01*
X98972000Y-81869928D01*
X97872000Y-81869928D01*
X97747518Y-81882188D01*
X97627820Y-81918498D01*
X97517506Y-81977463D01*
X97420815Y-82056815D01*
X97341463Y-82153506D01*
X97282498Y-82263820D01*
X97246188Y-82383518D01*
X97233928Y-82508000D01*
X97233928Y-82735600D01*
X97173203Y-82735600D01*
X96450675Y-82013072D01*
X96662002Y-82013072D01*
X96835256Y-81996008D01*
X97001852Y-81945472D01*
X97155387Y-81863405D01*
X97289962Y-81752962D01*
X97400405Y-81618387D01*
X97482472Y-81464852D01*
X97533008Y-81298256D01*
X97550072Y-81125002D01*
X97550072Y-80299998D01*
X97533008Y-80126744D01*
X97482472Y-79960148D01*
X97400405Y-79806613D01*
X97289962Y-79672038D01*
X97155387Y-79561595D01*
X97001852Y-79479528D01*
X96835256Y-79428992D01*
X96662002Y-79411928D01*
X95786229Y-79411928D01*
X95537000Y-79162699D01*
X95537000Y-79050000D01*
X98673928Y-79050000D01*
X98686188Y-79174482D01*
X98722498Y-79294180D01*
X98781463Y-79404494D01*
X98860815Y-79501185D01*
X98957506Y-79580537D01*
X99067820Y-79639502D01*
X99187518Y-79675812D01*
X99312000Y-79688072D01*
X99776250Y-79685000D01*
X99935000Y-79526250D01*
X99935000Y-78177000D01*
X98835750Y-78177000D01*
X98677000Y-78335750D01*
X98673928Y-79050000D01*
X95537000Y-79050000D01*
X95537000Y-78885946D01*
X95726250Y-78885000D01*
X95885000Y-78726250D01*
X95885000Y-77714500D01*
X96139000Y-77714500D01*
X96139000Y-78726250D01*
X96297750Y-78885000D01*
X96912000Y-78888072D01*
X97036482Y-78875812D01*
X97156180Y-78839502D01*
X97266494Y-78780537D01*
X97363185Y-78701185D01*
X97442537Y-78604494D01*
X97501502Y-78494180D01*
X97537812Y-78374482D01*
X97550072Y-78250000D01*
X97547000Y-77873250D01*
X97388250Y-77714500D01*
X96139000Y-77714500D01*
X95885000Y-77714500D01*
X95865000Y-77714500D01*
X95865000Y-77460500D01*
X95885000Y-77460500D01*
X95885000Y-77440500D01*
X96139000Y-77440500D01*
X96139000Y-77460500D01*
X97388250Y-77460500D01*
X97534050Y-77314700D01*
X98675066Y-77314700D01*
X98677000Y-77764250D01*
%TA.AperFunction,Conductor*%
D26*
G36*
X98677000Y-77764250D02*
G01*
X98835750Y-77923000D01*
X99935000Y-77923000D01*
X99935000Y-77903000D01*
X100189000Y-77903000D01*
X100189000Y-77923000D01*
X100209000Y-77923000D01*
X100209000Y-78177000D01*
X100189000Y-78177000D01*
X100189000Y-79526250D01*
X100347750Y-79685000D01*
X100526701Y-79686184D01*
X100526700Y-81093498D01*
X99832398Y-81787801D01*
X99803400Y-81811599D01*
X99779602Y-81840597D01*
X99779601Y-81840598D01*
X99708426Y-81927324D01*
X99637854Y-82059354D01*
X99621325Y-82113846D01*
X99598680Y-82188500D01*
X99594398Y-82202615D01*
X99581784Y-82330682D01*
X99561502Y-82263820D01*
X99502537Y-82153506D01*
X99423185Y-82056815D01*
X99326494Y-81977463D01*
X99216180Y-81918498D01*
X99096482Y-81882188D01*
X98972000Y-81869928D01*
X97872000Y-81869928D01*
X97747518Y-81882188D01*
X97627820Y-81918498D01*
X97517506Y-81977463D01*
X97420815Y-82056815D01*
X97341463Y-82153506D01*
X97282498Y-82263820D01*
X97246188Y-82383518D01*
X97233928Y-82508000D01*
X97233928Y-82735600D01*
X97173203Y-82735600D01*
X96450675Y-82013072D01*
X96662002Y-82013072D01*
X96835256Y-81996008D01*
X97001852Y-81945472D01*
X97155387Y-81863405D01*
X97289962Y-81752962D01*
X97400405Y-81618387D01*
X97482472Y-81464852D01*
X97533008Y-81298256D01*
X97550072Y-81125002D01*
X97550072Y-80299998D01*
X97533008Y-80126744D01*
X97482472Y-79960148D01*
X97400405Y-79806613D01*
X97289962Y-79672038D01*
X97155387Y-79561595D01*
X97001852Y-79479528D01*
X96835256Y-79428992D01*
X96662002Y-79411928D01*
X95786229Y-79411928D01*
X95537000Y-79162699D01*
X95537000Y-79050000D01*
X98673928Y-79050000D01*
X98686188Y-79174482D01*
X98722498Y-79294180D01*
X98781463Y-79404494D01*
X98860815Y-79501185D01*
X98957506Y-79580537D01*
X99067820Y-79639502D01*
X99187518Y-79675812D01*
X99312000Y-79688072D01*
X99776250Y-79685000D01*
X99935000Y-79526250D01*
X99935000Y-78177000D01*
X98835750Y-78177000D01*
X98677000Y-78335750D01*
X98673928Y-79050000D01*
X95537000Y-79050000D01*
X95537000Y-78885946D01*
X95726250Y-78885000D01*
X95885000Y-78726250D01*
X95885000Y-77714500D01*
X96139000Y-77714500D01*
X96139000Y-78726250D01*
X96297750Y-78885000D01*
X96912000Y-78888072D01*
X97036482Y-78875812D01*
X97156180Y-78839502D01*
X97266494Y-78780537D01*
X97363185Y-78701185D01*
X97442537Y-78604494D01*
X97501502Y-78494180D01*
X97537812Y-78374482D01*
X97550072Y-78250000D01*
X97547000Y-77873250D01*
X97388250Y-77714500D01*
X96139000Y-77714500D01*
X95885000Y-77714500D01*
X95865000Y-77714500D01*
X95865000Y-77460500D01*
X95885000Y-77460500D01*
X95885000Y-77440500D01*
X96139000Y-77440500D01*
X96139000Y-77460500D01*
X97388250Y-77460500D01*
X97534050Y-77314700D01*
X98675066Y-77314700D01*
X98677000Y-77764250D01*
G37*
%TD.AperFunction*%
D25*
X95650000Y-51023000D02*
X96608000Y-51023000D01*
X96608000Y-51003000D01*
X96862000Y-51003000D01*
X96862000Y-51023000D01*
X96882000Y-51023000D01*
X96882000Y-51277000D01*
X96862000Y-51277000D01*
X96862000Y-52867502D01*
X97029001Y-52994408D01*
X97232197Y-52922702D01*
X97264411Y-52902022D01*
X97299454Y-53017547D01*
X97370026Y-53149576D01*
X97464999Y-53265301D01*
X97580724Y-53360274D01*
X97712753Y-53430846D01*
X97856014Y-53474303D01*
X97967667Y-53485300D01*
X98005000Y-53488977D01*
X98042333Y-53485300D01*
X101355499Y-53485300D01*
X103231164Y-55360965D01*
X103137518Y-55370188D01*
X103017820Y-55406498D01*
X102907506Y-55465463D01*
X102810815Y-55544815D01*
X102731463Y-55641506D01*
X102672498Y-55751820D01*
X102636188Y-55871518D01*
X102623928Y-55996000D01*
X102627000Y-56610250D01*
X102785750Y-56769000D01*
X103797500Y-56769000D01*
X103797500Y-56749000D01*
X104051500Y-56749000D01*
X104051500Y-56769000D01*
X104071500Y-56769000D01*
X104071500Y-57023000D01*
X104051500Y-57023000D01*
X104051500Y-58272250D01*
X104210250Y-58431000D01*
X104587000Y-58434072D01*
X104711482Y-58421812D01*
X104831180Y-58385502D01*
X104941494Y-58326537D01*
X104963300Y-58308641D01*
X104963301Y-61345928D01*
X103898000Y-61345928D01*
X103773518Y-61358188D01*
X103653820Y-61394498D01*
X103543506Y-61453463D01*
X103446815Y-61532815D01*
X103367463Y-61629506D01*
X103308498Y-61739820D01*
X103272188Y-61859518D01*
X103259928Y-61984000D01*
X103259928Y-62984000D01*
X103272188Y-63108482D01*
X103308498Y-63228180D01*
X103367463Y-63338494D01*
X103446815Y-63435185D01*
X103543506Y-63514537D01*
X103653820Y-63573502D01*
X103773518Y-63609812D01*
X103898000Y-63622072D01*
X105398000Y-63622072D01*
X105522482Y-63609812D01*
X105642180Y-63573502D01*
X105752494Y-63514537D01*
X105849185Y-63435185D01*
X105928537Y-63338494D01*
X105987502Y-63228180D01*
X105997567Y-63195000D01*
X106015547Y-63189546D01*
X106066600Y-63162257D01*
X106066601Y-64950497D01*
X106008397Y-65008701D01*
X105987502Y-64939820D01*
X105928537Y-64829506D01*
X105849185Y-64732815D01*
X105752494Y-64653463D01*
X105642180Y-64594498D01*
X105522482Y-64558188D01*
X105398000Y-64545928D01*
X104933750Y-64549000D01*
X104775000Y-64707750D01*
X104775000Y-65557000D01*
X104795000Y-65557000D01*
X104795000Y-65749400D01*
X104501000Y-65749400D01*
X104501000Y-65557000D01*
X104521000Y-65557000D01*
X104521000Y-64707750D01*
X104362250Y-64549000D01*
X103898000Y-64545928D01*
X103773518Y-64558188D01*
X103653820Y-64594498D01*
X103543506Y-64653463D01*
X103446815Y-64732815D01*
X103367463Y-64829506D01*
X103308498Y-64939820D01*
X103295144Y-64983842D01*
X101559500Y-63248199D01*
X101559500Y-62521333D01*
X101563177Y-62484000D01*
X101559500Y-62446667D01*
X101559500Y-58362384D01*
X101705387Y-58284405D01*
X101839962Y-58173962D01*
X101950405Y-58039387D01*
X102032472Y-57885852D01*
X102059728Y-57796000D01*
X102623928Y-57796000D01*
X102636188Y-57920482D01*
X102672498Y-58040180D01*
X102731463Y-58150494D01*
X102810815Y-58247185D01*
X102907506Y-58326537D01*
X103017820Y-58385502D01*
X103137518Y-58421812D01*
X103262000Y-58434072D01*
X103638750Y-58431000D01*
X103797500Y-58272250D01*
X103797500Y-57023000D01*
X102785750Y-57023000D01*
X102627000Y-57181750D01*
X102623928Y-57796000D01*
X102059728Y-57796000D01*
X102083008Y-57719256D01*
X102100072Y-57546002D01*
X102100072Y-56245998D01*
X102083008Y-56072744D01*
X102032472Y-55906148D01*
X101950405Y-55752613D01*
X101839962Y-55618038D01*
X101705387Y-55507595D01*
X101551852Y-55425528D01*
X101385256Y-55374992D01*
X101212002Y-55357928D01*
X100386998Y-55357928D01*
X100213744Y-55374992D01*
X100047148Y-55425528D01*
X99893613Y-55507595D01*
X99759038Y-55618038D01*
X99648595Y-55752613D01*
X99566528Y-55906148D01*
X99515992Y-56072744D01*
X99498928Y-56245998D01*
X99498928Y-57546002D01*
X99515992Y-57719256D01*
X99566528Y-57885852D01*
X99648595Y-58039387D01*
X99759038Y-58173962D01*
X99893613Y-58284405D01*
X100039500Y-58362384D01*
X100039501Y-61345928D01*
X98998000Y-61345928D01*
X98873518Y-61358188D01*
X98753820Y-61394498D01*
X98643506Y-61453463D01*
X98546815Y-61532815D01*
X98467463Y-61629506D01*
X98408498Y-61739820D01*
X98372188Y-61859518D01*
X98359928Y-61984000D01*
X98359928Y-62984000D01*
X98372188Y-63108482D01*
X98408498Y-63228180D01*
X98467463Y-63338494D01*
X98546815Y-63435185D01*
X98643506Y-63514537D01*
X98753820Y-63573502D01*
X98873518Y-63609812D01*
X98998000Y-63622072D01*
X100041641Y-63622072D01*
X100050497Y-63711985D01*
X100085234Y-63826498D01*
X100093954Y-63855246D01*
X100164526Y-63987276D01*
X100179069Y-64004996D01*
X100259499Y-64103001D01*
X100288503Y-64126804D01*
X100772293Y-64610594D01*
X100742180Y-64594498D01*
X100622482Y-64558188D01*
X100498000Y-64545928D01*
X98998000Y-64545928D01*
X98873518Y-64558188D01*
X98753820Y-64594498D01*
X98643506Y-64653463D01*
X98546815Y-64732815D01*
X98467463Y-64829506D01*
X98408498Y-64939820D01*
X98372188Y-65059518D01*
X98359928Y-65184000D01*
X98359928Y-66184000D01*
X98372188Y-66308482D01*
X98396916Y-66390000D01*
X96333163Y-66390000D01*
X96361803Y-66295586D01*
X96372800Y-66183933D01*
X96372800Y-66183924D01*
X96376476Y-66146601D01*
X96372800Y-66109278D01*
X96372800Y-55168523D01*
X96376476Y-55131200D01*
X96372800Y-55093877D01*
X96372800Y-55093867D01*
X96361803Y-54982214D01*
X96318346Y-54838953D01*
X96311290Y-54825753D01*
X96247774Y-54706923D01*
X96176599Y-54620197D01*
X96152801Y-54591199D01*
X96123804Y-54567402D01*
X95178404Y-53622002D01*
X95154601Y-53592999D01*
X95038876Y-53498026D01*
X94906847Y-53427454D01*
X94763586Y-53383997D01*
X94651933Y-53373000D01*
X94651922Y-53373000D01*
X94614600Y-53369324D01*
X94577278Y-53373000D01*
X93304823Y-53373000D01*
X93267500Y-53369324D01*
X93230177Y-53373000D01*
X93230167Y-53373000D01*
X93118514Y-53383997D01*
X92975253Y-53427454D01*
X92843223Y-53498026D01*
X92759583Y-53566668D01*
X92727499Y-53592999D01*
X92703700Y-53621998D01*
X92141009Y-54184690D01*
X92124177Y-54198503D01*
X92058962Y-54119038D01*
X91924386Y-54008595D01*
X91770850Y-53926528D01*
X91728500Y-53913681D01*
X91728500Y-51938600D01*
X93827478Y-51938600D01*
X93864800Y-51942276D01*
X93902122Y-51938600D01*
X93902133Y-51938600D01*
X94013786Y-51927603D01*
X94157047Y-51884146D01*
X94289076Y-51813574D01*
X94404801Y-51718601D01*
X94428604Y-51689597D01*
X94841201Y-51277000D01*
X95650000Y-51277000D01*
X95650000Y-52077000D01*
X95695624Y-52286233D01*
X95781191Y-52482545D01*
X95903413Y-52658391D01*
X96057592Y-52807014D01*
X96237803Y-52922702D01*
X96440999Y-52994408D01*
X96608000Y-52867502D01*
X96608000Y-51277000D01*
X95650000Y-51277000D01*
X94841201Y-51277000D01*
X95536304Y-50581898D01*
X95565301Y-50558101D01*
X95650000Y-50454895D01*
X95650000Y-51023000D01*
%TA.AperFunction,Conductor*%
D26*
G36*
X95650000Y-51023000D02*
G01*
X96608000Y-51023000D01*
X96608000Y-51003000D01*
X96862000Y-51003000D01*
X96862000Y-51023000D01*
X96882000Y-51023000D01*
X96882000Y-51277000D01*
X96862000Y-51277000D01*
X96862000Y-52867502D01*
X97029001Y-52994408D01*
X97232197Y-52922702D01*
X97264411Y-52902022D01*
X97299454Y-53017547D01*
X97370026Y-53149576D01*
X97464999Y-53265301D01*
X97580724Y-53360274D01*
X97712753Y-53430846D01*
X97856014Y-53474303D01*
X97967667Y-53485300D01*
X98005000Y-53488977D01*
X98042333Y-53485300D01*
X101355499Y-53485300D01*
X103231164Y-55360965D01*
X103137518Y-55370188D01*
X103017820Y-55406498D01*
X102907506Y-55465463D01*
X102810815Y-55544815D01*
X102731463Y-55641506D01*
X102672498Y-55751820D01*
X102636188Y-55871518D01*
X102623928Y-55996000D01*
X102627000Y-56610250D01*
X102785750Y-56769000D01*
X103797500Y-56769000D01*
X103797500Y-56749000D01*
X104051500Y-56749000D01*
X104051500Y-56769000D01*
X104071500Y-56769000D01*
X104071500Y-57023000D01*
X104051500Y-57023000D01*
X104051500Y-58272250D01*
X104210250Y-58431000D01*
X104587000Y-58434072D01*
X104711482Y-58421812D01*
X104831180Y-58385502D01*
X104941494Y-58326537D01*
X104963300Y-58308641D01*
X104963301Y-61345928D01*
X103898000Y-61345928D01*
X103773518Y-61358188D01*
X103653820Y-61394498D01*
X103543506Y-61453463D01*
X103446815Y-61532815D01*
X103367463Y-61629506D01*
X103308498Y-61739820D01*
X103272188Y-61859518D01*
X103259928Y-61984000D01*
X103259928Y-62984000D01*
X103272188Y-63108482D01*
X103308498Y-63228180D01*
X103367463Y-63338494D01*
X103446815Y-63435185D01*
X103543506Y-63514537D01*
X103653820Y-63573502D01*
X103773518Y-63609812D01*
X103898000Y-63622072D01*
X105398000Y-63622072D01*
X105522482Y-63609812D01*
X105642180Y-63573502D01*
X105752494Y-63514537D01*
X105849185Y-63435185D01*
X105928537Y-63338494D01*
X105987502Y-63228180D01*
X105997567Y-63195000D01*
X106015547Y-63189546D01*
X106066600Y-63162257D01*
X106066601Y-64950497D01*
X106008397Y-65008701D01*
X105987502Y-64939820D01*
X105928537Y-64829506D01*
X105849185Y-64732815D01*
X105752494Y-64653463D01*
X105642180Y-64594498D01*
X105522482Y-64558188D01*
X105398000Y-64545928D01*
X104933750Y-64549000D01*
X104775000Y-64707750D01*
X104775000Y-65557000D01*
X104795000Y-65557000D01*
X104795000Y-65749400D01*
X104501000Y-65749400D01*
X104501000Y-65557000D01*
X104521000Y-65557000D01*
X104521000Y-64707750D01*
X104362250Y-64549000D01*
X103898000Y-64545928D01*
X103773518Y-64558188D01*
X103653820Y-64594498D01*
X103543506Y-64653463D01*
X103446815Y-64732815D01*
X103367463Y-64829506D01*
X103308498Y-64939820D01*
X103295144Y-64983842D01*
X101559500Y-63248199D01*
X101559500Y-62521333D01*
X101563177Y-62484000D01*
X101559500Y-62446667D01*
X101559500Y-58362384D01*
X101705387Y-58284405D01*
X101839962Y-58173962D01*
X101950405Y-58039387D01*
X102032472Y-57885852D01*
X102059728Y-57796000D01*
X102623928Y-57796000D01*
X102636188Y-57920482D01*
X102672498Y-58040180D01*
X102731463Y-58150494D01*
X102810815Y-58247185D01*
X102907506Y-58326537D01*
X103017820Y-58385502D01*
X103137518Y-58421812D01*
X103262000Y-58434072D01*
X103638750Y-58431000D01*
X103797500Y-58272250D01*
X103797500Y-57023000D01*
X102785750Y-57023000D01*
X102627000Y-57181750D01*
X102623928Y-57796000D01*
X102059728Y-57796000D01*
X102083008Y-57719256D01*
X102100072Y-57546002D01*
X102100072Y-56245998D01*
X102083008Y-56072744D01*
X102032472Y-55906148D01*
X101950405Y-55752613D01*
X101839962Y-55618038D01*
X101705387Y-55507595D01*
X101551852Y-55425528D01*
X101385256Y-55374992D01*
X101212002Y-55357928D01*
X100386998Y-55357928D01*
X100213744Y-55374992D01*
X100047148Y-55425528D01*
X99893613Y-55507595D01*
X99759038Y-55618038D01*
X99648595Y-55752613D01*
X99566528Y-55906148D01*
X99515992Y-56072744D01*
X99498928Y-56245998D01*
X99498928Y-57546002D01*
X99515992Y-57719256D01*
X99566528Y-57885852D01*
X99648595Y-58039387D01*
X99759038Y-58173962D01*
X99893613Y-58284405D01*
X100039500Y-58362384D01*
X100039501Y-61345928D01*
X98998000Y-61345928D01*
X98873518Y-61358188D01*
X98753820Y-61394498D01*
X98643506Y-61453463D01*
X98546815Y-61532815D01*
X98467463Y-61629506D01*
X98408498Y-61739820D01*
X98372188Y-61859518D01*
X98359928Y-61984000D01*
X98359928Y-62984000D01*
X98372188Y-63108482D01*
X98408498Y-63228180D01*
X98467463Y-63338494D01*
X98546815Y-63435185D01*
X98643506Y-63514537D01*
X98753820Y-63573502D01*
X98873518Y-63609812D01*
X98998000Y-63622072D01*
X100041641Y-63622072D01*
X100050497Y-63711985D01*
X100085234Y-63826498D01*
X100093954Y-63855246D01*
X100164526Y-63987276D01*
X100179069Y-64004996D01*
X100259499Y-64103001D01*
X100288503Y-64126804D01*
X100772293Y-64610594D01*
X100742180Y-64594498D01*
X100622482Y-64558188D01*
X100498000Y-64545928D01*
X98998000Y-64545928D01*
X98873518Y-64558188D01*
X98753820Y-64594498D01*
X98643506Y-64653463D01*
X98546815Y-64732815D01*
X98467463Y-64829506D01*
X98408498Y-64939820D01*
X98372188Y-65059518D01*
X98359928Y-65184000D01*
X98359928Y-66184000D01*
X98372188Y-66308482D01*
X98396916Y-66390000D01*
X96333163Y-66390000D01*
X96361803Y-66295586D01*
X96372800Y-66183933D01*
X96372800Y-66183924D01*
X96376476Y-66146601D01*
X96372800Y-66109278D01*
X96372800Y-55168523D01*
X96376476Y-55131200D01*
X96372800Y-55093877D01*
X96372800Y-55093867D01*
X96361803Y-54982214D01*
X96318346Y-54838953D01*
X96311290Y-54825753D01*
X96247774Y-54706923D01*
X96176599Y-54620197D01*
X96152801Y-54591199D01*
X96123804Y-54567402D01*
X95178404Y-53622002D01*
X95154601Y-53592999D01*
X95038876Y-53498026D01*
X94906847Y-53427454D01*
X94763586Y-53383997D01*
X94651933Y-53373000D01*
X94651922Y-53373000D01*
X94614600Y-53369324D01*
X94577278Y-53373000D01*
X93304823Y-53373000D01*
X93267500Y-53369324D01*
X93230177Y-53373000D01*
X93230167Y-53373000D01*
X93118514Y-53383997D01*
X92975253Y-53427454D01*
X92843223Y-53498026D01*
X92759583Y-53566668D01*
X92727499Y-53592999D01*
X92703700Y-53621998D01*
X92141009Y-54184690D01*
X92124177Y-54198503D01*
X92058962Y-54119038D01*
X91924386Y-54008595D01*
X91770850Y-53926528D01*
X91728500Y-53913681D01*
X91728500Y-51938600D01*
X93827478Y-51938600D01*
X93864800Y-51942276D01*
X93902122Y-51938600D01*
X93902133Y-51938600D01*
X94013786Y-51927603D01*
X94157047Y-51884146D01*
X94289076Y-51813574D01*
X94404801Y-51718601D01*
X94428604Y-51689597D01*
X94841201Y-51277000D01*
X95650000Y-51277000D01*
X95650000Y-52077000D01*
X95695624Y-52286233D01*
X95781191Y-52482545D01*
X95903413Y-52658391D01*
X96057592Y-52807014D01*
X96237803Y-52922702D01*
X96440999Y-52994408D01*
X96608000Y-52867502D01*
X96608000Y-51277000D01*
X95650000Y-51277000D01*
X94841201Y-51277000D01*
X95536304Y-50581898D01*
X95565301Y-50558101D01*
X95650000Y-50454895D01*
X95650000Y-51023000D01*
G37*
%TD.AperFunction*%
D25*
X92827000Y-65773000D02*
X92847000Y-65773000D01*
X92847000Y-66027000D01*
X92827000Y-66027000D01*
X92827000Y-66047000D01*
X92573000Y-66047000D01*
X92573000Y-66027000D01*
X92553000Y-66027000D01*
X92553000Y-65773000D01*
X92573000Y-65773000D01*
X92573000Y-65753000D01*
X92827000Y-65753000D01*
X92827000Y-65773000D01*
%TA.AperFunction,Conductor*%
D26*
G36*
X92827000Y-65773000D02*
G01*
X92847000Y-65773000D01*
X92847000Y-66027000D01*
X92827000Y-66027000D01*
X92827000Y-66047000D01*
X92573000Y-66047000D01*
X92573000Y-66027000D01*
X92553000Y-66027000D01*
X92553000Y-65773000D01*
X92573000Y-65773000D01*
X92573000Y-65753000D01*
X92827000Y-65753000D01*
X92827000Y-65773000D01*
G37*
%TD.AperFunction*%
%TD*%
M02*
