M48
; DRILL file {KiCad 5.1.10-88a1d61d58~88~ubuntu20.10.1} date Fri Apr 30 01:43:07 2021
; FORMAT={-:-/ absolute / metric / decimal}
; #@! TF.CreationDate,2021-04-30T01:43:07+02:00
; #@! TF.GenerationSoftware,Kicad,Pcbnew,5.1.10-88a1d61d58~88~ubuntu20.10.1
FMAT,2
METRIC
T1C0.400
T2C0.500
T3C0.700
T4C0.890
T5C3.250
%
G90
G05
T1
X80.5Y-57.0
X80.5Y-58.5
X80.5Y-60.0
X80.5Y-61.5
X80.5Y-63.0
X80.5Y-64.5
X80.5Y-66.0
X80.5Y-67.5
X80.5Y-69.0
X80.5Y-70.5
X80.5Y-72.0
X80.5Y-73.5
X80.5Y-75.0
X80.5Y-76.5
X80.5Y-78.0
X80.5Y-79.5
X80.5Y-81.0
X80.5Y-82.5
X80.5Y-84.0
X80.5Y-85.5
X80.5Y-87.0
X80.5Y-88.5
X80.5Y-90.0
X86.906Y-66.155
X86.913Y-60.839
X87.8Y-66.225
X88.449Y-68.906
X88.562Y-65.387
X88.583Y-58.998
X88.737Y-67.756
X89.75Y-60.628
X90.525Y-59.575
X92.394Y-59.578
X92.476Y-65.667
X94.05Y-61.234
X95.5Y-61.281
X95.5Y-67.5
X95.5Y-68.5
X95.5Y-69.5
X95.5Y-70.5
X95.5Y-71.5
X98.0Y-66.0
X98.0Y-67.0
X98.0Y-68.0
X98.0Y-69.0
X99.693Y-82.622
X102.28Y-84.855
X103.819Y-52.76
X105.5Y-84.0
X110.425Y-47.724
X110.5Y-60.5
X111.5Y-61.5
X112.5Y-62.5
X113.467Y-63.533
X115.473Y-49.147
X117.0Y-40.0
X117.465Y-63.533
X118.5Y-40.0
X120.0Y-40.0
X121.5Y-40.0
X122.5Y-62.018
X123.0Y-40.0
X124.5Y-40.0
X126.0Y-40.0
T3
X100.505Y-85.997
X105.355Y-85.997
T4
X116.5Y-74.5
X117.77Y-77.04
X119.04Y-74.5
X120.31Y-77.04
X121.58Y-74.5
X122.85Y-77.04
T5
X114.59Y-83.39
X124.75Y-83.39
T2
G00X99.33Y-88.392
M15
G01X99.33Y-89.182
M16
G05
G00X106.53Y-88.392
M15
G01X106.53Y-89.182
M16
G05
T0
M30
