M48
; DRILL file {KiCad (5.1.9)-1} date 04/30/21 15:53:37
; FORMAT={-:-/ absolute / inch / decimal}
; #@! TF.CreationDate,2021-04-30T15:53:37+02:00
; #@! TF.GenerationSoftware,Kicad,Pcbnew,(5.1.9)-1
FMAT,2
INCH
T1C0.0157
T2C0.0197
T3C0.0276
T4C0.0350
T5C0.1280
%
G90
G05
T1
X3.1594Y-3.2776
X3.1594Y-3.3169
X3.1594Y-3.3563
X3.1594Y-3.3957
X3.1594Y-3.435
X3.1594Y-3.4744
X3.1594Y-3.5138
X3.1594Y-3.5531
X3.1988Y-3.5531
X3.2382Y-3.5531
X3.2776Y-2.6969
X3.2776Y-3.5531
X3.3169Y-3.5531
X3.3425Y-2.5745
X3.3563Y-2.7756
X3.3563Y-2.8051
X3.3563Y-2.8346
X3.3563Y-2.8642
X3.3563Y-3.5531
X3.376Y-2.1752
X3.376Y-2.2146
X3.376Y-2.2539
X3.376Y-2.2933
X3.376Y-2.3327
X3.376Y-2.372
X3.3823Y-2.6224
X3.3957Y-3.5531
X3.424Y-2.4444
X3.435Y-3.5531
X3.4688Y-2.5738
X3.4744Y-3.5531
X3.4846Y-2.6266
X3.5138Y-3.5531
X3.5156Y-2.3872
X3.5531Y-3.5531
X3.555Y-2.3836
X3.5796Y-2.7221
X3.5925Y-3.5531
X3.6319Y-3.5531
X3.6713Y-2.8445
X3.6713Y-2.8839
X3.6713Y-2.9232
X3.6713Y-2.9626
X3.6713Y-3.002
X3.6713Y-3.0413
X3.6713Y-3.0807
X3.6713Y-3.1201
X3.6713Y-3.1201
X3.6713Y-3.1594
X3.6713Y-3.5531
X3.6791Y-2.295
X3.7106Y-3.5531
X3.9844Y-3.0876
X4.065Y-3.1004
X4.1043Y-3.1004
X4.1437Y-3.1004
X4.1831Y-3.1004
X4.3404Y-1.8114
X4.5903Y-2.6301
X4.7791Y-2.5163
T3
X3.9569Y-3.3857
X4.1478Y-3.3857
T4
X4.5866Y-2.9331
X4.6366Y-3.0331
X4.6866Y-2.9331
X4.7366Y-3.0331
X4.7866Y-2.9331
X4.8366Y-3.0331
T5
X4.5114Y-3.2831
X4.9114Y-3.2831
T2
G00X3.9106Y-3.48
M15
G01X3.9106Y-3.5111
M16
G05
G00X4.1941Y-3.48
M15
G01X4.1941Y-3.5111
M16
G05
T0
M30
