%TF.GenerationSoftware,KiCad,Pcbnew,5.1.10-88a1d61d58~88~ubuntu20.10.1*%
%TF.CreationDate,2021-04-30T01:43:34+02:00*%
%TF.ProjectId,AidonBoard32,4169646f-6e42-46f6-9172-6433322e6b69,1*%
%TF.SameCoordinates,Original*%
%TF.FileFunction,Legend,Top*%
%TF.FilePolarity,Positive*%
%FSLAX46Y46*%
G04 Gerber Fmt 4.6, Leading zero omitted, Abs format (unit mm)*
G04 Created by KiCad (PCBNEW 5.1.10-88a1d61d58~88~ubuntu20.10.1) date 2021-04-30 01:43:34*
%MOMM*%
%LPD*%
G01*
G04 APERTURE LIST*
%ADD10C,0.300000*%
%ADD11C,0.120000*%
%ADD12C,0.010000*%
%ADD13C,0.400000*%
%ADD14C,0.127000*%
%ADD15C,0.150000*%
%ADD16C,0.500000*%
%ADD17C,0.250000*%
%ADD18C,0.015000*%
G04 APERTURE END LIST*
D10*
X81048557Y-55065108D02*
X81048557Y-54350822D01*
X81477128Y-55207965D02*
X79977128Y-54707965D01*
X81477128Y-54207965D01*
X81477128Y-53707965D02*
X80477128Y-53707965D01*
X79977128Y-53707965D02*
X80048557Y-53779394D01*
X80119985Y-53707965D01*
X80048557Y-53636537D01*
X79977128Y-53707965D01*
X80119985Y-53707965D01*
X81477128Y-52350822D02*
X79977128Y-52350822D01*
X81405699Y-52350822D02*
X81477128Y-52493679D01*
X81477128Y-52779394D01*
X81405699Y-52922251D01*
X81334271Y-52993679D01*
X81191414Y-53065108D01*
X80762842Y-53065108D01*
X80619985Y-52993679D01*
X80548557Y-52922251D01*
X80477128Y-52779394D01*
X80477128Y-52493679D01*
X80548557Y-52350822D01*
X81477128Y-51422251D02*
X81405699Y-51565108D01*
X81334271Y-51636537D01*
X81191414Y-51707965D01*
X80762842Y-51707965D01*
X80619985Y-51636537D01*
X80548557Y-51565108D01*
X80477128Y-51422251D01*
X80477128Y-51207965D01*
X80548557Y-51065108D01*
X80619985Y-50993679D01*
X80762842Y-50922251D01*
X81191414Y-50922251D01*
X81334271Y-50993679D01*
X81405699Y-51065108D01*
X81477128Y-51207965D01*
X81477128Y-51422251D01*
X80477128Y-50279394D02*
X81477128Y-50279394D01*
X80619985Y-50279394D02*
X80548557Y-50207965D01*
X80477128Y-50065108D01*
X80477128Y-49850822D01*
X80548557Y-49707965D01*
X80691414Y-49636537D01*
X81477128Y-49636537D01*
X80691414Y-48422251D02*
X80762842Y-48207965D01*
X80834271Y-48136537D01*
X80977128Y-48065108D01*
X81191414Y-48065108D01*
X81334271Y-48136537D01*
X81405699Y-48207965D01*
X81477128Y-48350822D01*
X81477128Y-48922251D01*
X79977128Y-48922251D01*
X79977128Y-48422251D01*
X80048557Y-48279394D01*
X80119985Y-48207965D01*
X80262842Y-48136537D01*
X80405699Y-48136537D01*
X80548557Y-48207965D01*
X80619985Y-48279394D01*
X80691414Y-48422251D01*
X80691414Y-48922251D01*
X81477128Y-47207965D02*
X81405699Y-47350822D01*
X81334271Y-47422251D01*
X81191414Y-47493679D01*
X80762842Y-47493679D01*
X80619985Y-47422251D01*
X80548557Y-47350822D01*
X80477128Y-47207965D01*
X80477128Y-46993679D01*
X80548557Y-46850822D01*
X80619985Y-46779394D01*
X80762842Y-46707965D01*
X81191414Y-46707965D01*
X81334271Y-46779394D01*
X81405699Y-46850822D01*
X81477128Y-46993679D01*
X81477128Y-47207965D01*
X81477128Y-45422251D02*
X80691414Y-45422251D01*
X80548557Y-45493679D01*
X80477128Y-45636537D01*
X80477128Y-45922251D01*
X80548557Y-46065108D01*
X81405699Y-45422251D02*
X81477128Y-45565108D01*
X81477128Y-45922251D01*
X81405699Y-46065108D01*
X81262842Y-46136537D01*
X81119985Y-46136537D01*
X80977128Y-46065108D01*
X80905699Y-45922251D01*
X80905699Y-45565108D01*
X80834271Y-45422251D01*
X81477128Y-44707965D02*
X80477128Y-44707965D01*
X80762842Y-44707965D02*
X80619985Y-44636537D01*
X80548557Y-44565108D01*
X80477128Y-44422251D01*
X80477128Y-44279394D01*
X81477128Y-43136537D02*
X79977128Y-43136537D01*
X81405699Y-43136537D02*
X81477128Y-43279394D01*
X81477128Y-43565108D01*
X81405699Y-43707965D01*
X81334271Y-43779394D01*
X81191414Y-43850822D01*
X80762842Y-43850822D01*
X80619985Y-43779394D01*
X80548557Y-43707965D01*
X80477128Y-43565108D01*
X80477128Y-43279394D01*
X80548557Y-43136537D01*
X79977128Y-42565108D02*
X79977128Y-41636537D01*
X80548557Y-42136537D01*
X80548557Y-41922251D01*
X80619985Y-41779394D01*
X80691414Y-41707965D01*
X80834271Y-41636537D01*
X81191414Y-41636537D01*
X81334271Y-41707965D01*
X81405699Y-41779394D01*
X81477128Y-41922251D01*
X81477128Y-42350822D01*
X81405699Y-42493679D01*
X81334271Y-42565108D01*
X80119985Y-41065108D02*
X80048557Y-40993679D01*
X79977128Y-40850822D01*
X79977128Y-40493679D01*
X80048557Y-40350822D01*
X80119985Y-40279394D01*
X80262842Y-40207965D01*
X80405699Y-40207965D01*
X80619985Y-40279394D01*
X81477128Y-41136537D01*
X81477128Y-40207965D01*
D11*
%TO.C,R12*%
X115977500Y-49745276D02*
X115977500Y-50254724D01*
X117022500Y-49745276D02*
X117022500Y-50254724D01*
%TO.C,D6*%
X106650000Y-68000000D02*
X106650000Y-66850000D01*
X99350000Y-68000000D02*
X106650000Y-68000000D01*
X99350000Y-62500000D02*
X106650000Y-62500000D01*
%TO.C,D5*%
X88169600Y-83134800D02*
X88169600Y-85594800D01*
X89639600Y-83134800D02*
X88169600Y-83134800D01*
X89639600Y-85594800D02*
X89639600Y-83134800D01*
D12*
%TO.C,G1*%
G36*
X87790817Y-79611107D02*
G01*
X88088457Y-79664786D01*
X88340236Y-79749932D01*
X88532675Y-79864948D01*
X88533172Y-79865355D01*
X88666265Y-79959871D01*
X88811698Y-80042207D01*
X88871976Y-80069077D01*
X88982674Y-80114243D01*
X89063761Y-80151174D01*
X89082615Y-80161608D01*
X89148673Y-80190003D01*
X89265355Y-80227527D01*
X89406946Y-80266547D01*
X89545217Y-80298909D01*
X89618615Y-80322568D01*
X89625258Y-80356243D01*
X89611705Y-80375516D01*
X89589995Y-80433532D01*
X89606177Y-80453081D01*
X89648873Y-80497269D01*
X89715715Y-80584139D01*
X89760806Y-80648605D01*
X89876541Y-80820092D01*
X89778286Y-80844752D01*
X89705130Y-80850862D01*
X89626643Y-80826899D01*
X89531055Y-80765457D01*
X89406595Y-80659129D01*
X89259595Y-80518372D01*
X89141902Y-80405878D01*
X89057710Y-80338949D01*
X88986795Y-80306390D01*
X88908934Y-80297007D01*
X88860647Y-80297520D01*
X88746151Y-80306376D01*
X88663463Y-80322514D01*
X88648342Y-80328968D01*
X88588013Y-80346467D01*
X88477430Y-80363792D01*
X88382332Y-80373543D01*
X88205659Y-80399950D01*
X88097638Y-80447206D01*
X88050578Y-80519431D01*
X88047077Y-80553231D01*
X88013014Y-80644421D01*
X87908644Y-80709562D01*
X87841271Y-80730280D01*
X87743970Y-80780864D01*
X87656086Y-80866254D01*
X87652794Y-80870781D01*
X87561960Y-80968551D01*
X87458571Y-81042909D01*
X87382207Y-81079756D01*
X87360381Y-81072853D01*
X87378270Y-81014467D01*
X87382531Y-81003242D01*
X87401445Y-80932178D01*
X87369542Y-80907447D01*
X87314813Y-80904923D01*
X87243109Y-80900794D01*
X87240394Y-80877121D01*
X87277962Y-80836539D01*
X87364425Y-80774816D01*
X87469591Y-80726385D01*
X87559411Y-80683241D01*
X87609208Y-80635490D01*
X87610246Y-80632800D01*
X87601541Y-80606740D01*
X87547535Y-80597681D01*
X87440741Y-80606251D01*
X87273673Y-80633077D01*
X87038843Y-80678786D01*
X87023394Y-80681946D01*
X86823694Y-80732612D01*
X86699157Y-80789281D01*
X86646831Y-80855472D01*
X86663763Y-80934700D01*
X86737941Y-81022099D01*
X86800646Y-81087709D01*
X86809677Y-81132253D01*
X86770957Y-81185224D01*
X86770745Y-81185458D01*
X86729607Y-81247505D01*
X86728604Y-81279784D01*
X86762747Y-81267281D01*
X86814479Y-81205981D01*
X86817525Y-81201391D01*
X86888051Y-81123717D01*
X86949888Y-81104298D01*
X86987312Y-81144741D01*
X86992000Y-81183575D01*
X87001627Y-81237794D01*
X87045319Y-81253934D01*
X87128769Y-81244647D01*
X87221243Y-81236189D01*
X87259617Y-81256930D01*
X87265538Y-81293968D01*
X87298863Y-81365315D01*
X87385968Y-81405626D01*
X87507546Y-81411549D01*
X87644291Y-81379732D01*
X87678288Y-81365623D01*
X87759451Y-81338743D01*
X87809629Y-81359455D01*
X87830962Y-81385147D01*
X87920645Y-81448352D01*
X88040725Y-81449100D01*
X88175249Y-81387858D01*
X88194120Y-81374517D01*
X88319975Y-81281468D01*
X88415095Y-81370828D01*
X88502004Y-81427910D01*
X88566528Y-81424846D01*
X88593996Y-81362880D01*
X88594154Y-81355660D01*
X88623763Y-81319035D01*
X88662944Y-81320998D01*
X88723460Y-81309032D01*
X88772664Y-81230015D01*
X88778252Y-81215750D01*
X88829460Y-81128331D01*
X88880860Y-81115170D01*
X88921304Y-81173198D01*
X88937582Y-81259625D01*
X88953365Y-81395432D01*
X88975777Y-81462643D01*
X89011234Y-81470815D01*
X89057199Y-81437781D01*
X89152845Y-81380584D01*
X89236809Y-81397383D01*
X89314847Y-81490014D01*
X89334672Y-81526345D01*
X89412471Y-81678843D01*
X89330438Y-81783132D01*
X89279786Y-81873347D01*
X89296775Y-81932339D01*
X89383539Y-81962076D01*
X89528004Y-81965234D01*
X89642013Y-81965157D01*
X89711012Y-81987799D01*
X89746439Y-82048262D01*
X89759733Y-82161648D01*
X89761947Y-82274111D01*
X89776468Y-82428891D01*
X89823598Y-82580557D01*
X89912410Y-82755768D01*
X89944173Y-82809676D01*
X90013887Y-82898985D01*
X90096487Y-82933506D01*
X90149237Y-82936676D01*
X90256274Y-82912182D01*
X90362638Y-82851000D01*
X90442354Y-82772147D01*
X90469846Y-82701932D01*
X90480232Y-82663799D01*
X90503320Y-82681165D01*
X90527001Y-82735417D01*
X90539169Y-82807942D01*
X90539187Y-82808530D01*
X90556626Y-82899158D01*
X90599222Y-83030964D01*
X90656031Y-83171385D01*
X90738574Y-83365494D01*
X90786759Y-83507567D01*
X90804258Y-83613848D01*
X90794741Y-83700578D01*
X90783492Y-83735288D01*
X90730343Y-83806983D01*
X90658268Y-83836545D01*
X90595156Y-83817053D01*
X90575712Y-83786846D01*
X90541547Y-83772796D01*
X90472703Y-83826780D01*
X90466359Y-83833310D01*
X90407445Y-83914537D01*
X90381405Y-84015766D01*
X90377774Y-84128634D01*
X90390375Y-84283224D01*
X90418638Y-84435280D01*
X90432275Y-84482708D01*
X90464081Y-84603794D01*
X90477581Y-84708791D01*
X90477191Y-84726044D01*
X90498010Y-84810393D01*
X90567276Y-84843011D01*
X90670783Y-84818886D01*
X90698894Y-84804240D01*
X90856193Y-84730529D01*
X90972221Y-84716673D01*
X91055600Y-84762369D01*
X91077714Y-84790913D01*
X91117885Y-84887898D01*
X91094317Y-84950117D01*
X91023549Y-84968923D01*
X90962437Y-84990936D01*
X90858783Y-85049480D01*
X90731897Y-85133313D01*
X90691481Y-85162229D01*
X90564168Y-85248662D01*
X90456663Y-85310040D01*
X90386899Y-85336519D01*
X90375124Y-85335887D01*
X90338066Y-85358234D01*
X90298294Y-85436187D01*
X90263227Y-85547854D01*
X90240283Y-85671345D01*
X90235384Y-85748227D01*
X90259191Y-85809312D01*
X90320736Y-85819979D01*
X90405204Y-85787657D01*
X90497780Y-85719776D01*
X90583648Y-85623763D01*
X90628072Y-85551316D01*
X90716042Y-85426655D01*
X90841121Y-85340347D01*
X91020690Y-85281640D01*
X91085833Y-85268170D01*
X91171257Y-85256454D01*
X91199213Y-85276847D01*
X91188581Y-85344753D01*
X91187098Y-85350795D01*
X91141607Y-85515660D01*
X91079246Y-85715040D01*
X91006728Y-85930103D01*
X90930767Y-86142014D01*
X90858075Y-86331942D01*
X90795365Y-86481053D01*
X90756400Y-86559144D01*
X90624481Y-86720709D01*
X90458792Y-86825529D01*
X90275622Y-86864868D01*
X90196307Y-86859594D01*
X90106921Y-86852459D01*
X90050870Y-86878034D01*
X89999955Y-86953174D01*
X89981384Y-86988058D01*
X89770504Y-87334216D01*
X89531407Y-87623787D01*
X89495854Y-87659344D01*
X89392432Y-87754144D01*
X89317159Y-87801867D01*
X89246441Y-87814003D01*
X89190519Y-87808056D01*
X89044324Y-87745776D01*
X88923943Y-87614167D01*
X88868750Y-87508718D01*
X88817011Y-87434020D01*
X88734169Y-87354372D01*
X88645076Y-87289879D01*
X88574582Y-87260648D01*
X88562828Y-87261195D01*
X88516567Y-87264678D01*
X88405584Y-87270381D01*
X88243257Y-87277696D01*
X88042966Y-87286011D01*
X87871230Y-87292715D01*
X87645493Y-87302294D01*
X87442319Y-87312782D01*
X87276625Y-87323265D01*
X87163332Y-87332827D01*
X87122472Y-87338654D01*
X87037821Y-87335559D01*
X86919620Y-87304098D01*
X86860369Y-87280760D01*
X86687383Y-87227833D01*
X86553023Y-87237223D01*
X86461855Y-87308019D01*
X86434005Y-87365829D01*
X86424800Y-87481423D01*
X86477622Y-87559753D01*
X86577782Y-87587077D01*
X86673092Y-87609247D01*
X86753178Y-87650944D01*
X86861828Y-87692032D01*
X87034905Y-87713091D01*
X87261138Y-87713537D01*
X87529257Y-87692785D01*
X87539077Y-87691689D01*
X87681292Y-87675903D01*
X87866547Y-87655683D01*
X88060158Y-87634808D01*
X88105692Y-87629941D01*
X88272897Y-87610328D01*
X88417901Y-87590112D01*
X88517553Y-87572641D01*
X88539597Y-87567152D01*
X88599897Y-87565443D01*
X88663459Y-87607774D01*
X88747586Y-87705891D01*
X88751525Y-87711013D01*
X88833317Y-87813801D01*
X88901951Y-87893396D01*
X88929041Y-87920584D01*
X88975095Y-87982244D01*
X89025494Y-88080555D01*
X89032191Y-88096430D01*
X89062385Y-88208157D01*
X89046784Y-88305745D01*
X88977915Y-88404204D01*
X88848308Y-88518543D01*
X88805809Y-88551165D01*
X88663244Y-88662250D01*
X88513060Y-88784684D01*
X88442113Y-88844916D01*
X88270535Y-88993846D01*
X87796765Y-88993846D01*
X87585454Y-88991992D01*
X87434212Y-88984863D01*
X87325011Y-88970112D01*
X87239821Y-88945393D01*
X87167267Y-88911888D01*
X86970609Y-88794512D01*
X86777480Y-88654610D01*
X86599617Y-88503418D01*
X86448757Y-88352171D01*
X86336637Y-88212104D01*
X86274993Y-88094451D01*
X86266792Y-88049915D01*
X86231283Y-87946807D01*
X87198300Y-87946807D01*
X87224171Y-88009068D01*
X87298722Y-88072500D01*
X87408158Y-88129173D01*
X87538678Y-88171159D01*
X87676488Y-88190526D01*
X87748559Y-88188837D01*
X87877310Y-88170404D01*
X87982619Y-88144086D01*
X88012329Y-88131837D01*
X88074420Y-88066273D01*
X88078321Y-87987794D01*
X88025190Y-87926698D01*
X88004140Y-87918006D01*
X87914286Y-87907283D01*
X87790989Y-87912505D01*
X87753605Y-87917247D01*
X87633479Y-87925166D01*
X87565500Y-87907947D01*
X87559774Y-87901567D01*
X87504467Y-87873008D01*
X87407734Y-87862229D01*
X87304445Y-87870079D01*
X87234907Y-87893646D01*
X87198300Y-87946807D01*
X86231283Y-87946807D01*
X86228524Y-87938796D01*
X86130008Y-87837625D01*
X86002831Y-87769851D01*
X85955458Y-87732077D01*
X85956461Y-87704308D01*
X85948069Y-87659498D01*
X85919169Y-87640970D01*
X85871024Y-87591669D01*
X85867846Y-87559261D01*
X85839341Y-87506136D01*
X85741486Y-87449769D01*
X85709233Y-87436707D01*
X85565008Y-87365775D01*
X85420472Y-87268062D01*
X85288318Y-87156023D01*
X85181242Y-87042114D01*
X85111937Y-86938790D01*
X85093100Y-86858505D01*
X85100161Y-86839127D01*
X85094973Y-86807104D01*
X85085177Y-86805539D01*
X85065269Y-86769710D01*
X85045442Y-86675038D01*
X85030777Y-86551275D01*
X86930555Y-86551275D01*
X86940409Y-86634476D01*
X87024715Y-86697469D01*
X87070629Y-86715410D01*
X87293487Y-86760718D01*
X87500044Y-86743365D01*
X87565840Y-86721859D01*
X87661378Y-86695565D01*
X87803117Y-86670600D01*
X87949384Y-86653475D01*
X88095324Y-86637820D01*
X88180071Y-86618479D01*
X88220550Y-86589365D01*
X88232902Y-86551539D01*
X88212944Y-86481384D01*
X88126890Y-86416622D01*
X88104296Y-86405000D01*
X87957298Y-86350238D01*
X87818381Y-86345764D01*
X87654865Y-86389479D01*
X87539473Y-86418604D01*
X87442627Y-86405546D01*
X87400865Y-86389526D01*
X87230146Y-86341131D01*
X87095533Y-86359253D01*
X86993349Y-86441467D01*
X86930555Y-86551275D01*
X85030777Y-86551275D01*
X85029528Y-86540743D01*
X85027613Y-86517014D01*
X85001856Y-86316639D01*
X84960336Y-86156174D01*
X84907517Y-86046572D01*
X84847864Y-85998786D01*
X84817393Y-86001294D01*
X84725565Y-86022248D01*
X84697783Y-86024000D01*
X84667707Y-86035074D01*
X84652409Y-86078306D01*
X84649958Y-86168711D01*
X84658421Y-86321305D01*
X84658812Y-86326846D01*
X84672807Y-86486665D01*
X84689797Y-86627193D01*
X84706368Y-86720703D01*
X84708149Y-86727385D01*
X84716551Y-86773482D01*
X84697865Y-86777017D01*
X84642569Y-86733292D01*
X84556822Y-86652720D01*
X84439504Y-86524745D01*
X84370491Y-86404065D01*
X84336429Y-86288258D01*
X84302531Y-86156782D01*
X84264213Y-86045367D01*
X84248329Y-86011230D01*
X84207508Y-85923433D01*
X84158398Y-85799404D01*
X84137335Y-85740692D01*
X84102585Y-85626931D01*
X84099096Y-85569885D01*
X84123544Y-85555077D01*
X84187522Y-85581562D01*
X84198000Y-85594154D01*
X84249394Y-85625036D01*
X84326053Y-85631820D01*
X84392018Y-85615676D01*
X84412923Y-85587159D01*
X84394957Y-85484089D01*
X84384745Y-85460227D01*
X84640543Y-85460227D01*
X84640851Y-85535820D01*
X84651544Y-85562850D01*
X84708269Y-85618759D01*
X84763839Y-85604680D01*
X84794147Y-85532478D01*
X84782838Y-85438409D01*
X84764096Y-85398769D01*
X84731350Y-85379231D01*
X84803692Y-85379231D01*
X84823230Y-85398769D01*
X84842769Y-85379231D01*
X84823230Y-85359692D01*
X84803692Y-85379231D01*
X84731350Y-85379231D01*
X84716711Y-85370497D01*
X84670678Y-85398051D01*
X84640543Y-85460227D01*
X84384745Y-85460227D01*
X84350744Y-85380785D01*
X84294809Y-85304597D01*
X84250604Y-85281539D01*
X84172370Y-85266735D01*
X84065380Y-85231789D01*
X83971081Y-85190893D01*
X83949874Y-85178552D01*
X83951967Y-85139720D01*
X83958169Y-85116173D01*
X85272795Y-85116173D01*
X85287890Y-85183213D01*
X85343224Y-85222554D01*
X85449599Y-85248099D01*
X85590399Y-85262416D01*
X85735382Y-85264633D01*
X85854307Y-85253877D01*
X85904768Y-85238757D01*
X85977567Y-85219446D01*
X86049459Y-85257386D01*
X86067610Y-85273217D01*
X86191726Y-85364523D01*
X86300832Y-85390335D01*
X86414668Y-85355164D01*
X86418184Y-85353309D01*
X86537616Y-85260316D01*
X86583009Y-85146249D01*
X86577879Y-85076385D01*
X86575228Y-84992417D01*
X86612755Y-84973273D01*
X86687360Y-85018699D01*
X86762548Y-85091517D01*
X86833812Y-85162776D01*
X86878953Y-85198429D01*
X86885688Y-85198979D01*
X86951319Y-85076236D01*
X86983376Y-84991212D01*
X86985904Y-84969400D01*
X88245760Y-84969400D01*
X88271555Y-84999053D01*
X88348392Y-84991622D01*
X88371039Y-84987420D01*
X88462160Y-84976469D01*
X88505333Y-85001589D01*
X88528390Y-85079742D01*
X88529209Y-85083815D01*
X88586529Y-85194853D01*
X88694406Y-85261672D01*
X88835504Y-85278763D01*
X88992484Y-85240614D01*
X89005078Y-85235071D01*
X89099335Y-85151865D01*
X89130193Y-85072955D01*
X89149630Y-84997212D01*
X89172649Y-84989494D01*
X89203895Y-85026468D01*
X89275007Y-85075947D01*
X89354156Y-85070609D01*
X89428277Y-85039238D01*
X89453846Y-85007256D01*
X89486703Y-84976482D01*
X89534865Y-84968923D01*
X89599785Y-84950990D01*
X89602956Y-84903599D01*
X89550314Y-84836363D01*
X89447799Y-84758894D01*
X89381183Y-84720125D01*
X89241640Y-84655338D01*
X89100020Y-84615965D01*
X88923686Y-84593895D01*
X88854022Y-84589128D01*
X88690126Y-84581759D01*
X88580247Y-84585914D01*
X88500623Y-84605467D01*
X88427493Y-84644290D01*
X88398769Y-84663328D01*
X88297034Y-84753691D01*
X88253343Y-84856598D01*
X88249585Y-84884514D01*
X88245760Y-84969400D01*
X86985904Y-84969400D01*
X86991997Y-84916843D01*
X86992000Y-84915167D01*
X86959777Y-84786006D01*
X86861392Y-84691859D01*
X86694272Y-84630620D01*
X86628546Y-84618060D01*
X86466812Y-84603615D01*
X86331906Y-84612916D01*
X86240856Y-84643148D01*
X86210461Y-84687191D01*
X86176239Y-84714748D01*
X86086121Y-84756584D01*
X85958932Y-84804064D01*
X85946692Y-84808191D01*
X85804730Y-84857508D01*
X85685684Y-84902177D01*
X85615233Y-84932560D01*
X85615068Y-84932648D01*
X85530232Y-84963758D01*
X85492535Y-84968923D01*
X85385601Y-84991220D01*
X85308860Y-85046239D01*
X85272795Y-85116173D01*
X83958169Y-85116173D01*
X83974330Y-85054827D01*
X83982212Y-85030157D01*
X84019657Y-84939522D01*
X84070761Y-84900049D01*
X84165644Y-84890835D01*
X84183048Y-84890769D01*
X84320916Y-84909729D01*
X84464882Y-84956580D01*
X84491487Y-84969133D01*
X84587547Y-85012372D01*
X84626034Y-85013144D01*
X84624359Y-84993465D01*
X84629785Y-84927367D01*
X84669469Y-84832363D01*
X84682095Y-84810401D01*
X84727927Y-84720301D01*
X84743505Y-84658125D01*
X84741302Y-84650201D01*
X84738065Y-84595486D01*
X84754163Y-84498836D01*
X84760885Y-84471594D01*
X84782051Y-84358907D01*
X84801264Y-84200844D01*
X84814600Y-84030155D01*
X84815265Y-84017543D01*
X84827226Y-83869658D01*
X84844946Y-83753631D01*
X84854212Y-83724390D01*
X90016797Y-83724390D01*
X90022079Y-83779097D01*
X90061037Y-83822082D01*
X90143912Y-83868696D01*
X90185732Y-83862342D01*
X90180950Y-83812958D01*
X90159864Y-83738510D01*
X90157230Y-83715266D01*
X90129217Y-83683205D01*
X90070469Y-83685991D01*
X90018923Y-83721159D01*
X90016797Y-83724390D01*
X84854212Y-83724390D01*
X84865028Y-83690262D01*
X84869520Y-83685390D01*
X84911170Y-83629830D01*
X84932309Y-83552509D01*
X84926110Y-83489241D01*
X84909856Y-83473798D01*
X84889221Y-83435815D01*
X84903453Y-83403540D01*
X84922725Y-83335724D01*
X84935918Y-83218538D01*
X84939679Y-83112840D01*
X84940461Y-82878450D01*
X85060078Y-82878379D01*
X85155947Y-82859184D01*
X85249947Y-82792387D01*
X85314078Y-82724785D01*
X85461099Y-82596370D01*
X85681504Y-82464227D01*
X85800154Y-82405494D01*
X86044490Y-82283792D01*
X86228780Y-82175175D01*
X86367614Y-82069548D01*
X86475583Y-81956814D01*
X86506761Y-81916554D01*
X86577958Y-81809563D01*
X86592516Y-81750257D01*
X86547896Y-81729917D01*
X86454692Y-81737775D01*
X86326834Y-81740822D01*
X86174565Y-81722658D01*
X86112769Y-81709064D01*
X85929386Y-81682475D01*
X85783723Y-81713718D01*
X85670362Y-81793467D01*
X85592903Y-81831776D01*
X85518445Y-81842769D01*
X85439612Y-81866138D01*
X85330940Y-81926222D01*
X85212593Y-82007984D01*
X85104735Y-82096389D01*
X85027530Y-82176403D01*
X85000925Y-82228654D01*
X84974073Y-82264299D01*
X84889810Y-82260515D01*
X84885254Y-82259620D01*
X84770729Y-82261939D01*
X84723563Y-82294534D01*
X84656273Y-82350360D01*
X84557129Y-82408395D01*
X84548409Y-82412613D01*
X84437332Y-82500976D01*
X84333763Y-82648561D01*
X84250303Y-82836601D01*
X84237844Y-82875073D01*
X84208077Y-82927421D01*
X84176716Y-82911811D01*
X84148592Y-82838176D01*
X84128535Y-82716448D01*
X84122956Y-82638809D01*
X84129661Y-82456585D01*
X84160332Y-82252850D01*
X84208916Y-82052645D01*
X84269359Y-81881006D01*
X84334292Y-81764616D01*
X84395598Y-81674729D01*
X84470347Y-81547824D01*
X84518443Y-81457776D01*
X84599788Y-81322136D01*
X84693506Y-81200018D01*
X84748171Y-81145161D01*
X84768470Y-81125371D01*
X86172828Y-81125371D01*
X86186391Y-81200283D01*
X86237673Y-81248894D01*
X86308367Y-81249734D01*
X86346120Y-81219336D01*
X86359186Y-81147186D01*
X86337591Y-81064485D01*
X86294211Y-81003466D01*
X86255029Y-80991340D01*
X86195366Y-81037246D01*
X86172828Y-81125371D01*
X84768470Y-81125371D01*
X84865952Y-81030338D01*
X85016930Y-80857483D01*
X85193770Y-80635388D01*
X85315266Y-80472675D01*
X87638253Y-80472675D01*
X87648055Y-80515306D01*
X87700097Y-80556064D01*
X87761063Y-80573103D01*
X87782473Y-80567247D01*
X87810085Y-80516394D01*
X87812615Y-80492309D01*
X87781997Y-80449778D01*
X87715807Y-80436524D01*
X87652538Y-80456880D01*
X87638253Y-80472675D01*
X85315266Y-80472675D01*
X85366847Y-80403596D01*
X85492339Y-80253177D01*
X85569472Y-80196168D01*
X87311040Y-80196168D01*
X87328648Y-80222601D01*
X87405195Y-80218446D01*
X87408252Y-80217736D01*
X87501589Y-80187719D01*
X87556010Y-80158068D01*
X87578651Y-80114728D01*
X87540955Y-80095087D01*
X87458732Y-80105238D01*
X87436500Y-80111987D01*
X87348336Y-80154260D01*
X87311040Y-80196168D01*
X85569472Y-80196168D01*
X85611691Y-80164964D01*
X85743801Y-80127129D01*
X85814585Y-80123385D01*
X85894852Y-80105221D01*
X86004073Y-80059115D01*
X86085308Y-80015923D01*
X88095727Y-80015923D01*
X88142813Y-80058429D01*
X88206445Y-80077847D01*
X88295098Y-80101860D01*
X88338200Y-80126694D01*
X88420450Y-80160084D01*
X88512929Y-80126110D01*
X88532053Y-80096290D01*
X88489445Y-80060933D01*
X88420234Y-80029016D01*
X88289283Y-79985295D01*
X88180255Y-79968415D01*
X88110268Y-79979067D01*
X88095727Y-80015923D01*
X86085308Y-80015923D01*
X86119686Y-79997645D01*
X86219127Y-79933388D01*
X86279836Y-79878922D01*
X86288615Y-79859132D01*
X86324595Y-79810020D01*
X86422034Y-79755673D01*
X86565177Y-79702956D01*
X86738270Y-79658730D01*
X86757538Y-79654859D01*
X87111878Y-79604546D01*
X87460798Y-79590495D01*
X87790817Y-79611107D01*
G37*
X87790817Y-79611107D02*
X88088457Y-79664786D01*
X88340236Y-79749932D01*
X88532675Y-79864948D01*
X88533172Y-79865355D01*
X88666265Y-79959871D01*
X88811698Y-80042207D01*
X88871976Y-80069077D01*
X88982674Y-80114243D01*
X89063761Y-80151174D01*
X89082615Y-80161608D01*
X89148673Y-80190003D01*
X89265355Y-80227527D01*
X89406946Y-80266547D01*
X89545217Y-80298909D01*
X89618615Y-80322568D01*
X89625258Y-80356243D01*
X89611705Y-80375516D01*
X89589995Y-80433532D01*
X89606177Y-80453081D01*
X89648873Y-80497269D01*
X89715715Y-80584139D01*
X89760806Y-80648605D01*
X89876541Y-80820092D01*
X89778286Y-80844752D01*
X89705130Y-80850862D01*
X89626643Y-80826899D01*
X89531055Y-80765457D01*
X89406595Y-80659129D01*
X89259595Y-80518372D01*
X89141902Y-80405878D01*
X89057710Y-80338949D01*
X88986795Y-80306390D01*
X88908934Y-80297007D01*
X88860647Y-80297520D01*
X88746151Y-80306376D01*
X88663463Y-80322514D01*
X88648342Y-80328968D01*
X88588013Y-80346467D01*
X88477430Y-80363792D01*
X88382332Y-80373543D01*
X88205659Y-80399950D01*
X88097638Y-80447206D01*
X88050578Y-80519431D01*
X88047077Y-80553231D01*
X88013014Y-80644421D01*
X87908644Y-80709562D01*
X87841271Y-80730280D01*
X87743970Y-80780864D01*
X87656086Y-80866254D01*
X87652794Y-80870781D01*
X87561960Y-80968551D01*
X87458571Y-81042909D01*
X87382207Y-81079756D01*
X87360381Y-81072853D01*
X87378270Y-81014467D01*
X87382531Y-81003242D01*
X87401445Y-80932178D01*
X87369542Y-80907447D01*
X87314813Y-80904923D01*
X87243109Y-80900794D01*
X87240394Y-80877121D01*
X87277962Y-80836539D01*
X87364425Y-80774816D01*
X87469591Y-80726385D01*
X87559411Y-80683241D01*
X87609208Y-80635490D01*
X87610246Y-80632800D01*
X87601541Y-80606740D01*
X87547535Y-80597681D01*
X87440741Y-80606251D01*
X87273673Y-80633077D01*
X87038843Y-80678786D01*
X87023394Y-80681946D01*
X86823694Y-80732612D01*
X86699157Y-80789281D01*
X86646831Y-80855472D01*
X86663763Y-80934700D01*
X86737941Y-81022099D01*
X86800646Y-81087709D01*
X86809677Y-81132253D01*
X86770957Y-81185224D01*
X86770745Y-81185458D01*
X86729607Y-81247505D01*
X86728604Y-81279784D01*
X86762747Y-81267281D01*
X86814479Y-81205981D01*
X86817525Y-81201391D01*
X86888051Y-81123717D01*
X86949888Y-81104298D01*
X86987312Y-81144741D01*
X86992000Y-81183575D01*
X87001627Y-81237794D01*
X87045319Y-81253934D01*
X87128769Y-81244647D01*
X87221243Y-81236189D01*
X87259617Y-81256930D01*
X87265538Y-81293968D01*
X87298863Y-81365315D01*
X87385968Y-81405626D01*
X87507546Y-81411549D01*
X87644291Y-81379732D01*
X87678288Y-81365623D01*
X87759451Y-81338743D01*
X87809629Y-81359455D01*
X87830962Y-81385147D01*
X87920645Y-81448352D01*
X88040725Y-81449100D01*
X88175249Y-81387858D01*
X88194120Y-81374517D01*
X88319975Y-81281468D01*
X88415095Y-81370828D01*
X88502004Y-81427910D01*
X88566528Y-81424846D01*
X88593996Y-81362880D01*
X88594154Y-81355660D01*
X88623763Y-81319035D01*
X88662944Y-81320998D01*
X88723460Y-81309032D01*
X88772664Y-81230015D01*
X88778252Y-81215750D01*
X88829460Y-81128331D01*
X88880860Y-81115170D01*
X88921304Y-81173198D01*
X88937582Y-81259625D01*
X88953365Y-81395432D01*
X88975777Y-81462643D01*
X89011234Y-81470815D01*
X89057199Y-81437781D01*
X89152845Y-81380584D01*
X89236809Y-81397383D01*
X89314847Y-81490014D01*
X89334672Y-81526345D01*
X89412471Y-81678843D01*
X89330438Y-81783132D01*
X89279786Y-81873347D01*
X89296775Y-81932339D01*
X89383539Y-81962076D01*
X89528004Y-81965234D01*
X89642013Y-81965157D01*
X89711012Y-81987799D01*
X89746439Y-82048262D01*
X89759733Y-82161648D01*
X89761947Y-82274111D01*
X89776468Y-82428891D01*
X89823598Y-82580557D01*
X89912410Y-82755768D01*
X89944173Y-82809676D01*
X90013887Y-82898985D01*
X90096487Y-82933506D01*
X90149237Y-82936676D01*
X90256274Y-82912182D01*
X90362638Y-82851000D01*
X90442354Y-82772147D01*
X90469846Y-82701932D01*
X90480232Y-82663799D01*
X90503320Y-82681165D01*
X90527001Y-82735417D01*
X90539169Y-82807942D01*
X90539187Y-82808530D01*
X90556626Y-82899158D01*
X90599222Y-83030964D01*
X90656031Y-83171385D01*
X90738574Y-83365494D01*
X90786759Y-83507567D01*
X90804258Y-83613848D01*
X90794741Y-83700578D01*
X90783492Y-83735288D01*
X90730343Y-83806983D01*
X90658268Y-83836545D01*
X90595156Y-83817053D01*
X90575712Y-83786846D01*
X90541547Y-83772796D01*
X90472703Y-83826780D01*
X90466359Y-83833310D01*
X90407445Y-83914537D01*
X90381405Y-84015766D01*
X90377774Y-84128634D01*
X90390375Y-84283224D01*
X90418638Y-84435280D01*
X90432275Y-84482708D01*
X90464081Y-84603794D01*
X90477581Y-84708791D01*
X90477191Y-84726044D01*
X90498010Y-84810393D01*
X90567276Y-84843011D01*
X90670783Y-84818886D01*
X90698894Y-84804240D01*
X90856193Y-84730529D01*
X90972221Y-84716673D01*
X91055600Y-84762369D01*
X91077714Y-84790913D01*
X91117885Y-84887898D01*
X91094317Y-84950117D01*
X91023549Y-84968923D01*
X90962437Y-84990936D01*
X90858783Y-85049480D01*
X90731897Y-85133313D01*
X90691481Y-85162229D01*
X90564168Y-85248662D01*
X90456663Y-85310040D01*
X90386899Y-85336519D01*
X90375124Y-85335887D01*
X90338066Y-85358234D01*
X90298294Y-85436187D01*
X90263227Y-85547854D01*
X90240283Y-85671345D01*
X90235384Y-85748227D01*
X90259191Y-85809312D01*
X90320736Y-85819979D01*
X90405204Y-85787657D01*
X90497780Y-85719776D01*
X90583648Y-85623763D01*
X90628072Y-85551316D01*
X90716042Y-85426655D01*
X90841121Y-85340347D01*
X91020690Y-85281640D01*
X91085833Y-85268170D01*
X91171257Y-85256454D01*
X91199213Y-85276847D01*
X91188581Y-85344753D01*
X91187098Y-85350795D01*
X91141607Y-85515660D01*
X91079246Y-85715040D01*
X91006728Y-85930103D01*
X90930767Y-86142014D01*
X90858075Y-86331942D01*
X90795365Y-86481053D01*
X90756400Y-86559144D01*
X90624481Y-86720709D01*
X90458792Y-86825529D01*
X90275622Y-86864868D01*
X90196307Y-86859594D01*
X90106921Y-86852459D01*
X90050870Y-86878034D01*
X89999955Y-86953174D01*
X89981384Y-86988058D01*
X89770504Y-87334216D01*
X89531407Y-87623787D01*
X89495854Y-87659344D01*
X89392432Y-87754144D01*
X89317159Y-87801867D01*
X89246441Y-87814003D01*
X89190519Y-87808056D01*
X89044324Y-87745776D01*
X88923943Y-87614167D01*
X88868750Y-87508718D01*
X88817011Y-87434020D01*
X88734169Y-87354372D01*
X88645076Y-87289879D01*
X88574582Y-87260648D01*
X88562828Y-87261195D01*
X88516567Y-87264678D01*
X88405584Y-87270381D01*
X88243257Y-87277696D01*
X88042966Y-87286011D01*
X87871230Y-87292715D01*
X87645493Y-87302294D01*
X87442319Y-87312782D01*
X87276625Y-87323265D01*
X87163332Y-87332827D01*
X87122472Y-87338654D01*
X87037821Y-87335559D01*
X86919620Y-87304098D01*
X86860369Y-87280760D01*
X86687383Y-87227833D01*
X86553023Y-87237223D01*
X86461855Y-87308019D01*
X86434005Y-87365829D01*
X86424800Y-87481423D01*
X86477622Y-87559753D01*
X86577782Y-87587077D01*
X86673092Y-87609247D01*
X86753178Y-87650944D01*
X86861828Y-87692032D01*
X87034905Y-87713091D01*
X87261138Y-87713537D01*
X87529257Y-87692785D01*
X87539077Y-87691689D01*
X87681292Y-87675903D01*
X87866547Y-87655683D01*
X88060158Y-87634808D01*
X88105692Y-87629941D01*
X88272897Y-87610328D01*
X88417901Y-87590112D01*
X88517553Y-87572641D01*
X88539597Y-87567152D01*
X88599897Y-87565443D01*
X88663459Y-87607774D01*
X88747586Y-87705891D01*
X88751525Y-87711013D01*
X88833317Y-87813801D01*
X88901951Y-87893396D01*
X88929041Y-87920584D01*
X88975095Y-87982244D01*
X89025494Y-88080555D01*
X89032191Y-88096430D01*
X89062385Y-88208157D01*
X89046784Y-88305745D01*
X88977915Y-88404204D01*
X88848308Y-88518543D01*
X88805809Y-88551165D01*
X88663244Y-88662250D01*
X88513060Y-88784684D01*
X88442113Y-88844916D01*
X88270535Y-88993846D01*
X87796765Y-88993846D01*
X87585454Y-88991992D01*
X87434212Y-88984863D01*
X87325011Y-88970112D01*
X87239821Y-88945393D01*
X87167267Y-88911888D01*
X86970609Y-88794512D01*
X86777480Y-88654610D01*
X86599617Y-88503418D01*
X86448757Y-88352171D01*
X86336637Y-88212104D01*
X86274993Y-88094451D01*
X86266792Y-88049915D01*
X86231283Y-87946807D01*
X87198300Y-87946807D01*
X87224171Y-88009068D01*
X87298722Y-88072500D01*
X87408158Y-88129173D01*
X87538678Y-88171159D01*
X87676488Y-88190526D01*
X87748559Y-88188837D01*
X87877310Y-88170404D01*
X87982619Y-88144086D01*
X88012329Y-88131837D01*
X88074420Y-88066273D01*
X88078321Y-87987794D01*
X88025190Y-87926698D01*
X88004140Y-87918006D01*
X87914286Y-87907283D01*
X87790989Y-87912505D01*
X87753605Y-87917247D01*
X87633479Y-87925166D01*
X87565500Y-87907947D01*
X87559774Y-87901567D01*
X87504467Y-87873008D01*
X87407734Y-87862229D01*
X87304445Y-87870079D01*
X87234907Y-87893646D01*
X87198300Y-87946807D01*
X86231283Y-87946807D01*
X86228524Y-87938796D01*
X86130008Y-87837625D01*
X86002831Y-87769851D01*
X85955458Y-87732077D01*
X85956461Y-87704308D01*
X85948069Y-87659498D01*
X85919169Y-87640970D01*
X85871024Y-87591669D01*
X85867846Y-87559261D01*
X85839341Y-87506136D01*
X85741486Y-87449769D01*
X85709233Y-87436707D01*
X85565008Y-87365775D01*
X85420472Y-87268062D01*
X85288318Y-87156023D01*
X85181242Y-87042114D01*
X85111937Y-86938790D01*
X85093100Y-86858505D01*
X85100161Y-86839127D01*
X85094973Y-86807104D01*
X85085177Y-86805539D01*
X85065269Y-86769710D01*
X85045442Y-86675038D01*
X85030777Y-86551275D01*
X86930555Y-86551275D01*
X86940409Y-86634476D01*
X87024715Y-86697469D01*
X87070629Y-86715410D01*
X87293487Y-86760718D01*
X87500044Y-86743365D01*
X87565840Y-86721859D01*
X87661378Y-86695565D01*
X87803117Y-86670600D01*
X87949384Y-86653475D01*
X88095324Y-86637820D01*
X88180071Y-86618479D01*
X88220550Y-86589365D01*
X88232902Y-86551539D01*
X88212944Y-86481384D01*
X88126890Y-86416622D01*
X88104296Y-86405000D01*
X87957298Y-86350238D01*
X87818381Y-86345764D01*
X87654865Y-86389479D01*
X87539473Y-86418604D01*
X87442627Y-86405546D01*
X87400865Y-86389526D01*
X87230146Y-86341131D01*
X87095533Y-86359253D01*
X86993349Y-86441467D01*
X86930555Y-86551275D01*
X85030777Y-86551275D01*
X85029528Y-86540743D01*
X85027613Y-86517014D01*
X85001856Y-86316639D01*
X84960336Y-86156174D01*
X84907517Y-86046572D01*
X84847864Y-85998786D01*
X84817393Y-86001294D01*
X84725565Y-86022248D01*
X84697783Y-86024000D01*
X84667707Y-86035074D01*
X84652409Y-86078306D01*
X84649958Y-86168711D01*
X84658421Y-86321305D01*
X84658812Y-86326846D01*
X84672807Y-86486665D01*
X84689797Y-86627193D01*
X84706368Y-86720703D01*
X84708149Y-86727385D01*
X84716551Y-86773482D01*
X84697865Y-86777017D01*
X84642569Y-86733292D01*
X84556822Y-86652720D01*
X84439504Y-86524745D01*
X84370491Y-86404065D01*
X84336429Y-86288258D01*
X84302531Y-86156782D01*
X84264213Y-86045367D01*
X84248329Y-86011230D01*
X84207508Y-85923433D01*
X84158398Y-85799404D01*
X84137335Y-85740692D01*
X84102585Y-85626931D01*
X84099096Y-85569885D01*
X84123544Y-85555077D01*
X84187522Y-85581562D01*
X84198000Y-85594154D01*
X84249394Y-85625036D01*
X84326053Y-85631820D01*
X84392018Y-85615676D01*
X84412923Y-85587159D01*
X84394957Y-85484089D01*
X84384745Y-85460227D01*
X84640543Y-85460227D01*
X84640851Y-85535820D01*
X84651544Y-85562850D01*
X84708269Y-85618759D01*
X84763839Y-85604680D01*
X84794147Y-85532478D01*
X84782838Y-85438409D01*
X84764096Y-85398769D01*
X84731350Y-85379231D01*
X84803692Y-85379231D01*
X84823230Y-85398769D01*
X84842769Y-85379231D01*
X84823230Y-85359692D01*
X84803692Y-85379231D01*
X84731350Y-85379231D01*
X84716711Y-85370497D01*
X84670678Y-85398051D01*
X84640543Y-85460227D01*
X84384745Y-85460227D01*
X84350744Y-85380785D01*
X84294809Y-85304597D01*
X84250604Y-85281539D01*
X84172370Y-85266735D01*
X84065380Y-85231789D01*
X83971081Y-85190893D01*
X83949874Y-85178552D01*
X83951967Y-85139720D01*
X83958169Y-85116173D01*
X85272795Y-85116173D01*
X85287890Y-85183213D01*
X85343224Y-85222554D01*
X85449599Y-85248099D01*
X85590399Y-85262416D01*
X85735382Y-85264633D01*
X85854307Y-85253877D01*
X85904768Y-85238757D01*
X85977567Y-85219446D01*
X86049459Y-85257386D01*
X86067610Y-85273217D01*
X86191726Y-85364523D01*
X86300832Y-85390335D01*
X86414668Y-85355164D01*
X86418184Y-85353309D01*
X86537616Y-85260316D01*
X86583009Y-85146249D01*
X86577879Y-85076385D01*
X86575228Y-84992417D01*
X86612755Y-84973273D01*
X86687360Y-85018699D01*
X86762548Y-85091517D01*
X86833812Y-85162776D01*
X86878953Y-85198429D01*
X86885688Y-85198979D01*
X86951319Y-85076236D01*
X86983376Y-84991212D01*
X86985904Y-84969400D01*
X88245760Y-84969400D01*
X88271555Y-84999053D01*
X88348392Y-84991622D01*
X88371039Y-84987420D01*
X88462160Y-84976469D01*
X88505333Y-85001589D01*
X88528390Y-85079742D01*
X88529209Y-85083815D01*
X88586529Y-85194853D01*
X88694406Y-85261672D01*
X88835504Y-85278763D01*
X88992484Y-85240614D01*
X89005078Y-85235071D01*
X89099335Y-85151865D01*
X89130193Y-85072955D01*
X89149630Y-84997212D01*
X89172649Y-84989494D01*
X89203895Y-85026468D01*
X89275007Y-85075947D01*
X89354156Y-85070609D01*
X89428277Y-85039238D01*
X89453846Y-85007256D01*
X89486703Y-84976482D01*
X89534865Y-84968923D01*
X89599785Y-84950990D01*
X89602956Y-84903599D01*
X89550314Y-84836363D01*
X89447799Y-84758894D01*
X89381183Y-84720125D01*
X89241640Y-84655338D01*
X89100020Y-84615965D01*
X88923686Y-84593895D01*
X88854022Y-84589128D01*
X88690126Y-84581759D01*
X88580247Y-84585914D01*
X88500623Y-84605467D01*
X88427493Y-84644290D01*
X88398769Y-84663328D01*
X88297034Y-84753691D01*
X88253343Y-84856598D01*
X88249585Y-84884514D01*
X88245760Y-84969400D01*
X86985904Y-84969400D01*
X86991997Y-84916843D01*
X86992000Y-84915167D01*
X86959777Y-84786006D01*
X86861392Y-84691859D01*
X86694272Y-84630620D01*
X86628546Y-84618060D01*
X86466812Y-84603615D01*
X86331906Y-84612916D01*
X86240856Y-84643148D01*
X86210461Y-84687191D01*
X86176239Y-84714748D01*
X86086121Y-84756584D01*
X85958932Y-84804064D01*
X85946692Y-84808191D01*
X85804730Y-84857508D01*
X85685684Y-84902177D01*
X85615233Y-84932560D01*
X85615068Y-84932648D01*
X85530232Y-84963758D01*
X85492535Y-84968923D01*
X85385601Y-84991220D01*
X85308860Y-85046239D01*
X85272795Y-85116173D01*
X83958169Y-85116173D01*
X83974330Y-85054827D01*
X83982212Y-85030157D01*
X84019657Y-84939522D01*
X84070761Y-84900049D01*
X84165644Y-84890835D01*
X84183048Y-84890769D01*
X84320916Y-84909729D01*
X84464882Y-84956580D01*
X84491487Y-84969133D01*
X84587547Y-85012372D01*
X84626034Y-85013144D01*
X84624359Y-84993465D01*
X84629785Y-84927367D01*
X84669469Y-84832363D01*
X84682095Y-84810401D01*
X84727927Y-84720301D01*
X84743505Y-84658125D01*
X84741302Y-84650201D01*
X84738065Y-84595486D01*
X84754163Y-84498836D01*
X84760885Y-84471594D01*
X84782051Y-84358907D01*
X84801264Y-84200844D01*
X84814600Y-84030155D01*
X84815265Y-84017543D01*
X84827226Y-83869658D01*
X84844946Y-83753631D01*
X84854212Y-83724390D01*
X90016797Y-83724390D01*
X90022079Y-83779097D01*
X90061037Y-83822082D01*
X90143912Y-83868696D01*
X90185732Y-83862342D01*
X90180950Y-83812958D01*
X90159864Y-83738510D01*
X90157230Y-83715266D01*
X90129217Y-83683205D01*
X90070469Y-83685991D01*
X90018923Y-83721159D01*
X90016797Y-83724390D01*
X84854212Y-83724390D01*
X84865028Y-83690262D01*
X84869520Y-83685390D01*
X84911170Y-83629830D01*
X84932309Y-83552509D01*
X84926110Y-83489241D01*
X84909856Y-83473798D01*
X84889221Y-83435815D01*
X84903453Y-83403540D01*
X84922725Y-83335724D01*
X84935918Y-83218538D01*
X84939679Y-83112840D01*
X84940461Y-82878450D01*
X85060078Y-82878379D01*
X85155947Y-82859184D01*
X85249947Y-82792387D01*
X85314078Y-82724785D01*
X85461099Y-82596370D01*
X85681504Y-82464227D01*
X85800154Y-82405494D01*
X86044490Y-82283792D01*
X86228780Y-82175175D01*
X86367614Y-82069548D01*
X86475583Y-81956814D01*
X86506761Y-81916554D01*
X86577958Y-81809563D01*
X86592516Y-81750257D01*
X86547896Y-81729917D01*
X86454692Y-81737775D01*
X86326834Y-81740822D01*
X86174565Y-81722658D01*
X86112769Y-81709064D01*
X85929386Y-81682475D01*
X85783723Y-81713718D01*
X85670362Y-81793467D01*
X85592903Y-81831776D01*
X85518445Y-81842769D01*
X85439612Y-81866138D01*
X85330940Y-81926222D01*
X85212593Y-82007984D01*
X85104735Y-82096389D01*
X85027530Y-82176403D01*
X85000925Y-82228654D01*
X84974073Y-82264299D01*
X84889810Y-82260515D01*
X84885254Y-82259620D01*
X84770729Y-82261939D01*
X84723563Y-82294534D01*
X84656273Y-82350360D01*
X84557129Y-82408395D01*
X84548409Y-82412613D01*
X84437332Y-82500976D01*
X84333763Y-82648561D01*
X84250303Y-82836601D01*
X84237844Y-82875073D01*
X84208077Y-82927421D01*
X84176716Y-82911811D01*
X84148592Y-82838176D01*
X84128535Y-82716448D01*
X84122956Y-82638809D01*
X84129661Y-82456585D01*
X84160332Y-82252850D01*
X84208916Y-82052645D01*
X84269359Y-81881006D01*
X84334292Y-81764616D01*
X84395598Y-81674729D01*
X84470347Y-81547824D01*
X84518443Y-81457776D01*
X84599788Y-81322136D01*
X84693506Y-81200018D01*
X84748171Y-81145161D01*
X84768470Y-81125371D01*
X86172828Y-81125371D01*
X86186391Y-81200283D01*
X86237673Y-81248894D01*
X86308367Y-81249734D01*
X86346120Y-81219336D01*
X86359186Y-81147186D01*
X86337591Y-81064485D01*
X86294211Y-81003466D01*
X86255029Y-80991340D01*
X86195366Y-81037246D01*
X86172828Y-81125371D01*
X84768470Y-81125371D01*
X84865952Y-81030338D01*
X85016930Y-80857483D01*
X85193770Y-80635388D01*
X85315266Y-80472675D01*
X87638253Y-80472675D01*
X87648055Y-80515306D01*
X87700097Y-80556064D01*
X87761063Y-80573103D01*
X87782473Y-80567247D01*
X87810085Y-80516394D01*
X87812615Y-80492309D01*
X87781997Y-80449778D01*
X87715807Y-80436524D01*
X87652538Y-80456880D01*
X87638253Y-80472675D01*
X85315266Y-80472675D01*
X85366847Y-80403596D01*
X85492339Y-80253177D01*
X85569472Y-80196168D01*
X87311040Y-80196168D01*
X87328648Y-80222601D01*
X87405195Y-80218446D01*
X87408252Y-80217736D01*
X87501589Y-80187719D01*
X87556010Y-80158068D01*
X87578651Y-80114728D01*
X87540955Y-80095087D01*
X87458732Y-80105238D01*
X87436500Y-80111987D01*
X87348336Y-80154260D01*
X87311040Y-80196168D01*
X85569472Y-80196168D01*
X85611691Y-80164964D01*
X85743801Y-80127129D01*
X85814585Y-80123385D01*
X85894852Y-80105221D01*
X86004073Y-80059115D01*
X86085308Y-80015923D01*
X88095727Y-80015923D01*
X88142813Y-80058429D01*
X88206445Y-80077847D01*
X88295098Y-80101860D01*
X88338200Y-80126694D01*
X88420450Y-80160084D01*
X88512929Y-80126110D01*
X88532053Y-80096290D01*
X88489445Y-80060933D01*
X88420234Y-80029016D01*
X88289283Y-79985295D01*
X88180255Y-79968415D01*
X88110268Y-79979067D01*
X88095727Y-80015923D01*
X86085308Y-80015923D01*
X86119686Y-79997645D01*
X86219127Y-79933388D01*
X86279836Y-79878922D01*
X86288615Y-79859132D01*
X86324595Y-79810020D01*
X86422034Y-79755673D01*
X86565177Y-79702956D01*
X86738270Y-79658730D01*
X86757538Y-79654859D01*
X87111878Y-79604546D01*
X87460798Y-79590495D01*
X87790817Y-79611107D01*
G36*
X90157230Y-87059539D02*
G01*
X90137692Y-87079077D01*
X90118154Y-87059539D01*
X90137692Y-87040000D01*
X90157230Y-87059539D01*
G37*
X90157230Y-87059539D02*
X90137692Y-87079077D01*
X90118154Y-87059539D01*
X90137692Y-87040000D01*
X90157230Y-87059539D01*
G36*
X84482387Y-84298035D02*
G01*
X84491610Y-84351155D01*
X84502769Y-84466656D01*
X84515706Y-84529308D01*
X84518910Y-84599418D01*
X84495634Y-84617231D01*
X84450927Y-84610214D01*
X84448035Y-84607462D01*
X84434315Y-84535637D01*
X84430686Y-84435969D01*
X84436505Y-84341851D01*
X84451127Y-84286675D01*
X84454276Y-84283670D01*
X84482387Y-84298035D01*
G37*
X84482387Y-84298035D02*
X84491610Y-84351155D01*
X84502769Y-84466656D01*
X84515706Y-84529308D01*
X84518910Y-84599418D01*
X84495634Y-84617231D01*
X84450927Y-84610214D01*
X84448035Y-84607462D01*
X84434315Y-84535637D01*
X84430686Y-84435969D01*
X84436505Y-84341851D01*
X84451127Y-84286675D01*
X84454276Y-84283670D01*
X84482387Y-84298035D01*
G36*
X84484612Y-83705449D02*
G01*
X84548823Y-83745137D01*
X84546171Y-83795217D01*
X84482986Y-83827842D01*
X84420263Y-83806861D01*
X84397381Y-83773402D01*
X84382092Y-83708651D01*
X84415681Y-83691814D01*
X84484612Y-83705449D01*
G37*
X84484612Y-83705449D02*
X84548823Y-83745137D01*
X84546171Y-83795217D01*
X84482986Y-83827842D01*
X84420263Y-83806861D01*
X84397381Y-83773402D01*
X84382092Y-83708651D01*
X84415681Y-83691814D01*
X84484612Y-83705449D01*
G36*
X84315230Y-83093231D02*
G01*
X84361224Y-83154993D01*
X84372499Y-83217221D01*
X84344393Y-83249188D01*
X84338950Y-83249539D01*
X84296670Y-83218308D01*
X84280334Y-83187727D01*
X84256900Y-83099675D01*
X84273996Y-83070558D01*
X84315230Y-83093231D01*
G37*
X84315230Y-83093231D02*
X84361224Y-83154993D01*
X84372499Y-83217221D01*
X84344393Y-83249188D01*
X84338950Y-83249539D01*
X84296670Y-83218308D01*
X84280334Y-83187727D01*
X84256900Y-83099675D01*
X84273996Y-83070558D01*
X84315230Y-83093231D01*
G36*
X90583513Y-82233539D02*
G01*
X90648511Y-82372481D01*
X90656980Y-82471461D01*
X90609971Y-82543362D01*
X90608821Y-82544323D01*
X90564278Y-82568207D01*
X90552820Y-82524475D01*
X90552822Y-82519800D01*
X90547898Y-82437922D01*
X90535059Y-82318043D01*
X90529152Y-82272616D01*
X90505071Y-82096769D01*
X90583513Y-82233539D01*
G37*
X90583513Y-82233539D02*
X90648511Y-82372481D01*
X90656980Y-82471461D01*
X90609971Y-82543362D01*
X90608821Y-82544323D01*
X90564278Y-82568207D01*
X90552820Y-82524475D01*
X90552822Y-82519800D01*
X90547898Y-82437922D01*
X90535059Y-82318043D01*
X90529152Y-82272616D01*
X90505071Y-82096769D01*
X90583513Y-82233539D01*
G36*
X90107889Y-81056533D02*
G01*
X90200791Y-81148669D01*
X90299245Y-81282059D01*
X90393846Y-81440199D01*
X90475190Y-81606586D01*
X90533871Y-81764718D01*
X90560485Y-81898091D01*
X90558844Y-81950231D01*
X90532444Y-82048937D01*
X90499494Y-82070262D01*
X90465404Y-82014058D01*
X90448823Y-81953240D01*
X90419800Y-81865198D01*
X90364559Y-81730443D01*
X90292705Y-81569397D01*
X90213841Y-81402485D01*
X90137572Y-81250126D01*
X90073501Y-81132745D01*
X90036589Y-81076660D01*
X90015337Y-81031434D01*
X90029945Y-81022154D01*
X90107889Y-81056533D01*
G37*
X90107889Y-81056533D02*
X90200791Y-81148669D01*
X90299245Y-81282059D01*
X90393846Y-81440199D01*
X90475190Y-81606586D01*
X90533871Y-81764718D01*
X90560485Y-81898091D01*
X90558844Y-81950231D01*
X90532444Y-82048937D01*
X90499494Y-82070262D01*
X90465404Y-82014058D01*
X90448823Y-81953240D01*
X90419800Y-81865198D01*
X90364559Y-81730443D01*
X90292705Y-81569397D01*
X90213841Y-81402485D01*
X90137572Y-81250126D01*
X90073501Y-81132745D01*
X90036589Y-81076660D01*
X90015337Y-81031434D01*
X90029945Y-81022154D01*
X90107889Y-81056533D01*
G36*
X86431897Y-84981949D02*
G01*
X86426533Y-85005180D01*
X86405846Y-85008000D01*
X86373681Y-84993702D01*
X86379795Y-84981949D01*
X86426170Y-84977272D01*
X86431897Y-84981949D01*
G37*
X86431897Y-84981949D02*
X86426533Y-85005180D01*
X86405846Y-85008000D01*
X86373681Y-84993702D01*
X86379795Y-84981949D01*
X86426170Y-84977272D01*
X86431897Y-84981949D01*
G36*
X88866556Y-84881429D02*
G01*
X88867692Y-84890769D01*
X88837955Y-84928711D01*
X88828615Y-84929846D01*
X88790674Y-84900110D01*
X88789538Y-84890769D01*
X88819275Y-84852828D01*
X88828615Y-84851692D01*
X88866556Y-84881429D01*
G37*
X88866556Y-84881429D02*
X88867692Y-84890769D01*
X88837955Y-84928711D01*
X88828615Y-84929846D01*
X88790674Y-84900110D01*
X88789538Y-84890769D01*
X88819275Y-84852828D01*
X88828615Y-84851692D01*
X88866556Y-84881429D01*
G36*
X88988368Y-84702233D02*
G01*
X89123948Y-84737117D01*
X89256757Y-84789419D01*
X89368248Y-84855560D01*
X89371193Y-84857815D01*
X89423474Y-84907383D01*
X89409102Y-84922365D01*
X89331299Y-84903178D01*
X89193291Y-84850239D01*
X89141230Y-84828098D01*
X89010039Y-84780724D01*
X88895171Y-84755302D01*
X88838384Y-84755054D01*
X88770830Y-84756978D01*
X88750461Y-84737924D01*
X88783077Y-84699055D01*
X88868562Y-84688352D01*
X88988368Y-84702233D01*
G37*
X88988368Y-84702233D02*
X89123948Y-84737117D01*
X89256757Y-84789419D01*
X89368248Y-84855560D01*
X89371193Y-84857815D01*
X89423474Y-84907383D01*
X89409102Y-84922365D01*
X89331299Y-84903178D01*
X89193291Y-84850239D01*
X89141230Y-84828098D01*
X89010039Y-84780724D01*
X88895171Y-84755302D01*
X88838384Y-84755054D01*
X88770830Y-84756978D01*
X88750461Y-84737924D01*
X88783077Y-84699055D01*
X88868562Y-84688352D01*
X88988368Y-84702233D01*
D11*
%TO.C,Q3*%
X119000000Y-61260000D02*
X119000000Y-62720000D01*
X115840000Y-61260000D02*
X115840000Y-64420000D01*
X115840000Y-61260000D02*
X116770000Y-61260000D01*
X119000000Y-61260000D02*
X118070000Y-61260000D01*
%TO.C,R11*%
X122977500Y-49745276D02*
X122977500Y-50254724D01*
X124022500Y-49745276D02*
X124022500Y-50254724D01*
%TO.C,R10*%
X119845276Y-51922500D02*
X120354724Y-51922500D01*
X119845276Y-50877500D02*
X120354724Y-50877500D01*
%TO.C,R9*%
X86977500Y-75745276D02*
X86977500Y-76254724D01*
X88022500Y-75745276D02*
X88022500Y-76254724D01*
%TO.C,R8*%
X84977500Y-75745276D02*
X84977500Y-76254724D01*
X86022500Y-75745276D02*
X86022500Y-76254724D01*
%TO.C,R7*%
X86754724Y-69477500D02*
X86245276Y-69477500D01*
X86754724Y-70522500D02*
X86245276Y-70522500D01*
%TO.C,R6*%
X86754724Y-56477500D02*
X86245276Y-56477500D01*
X86754724Y-57522500D02*
X86245276Y-57522500D01*
%TO.C,R5*%
X117165276Y-67542500D02*
X117674724Y-67542500D01*
X117165276Y-66497500D02*
X117674724Y-66497500D01*
%TO.C,R4*%
X122245276Y-60522500D02*
X122754724Y-60522500D01*
X122245276Y-59477500D02*
X122754724Y-59477500D01*
%TO.C,R3*%
X88745276Y-48522500D02*
X89254724Y-48522500D01*
X88745276Y-47477500D02*
X89254724Y-47477500D01*
%TO.C,R2*%
X96022500Y-63754724D02*
X96022500Y-63245276D01*
X94977500Y-63754724D02*
X94977500Y-63245276D01*
%TO.C,R1*%
X93746500Y-76592724D02*
X93746500Y-76083276D01*
X92701500Y-76592724D02*
X92701500Y-76083276D01*
%TO.C,Q4*%
X118420000Y-46260000D02*
X118420000Y-44800000D01*
X121580000Y-46260000D02*
X121580000Y-43100000D01*
X121580000Y-46260000D02*
X120650000Y-46260000D01*
X118420000Y-46260000D02*
X119350000Y-46260000D01*
D13*
%TO.C,J1*%
X116760000Y-72160000D02*
G75*
G03*
X116760000Y-72160000I-200000J0D01*
G01*
D14*
X112880000Y-72970000D02*
X126470000Y-72970000D01*
X126470000Y-88600000D02*
X112880000Y-88600000D01*
X126470000Y-72970000D02*
X126470000Y-88600000D01*
X112880000Y-88600000D02*
X112880000Y-72970000D01*
D11*
%TO.C,D4*%
X84652000Y-85697700D02*
X87112000Y-85697700D01*
X84652000Y-84227700D02*
X84652000Y-85697700D01*
X87112000Y-84227700D02*
X84652000Y-84227700D01*
%TO.C,D3*%
X92160000Y-67765000D02*
X89700000Y-67765000D01*
X92160000Y-69235000D02*
X92160000Y-67765000D01*
X89700000Y-69235000D02*
X92160000Y-69235000D01*
%TO.C,D2*%
X92160000Y-57765000D02*
X89700000Y-57765000D01*
X92160000Y-59235000D02*
X92160000Y-57765000D01*
X89700000Y-59235000D02*
X92160000Y-59235000D01*
%TO.C,D1*%
X97400000Y-80350000D02*
X97400000Y-85750000D01*
X94100000Y-80350000D02*
X94100000Y-85750000D01*
X97400000Y-80350000D02*
X94100000Y-80350000D01*
%TO.C,C10*%
X103146267Y-69990000D02*
X102853733Y-69990000D01*
X103146267Y-71010000D02*
X102853733Y-71010000D01*
%TO.C,C8*%
X85146267Y-47490000D02*
X84853733Y-47490000D01*
X85146267Y-48510000D02*
X84853733Y-48510000D01*
%TO.C,C6*%
X86510000Y-66146267D02*
X86510000Y-65853733D01*
X85490000Y-66146267D02*
X85490000Y-65853733D01*
%TO.C,C4*%
X85490000Y-60853733D02*
X85490000Y-61146267D01*
X86510000Y-60853733D02*
X86510000Y-61146267D01*
D15*
%TO.C,U3*%
X112000000Y-33250000D02*
X94000000Y-33250000D01*
X112000000Y-58750000D02*
X94000000Y-58750000D01*
X112000000Y-33250000D02*
X112000000Y-58750000D01*
X94000000Y-33250000D02*
X94000000Y-58750000D01*
X112000000Y-39250000D02*
X94000000Y-39250000D01*
D16*
X93644430Y-39551575D02*
G75*
G03*
X93644430Y-39551575I-283981J0D01*
G01*
D11*
%TO.C,U2*%
X88865000Y-61390000D02*
X88390000Y-61390000D01*
X92610000Y-65610000D02*
X92610000Y-65135000D01*
X92135000Y-65610000D02*
X92610000Y-65610000D01*
X88390000Y-65610000D02*
X88390000Y-65135000D01*
X88865000Y-65610000D02*
X88390000Y-65610000D01*
X92610000Y-61390000D02*
X92610000Y-61865000D01*
X92135000Y-61390000D02*
X92610000Y-61390000D01*
%TO.C,U1*%
X99590000Y-82100000D02*
X99590000Y-76090000D01*
X106410000Y-79850000D02*
X106410000Y-76090000D01*
X99590000Y-76090000D02*
X100850000Y-76090000D01*
X106410000Y-76090000D02*
X105150000Y-76090000D01*
%TO.C,Q2*%
X124080000Y-64240000D02*
X124080000Y-65700000D01*
X120920000Y-64240000D02*
X120920000Y-67400000D01*
X120920000Y-64240000D02*
X121850000Y-64240000D01*
X124080000Y-64240000D02*
X123150000Y-64240000D01*
%TO.C,Q1*%
X111314000Y-83706000D02*
X111314000Y-85166000D01*
X108154000Y-83706000D02*
X108154000Y-86866000D01*
X108154000Y-83706000D02*
X109084000Y-83706000D01*
X111314000Y-83706000D02*
X110384000Y-83706000D01*
%TO.C,C9*%
X87711252Y-50090000D02*
X86288748Y-50090000D01*
X87711252Y-51910000D02*
X86288748Y-51910000D01*
%TO.C,C7*%
X87711252Y-44090000D02*
X86288748Y-44090000D01*
X87711252Y-45910000D02*
X86288748Y-45910000D01*
%TO.C,C5*%
X83910000Y-67711252D02*
X83910000Y-66288748D01*
X82090000Y-67711252D02*
X82090000Y-66288748D01*
%TO.C,C3*%
X83910000Y-60711252D02*
X83910000Y-59288748D01*
X82090000Y-60711252D02*
X82090000Y-59288748D01*
%TO.C,C2*%
X110410000Y-76711252D02*
X110410000Y-75288748D01*
X108590000Y-76711252D02*
X108590000Y-75288748D01*
%TO.C,C1*%
X95590000Y-75288748D02*
X95590000Y-76711252D01*
X97410000Y-75288748D02*
X97410000Y-76711252D01*
D17*
%TO.C,M1*%
X106880000Y-85776600D02*
X98980000Y-85776600D01*
X106880000Y-91416600D02*
X106880000Y-85786600D01*
X98980000Y-85836600D02*
X98980000Y-91416600D01*
X98980000Y-91446600D02*
X106880000Y-91446600D01*
%TO.C,R12*%
D15*
X115857142Y-47952380D02*
X115523809Y-47476190D01*
X115285714Y-47952380D02*
X115285714Y-46952380D01*
X115666666Y-46952380D01*
X115761904Y-47000000D01*
X115809523Y-47047619D01*
X115857142Y-47142857D01*
X115857142Y-47285714D01*
X115809523Y-47380952D01*
X115761904Y-47428571D01*
X115666666Y-47476190D01*
X115285714Y-47476190D01*
X116809523Y-47952380D02*
X116238095Y-47952380D01*
X116523809Y-47952380D02*
X116523809Y-46952380D01*
X116428571Y-47095238D01*
X116333333Y-47190476D01*
X116238095Y-47238095D01*
X117190476Y-47047619D02*
X117238095Y-47000000D01*
X117333333Y-46952380D01*
X117571428Y-46952380D01*
X117666666Y-47000000D01*
X117714285Y-47047619D01*
X117761904Y-47142857D01*
X117761904Y-47238095D01*
X117714285Y-47380952D01*
X117142857Y-47952380D01*
X117761904Y-47952380D01*
%TO.C,D6*%
X102261904Y-62202380D02*
X102261904Y-61202380D01*
X102500000Y-61202380D01*
X102642857Y-61250000D01*
X102738095Y-61345238D01*
X102785714Y-61440476D01*
X102833333Y-61630952D01*
X102833333Y-61773809D01*
X102785714Y-61964285D01*
X102738095Y-62059523D01*
X102642857Y-62154761D01*
X102500000Y-62202380D01*
X102261904Y-62202380D01*
X103690476Y-61202380D02*
X103500000Y-61202380D01*
X103404761Y-61250000D01*
X103357142Y-61297619D01*
X103261904Y-61440476D01*
X103214285Y-61630952D01*
X103214285Y-62011904D01*
X103261904Y-62107142D01*
X103309523Y-62154761D01*
X103404761Y-62202380D01*
X103595238Y-62202380D01*
X103690476Y-62154761D01*
X103738095Y-62107142D01*
X103785714Y-62011904D01*
X103785714Y-61773809D01*
X103738095Y-61678571D01*
X103690476Y-61630952D01*
X103595238Y-61583333D01*
X103404761Y-61583333D01*
X103309523Y-61630952D01*
X103261904Y-61678571D01*
X103214285Y-61773809D01*
%TO.C,D5*%
X88356980Y-85532895D02*
X87356980Y-85532895D01*
X87356980Y-85294800D01*
X87404600Y-85151942D01*
X87499838Y-85056704D01*
X87595076Y-85009085D01*
X87785552Y-84961466D01*
X87928409Y-84961466D01*
X88118885Y-85009085D01*
X88214123Y-85056704D01*
X88309361Y-85151942D01*
X88356980Y-85294800D01*
X88356980Y-85532895D01*
X87356980Y-84056704D02*
X87356980Y-84532895D01*
X87833171Y-84580514D01*
X87785552Y-84532895D01*
X87737933Y-84437657D01*
X87737933Y-84199561D01*
X87785552Y-84104323D01*
X87833171Y-84056704D01*
X87928409Y-84009085D01*
X88166504Y-84009085D01*
X88261742Y-84056704D01*
X88309361Y-84104323D01*
X88356980Y-84199561D01*
X88356980Y-84437657D01*
X88309361Y-84532895D01*
X88261742Y-84580514D01*
%TO.C,Q3*%
X117404761Y-59047619D02*
X117309523Y-59000000D01*
X117214285Y-58904761D01*
X117071428Y-58761904D01*
X116976190Y-58714285D01*
X116880952Y-58714285D01*
X116928571Y-58952380D02*
X116833333Y-58904761D01*
X116738095Y-58809523D01*
X116690476Y-58619047D01*
X116690476Y-58285714D01*
X116738095Y-58095238D01*
X116833333Y-58000000D01*
X116928571Y-57952380D01*
X117119047Y-57952380D01*
X117214285Y-58000000D01*
X117309523Y-58095238D01*
X117357142Y-58285714D01*
X117357142Y-58619047D01*
X117309523Y-58809523D01*
X117214285Y-58904761D01*
X117119047Y-58952380D01*
X116928571Y-58952380D01*
X117690476Y-57952380D02*
X118309523Y-57952380D01*
X117976190Y-58333333D01*
X118119047Y-58333333D01*
X118214285Y-58380952D01*
X118261904Y-58428571D01*
X118309523Y-58523809D01*
X118309523Y-58761904D01*
X118261904Y-58857142D01*
X118214285Y-58904761D01*
X118119047Y-58952380D01*
X117833333Y-58952380D01*
X117738095Y-58904761D01*
X117690476Y-58857142D01*
%TO.C,R11*%
X122857142Y-47952380D02*
X122523809Y-47476190D01*
X122285714Y-47952380D02*
X122285714Y-46952380D01*
X122666666Y-46952380D01*
X122761904Y-47000000D01*
X122809523Y-47047619D01*
X122857142Y-47142857D01*
X122857142Y-47285714D01*
X122809523Y-47380952D01*
X122761904Y-47428571D01*
X122666666Y-47476190D01*
X122285714Y-47476190D01*
X123809523Y-47952380D02*
X123238095Y-47952380D01*
X123523809Y-47952380D02*
X123523809Y-46952380D01*
X123428571Y-47095238D01*
X123333333Y-47190476D01*
X123238095Y-47238095D01*
X124761904Y-47952380D02*
X124190476Y-47952380D01*
X124476190Y-47952380D02*
X124476190Y-46952380D01*
X124380952Y-47095238D01*
X124285714Y-47190476D01*
X124190476Y-47238095D01*
%TO.C,R10*%
X119457142Y-50452380D02*
X119123809Y-49976190D01*
X118885714Y-50452380D02*
X118885714Y-49452380D01*
X119266666Y-49452380D01*
X119361904Y-49500000D01*
X119409523Y-49547619D01*
X119457142Y-49642857D01*
X119457142Y-49785714D01*
X119409523Y-49880952D01*
X119361904Y-49928571D01*
X119266666Y-49976190D01*
X118885714Y-49976190D01*
X120409523Y-50452380D02*
X119838095Y-50452380D01*
X120123809Y-50452380D02*
X120123809Y-49452380D01*
X120028571Y-49595238D01*
X119933333Y-49690476D01*
X119838095Y-49738095D01*
X121028571Y-49452380D02*
X121123809Y-49452380D01*
X121219047Y-49500000D01*
X121266666Y-49547619D01*
X121314285Y-49642857D01*
X121361904Y-49833333D01*
X121361904Y-50071428D01*
X121314285Y-50261904D01*
X121266666Y-50357142D01*
X121219047Y-50404761D01*
X121123809Y-50452380D01*
X121028571Y-50452380D01*
X120933333Y-50404761D01*
X120885714Y-50357142D01*
X120838095Y-50261904D01*
X120790476Y-50071428D01*
X120790476Y-49833333D01*
X120838095Y-49642857D01*
X120885714Y-49547619D01*
X120933333Y-49500000D01*
X121028571Y-49452380D01*
%TO.C,R9*%
X87333333Y-74039880D02*
X87000000Y-73563690D01*
X86761904Y-74039880D02*
X86761904Y-73039880D01*
X87142857Y-73039880D01*
X87238095Y-73087500D01*
X87285714Y-73135119D01*
X87333333Y-73230357D01*
X87333333Y-73373214D01*
X87285714Y-73468452D01*
X87238095Y-73516071D01*
X87142857Y-73563690D01*
X86761904Y-73563690D01*
X87809523Y-74039880D02*
X88000000Y-74039880D01*
X88095238Y-73992261D01*
X88142857Y-73944642D01*
X88238095Y-73801785D01*
X88285714Y-73611309D01*
X88285714Y-73230357D01*
X88238095Y-73135119D01*
X88190476Y-73087500D01*
X88095238Y-73039880D01*
X87904761Y-73039880D01*
X87809523Y-73087500D01*
X87761904Y-73135119D01*
X87714285Y-73230357D01*
X87714285Y-73468452D01*
X87761904Y-73563690D01*
X87809523Y-73611309D01*
X87904761Y-73658928D01*
X88095238Y-73658928D01*
X88190476Y-73611309D01*
X88238095Y-73563690D01*
X88285714Y-73468452D01*
%TO.C,R8*%
X85333333Y-73952380D02*
X85000000Y-73476190D01*
X84761904Y-73952380D02*
X84761904Y-72952380D01*
X85142857Y-72952380D01*
X85238095Y-73000000D01*
X85285714Y-73047619D01*
X85333333Y-73142857D01*
X85333333Y-73285714D01*
X85285714Y-73380952D01*
X85238095Y-73428571D01*
X85142857Y-73476190D01*
X84761904Y-73476190D01*
X85904761Y-73380952D02*
X85809523Y-73333333D01*
X85761904Y-73285714D01*
X85714285Y-73190476D01*
X85714285Y-73142857D01*
X85761904Y-73047619D01*
X85809523Y-73000000D01*
X85904761Y-72952380D01*
X86095238Y-72952380D01*
X86190476Y-73000000D01*
X86238095Y-73047619D01*
X86285714Y-73142857D01*
X86285714Y-73190476D01*
X86238095Y-73285714D01*
X86190476Y-73333333D01*
X86095238Y-73380952D01*
X85904761Y-73380952D01*
X85809523Y-73428571D01*
X85761904Y-73476190D01*
X85714285Y-73571428D01*
X85714285Y-73761904D01*
X85761904Y-73857142D01*
X85809523Y-73904761D01*
X85904761Y-73952380D01*
X86095238Y-73952380D01*
X86190476Y-73904761D01*
X86238095Y-73857142D01*
X86285714Y-73761904D01*
X86285714Y-73571428D01*
X86238095Y-73476190D01*
X86190476Y-73428571D01*
X86095238Y-73380952D01*
%TO.C,R7*%
X86833333Y-68952380D02*
X86500000Y-68476190D01*
X86261904Y-68952380D02*
X86261904Y-67952380D01*
X86642857Y-67952380D01*
X86738095Y-68000000D01*
X86785714Y-68047619D01*
X86833333Y-68142857D01*
X86833333Y-68285714D01*
X86785714Y-68380952D01*
X86738095Y-68428571D01*
X86642857Y-68476190D01*
X86261904Y-68476190D01*
X87166666Y-67952380D02*
X87833333Y-67952380D01*
X87404761Y-68952380D01*
%TO.C,R6*%
X86333333Y-55952380D02*
X86000000Y-55476190D01*
X85761904Y-55952380D02*
X85761904Y-54952380D01*
X86142857Y-54952380D01*
X86238095Y-55000000D01*
X86285714Y-55047619D01*
X86333333Y-55142857D01*
X86333333Y-55285714D01*
X86285714Y-55380952D01*
X86238095Y-55428571D01*
X86142857Y-55476190D01*
X85761904Y-55476190D01*
X87190476Y-54952380D02*
X87000000Y-54952380D01*
X86904761Y-55000000D01*
X86857142Y-55047619D01*
X86761904Y-55190476D01*
X86714285Y-55380952D01*
X86714285Y-55761904D01*
X86761904Y-55857142D01*
X86809523Y-55904761D01*
X86904761Y-55952380D01*
X87095238Y-55952380D01*
X87190476Y-55904761D01*
X87238095Y-55857142D01*
X87285714Y-55761904D01*
X87285714Y-55523809D01*
X87238095Y-55428571D01*
X87190476Y-55380952D01*
X87095238Y-55333333D01*
X86904761Y-55333333D01*
X86809523Y-55380952D01*
X86761904Y-55428571D01*
X86714285Y-55523809D01*
%TO.C,R5*%
X117333333Y-65952380D02*
X117000000Y-65476190D01*
X116761904Y-65952380D02*
X116761904Y-64952380D01*
X117142857Y-64952380D01*
X117238095Y-65000000D01*
X117285714Y-65047619D01*
X117333333Y-65142857D01*
X117333333Y-65285714D01*
X117285714Y-65380952D01*
X117238095Y-65428571D01*
X117142857Y-65476190D01*
X116761904Y-65476190D01*
X118238095Y-64952380D02*
X117761904Y-64952380D01*
X117714285Y-65428571D01*
X117761904Y-65380952D01*
X117857142Y-65333333D01*
X118095238Y-65333333D01*
X118190476Y-65380952D01*
X118238095Y-65428571D01*
X118285714Y-65523809D01*
X118285714Y-65761904D01*
X118238095Y-65857142D01*
X118190476Y-65904761D01*
X118095238Y-65952380D01*
X117857142Y-65952380D01*
X117761904Y-65904761D01*
X117714285Y-65857142D01*
%TO.C,R4*%
X122333333Y-58952380D02*
X122000000Y-58476190D01*
X121761904Y-58952380D02*
X121761904Y-57952380D01*
X122142857Y-57952380D01*
X122238095Y-58000000D01*
X122285714Y-58047619D01*
X122333333Y-58142857D01*
X122333333Y-58285714D01*
X122285714Y-58380952D01*
X122238095Y-58428571D01*
X122142857Y-58476190D01*
X121761904Y-58476190D01*
X123190476Y-58285714D02*
X123190476Y-58952380D01*
X122952380Y-57904761D02*
X122714285Y-58619047D01*
X123333333Y-58619047D01*
%TO.C,R3*%
X88791860Y-47135615D02*
X88458527Y-46659425D01*
X88220431Y-47135615D02*
X88220431Y-46135615D01*
X88601384Y-46135615D01*
X88696622Y-46183235D01*
X88744241Y-46230854D01*
X88791860Y-46326092D01*
X88791860Y-46468949D01*
X88744241Y-46564187D01*
X88696622Y-46611806D01*
X88601384Y-46659425D01*
X88220431Y-46659425D01*
X89125193Y-46135615D02*
X89744241Y-46135615D01*
X89410907Y-46516568D01*
X89553765Y-46516568D01*
X89649003Y-46564187D01*
X89696622Y-46611806D01*
X89744241Y-46707044D01*
X89744241Y-46945139D01*
X89696622Y-47040377D01*
X89649003Y-47087996D01*
X89553765Y-47135615D01*
X89268050Y-47135615D01*
X89172812Y-47087996D01*
X89125193Y-47040377D01*
%TO.C,R2*%
X95333333Y-61452380D02*
X95000000Y-60976190D01*
X94761904Y-61452380D02*
X94761904Y-60452380D01*
X95142857Y-60452380D01*
X95238095Y-60500000D01*
X95285714Y-60547619D01*
X95333333Y-60642857D01*
X95333333Y-60785714D01*
X95285714Y-60880952D01*
X95238095Y-60928571D01*
X95142857Y-60976190D01*
X94761904Y-60976190D01*
X95714285Y-60547619D02*
X95761904Y-60500000D01*
X95857142Y-60452380D01*
X96095238Y-60452380D01*
X96190476Y-60500000D01*
X96238095Y-60547619D01*
X96285714Y-60642857D01*
X96285714Y-60738095D01*
X96238095Y-60880952D01*
X95666666Y-61452380D01*
X96285714Y-61452380D01*
%TO.C,R1*%
X93057333Y-74452380D02*
X92724000Y-73976190D01*
X92485904Y-74452380D02*
X92485904Y-73452380D01*
X92866857Y-73452380D01*
X92962095Y-73500000D01*
X93009714Y-73547619D01*
X93057333Y-73642857D01*
X93057333Y-73785714D01*
X93009714Y-73880952D01*
X92962095Y-73928571D01*
X92866857Y-73976190D01*
X92485904Y-73976190D01*
X94009714Y-74452380D02*
X93438285Y-74452380D01*
X93724000Y-74452380D02*
X93724000Y-73452380D01*
X93628761Y-73595238D01*
X93533523Y-73690476D01*
X93438285Y-73738095D01*
%TO.C,Q4*%
X119904761Y-42547619D02*
X119809523Y-42500000D01*
X119714285Y-42404761D01*
X119571428Y-42261904D01*
X119476190Y-42214285D01*
X119380952Y-42214285D01*
X119428571Y-42452380D02*
X119333333Y-42404761D01*
X119238095Y-42309523D01*
X119190476Y-42119047D01*
X119190476Y-41785714D01*
X119238095Y-41595238D01*
X119333333Y-41500000D01*
X119428571Y-41452380D01*
X119619047Y-41452380D01*
X119714285Y-41500000D01*
X119809523Y-41595238D01*
X119857142Y-41785714D01*
X119857142Y-42119047D01*
X119809523Y-42309523D01*
X119714285Y-42404761D01*
X119619047Y-42452380D01*
X119428571Y-42452380D01*
X120714285Y-41785714D02*
X120714285Y-42452380D01*
X120476190Y-41404761D02*
X120238095Y-42119047D01*
X120857142Y-42119047D01*
%TO.C,J1*%
D18*
X115032740Y-71132542D02*
X115032740Y-71704202D01*
X114994630Y-71818534D01*
X114918408Y-71894755D01*
X114804076Y-71932865D01*
X114727855Y-71932865D01*
X115833063Y-71932865D02*
X115375736Y-71932865D01*
X115604399Y-71932865D02*
X115604399Y-71132542D01*
X115528178Y-71246874D01*
X115451957Y-71323095D01*
X115375736Y-71361206D01*
%TO.C,D4*%
D15*
X85573904Y-84415080D02*
X85573904Y-83415080D01*
X85812000Y-83415080D01*
X85954857Y-83462700D01*
X86050095Y-83557938D01*
X86097714Y-83653176D01*
X86145333Y-83843652D01*
X86145333Y-83986509D01*
X86097714Y-84176985D01*
X86050095Y-84272223D01*
X85954857Y-84367461D01*
X85812000Y-84415080D01*
X85573904Y-84415080D01*
X87002476Y-83748414D02*
X87002476Y-84415080D01*
X86764380Y-83367461D02*
X86526285Y-84081747D01*
X87145333Y-84081747D01*
%TO.C,D3*%
X89761904Y-67452380D02*
X89761904Y-66452380D01*
X90000000Y-66452380D01*
X90142857Y-66500000D01*
X90238095Y-66595238D01*
X90285714Y-66690476D01*
X90333333Y-66880952D01*
X90333333Y-67023809D01*
X90285714Y-67214285D01*
X90238095Y-67309523D01*
X90142857Y-67404761D01*
X90000000Y-67452380D01*
X89761904Y-67452380D01*
X90666666Y-66452380D02*
X91285714Y-66452380D01*
X90952380Y-66833333D01*
X91095238Y-66833333D01*
X91190476Y-66880952D01*
X91238095Y-66928571D01*
X91285714Y-67023809D01*
X91285714Y-67261904D01*
X91238095Y-67357142D01*
X91190476Y-67404761D01*
X91095238Y-67452380D01*
X90809523Y-67452380D01*
X90714285Y-67404761D01*
X90666666Y-67357142D01*
%TO.C,D2*%
X89761904Y-57452380D02*
X89761904Y-56452380D01*
X90000000Y-56452380D01*
X90142857Y-56500000D01*
X90238095Y-56595238D01*
X90285714Y-56690476D01*
X90333333Y-56880952D01*
X90333333Y-57023809D01*
X90285714Y-57214285D01*
X90238095Y-57309523D01*
X90142857Y-57404761D01*
X90000000Y-57452380D01*
X89761904Y-57452380D01*
X90714285Y-56547619D02*
X90761904Y-56500000D01*
X90857142Y-56452380D01*
X91095238Y-56452380D01*
X91190476Y-56500000D01*
X91238095Y-56547619D01*
X91285714Y-56642857D01*
X91285714Y-56738095D01*
X91238095Y-56880952D01*
X90666666Y-57452380D01*
X91285714Y-57452380D01*
%TO.C,D1*%
X95261904Y-79952380D02*
X95261904Y-78952380D01*
X95500000Y-78952380D01*
X95642857Y-79000000D01*
X95738095Y-79095238D01*
X95785714Y-79190476D01*
X95833333Y-79380952D01*
X95833333Y-79523809D01*
X95785714Y-79714285D01*
X95738095Y-79809523D01*
X95642857Y-79904761D01*
X95500000Y-79952380D01*
X95261904Y-79952380D01*
X96785714Y-79952380D02*
X96214285Y-79952380D01*
X96500000Y-79952380D02*
X96500000Y-78952380D01*
X96404761Y-79095238D01*
X96309523Y-79190476D01*
X96214285Y-79238095D01*
%TO.C,C10*%
X102357142Y-69357142D02*
X102309523Y-69404761D01*
X102166666Y-69452380D01*
X102071428Y-69452380D01*
X101928571Y-69404761D01*
X101833333Y-69309523D01*
X101785714Y-69214285D01*
X101738095Y-69023809D01*
X101738095Y-68880952D01*
X101785714Y-68690476D01*
X101833333Y-68595238D01*
X101928571Y-68500000D01*
X102071428Y-68452380D01*
X102166666Y-68452380D01*
X102309523Y-68500000D01*
X102357142Y-68547619D01*
X103309523Y-69452380D02*
X102738095Y-69452380D01*
X103023809Y-69452380D02*
X103023809Y-68452380D01*
X102928571Y-68595238D01*
X102833333Y-68690476D01*
X102738095Y-68738095D01*
X103928571Y-68452380D02*
X104023809Y-68452380D01*
X104119047Y-68500000D01*
X104166666Y-68547619D01*
X104214285Y-68642857D01*
X104261904Y-68833333D01*
X104261904Y-69071428D01*
X104214285Y-69261904D01*
X104166666Y-69357142D01*
X104119047Y-69404761D01*
X104023809Y-69452380D01*
X103928571Y-69452380D01*
X103833333Y-69404761D01*
X103785714Y-69357142D01*
X103738095Y-69261904D01*
X103690476Y-69071428D01*
X103690476Y-68833333D01*
X103738095Y-68642857D01*
X103785714Y-68547619D01*
X103833333Y-68500000D01*
X103928571Y-68452380D01*
%TO.C,C8*%
X84824721Y-47112506D02*
X84777102Y-47160125D01*
X84634245Y-47207744D01*
X84539007Y-47207744D01*
X84396149Y-47160125D01*
X84300911Y-47064887D01*
X84253292Y-46969649D01*
X84205673Y-46779173D01*
X84205673Y-46636316D01*
X84253292Y-46445840D01*
X84300911Y-46350602D01*
X84396149Y-46255364D01*
X84539007Y-46207744D01*
X84634245Y-46207744D01*
X84777102Y-46255364D01*
X84824721Y-46302983D01*
X85396149Y-46636316D02*
X85300911Y-46588697D01*
X85253292Y-46541078D01*
X85205673Y-46445840D01*
X85205673Y-46398221D01*
X85253292Y-46302983D01*
X85300911Y-46255364D01*
X85396149Y-46207744D01*
X85586626Y-46207744D01*
X85681864Y-46255364D01*
X85729483Y-46302983D01*
X85777102Y-46398221D01*
X85777102Y-46445840D01*
X85729483Y-46541078D01*
X85681864Y-46588697D01*
X85586626Y-46636316D01*
X85396149Y-46636316D01*
X85300911Y-46683935D01*
X85253292Y-46731554D01*
X85205673Y-46826792D01*
X85205673Y-47017268D01*
X85253292Y-47112506D01*
X85300911Y-47160125D01*
X85396149Y-47207744D01*
X85586626Y-47207744D01*
X85681864Y-47160125D01*
X85729483Y-47112506D01*
X85777102Y-47017268D01*
X85777102Y-46826792D01*
X85729483Y-46731554D01*
X85681864Y-46683935D01*
X85586626Y-46636316D01*
%TO.C,C6*%
X85833333Y-64357142D02*
X85785714Y-64404761D01*
X85642857Y-64452380D01*
X85547619Y-64452380D01*
X85404761Y-64404761D01*
X85309523Y-64309523D01*
X85261904Y-64214285D01*
X85214285Y-64023809D01*
X85214285Y-63880952D01*
X85261904Y-63690476D01*
X85309523Y-63595238D01*
X85404761Y-63500000D01*
X85547619Y-63452380D01*
X85642857Y-63452380D01*
X85785714Y-63500000D01*
X85833333Y-63547619D01*
X86690476Y-63452380D02*
X86500000Y-63452380D01*
X86404761Y-63500000D01*
X86357142Y-63547619D01*
X86261904Y-63690476D01*
X86214285Y-63880952D01*
X86214285Y-64261904D01*
X86261904Y-64357142D01*
X86309523Y-64404761D01*
X86404761Y-64452380D01*
X86595238Y-64452380D01*
X86690476Y-64404761D01*
X86738095Y-64357142D01*
X86785714Y-64261904D01*
X86785714Y-64023809D01*
X86738095Y-63928571D01*
X86690476Y-63880952D01*
X86595238Y-63833333D01*
X86404761Y-63833333D01*
X86309523Y-63880952D01*
X86261904Y-63928571D01*
X86214285Y-64023809D01*
%TO.C,C4*%
X85833333Y-58857142D02*
X85785714Y-58904761D01*
X85642857Y-58952380D01*
X85547619Y-58952380D01*
X85404761Y-58904761D01*
X85309523Y-58809523D01*
X85261904Y-58714285D01*
X85214285Y-58523809D01*
X85214285Y-58380952D01*
X85261904Y-58190476D01*
X85309523Y-58095238D01*
X85404761Y-58000000D01*
X85547619Y-57952380D01*
X85642857Y-57952380D01*
X85785714Y-58000000D01*
X85833333Y-58047619D01*
X86690476Y-58285714D02*
X86690476Y-58952380D01*
X86452380Y-57904761D02*
X86214285Y-58619047D01*
X86833333Y-58619047D01*
%TO.C,U3*%
X96052075Y-39622498D02*
X96052075Y-40432022D01*
X96099694Y-40527260D01*
X96147313Y-40574879D01*
X96242551Y-40622498D01*
X96433027Y-40622498D01*
X96528265Y-40574879D01*
X96575884Y-40527260D01*
X96623503Y-40432022D01*
X96623503Y-39622498D01*
X97004456Y-39622498D02*
X97623503Y-39622498D01*
X97290170Y-40003451D01*
X97433027Y-40003451D01*
X97528265Y-40051070D01*
X97575884Y-40098689D01*
X97623503Y-40193927D01*
X97623503Y-40432022D01*
X97575884Y-40527260D01*
X97528265Y-40574879D01*
X97433027Y-40622498D01*
X97147313Y-40622498D01*
X97052075Y-40574879D01*
X97004456Y-40527260D01*
%TO.C,U2*%
X89738095Y-59452380D02*
X89738095Y-60261904D01*
X89785714Y-60357142D01*
X89833333Y-60404761D01*
X89928571Y-60452380D01*
X90119047Y-60452380D01*
X90214285Y-60404761D01*
X90261904Y-60357142D01*
X90309523Y-60261904D01*
X90309523Y-59452380D01*
X90738095Y-59547619D02*
X90785714Y-59500000D01*
X90880952Y-59452380D01*
X91119047Y-59452380D01*
X91214285Y-59500000D01*
X91261904Y-59547619D01*
X91309523Y-59642857D01*
X91309523Y-59738095D01*
X91261904Y-59880952D01*
X90690476Y-60452380D01*
X91309523Y-60452380D01*
%TO.C,U1*%
X105357081Y-74776481D02*
X105357081Y-75586005D01*
X105404700Y-75681243D01*
X105452319Y-75728862D01*
X105547557Y-75776481D01*
X105738033Y-75776481D01*
X105833271Y-75728862D01*
X105880890Y-75681243D01*
X105928509Y-75586005D01*
X105928509Y-74776481D01*
X106928509Y-75776481D02*
X106357081Y-75776481D01*
X106642795Y-75776481D02*
X106642795Y-74776481D01*
X106547557Y-74919339D01*
X106452319Y-75014577D01*
X106357081Y-75062196D01*
%TO.C,Q2*%
X122404761Y-62047619D02*
X122309523Y-62000000D01*
X122214285Y-61904761D01*
X122071428Y-61761904D01*
X121976190Y-61714285D01*
X121880952Y-61714285D01*
X121928571Y-61952380D02*
X121833333Y-61904761D01*
X121738095Y-61809523D01*
X121690476Y-61619047D01*
X121690476Y-61285714D01*
X121738095Y-61095238D01*
X121833333Y-61000000D01*
X121928571Y-60952380D01*
X122119047Y-60952380D01*
X122214285Y-61000000D01*
X122309523Y-61095238D01*
X122357142Y-61285714D01*
X122357142Y-61619047D01*
X122309523Y-61809523D01*
X122214285Y-61904761D01*
X122119047Y-61952380D01*
X121928571Y-61952380D01*
X122738095Y-61047619D02*
X122785714Y-61000000D01*
X122880952Y-60952380D01*
X123119047Y-60952380D01*
X123214285Y-61000000D01*
X123261904Y-61047619D01*
X123309523Y-61142857D01*
X123309523Y-61238095D01*
X123261904Y-61380952D01*
X122690476Y-61952380D01*
X123309523Y-61952380D01*
%TO.C,Q1*%
X109638761Y-81547619D02*
X109543523Y-81500000D01*
X109448285Y-81404761D01*
X109305428Y-81261904D01*
X109210190Y-81214285D01*
X109114952Y-81214285D01*
X109162571Y-81452380D02*
X109067333Y-81404761D01*
X108972095Y-81309523D01*
X108924476Y-81119047D01*
X108924476Y-80785714D01*
X108972095Y-80595238D01*
X109067333Y-80500000D01*
X109162571Y-80452380D01*
X109353047Y-80452380D01*
X109448285Y-80500000D01*
X109543523Y-80595238D01*
X109591142Y-80785714D01*
X109591142Y-81119047D01*
X109543523Y-81309523D01*
X109448285Y-81404761D01*
X109353047Y-81452380D01*
X109162571Y-81452380D01*
X110543523Y-81452380D02*
X109972095Y-81452380D01*
X110257809Y-81452380D02*
X110257809Y-80452380D01*
X110162571Y-80595238D01*
X110067333Y-80690476D01*
X109972095Y-80738095D01*
%TO.C,C9*%
X86844355Y-49757265D02*
X86796736Y-49804884D01*
X86653879Y-49852503D01*
X86558641Y-49852503D01*
X86415783Y-49804884D01*
X86320545Y-49709646D01*
X86272926Y-49614408D01*
X86225307Y-49423932D01*
X86225307Y-49281075D01*
X86272926Y-49090599D01*
X86320545Y-48995361D01*
X86415783Y-48900123D01*
X86558641Y-48852503D01*
X86653879Y-48852503D01*
X86796736Y-48900123D01*
X86844355Y-48947742D01*
X87320545Y-49852503D02*
X87511022Y-49852503D01*
X87606260Y-49804884D01*
X87653879Y-49757265D01*
X87749117Y-49614408D01*
X87796736Y-49423932D01*
X87796736Y-49042980D01*
X87749117Y-48947742D01*
X87701498Y-48900123D01*
X87606260Y-48852503D01*
X87415783Y-48852503D01*
X87320545Y-48900123D01*
X87272926Y-48947742D01*
X87225307Y-49042980D01*
X87225307Y-49281075D01*
X87272926Y-49376313D01*
X87320545Y-49423932D01*
X87415783Y-49471551D01*
X87606260Y-49471551D01*
X87701498Y-49423932D01*
X87749117Y-49376313D01*
X87796736Y-49281075D01*
%TO.C,C7*%
X86833333Y-43857142D02*
X86785714Y-43904761D01*
X86642857Y-43952380D01*
X86547619Y-43952380D01*
X86404761Y-43904761D01*
X86309523Y-43809523D01*
X86261904Y-43714285D01*
X86214285Y-43523809D01*
X86214285Y-43380952D01*
X86261904Y-43190476D01*
X86309523Y-43095238D01*
X86404761Y-43000000D01*
X86547619Y-42952380D01*
X86642857Y-42952380D01*
X86785714Y-43000000D01*
X86833333Y-43047619D01*
X87166666Y-42952380D02*
X87833333Y-42952380D01*
X87404761Y-43952380D01*
%TO.C,C5*%
X82833333Y-64357142D02*
X82785714Y-64404761D01*
X82642857Y-64452380D01*
X82547619Y-64452380D01*
X82404761Y-64404761D01*
X82309523Y-64309523D01*
X82261904Y-64214285D01*
X82214285Y-64023809D01*
X82214285Y-63880952D01*
X82261904Y-63690476D01*
X82309523Y-63595238D01*
X82404761Y-63500000D01*
X82547619Y-63452380D01*
X82642857Y-63452380D01*
X82785714Y-63500000D01*
X82833333Y-63547619D01*
X83738095Y-63452380D02*
X83261904Y-63452380D01*
X83214285Y-63928571D01*
X83261904Y-63880952D01*
X83357142Y-63833333D01*
X83595238Y-63833333D01*
X83690476Y-63880952D01*
X83738095Y-63928571D01*
X83785714Y-64023809D01*
X83785714Y-64261904D01*
X83738095Y-64357142D01*
X83690476Y-64404761D01*
X83595238Y-64452380D01*
X83357142Y-64452380D01*
X83261904Y-64404761D01*
X83214285Y-64357142D01*
%TO.C,C3*%
X82833333Y-57357142D02*
X82785714Y-57404761D01*
X82642857Y-57452380D01*
X82547619Y-57452380D01*
X82404761Y-57404761D01*
X82309523Y-57309523D01*
X82261904Y-57214285D01*
X82214285Y-57023809D01*
X82214285Y-56880952D01*
X82261904Y-56690476D01*
X82309523Y-56595238D01*
X82404761Y-56500000D01*
X82547619Y-56452380D01*
X82642857Y-56452380D01*
X82785714Y-56500000D01*
X82833333Y-56547619D01*
X83166666Y-56452380D02*
X83785714Y-56452380D01*
X83452380Y-56833333D01*
X83595238Y-56833333D01*
X83690476Y-56880952D01*
X83738095Y-56928571D01*
X83785714Y-57023809D01*
X83785714Y-57261904D01*
X83738095Y-57357142D01*
X83690476Y-57404761D01*
X83595238Y-57452380D01*
X83309523Y-57452380D01*
X83214285Y-57404761D01*
X83166666Y-57357142D01*
%TO.C,C2*%
X109331487Y-72997579D02*
X109283868Y-73045198D01*
X109141011Y-73092817D01*
X109045773Y-73092817D01*
X108902915Y-73045198D01*
X108807677Y-72949960D01*
X108760058Y-72854722D01*
X108712439Y-72664246D01*
X108712439Y-72521389D01*
X108760058Y-72330913D01*
X108807677Y-72235675D01*
X108902915Y-72140437D01*
X109045773Y-72092817D01*
X109141011Y-72092817D01*
X109283868Y-72140437D01*
X109331487Y-72188056D01*
X109712439Y-72188056D02*
X109760058Y-72140437D01*
X109855296Y-72092817D01*
X110093392Y-72092817D01*
X110188630Y-72140437D01*
X110236249Y-72188056D01*
X110283868Y-72283294D01*
X110283868Y-72378532D01*
X110236249Y-72521389D01*
X109664820Y-73092817D01*
X110283868Y-73092817D01*
%TO.C,C1*%
X96299617Y-72892822D02*
X96251998Y-72940441D01*
X96109141Y-72988060D01*
X96013903Y-72988060D01*
X95871045Y-72940441D01*
X95775807Y-72845203D01*
X95728188Y-72749965D01*
X95680569Y-72559489D01*
X95680569Y-72416632D01*
X95728188Y-72226156D01*
X95775807Y-72130918D01*
X95871045Y-72035680D01*
X96013903Y-71988060D01*
X96109141Y-71988060D01*
X96251998Y-72035680D01*
X96299617Y-72083299D01*
X97251998Y-72988060D02*
X96680569Y-72988060D01*
X96966284Y-72988060D02*
X96966284Y-71988060D01*
X96871045Y-72130918D01*
X96775807Y-72226156D01*
X96680569Y-72273775D01*
%TO.C,M1*%
X99690476Y-84952380D02*
X99690476Y-83952380D01*
X100023809Y-84666666D01*
X100357142Y-83952380D01*
X100357142Y-84952380D01*
X101357142Y-84952380D02*
X100785714Y-84952380D01*
X101071428Y-84952380D02*
X101071428Y-83952380D01*
X100976190Y-84095238D01*
X100880952Y-84190476D01*
X100785714Y-84238095D01*
%TD*%
M02*
