%TF.GenerationSoftware,KiCad,Pcbnew,(5.1.9)-1*%
%TF.CreationDate,2021-04-28T14:38:11+02:00*%
%TF.ProjectId,AidonBoard32,4169646f-6e42-46f6-9172-6433322e6b69,1*%
%TF.SameCoordinates,Original*%
%TF.FileFunction,Copper,L2,Bot*%
%TF.FilePolarity,Positive*%
%FSLAX46Y46*%
G04 Gerber Fmt 4.6, Leading zero omitted, Abs format (unit mm)*
G04 Created by KiCad (PCBNEW (5.1.9)-1) date 2021-04-28 14:38:11*
%MOMM*%
%LPD*%
G01*
G04 APERTURE LIST*
%TA.AperFunction,ComponentPad*%
%ADD10C,1.879600*%
%TD*%
%TA.AperFunction,ComponentPad*%
%ADD11O,1.100000X1.800000*%
%TD*%
%TA.AperFunction,ComponentPad*%
%ADD12C,1.250000*%
%TD*%
%TA.AperFunction,ViaPad*%
%ADD13C,0.600000*%
%TD*%
%TA.AperFunction,Conductor*%
%ADD14C,0.250000*%
%TD*%
%TA.AperFunction,Conductor*%
%ADD15C,0.254000*%
%TD*%
%TA.AperFunction,Conductor*%
%ADD16C,0.100000*%
%TD*%
G04 APERTURE END LIST*
D10*
%TO.P,J1,6*%
%TO.N,GND*%
X121793000Y-80010000D03*
%TO.P,J1,5*%
%TO.N,/HAN_OUT*%
X120523000Y-77470000D03*
%TO.P,J1,4*%
%TO.N,Net-(J1-Pad4)*%
X119253000Y-80010000D03*
%TO.P,J1,3*%
%TO.N,Net-(J1-Pad3)*%
X117983000Y-77470000D03*
%TO.P,J1,2*%
%TO.N,VDD*%
X116713000Y-80010000D03*
%TO.P,J1,1*%
X115443000Y-77470000D03*
%TD*%
D11*
%TO.P,M1,0*%
%TO.N,N/C*%
X98830000Y-92020000D03*
D12*
X100005000Y-89230000D03*
X104855000Y-89230000D03*
D11*
X106030000Y-92020000D03*
%TD*%
D13*
%TO.N,GND*%
X79300000Y-52100000D03*
X79300000Y-53400000D03*
X79300000Y-54800000D03*
X79300000Y-56200000D03*
X79300000Y-57600000D03*
X79300000Y-59000000D03*
X79300000Y-60500000D03*
X79300000Y-61900000D03*
X79300000Y-63200000D03*
X79300000Y-64600000D03*
X79300000Y-66000000D03*
X79300000Y-67400000D03*
X79300000Y-68700000D03*
X79300000Y-69900000D03*
X79300000Y-71200000D03*
X79300000Y-73700000D03*
X79300000Y-74900000D03*
X79300000Y-76200000D03*
X79300000Y-77500000D03*
X79300000Y-81400000D03*
X79300000Y-80200000D03*
X79300000Y-82600000D03*
X79300000Y-83800000D03*
X79300000Y-85000000D03*
X79300000Y-91200000D03*
X79300000Y-92400000D03*
X79300000Y-72500000D03*
X79300000Y-78900000D03*
X79300000Y-86200000D03*
X79300000Y-87500000D03*
X79300000Y-88800000D03*
X79300000Y-90000000D03*
%TO.N,+3V3*%
X84892800Y-62054600D03*
X90723900Y-67784600D03*
%TO.N,/RTS*%
X120782200Y-59623500D03*
X84147700Y-59702600D03*
X94110400Y-62274800D03*
%TO.N,/MCU_TX*%
X109874700Y-41433300D03*
X94982300Y-57765300D03*
%TO.N,/MCU_RX*%
X113224800Y-38429600D03*
X93156100Y-57247300D03*
%TO.N,/DTR*%
X116545000Y-58974300D03*
X86925600Y-57147500D03*
X91950000Y-60201500D03*
%TD*%
D14*
%TO.N,+3V3*%
X90723900Y-67784600D02*
X84994000Y-62054700D01*
X84994000Y-62054700D02*
X84892800Y-62054700D01*
X84892800Y-62054700D02*
X84892800Y-62054600D01*
%TO.N,/RTS*%
X94110400Y-62274800D02*
X96761700Y-59623500D01*
X96761700Y-59623500D02*
X120782200Y-59623500D01*
X94110400Y-62274800D02*
X86719900Y-62274800D01*
X86719900Y-62274800D02*
X84147700Y-59702600D01*
%TO.N,/MCU_TX*%
X94982300Y-57765300D02*
X109874700Y-42872900D01*
X109874700Y-42872900D02*
X109874700Y-41433300D01*
%TO.N,/MCU_RX*%
X113224800Y-38429600D02*
X111973800Y-38429600D01*
X111973800Y-38429600D02*
X93156100Y-57247300D01*
%TO.N,/DTR*%
X91950000Y-59077400D02*
X90020100Y-57147500D01*
X90020100Y-57147500D02*
X86925600Y-57147500D01*
X91950000Y-60201500D02*
X91950000Y-59077400D01*
X91950000Y-59077400D02*
X116441900Y-59077400D01*
X116441900Y-59077400D02*
X116545000Y-58974300D01*
%TD*%
D15*
%TO.N,GND*%
X126240001Y-39615123D02*
X126240000Y-93940000D01*
X78660000Y-93940000D01*
X78660000Y-91611794D01*
X97645000Y-91611794D01*
X97645000Y-92428207D01*
X97662147Y-92602300D01*
X97729906Y-92825674D01*
X97839943Y-93031536D01*
X97988026Y-93211975D01*
X98168465Y-93360058D01*
X98374327Y-93470094D01*
X98597701Y-93537853D01*
X98830000Y-93560733D01*
X99062300Y-93537853D01*
X99285674Y-93470094D01*
X99491536Y-93360058D01*
X99671975Y-93211975D01*
X99820058Y-93031536D01*
X99930094Y-92825674D01*
X99997853Y-92602299D01*
X100015000Y-92428206D01*
X100015000Y-91611794D01*
X104845000Y-91611794D01*
X104845000Y-92428207D01*
X104862147Y-92602300D01*
X104929906Y-92825674D01*
X105039943Y-93031536D01*
X105188026Y-93211975D01*
X105368465Y-93360058D01*
X105574327Y-93470094D01*
X105797701Y-93537853D01*
X106030000Y-93560733D01*
X106262300Y-93537853D01*
X106485674Y-93470094D01*
X106691536Y-93360058D01*
X106871975Y-93211975D01*
X107020058Y-93031536D01*
X107130094Y-92825674D01*
X107197853Y-92602299D01*
X107215000Y-92428206D01*
X107215000Y-91611793D01*
X107197853Y-91437700D01*
X107130094Y-91214326D01*
X107020058Y-91008464D01*
X106871975Y-90828025D01*
X106691535Y-90679942D01*
X106485673Y-90569906D01*
X106262299Y-90502147D01*
X106030000Y-90479267D01*
X105797700Y-90502147D01*
X105574326Y-90569906D01*
X105368464Y-90679942D01*
X105188025Y-90828025D01*
X105039942Y-91008465D01*
X104929906Y-91214327D01*
X104862147Y-91437701D01*
X104845000Y-91611794D01*
X100015000Y-91611794D01*
X100015000Y-91611793D01*
X99997853Y-91437700D01*
X99930094Y-91214326D01*
X99820058Y-91008464D01*
X99671975Y-90828025D01*
X99491535Y-90679942D01*
X99285673Y-90569906D01*
X99062299Y-90502147D01*
X98830000Y-90479267D01*
X98597700Y-90502147D01*
X98374326Y-90569906D01*
X98168464Y-90679942D01*
X97988025Y-90828025D01*
X97839942Y-91008465D01*
X97729906Y-91214327D01*
X97662147Y-91437701D01*
X97645000Y-91611794D01*
X78660000Y-91611794D01*
X78660000Y-89105901D01*
X98745000Y-89105901D01*
X98745000Y-89354099D01*
X98793421Y-89597529D01*
X98888402Y-89826834D01*
X99026294Y-90033203D01*
X99201797Y-90208706D01*
X99408166Y-90346598D01*
X99637471Y-90441579D01*
X99880901Y-90490000D01*
X100129099Y-90490000D01*
X100372529Y-90441579D01*
X100601834Y-90346598D01*
X100808203Y-90208706D01*
X100983706Y-90033203D01*
X101121598Y-89826834D01*
X101216579Y-89597529D01*
X101265000Y-89354099D01*
X101265000Y-89105901D01*
X103595000Y-89105901D01*
X103595000Y-89354099D01*
X103643421Y-89597529D01*
X103738402Y-89826834D01*
X103876294Y-90033203D01*
X104051797Y-90208706D01*
X104258166Y-90346598D01*
X104487471Y-90441579D01*
X104730901Y-90490000D01*
X104979099Y-90490000D01*
X105222529Y-90441579D01*
X105451834Y-90346598D01*
X105658203Y-90208706D01*
X105833706Y-90033203D01*
X105971598Y-89826834D01*
X106066579Y-89597529D01*
X106115000Y-89354099D01*
X106115000Y-89105901D01*
X106066579Y-88862471D01*
X105971598Y-88633166D01*
X105833706Y-88426797D01*
X105658203Y-88251294D01*
X105451834Y-88113402D01*
X105222529Y-88018421D01*
X104979099Y-87970000D01*
X104730901Y-87970000D01*
X104487471Y-88018421D01*
X104258166Y-88113402D01*
X104051797Y-88251294D01*
X103876294Y-88426797D01*
X103738402Y-88633166D01*
X103643421Y-88862471D01*
X103595000Y-89105901D01*
X101265000Y-89105901D01*
X101216579Y-88862471D01*
X101121598Y-88633166D01*
X100983706Y-88426797D01*
X100808203Y-88251294D01*
X100601834Y-88113402D01*
X100372529Y-88018421D01*
X100129099Y-87970000D01*
X99880901Y-87970000D01*
X99637471Y-88018421D01*
X99408166Y-88113402D01*
X99201797Y-88251294D01*
X99026294Y-88426797D01*
X98888402Y-88633166D01*
X98793421Y-88862471D01*
X98745000Y-89105901D01*
X78660000Y-89105901D01*
X78660000Y-86137350D01*
X111277400Y-86137350D01*
X111277400Y-86582650D01*
X111364274Y-87019393D01*
X111534682Y-87430796D01*
X111782077Y-87801048D01*
X112096952Y-88115923D01*
X112467204Y-88363318D01*
X112878607Y-88533726D01*
X113315350Y-88620600D01*
X113760650Y-88620600D01*
X114197393Y-88533726D01*
X114608796Y-88363318D01*
X114979048Y-88115923D01*
X115293923Y-87801048D01*
X115541318Y-87430796D01*
X115711726Y-87019393D01*
X115798600Y-86582650D01*
X115798600Y-86137350D01*
X121437400Y-86137350D01*
X121437400Y-86582650D01*
X121524274Y-87019393D01*
X121694682Y-87430796D01*
X121942077Y-87801048D01*
X122256952Y-88115923D01*
X122627204Y-88363318D01*
X123038607Y-88533726D01*
X123475350Y-88620600D01*
X123920650Y-88620600D01*
X124357393Y-88533726D01*
X124768796Y-88363318D01*
X125139048Y-88115923D01*
X125453923Y-87801048D01*
X125701318Y-87430796D01*
X125871726Y-87019393D01*
X125958600Y-86582650D01*
X125958600Y-86137350D01*
X125871726Y-85700607D01*
X125701318Y-85289204D01*
X125453923Y-84918952D01*
X125139048Y-84604077D01*
X124768796Y-84356682D01*
X124357393Y-84186274D01*
X123920650Y-84099400D01*
X123475350Y-84099400D01*
X123038607Y-84186274D01*
X122627204Y-84356682D01*
X122256952Y-84604077D01*
X121942077Y-84918952D01*
X121694682Y-85289204D01*
X121524274Y-85700607D01*
X121437400Y-86137350D01*
X115798600Y-86137350D01*
X115711726Y-85700607D01*
X115541318Y-85289204D01*
X115293923Y-84918952D01*
X114979048Y-84604077D01*
X114608796Y-84356682D01*
X114197393Y-84186274D01*
X113760650Y-84099400D01*
X113315350Y-84099400D01*
X112878607Y-84186274D01*
X112467204Y-84356682D01*
X112096952Y-84604077D01*
X111782077Y-84918952D01*
X111534682Y-85289204D01*
X111364274Y-85700607D01*
X111277400Y-86137350D01*
X78660000Y-86137350D01*
X78660000Y-77314896D01*
X113868200Y-77314896D01*
X113868200Y-77625104D01*
X113928718Y-77929352D01*
X114047430Y-78215948D01*
X114219773Y-78473877D01*
X114439123Y-78693227D01*
X114697052Y-78865570D01*
X114983648Y-78984282D01*
X115287896Y-79044800D01*
X115463930Y-79044800D01*
X115317430Y-79264052D01*
X115198718Y-79550648D01*
X115138200Y-79854896D01*
X115138200Y-80165104D01*
X115198718Y-80469352D01*
X115317430Y-80755948D01*
X115489773Y-81013877D01*
X115709123Y-81233227D01*
X115967052Y-81405570D01*
X116253648Y-81524282D01*
X116557896Y-81584800D01*
X116868104Y-81584800D01*
X117172352Y-81524282D01*
X117458948Y-81405570D01*
X117716877Y-81233227D01*
X117936227Y-81013877D01*
X117983000Y-80943876D01*
X118029773Y-81013877D01*
X118249123Y-81233227D01*
X118507052Y-81405570D01*
X118793648Y-81524282D01*
X119097896Y-81584800D01*
X119408104Y-81584800D01*
X119712352Y-81524282D01*
X119998948Y-81405570D01*
X120256877Y-81233227D01*
X120387628Y-81102476D01*
X120880129Y-81102476D01*
X120968623Y-81360723D01*
X121247976Y-81495597D01*
X121548275Y-81573381D01*
X121857977Y-81591084D01*
X122165184Y-81548027D01*
X122458086Y-81445865D01*
X122617377Y-81360723D01*
X122705871Y-81102476D01*
X121793000Y-80189605D01*
X120880129Y-81102476D01*
X120387628Y-81102476D01*
X120476227Y-81013877D01*
X120567495Y-80877286D01*
X120700524Y-80922871D01*
X121613395Y-80010000D01*
X121972605Y-80010000D01*
X122885476Y-80922871D01*
X123143723Y-80834377D01*
X123278597Y-80555024D01*
X123356381Y-80254725D01*
X123374084Y-79945023D01*
X123331027Y-79637816D01*
X123228865Y-79344914D01*
X123143723Y-79185623D01*
X122885476Y-79097129D01*
X121972605Y-80010000D01*
X121613395Y-80010000D01*
X121599253Y-79995858D01*
X121778858Y-79816253D01*
X121793000Y-79830395D01*
X122705871Y-78917524D01*
X122617377Y-78659277D01*
X122338024Y-78524403D01*
X122037725Y-78446619D01*
X121774494Y-78431572D01*
X121918570Y-78215948D01*
X122037282Y-77929352D01*
X122097800Y-77625104D01*
X122097800Y-77314896D01*
X122037282Y-77010648D01*
X121918570Y-76724052D01*
X121746227Y-76466123D01*
X121526877Y-76246773D01*
X121268948Y-76074430D01*
X120982352Y-75955718D01*
X120678104Y-75895200D01*
X120367896Y-75895200D01*
X120063648Y-75955718D01*
X119777052Y-76074430D01*
X119519123Y-76246773D01*
X119299773Y-76466123D01*
X119253000Y-76536124D01*
X119206227Y-76466123D01*
X118986877Y-76246773D01*
X118728948Y-76074430D01*
X118442352Y-75955718D01*
X118138104Y-75895200D01*
X117827896Y-75895200D01*
X117523648Y-75955718D01*
X117237052Y-76074430D01*
X116979123Y-76246773D01*
X116759773Y-76466123D01*
X116713000Y-76536124D01*
X116666227Y-76466123D01*
X116446877Y-76246773D01*
X116188948Y-76074430D01*
X115902352Y-75955718D01*
X115598104Y-75895200D01*
X115287896Y-75895200D01*
X114983648Y-75955718D01*
X114697052Y-76074430D01*
X114439123Y-76246773D01*
X114219773Y-76466123D01*
X114047430Y-76724052D01*
X113928718Y-77010648D01*
X113868200Y-77314896D01*
X78660000Y-77314896D01*
X78660000Y-59610511D01*
X83212700Y-59610511D01*
X83212700Y-59794689D01*
X83248632Y-59975329D01*
X83319114Y-60145489D01*
X83421438Y-60298628D01*
X83551672Y-60428862D01*
X83704811Y-60531186D01*
X83874971Y-60601668D01*
X83996052Y-60625753D01*
X84553433Y-61183134D01*
X84449911Y-61226014D01*
X84296772Y-61328338D01*
X84166538Y-61458572D01*
X84064214Y-61611711D01*
X83993732Y-61781871D01*
X83957800Y-61962511D01*
X83957800Y-62146689D01*
X83993732Y-62327329D01*
X84064214Y-62497489D01*
X84166538Y-62650628D01*
X84296772Y-62780862D01*
X84449911Y-62883186D01*
X84620071Y-62953668D01*
X84800711Y-62989600D01*
X84854099Y-62989600D01*
X89800747Y-67936249D01*
X89824832Y-68057329D01*
X89895314Y-68227489D01*
X89997638Y-68380628D01*
X90127872Y-68510862D01*
X90281011Y-68613186D01*
X90451171Y-68683668D01*
X90631811Y-68719600D01*
X90815989Y-68719600D01*
X90996629Y-68683668D01*
X91166789Y-68613186D01*
X91319928Y-68510862D01*
X91450162Y-68380628D01*
X91552486Y-68227489D01*
X91622968Y-68057329D01*
X91658900Y-67876689D01*
X91658900Y-67692511D01*
X91622968Y-67511871D01*
X91552486Y-67341711D01*
X91450162Y-67188572D01*
X91319928Y-67058338D01*
X91166789Y-66956014D01*
X90996629Y-66885532D01*
X90875549Y-66861447D01*
X87048901Y-63034800D01*
X93564865Y-63034800D01*
X93667511Y-63103386D01*
X93837671Y-63173868D01*
X94018311Y-63209800D01*
X94202489Y-63209800D01*
X94383129Y-63173868D01*
X94553289Y-63103386D01*
X94706428Y-63001062D01*
X94836662Y-62870828D01*
X94938986Y-62717689D01*
X95009468Y-62547529D01*
X95033553Y-62426449D01*
X97076503Y-60383500D01*
X120236665Y-60383500D01*
X120339311Y-60452086D01*
X120509471Y-60522568D01*
X120690111Y-60558500D01*
X120874289Y-60558500D01*
X121054929Y-60522568D01*
X121225089Y-60452086D01*
X121378228Y-60349762D01*
X121508462Y-60219528D01*
X121610786Y-60066389D01*
X121681268Y-59896229D01*
X121717200Y-59715589D01*
X121717200Y-59531411D01*
X121681268Y-59350771D01*
X121610786Y-59180611D01*
X121508462Y-59027472D01*
X121378228Y-58897238D01*
X121225089Y-58794914D01*
X121054929Y-58724432D01*
X120874289Y-58688500D01*
X120690111Y-58688500D01*
X120509471Y-58724432D01*
X120339311Y-58794914D01*
X120236665Y-58863500D01*
X117476278Y-58863500D01*
X117444068Y-58701571D01*
X117373586Y-58531411D01*
X117271262Y-58378272D01*
X117141028Y-58248038D01*
X116987889Y-58145714D01*
X116817729Y-58075232D01*
X116637089Y-58039300D01*
X116452911Y-58039300D01*
X116272271Y-58075232D01*
X116102111Y-58145714D01*
X115948972Y-58248038D01*
X115879610Y-58317400D01*
X95737914Y-58317400D01*
X95810886Y-58208189D01*
X95881368Y-58038029D01*
X95905453Y-57916948D01*
X110385704Y-43436698D01*
X110414701Y-43412901D01*
X110441032Y-43380817D01*
X110509674Y-43297177D01*
X110580246Y-43165147D01*
X110580246Y-43165146D01*
X110623703Y-43021886D01*
X110634700Y-42910233D01*
X110634700Y-42910224D01*
X110638376Y-42872901D01*
X110634700Y-42835578D01*
X110634700Y-41978835D01*
X110703286Y-41876189D01*
X110773768Y-41706029D01*
X110809700Y-41525389D01*
X110809700Y-41341211D01*
X110773768Y-41160571D01*
X110703286Y-40990411D01*
X110616971Y-40861231D01*
X112288602Y-39189600D01*
X112679265Y-39189600D01*
X112781911Y-39258186D01*
X112952071Y-39328668D01*
X113132711Y-39364600D01*
X113316889Y-39364600D01*
X113497529Y-39328668D01*
X113667689Y-39258186D01*
X113820828Y-39155862D01*
X113951062Y-39025628D01*
X114053386Y-38872489D01*
X114123868Y-38702329D01*
X114159800Y-38521689D01*
X114159800Y-38337511D01*
X114123868Y-38156871D01*
X114053386Y-37986711D01*
X113951062Y-37833572D01*
X113820828Y-37703338D01*
X113667689Y-37601014D01*
X113497529Y-37530532D01*
X113316889Y-37494600D01*
X113132711Y-37494600D01*
X112952071Y-37530532D01*
X112781911Y-37601014D01*
X112679265Y-37669600D01*
X112011133Y-37669600D01*
X111973800Y-37665923D01*
X111936467Y-37669600D01*
X111824814Y-37680597D01*
X111681553Y-37724054D01*
X111549524Y-37794626D01*
X111433799Y-37889599D01*
X111410001Y-37918597D01*
X93004452Y-56324147D01*
X92883371Y-56348232D01*
X92713211Y-56418714D01*
X92560072Y-56521038D01*
X92429838Y-56651272D01*
X92327514Y-56804411D01*
X92257032Y-56974571D01*
X92221100Y-57155211D01*
X92221100Y-57339389D01*
X92257032Y-57520029D01*
X92327514Y-57690189D01*
X92429838Y-57843328D01*
X92560072Y-57973562D01*
X92713211Y-58075886D01*
X92883371Y-58146368D01*
X93064011Y-58182300D01*
X93248189Y-58182300D01*
X93428829Y-58146368D01*
X93598989Y-58075886D01*
X93752128Y-57973562D01*
X93882362Y-57843328D01*
X93984686Y-57690189D01*
X94055168Y-57520029D01*
X94079253Y-57398948D01*
X94152246Y-57325955D01*
X94083232Y-57492571D01*
X94047300Y-57673211D01*
X94047300Y-57857389D01*
X94083232Y-58038029D01*
X94153714Y-58208189D01*
X94226686Y-58317400D01*
X92264802Y-58317400D01*
X90583904Y-56636503D01*
X90560101Y-56607499D01*
X90444376Y-56512526D01*
X90312347Y-56441954D01*
X90169086Y-56398497D01*
X90057433Y-56387500D01*
X90057422Y-56387500D01*
X90020100Y-56383824D01*
X89982778Y-56387500D01*
X87471135Y-56387500D01*
X87368489Y-56318914D01*
X87198329Y-56248432D01*
X87017689Y-56212500D01*
X86833511Y-56212500D01*
X86652871Y-56248432D01*
X86482711Y-56318914D01*
X86329572Y-56421238D01*
X86199338Y-56551472D01*
X86097014Y-56704611D01*
X86026532Y-56874771D01*
X85990600Y-57055411D01*
X85990600Y-57239589D01*
X86026532Y-57420229D01*
X86097014Y-57590389D01*
X86199338Y-57743528D01*
X86329572Y-57873762D01*
X86482711Y-57976086D01*
X86652871Y-58046568D01*
X86833511Y-58082500D01*
X87017689Y-58082500D01*
X87198329Y-58046568D01*
X87368489Y-57976086D01*
X87471135Y-57907500D01*
X89705299Y-57907500D01*
X91190001Y-59392203D01*
X91190000Y-59655964D01*
X91121414Y-59758611D01*
X91050932Y-59928771D01*
X91015000Y-60109411D01*
X91015000Y-60293589D01*
X91050932Y-60474229D01*
X91121414Y-60644389D01*
X91223738Y-60797528D01*
X91353972Y-60927762D01*
X91507111Y-61030086D01*
X91677271Y-61100568D01*
X91857911Y-61136500D01*
X92042089Y-61136500D01*
X92222729Y-61100568D01*
X92392889Y-61030086D01*
X92546028Y-60927762D01*
X92676262Y-60797528D01*
X92778586Y-60644389D01*
X92849068Y-60474229D01*
X92885000Y-60293589D01*
X92885000Y-60109411D01*
X92849068Y-59928771D01*
X92811221Y-59837400D01*
X95472998Y-59837400D01*
X93958751Y-61351647D01*
X93837671Y-61375732D01*
X93667511Y-61446214D01*
X93564865Y-61514800D01*
X87034702Y-61514800D01*
X85070853Y-59550952D01*
X85046768Y-59429871D01*
X84976286Y-59259711D01*
X84873962Y-59106572D01*
X84743728Y-58976338D01*
X84590589Y-58874014D01*
X84420429Y-58803532D01*
X84239789Y-58767600D01*
X84055611Y-58767600D01*
X83874971Y-58803532D01*
X83704811Y-58874014D01*
X83551672Y-58976338D01*
X83421438Y-59106572D01*
X83319114Y-59259711D01*
X83248632Y-59429871D01*
X83212700Y-59610511D01*
X78660000Y-59610511D01*
X78660000Y-32110000D01*
X126240000Y-32110000D01*
X126240001Y-39615123D01*
%TA.AperFunction,Conductor*%
D16*
G36*
X126240001Y-39615123D02*
G01*
X126240000Y-93940000D01*
X78660000Y-93940000D01*
X78660000Y-91611794D01*
X97645000Y-91611794D01*
X97645000Y-92428207D01*
X97662147Y-92602300D01*
X97729906Y-92825674D01*
X97839943Y-93031536D01*
X97988026Y-93211975D01*
X98168465Y-93360058D01*
X98374327Y-93470094D01*
X98597701Y-93537853D01*
X98830000Y-93560733D01*
X99062300Y-93537853D01*
X99285674Y-93470094D01*
X99491536Y-93360058D01*
X99671975Y-93211975D01*
X99820058Y-93031536D01*
X99930094Y-92825674D01*
X99997853Y-92602299D01*
X100015000Y-92428206D01*
X100015000Y-91611794D01*
X104845000Y-91611794D01*
X104845000Y-92428207D01*
X104862147Y-92602300D01*
X104929906Y-92825674D01*
X105039943Y-93031536D01*
X105188026Y-93211975D01*
X105368465Y-93360058D01*
X105574327Y-93470094D01*
X105797701Y-93537853D01*
X106030000Y-93560733D01*
X106262300Y-93537853D01*
X106485674Y-93470094D01*
X106691536Y-93360058D01*
X106871975Y-93211975D01*
X107020058Y-93031536D01*
X107130094Y-92825674D01*
X107197853Y-92602299D01*
X107215000Y-92428206D01*
X107215000Y-91611793D01*
X107197853Y-91437700D01*
X107130094Y-91214326D01*
X107020058Y-91008464D01*
X106871975Y-90828025D01*
X106691535Y-90679942D01*
X106485673Y-90569906D01*
X106262299Y-90502147D01*
X106030000Y-90479267D01*
X105797700Y-90502147D01*
X105574326Y-90569906D01*
X105368464Y-90679942D01*
X105188025Y-90828025D01*
X105039942Y-91008465D01*
X104929906Y-91214327D01*
X104862147Y-91437701D01*
X104845000Y-91611794D01*
X100015000Y-91611794D01*
X100015000Y-91611793D01*
X99997853Y-91437700D01*
X99930094Y-91214326D01*
X99820058Y-91008464D01*
X99671975Y-90828025D01*
X99491535Y-90679942D01*
X99285673Y-90569906D01*
X99062299Y-90502147D01*
X98830000Y-90479267D01*
X98597700Y-90502147D01*
X98374326Y-90569906D01*
X98168464Y-90679942D01*
X97988025Y-90828025D01*
X97839942Y-91008465D01*
X97729906Y-91214327D01*
X97662147Y-91437701D01*
X97645000Y-91611794D01*
X78660000Y-91611794D01*
X78660000Y-89105901D01*
X98745000Y-89105901D01*
X98745000Y-89354099D01*
X98793421Y-89597529D01*
X98888402Y-89826834D01*
X99026294Y-90033203D01*
X99201797Y-90208706D01*
X99408166Y-90346598D01*
X99637471Y-90441579D01*
X99880901Y-90490000D01*
X100129099Y-90490000D01*
X100372529Y-90441579D01*
X100601834Y-90346598D01*
X100808203Y-90208706D01*
X100983706Y-90033203D01*
X101121598Y-89826834D01*
X101216579Y-89597529D01*
X101265000Y-89354099D01*
X101265000Y-89105901D01*
X103595000Y-89105901D01*
X103595000Y-89354099D01*
X103643421Y-89597529D01*
X103738402Y-89826834D01*
X103876294Y-90033203D01*
X104051797Y-90208706D01*
X104258166Y-90346598D01*
X104487471Y-90441579D01*
X104730901Y-90490000D01*
X104979099Y-90490000D01*
X105222529Y-90441579D01*
X105451834Y-90346598D01*
X105658203Y-90208706D01*
X105833706Y-90033203D01*
X105971598Y-89826834D01*
X106066579Y-89597529D01*
X106115000Y-89354099D01*
X106115000Y-89105901D01*
X106066579Y-88862471D01*
X105971598Y-88633166D01*
X105833706Y-88426797D01*
X105658203Y-88251294D01*
X105451834Y-88113402D01*
X105222529Y-88018421D01*
X104979099Y-87970000D01*
X104730901Y-87970000D01*
X104487471Y-88018421D01*
X104258166Y-88113402D01*
X104051797Y-88251294D01*
X103876294Y-88426797D01*
X103738402Y-88633166D01*
X103643421Y-88862471D01*
X103595000Y-89105901D01*
X101265000Y-89105901D01*
X101216579Y-88862471D01*
X101121598Y-88633166D01*
X100983706Y-88426797D01*
X100808203Y-88251294D01*
X100601834Y-88113402D01*
X100372529Y-88018421D01*
X100129099Y-87970000D01*
X99880901Y-87970000D01*
X99637471Y-88018421D01*
X99408166Y-88113402D01*
X99201797Y-88251294D01*
X99026294Y-88426797D01*
X98888402Y-88633166D01*
X98793421Y-88862471D01*
X98745000Y-89105901D01*
X78660000Y-89105901D01*
X78660000Y-86137350D01*
X111277400Y-86137350D01*
X111277400Y-86582650D01*
X111364274Y-87019393D01*
X111534682Y-87430796D01*
X111782077Y-87801048D01*
X112096952Y-88115923D01*
X112467204Y-88363318D01*
X112878607Y-88533726D01*
X113315350Y-88620600D01*
X113760650Y-88620600D01*
X114197393Y-88533726D01*
X114608796Y-88363318D01*
X114979048Y-88115923D01*
X115293923Y-87801048D01*
X115541318Y-87430796D01*
X115711726Y-87019393D01*
X115798600Y-86582650D01*
X115798600Y-86137350D01*
X121437400Y-86137350D01*
X121437400Y-86582650D01*
X121524274Y-87019393D01*
X121694682Y-87430796D01*
X121942077Y-87801048D01*
X122256952Y-88115923D01*
X122627204Y-88363318D01*
X123038607Y-88533726D01*
X123475350Y-88620600D01*
X123920650Y-88620600D01*
X124357393Y-88533726D01*
X124768796Y-88363318D01*
X125139048Y-88115923D01*
X125453923Y-87801048D01*
X125701318Y-87430796D01*
X125871726Y-87019393D01*
X125958600Y-86582650D01*
X125958600Y-86137350D01*
X125871726Y-85700607D01*
X125701318Y-85289204D01*
X125453923Y-84918952D01*
X125139048Y-84604077D01*
X124768796Y-84356682D01*
X124357393Y-84186274D01*
X123920650Y-84099400D01*
X123475350Y-84099400D01*
X123038607Y-84186274D01*
X122627204Y-84356682D01*
X122256952Y-84604077D01*
X121942077Y-84918952D01*
X121694682Y-85289204D01*
X121524274Y-85700607D01*
X121437400Y-86137350D01*
X115798600Y-86137350D01*
X115711726Y-85700607D01*
X115541318Y-85289204D01*
X115293923Y-84918952D01*
X114979048Y-84604077D01*
X114608796Y-84356682D01*
X114197393Y-84186274D01*
X113760650Y-84099400D01*
X113315350Y-84099400D01*
X112878607Y-84186274D01*
X112467204Y-84356682D01*
X112096952Y-84604077D01*
X111782077Y-84918952D01*
X111534682Y-85289204D01*
X111364274Y-85700607D01*
X111277400Y-86137350D01*
X78660000Y-86137350D01*
X78660000Y-77314896D01*
X113868200Y-77314896D01*
X113868200Y-77625104D01*
X113928718Y-77929352D01*
X114047430Y-78215948D01*
X114219773Y-78473877D01*
X114439123Y-78693227D01*
X114697052Y-78865570D01*
X114983648Y-78984282D01*
X115287896Y-79044800D01*
X115463930Y-79044800D01*
X115317430Y-79264052D01*
X115198718Y-79550648D01*
X115138200Y-79854896D01*
X115138200Y-80165104D01*
X115198718Y-80469352D01*
X115317430Y-80755948D01*
X115489773Y-81013877D01*
X115709123Y-81233227D01*
X115967052Y-81405570D01*
X116253648Y-81524282D01*
X116557896Y-81584800D01*
X116868104Y-81584800D01*
X117172352Y-81524282D01*
X117458948Y-81405570D01*
X117716877Y-81233227D01*
X117936227Y-81013877D01*
X117983000Y-80943876D01*
X118029773Y-81013877D01*
X118249123Y-81233227D01*
X118507052Y-81405570D01*
X118793648Y-81524282D01*
X119097896Y-81584800D01*
X119408104Y-81584800D01*
X119712352Y-81524282D01*
X119998948Y-81405570D01*
X120256877Y-81233227D01*
X120387628Y-81102476D01*
X120880129Y-81102476D01*
X120968623Y-81360723D01*
X121247976Y-81495597D01*
X121548275Y-81573381D01*
X121857977Y-81591084D01*
X122165184Y-81548027D01*
X122458086Y-81445865D01*
X122617377Y-81360723D01*
X122705871Y-81102476D01*
X121793000Y-80189605D01*
X120880129Y-81102476D01*
X120387628Y-81102476D01*
X120476227Y-81013877D01*
X120567495Y-80877286D01*
X120700524Y-80922871D01*
X121613395Y-80010000D01*
X121972605Y-80010000D01*
X122885476Y-80922871D01*
X123143723Y-80834377D01*
X123278597Y-80555024D01*
X123356381Y-80254725D01*
X123374084Y-79945023D01*
X123331027Y-79637816D01*
X123228865Y-79344914D01*
X123143723Y-79185623D01*
X122885476Y-79097129D01*
X121972605Y-80010000D01*
X121613395Y-80010000D01*
X121599253Y-79995858D01*
X121778858Y-79816253D01*
X121793000Y-79830395D01*
X122705871Y-78917524D01*
X122617377Y-78659277D01*
X122338024Y-78524403D01*
X122037725Y-78446619D01*
X121774494Y-78431572D01*
X121918570Y-78215948D01*
X122037282Y-77929352D01*
X122097800Y-77625104D01*
X122097800Y-77314896D01*
X122037282Y-77010648D01*
X121918570Y-76724052D01*
X121746227Y-76466123D01*
X121526877Y-76246773D01*
X121268948Y-76074430D01*
X120982352Y-75955718D01*
X120678104Y-75895200D01*
X120367896Y-75895200D01*
X120063648Y-75955718D01*
X119777052Y-76074430D01*
X119519123Y-76246773D01*
X119299773Y-76466123D01*
X119253000Y-76536124D01*
X119206227Y-76466123D01*
X118986877Y-76246773D01*
X118728948Y-76074430D01*
X118442352Y-75955718D01*
X118138104Y-75895200D01*
X117827896Y-75895200D01*
X117523648Y-75955718D01*
X117237052Y-76074430D01*
X116979123Y-76246773D01*
X116759773Y-76466123D01*
X116713000Y-76536124D01*
X116666227Y-76466123D01*
X116446877Y-76246773D01*
X116188948Y-76074430D01*
X115902352Y-75955718D01*
X115598104Y-75895200D01*
X115287896Y-75895200D01*
X114983648Y-75955718D01*
X114697052Y-76074430D01*
X114439123Y-76246773D01*
X114219773Y-76466123D01*
X114047430Y-76724052D01*
X113928718Y-77010648D01*
X113868200Y-77314896D01*
X78660000Y-77314896D01*
X78660000Y-59610511D01*
X83212700Y-59610511D01*
X83212700Y-59794689D01*
X83248632Y-59975329D01*
X83319114Y-60145489D01*
X83421438Y-60298628D01*
X83551672Y-60428862D01*
X83704811Y-60531186D01*
X83874971Y-60601668D01*
X83996052Y-60625753D01*
X84553433Y-61183134D01*
X84449911Y-61226014D01*
X84296772Y-61328338D01*
X84166538Y-61458572D01*
X84064214Y-61611711D01*
X83993732Y-61781871D01*
X83957800Y-61962511D01*
X83957800Y-62146689D01*
X83993732Y-62327329D01*
X84064214Y-62497489D01*
X84166538Y-62650628D01*
X84296772Y-62780862D01*
X84449911Y-62883186D01*
X84620071Y-62953668D01*
X84800711Y-62989600D01*
X84854099Y-62989600D01*
X89800747Y-67936249D01*
X89824832Y-68057329D01*
X89895314Y-68227489D01*
X89997638Y-68380628D01*
X90127872Y-68510862D01*
X90281011Y-68613186D01*
X90451171Y-68683668D01*
X90631811Y-68719600D01*
X90815989Y-68719600D01*
X90996629Y-68683668D01*
X91166789Y-68613186D01*
X91319928Y-68510862D01*
X91450162Y-68380628D01*
X91552486Y-68227489D01*
X91622968Y-68057329D01*
X91658900Y-67876689D01*
X91658900Y-67692511D01*
X91622968Y-67511871D01*
X91552486Y-67341711D01*
X91450162Y-67188572D01*
X91319928Y-67058338D01*
X91166789Y-66956014D01*
X90996629Y-66885532D01*
X90875549Y-66861447D01*
X87048901Y-63034800D01*
X93564865Y-63034800D01*
X93667511Y-63103386D01*
X93837671Y-63173868D01*
X94018311Y-63209800D01*
X94202489Y-63209800D01*
X94383129Y-63173868D01*
X94553289Y-63103386D01*
X94706428Y-63001062D01*
X94836662Y-62870828D01*
X94938986Y-62717689D01*
X95009468Y-62547529D01*
X95033553Y-62426449D01*
X97076503Y-60383500D01*
X120236665Y-60383500D01*
X120339311Y-60452086D01*
X120509471Y-60522568D01*
X120690111Y-60558500D01*
X120874289Y-60558500D01*
X121054929Y-60522568D01*
X121225089Y-60452086D01*
X121378228Y-60349762D01*
X121508462Y-60219528D01*
X121610786Y-60066389D01*
X121681268Y-59896229D01*
X121717200Y-59715589D01*
X121717200Y-59531411D01*
X121681268Y-59350771D01*
X121610786Y-59180611D01*
X121508462Y-59027472D01*
X121378228Y-58897238D01*
X121225089Y-58794914D01*
X121054929Y-58724432D01*
X120874289Y-58688500D01*
X120690111Y-58688500D01*
X120509471Y-58724432D01*
X120339311Y-58794914D01*
X120236665Y-58863500D01*
X117476278Y-58863500D01*
X117444068Y-58701571D01*
X117373586Y-58531411D01*
X117271262Y-58378272D01*
X117141028Y-58248038D01*
X116987889Y-58145714D01*
X116817729Y-58075232D01*
X116637089Y-58039300D01*
X116452911Y-58039300D01*
X116272271Y-58075232D01*
X116102111Y-58145714D01*
X115948972Y-58248038D01*
X115879610Y-58317400D01*
X95737914Y-58317400D01*
X95810886Y-58208189D01*
X95881368Y-58038029D01*
X95905453Y-57916948D01*
X110385704Y-43436698D01*
X110414701Y-43412901D01*
X110441032Y-43380817D01*
X110509674Y-43297177D01*
X110580246Y-43165147D01*
X110580246Y-43165146D01*
X110623703Y-43021886D01*
X110634700Y-42910233D01*
X110634700Y-42910224D01*
X110638376Y-42872901D01*
X110634700Y-42835578D01*
X110634700Y-41978835D01*
X110703286Y-41876189D01*
X110773768Y-41706029D01*
X110809700Y-41525389D01*
X110809700Y-41341211D01*
X110773768Y-41160571D01*
X110703286Y-40990411D01*
X110616971Y-40861231D01*
X112288602Y-39189600D01*
X112679265Y-39189600D01*
X112781911Y-39258186D01*
X112952071Y-39328668D01*
X113132711Y-39364600D01*
X113316889Y-39364600D01*
X113497529Y-39328668D01*
X113667689Y-39258186D01*
X113820828Y-39155862D01*
X113951062Y-39025628D01*
X114053386Y-38872489D01*
X114123868Y-38702329D01*
X114159800Y-38521689D01*
X114159800Y-38337511D01*
X114123868Y-38156871D01*
X114053386Y-37986711D01*
X113951062Y-37833572D01*
X113820828Y-37703338D01*
X113667689Y-37601014D01*
X113497529Y-37530532D01*
X113316889Y-37494600D01*
X113132711Y-37494600D01*
X112952071Y-37530532D01*
X112781911Y-37601014D01*
X112679265Y-37669600D01*
X112011133Y-37669600D01*
X111973800Y-37665923D01*
X111936467Y-37669600D01*
X111824814Y-37680597D01*
X111681553Y-37724054D01*
X111549524Y-37794626D01*
X111433799Y-37889599D01*
X111410001Y-37918597D01*
X93004452Y-56324147D01*
X92883371Y-56348232D01*
X92713211Y-56418714D01*
X92560072Y-56521038D01*
X92429838Y-56651272D01*
X92327514Y-56804411D01*
X92257032Y-56974571D01*
X92221100Y-57155211D01*
X92221100Y-57339389D01*
X92257032Y-57520029D01*
X92327514Y-57690189D01*
X92429838Y-57843328D01*
X92560072Y-57973562D01*
X92713211Y-58075886D01*
X92883371Y-58146368D01*
X93064011Y-58182300D01*
X93248189Y-58182300D01*
X93428829Y-58146368D01*
X93598989Y-58075886D01*
X93752128Y-57973562D01*
X93882362Y-57843328D01*
X93984686Y-57690189D01*
X94055168Y-57520029D01*
X94079253Y-57398948D01*
X94152246Y-57325955D01*
X94083232Y-57492571D01*
X94047300Y-57673211D01*
X94047300Y-57857389D01*
X94083232Y-58038029D01*
X94153714Y-58208189D01*
X94226686Y-58317400D01*
X92264802Y-58317400D01*
X90583904Y-56636503D01*
X90560101Y-56607499D01*
X90444376Y-56512526D01*
X90312347Y-56441954D01*
X90169086Y-56398497D01*
X90057433Y-56387500D01*
X90057422Y-56387500D01*
X90020100Y-56383824D01*
X89982778Y-56387500D01*
X87471135Y-56387500D01*
X87368489Y-56318914D01*
X87198329Y-56248432D01*
X87017689Y-56212500D01*
X86833511Y-56212500D01*
X86652871Y-56248432D01*
X86482711Y-56318914D01*
X86329572Y-56421238D01*
X86199338Y-56551472D01*
X86097014Y-56704611D01*
X86026532Y-56874771D01*
X85990600Y-57055411D01*
X85990600Y-57239589D01*
X86026532Y-57420229D01*
X86097014Y-57590389D01*
X86199338Y-57743528D01*
X86329572Y-57873762D01*
X86482711Y-57976086D01*
X86652871Y-58046568D01*
X86833511Y-58082500D01*
X87017689Y-58082500D01*
X87198329Y-58046568D01*
X87368489Y-57976086D01*
X87471135Y-57907500D01*
X89705299Y-57907500D01*
X91190001Y-59392203D01*
X91190000Y-59655964D01*
X91121414Y-59758611D01*
X91050932Y-59928771D01*
X91015000Y-60109411D01*
X91015000Y-60293589D01*
X91050932Y-60474229D01*
X91121414Y-60644389D01*
X91223738Y-60797528D01*
X91353972Y-60927762D01*
X91507111Y-61030086D01*
X91677271Y-61100568D01*
X91857911Y-61136500D01*
X92042089Y-61136500D01*
X92222729Y-61100568D01*
X92392889Y-61030086D01*
X92546028Y-60927762D01*
X92676262Y-60797528D01*
X92778586Y-60644389D01*
X92849068Y-60474229D01*
X92885000Y-60293589D01*
X92885000Y-60109411D01*
X92849068Y-59928771D01*
X92811221Y-59837400D01*
X95472998Y-59837400D01*
X93958751Y-61351647D01*
X93837671Y-61375732D01*
X93667511Y-61446214D01*
X93564865Y-61514800D01*
X87034702Y-61514800D01*
X85070853Y-59550952D01*
X85046768Y-59429871D01*
X84976286Y-59259711D01*
X84873962Y-59106572D01*
X84743728Y-58976338D01*
X84590589Y-58874014D01*
X84420429Y-58803532D01*
X84239789Y-58767600D01*
X84055611Y-58767600D01*
X83874971Y-58803532D01*
X83704811Y-58874014D01*
X83551672Y-58976338D01*
X83421438Y-59106572D01*
X83319114Y-59259711D01*
X83248632Y-59429871D01*
X83212700Y-59610511D01*
X78660000Y-59610511D01*
X78660000Y-32110000D01*
X126240000Y-32110000D01*
X126240001Y-39615123D01*
G37*
%TD.AperFunction*%
%TD*%
M02*
