%TF.GenerationSoftware,KiCad,Pcbnew,(5.1.9)-1*%
%TF.CreationDate,2021-04-30T15:53:42+02:00*%
%TF.ProjectId,AidonBoard32,4169646f-6e42-46f6-9172-6433322e6b69,2*%
%TF.SameCoordinates,Original*%
%TF.FileFunction,Soldermask,Top*%
%TF.FilePolarity,Negative*%
%FSLAX46Y46*%
G04 Gerber Fmt 4.6, Leading zero omitted, Abs format (unit mm)*
G04 Created by KiCad (PCBNEW (5.1.9)-1) date 2021-04-30 15:53:42*
%MOMM*%
%LPD*%
G01*
G04 APERTURE LIST*
%ADD10C,3.250000*%
%ADD11C,1.398000*%
%ADD12R,1.398000X1.398000*%
%ADD13R,1.500000X1.000000*%
%ADD14R,0.800000X1.900000*%
%ADD15R,1.800000X2.500000*%
%ADD16R,6.000000X6.000000*%
%ADD17O,2.500000X0.900000*%
%ADD18O,0.900000X2.500000*%
%ADD19R,2.600000X2.600000*%
%ADD20R,1.500000X2.000000*%
%ADD21R,3.800000X2.000000*%
%ADD22O,1.100000X1.800000*%
%ADD23R,0.400000X1.250000*%
%ADD24C,1.250000*%
G04 APERTURE END LIST*
D10*
%TO.C,J1*%
X124750000Y-83390000D03*
X114590000Y-83390000D03*
D11*
X122850000Y-77040000D03*
X121580000Y-74500000D03*
X120310000Y-77040000D03*
X119040000Y-74500000D03*
X117770000Y-77040000D03*
D12*
X116500000Y-74500000D03*
%TD*%
%TO.C,R12*%
G36*
G01*
X119237500Y-51850000D02*
X118762500Y-51850000D01*
G75*
G02*
X118525000Y-51612500I0J237500D01*
G01*
X118525000Y-51112500D01*
G75*
G02*
X118762500Y-50875000I237500J0D01*
G01*
X119237500Y-50875000D01*
G75*
G02*
X119475000Y-51112500I0J-237500D01*
G01*
X119475000Y-51612500D01*
G75*
G02*
X119237500Y-51850000I-237500J0D01*
G01*
G37*
G36*
G01*
X119237500Y-50025000D02*
X118762500Y-50025000D01*
G75*
G02*
X118525000Y-49787500I0J237500D01*
G01*
X118525000Y-49287500D01*
G75*
G02*
X118762500Y-49050000I237500J0D01*
G01*
X119237500Y-49050000D01*
G75*
G02*
X119475000Y-49287500I0J-237500D01*
G01*
X119475000Y-49787500D01*
G75*
G02*
X119237500Y-50025000I-237500J0D01*
G01*
G37*
%TD*%
D13*
%TO.C,D6*%
X100550000Y-63650000D03*
X100550000Y-66850000D03*
X105450000Y-63650000D03*
X105450000Y-66850000D03*
%TD*%
%TO.C,D5*%
G36*
G01*
X87564900Y-85152400D02*
X88039900Y-85152400D01*
G75*
G02*
X88277400Y-85389900I0J-237500D01*
G01*
X88277400Y-85964900D01*
G75*
G02*
X88039900Y-86202400I-237500J0D01*
G01*
X87564900Y-86202400D01*
G75*
G02*
X87327400Y-85964900I0J237500D01*
G01*
X87327400Y-85389900D01*
G75*
G02*
X87564900Y-85152400I237500J0D01*
G01*
G37*
G36*
G01*
X87564900Y-83402400D02*
X88039900Y-83402400D01*
G75*
G02*
X88277400Y-83639900I0J-237500D01*
G01*
X88277400Y-84214900D01*
G75*
G02*
X88039900Y-84452400I-237500J0D01*
G01*
X87564900Y-84452400D01*
G75*
G02*
X87327400Y-84214900I0J237500D01*
G01*
X87327400Y-83639900D01*
G75*
G02*
X87564900Y-83402400I237500J0D01*
G01*
G37*
%TD*%
D14*
%TO.C,Q3*%
X117350000Y-65100000D03*
X119250000Y-65100000D03*
X118300000Y-62100000D03*
%TD*%
%TO.C,R11*%
G36*
G01*
X120762500Y-49050000D02*
X121237500Y-49050000D01*
G75*
G02*
X121475000Y-49287500I0J-237500D01*
G01*
X121475000Y-49787500D01*
G75*
G02*
X121237500Y-50025000I-237500J0D01*
G01*
X120762500Y-50025000D01*
G75*
G02*
X120525000Y-49787500I0J237500D01*
G01*
X120525000Y-49287500D01*
G75*
G02*
X120762500Y-49050000I237500J0D01*
G01*
G37*
G36*
G01*
X120762500Y-50875000D02*
X121237500Y-50875000D01*
G75*
G02*
X121475000Y-51112500I0J-237500D01*
G01*
X121475000Y-51612500D01*
G75*
G02*
X121237500Y-51850000I-237500J0D01*
G01*
X120762500Y-51850000D01*
G75*
G02*
X120525000Y-51612500I0J237500D01*
G01*
X120525000Y-51112500D01*
G75*
G02*
X120762500Y-50875000I237500J0D01*
G01*
G37*
%TD*%
%TO.C,R10*%
G36*
G01*
X118650000Y-53637500D02*
X118650000Y-53162500D01*
G75*
G02*
X118887500Y-52925000I237500J0D01*
G01*
X119387500Y-52925000D01*
G75*
G02*
X119625000Y-53162500I0J-237500D01*
G01*
X119625000Y-53637500D01*
G75*
G02*
X119387500Y-53875000I-237500J0D01*
G01*
X118887500Y-53875000D01*
G75*
G02*
X118650000Y-53637500I0J237500D01*
G01*
G37*
G36*
G01*
X120475000Y-53637500D02*
X120475000Y-53162500D01*
G75*
G02*
X120712500Y-52925000I237500J0D01*
G01*
X121212500Y-52925000D01*
G75*
G02*
X121450000Y-53162500I0J-237500D01*
G01*
X121450000Y-53637500D01*
G75*
G02*
X121212500Y-53875000I-237500J0D01*
G01*
X120712500Y-53875000D01*
G75*
G02*
X120475000Y-53637500I0J237500D01*
G01*
G37*
%TD*%
%TO.C,R9*%
G36*
G01*
X83662500Y-75821000D02*
X84137500Y-75821000D01*
G75*
G02*
X84375000Y-76058500I0J-237500D01*
G01*
X84375000Y-76558500D01*
G75*
G02*
X84137500Y-76796000I-237500J0D01*
G01*
X83662500Y-76796000D01*
G75*
G02*
X83425000Y-76558500I0J237500D01*
G01*
X83425000Y-76058500D01*
G75*
G02*
X83662500Y-75821000I237500J0D01*
G01*
G37*
G36*
G01*
X83662500Y-73996000D02*
X84137500Y-73996000D01*
G75*
G02*
X84375000Y-74233500I0J-237500D01*
G01*
X84375000Y-74733500D01*
G75*
G02*
X84137500Y-74971000I-237500J0D01*
G01*
X83662500Y-74971000D01*
G75*
G02*
X83425000Y-74733500I0J237500D01*
G01*
X83425000Y-74233500D01*
G75*
G02*
X83662500Y-73996000I237500J0D01*
G01*
G37*
%TD*%
%TO.C,R8*%
G36*
G01*
X81362500Y-75824100D02*
X81837500Y-75824100D01*
G75*
G02*
X82075000Y-76061600I0J-237500D01*
G01*
X82075000Y-76561600D01*
G75*
G02*
X81837500Y-76799100I-237500J0D01*
G01*
X81362500Y-76799100D01*
G75*
G02*
X81125000Y-76561600I0J237500D01*
G01*
X81125000Y-76061600D01*
G75*
G02*
X81362500Y-75824100I237500J0D01*
G01*
G37*
G36*
G01*
X81362500Y-73999100D02*
X81837500Y-73999100D01*
G75*
G02*
X82075000Y-74236600I0J-237500D01*
G01*
X82075000Y-74736600D01*
G75*
G02*
X81837500Y-74974100I-237500J0D01*
G01*
X81362500Y-74974100D01*
G75*
G02*
X81125000Y-74736600I0J237500D01*
G01*
X81125000Y-74236600D01*
G75*
G02*
X81362500Y-73999100I237500J0D01*
G01*
G37*
%TD*%
%TO.C,R7*%
G36*
G01*
X97090500Y-62970000D02*
X97565500Y-62970000D01*
G75*
G02*
X97803000Y-63207500I0J-237500D01*
G01*
X97803000Y-63707500D01*
G75*
G02*
X97565500Y-63945000I-237500J0D01*
G01*
X97090500Y-63945000D01*
G75*
G02*
X96853000Y-63707500I0J237500D01*
G01*
X96853000Y-63207500D01*
G75*
G02*
X97090500Y-62970000I237500J0D01*
G01*
G37*
G36*
G01*
X97090500Y-64795000D02*
X97565500Y-64795000D01*
G75*
G02*
X97803000Y-65032500I0J-237500D01*
G01*
X97803000Y-65532500D01*
G75*
G02*
X97565500Y-65770000I-237500J0D01*
G01*
X97090500Y-65770000D01*
G75*
G02*
X96853000Y-65532500I0J237500D01*
G01*
X96853000Y-65032500D01*
G75*
G02*
X97090500Y-64795000I237500J0D01*
G01*
G37*
%TD*%
%TO.C,R6*%
G36*
G01*
X94840500Y-64795000D02*
X95315500Y-64795000D01*
G75*
G02*
X95553000Y-65032500I0J-237500D01*
G01*
X95553000Y-65532500D01*
G75*
G02*
X95315500Y-65770000I-237500J0D01*
G01*
X94840500Y-65770000D01*
G75*
G02*
X94603000Y-65532500I0J237500D01*
G01*
X94603000Y-65032500D01*
G75*
G02*
X94840500Y-64795000I237500J0D01*
G01*
G37*
G36*
G01*
X94840500Y-62970000D02*
X95315500Y-62970000D01*
G75*
G02*
X95553000Y-63207500I0J-237500D01*
G01*
X95553000Y-63707500D01*
G75*
G02*
X95315500Y-63945000I-237500J0D01*
G01*
X94840500Y-63945000D01*
G75*
G02*
X94603000Y-63707500I0J237500D01*
G01*
X94603000Y-63207500D01*
G75*
G02*
X94840500Y-62970000I237500J0D01*
G01*
G37*
%TD*%
%TO.C,R5*%
G36*
G01*
X122725000Y-61837500D02*
X122725000Y-61362500D01*
G75*
G02*
X122962500Y-61125000I237500J0D01*
G01*
X123462500Y-61125000D01*
G75*
G02*
X123700000Y-61362500I0J-237500D01*
G01*
X123700000Y-61837500D01*
G75*
G02*
X123462500Y-62075000I-237500J0D01*
G01*
X122962500Y-62075000D01*
G75*
G02*
X122725000Y-61837500I0J237500D01*
G01*
G37*
G36*
G01*
X120900000Y-61837500D02*
X120900000Y-61362500D01*
G75*
G02*
X121137500Y-61125000I237500J0D01*
G01*
X121637500Y-61125000D01*
G75*
G02*
X121875000Y-61362500I0J-237500D01*
G01*
X121875000Y-61837500D01*
G75*
G02*
X121637500Y-62075000I-237500J0D01*
G01*
X121137500Y-62075000D01*
G75*
G02*
X120900000Y-61837500I0J237500D01*
G01*
G37*
%TD*%
%TO.C,R4*%
G36*
G01*
X119700000Y-67362500D02*
X119700000Y-67837500D01*
G75*
G02*
X119462500Y-68075000I-237500J0D01*
G01*
X118962500Y-68075000D01*
G75*
G02*
X118725000Y-67837500I0J237500D01*
G01*
X118725000Y-67362500D01*
G75*
G02*
X118962500Y-67125000I237500J0D01*
G01*
X119462500Y-67125000D01*
G75*
G02*
X119700000Y-67362500I0J-237500D01*
G01*
G37*
G36*
G01*
X117875000Y-67362500D02*
X117875000Y-67837500D01*
G75*
G02*
X117637500Y-68075000I-237500J0D01*
G01*
X117137500Y-68075000D01*
G75*
G02*
X116900000Y-67837500I0J237500D01*
G01*
X116900000Y-67362500D01*
G75*
G02*
X117137500Y-67125000I237500J0D01*
G01*
X117637500Y-67125000D01*
G75*
G02*
X117875000Y-67362500I0J-237500D01*
G01*
G37*
%TD*%
%TO.C,R3*%
G36*
G01*
X88762500Y-48100000D02*
X89237500Y-48100000D01*
G75*
G02*
X89475000Y-48337500I0J-237500D01*
G01*
X89475000Y-48837500D01*
G75*
G02*
X89237500Y-49075000I-237500J0D01*
G01*
X88762500Y-49075000D01*
G75*
G02*
X88525000Y-48837500I0J237500D01*
G01*
X88525000Y-48337500D01*
G75*
G02*
X88762500Y-48100000I237500J0D01*
G01*
G37*
G36*
G01*
X88762500Y-49925000D02*
X89237500Y-49925000D01*
G75*
G02*
X89475000Y-50162500I0J-237500D01*
G01*
X89475000Y-50662500D01*
G75*
G02*
X89237500Y-50900000I-237500J0D01*
G01*
X88762500Y-50900000D01*
G75*
G02*
X88525000Y-50662500I0J237500D01*
G01*
X88525000Y-50162500D01*
G75*
G02*
X88762500Y-49925000I237500J0D01*
G01*
G37*
%TD*%
%TO.C,R2*%
G36*
G01*
X87776500Y-69743000D02*
X88251500Y-69743000D01*
G75*
G02*
X88489000Y-69980500I0J-237500D01*
G01*
X88489000Y-70480500D01*
G75*
G02*
X88251500Y-70718000I-237500J0D01*
G01*
X87776500Y-70718000D01*
G75*
G02*
X87539000Y-70480500I0J237500D01*
G01*
X87539000Y-69980500D01*
G75*
G02*
X87776500Y-69743000I237500J0D01*
G01*
G37*
G36*
G01*
X87776500Y-67918000D02*
X88251500Y-67918000D01*
G75*
G02*
X88489000Y-68155500I0J-237500D01*
G01*
X88489000Y-68655500D01*
G75*
G02*
X88251500Y-68893000I-237500J0D01*
G01*
X87776500Y-68893000D01*
G75*
G02*
X87539000Y-68655500I0J237500D01*
G01*
X87539000Y-68155500D01*
G75*
G02*
X87776500Y-67918000I237500J0D01*
G01*
G37*
%TD*%
%TO.C,R1*%
G36*
G01*
X92315500Y-70718000D02*
X91840500Y-70718000D01*
G75*
G02*
X91603000Y-70480500I0J237500D01*
G01*
X91603000Y-69980500D01*
G75*
G02*
X91840500Y-69743000I237500J0D01*
G01*
X92315500Y-69743000D01*
G75*
G02*
X92553000Y-69980500I0J-237500D01*
G01*
X92553000Y-70480500D01*
G75*
G02*
X92315500Y-70718000I-237500J0D01*
G01*
G37*
G36*
G01*
X92315500Y-68893000D02*
X91840500Y-68893000D01*
G75*
G02*
X91603000Y-68655500I0J237500D01*
G01*
X91603000Y-68155500D01*
G75*
G02*
X91840500Y-67918000I237500J0D01*
G01*
X92315500Y-67918000D01*
G75*
G02*
X92553000Y-68155500I0J-237500D01*
G01*
X92553000Y-68655500D01*
G75*
G02*
X92315500Y-68893000I-237500J0D01*
G01*
G37*
%TD*%
%TO.C,Q4*%
X120950000Y-44000000D03*
X119050000Y-44000000D03*
X120000000Y-47000000D03*
%TD*%
%TO.C,D4*%
G36*
G01*
X84969600Y-85324200D02*
X85444600Y-85324200D01*
G75*
G02*
X85682100Y-85561700I0J-237500D01*
G01*
X85682100Y-86136700D01*
G75*
G02*
X85444600Y-86374200I-237500J0D01*
G01*
X84969600Y-86374200D01*
G75*
G02*
X84732100Y-86136700I0J237500D01*
G01*
X84732100Y-85561700D01*
G75*
G02*
X84969600Y-85324200I237500J0D01*
G01*
G37*
G36*
G01*
X84969600Y-83574200D02*
X85444600Y-83574200D01*
G75*
G02*
X85682100Y-83811700I0J-237500D01*
G01*
X85682100Y-84386700D01*
G75*
G02*
X85444600Y-84624200I-237500J0D01*
G01*
X84969600Y-84624200D01*
G75*
G02*
X84732100Y-84386700I0J237500D01*
G01*
X84732100Y-83811700D01*
G75*
G02*
X84969600Y-83574200I237500J0D01*
G01*
G37*
%TD*%
%TO.C,D3*%
G36*
G01*
X97174500Y-69668000D02*
X97649500Y-69668000D01*
G75*
G02*
X97887000Y-69905500I0J-237500D01*
G01*
X97887000Y-70480500D01*
G75*
G02*
X97649500Y-70718000I-237500J0D01*
G01*
X97174500Y-70718000D01*
G75*
G02*
X96937000Y-70480500I0J237500D01*
G01*
X96937000Y-69905500D01*
G75*
G02*
X97174500Y-69668000I237500J0D01*
G01*
G37*
G36*
G01*
X97174500Y-67918000D02*
X97649500Y-67918000D01*
G75*
G02*
X97887000Y-68155500I0J-237500D01*
G01*
X97887000Y-68730500D01*
G75*
G02*
X97649500Y-68968000I-237500J0D01*
G01*
X97174500Y-68968000D01*
G75*
G02*
X96937000Y-68730500I0J237500D01*
G01*
X96937000Y-68155500D01*
G75*
G02*
X97174500Y-67918000I237500J0D01*
G01*
G37*
%TD*%
%TO.C,D2*%
G36*
G01*
X94888500Y-69668000D02*
X95363500Y-69668000D01*
G75*
G02*
X95601000Y-69905500I0J-237500D01*
G01*
X95601000Y-70480500D01*
G75*
G02*
X95363500Y-70718000I-237500J0D01*
G01*
X94888500Y-70718000D01*
G75*
G02*
X94651000Y-70480500I0J237500D01*
G01*
X94651000Y-69905500D01*
G75*
G02*
X94888500Y-69668000I237500J0D01*
G01*
G37*
G36*
G01*
X94888500Y-67918000D02*
X95363500Y-67918000D01*
G75*
G02*
X95601000Y-68155500I0J-237500D01*
G01*
X95601000Y-68730500D01*
G75*
G02*
X95363500Y-68968000I-237500J0D01*
G01*
X94888500Y-68968000D01*
G75*
G02*
X94651000Y-68730500I0J237500D01*
G01*
X94651000Y-68155500D01*
G75*
G02*
X94888500Y-67918000I237500J0D01*
G01*
G37*
%TD*%
D15*
%TO.C,D1*%
X96000000Y-85750000D03*
X96000000Y-81750000D03*
%TD*%
%TO.C,C10*%
G36*
G01*
X104400000Y-70262500D02*
X104400000Y-70737500D01*
G75*
G02*
X104162500Y-70975000I-237500J0D01*
G01*
X103562500Y-70975000D01*
G75*
G02*
X103325000Y-70737500I0J237500D01*
G01*
X103325000Y-70262500D01*
G75*
G02*
X103562500Y-70025000I237500J0D01*
G01*
X104162500Y-70025000D01*
G75*
G02*
X104400000Y-70262500I0J-237500D01*
G01*
G37*
G36*
G01*
X102675000Y-70262500D02*
X102675000Y-70737500D01*
G75*
G02*
X102437500Y-70975000I-237500J0D01*
G01*
X101837500Y-70975000D01*
G75*
G02*
X101600000Y-70737500I0J237500D01*
G01*
X101600000Y-70262500D01*
G75*
G02*
X101837500Y-70025000I237500J0D01*
G01*
X102437500Y-70025000D01*
G75*
G02*
X102675000Y-70262500I0J-237500D01*
G01*
G37*
%TD*%
%TO.C,C8*%
G36*
G01*
X85762500Y-48100000D02*
X86237500Y-48100000D01*
G75*
G02*
X86475000Y-48337500I0J-237500D01*
G01*
X86475000Y-48937500D01*
G75*
G02*
X86237500Y-49175000I-237500J0D01*
G01*
X85762500Y-49175000D01*
G75*
G02*
X85525000Y-48937500I0J237500D01*
G01*
X85525000Y-48337500D01*
G75*
G02*
X85762500Y-48100000I237500J0D01*
G01*
G37*
G36*
G01*
X85762500Y-49825000D02*
X86237500Y-49825000D01*
G75*
G02*
X86475000Y-50062500I0J-237500D01*
G01*
X86475000Y-50662500D01*
G75*
G02*
X86237500Y-50900000I-237500J0D01*
G01*
X85762500Y-50900000D01*
G75*
G02*
X85525000Y-50662500I0J237500D01*
G01*
X85525000Y-50062500D01*
G75*
G02*
X85762500Y-49825000I237500J0D01*
G01*
G37*
%TD*%
%TO.C,C6*%
G36*
G01*
X85137500Y-67469000D02*
X84662500Y-67469000D01*
G75*
G02*
X84425000Y-67231500I0J237500D01*
G01*
X84425000Y-66631500D01*
G75*
G02*
X84662500Y-66394000I237500J0D01*
G01*
X85137500Y-66394000D01*
G75*
G02*
X85375000Y-66631500I0J-237500D01*
G01*
X85375000Y-67231500D01*
G75*
G02*
X85137500Y-67469000I-237500J0D01*
G01*
G37*
G36*
G01*
X85137500Y-69194000D02*
X84662500Y-69194000D01*
G75*
G02*
X84425000Y-68956500I0J237500D01*
G01*
X84425000Y-68356500D01*
G75*
G02*
X84662500Y-68119000I237500J0D01*
G01*
X85137500Y-68119000D01*
G75*
G02*
X85375000Y-68356500I0J-237500D01*
G01*
X85375000Y-68956500D01*
G75*
G02*
X85137500Y-69194000I-237500J0D01*
G01*
G37*
%TD*%
%TO.C,C4*%
G36*
G01*
X85137500Y-63151000D02*
X84662500Y-63151000D01*
G75*
G02*
X84425000Y-62913500I0J237500D01*
G01*
X84425000Y-62313500D01*
G75*
G02*
X84662500Y-62076000I237500J0D01*
G01*
X85137500Y-62076000D01*
G75*
G02*
X85375000Y-62313500I0J-237500D01*
G01*
X85375000Y-62913500D01*
G75*
G02*
X85137500Y-63151000I-237500J0D01*
G01*
G37*
G36*
G01*
X85137500Y-64876000D02*
X84662500Y-64876000D01*
G75*
G02*
X84425000Y-64638500I0J237500D01*
G01*
X84425000Y-64038500D01*
G75*
G02*
X84662500Y-63801000I237500J0D01*
G01*
X85137500Y-63801000D01*
G75*
G02*
X85375000Y-64038500I0J-237500D01*
G01*
X85375000Y-64638500D01*
G75*
G02*
X85137500Y-64876000I-237500J0D01*
G01*
G37*
%TD*%
D16*
%TO.C,U3*%
X102700000Y-48450000D03*
D17*
X94000000Y-40750000D03*
X94000000Y-42020000D03*
X94000000Y-43290000D03*
X94000000Y-44560000D03*
X94000000Y-45830000D03*
X94000000Y-47100000D03*
X94000000Y-48370000D03*
X94000000Y-49640000D03*
X94000000Y-50910000D03*
X94000000Y-52180000D03*
X94000000Y-53450000D03*
X94000000Y-54720000D03*
X94000000Y-55990000D03*
X94000000Y-57260000D03*
D18*
X97285000Y-58750000D03*
X98555000Y-58750000D03*
X99825000Y-58750000D03*
X101095000Y-58750000D03*
X102365000Y-58750000D03*
X103635000Y-58750000D03*
X104905000Y-58750000D03*
X106175000Y-58750000D03*
X107445000Y-58750000D03*
X108715000Y-58750000D03*
D17*
X112000000Y-57260000D03*
X112000000Y-55990000D03*
X112000000Y-54720000D03*
X112000000Y-53450000D03*
X112000000Y-52180000D03*
X112000000Y-50910000D03*
X112000000Y-49640000D03*
X112000000Y-48370000D03*
X112000000Y-47100000D03*
X112000000Y-45830000D03*
X112000000Y-44560000D03*
X112000000Y-43290000D03*
X112000000Y-42020000D03*
X112000000Y-40750000D03*
%TD*%
%TO.C,U2*%
G36*
G01*
X87696000Y-62312500D02*
X87696000Y-62187500D01*
G75*
G02*
X87758500Y-62125000I62500J0D01*
G01*
X88458500Y-62125000D01*
G75*
G02*
X88521000Y-62187500I0J-62500D01*
G01*
X88521000Y-62312500D01*
G75*
G02*
X88458500Y-62375000I-62500J0D01*
G01*
X87758500Y-62375000D01*
G75*
G02*
X87696000Y-62312500I0J62500D01*
G01*
G37*
G36*
G01*
X87696000Y-62812500D02*
X87696000Y-62687500D01*
G75*
G02*
X87758500Y-62625000I62500J0D01*
G01*
X88458500Y-62625000D01*
G75*
G02*
X88521000Y-62687500I0J-62500D01*
G01*
X88521000Y-62812500D01*
G75*
G02*
X88458500Y-62875000I-62500J0D01*
G01*
X87758500Y-62875000D01*
G75*
G02*
X87696000Y-62812500I0J62500D01*
G01*
G37*
G36*
G01*
X87696000Y-63312500D02*
X87696000Y-63187500D01*
G75*
G02*
X87758500Y-63125000I62500J0D01*
G01*
X88458500Y-63125000D01*
G75*
G02*
X88521000Y-63187500I0J-62500D01*
G01*
X88521000Y-63312500D01*
G75*
G02*
X88458500Y-63375000I-62500J0D01*
G01*
X87758500Y-63375000D01*
G75*
G02*
X87696000Y-63312500I0J62500D01*
G01*
G37*
G36*
G01*
X87696000Y-63812500D02*
X87696000Y-63687500D01*
G75*
G02*
X87758500Y-63625000I62500J0D01*
G01*
X88458500Y-63625000D01*
G75*
G02*
X88521000Y-63687500I0J-62500D01*
G01*
X88521000Y-63812500D01*
G75*
G02*
X88458500Y-63875000I-62500J0D01*
G01*
X87758500Y-63875000D01*
G75*
G02*
X87696000Y-63812500I0J62500D01*
G01*
G37*
G36*
G01*
X87696000Y-64312500D02*
X87696000Y-64187500D01*
G75*
G02*
X87758500Y-64125000I62500J0D01*
G01*
X88458500Y-64125000D01*
G75*
G02*
X88521000Y-64187500I0J-62500D01*
G01*
X88521000Y-64312500D01*
G75*
G02*
X88458500Y-64375000I-62500J0D01*
G01*
X87758500Y-64375000D01*
G75*
G02*
X87696000Y-64312500I0J62500D01*
G01*
G37*
G36*
G01*
X87696000Y-64812500D02*
X87696000Y-64687500D01*
G75*
G02*
X87758500Y-64625000I62500J0D01*
G01*
X88458500Y-64625000D01*
G75*
G02*
X88521000Y-64687500I0J-62500D01*
G01*
X88521000Y-64812500D01*
G75*
G02*
X88458500Y-64875000I-62500J0D01*
G01*
X87758500Y-64875000D01*
G75*
G02*
X87696000Y-64812500I0J62500D01*
G01*
G37*
G36*
G01*
X88671000Y-65787500D02*
X88671000Y-65087500D01*
G75*
G02*
X88733500Y-65025000I62500J0D01*
G01*
X88858500Y-65025000D01*
G75*
G02*
X88921000Y-65087500I0J-62500D01*
G01*
X88921000Y-65787500D01*
G75*
G02*
X88858500Y-65850000I-62500J0D01*
G01*
X88733500Y-65850000D01*
G75*
G02*
X88671000Y-65787500I0J62500D01*
G01*
G37*
G36*
G01*
X89171000Y-65787500D02*
X89171000Y-65087500D01*
G75*
G02*
X89233500Y-65025000I62500J0D01*
G01*
X89358500Y-65025000D01*
G75*
G02*
X89421000Y-65087500I0J-62500D01*
G01*
X89421000Y-65787500D01*
G75*
G02*
X89358500Y-65850000I-62500J0D01*
G01*
X89233500Y-65850000D01*
G75*
G02*
X89171000Y-65787500I0J62500D01*
G01*
G37*
G36*
G01*
X89671000Y-65787500D02*
X89671000Y-65087500D01*
G75*
G02*
X89733500Y-65025000I62500J0D01*
G01*
X89858500Y-65025000D01*
G75*
G02*
X89921000Y-65087500I0J-62500D01*
G01*
X89921000Y-65787500D01*
G75*
G02*
X89858500Y-65850000I-62500J0D01*
G01*
X89733500Y-65850000D01*
G75*
G02*
X89671000Y-65787500I0J62500D01*
G01*
G37*
G36*
G01*
X90171000Y-65787500D02*
X90171000Y-65087500D01*
G75*
G02*
X90233500Y-65025000I62500J0D01*
G01*
X90358500Y-65025000D01*
G75*
G02*
X90421000Y-65087500I0J-62500D01*
G01*
X90421000Y-65787500D01*
G75*
G02*
X90358500Y-65850000I-62500J0D01*
G01*
X90233500Y-65850000D01*
G75*
G02*
X90171000Y-65787500I0J62500D01*
G01*
G37*
G36*
G01*
X90671000Y-65787500D02*
X90671000Y-65087500D01*
G75*
G02*
X90733500Y-65025000I62500J0D01*
G01*
X90858500Y-65025000D01*
G75*
G02*
X90921000Y-65087500I0J-62500D01*
G01*
X90921000Y-65787500D01*
G75*
G02*
X90858500Y-65850000I-62500J0D01*
G01*
X90733500Y-65850000D01*
G75*
G02*
X90671000Y-65787500I0J62500D01*
G01*
G37*
G36*
G01*
X91171000Y-65787500D02*
X91171000Y-65087500D01*
G75*
G02*
X91233500Y-65025000I62500J0D01*
G01*
X91358500Y-65025000D01*
G75*
G02*
X91421000Y-65087500I0J-62500D01*
G01*
X91421000Y-65787500D01*
G75*
G02*
X91358500Y-65850000I-62500J0D01*
G01*
X91233500Y-65850000D01*
G75*
G02*
X91171000Y-65787500I0J62500D01*
G01*
G37*
G36*
G01*
X91571000Y-64812500D02*
X91571000Y-64687500D01*
G75*
G02*
X91633500Y-64625000I62500J0D01*
G01*
X92333500Y-64625000D01*
G75*
G02*
X92396000Y-64687500I0J-62500D01*
G01*
X92396000Y-64812500D01*
G75*
G02*
X92333500Y-64875000I-62500J0D01*
G01*
X91633500Y-64875000D01*
G75*
G02*
X91571000Y-64812500I0J62500D01*
G01*
G37*
G36*
G01*
X91571000Y-64312500D02*
X91571000Y-64187500D01*
G75*
G02*
X91633500Y-64125000I62500J0D01*
G01*
X92333500Y-64125000D01*
G75*
G02*
X92396000Y-64187500I0J-62500D01*
G01*
X92396000Y-64312500D01*
G75*
G02*
X92333500Y-64375000I-62500J0D01*
G01*
X91633500Y-64375000D01*
G75*
G02*
X91571000Y-64312500I0J62500D01*
G01*
G37*
G36*
G01*
X91571000Y-63812500D02*
X91571000Y-63687500D01*
G75*
G02*
X91633500Y-63625000I62500J0D01*
G01*
X92333500Y-63625000D01*
G75*
G02*
X92396000Y-63687500I0J-62500D01*
G01*
X92396000Y-63812500D01*
G75*
G02*
X92333500Y-63875000I-62500J0D01*
G01*
X91633500Y-63875000D01*
G75*
G02*
X91571000Y-63812500I0J62500D01*
G01*
G37*
G36*
G01*
X91571000Y-63312500D02*
X91571000Y-63187500D01*
G75*
G02*
X91633500Y-63125000I62500J0D01*
G01*
X92333500Y-63125000D01*
G75*
G02*
X92396000Y-63187500I0J-62500D01*
G01*
X92396000Y-63312500D01*
G75*
G02*
X92333500Y-63375000I-62500J0D01*
G01*
X91633500Y-63375000D01*
G75*
G02*
X91571000Y-63312500I0J62500D01*
G01*
G37*
G36*
G01*
X91571000Y-62812500D02*
X91571000Y-62687500D01*
G75*
G02*
X91633500Y-62625000I62500J0D01*
G01*
X92333500Y-62625000D01*
G75*
G02*
X92396000Y-62687500I0J-62500D01*
G01*
X92396000Y-62812500D01*
G75*
G02*
X92333500Y-62875000I-62500J0D01*
G01*
X91633500Y-62875000D01*
G75*
G02*
X91571000Y-62812500I0J62500D01*
G01*
G37*
G36*
G01*
X91571000Y-62312500D02*
X91571000Y-62187500D01*
G75*
G02*
X91633500Y-62125000I62500J0D01*
G01*
X92333500Y-62125000D01*
G75*
G02*
X92396000Y-62187500I0J-62500D01*
G01*
X92396000Y-62312500D01*
G75*
G02*
X92333500Y-62375000I-62500J0D01*
G01*
X91633500Y-62375000D01*
G75*
G02*
X91571000Y-62312500I0J62500D01*
G01*
G37*
G36*
G01*
X91171000Y-61912500D02*
X91171000Y-61212500D01*
G75*
G02*
X91233500Y-61150000I62500J0D01*
G01*
X91358500Y-61150000D01*
G75*
G02*
X91421000Y-61212500I0J-62500D01*
G01*
X91421000Y-61912500D01*
G75*
G02*
X91358500Y-61975000I-62500J0D01*
G01*
X91233500Y-61975000D01*
G75*
G02*
X91171000Y-61912500I0J62500D01*
G01*
G37*
G36*
G01*
X90671000Y-61912500D02*
X90671000Y-61212500D01*
G75*
G02*
X90733500Y-61150000I62500J0D01*
G01*
X90858500Y-61150000D01*
G75*
G02*
X90921000Y-61212500I0J-62500D01*
G01*
X90921000Y-61912500D01*
G75*
G02*
X90858500Y-61975000I-62500J0D01*
G01*
X90733500Y-61975000D01*
G75*
G02*
X90671000Y-61912500I0J62500D01*
G01*
G37*
G36*
G01*
X90171000Y-61912500D02*
X90171000Y-61212500D01*
G75*
G02*
X90233500Y-61150000I62500J0D01*
G01*
X90358500Y-61150000D01*
G75*
G02*
X90421000Y-61212500I0J-62500D01*
G01*
X90421000Y-61912500D01*
G75*
G02*
X90358500Y-61975000I-62500J0D01*
G01*
X90233500Y-61975000D01*
G75*
G02*
X90171000Y-61912500I0J62500D01*
G01*
G37*
G36*
G01*
X89671000Y-61912500D02*
X89671000Y-61212500D01*
G75*
G02*
X89733500Y-61150000I62500J0D01*
G01*
X89858500Y-61150000D01*
G75*
G02*
X89921000Y-61212500I0J-62500D01*
G01*
X89921000Y-61912500D01*
G75*
G02*
X89858500Y-61975000I-62500J0D01*
G01*
X89733500Y-61975000D01*
G75*
G02*
X89671000Y-61912500I0J62500D01*
G01*
G37*
G36*
G01*
X89171000Y-61912500D02*
X89171000Y-61212500D01*
G75*
G02*
X89233500Y-61150000I62500J0D01*
G01*
X89358500Y-61150000D01*
G75*
G02*
X89421000Y-61212500I0J-62500D01*
G01*
X89421000Y-61912500D01*
G75*
G02*
X89358500Y-61975000I-62500J0D01*
G01*
X89233500Y-61975000D01*
G75*
G02*
X89171000Y-61912500I0J62500D01*
G01*
G37*
G36*
G01*
X88671000Y-61912500D02*
X88671000Y-61212500D01*
G75*
G02*
X88733500Y-61150000I62500J0D01*
G01*
X88858500Y-61150000D01*
G75*
G02*
X88921000Y-61212500I0J-62500D01*
G01*
X88921000Y-61912500D01*
G75*
G02*
X88858500Y-61975000I-62500J0D01*
G01*
X88733500Y-61975000D01*
G75*
G02*
X88671000Y-61912500I0J62500D01*
G01*
G37*
D19*
X90046000Y-63500000D03*
%TD*%
D20*
%TO.C,U1*%
X100700000Y-81150000D03*
X105300000Y-81150000D03*
X103000000Y-81150000D03*
D21*
X103000000Y-74850000D03*
%TD*%
D14*
%TO.C,Q2*%
X121350000Y-67100000D03*
X123250000Y-67100000D03*
X122300000Y-64100000D03*
%TD*%
%TO.C,Q1*%
X109734000Y-82966000D03*
X110684000Y-85966000D03*
X108784000Y-85966000D03*
%TD*%
%TO.C,C9*%
G36*
G01*
X89725000Y-52349997D02*
X89725000Y-53650003D01*
G75*
G02*
X89475003Y-53900000I-249997J0D01*
G01*
X88649997Y-53900000D01*
G75*
G02*
X88400000Y-53650003I0J249997D01*
G01*
X88400000Y-52349997D01*
G75*
G02*
X88649997Y-52100000I249997J0D01*
G01*
X89475003Y-52100000D01*
G75*
G02*
X89725000Y-52349997I0J-249997D01*
G01*
G37*
G36*
G01*
X86600000Y-52349997D02*
X86600000Y-53650003D01*
G75*
G02*
X86350003Y-53900000I-249997J0D01*
G01*
X85524997Y-53900000D01*
G75*
G02*
X85275000Y-53650003I0J249997D01*
G01*
X85275000Y-52349997D01*
G75*
G02*
X85524997Y-52100000I249997J0D01*
G01*
X86350003Y-52100000D01*
G75*
G02*
X86600000Y-52349997I0J-249997D01*
G01*
G37*
%TD*%
%TO.C,C7*%
G36*
G01*
X89725000Y-45349997D02*
X89725000Y-46650003D01*
G75*
G02*
X89475003Y-46900000I-249997J0D01*
G01*
X88649997Y-46900000D01*
G75*
G02*
X88400000Y-46650003I0J249997D01*
G01*
X88400000Y-45349997D01*
G75*
G02*
X88649997Y-45100000I249997J0D01*
G01*
X89475003Y-45100000D01*
G75*
G02*
X89725000Y-45349997I0J-249997D01*
G01*
G37*
G36*
G01*
X86600000Y-45349997D02*
X86600000Y-46650003D01*
G75*
G02*
X86350003Y-46900000I-249997J0D01*
G01*
X85524997Y-46900000D01*
G75*
G02*
X85275000Y-46650003I0J249997D01*
G01*
X85275000Y-45349997D01*
G75*
G02*
X85524997Y-45100000I249997J0D01*
G01*
X86350003Y-45100000D01*
G75*
G02*
X86600000Y-45349997I0J-249997D01*
G01*
G37*
%TD*%
%TO.C,C5*%
G36*
G01*
X82750003Y-67700000D02*
X81449997Y-67700000D01*
G75*
G02*
X81200000Y-67450003I0J249997D01*
G01*
X81200000Y-66624997D01*
G75*
G02*
X81449997Y-66375000I249997J0D01*
G01*
X82750003Y-66375000D01*
G75*
G02*
X83000000Y-66624997I0J-249997D01*
G01*
X83000000Y-67450003D01*
G75*
G02*
X82750003Y-67700000I-249997J0D01*
G01*
G37*
G36*
G01*
X82750003Y-70825000D02*
X81449997Y-70825000D01*
G75*
G02*
X81200000Y-70575003I0J249997D01*
G01*
X81200000Y-69749997D01*
G75*
G02*
X81449997Y-69500000I249997J0D01*
G01*
X82750003Y-69500000D01*
G75*
G02*
X83000000Y-69749997I0J-249997D01*
G01*
X83000000Y-70575003D01*
G75*
G02*
X82750003Y-70825000I-249997J0D01*
G01*
G37*
%TD*%
%TO.C,C3*%
G36*
G01*
X82750003Y-61900000D02*
X81449997Y-61900000D01*
G75*
G02*
X81200000Y-61650003I0J249997D01*
G01*
X81200000Y-60824997D01*
G75*
G02*
X81449997Y-60575000I249997J0D01*
G01*
X82750003Y-60575000D01*
G75*
G02*
X83000000Y-60824997I0J-249997D01*
G01*
X83000000Y-61650003D01*
G75*
G02*
X82750003Y-61900000I-249997J0D01*
G01*
G37*
G36*
G01*
X82750003Y-65025000D02*
X81449997Y-65025000D01*
G75*
G02*
X81200000Y-64775003I0J249997D01*
G01*
X81200000Y-63949997D01*
G75*
G02*
X81449997Y-63700000I249997J0D01*
G01*
X82750003Y-63700000D01*
G75*
G02*
X83000000Y-63949997I0J-249997D01*
G01*
X83000000Y-64775003D01*
G75*
G02*
X82750003Y-65025000I-249997J0D01*
G01*
G37*
%TD*%
%TO.C,C2*%
G36*
G01*
X110650003Y-75100000D02*
X109349997Y-75100000D01*
G75*
G02*
X109100000Y-74850003I0J249997D01*
G01*
X109100000Y-74024997D01*
G75*
G02*
X109349997Y-73775000I249997J0D01*
G01*
X110650003Y-73775000D01*
G75*
G02*
X110900000Y-74024997I0J-249997D01*
G01*
X110900000Y-74850003D01*
G75*
G02*
X110650003Y-75100000I-249997J0D01*
G01*
G37*
G36*
G01*
X110650003Y-78225000D02*
X109349997Y-78225000D01*
G75*
G02*
X109100000Y-77975003I0J249997D01*
G01*
X109100000Y-77149997D01*
G75*
G02*
X109349997Y-76900000I249997J0D01*
G01*
X110650003Y-76900000D01*
G75*
G02*
X110900000Y-77149997I0J-249997D01*
G01*
X110900000Y-77975003D01*
G75*
G02*
X110650003Y-78225000I-249997J0D01*
G01*
G37*
%TD*%
%TO.C,C1*%
G36*
G01*
X96650003Y-75100000D02*
X95349997Y-75100000D01*
G75*
G02*
X95100000Y-74850003I0J249997D01*
G01*
X95100000Y-74024997D01*
G75*
G02*
X95349997Y-73775000I249997J0D01*
G01*
X96650003Y-73775000D01*
G75*
G02*
X96900000Y-74024997I0J-249997D01*
G01*
X96900000Y-74850003D01*
G75*
G02*
X96650003Y-75100000I-249997J0D01*
G01*
G37*
G36*
G01*
X96650003Y-78225000D02*
X95349997Y-78225000D01*
G75*
G02*
X95100000Y-77975003I0J249997D01*
G01*
X95100000Y-77149997D01*
G75*
G02*
X95349997Y-76900000I249997J0D01*
G01*
X96650003Y-76900000D01*
G75*
G02*
X96900000Y-77149997I0J-249997D01*
G01*
X96900000Y-77975003D01*
G75*
G02*
X96650003Y-78225000I-249997J0D01*
G01*
G37*
%TD*%
D22*
%TO.C,M1*%
X99330000Y-88786600D03*
D23*
X101630000Y-85996600D03*
X102280000Y-85996600D03*
X104230000Y-85996600D03*
X103580000Y-85996600D03*
D24*
X100505000Y-85996600D03*
X105355000Y-85996600D03*
D23*
X102930000Y-85996600D03*
D22*
X106530000Y-88786600D03*
%TD*%
M02*
