%TF.GenerationSoftware,KiCad,Pcbnew,(5.1.9)-1*%
%TF.CreationDate,2021-04-30T15:53:42+02:00*%
%TF.ProjectId,AidonBoard32,4169646f-6e42-46f6-9172-6433322e6b69,2*%
%TF.SameCoordinates,Original*%
%TF.FileFunction,Legend,Bot*%
%TF.FilePolarity,Positive*%
%FSLAX46Y46*%
G04 Gerber Fmt 4.6, Leading zero omitted, Abs format (unit mm)*
G04 Created by KiCad (PCBNEW (5.1.9)-1) date 2021-04-30 15:53:42*
%MOMM*%
%LPD*%
G01*
G04 APERTURE LIST*
%ADD10C,0.300000*%
G04 APERTURE END LIST*
D10*
X111750000Y-67985714D02*
X111892857Y-67914285D01*
X112178571Y-67914285D01*
X112321428Y-67985714D01*
X112464285Y-68128571D01*
X112535714Y-68271428D01*
X112535714Y-68557142D01*
X112464285Y-68700000D01*
X112321428Y-68842857D01*
X112178571Y-68914285D01*
X111892857Y-68914285D01*
X111750000Y-68842857D01*
X112035714Y-67414285D02*
X112392857Y-67485714D01*
X112750000Y-67700000D01*
X112964285Y-68057142D01*
X113035714Y-68414285D01*
X112964285Y-68771428D01*
X112750000Y-69128571D01*
X112392857Y-69342857D01*
X112035714Y-69414285D01*
X111678571Y-69342857D01*
X111321428Y-69128571D01*
X111107142Y-68771428D01*
X111035714Y-68414285D01*
X111107142Y-68057142D01*
X111321428Y-67700000D01*
X111678571Y-67485714D01*
X112035714Y-67414285D01*
X109250000Y-69128571D02*
X109250000Y-67628571D01*
X109250000Y-68342857D02*
X108392857Y-68342857D01*
X108392857Y-69128571D02*
X108392857Y-67628571D01*
X107107142Y-69057142D02*
X107250000Y-69128571D01*
X107535714Y-69128571D01*
X107678571Y-69057142D01*
X107750000Y-68914285D01*
X107750000Y-68342857D01*
X107678571Y-68200000D01*
X107535714Y-68128571D01*
X107250000Y-68128571D01*
X107107142Y-68200000D01*
X107035714Y-68342857D01*
X107035714Y-68485714D01*
X107750000Y-68628571D01*
X106392857Y-68128571D02*
X106392857Y-69128571D01*
X106392857Y-68271428D02*
X106321428Y-68200000D01*
X106178571Y-68128571D01*
X105964285Y-68128571D01*
X105821428Y-68200000D01*
X105750000Y-68342857D01*
X105750000Y-69128571D01*
X105035714Y-69128571D02*
X105035714Y-68128571D01*
X105035714Y-68414285D02*
X104964285Y-68271428D01*
X104892857Y-68200000D01*
X104750000Y-68128571D01*
X104607142Y-68128571D01*
X104107142Y-69128571D02*
X104107142Y-68128571D01*
X104107142Y-67628571D02*
X104178571Y-67700000D01*
X104107142Y-67771428D01*
X104035714Y-67700000D01*
X104107142Y-67628571D01*
X104107142Y-67771428D01*
X103392857Y-69128571D02*
X103392857Y-67628571D01*
X103250000Y-68557142D02*
X102821428Y-69128571D01*
X102821428Y-68128571D02*
X103392857Y-68700000D01*
X101035714Y-69128571D02*
X101035714Y-67628571D01*
X100178571Y-69128571D01*
X100178571Y-67628571D01*
X98892857Y-69057142D02*
X99035714Y-69128571D01*
X99321428Y-69128571D01*
X99464285Y-69057142D01*
X99535714Y-68914285D01*
X99535714Y-68342857D01*
X99464285Y-68200000D01*
X99321428Y-68128571D01*
X99035714Y-68128571D01*
X98892857Y-68200000D01*
X98821428Y-68342857D01*
X98821428Y-68485714D01*
X99535714Y-68628571D01*
X97964285Y-69128571D02*
X98107142Y-69057142D01*
X98178571Y-68914285D01*
X98178571Y-67628571D01*
X97464285Y-69057142D02*
X97321428Y-69128571D01*
X97035714Y-69128571D01*
X96892857Y-69057142D01*
X96821428Y-68914285D01*
X96821428Y-68842857D01*
X96892857Y-68700000D01*
X97035714Y-68628571D01*
X97250000Y-68628571D01*
X97392857Y-68557142D01*
X97464285Y-68414285D01*
X97464285Y-68342857D01*
X97392857Y-68200000D01*
X97250000Y-68128571D01*
X97035714Y-68128571D01*
X96892857Y-68200000D01*
X95964285Y-69128571D02*
X96107142Y-69057142D01*
X96178571Y-68985714D01*
X96250000Y-68842857D01*
X96250000Y-68414285D01*
X96178571Y-68271428D01*
X96107142Y-68200000D01*
X95964285Y-68128571D01*
X95750000Y-68128571D01*
X95607142Y-68200000D01*
X95535714Y-68271428D01*
X95464285Y-68414285D01*
X95464285Y-68842857D01*
X95535714Y-68985714D01*
X95607142Y-69057142D01*
X95750000Y-69128571D01*
X95964285Y-69128571D01*
X94821428Y-68128571D02*
X94821428Y-69128571D01*
X94821428Y-68271428D02*
X94750000Y-68200000D01*
X94607142Y-68128571D01*
X94392857Y-68128571D01*
X94250000Y-68200000D01*
X94178571Y-68342857D01*
X94178571Y-69128571D01*
X114000000Y-72178571D02*
X114357142Y-72178571D01*
X114357142Y-70035714D01*
X114000000Y-70035714D01*
X113428571Y-71678571D02*
X113428571Y-70178571D01*
X112785714Y-71678571D02*
X112785714Y-70892857D01*
X112857142Y-70750000D01*
X113000000Y-70678571D01*
X113214285Y-70678571D01*
X113357142Y-70750000D01*
X113428571Y-70821428D01*
X111500000Y-71607142D02*
X111642857Y-71678571D01*
X111928571Y-71678571D01*
X112071428Y-71607142D01*
X112142857Y-71464285D01*
X112142857Y-70892857D01*
X112071428Y-70750000D01*
X111928571Y-70678571D01*
X111642857Y-70678571D01*
X111500000Y-70750000D01*
X111428571Y-70892857D01*
X111428571Y-71035714D01*
X112142857Y-71178571D01*
X110785714Y-70678571D02*
X110785714Y-71678571D01*
X110785714Y-70821428D02*
X110714285Y-70750000D01*
X110571428Y-70678571D01*
X110357142Y-70678571D01*
X110214285Y-70750000D01*
X110142857Y-70892857D01*
X110142857Y-71678571D01*
X109428571Y-71678571D02*
X109428571Y-70678571D01*
X109428571Y-70964285D02*
X109357142Y-70821428D01*
X109285714Y-70750000D01*
X109142857Y-70678571D01*
X109000000Y-70678571D01*
X108500000Y-71678571D02*
X108500000Y-70678571D01*
X108500000Y-70178571D02*
X108571428Y-70250000D01*
X108500000Y-70321428D01*
X108428571Y-70250000D01*
X108500000Y-70178571D01*
X108500000Y-70321428D01*
X107785714Y-71678571D02*
X107785714Y-70178571D01*
X107642857Y-71107142D02*
X107214285Y-71678571D01*
X107214285Y-70678571D02*
X107785714Y-71250000D01*
X105642857Y-70964285D02*
X105714285Y-70892857D01*
X105857142Y-70821428D01*
X106000000Y-70821428D01*
X106142857Y-70892857D01*
X106214285Y-70964285D01*
X106285714Y-71107142D01*
X106285714Y-71250000D01*
X106214285Y-71392857D01*
X106142857Y-71464285D01*
X106000000Y-71535714D01*
X105857142Y-71535714D01*
X105714285Y-71464285D01*
X105642857Y-71392857D01*
X105642857Y-70821428D02*
X105642857Y-71392857D01*
X105571428Y-71464285D01*
X105500000Y-71464285D01*
X105357142Y-71392857D01*
X105285714Y-71250000D01*
X105285714Y-70892857D01*
X105428571Y-70678571D01*
X105642857Y-70535714D01*
X105928571Y-70464285D01*
X106214285Y-70535714D01*
X106428571Y-70678571D01*
X106571428Y-70892857D01*
X106642857Y-71178571D01*
X106571428Y-71464285D01*
X106428571Y-71678571D01*
X106214285Y-71821428D01*
X105928571Y-71892857D01*
X105642857Y-71821428D01*
X105428571Y-71678571D01*
X104000000Y-71607142D02*
X104142857Y-71678571D01*
X104428571Y-71678571D01*
X104571428Y-71607142D01*
X104642857Y-71535714D01*
X104714285Y-71392857D01*
X104714285Y-70964285D01*
X104642857Y-70821428D01*
X104571428Y-70750000D01*
X104428571Y-70678571D01*
X104142857Y-70678571D01*
X104000000Y-70750000D01*
X103142857Y-71678571D02*
X103285714Y-71607142D01*
X103357142Y-71464285D01*
X103357142Y-70178571D01*
X102571428Y-71678571D02*
X102571428Y-70678571D01*
X102571428Y-70178571D02*
X102642857Y-70250000D01*
X102571428Y-70321428D01*
X102500000Y-70250000D01*
X102571428Y-70178571D01*
X102571428Y-70321428D01*
X102071428Y-70678571D02*
X101500000Y-70678571D01*
X101857142Y-71678571D02*
X101857142Y-70392857D01*
X101785714Y-70250000D01*
X101642857Y-70178571D01*
X101500000Y-70178571D01*
X101214285Y-70678571D02*
X100642857Y-70678571D01*
X101000000Y-71678571D02*
X101000000Y-70392857D01*
X100928571Y-70250000D01*
X100785714Y-70178571D01*
X100642857Y-70178571D01*
X99928571Y-71678571D02*
X100071428Y-71607142D01*
X100142857Y-71535714D01*
X100214285Y-71392857D01*
X100214285Y-70964285D01*
X100142857Y-70821428D01*
X100071428Y-70750000D01*
X99928571Y-70678571D01*
X99714285Y-70678571D01*
X99571428Y-70750000D01*
X99500000Y-70821428D01*
X99428571Y-70964285D01*
X99428571Y-71392857D01*
X99500000Y-71535714D01*
X99571428Y-71607142D01*
X99714285Y-71678571D01*
X99928571Y-71678571D01*
X98785714Y-71678571D02*
X98785714Y-70678571D01*
X98785714Y-70964285D02*
X98714285Y-70821428D01*
X98642857Y-70750000D01*
X98500000Y-70678571D01*
X98357142Y-70678571D01*
X97214285Y-71678571D02*
X97214285Y-70178571D01*
X97214285Y-71607142D02*
X97357142Y-71678571D01*
X97642857Y-71678571D01*
X97785714Y-71607142D01*
X97857142Y-71535714D01*
X97928571Y-71392857D01*
X97928571Y-70964285D01*
X97857142Y-70821428D01*
X97785714Y-70750000D01*
X97642857Y-70678571D01*
X97357142Y-70678571D01*
X97214285Y-70750000D01*
X96571428Y-71607142D02*
X96428571Y-71678571D01*
X96142857Y-71678571D01*
X96000000Y-71607142D01*
X95928571Y-71464285D01*
X95928571Y-71392857D01*
X96000000Y-71250000D01*
X96142857Y-71178571D01*
X96357142Y-71178571D01*
X96500000Y-71107142D01*
X96571428Y-70964285D01*
X96571428Y-70892857D01*
X96500000Y-70750000D01*
X96357142Y-70678571D01*
X96142857Y-70678571D01*
X96000000Y-70750000D01*
X95285714Y-71535714D02*
X95214285Y-71607142D01*
X95285714Y-71678571D01*
X95357142Y-71607142D01*
X95285714Y-71535714D01*
X95285714Y-71678571D01*
X94571428Y-70678571D02*
X94571428Y-71678571D01*
X94571428Y-70821428D02*
X94500000Y-70750000D01*
X94357142Y-70678571D01*
X94142857Y-70678571D01*
X94000000Y-70750000D01*
X93928571Y-70892857D01*
X93928571Y-71678571D01*
X92571428Y-70678571D02*
X92571428Y-71678571D01*
X93214285Y-70678571D02*
X93214285Y-71464285D01*
X93142857Y-71607142D01*
X93000000Y-71678571D01*
X92785714Y-71678571D01*
X92642857Y-71607142D01*
X92571428Y-71535714D01*
X92000000Y-72178571D02*
X91642857Y-72178571D01*
X91642857Y-70035714D01*
X92000000Y-70035714D01*
X105571428Y-72871428D02*
X105500000Y-72800000D01*
X105357142Y-72728571D01*
X105000000Y-72728571D01*
X104857142Y-72800000D01*
X104785714Y-72871428D01*
X104714285Y-73014285D01*
X104714285Y-73157142D01*
X104785714Y-73371428D01*
X105642857Y-74228571D01*
X104714285Y-74228571D01*
X103785714Y-72728571D02*
X103642857Y-72728571D01*
X103500000Y-72800000D01*
X103428571Y-72871428D01*
X103357142Y-73014285D01*
X103285714Y-73300000D01*
X103285714Y-73657142D01*
X103357142Y-73942857D01*
X103428571Y-74085714D01*
X103500000Y-74157142D01*
X103642857Y-74228571D01*
X103785714Y-74228571D01*
X103928571Y-74157142D01*
X104000000Y-74085714D01*
X104071428Y-73942857D01*
X104142857Y-73657142D01*
X104142857Y-73300000D01*
X104071428Y-73014285D01*
X104000000Y-72871428D01*
X103928571Y-72800000D01*
X103785714Y-72728571D01*
X102714285Y-72871428D02*
X102642857Y-72800000D01*
X102500000Y-72728571D01*
X102142857Y-72728571D01*
X102000000Y-72800000D01*
X101928571Y-72871428D01*
X101857142Y-73014285D01*
X101857142Y-73157142D01*
X101928571Y-73371428D01*
X102785714Y-74228571D01*
X101857142Y-74228571D01*
X100428571Y-74228571D02*
X101285714Y-74228571D01*
X100857142Y-74228571D02*
X100857142Y-72728571D01*
X101000000Y-72942857D01*
X101142857Y-73085714D01*
X101285714Y-73157142D01*
M02*
