%TF.GenerationSoftware,KiCad,Pcbnew,(5.1.9)-1*%
%TF.CreationDate,2021-04-30T15:53:42+02:00*%
%TF.ProjectId,AidonBoard32,4169646f-6e42-46f6-9172-6433322e6b69,2*%
%TF.SameCoordinates,Original*%
%TF.FileFunction,Copper,L1,Top*%
%TF.FilePolarity,Positive*%
%FSLAX46Y46*%
G04 Gerber Fmt 4.6, Leading zero omitted, Abs format (unit mm)*
G04 Created by KiCad (PCBNEW (5.1.9)-1) date 2021-04-30 15:53:42*
%MOMM*%
%LPD*%
G01*
G04 APERTURE LIST*
%TA.AperFunction,ComponentPad*%
%ADD10C,1.398000*%
%TD*%
%TA.AperFunction,ComponentPad*%
%ADD11R,1.398000X1.398000*%
%TD*%
%TA.AperFunction,SMDPad,CuDef*%
%ADD12R,1.500000X1.000000*%
%TD*%
%TA.AperFunction,SMDPad,CuDef*%
%ADD13R,0.800000X1.900000*%
%TD*%
%TA.AperFunction,SMDPad,CuDef*%
%ADD14R,1.800000X2.500000*%
%TD*%
%TA.AperFunction,SMDPad,CuDef*%
%ADD15R,6.000000X6.000000*%
%TD*%
%TA.AperFunction,SMDPad,CuDef*%
%ADD16O,2.500000X0.900000*%
%TD*%
%TA.AperFunction,SMDPad,CuDef*%
%ADD17O,0.900000X2.500000*%
%TD*%
%TA.AperFunction,SMDPad,CuDef*%
%ADD18R,2.600000X2.600000*%
%TD*%
%TA.AperFunction,SMDPad,CuDef*%
%ADD19R,1.500000X2.000000*%
%TD*%
%TA.AperFunction,SMDPad,CuDef*%
%ADD20R,3.800000X2.000000*%
%TD*%
%TA.AperFunction,ComponentPad*%
%ADD21O,1.100000X1.800000*%
%TD*%
%TA.AperFunction,SMDPad,CuDef*%
%ADD22R,0.400000X1.250000*%
%TD*%
%TA.AperFunction,ComponentPad*%
%ADD23C,1.250000*%
%TD*%
%TA.AperFunction,ViaPad*%
%ADD24C,0.600000*%
%TD*%
%TA.AperFunction,Conductor*%
%ADD25C,0.250000*%
%TD*%
%TA.AperFunction,Conductor*%
%ADD26C,0.254000*%
%TD*%
%TA.AperFunction,Conductor*%
%ADD27C,0.100000*%
%TD*%
G04 APERTURE END LIST*
D10*
%TO.P,J1,6*%
%TO.N,GND*%
X122850000Y-77040000D03*
%TO.P,J1,5*%
%TO.N,/HAN_OUT*%
X121580000Y-74500000D03*
%TO.P,J1,4*%
%TO.N,N/C*%
X120310000Y-77040000D03*
%TO.P,J1,3*%
%TO.N,GND*%
X119040000Y-74500000D03*
%TO.P,J1,2*%
%TO.N,+5V*%
X117770000Y-77040000D03*
D11*
%TO.P,J1,1*%
X116500000Y-74500000D03*
%TD*%
%TO.P,R12,1*%
%TO.N,+3V3*%
%TA.AperFunction,SMDPad,CuDef*%
G36*
G01*
X119237500Y-51850000D02*
X118762500Y-51850000D01*
G75*
G02*
X118525000Y-51612500I0J237500D01*
G01*
X118525000Y-51112500D01*
G75*
G02*
X118762500Y-50875000I237500J0D01*
G01*
X119237500Y-50875000D01*
G75*
G02*
X119475000Y-51112500I0J-237500D01*
G01*
X119475000Y-51612500D01*
G75*
G02*
X119237500Y-51850000I-237500J0D01*
G01*
G37*
%TD.AperFunction*%
%TO.P,R12,2*%
%TO.N,/UART_RX*%
%TA.AperFunction,SMDPad,CuDef*%
G36*
G01*
X119237500Y-50025000D02*
X118762500Y-50025000D01*
G75*
G02*
X118525000Y-49787500I0J237500D01*
G01*
X118525000Y-49287500D01*
G75*
G02*
X118762500Y-49050000I237500J0D01*
G01*
X119237500Y-49050000D01*
G75*
G02*
X119475000Y-49287500I0J-237500D01*
G01*
X119475000Y-49787500D01*
G75*
G02*
X119237500Y-50025000I-237500J0D01*
G01*
G37*
%TD.AperFunction*%
%TD*%
D12*
%TO.P,D6,1*%
%TO.N,VCC*%
X100550000Y-63650000D03*
%TO.P,D6,2*%
%TO.N,N/C*%
X100550000Y-66850000D03*
%TO.P,D6,4*%
%TO.N,/IO13*%
X105450000Y-63650000D03*
%TO.P,D6,3*%
%TO.N,GND*%
X105450000Y-66850000D03*
%TD*%
%TO.P,D5,2*%
%TO.N,+3V3*%
%TA.AperFunction,SMDPad,CuDef*%
G36*
G01*
X87564900Y-85152400D02*
X88039900Y-85152400D01*
G75*
G02*
X88277400Y-85389900I0J-237500D01*
G01*
X88277400Y-85964900D01*
G75*
G02*
X88039900Y-86202400I-237500J0D01*
G01*
X87564900Y-86202400D01*
G75*
G02*
X87327400Y-85964900I0J237500D01*
G01*
X87327400Y-85389900D01*
G75*
G02*
X87564900Y-85152400I237500J0D01*
G01*
G37*
%TD.AperFunction*%
%TO.P,D5,1*%
%TO.N,Net-(D5-Pad1)*%
%TA.AperFunction,SMDPad,CuDef*%
G36*
G01*
X87564900Y-83402400D02*
X88039900Y-83402400D01*
G75*
G02*
X88277400Y-83639900I0J-237500D01*
G01*
X88277400Y-84214900D01*
G75*
G02*
X88039900Y-84452400I-237500J0D01*
G01*
X87564900Y-84452400D01*
G75*
G02*
X87327400Y-84214900I0J237500D01*
G01*
X87327400Y-83639900D01*
G75*
G02*
X87564900Y-83402400I237500J0D01*
G01*
G37*
%TD.AperFunction*%
%TD*%
D13*
%TO.P,Q3,1*%
%TO.N,Net-(Q3-Pad1)*%
X117350000Y-65100000D03*
%TO.P,Q3,2*%
%TO.N,/DTR*%
X119250000Y-65100000D03*
%TO.P,Q3,3*%
%TO.N,/IO0*%
X118300000Y-62100000D03*
%TD*%
%TO.P,R11,1*%
%TO.N,Net-(Q4-Pad1)*%
%TA.AperFunction,SMDPad,CuDef*%
G36*
G01*
X120762500Y-49050000D02*
X121237500Y-49050000D01*
G75*
G02*
X121475000Y-49287500I0J-237500D01*
G01*
X121475000Y-49787500D01*
G75*
G02*
X121237500Y-50025000I-237500J0D01*
G01*
X120762500Y-50025000D01*
G75*
G02*
X120525000Y-49787500I0J237500D01*
G01*
X120525000Y-49287500D01*
G75*
G02*
X120762500Y-49050000I237500J0D01*
G01*
G37*
%TD.AperFunction*%
%TO.P,R11,2*%
%TO.N,/HAN_OUT*%
%TA.AperFunction,SMDPad,CuDef*%
G36*
G01*
X120762500Y-50875000D02*
X121237500Y-50875000D01*
G75*
G02*
X121475000Y-51112500I0J-237500D01*
G01*
X121475000Y-51612500D01*
G75*
G02*
X121237500Y-51850000I-237500J0D01*
G01*
X120762500Y-51850000D01*
G75*
G02*
X120525000Y-51612500I0J237500D01*
G01*
X120525000Y-51112500D01*
G75*
G02*
X120762500Y-50875000I237500J0D01*
G01*
G37*
%TD.AperFunction*%
%TD*%
%TO.P,R10,1*%
%TO.N,+5V*%
%TA.AperFunction,SMDPad,CuDef*%
G36*
G01*
X118650000Y-53637500D02*
X118650000Y-53162500D01*
G75*
G02*
X118887500Y-52925000I237500J0D01*
G01*
X119387500Y-52925000D01*
G75*
G02*
X119625000Y-53162500I0J-237500D01*
G01*
X119625000Y-53637500D01*
G75*
G02*
X119387500Y-53875000I-237500J0D01*
G01*
X118887500Y-53875000D01*
G75*
G02*
X118650000Y-53637500I0J237500D01*
G01*
G37*
%TD.AperFunction*%
%TO.P,R10,2*%
%TO.N,/HAN_OUT*%
%TA.AperFunction,SMDPad,CuDef*%
G36*
G01*
X120475000Y-53637500D02*
X120475000Y-53162500D01*
G75*
G02*
X120712500Y-52925000I237500J0D01*
G01*
X121212500Y-52925000D01*
G75*
G02*
X121450000Y-53162500I0J-237500D01*
G01*
X121450000Y-53637500D01*
G75*
G02*
X121212500Y-53875000I-237500J0D01*
G01*
X120712500Y-53875000D01*
G75*
G02*
X120475000Y-53637500I0J237500D01*
G01*
G37*
%TD.AperFunction*%
%TD*%
%TO.P,R9,2*%
%TO.N,Net-(D5-Pad1)*%
%TA.AperFunction,SMDPad,CuDef*%
G36*
G01*
X83662500Y-75821000D02*
X84137500Y-75821000D01*
G75*
G02*
X84375000Y-76058500I0J-237500D01*
G01*
X84375000Y-76558500D01*
G75*
G02*
X84137500Y-76796000I-237500J0D01*
G01*
X83662500Y-76796000D01*
G75*
G02*
X83425000Y-76558500I0J237500D01*
G01*
X83425000Y-76058500D01*
G75*
G02*
X83662500Y-75821000I237500J0D01*
G01*
G37*
%TD.AperFunction*%
%TO.P,R9,1*%
%TO.N,GND*%
%TA.AperFunction,SMDPad,CuDef*%
G36*
G01*
X83662500Y-73996000D02*
X84137500Y-73996000D01*
G75*
G02*
X84375000Y-74233500I0J-237500D01*
G01*
X84375000Y-74733500D01*
G75*
G02*
X84137500Y-74971000I-237500J0D01*
G01*
X83662500Y-74971000D01*
G75*
G02*
X83425000Y-74733500I0J237500D01*
G01*
X83425000Y-74233500D01*
G75*
G02*
X83662500Y-73996000I237500J0D01*
G01*
G37*
%TD.AperFunction*%
%TD*%
%TO.P,R8,2*%
%TO.N,Net-(D4-Pad1)*%
%TA.AperFunction,SMDPad,CuDef*%
G36*
G01*
X81362500Y-75824100D02*
X81837500Y-75824100D01*
G75*
G02*
X82075000Y-76061600I0J-237500D01*
G01*
X82075000Y-76561600D01*
G75*
G02*
X81837500Y-76799100I-237500J0D01*
G01*
X81362500Y-76799100D01*
G75*
G02*
X81125000Y-76561600I0J237500D01*
G01*
X81125000Y-76061600D01*
G75*
G02*
X81362500Y-75824100I237500J0D01*
G01*
G37*
%TD.AperFunction*%
%TO.P,R8,1*%
%TO.N,GND*%
%TA.AperFunction,SMDPad,CuDef*%
G36*
G01*
X81362500Y-73999100D02*
X81837500Y-73999100D01*
G75*
G02*
X82075000Y-74236600I0J-237500D01*
G01*
X82075000Y-74736600D01*
G75*
G02*
X81837500Y-74974100I-237500J0D01*
G01*
X81362500Y-74974100D01*
G75*
G02*
X81125000Y-74736600I0J237500D01*
G01*
X81125000Y-74236600D01*
G75*
G02*
X81362500Y-73999100I237500J0D01*
G01*
G37*
%TD.AperFunction*%
%TD*%
%TO.P,R7,1*%
%TO.N,/LED_RX*%
%TA.AperFunction,SMDPad,CuDef*%
G36*
G01*
X97090500Y-62970000D02*
X97565500Y-62970000D01*
G75*
G02*
X97803000Y-63207500I0J-237500D01*
G01*
X97803000Y-63707500D01*
G75*
G02*
X97565500Y-63945000I-237500J0D01*
G01*
X97090500Y-63945000D01*
G75*
G02*
X96853000Y-63707500I0J237500D01*
G01*
X96853000Y-63207500D01*
G75*
G02*
X97090500Y-62970000I237500J0D01*
G01*
G37*
%TD.AperFunction*%
%TO.P,R7,2*%
%TO.N,Net-(D3-Pad1)*%
%TA.AperFunction,SMDPad,CuDef*%
G36*
G01*
X97090500Y-64795000D02*
X97565500Y-64795000D01*
G75*
G02*
X97803000Y-65032500I0J-237500D01*
G01*
X97803000Y-65532500D01*
G75*
G02*
X97565500Y-65770000I-237500J0D01*
G01*
X97090500Y-65770000D01*
G75*
G02*
X96853000Y-65532500I0J237500D01*
G01*
X96853000Y-65032500D01*
G75*
G02*
X97090500Y-64795000I237500J0D01*
G01*
G37*
%TD.AperFunction*%
%TD*%
%TO.P,R6,2*%
%TO.N,Net-(D2-Pad1)*%
%TA.AperFunction,SMDPad,CuDef*%
G36*
G01*
X94840500Y-64795000D02*
X95315500Y-64795000D01*
G75*
G02*
X95553000Y-65032500I0J-237500D01*
G01*
X95553000Y-65532500D01*
G75*
G02*
X95315500Y-65770000I-237500J0D01*
G01*
X94840500Y-65770000D01*
G75*
G02*
X94603000Y-65532500I0J237500D01*
G01*
X94603000Y-65032500D01*
G75*
G02*
X94840500Y-64795000I237500J0D01*
G01*
G37*
%TD.AperFunction*%
%TO.P,R6,1*%
%TO.N,/LED_TX*%
%TA.AperFunction,SMDPad,CuDef*%
G36*
G01*
X94840500Y-62970000D02*
X95315500Y-62970000D01*
G75*
G02*
X95553000Y-63207500I0J-237500D01*
G01*
X95553000Y-63707500D01*
G75*
G02*
X95315500Y-63945000I-237500J0D01*
G01*
X94840500Y-63945000D01*
G75*
G02*
X94603000Y-63707500I0J237500D01*
G01*
X94603000Y-63207500D01*
G75*
G02*
X94840500Y-62970000I237500J0D01*
G01*
G37*
%TD.AperFunction*%
%TD*%
%TO.P,R5,2*%
%TO.N,/RTS*%
%TA.AperFunction,SMDPad,CuDef*%
G36*
G01*
X122725000Y-61837500D02*
X122725000Y-61362500D01*
G75*
G02*
X122962500Y-61125000I237500J0D01*
G01*
X123462500Y-61125000D01*
G75*
G02*
X123700000Y-61362500I0J-237500D01*
G01*
X123700000Y-61837500D01*
G75*
G02*
X123462500Y-62075000I-237500J0D01*
G01*
X122962500Y-62075000D01*
G75*
G02*
X122725000Y-61837500I0J237500D01*
G01*
G37*
%TD.AperFunction*%
%TO.P,R5,1*%
%TO.N,Net-(Q3-Pad1)*%
%TA.AperFunction,SMDPad,CuDef*%
G36*
G01*
X120900000Y-61837500D02*
X120900000Y-61362500D01*
G75*
G02*
X121137500Y-61125000I237500J0D01*
G01*
X121637500Y-61125000D01*
G75*
G02*
X121875000Y-61362500I0J-237500D01*
G01*
X121875000Y-61837500D01*
G75*
G02*
X121637500Y-62075000I-237500J0D01*
G01*
X121137500Y-62075000D01*
G75*
G02*
X120900000Y-61837500I0J237500D01*
G01*
G37*
%TD.AperFunction*%
%TD*%
%TO.P,R4,1*%
%TO.N,Net-(Q2-Pad1)*%
%TA.AperFunction,SMDPad,CuDef*%
G36*
G01*
X119700000Y-67362500D02*
X119700000Y-67837500D01*
G75*
G02*
X119462500Y-68075000I-237500J0D01*
G01*
X118962500Y-68075000D01*
G75*
G02*
X118725000Y-67837500I0J237500D01*
G01*
X118725000Y-67362500D01*
G75*
G02*
X118962500Y-67125000I237500J0D01*
G01*
X119462500Y-67125000D01*
G75*
G02*
X119700000Y-67362500I0J-237500D01*
G01*
G37*
%TD.AperFunction*%
%TO.P,R4,2*%
%TO.N,/DTR*%
%TA.AperFunction,SMDPad,CuDef*%
G36*
G01*
X117875000Y-67362500D02*
X117875000Y-67837500D01*
G75*
G02*
X117637500Y-68075000I-237500J0D01*
G01*
X117137500Y-68075000D01*
G75*
G02*
X116900000Y-67837500I0J237500D01*
G01*
X116900000Y-67362500D01*
G75*
G02*
X117137500Y-67125000I237500J0D01*
G01*
X117637500Y-67125000D01*
G75*
G02*
X117875000Y-67362500I0J-237500D01*
G01*
G37*
%TD.AperFunction*%
%TD*%
%TO.P,R3,1*%
%TO.N,+3V3*%
%TA.AperFunction,SMDPad,CuDef*%
G36*
G01*
X88762500Y-48100000D02*
X89237500Y-48100000D01*
G75*
G02*
X89475000Y-48337500I0J-237500D01*
G01*
X89475000Y-48837500D01*
G75*
G02*
X89237500Y-49075000I-237500J0D01*
G01*
X88762500Y-49075000D01*
G75*
G02*
X88525000Y-48837500I0J237500D01*
G01*
X88525000Y-48337500D01*
G75*
G02*
X88762500Y-48100000I237500J0D01*
G01*
G37*
%TD.AperFunction*%
%TO.P,R3,2*%
%TO.N,/EN*%
%TA.AperFunction,SMDPad,CuDef*%
G36*
G01*
X88762500Y-49925000D02*
X89237500Y-49925000D01*
G75*
G02*
X89475000Y-50162500I0J-237500D01*
G01*
X89475000Y-50662500D01*
G75*
G02*
X89237500Y-50900000I-237500J0D01*
G01*
X88762500Y-50900000D01*
G75*
G02*
X88525000Y-50662500I0J237500D01*
G01*
X88525000Y-50162500D01*
G75*
G02*
X88762500Y-49925000I237500J0D01*
G01*
G37*
%TD.AperFunction*%
%TD*%
%TO.P,R2,2*%
%TO.N,+3V3*%
%TA.AperFunction,SMDPad,CuDef*%
G36*
G01*
X87776500Y-69743000D02*
X88251500Y-69743000D01*
G75*
G02*
X88489000Y-69980500I0J-237500D01*
G01*
X88489000Y-70480500D01*
G75*
G02*
X88251500Y-70718000I-237500J0D01*
G01*
X87776500Y-70718000D01*
G75*
G02*
X87539000Y-70480500I0J237500D01*
G01*
X87539000Y-69980500D01*
G75*
G02*
X87776500Y-69743000I237500J0D01*
G01*
G37*
%TD.AperFunction*%
%TO.P,R2,1*%
%TO.N,Net-(R2-Pad1)*%
%TA.AperFunction,SMDPad,CuDef*%
G36*
G01*
X87776500Y-67918000D02*
X88251500Y-67918000D01*
G75*
G02*
X88489000Y-68155500I0J-237500D01*
G01*
X88489000Y-68655500D01*
G75*
G02*
X88251500Y-68893000I-237500J0D01*
G01*
X87776500Y-68893000D01*
G75*
G02*
X87539000Y-68655500I0J237500D01*
G01*
X87539000Y-68155500D01*
G75*
G02*
X87776500Y-67918000I237500J0D01*
G01*
G37*
%TD.AperFunction*%
%TD*%
%TO.P,R1,1*%
%TO.N,VBUS*%
%TA.AperFunction,SMDPad,CuDef*%
G36*
G01*
X92315500Y-70718000D02*
X91840500Y-70718000D01*
G75*
G02*
X91603000Y-70480500I0J237500D01*
G01*
X91603000Y-69980500D01*
G75*
G02*
X91840500Y-69743000I237500J0D01*
G01*
X92315500Y-69743000D01*
G75*
G02*
X92553000Y-69980500I0J-237500D01*
G01*
X92553000Y-70480500D01*
G75*
G02*
X92315500Y-70718000I-237500J0D01*
G01*
G37*
%TD.AperFunction*%
%TO.P,R1,2*%
%TO.N,GND*%
%TA.AperFunction,SMDPad,CuDef*%
G36*
G01*
X92315500Y-68893000D02*
X91840500Y-68893000D01*
G75*
G02*
X91603000Y-68655500I0J237500D01*
G01*
X91603000Y-68155500D01*
G75*
G02*
X91840500Y-67918000I237500J0D01*
G01*
X92315500Y-67918000D01*
G75*
G02*
X92553000Y-68155500I0J-237500D01*
G01*
X92553000Y-68655500D01*
G75*
G02*
X92315500Y-68893000I-237500J0D01*
G01*
G37*
%TD.AperFunction*%
%TD*%
%TO.P,Q4,1*%
%TO.N,Net-(Q4-Pad1)*%
X120950000Y-44000000D03*
%TO.P,Q4,2*%
%TO.N,GND*%
X119050000Y-44000000D03*
%TO.P,Q4,3*%
%TO.N,/UART_RX*%
X120000000Y-47000000D03*
%TD*%
%TO.P,D4,2*%
%TO.N,+3V3*%
%TA.AperFunction,SMDPad,CuDef*%
G36*
G01*
X84969600Y-85324200D02*
X85444600Y-85324200D01*
G75*
G02*
X85682100Y-85561700I0J-237500D01*
G01*
X85682100Y-86136700D01*
G75*
G02*
X85444600Y-86374200I-237500J0D01*
G01*
X84969600Y-86374200D01*
G75*
G02*
X84732100Y-86136700I0J237500D01*
G01*
X84732100Y-85561700D01*
G75*
G02*
X84969600Y-85324200I237500J0D01*
G01*
G37*
%TD.AperFunction*%
%TO.P,D4,1*%
%TO.N,Net-(D4-Pad1)*%
%TA.AperFunction,SMDPad,CuDef*%
G36*
G01*
X84969600Y-83574200D02*
X85444600Y-83574200D01*
G75*
G02*
X85682100Y-83811700I0J-237500D01*
G01*
X85682100Y-84386700D01*
G75*
G02*
X85444600Y-84624200I-237500J0D01*
G01*
X84969600Y-84624200D01*
G75*
G02*
X84732100Y-84386700I0J237500D01*
G01*
X84732100Y-83811700D01*
G75*
G02*
X84969600Y-83574200I237500J0D01*
G01*
G37*
%TD.AperFunction*%
%TD*%
%TO.P,D3,2*%
%TO.N,+3V3*%
%TA.AperFunction,SMDPad,CuDef*%
G36*
G01*
X97174500Y-69668000D02*
X97649500Y-69668000D01*
G75*
G02*
X97887000Y-69905500I0J-237500D01*
G01*
X97887000Y-70480500D01*
G75*
G02*
X97649500Y-70718000I-237500J0D01*
G01*
X97174500Y-70718000D01*
G75*
G02*
X96937000Y-70480500I0J237500D01*
G01*
X96937000Y-69905500D01*
G75*
G02*
X97174500Y-69668000I237500J0D01*
G01*
G37*
%TD.AperFunction*%
%TO.P,D3,1*%
%TO.N,Net-(D3-Pad1)*%
%TA.AperFunction,SMDPad,CuDef*%
G36*
G01*
X97174500Y-67918000D02*
X97649500Y-67918000D01*
G75*
G02*
X97887000Y-68155500I0J-237500D01*
G01*
X97887000Y-68730500D01*
G75*
G02*
X97649500Y-68968000I-237500J0D01*
G01*
X97174500Y-68968000D01*
G75*
G02*
X96937000Y-68730500I0J237500D01*
G01*
X96937000Y-68155500D01*
G75*
G02*
X97174500Y-67918000I237500J0D01*
G01*
G37*
%TD.AperFunction*%
%TD*%
%TO.P,D2,2*%
%TO.N,+3V3*%
%TA.AperFunction,SMDPad,CuDef*%
G36*
G01*
X94888500Y-69668000D02*
X95363500Y-69668000D01*
G75*
G02*
X95601000Y-69905500I0J-237500D01*
G01*
X95601000Y-70480500D01*
G75*
G02*
X95363500Y-70718000I-237500J0D01*
G01*
X94888500Y-70718000D01*
G75*
G02*
X94651000Y-70480500I0J237500D01*
G01*
X94651000Y-69905500D01*
G75*
G02*
X94888500Y-69668000I237500J0D01*
G01*
G37*
%TD.AperFunction*%
%TO.P,D2,1*%
%TO.N,Net-(D2-Pad1)*%
%TA.AperFunction,SMDPad,CuDef*%
G36*
G01*
X94888500Y-67918000D02*
X95363500Y-67918000D01*
G75*
G02*
X95601000Y-68155500I0J-237500D01*
G01*
X95601000Y-68730500D01*
G75*
G02*
X95363500Y-68968000I-237500J0D01*
G01*
X94888500Y-68968000D01*
G75*
G02*
X94651000Y-68730500I0J237500D01*
G01*
X94651000Y-68155500D01*
G75*
G02*
X94888500Y-67918000I237500J0D01*
G01*
G37*
%TD.AperFunction*%
%TD*%
D14*
%TO.P,D1,2*%
%TO.N,VBUS*%
X96000000Y-85750000D03*
%TO.P,D1,1*%
%TO.N,VCC*%
X96000000Y-81750000D03*
%TD*%
%TO.P,C10,1*%
%TO.N,GND*%
%TA.AperFunction,SMDPad,CuDef*%
G36*
G01*
X104400000Y-70262500D02*
X104400000Y-70737500D01*
G75*
G02*
X104162500Y-70975000I-237500J0D01*
G01*
X103562500Y-70975000D01*
G75*
G02*
X103325000Y-70737500I0J237500D01*
G01*
X103325000Y-70262500D01*
G75*
G02*
X103562500Y-70025000I237500J0D01*
G01*
X104162500Y-70025000D01*
G75*
G02*
X104400000Y-70262500I0J-237500D01*
G01*
G37*
%TD.AperFunction*%
%TO.P,C10,2*%
%TO.N,VCC*%
%TA.AperFunction,SMDPad,CuDef*%
G36*
G01*
X102675000Y-70262500D02*
X102675000Y-70737500D01*
G75*
G02*
X102437500Y-70975000I-237500J0D01*
G01*
X101837500Y-70975000D01*
G75*
G02*
X101600000Y-70737500I0J237500D01*
G01*
X101600000Y-70262500D01*
G75*
G02*
X101837500Y-70025000I237500J0D01*
G01*
X102437500Y-70025000D01*
G75*
G02*
X102675000Y-70262500I0J-237500D01*
G01*
G37*
%TD.AperFunction*%
%TD*%
%TO.P,C8,1*%
%TO.N,+3V3*%
%TA.AperFunction,SMDPad,CuDef*%
G36*
G01*
X85762500Y-48100000D02*
X86237500Y-48100000D01*
G75*
G02*
X86475000Y-48337500I0J-237500D01*
G01*
X86475000Y-48937500D01*
G75*
G02*
X86237500Y-49175000I-237500J0D01*
G01*
X85762500Y-49175000D01*
G75*
G02*
X85525000Y-48937500I0J237500D01*
G01*
X85525000Y-48337500D01*
G75*
G02*
X85762500Y-48100000I237500J0D01*
G01*
G37*
%TD.AperFunction*%
%TO.P,C8,2*%
%TO.N,GND*%
%TA.AperFunction,SMDPad,CuDef*%
G36*
G01*
X85762500Y-49825000D02*
X86237500Y-49825000D01*
G75*
G02*
X86475000Y-50062500I0J-237500D01*
G01*
X86475000Y-50662500D01*
G75*
G02*
X86237500Y-50900000I-237500J0D01*
G01*
X85762500Y-50900000D01*
G75*
G02*
X85525000Y-50662500I0J237500D01*
G01*
X85525000Y-50062500D01*
G75*
G02*
X85762500Y-49825000I237500J0D01*
G01*
G37*
%TD.AperFunction*%
%TD*%
%TO.P,C6,2*%
%TO.N,GND*%
%TA.AperFunction,SMDPad,CuDef*%
G36*
G01*
X85137500Y-67469000D02*
X84662500Y-67469000D01*
G75*
G02*
X84425000Y-67231500I0J237500D01*
G01*
X84425000Y-66631500D01*
G75*
G02*
X84662500Y-66394000I237500J0D01*
G01*
X85137500Y-66394000D01*
G75*
G02*
X85375000Y-66631500I0J-237500D01*
G01*
X85375000Y-67231500D01*
G75*
G02*
X85137500Y-67469000I-237500J0D01*
G01*
G37*
%TD.AperFunction*%
%TO.P,C6,1*%
%TO.N,VBUS*%
%TA.AperFunction,SMDPad,CuDef*%
G36*
G01*
X85137500Y-69194000D02*
X84662500Y-69194000D01*
G75*
G02*
X84425000Y-68956500I0J237500D01*
G01*
X84425000Y-68356500D01*
G75*
G02*
X84662500Y-68119000I237500J0D01*
G01*
X85137500Y-68119000D01*
G75*
G02*
X85375000Y-68356500I0J-237500D01*
G01*
X85375000Y-68956500D01*
G75*
G02*
X85137500Y-69194000I-237500J0D01*
G01*
G37*
%TD.AperFunction*%
%TD*%
%TO.P,C4,2*%
%TO.N,GND*%
%TA.AperFunction,SMDPad,CuDef*%
G36*
G01*
X85137500Y-63151000D02*
X84662500Y-63151000D01*
G75*
G02*
X84425000Y-62913500I0J237500D01*
G01*
X84425000Y-62313500D01*
G75*
G02*
X84662500Y-62076000I237500J0D01*
G01*
X85137500Y-62076000D01*
G75*
G02*
X85375000Y-62313500I0J-237500D01*
G01*
X85375000Y-62913500D01*
G75*
G02*
X85137500Y-63151000I-237500J0D01*
G01*
G37*
%TD.AperFunction*%
%TO.P,C4,1*%
%TO.N,+3V3*%
%TA.AperFunction,SMDPad,CuDef*%
G36*
G01*
X85137500Y-64876000D02*
X84662500Y-64876000D01*
G75*
G02*
X84425000Y-64638500I0J237500D01*
G01*
X84425000Y-64038500D01*
G75*
G02*
X84662500Y-63801000I237500J0D01*
G01*
X85137500Y-63801000D01*
G75*
G02*
X85375000Y-64038500I0J-237500D01*
G01*
X85375000Y-64638500D01*
G75*
G02*
X85137500Y-64876000I-237500J0D01*
G01*
G37*
%TD.AperFunction*%
%TD*%
D15*
%TO.P,U3,39*%
%TO.N,N/C*%
X102700000Y-48450000D03*
D16*
%TO.P,U3,1*%
%TO.N,GND*%
X94000000Y-40750000D03*
%TO.P,U3,2*%
%TO.N,+3V3*%
X94000000Y-42020000D03*
%TO.P,U3,3*%
%TO.N,/EN*%
X94000000Y-43290000D03*
%TO.P,U3,4*%
%TO.N,N/C*%
X94000000Y-44560000D03*
%TO.P,U3,5*%
X94000000Y-45830000D03*
%TO.P,U3,6*%
X94000000Y-47100000D03*
%TO.P,U3,7*%
X94000000Y-48370000D03*
%TO.P,U3,8*%
X94000000Y-49640000D03*
%TO.P,U3,9*%
X94000000Y-50910000D03*
%TO.P,U3,10*%
X94000000Y-52180000D03*
%TO.P,U3,11*%
X94000000Y-53450000D03*
%TO.P,U3,12*%
X94000000Y-54720000D03*
%TO.P,U3,13*%
X94000000Y-55990000D03*
%TO.P,U3,14*%
X94000000Y-57260000D03*
D17*
%TO.P,U3,15*%
%TO.N,GND*%
X97285000Y-58750000D03*
%TO.P,U3,16*%
%TO.N,/IO13*%
X98555000Y-58750000D03*
%TO.P,U3,17*%
%TO.N,N/C*%
X99825000Y-58750000D03*
%TO.P,U3,18*%
X101095000Y-58750000D03*
%TO.P,U3,19*%
X102365000Y-58750000D03*
%TO.P,U3,20*%
X103635000Y-58750000D03*
%TO.P,U3,21*%
X104905000Y-58750000D03*
%TO.P,U3,22*%
X106175000Y-58750000D03*
%TO.P,U3,23*%
X107445000Y-58750000D03*
%TO.P,U3,24*%
X108715000Y-58750000D03*
D16*
%TO.P,U3,25*%
%TO.N,/IO0*%
X112000000Y-57260000D03*
%TO.P,U3,26*%
%TO.N,N/C*%
X112000000Y-55990000D03*
%TO.P,U3,27*%
%TO.N,/UART_RX*%
X112000000Y-54720000D03*
%TO.P,U3,28*%
%TO.N,N/C*%
X112000000Y-53450000D03*
%TO.P,U3,29*%
X112000000Y-52180000D03*
%TO.P,U3,30*%
X112000000Y-50910000D03*
%TO.P,U3,31*%
X112000000Y-49640000D03*
%TO.P,U3,32*%
X112000000Y-48370000D03*
%TO.P,U3,33*%
X112000000Y-47100000D03*
%TO.P,U3,34*%
%TO.N,/MCU_RX*%
X112000000Y-45830000D03*
%TO.P,U3,35*%
%TO.N,/MCU_TX*%
X112000000Y-44560000D03*
%TO.P,U3,36*%
%TO.N,N/C*%
X112000000Y-43290000D03*
%TO.P,U3,37*%
X112000000Y-42020000D03*
%TO.P,U3,38*%
%TO.N,GND*%
X112000000Y-40750000D03*
%TD*%
%TO.P,U2,1*%
%TO.N,N/C*%
%TA.AperFunction,SMDPad,CuDef*%
G36*
G01*
X87696000Y-62312500D02*
X87696000Y-62187500D01*
G75*
G02*
X87758500Y-62125000I62500J0D01*
G01*
X88458500Y-62125000D01*
G75*
G02*
X88521000Y-62187500I0J-62500D01*
G01*
X88521000Y-62312500D01*
G75*
G02*
X88458500Y-62375000I-62500J0D01*
G01*
X87758500Y-62375000D01*
G75*
G02*
X87696000Y-62312500I0J62500D01*
G01*
G37*
%TD.AperFunction*%
%TO.P,U2,2*%
%TO.N,GND*%
%TA.AperFunction,SMDPad,CuDef*%
G36*
G01*
X87696000Y-62812500D02*
X87696000Y-62687500D01*
G75*
G02*
X87758500Y-62625000I62500J0D01*
G01*
X88458500Y-62625000D01*
G75*
G02*
X88521000Y-62687500I0J-62500D01*
G01*
X88521000Y-62812500D01*
G75*
G02*
X88458500Y-62875000I-62500J0D01*
G01*
X87758500Y-62875000D01*
G75*
G02*
X87696000Y-62812500I0J62500D01*
G01*
G37*
%TD.AperFunction*%
%TO.P,U2,3*%
%TO.N,/D+*%
%TA.AperFunction,SMDPad,CuDef*%
G36*
G01*
X87696000Y-63312500D02*
X87696000Y-63187500D01*
G75*
G02*
X87758500Y-63125000I62500J0D01*
G01*
X88458500Y-63125000D01*
G75*
G02*
X88521000Y-63187500I0J-62500D01*
G01*
X88521000Y-63312500D01*
G75*
G02*
X88458500Y-63375000I-62500J0D01*
G01*
X87758500Y-63375000D01*
G75*
G02*
X87696000Y-63312500I0J62500D01*
G01*
G37*
%TD.AperFunction*%
%TO.P,U2,4*%
%TO.N,/D-*%
%TA.AperFunction,SMDPad,CuDef*%
G36*
G01*
X87696000Y-63812500D02*
X87696000Y-63687500D01*
G75*
G02*
X87758500Y-63625000I62500J0D01*
G01*
X88458500Y-63625000D01*
G75*
G02*
X88521000Y-63687500I0J-62500D01*
G01*
X88521000Y-63812500D01*
G75*
G02*
X88458500Y-63875000I-62500J0D01*
G01*
X87758500Y-63875000D01*
G75*
G02*
X87696000Y-63812500I0J62500D01*
G01*
G37*
%TD.AperFunction*%
%TO.P,U2,5*%
%TO.N,+3V3*%
%TA.AperFunction,SMDPad,CuDef*%
G36*
G01*
X87696000Y-64312500D02*
X87696000Y-64187500D01*
G75*
G02*
X87758500Y-64125000I62500J0D01*
G01*
X88458500Y-64125000D01*
G75*
G02*
X88521000Y-64187500I0J-62500D01*
G01*
X88521000Y-64312500D01*
G75*
G02*
X88458500Y-64375000I-62500J0D01*
G01*
X87758500Y-64375000D01*
G75*
G02*
X87696000Y-64312500I0J62500D01*
G01*
G37*
%TD.AperFunction*%
%TO.P,U2,6*%
%TA.AperFunction,SMDPad,CuDef*%
G36*
G01*
X87696000Y-64812500D02*
X87696000Y-64687500D01*
G75*
G02*
X87758500Y-64625000I62500J0D01*
G01*
X88458500Y-64625000D01*
G75*
G02*
X88521000Y-64687500I0J-62500D01*
G01*
X88521000Y-64812500D01*
G75*
G02*
X88458500Y-64875000I-62500J0D01*
G01*
X87758500Y-64875000D01*
G75*
G02*
X87696000Y-64812500I0J62500D01*
G01*
G37*
%TD.AperFunction*%
%TO.P,U2,7*%
%TA.AperFunction,SMDPad,CuDef*%
G36*
G01*
X88671000Y-65787500D02*
X88671000Y-65087500D01*
G75*
G02*
X88733500Y-65025000I62500J0D01*
G01*
X88858500Y-65025000D01*
G75*
G02*
X88921000Y-65087500I0J-62500D01*
G01*
X88921000Y-65787500D01*
G75*
G02*
X88858500Y-65850000I-62500J0D01*
G01*
X88733500Y-65850000D01*
G75*
G02*
X88671000Y-65787500I0J62500D01*
G01*
G37*
%TD.AperFunction*%
%TO.P,U2,8*%
%TO.N,VBUS*%
%TA.AperFunction,SMDPad,CuDef*%
G36*
G01*
X89171000Y-65787500D02*
X89171000Y-65087500D01*
G75*
G02*
X89233500Y-65025000I62500J0D01*
G01*
X89358500Y-65025000D01*
G75*
G02*
X89421000Y-65087500I0J-62500D01*
G01*
X89421000Y-65787500D01*
G75*
G02*
X89358500Y-65850000I-62500J0D01*
G01*
X89233500Y-65850000D01*
G75*
G02*
X89171000Y-65787500I0J62500D01*
G01*
G37*
%TD.AperFunction*%
%TO.P,U2,9*%
%TO.N,Net-(R2-Pad1)*%
%TA.AperFunction,SMDPad,CuDef*%
G36*
G01*
X89671000Y-65787500D02*
X89671000Y-65087500D01*
G75*
G02*
X89733500Y-65025000I62500J0D01*
G01*
X89858500Y-65025000D01*
G75*
G02*
X89921000Y-65087500I0J-62500D01*
G01*
X89921000Y-65787500D01*
G75*
G02*
X89858500Y-65850000I-62500J0D01*
G01*
X89733500Y-65850000D01*
G75*
G02*
X89671000Y-65787500I0J62500D01*
G01*
G37*
%TD.AperFunction*%
%TO.P,U2,10*%
%TO.N,N/C*%
%TA.AperFunction,SMDPad,CuDef*%
G36*
G01*
X90171000Y-65787500D02*
X90171000Y-65087500D01*
G75*
G02*
X90233500Y-65025000I62500J0D01*
G01*
X90358500Y-65025000D01*
G75*
G02*
X90421000Y-65087500I0J-62500D01*
G01*
X90421000Y-65787500D01*
G75*
G02*
X90358500Y-65850000I-62500J0D01*
G01*
X90233500Y-65850000D01*
G75*
G02*
X90171000Y-65787500I0J62500D01*
G01*
G37*
%TD.AperFunction*%
%TO.P,U2,11*%
%TA.AperFunction,SMDPad,CuDef*%
G36*
G01*
X90671000Y-65787500D02*
X90671000Y-65087500D01*
G75*
G02*
X90733500Y-65025000I62500J0D01*
G01*
X90858500Y-65025000D01*
G75*
G02*
X90921000Y-65087500I0J-62500D01*
G01*
X90921000Y-65787500D01*
G75*
G02*
X90858500Y-65850000I-62500J0D01*
G01*
X90733500Y-65850000D01*
G75*
G02*
X90671000Y-65787500I0J62500D01*
G01*
G37*
%TD.AperFunction*%
%TO.P,U2,12*%
%TA.AperFunction,SMDPad,CuDef*%
G36*
G01*
X91171000Y-65787500D02*
X91171000Y-65087500D01*
G75*
G02*
X91233500Y-65025000I62500J0D01*
G01*
X91358500Y-65025000D01*
G75*
G02*
X91421000Y-65087500I0J-62500D01*
G01*
X91421000Y-65787500D01*
G75*
G02*
X91358500Y-65850000I-62500J0D01*
G01*
X91233500Y-65850000D01*
G75*
G02*
X91171000Y-65787500I0J62500D01*
G01*
G37*
%TD.AperFunction*%
%TO.P,U2,13*%
%TO.N,/LED_RX*%
%TA.AperFunction,SMDPad,CuDef*%
G36*
G01*
X91571000Y-64812500D02*
X91571000Y-64687500D01*
G75*
G02*
X91633500Y-64625000I62500J0D01*
G01*
X92333500Y-64625000D01*
G75*
G02*
X92396000Y-64687500I0J-62500D01*
G01*
X92396000Y-64812500D01*
G75*
G02*
X92333500Y-64875000I-62500J0D01*
G01*
X91633500Y-64875000D01*
G75*
G02*
X91571000Y-64812500I0J62500D01*
G01*
G37*
%TD.AperFunction*%
%TO.P,U2,14*%
%TO.N,/LED_TX*%
%TA.AperFunction,SMDPad,CuDef*%
G36*
G01*
X91571000Y-64312500D02*
X91571000Y-64187500D01*
G75*
G02*
X91633500Y-64125000I62500J0D01*
G01*
X92333500Y-64125000D01*
G75*
G02*
X92396000Y-64187500I0J-62500D01*
G01*
X92396000Y-64312500D01*
G75*
G02*
X92333500Y-64375000I-62500J0D01*
G01*
X91633500Y-64375000D01*
G75*
G02*
X91571000Y-64312500I0J62500D01*
G01*
G37*
%TD.AperFunction*%
%TO.P,U2,15*%
%TO.N,N/C*%
%TA.AperFunction,SMDPad,CuDef*%
G36*
G01*
X91571000Y-63812500D02*
X91571000Y-63687500D01*
G75*
G02*
X91633500Y-63625000I62500J0D01*
G01*
X92333500Y-63625000D01*
G75*
G02*
X92396000Y-63687500I0J-62500D01*
G01*
X92396000Y-63812500D01*
G75*
G02*
X92333500Y-63875000I-62500J0D01*
G01*
X91633500Y-63875000D01*
G75*
G02*
X91571000Y-63812500I0J62500D01*
G01*
G37*
%TD.AperFunction*%
%TO.P,U2,16*%
%TA.AperFunction,SMDPad,CuDef*%
G36*
G01*
X91571000Y-63312500D02*
X91571000Y-63187500D01*
G75*
G02*
X91633500Y-63125000I62500J0D01*
G01*
X92333500Y-63125000D01*
G75*
G02*
X92396000Y-63187500I0J-62500D01*
G01*
X92396000Y-63312500D01*
G75*
G02*
X92333500Y-63375000I-62500J0D01*
G01*
X91633500Y-63375000D01*
G75*
G02*
X91571000Y-63312500I0J62500D01*
G01*
G37*
%TD.AperFunction*%
%TO.P,U2,17*%
%TA.AperFunction,SMDPad,CuDef*%
G36*
G01*
X91571000Y-62812500D02*
X91571000Y-62687500D01*
G75*
G02*
X91633500Y-62625000I62500J0D01*
G01*
X92333500Y-62625000D01*
G75*
G02*
X92396000Y-62687500I0J-62500D01*
G01*
X92396000Y-62812500D01*
G75*
G02*
X92333500Y-62875000I-62500J0D01*
G01*
X91633500Y-62875000D01*
G75*
G02*
X91571000Y-62812500I0J62500D01*
G01*
G37*
%TD.AperFunction*%
%TO.P,U2,18*%
%TA.AperFunction,SMDPad,CuDef*%
G36*
G01*
X91571000Y-62312500D02*
X91571000Y-62187500D01*
G75*
G02*
X91633500Y-62125000I62500J0D01*
G01*
X92333500Y-62125000D01*
G75*
G02*
X92396000Y-62187500I0J-62500D01*
G01*
X92396000Y-62312500D01*
G75*
G02*
X92333500Y-62375000I-62500J0D01*
G01*
X91633500Y-62375000D01*
G75*
G02*
X91571000Y-62312500I0J62500D01*
G01*
G37*
%TD.AperFunction*%
%TO.P,U2,19*%
%TO.N,/RTS*%
%TA.AperFunction,SMDPad,CuDef*%
G36*
G01*
X91171000Y-61912500D02*
X91171000Y-61212500D01*
G75*
G02*
X91233500Y-61150000I62500J0D01*
G01*
X91358500Y-61150000D01*
G75*
G02*
X91421000Y-61212500I0J-62500D01*
G01*
X91421000Y-61912500D01*
G75*
G02*
X91358500Y-61975000I-62500J0D01*
G01*
X91233500Y-61975000D01*
G75*
G02*
X91171000Y-61912500I0J62500D01*
G01*
G37*
%TD.AperFunction*%
%TO.P,U2,20*%
%TO.N,/MCU_TX*%
%TA.AperFunction,SMDPad,CuDef*%
G36*
G01*
X90671000Y-61912500D02*
X90671000Y-61212500D01*
G75*
G02*
X90733500Y-61150000I62500J0D01*
G01*
X90858500Y-61150000D01*
G75*
G02*
X90921000Y-61212500I0J-62500D01*
G01*
X90921000Y-61912500D01*
G75*
G02*
X90858500Y-61975000I-62500J0D01*
G01*
X90733500Y-61975000D01*
G75*
G02*
X90671000Y-61912500I0J62500D01*
G01*
G37*
%TD.AperFunction*%
%TO.P,U2,21*%
%TO.N,/MCU_RX*%
%TA.AperFunction,SMDPad,CuDef*%
G36*
G01*
X90171000Y-61912500D02*
X90171000Y-61212500D01*
G75*
G02*
X90233500Y-61150000I62500J0D01*
G01*
X90358500Y-61150000D01*
G75*
G02*
X90421000Y-61212500I0J-62500D01*
G01*
X90421000Y-61912500D01*
G75*
G02*
X90358500Y-61975000I-62500J0D01*
G01*
X90233500Y-61975000D01*
G75*
G02*
X90171000Y-61912500I0J62500D01*
G01*
G37*
%TD.AperFunction*%
%TO.P,U2,22*%
%TO.N,N/C*%
%TA.AperFunction,SMDPad,CuDef*%
G36*
G01*
X89671000Y-61912500D02*
X89671000Y-61212500D01*
G75*
G02*
X89733500Y-61150000I62500J0D01*
G01*
X89858500Y-61150000D01*
G75*
G02*
X89921000Y-61212500I0J-62500D01*
G01*
X89921000Y-61912500D01*
G75*
G02*
X89858500Y-61975000I-62500J0D01*
G01*
X89733500Y-61975000D01*
G75*
G02*
X89671000Y-61912500I0J62500D01*
G01*
G37*
%TD.AperFunction*%
%TO.P,U2,23*%
%TO.N,/DTR*%
%TA.AperFunction,SMDPad,CuDef*%
G36*
G01*
X89171000Y-61912500D02*
X89171000Y-61212500D01*
G75*
G02*
X89233500Y-61150000I62500J0D01*
G01*
X89358500Y-61150000D01*
G75*
G02*
X89421000Y-61212500I0J-62500D01*
G01*
X89421000Y-61912500D01*
G75*
G02*
X89358500Y-61975000I-62500J0D01*
G01*
X89233500Y-61975000D01*
G75*
G02*
X89171000Y-61912500I0J62500D01*
G01*
G37*
%TD.AperFunction*%
%TO.P,U2,24*%
%TO.N,N/C*%
%TA.AperFunction,SMDPad,CuDef*%
G36*
G01*
X88671000Y-61912500D02*
X88671000Y-61212500D01*
G75*
G02*
X88733500Y-61150000I62500J0D01*
G01*
X88858500Y-61150000D01*
G75*
G02*
X88921000Y-61212500I0J-62500D01*
G01*
X88921000Y-61912500D01*
G75*
G02*
X88858500Y-61975000I-62500J0D01*
G01*
X88733500Y-61975000D01*
G75*
G02*
X88671000Y-61912500I0J62500D01*
G01*
G37*
%TD.AperFunction*%
D18*
%TO.P,U2,25*%
X90046000Y-63500000D03*
%TD*%
D19*
%TO.P,U1,1*%
%TO.N,GND*%
X100700000Y-81150000D03*
%TO.P,U1,3*%
%TO.N,VCC*%
X105300000Y-81150000D03*
%TO.P,U1,2*%
%TO.N,+3V3*%
X103000000Y-81150000D03*
D20*
%TO.P,U1,4*%
%TO.N,N/C*%
X103000000Y-74850000D03*
%TD*%
D13*
%TO.P,Q2,1*%
%TO.N,Net-(Q2-Pad1)*%
X121350000Y-67100000D03*
%TO.P,Q2,2*%
%TO.N,/RTS*%
X123250000Y-67100000D03*
%TO.P,Q2,3*%
%TO.N,/EN*%
X122300000Y-64100000D03*
%TD*%
%TO.P,Q1,3*%
%TO.N,+5V*%
X109734000Y-82966000D03*
%TO.P,Q1,2*%
%TO.N,VCC*%
X110684000Y-85966000D03*
%TO.P,Q1,1*%
%TO.N,VBUS*%
X108784000Y-85966000D03*
%TD*%
%TO.P,C9,1*%
%TO.N,/EN*%
%TA.AperFunction,SMDPad,CuDef*%
G36*
G01*
X89725000Y-52349997D02*
X89725000Y-53650003D01*
G75*
G02*
X89475003Y-53900000I-249997J0D01*
G01*
X88649997Y-53900000D01*
G75*
G02*
X88400000Y-53650003I0J249997D01*
G01*
X88400000Y-52349997D01*
G75*
G02*
X88649997Y-52100000I249997J0D01*
G01*
X89475003Y-52100000D01*
G75*
G02*
X89725000Y-52349997I0J-249997D01*
G01*
G37*
%TD.AperFunction*%
%TO.P,C9,2*%
%TO.N,GND*%
%TA.AperFunction,SMDPad,CuDef*%
G36*
G01*
X86600000Y-52349997D02*
X86600000Y-53650003D01*
G75*
G02*
X86350003Y-53900000I-249997J0D01*
G01*
X85524997Y-53900000D01*
G75*
G02*
X85275000Y-53650003I0J249997D01*
G01*
X85275000Y-52349997D01*
G75*
G02*
X85524997Y-52100000I249997J0D01*
G01*
X86350003Y-52100000D01*
G75*
G02*
X86600000Y-52349997I0J-249997D01*
G01*
G37*
%TD.AperFunction*%
%TD*%
%TO.P,C7,1*%
%TO.N,+3V3*%
%TA.AperFunction,SMDPad,CuDef*%
G36*
G01*
X89725000Y-45349997D02*
X89725000Y-46650003D01*
G75*
G02*
X89475003Y-46900000I-249997J0D01*
G01*
X88649997Y-46900000D01*
G75*
G02*
X88400000Y-46650003I0J249997D01*
G01*
X88400000Y-45349997D01*
G75*
G02*
X88649997Y-45100000I249997J0D01*
G01*
X89475003Y-45100000D01*
G75*
G02*
X89725000Y-45349997I0J-249997D01*
G01*
G37*
%TD.AperFunction*%
%TO.P,C7,2*%
%TO.N,GND*%
%TA.AperFunction,SMDPad,CuDef*%
G36*
G01*
X86600000Y-45349997D02*
X86600000Y-46650003D01*
G75*
G02*
X86350003Y-46900000I-249997J0D01*
G01*
X85524997Y-46900000D01*
G75*
G02*
X85275000Y-46650003I0J249997D01*
G01*
X85275000Y-45349997D01*
G75*
G02*
X85524997Y-45100000I249997J0D01*
G01*
X86350003Y-45100000D01*
G75*
G02*
X86600000Y-45349997I0J-249997D01*
G01*
G37*
%TD.AperFunction*%
%TD*%
%TO.P,C5,2*%
%TO.N,GND*%
%TA.AperFunction,SMDPad,CuDef*%
G36*
G01*
X82750003Y-67700000D02*
X81449997Y-67700000D01*
G75*
G02*
X81200000Y-67450003I0J249997D01*
G01*
X81200000Y-66624997D01*
G75*
G02*
X81449997Y-66375000I249997J0D01*
G01*
X82750003Y-66375000D01*
G75*
G02*
X83000000Y-66624997I0J-249997D01*
G01*
X83000000Y-67450003D01*
G75*
G02*
X82750003Y-67700000I-249997J0D01*
G01*
G37*
%TD.AperFunction*%
%TO.P,C5,1*%
%TO.N,VBUS*%
%TA.AperFunction,SMDPad,CuDef*%
G36*
G01*
X82750003Y-70825000D02*
X81449997Y-70825000D01*
G75*
G02*
X81200000Y-70575003I0J249997D01*
G01*
X81200000Y-69749997D01*
G75*
G02*
X81449997Y-69500000I249997J0D01*
G01*
X82750003Y-69500000D01*
G75*
G02*
X83000000Y-69749997I0J-249997D01*
G01*
X83000000Y-70575003D01*
G75*
G02*
X82750003Y-70825000I-249997J0D01*
G01*
G37*
%TD.AperFunction*%
%TD*%
%TO.P,C3,2*%
%TO.N,GND*%
%TA.AperFunction,SMDPad,CuDef*%
G36*
G01*
X82750003Y-61900000D02*
X81449997Y-61900000D01*
G75*
G02*
X81200000Y-61650003I0J249997D01*
G01*
X81200000Y-60824997D01*
G75*
G02*
X81449997Y-60575000I249997J0D01*
G01*
X82750003Y-60575000D01*
G75*
G02*
X83000000Y-60824997I0J-249997D01*
G01*
X83000000Y-61650003D01*
G75*
G02*
X82750003Y-61900000I-249997J0D01*
G01*
G37*
%TD.AperFunction*%
%TO.P,C3,1*%
%TO.N,+3V3*%
%TA.AperFunction,SMDPad,CuDef*%
G36*
G01*
X82750003Y-65025000D02*
X81449997Y-65025000D01*
G75*
G02*
X81200000Y-64775003I0J249997D01*
G01*
X81200000Y-63949997D01*
G75*
G02*
X81449997Y-63700000I249997J0D01*
G01*
X82750003Y-63700000D01*
G75*
G02*
X83000000Y-63949997I0J-249997D01*
G01*
X83000000Y-64775003D01*
G75*
G02*
X82750003Y-65025000I-249997J0D01*
G01*
G37*
%TD.AperFunction*%
%TD*%
%TO.P,C2,2*%
%TO.N,GND*%
%TA.AperFunction,SMDPad,CuDef*%
G36*
G01*
X110650003Y-75100000D02*
X109349997Y-75100000D01*
G75*
G02*
X109100000Y-74850003I0J249997D01*
G01*
X109100000Y-74024997D01*
G75*
G02*
X109349997Y-73775000I249997J0D01*
G01*
X110650003Y-73775000D01*
G75*
G02*
X110900000Y-74024997I0J-249997D01*
G01*
X110900000Y-74850003D01*
G75*
G02*
X110650003Y-75100000I-249997J0D01*
G01*
G37*
%TD.AperFunction*%
%TO.P,C2,1*%
%TO.N,+3V3*%
%TA.AperFunction,SMDPad,CuDef*%
G36*
G01*
X110650003Y-78225000D02*
X109349997Y-78225000D01*
G75*
G02*
X109100000Y-77975003I0J249997D01*
G01*
X109100000Y-77149997D01*
G75*
G02*
X109349997Y-76900000I249997J0D01*
G01*
X110650003Y-76900000D01*
G75*
G02*
X110900000Y-77149997I0J-249997D01*
G01*
X110900000Y-77975003D01*
G75*
G02*
X110650003Y-78225000I-249997J0D01*
G01*
G37*
%TD.AperFunction*%
%TD*%
%TO.P,C1,2*%
%TO.N,GND*%
%TA.AperFunction,SMDPad,CuDef*%
G36*
G01*
X96650003Y-75100000D02*
X95349997Y-75100000D01*
G75*
G02*
X95100000Y-74850003I0J249997D01*
G01*
X95100000Y-74024997D01*
G75*
G02*
X95349997Y-73775000I249997J0D01*
G01*
X96650003Y-73775000D01*
G75*
G02*
X96900000Y-74024997I0J-249997D01*
G01*
X96900000Y-74850003D01*
G75*
G02*
X96650003Y-75100000I-249997J0D01*
G01*
G37*
%TD.AperFunction*%
%TO.P,C1,1*%
%TO.N,VCC*%
%TA.AperFunction,SMDPad,CuDef*%
G36*
G01*
X96650003Y-78225000D02*
X95349997Y-78225000D01*
G75*
G02*
X95100000Y-77975003I0J249997D01*
G01*
X95100000Y-77149997D01*
G75*
G02*
X95349997Y-76900000I249997J0D01*
G01*
X96650003Y-76900000D01*
G75*
G02*
X96900000Y-77149997I0J-249997D01*
G01*
X96900000Y-77975003D01*
G75*
G02*
X96650003Y-78225000I-249997J0D01*
G01*
G37*
%TD.AperFunction*%
%TD*%
D21*
%TO.P,M1,0*%
%TO.N,N/C*%
X99330000Y-88786600D03*
D22*
%TO.P,M1,1*%
%TO.N,VBUS*%
X101630000Y-85996600D03*
%TO.P,M1,2*%
%TO.N,/D-*%
X102280000Y-85996600D03*
%TO.P,M1,5*%
%TO.N,GND*%
X104230000Y-85996600D03*
%TO.P,M1,4*%
%TO.N,N/C*%
X103580000Y-85996600D03*
D23*
%TO.P,M1,0*%
X100505000Y-85996600D03*
X105355000Y-85996600D03*
D22*
%TO.P,M1,3*%
%TO.N,/D+*%
X102930000Y-85996600D03*
D21*
%TO.P,M1,0*%
%TO.N,N/C*%
X106530000Y-88786600D03*
%TD*%
D24*
%TO.N,VBUS*%
X88507700Y-66716600D03*
X85910500Y-66608500D03*
%TO.N,GND*%
X85250000Y-70500000D03*
X85250000Y-71250000D03*
X85250000Y-72000000D03*
X85250000Y-72750000D03*
X93250000Y-80250000D03*
X93250000Y-79250000D03*
X93250000Y-79250000D03*
X93250000Y-78250000D03*
X93250000Y-77250000D03*
X85750000Y-60250000D03*
X85750000Y-59250000D03*
X85750000Y-58250000D03*
X85750000Y-57250000D03*
X85750000Y-56250000D03*
X85750000Y-55250000D03*
X83250000Y-68500000D03*
X80250000Y-90250000D03*
X81250000Y-90250000D03*
X82250000Y-90250000D03*
X83250000Y-90250000D03*
X84250000Y-90250000D03*
X85250000Y-90250000D03*
X86250000Y-90250000D03*
X87250000Y-90250000D03*
X88250000Y-90250000D03*
X89250000Y-90250000D03*
X90250000Y-90250000D03*
X91250000Y-90250000D03*
X92250000Y-90250000D03*
X93250000Y-90250000D03*
X94250000Y-90250000D03*
X93250000Y-76250000D03*
X93250000Y-75250000D03*
X93250000Y-74250000D03*
X93250000Y-73250000D03*
X93250000Y-72250000D03*
X80250000Y-89250000D03*
X80250000Y-88250000D03*
X80250000Y-87250000D03*
X80250000Y-86250000D03*
X80250000Y-85250000D03*
X80250000Y-84250000D03*
X80250000Y-83250000D03*
X103250000Y-78750000D03*
X104250000Y-78750000D03*
X105250000Y-78750000D03*
X106250000Y-78750000D03*
%TO.N,+3V3*%
X86970400Y-62087000D03*
X101203700Y-78424900D03*
X90921700Y-69141500D03*
X88108500Y-65375600D03*
X84900000Y-65392000D03*
%TO.N,/MCU_RX*%
X90296000Y-60544200D03*
X110245600Y-46009100D03*
%TO.N,/DTR*%
X116592600Y-66805000D03*
X89296000Y-60636000D03*
%TO.N,/EN*%
X121389900Y-63915100D03*
X93448000Y-58291900D03*
%TD*%
D25*
%TO.N,VBUS*%
X92078000Y-71075300D02*
X92078000Y-70230500D01*
X96612700Y-85750000D02*
X92078000Y-81215300D01*
X92078000Y-81215300D02*
X92078000Y-71075300D01*
X92078000Y-71075300D02*
X87507700Y-71075300D01*
X87507700Y-71075300D02*
X87211400Y-70779000D01*
X87211400Y-70779000D02*
X87211400Y-67914900D01*
X87211400Y-67914900D02*
X88409600Y-66716700D01*
X88409600Y-66716700D02*
X88507700Y-66716700D01*
X88507700Y-66716700D02*
X88507700Y-66716600D01*
X85910500Y-66608500D02*
X85860500Y-66658500D01*
X85860500Y-66658500D02*
X85860500Y-67696000D01*
X85860500Y-67696000D02*
X84900000Y-68656500D01*
X89296000Y-65437500D02*
X89296000Y-65928300D01*
X89296000Y-65928300D02*
X88507700Y-66716600D01*
X82100000Y-70162500D02*
X83394000Y-70162500D01*
X83394000Y-70162500D02*
X84900000Y-68656500D01*
X96612700Y-85750000D02*
X97225300Y-85750000D01*
X96000000Y-85750000D02*
X96612700Y-85750000D01*
X101630000Y-85046300D02*
X97929000Y-85046300D01*
X97929000Y-85046300D02*
X97225300Y-85750000D01*
X101630000Y-85158900D02*
X101630000Y-85046300D01*
X101630000Y-85046300D02*
X107139000Y-85046300D01*
X107139000Y-85046300D02*
X108058700Y-85966000D01*
X108784000Y-85966000D02*
X108058700Y-85966000D01*
X101630000Y-85996600D02*
X101630000Y-85158900D01*
%TO.N,GND*%
X104230000Y-85996600D02*
X104230000Y-87770000D01*
X104230000Y-87770000D02*
X104100000Y-87900000D01*
X88108500Y-62750000D02*
X86000000Y-62750000D01*
X92078000Y-68405500D02*
X92155500Y-68405500D01*
X92155500Y-68405500D02*
X93250000Y-69500000D01*
%TO.N,+3V3*%
X86970400Y-48637500D02*
X86970400Y-62087000D01*
X86970400Y-48637500D02*
X88950000Y-48637500D01*
X88950000Y-48637500D02*
X89000000Y-48587500D01*
X86000000Y-48637500D02*
X86970400Y-48637500D01*
X110000000Y-77562500D02*
X107737800Y-79824700D01*
X107737800Y-79824700D02*
X103000000Y-79824700D01*
X119000000Y-51362500D02*
X118304600Y-52057900D01*
X118304600Y-52057900D02*
X118304600Y-54778200D01*
X118304600Y-54778200D02*
X124041300Y-60514900D01*
X124041300Y-60514900D02*
X124041300Y-68118800D01*
X124041300Y-68118800D02*
X122881900Y-69278200D01*
X122881900Y-69278200D02*
X118284300Y-69278200D01*
X118284300Y-69278200D02*
X110000000Y-77562500D01*
X103000000Y-81150000D02*
X103000000Y-79824700D01*
X101203700Y-78424900D02*
X102603500Y-79824700D01*
X102603500Y-79824700D02*
X103000000Y-79824700D01*
X94000000Y-42020000D02*
X92424700Y-42020000D01*
X89062500Y-46000000D02*
X92424700Y-42637800D01*
X92424700Y-42637800D02*
X92424700Y-42020000D01*
X89000000Y-48587500D02*
X89062500Y-48525000D01*
X89062500Y-48525000D02*
X89062500Y-46000000D01*
X88014000Y-70230500D02*
X89103000Y-69141500D01*
X89103000Y-69141500D02*
X90921700Y-69141500D01*
X90921700Y-69141500D02*
X90921700Y-68266900D01*
X90921700Y-68266900D02*
X91601900Y-67586700D01*
X91601900Y-67586700D02*
X92615500Y-67586700D01*
X92615500Y-67586700D02*
X95126000Y-70097200D01*
X95126000Y-70097200D02*
X95126000Y-70193000D01*
X82100000Y-64362500D02*
X80419100Y-66043400D01*
X80419100Y-66043400D02*
X80419100Y-80889400D01*
X80419100Y-80889400D02*
X85207100Y-85677400D01*
X97412000Y-70193000D02*
X95126000Y-70193000D01*
X88796000Y-65437500D02*
X88170400Y-65437500D01*
X88170400Y-65437500D02*
X88108500Y-65375600D01*
X88108500Y-65375600D02*
X88108500Y-64750000D01*
X84900000Y-65392000D02*
X84900000Y-64362500D01*
X85207100Y-85849200D02*
X85207100Y-85677400D01*
X85207100Y-85677400D02*
X87802400Y-85677400D01*
X84900000Y-64362500D02*
X84900000Y-64338500D01*
X84900000Y-64362500D02*
X82100000Y-64362500D01*
X88108500Y-64250000D02*
X88108500Y-64750000D01*
%TO.N,/D-*%
X88108500Y-63750000D02*
X87570500Y-63750000D01*
X87570500Y-63750000D02*
X87211400Y-64109100D01*
X87211400Y-64109100D02*
X87211400Y-67179900D01*
X87211400Y-67179900D02*
X86761100Y-67630200D01*
X86761100Y-67630200D02*
X86761100Y-79144600D01*
X86761100Y-79144600D02*
X94941900Y-87325400D01*
X94941900Y-87325400D02*
X101901500Y-87325400D01*
X101901500Y-87325400D02*
X102280000Y-86946900D01*
X102280000Y-85996600D02*
X102280000Y-86946900D01*
%TO.N,/D+*%
X88108500Y-63250000D02*
X87433600Y-63250000D01*
X87433600Y-63250000D02*
X86535900Y-64147700D01*
X86535900Y-64147700D02*
X86535900Y-67218500D01*
X86535900Y-67218500D02*
X86310800Y-67443600D01*
X86310800Y-67443600D02*
X86310800Y-79331200D01*
X86310800Y-79331200D02*
X97039200Y-90059600D01*
X97039200Y-90059600D02*
X99851700Y-90059600D01*
X99851700Y-90059600D02*
X102930000Y-86981300D01*
X102930000Y-86981300D02*
X102930000Y-85996600D01*
%TO.N,/LED_RX*%
X91983500Y-64750000D02*
X93365700Y-64750000D01*
X93365700Y-64750000D02*
X93745700Y-64370000D01*
X93745700Y-64370000D02*
X96415500Y-64370000D01*
X96415500Y-64370000D02*
X97328000Y-63457500D01*
%TO.N,/LED_TX*%
X91983500Y-64250000D02*
X92718100Y-64250000D01*
X92718100Y-64250000D02*
X93510600Y-63457500D01*
X93510600Y-63457500D02*
X95078000Y-63457500D01*
%TO.N,/RTS*%
X123250000Y-67100000D02*
X123250000Y-65824700D01*
X123212500Y-61600000D02*
X123212500Y-65787200D01*
X123212500Y-65787200D02*
X123250000Y-65824700D01*
X123250000Y-67100000D02*
X122524700Y-67100000D01*
X91296000Y-61562500D02*
X92422800Y-61562500D01*
X92422800Y-61562500D02*
X96824600Y-57160700D01*
X96824600Y-57160700D02*
X109059800Y-57160700D01*
X109059800Y-57160700D02*
X114871600Y-62972500D01*
X114871600Y-62972500D02*
X114871600Y-66379900D01*
X114871600Y-66379900D02*
X116898400Y-68406700D01*
X116898400Y-68406700D02*
X121943300Y-68406700D01*
X121943300Y-68406700D02*
X122524700Y-67825300D01*
X122524700Y-67825300D02*
X122524700Y-67100000D01*
%TO.N,/MCU_TX*%
X110424700Y-44560000D02*
X108643800Y-46340900D01*
X108643800Y-46340900D02*
X108643800Y-48993500D01*
X108643800Y-48993500D02*
X102251300Y-55386000D01*
X102251300Y-55386000D02*
X97962400Y-55386000D01*
X97962400Y-55386000D02*
X94196900Y-59151500D01*
X94196900Y-59151500D02*
X92694100Y-59151500D01*
X92694100Y-59151500D02*
X90796000Y-61049600D01*
X90796000Y-61049600D02*
X90796000Y-61562500D01*
X112000000Y-44560000D02*
X110424700Y-44560000D01*
%TO.N,/MCU_RX*%
X110424700Y-45830000D02*
X110245600Y-46009100D01*
X90296000Y-61562500D02*
X90296000Y-60544200D01*
X112000000Y-45830000D02*
X110424700Y-45830000D01*
%TO.N,/DTR*%
X119250000Y-65100000D02*
X119250000Y-66375300D01*
X119250000Y-66375300D02*
X118612200Y-66375300D01*
X118612200Y-66375300D02*
X117387500Y-67600000D01*
X117387500Y-67600000D02*
X116592600Y-66805100D01*
X116592600Y-66805100D02*
X116592600Y-66805000D01*
X89296000Y-61562500D02*
X89296000Y-60636000D01*
%TO.N,Net-(D2-Pad1)*%
X95078000Y-65282500D02*
X95126000Y-65330500D01*
X95126000Y-65330500D02*
X95126000Y-68443000D01*
%TO.N,Net-(D3-Pad1)*%
X97412000Y-68443000D02*
X97328000Y-68359000D01*
X97328000Y-68359000D02*
X97328000Y-65282500D01*
%TO.N,/IO13*%
X105450000Y-63650000D02*
X104374700Y-63650000D01*
X98555000Y-58750000D02*
X98555000Y-60325300D01*
X98555000Y-60325300D02*
X101050000Y-60325300D01*
X101050000Y-60325300D02*
X104374700Y-63650000D01*
%TO.N,/EN*%
X89062500Y-53000000D02*
X89062500Y-54251500D01*
X89062500Y-54251500D02*
X93102900Y-58291900D01*
X93102900Y-58291900D02*
X93448000Y-58291900D01*
X121574700Y-64100000D02*
X121389900Y-63915200D01*
X121389900Y-63915200D02*
X121389900Y-63915100D01*
X122300000Y-64100000D02*
X121574700Y-64100000D01*
X89000000Y-50412500D02*
X89062500Y-50475000D01*
X89062500Y-50475000D02*
X89062500Y-53000000D01*
X89000000Y-50412500D02*
X92424700Y-46987800D01*
X92424700Y-46987800D02*
X92424700Y-43290000D01*
X94000000Y-43290000D02*
X92424700Y-43290000D01*
%TO.N,/IO0*%
X118300000Y-62100000D02*
X117574700Y-62100000D01*
X112000000Y-57260000D02*
X113575300Y-57260000D01*
X113575300Y-57260000D02*
X113575300Y-58100600D01*
X113575300Y-58100600D02*
X117574700Y-62100000D01*
%TO.N,/UART_RX*%
X120000000Y-47000000D02*
X120000000Y-48537500D01*
X120000000Y-48537500D02*
X119000000Y-49537500D01*
X112000000Y-54720000D02*
X113817500Y-54720000D01*
X113817500Y-54720000D02*
X119000000Y-49537500D01*
%TO.N,Net-(D4-Pad1)*%
X81600000Y-76311600D02*
X81600000Y-80492100D01*
X81600000Y-80492100D02*
X85207100Y-84099200D01*
%TO.N,Net-(Q2-Pad1)*%
X121350000Y-67100000D02*
X119712500Y-67100000D01*
X119712500Y-67100000D02*
X119212500Y-67600000D01*
%TO.N,/HAN_OUT*%
X121000000Y-51362500D02*
X120962500Y-51400000D01*
X120962500Y-51400000D02*
X120962500Y-53400000D01*
X120962500Y-53400000D02*
X124957000Y-57394500D01*
X124957000Y-57394500D02*
X124957000Y-71123000D01*
X124957000Y-71123000D02*
X121580000Y-74500000D01*
%TO.N,+5V*%
X117012200Y-74500000D02*
X117524300Y-74500000D01*
X116500000Y-74500000D02*
X117012200Y-74500000D01*
X117012200Y-77040000D02*
X117770000Y-77040000D01*
X110459300Y-82966000D02*
X116385300Y-77040000D01*
X116385300Y-77040000D02*
X117012200Y-77040000D01*
X117012200Y-74500000D02*
X117012200Y-77040000D01*
X109734000Y-82966000D02*
X110459300Y-82966000D01*
X117524300Y-74500000D02*
X122295700Y-69728600D01*
X122295700Y-69728600D02*
X123114300Y-69728600D01*
X123114300Y-69728600D02*
X124506700Y-68336200D01*
X124506700Y-68336200D02*
X124506700Y-58769200D01*
X124506700Y-58769200D02*
X119137500Y-53400000D01*
%TO.N,Net-(Q3-Pad1)*%
X117350000Y-65100000D02*
X118075300Y-65100000D01*
X121387500Y-61600000D02*
X120850000Y-61600000D01*
X120850000Y-61600000D02*
X118075300Y-64374700D01*
X118075300Y-64374700D02*
X118075300Y-65100000D01*
%TO.N,Net-(Q4-Pad1)*%
X120950000Y-44000000D02*
X120950000Y-49487500D01*
X120950000Y-49487500D02*
X121000000Y-49537500D01*
%TO.N,Net-(R2-Pad1)*%
X89796000Y-65437500D02*
X89796000Y-66623500D01*
X89796000Y-66623500D02*
X88014000Y-68405500D01*
%TO.N,VCC*%
X102137500Y-70500000D02*
X96000000Y-76637500D01*
X96000000Y-76637500D02*
X96000000Y-77562500D01*
X96000000Y-81750000D02*
X96000000Y-77562500D01*
X101625300Y-63650000D02*
X102137500Y-64162200D01*
X102137500Y-64162200D02*
X102137500Y-70500000D01*
X105300000Y-81150000D02*
X104224700Y-81150000D01*
X96000000Y-81750000D02*
X97225300Y-81750000D01*
X97225300Y-81750000D02*
X97950700Y-82475400D01*
X97950700Y-82475400D02*
X103974600Y-82475400D01*
X103974600Y-82475400D02*
X104224700Y-82225300D01*
X104224700Y-82225300D02*
X104224700Y-81150000D01*
X100550000Y-63650000D02*
X101625300Y-63650000D01*
X105300000Y-81150000D02*
X106375300Y-81150000D01*
X110684000Y-85966000D02*
X109958700Y-85966000D01*
X109958700Y-85966000D02*
X109958700Y-85311700D01*
X109958700Y-85311700D02*
X106375300Y-81728300D01*
X106375300Y-81728300D02*
X106375300Y-81150000D01*
%TO.N,Net-(D5-Pad1)*%
X83900000Y-76308500D02*
X83900000Y-80025000D01*
X83900000Y-80025000D02*
X87802400Y-83927400D01*
%TD*%
D26*
%TO.N,GND*%
X85550801Y-79293868D02*
X85547124Y-79331200D01*
X85550801Y-79368533D01*
X85557530Y-79436847D01*
X85561798Y-79480185D01*
X85605254Y-79623446D01*
X85675826Y-79755476D01*
X85747001Y-79842202D01*
X85770800Y-79871201D01*
X85799798Y-79894999D01*
X96475401Y-90570603D01*
X96499199Y-90599601D01*
X96614924Y-90694574D01*
X96746953Y-90765146D01*
X96828887Y-90790000D01*
X79710000Y-90790000D01*
X79710000Y-81169930D01*
X79713554Y-81181646D01*
X79784126Y-81313676D01*
X79855301Y-81400402D01*
X79879100Y-81429401D01*
X79908098Y-81453199D01*
X84094028Y-85639130D01*
X84094028Y-86136700D01*
X84110852Y-86307516D01*
X84160677Y-86471767D01*
X84241588Y-86623142D01*
X84350477Y-86755823D01*
X84483158Y-86864712D01*
X84634533Y-86945623D01*
X84798784Y-86995448D01*
X84969600Y-87012272D01*
X85444600Y-87012272D01*
X85615416Y-86995448D01*
X85779667Y-86945623D01*
X85931042Y-86864712D01*
X86063723Y-86755823D01*
X86172612Y-86623142D01*
X86253523Y-86471767D01*
X86263948Y-86437400D01*
X86829436Y-86437400D01*
X86836888Y-86451342D01*
X86945777Y-86584023D01*
X87078458Y-86692912D01*
X87229833Y-86773823D01*
X87394084Y-86823648D01*
X87564900Y-86840472D01*
X88039900Y-86840472D01*
X88210716Y-86823648D01*
X88374967Y-86773823D01*
X88526342Y-86692912D01*
X88659023Y-86584023D01*
X88767912Y-86451342D01*
X88848823Y-86299967D01*
X88898648Y-86135716D01*
X88915472Y-85964900D01*
X88915472Y-85389900D01*
X88898648Y-85219084D01*
X88848823Y-85054833D01*
X88767912Y-84903458D01*
X88684975Y-84802400D01*
X88767912Y-84701342D01*
X88848823Y-84549967D01*
X88898648Y-84385716D01*
X88915472Y-84214900D01*
X88915472Y-83639900D01*
X88898648Y-83469084D01*
X88848823Y-83304833D01*
X88767912Y-83153458D01*
X88659023Y-83020777D01*
X88526342Y-82911888D01*
X88374967Y-82830977D01*
X88210716Y-82781152D01*
X88039900Y-82764328D01*
X87714130Y-82764328D01*
X84660000Y-79710199D01*
X84660000Y-77256920D01*
X84756623Y-77177623D01*
X84865512Y-77044942D01*
X84946423Y-76893567D01*
X84996248Y-76729316D01*
X85013072Y-76558500D01*
X85013072Y-76058500D01*
X84996248Y-75887684D01*
X84946423Y-75723433D01*
X84865512Y-75572058D01*
X84776188Y-75463217D01*
X84826185Y-75422185D01*
X84905537Y-75325494D01*
X84964502Y-75215180D01*
X85000812Y-75095482D01*
X85013072Y-74971000D01*
X85010000Y-74769250D01*
X84851250Y-74610500D01*
X84027000Y-74610500D01*
X84027000Y-74630500D01*
X83773000Y-74630500D01*
X83773000Y-74610500D01*
X82948750Y-74610500D01*
X82790000Y-74769250D01*
X82786928Y-74971000D01*
X82799188Y-75095482D01*
X82835498Y-75215180D01*
X82894463Y-75325494D01*
X82973815Y-75422185D01*
X83023812Y-75463217D01*
X82934488Y-75572058D01*
X82853577Y-75723433D01*
X82803752Y-75887684D01*
X82786928Y-76058500D01*
X82786928Y-76558500D01*
X82803752Y-76729316D01*
X82853577Y-76893567D01*
X82934488Y-77044942D01*
X83043377Y-77177623D01*
X83140000Y-77256920D01*
X83140001Y-79987668D01*
X83136324Y-80025000D01*
X83140001Y-80062333D01*
X83150998Y-80173986D01*
X83158845Y-80199854D01*
X83194454Y-80317246D01*
X83265026Y-80449276D01*
X83330810Y-80529433D01*
X83360000Y-80565001D01*
X83388998Y-80588799D01*
X85829739Y-83029541D01*
X85779667Y-83002777D01*
X85615416Y-82952952D01*
X85444600Y-82936128D01*
X85118830Y-82936128D01*
X82360000Y-80177299D01*
X82360000Y-77260020D01*
X82456623Y-77180723D01*
X82565512Y-77048042D01*
X82646423Y-76896667D01*
X82696248Y-76732416D01*
X82713072Y-76561600D01*
X82713072Y-76061600D01*
X82696248Y-75890784D01*
X82646423Y-75726533D01*
X82565512Y-75575158D01*
X82476188Y-75466317D01*
X82526185Y-75425285D01*
X82605537Y-75328594D01*
X82664502Y-75218280D01*
X82700812Y-75098582D01*
X82713072Y-74974100D01*
X82710000Y-74772350D01*
X82551250Y-74613600D01*
X81727000Y-74613600D01*
X81727000Y-74633600D01*
X81473000Y-74633600D01*
X81473000Y-74613600D01*
X81453000Y-74613600D01*
X81453000Y-74359600D01*
X81473000Y-74359600D01*
X81473000Y-73522850D01*
X81727000Y-73522850D01*
X81727000Y-74359600D01*
X82551250Y-74359600D01*
X82710000Y-74200850D01*
X82713072Y-73999100D01*
X82712767Y-73996000D01*
X82786928Y-73996000D01*
X82790000Y-74197750D01*
X82948750Y-74356500D01*
X83773000Y-74356500D01*
X83773000Y-73519750D01*
X84027000Y-73519750D01*
X84027000Y-74356500D01*
X84851250Y-74356500D01*
X85010000Y-74197750D01*
X85013072Y-73996000D01*
X85000812Y-73871518D01*
X84964502Y-73751820D01*
X84905537Y-73641506D01*
X84826185Y-73544815D01*
X84729494Y-73465463D01*
X84619180Y-73406498D01*
X84499482Y-73370188D01*
X84375000Y-73357928D01*
X84185750Y-73361000D01*
X84027000Y-73519750D01*
X83773000Y-73519750D01*
X83614250Y-73361000D01*
X83425000Y-73357928D01*
X83300518Y-73370188D01*
X83180820Y-73406498D01*
X83070506Y-73465463D01*
X82973815Y-73544815D01*
X82894463Y-73641506D01*
X82835498Y-73751820D01*
X82799188Y-73871518D01*
X82786928Y-73996000D01*
X82712767Y-73996000D01*
X82700812Y-73874618D01*
X82664502Y-73754920D01*
X82605537Y-73644606D01*
X82526185Y-73547915D01*
X82429494Y-73468563D01*
X82319180Y-73409598D01*
X82199482Y-73373288D01*
X82075000Y-73361028D01*
X81885750Y-73364100D01*
X81727000Y-73522850D01*
X81473000Y-73522850D01*
X81314250Y-73364100D01*
X81179100Y-73361906D01*
X81179100Y-71416388D01*
X81276743Y-71446008D01*
X81449997Y-71463072D01*
X82750003Y-71463072D01*
X82923257Y-71446008D01*
X83089852Y-71395472D01*
X83243388Y-71313405D01*
X83377963Y-71202963D01*
X83488405Y-71068388D01*
X83570472Y-70914852D01*
X83574376Y-70901981D01*
X83686247Y-70868046D01*
X83818276Y-70797474D01*
X83934001Y-70702501D01*
X83957804Y-70673497D01*
X84799230Y-69832072D01*
X85137500Y-69832072D01*
X85308316Y-69815248D01*
X85472567Y-69765423D01*
X85550800Y-69723607D01*
X85550801Y-79293868D01*
%TA.AperFunction,Conductor*%
D27*
G36*
X85550801Y-79293868D02*
G01*
X85547124Y-79331200D01*
X85550801Y-79368533D01*
X85557530Y-79436847D01*
X85561798Y-79480185D01*
X85605254Y-79623446D01*
X85675826Y-79755476D01*
X85747001Y-79842202D01*
X85770800Y-79871201D01*
X85799798Y-79894999D01*
X96475401Y-90570603D01*
X96499199Y-90599601D01*
X96614924Y-90694574D01*
X96746953Y-90765146D01*
X96828887Y-90790000D01*
X79710000Y-90790000D01*
X79710000Y-81169930D01*
X79713554Y-81181646D01*
X79784126Y-81313676D01*
X79855301Y-81400402D01*
X79879100Y-81429401D01*
X79908098Y-81453199D01*
X84094028Y-85639130D01*
X84094028Y-86136700D01*
X84110852Y-86307516D01*
X84160677Y-86471767D01*
X84241588Y-86623142D01*
X84350477Y-86755823D01*
X84483158Y-86864712D01*
X84634533Y-86945623D01*
X84798784Y-86995448D01*
X84969600Y-87012272D01*
X85444600Y-87012272D01*
X85615416Y-86995448D01*
X85779667Y-86945623D01*
X85931042Y-86864712D01*
X86063723Y-86755823D01*
X86172612Y-86623142D01*
X86253523Y-86471767D01*
X86263948Y-86437400D01*
X86829436Y-86437400D01*
X86836888Y-86451342D01*
X86945777Y-86584023D01*
X87078458Y-86692912D01*
X87229833Y-86773823D01*
X87394084Y-86823648D01*
X87564900Y-86840472D01*
X88039900Y-86840472D01*
X88210716Y-86823648D01*
X88374967Y-86773823D01*
X88526342Y-86692912D01*
X88659023Y-86584023D01*
X88767912Y-86451342D01*
X88848823Y-86299967D01*
X88898648Y-86135716D01*
X88915472Y-85964900D01*
X88915472Y-85389900D01*
X88898648Y-85219084D01*
X88848823Y-85054833D01*
X88767912Y-84903458D01*
X88684975Y-84802400D01*
X88767912Y-84701342D01*
X88848823Y-84549967D01*
X88898648Y-84385716D01*
X88915472Y-84214900D01*
X88915472Y-83639900D01*
X88898648Y-83469084D01*
X88848823Y-83304833D01*
X88767912Y-83153458D01*
X88659023Y-83020777D01*
X88526342Y-82911888D01*
X88374967Y-82830977D01*
X88210716Y-82781152D01*
X88039900Y-82764328D01*
X87714130Y-82764328D01*
X84660000Y-79710199D01*
X84660000Y-77256920D01*
X84756623Y-77177623D01*
X84865512Y-77044942D01*
X84946423Y-76893567D01*
X84996248Y-76729316D01*
X85013072Y-76558500D01*
X85013072Y-76058500D01*
X84996248Y-75887684D01*
X84946423Y-75723433D01*
X84865512Y-75572058D01*
X84776188Y-75463217D01*
X84826185Y-75422185D01*
X84905537Y-75325494D01*
X84964502Y-75215180D01*
X85000812Y-75095482D01*
X85013072Y-74971000D01*
X85010000Y-74769250D01*
X84851250Y-74610500D01*
X84027000Y-74610500D01*
X84027000Y-74630500D01*
X83773000Y-74630500D01*
X83773000Y-74610500D01*
X82948750Y-74610500D01*
X82790000Y-74769250D01*
X82786928Y-74971000D01*
X82799188Y-75095482D01*
X82835498Y-75215180D01*
X82894463Y-75325494D01*
X82973815Y-75422185D01*
X83023812Y-75463217D01*
X82934488Y-75572058D01*
X82853577Y-75723433D01*
X82803752Y-75887684D01*
X82786928Y-76058500D01*
X82786928Y-76558500D01*
X82803752Y-76729316D01*
X82853577Y-76893567D01*
X82934488Y-77044942D01*
X83043377Y-77177623D01*
X83140000Y-77256920D01*
X83140001Y-79987668D01*
X83136324Y-80025000D01*
X83140001Y-80062333D01*
X83150998Y-80173986D01*
X83158845Y-80199854D01*
X83194454Y-80317246D01*
X83265026Y-80449276D01*
X83330810Y-80529433D01*
X83360000Y-80565001D01*
X83388998Y-80588799D01*
X85829739Y-83029541D01*
X85779667Y-83002777D01*
X85615416Y-82952952D01*
X85444600Y-82936128D01*
X85118830Y-82936128D01*
X82360000Y-80177299D01*
X82360000Y-77260020D01*
X82456623Y-77180723D01*
X82565512Y-77048042D01*
X82646423Y-76896667D01*
X82696248Y-76732416D01*
X82713072Y-76561600D01*
X82713072Y-76061600D01*
X82696248Y-75890784D01*
X82646423Y-75726533D01*
X82565512Y-75575158D01*
X82476188Y-75466317D01*
X82526185Y-75425285D01*
X82605537Y-75328594D01*
X82664502Y-75218280D01*
X82700812Y-75098582D01*
X82713072Y-74974100D01*
X82710000Y-74772350D01*
X82551250Y-74613600D01*
X81727000Y-74613600D01*
X81727000Y-74633600D01*
X81473000Y-74633600D01*
X81473000Y-74613600D01*
X81453000Y-74613600D01*
X81453000Y-74359600D01*
X81473000Y-74359600D01*
X81473000Y-73522850D01*
X81727000Y-73522850D01*
X81727000Y-74359600D01*
X82551250Y-74359600D01*
X82710000Y-74200850D01*
X82713072Y-73999100D01*
X82712767Y-73996000D01*
X82786928Y-73996000D01*
X82790000Y-74197750D01*
X82948750Y-74356500D01*
X83773000Y-74356500D01*
X83773000Y-73519750D01*
X84027000Y-73519750D01*
X84027000Y-74356500D01*
X84851250Y-74356500D01*
X85010000Y-74197750D01*
X85013072Y-73996000D01*
X85000812Y-73871518D01*
X84964502Y-73751820D01*
X84905537Y-73641506D01*
X84826185Y-73544815D01*
X84729494Y-73465463D01*
X84619180Y-73406498D01*
X84499482Y-73370188D01*
X84375000Y-73357928D01*
X84185750Y-73361000D01*
X84027000Y-73519750D01*
X83773000Y-73519750D01*
X83614250Y-73361000D01*
X83425000Y-73357928D01*
X83300518Y-73370188D01*
X83180820Y-73406498D01*
X83070506Y-73465463D01*
X82973815Y-73544815D01*
X82894463Y-73641506D01*
X82835498Y-73751820D01*
X82799188Y-73871518D01*
X82786928Y-73996000D01*
X82712767Y-73996000D01*
X82700812Y-73874618D01*
X82664502Y-73754920D01*
X82605537Y-73644606D01*
X82526185Y-73547915D01*
X82429494Y-73468563D01*
X82319180Y-73409598D01*
X82199482Y-73373288D01*
X82075000Y-73361028D01*
X81885750Y-73364100D01*
X81727000Y-73522850D01*
X81473000Y-73522850D01*
X81314250Y-73364100D01*
X81179100Y-73361906D01*
X81179100Y-71416388D01*
X81276743Y-71446008D01*
X81449997Y-71463072D01*
X82750003Y-71463072D01*
X82923257Y-71446008D01*
X83089852Y-71395472D01*
X83243388Y-71313405D01*
X83377963Y-71202963D01*
X83488405Y-71068388D01*
X83570472Y-70914852D01*
X83574376Y-70901981D01*
X83686247Y-70868046D01*
X83818276Y-70797474D01*
X83934001Y-70702501D01*
X83957804Y-70673497D01*
X84799230Y-69832072D01*
X85137500Y-69832072D01*
X85308316Y-69815248D01*
X85472567Y-69765423D01*
X85550800Y-69723607D01*
X85550801Y-79293868D01*
G37*
%TD.AperFunction*%
D26*
X92863767Y-39710624D02*
X92667455Y-39796191D01*
X92491609Y-39918413D01*
X92342986Y-40072592D01*
X92227298Y-40252803D01*
X92155592Y-40455999D01*
X92282498Y-40623000D01*
X93873000Y-40623000D01*
X93873000Y-40603000D01*
X94127000Y-40603000D01*
X94127000Y-40623000D01*
X95717502Y-40623000D01*
X95844408Y-40455999D01*
X95772702Y-40252803D01*
X95657014Y-40072592D01*
X95508391Y-39918413D01*
X95332545Y-39796191D01*
X95136233Y-39710624D01*
X95133371Y-39710000D01*
X110866629Y-39710000D01*
X110863767Y-39710624D01*
X110667455Y-39796191D01*
X110491609Y-39918413D01*
X110342986Y-40072592D01*
X110227298Y-40252803D01*
X110155592Y-40455999D01*
X110282498Y-40623000D01*
X111873000Y-40623000D01*
X111873000Y-40603000D01*
X112127000Y-40603000D01*
X112127000Y-40623000D01*
X113717502Y-40623000D01*
X113844408Y-40455999D01*
X113772702Y-40252803D01*
X113657014Y-40072592D01*
X113508391Y-39918413D01*
X113332545Y-39796191D01*
X113136233Y-39710624D01*
X113133371Y-39710000D01*
X126290001Y-39710000D01*
X126290000Y-81733878D01*
X126190666Y-81634544D01*
X125820511Y-81387214D01*
X125409218Y-81216851D01*
X124972591Y-81130000D01*
X124527409Y-81130000D01*
X124090782Y-81216851D01*
X123679489Y-81387214D01*
X123309334Y-81634544D01*
X122994544Y-81949334D01*
X122747214Y-82319489D01*
X122576851Y-82730782D01*
X122490000Y-83167409D01*
X122490000Y-83612591D01*
X122576851Y-84049218D01*
X122747214Y-84460511D01*
X122994544Y-84830666D01*
X123309334Y-85145456D01*
X123679489Y-85392786D01*
X124090782Y-85563149D01*
X124527409Y-85650000D01*
X124972591Y-85650000D01*
X125409218Y-85563149D01*
X125820511Y-85392786D01*
X126190666Y-85145456D01*
X126290000Y-85046122D01*
X126290000Y-90790000D01*
X100062013Y-90790000D01*
X100143947Y-90765146D01*
X100275976Y-90694574D01*
X100391701Y-90599601D01*
X100415504Y-90570597D01*
X102607707Y-88378394D01*
X105345000Y-88378394D01*
X105345000Y-89194807D01*
X105362147Y-89368900D01*
X105429906Y-89592274D01*
X105539943Y-89798136D01*
X105688026Y-89978575D01*
X105868465Y-90126658D01*
X106074327Y-90236694D01*
X106297701Y-90304453D01*
X106530000Y-90327333D01*
X106762300Y-90304453D01*
X106985674Y-90236694D01*
X107191536Y-90126658D01*
X107371975Y-89978575D01*
X107520058Y-89798136D01*
X107630094Y-89592274D01*
X107697853Y-89368899D01*
X107715000Y-89194806D01*
X107715000Y-88378393D01*
X107697853Y-88204300D01*
X107630094Y-87980926D01*
X107520058Y-87775064D01*
X107371975Y-87594625D01*
X107191535Y-87446542D01*
X106985673Y-87336506D01*
X106762299Y-87268747D01*
X106530000Y-87245867D01*
X106297700Y-87268747D01*
X106074326Y-87336506D01*
X105868464Y-87446542D01*
X105688025Y-87594625D01*
X105539942Y-87775065D01*
X105429906Y-87980927D01*
X105362147Y-88204301D01*
X105345000Y-88378394D01*
X102607707Y-88378394D01*
X103441004Y-87545098D01*
X103470001Y-87521301D01*
X103564974Y-87405576D01*
X103635546Y-87273547D01*
X103639755Y-87259672D01*
X103780000Y-87259672D01*
X103904482Y-87247412D01*
X103907242Y-87246575D01*
X103998250Y-87256600D01*
X104066218Y-87188632D01*
X104134494Y-87152137D01*
X104231185Y-87072785D01*
X104303000Y-86985278D01*
X104303000Y-87097850D01*
X104461750Y-87256600D01*
X104565003Y-87245226D01*
X104684073Y-87206906D01*
X104793378Y-87146092D01*
X104807869Y-87133786D01*
X104987471Y-87208179D01*
X105230901Y-87256600D01*
X105479099Y-87256600D01*
X105722529Y-87208179D01*
X105951834Y-87113198D01*
X106158203Y-86975306D01*
X106333706Y-86799803D01*
X106471598Y-86593434D01*
X106566579Y-86364129D01*
X106615000Y-86120699D01*
X106615000Y-85872501D01*
X106601832Y-85806300D01*
X106824199Y-85806300D01*
X107494901Y-86477003D01*
X107518699Y-86506001D01*
X107634424Y-86600974D01*
X107745928Y-86660575D01*
X107745928Y-86916000D01*
X107758188Y-87040482D01*
X107794498Y-87160180D01*
X107853463Y-87270494D01*
X107932815Y-87367185D01*
X108029506Y-87446537D01*
X108139820Y-87505502D01*
X108259518Y-87541812D01*
X108384000Y-87554072D01*
X109184000Y-87554072D01*
X109308482Y-87541812D01*
X109428180Y-87505502D01*
X109538494Y-87446537D01*
X109635185Y-87367185D01*
X109714537Y-87270494D01*
X109734000Y-87234082D01*
X109753463Y-87270494D01*
X109832815Y-87367185D01*
X109929506Y-87446537D01*
X110039820Y-87505502D01*
X110159518Y-87541812D01*
X110284000Y-87554072D01*
X111084000Y-87554072D01*
X111208482Y-87541812D01*
X111328180Y-87505502D01*
X111438494Y-87446537D01*
X111535185Y-87367185D01*
X111614537Y-87270494D01*
X111673502Y-87160180D01*
X111709812Y-87040482D01*
X111722072Y-86916000D01*
X111722072Y-85016000D01*
X111709812Y-84891518D01*
X111673502Y-84771820D01*
X111614537Y-84661506D01*
X111535185Y-84564815D01*
X111438494Y-84485463D01*
X111328180Y-84426498D01*
X111208482Y-84390188D01*
X111084000Y-84377928D01*
X110572095Y-84377928D01*
X110585185Y-84367185D01*
X110664537Y-84270494D01*
X110723502Y-84160180D01*
X110759812Y-84040482D01*
X110772072Y-83916000D01*
X110772072Y-83660575D01*
X110883576Y-83600974D01*
X110999301Y-83506001D01*
X111023104Y-83476997D01*
X111332692Y-83167409D01*
X112330000Y-83167409D01*
X112330000Y-83612591D01*
X112416851Y-84049218D01*
X112587214Y-84460511D01*
X112834544Y-84830666D01*
X113149334Y-85145456D01*
X113519489Y-85392786D01*
X113930782Y-85563149D01*
X114367409Y-85650000D01*
X114812591Y-85650000D01*
X115249218Y-85563149D01*
X115660511Y-85392786D01*
X116030666Y-85145456D01*
X116345456Y-84830666D01*
X116592786Y-84460511D01*
X116763149Y-84049218D01*
X116850000Y-83612591D01*
X116850000Y-83167409D01*
X116763149Y-82730782D01*
X116592786Y-82319489D01*
X116345456Y-81949334D01*
X116030666Y-81634544D01*
X115660511Y-81387214D01*
X115249218Y-81216851D01*
X114812591Y-81130000D01*
X114367409Y-81130000D01*
X113930782Y-81216851D01*
X113519489Y-81387214D01*
X113149334Y-81634544D01*
X112834544Y-81949334D01*
X112587214Y-82319489D01*
X112416851Y-82730782D01*
X112330000Y-83167409D01*
X111332692Y-83167409D01*
X116684111Y-77815991D01*
X116733814Y-77890376D01*
X116919624Y-78076186D01*
X117138114Y-78222176D01*
X117380886Y-78322735D01*
X117638612Y-78374000D01*
X117901388Y-78374000D01*
X118159114Y-78322735D01*
X118401886Y-78222176D01*
X118620376Y-78076186D01*
X118806186Y-77890376D01*
X118952176Y-77671886D01*
X119040000Y-77459859D01*
X119127824Y-77671886D01*
X119273814Y-77890376D01*
X119459624Y-78076186D01*
X119678114Y-78222176D01*
X119920886Y-78322735D01*
X120178612Y-78374000D01*
X120441388Y-78374000D01*
X120699114Y-78322735D01*
X120941886Y-78222176D01*
X121160376Y-78076186D01*
X121276007Y-77960555D01*
X122109050Y-77960555D01*
X122168389Y-78194221D01*
X122406664Y-78305018D01*
X122661975Y-78367202D01*
X122924512Y-78378382D01*
X123184186Y-78338129D01*
X123431017Y-78247990D01*
X123531611Y-78194221D01*
X123590950Y-77960555D01*
X122850000Y-77219605D01*
X122109050Y-77960555D01*
X121276007Y-77960555D01*
X121346186Y-77890376D01*
X121492176Y-77671886D01*
X121581678Y-77455808D01*
X121642010Y-77621017D01*
X121695779Y-77721611D01*
X121929445Y-77780950D01*
X122670395Y-77040000D01*
X123029605Y-77040000D01*
X123770555Y-77780950D01*
X124004221Y-77721611D01*
X124115018Y-77483336D01*
X124177202Y-77228025D01*
X124188382Y-76965488D01*
X124148129Y-76705814D01*
X124057990Y-76458983D01*
X124004221Y-76358389D01*
X123770555Y-76299050D01*
X123029605Y-77040000D01*
X122670395Y-77040000D01*
X121929445Y-76299050D01*
X121695779Y-76358389D01*
X121584982Y-76596664D01*
X121579536Y-76619022D01*
X121492176Y-76408114D01*
X121346186Y-76189624D01*
X121276007Y-76119445D01*
X122109050Y-76119445D01*
X122850000Y-76860395D01*
X123590950Y-76119445D01*
X123531611Y-75885779D01*
X123293336Y-75774982D01*
X123038025Y-75712798D01*
X122775488Y-75701618D01*
X122515814Y-75741871D01*
X122268983Y-75832010D01*
X122168389Y-75885779D01*
X122109050Y-76119445D01*
X121276007Y-76119445D01*
X121160376Y-76003814D01*
X120941886Y-75857824D01*
X120699114Y-75757265D01*
X120441388Y-75706000D01*
X120178612Y-75706000D01*
X119920886Y-75757265D01*
X119678114Y-75857824D01*
X119459624Y-76003814D01*
X119273814Y-76189624D01*
X119127824Y-76408114D01*
X119040000Y-76620141D01*
X118952176Y-76408114D01*
X118806186Y-76189624D01*
X118620376Y-76003814D01*
X118401886Y-75857824D01*
X118159114Y-75757265D01*
X117901388Y-75706000D01*
X117772200Y-75706000D01*
X117772200Y-75473678D01*
X117788502Y-75443180D01*
X117795365Y-75420555D01*
X118299050Y-75420555D01*
X118358389Y-75654221D01*
X118596664Y-75765018D01*
X118851975Y-75827202D01*
X119114512Y-75838382D01*
X119374186Y-75798129D01*
X119621017Y-75707990D01*
X119721611Y-75654221D01*
X119780950Y-75420555D01*
X119040000Y-74679605D01*
X118299050Y-75420555D01*
X117795365Y-75420555D01*
X117824812Y-75323482D01*
X117837072Y-75199000D01*
X117837072Y-75194575D01*
X117880345Y-75171445D01*
X117885779Y-75181611D01*
X118119445Y-75240950D01*
X118860395Y-74500000D01*
X118846253Y-74485858D01*
X119025858Y-74306253D01*
X119040000Y-74320395D01*
X119780950Y-73579445D01*
X119728033Y-73371068D01*
X122610502Y-70488600D01*
X123076978Y-70488600D01*
X123114300Y-70492276D01*
X123151622Y-70488600D01*
X123151633Y-70488600D01*
X123263286Y-70477603D01*
X123406547Y-70434146D01*
X123538576Y-70363574D01*
X123654301Y-70268601D01*
X123678104Y-70239597D01*
X124197001Y-69720700D01*
X124197001Y-70808197D01*
X121817994Y-73187205D01*
X121711388Y-73166000D01*
X121448612Y-73166000D01*
X121190886Y-73217265D01*
X120948114Y-73317824D01*
X120729624Y-73463814D01*
X120543814Y-73649624D01*
X120397824Y-73868114D01*
X120308322Y-74084192D01*
X120247990Y-73918983D01*
X120194221Y-73818389D01*
X119960555Y-73759050D01*
X119219605Y-74500000D01*
X119960555Y-75240950D01*
X120194221Y-75181611D01*
X120305018Y-74943336D01*
X120310464Y-74920978D01*
X120397824Y-75131886D01*
X120543814Y-75350376D01*
X120729624Y-75536186D01*
X120948114Y-75682176D01*
X121190886Y-75782735D01*
X121448612Y-75834000D01*
X121711388Y-75834000D01*
X121969114Y-75782735D01*
X122211886Y-75682176D01*
X122430376Y-75536186D01*
X122616186Y-75350376D01*
X122762176Y-75131886D01*
X122862735Y-74889114D01*
X122914000Y-74631388D01*
X122914000Y-74368612D01*
X122892795Y-74262006D01*
X125468003Y-71686799D01*
X125497001Y-71663001D01*
X125591974Y-71547276D01*
X125662546Y-71415247D01*
X125706003Y-71271986D01*
X125717000Y-71160333D01*
X125717000Y-71160324D01*
X125720676Y-71123001D01*
X125717000Y-71085678D01*
X125717000Y-57431822D01*
X125720676Y-57394499D01*
X125717000Y-57357176D01*
X125717000Y-57357167D01*
X125706003Y-57245514D01*
X125662546Y-57102253D01*
X125614152Y-57011715D01*
X125591974Y-56970223D01*
X125520799Y-56883497D01*
X125497001Y-56854499D01*
X125468004Y-56830702D01*
X122088072Y-53450771D01*
X122088072Y-53162500D01*
X122071248Y-52991684D01*
X122021423Y-52827433D01*
X121940512Y-52676058D01*
X121831623Y-52543377D01*
X121722500Y-52453822D01*
X121722500Y-52341283D01*
X121723942Y-52340512D01*
X121856623Y-52231623D01*
X121965512Y-52098942D01*
X122046423Y-51947567D01*
X122096248Y-51783316D01*
X122113072Y-51612500D01*
X122113072Y-51112500D01*
X122096248Y-50941684D01*
X122046423Y-50777433D01*
X121965512Y-50626058D01*
X121856623Y-50493377D01*
X121803768Y-50450000D01*
X121856623Y-50406623D01*
X121965512Y-50273942D01*
X122046423Y-50122567D01*
X122096248Y-49958316D01*
X122113072Y-49787500D01*
X122113072Y-49287500D01*
X122096248Y-49116684D01*
X122046423Y-48952433D01*
X121965512Y-48801058D01*
X121856623Y-48668377D01*
X121723942Y-48559488D01*
X121710000Y-48552036D01*
X121710000Y-45476018D01*
X121801185Y-45401185D01*
X121880537Y-45304494D01*
X121939502Y-45194180D01*
X121975812Y-45074482D01*
X121988072Y-44950000D01*
X121988072Y-43050000D01*
X121975812Y-42925518D01*
X121939502Y-42805820D01*
X121880537Y-42695506D01*
X121801185Y-42598815D01*
X121704494Y-42519463D01*
X121594180Y-42460498D01*
X121474482Y-42424188D01*
X121350000Y-42411928D01*
X120550000Y-42411928D01*
X120425518Y-42424188D01*
X120305820Y-42460498D01*
X120195506Y-42519463D01*
X120098815Y-42598815D01*
X120019463Y-42695506D01*
X120000000Y-42731918D01*
X119980537Y-42695506D01*
X119901185Y-42598815D01*
X119804494Y-42519463D01*
X119694180Y-42460498D01*
X119574482Y-42424188D01*
X119450000Y-42411928D01*
X119335750Y-42415000D01*
X119177000Y-42573750D01*
X119177000Y-43873000D01*
X119197000Y-43873000D01*
X119197000Y-44127000D01*
X119177000Y-44127000D01*
X119177000Y-45426250D01*
X119261607Y-45510857D01*
X119245506Y-45519463D01*
X119148815Y-45598815D01*
X119069463Y-45695506D01*
X119010498Y-45805820D01*
X118974188Y-45925518D01*
X118961928Y-46050000D01*
X118961928Y-47950000D01*
X118974188Y-48074482D01*
X119010498Y-48194180D01*
X119069463Y-48304494D01*
X119109463Y-48353235D01*
X119050770Y-48411928D01*
X118762500Y-48411928D01*
X118591684Y-48428752D01*
X118427433Y-48478577D01*
X118276058Y-48559488D01*
X118143377Y-48668377D01*
X118034488Y-48801058D01*
X117953577Y-48952433D01*
X117903752Y-49116684D01*
X117886928Y-49287500D01*
X117886928Y-49575770D01*
X113876871Y-53585828D01*
X113890249Y-53450000D01*
X113869300Y-53237303D01*
X113807259Y-53032780D01*
X113706509Y-52844290D01*
X113682471Y-52815000D01*
X113706509Y-52785710D01*
X113807259Y-52597220D01*
X113869300Y-52392697D01*
X113890249Y-52180000D01*
X113869300Y-51967303D01*
X113807259Y-51762780D01*
X113706509Y-51574290D01*
X113682471Y-51545000D01*
X113706509Y-51515710D01*
X113807259Y-51327220D01*
X113869300Y-51122697D01*
X113890249Y-50910000D01*
X113869300Y-50697303D01*
X113807259Y-50492780D01*
X113706509Y-50304290D01*
X113682471Y-50275000D01*
X113706509Y-50245710D01*
X113807259Y-50057220D01*
X113869300Y-49852697D01*
X113890249Y-49640000D01*
X113869300Y-49427303D01*
X113807259Y-49222780D01*
X113706509Y-49034290D01*
X113682471Y-49005000D01*
X113706509Y-48975710D01*
X113807259Y-48787220D01*
X113869300Y-48582697D01*
X113890249Y-48370000D01*
X113869300Y-48157303D01*
X113807259Y-47952780D01*
X113706509Y-47764290D01*
X113682471Y-47735000D01*
X113706509Y-47705710D01*
X113807259Y-47517220D01*
X113869300Y-47312697D01*
X113890249Y-47100000D01*
X113869300Y-46887303D01*
X113807259Y-46682780D01*
X113706509Y-46494290D01*
X113682471Y-46465000D01*
X113706509Y-46435710D01*
X113807259Y-46247220D01*
X113869300Y-46042697D01*
X113890249Y-45830000D01*
X113869300Y-45617303D01*
X113807259Y-45412780D01*
X113706509Y-45224290D01*
X113682471Y-45195000D01*
X113706509Y-45165710D01*
X113807259Y-44977220D01*
X113815516Y-44950000D01*
X118011928Y-44950000D01*
X118024188Y-45074482D01*
X118060498Y-45194180D01*
X118119463Y-45304494D01*
X118198815Y-45401185D01*
X118295506Y-45480537D01*
X118405820Y-45539502D01*
X118525518Y-45575812D01*
X118650000Y-45588072D01*
X118764250Y-45585000D01*
X118923000Y-45426250D01*
X118923000Y-44127000D01*
X118173750Y-44127000D01*
X118015000Y-44285750D01*
X118011928Y-44950000D01*
X113815516Y-44950000D01*
X113869300Y-44772697D01*
X113890249Y-44560000D01*
X113869300Y-44347303D01*
X113807259Y-44142780D01*
X113706509Y-43954290D01*
X113682471Y-43925000D01*
X113706509Y-43895710D01*
X113807259Y-43707220D01*
X113869300Y-43502697D01*
X113890249Y-43290000D01*
X113869300Y-43077303D01*
X113861018Y-43050000D01*
X118011928Y-43050000D01*
X118015000Y-43714250D01*
X118173750Y-43873000D01*
X118923000Y-43873000D01*
X118923000Y-42573750D01*
X118764250Y-42415000D01*
X118650000Y-42411928D01*
X118525518Y-42424188D01*
X118405820Y-42460498D01*
X118295506Y-42519463D01*
X118198815Y-42598815D01*
X118119463Y-42695506D01*
X118060498Y-42805820D01*
X118024188Y-42925518D01*
X118011928Y-43050000D01*
X113861018Y-43050000D01*
X113807259Y-42872780D01*
X113706509Y-42684290D01*
X113682471Y-42655000D01*
X113706509Y-42625710D01*
X113807259Y-42437220D01*
X113869300Y-42232697D01*
X113890249Y-42020000D01*
X113869300Y-41807303D01*
X113807259Y-41602780D01*
X113706509Y-41414290D01*
X113683463Y-41386208D01*
X113772702Y-41247197D01*
X113844408Y-41044001D01*
X113717502Y-40877000D01*
X112127000Y-40877000D01*
X112127000Y-40897000D01*
X111873000Y-40897000D01*
X111873000Y-40877000D01*
X110282498Y-40877000D01*
X110155592Y-41044001D01*
X110227298Y-41247197D01*
X110316537Y-41386208D01*
X110293491Y-41414290D01*
X110192741Y-41602780D01*
X110130700Y-41807303D01*
X110109751Y-42020000D01*
X110130700Y-42232697D01*
X110192741Y-42437220D01*
X110293491Y-42625710D01*
X110317529Y-42655000D01*
X110293491Y-42684290D01*
X110192741Y-42872780D01*
X110130700Y-43077303D01*
X110109751Y-43290000D01*
X110130700Y-43502697D01*
X110192741Y-43707220D01*
X110252048Y-43818176D01*
X110143790Y-43851015D01*
X110132453Y-43854454D01*
X110000423Y-43925026D01*
X109954558Y-43962667D01*
X109884699Y-44019999D01*
X109860901Y-44048997D01*
X108132803Y-45777096D01*
X108103799Y-45800899D01*
X108055202Y-45860115D01*
X108008826Y-45916624D01*
X107975493Y-45978986D01*
X107938254Y-46048654D01*
X107894797Y-46191915D01*
X107883800Y-46303568D01*
X107883800Y-46303578D01*
X107880124Y-46340900D01*
X107883800Y-46378223D01*
X107883801Y-48678697D01*
X106338072Y-50224426D01*
X106338072Y-45450000D01*
X106325812Y-45325518D01*
X106289502Y-45205820D01*
X106230537Y-45095506D01*
X106151185Y-44998815D01*
X106054494Y-44919463D01*
X105944180Y-44860498D01*
X105824482Y-44824188D01*
X105700000Y-44811928D01*
X99700000Y-44811928D01*
X99575518Y-44824188D01*
X99455820Y-44860498D01*
X99345506Y-44919463D01*
X99248815Y-44998815D01*
X99169463Y-45095506D01*
X99110498Y-45205820D01*
X99074188Y-45325518D01*
X99061928Y-45450000D01*
X99061928Y-51450000D01*
X99074188Y-51574482D01*
X99110498Y-51694180D01*
X99169463Y-51804494D01*
X99248815Y-51901185D01*
X99345506Y-51980537D01*
X99455820Y-52039502D01*
X99575518Y-52075812D01*
X99700000Y-52088072D01*
X104474427Y-52088072D01*
X101936499Y-54626000D01*
X97999722Y-54626000D01*
X97962399Y-54622324D01*
X97925076Y-54626000D01*
X97925067Y-54626000D01*
X97813414Y-54636997D01*
X97670153Y-54680454D01*
X97538124Y-54751026D01*
X97422399Y-54845999D01*
X97398601Y-54874997D01*
X95739373Y-56534225D01*
X95807259Y-56407220D01*
X95869300Y-56202697D01*
X95890249Y-55990000D01*
X95869300Y-55777303D01*
X95807259Y-55572780D01*
X95706509Y-55384290D01*
X95682471Y-55355000D01*
X95706509Y-55325710D01*
X95807259Y-55137220D01*
X95869300Y-54932697D01*
X95890249Y-54720000D01*
X95869300Y-54507303D01*
X95807259Y-54302780D01*
X95706509Y-54114290D01*
X95682471Y-54085000D01*
X95706509Y-54055710D01*
X95807259Y-53867220D01*
X95869300Y-53662697D01*
X95890249Y-53450000D01*
X95869300Y-53237303D01*
X95807259Y-53032780D01*
X95706509Y-52844290D01*
X95682471Y-52815000D01*
X95706509Y-52785710D01*
X95807259Y-52597220D01*
X95869300Y-52392697D01*
X95890249Y-52180000D01*
X95869300Y-51967303D01*
X95807259Y-51762780D01*
X95706509Y-51574290D01*
X95682471Y-51545000D01*
X95706509Y-51515710D01*
X95807259Y-51327220D01*
X95869300Y-51122697D01*
X95890249Y-50910000D01*
X95869300Y-50697303D01*
X95807259Y-50492780D01*
X95706509Y-50304290D01*
X95682471Y-50275000D01*
X95706509Y-50245710D01*
X95807259Y-50057220D01*
X95869300Y-49852697D01*
X95890249Y-49640000D01*
X95869300Y-49427303D01*
X95807259Y-49222780D01*
X95706509Y-49034290D01*
X95682471Y-49005000D01*
X95706509Y-48975710D01*
X95807259Y-48787220D01*
X95869300Y-48582697D01*
X95890249Y-48370000D01*
X95869300Y-48157303D01*
X95807259Y-47952780D01*
X95706509Y-47764290D01*
X95682471Y-47735000D01*
X95706509Y-47705710D01*
X95807259Y-47517220D01*
X95869300Y-47312697D01*
X95890249Y-47100000D01*
X95869300Y-46887303D01*
X95807259Y-46682780D01*
X95706509Y-46494290D01*
X95682471Y-46465000D01*
X95706509Y-46435710D01*
X95807259Y-46247220D01*
X95869300Y-46042697D01*
X95890249Y-45830000D01*
X95869300Y-45617303D01*
X95807259Y-45412780D01*
X95706509Y-45224290D01*
X95682471Y-45195000D01*
X95706509Y-45165710D01*
X95807259Y-44977220D01*
X95869300Y-44772697D01*
X95890249Y-44560000D01*
X95869300Y-44347303D01*
X95807259Y-44142780D01*
X95706509Y-43954290D01*
X95682471Y-43925000D01*
X95706509Y-43895710D01*
X95807259Y-43707220D01*
X95869300Y-43502697D01*
X95890249Y-43290000D01*
X95869300Y-43077303D01*
X95807259Y-42872780D01*
X95706509Y-42684290D01*
X95682471Y-42655000D01*
X95706509Y-42625710D01*
X95807259Y-42437220D01*
X95869300Y-42232697D01*
X95890249Y-42020000D01*
X95869300Y-41807303D01*
X95807259Y-41602780D01*
X95706509Y-41414290D01*
X95683463Y-41386208D01*
X95772702Y-41247197D01*
X95844408Y-41044001D01*
X95717502Y-40877000D01*
X94127000Y-40877000D01*
X94127000Y-40897000D01*
X93873000Y-40897000D01*
X93873000Y-40877000D01*
X92282498Y-40877000D01*
X92155592Y-41044001D01*
X92227298Y-41247197D01*
X92247978Y-41279411D01*
X92132453Y-41314454D01*
X92000424Y-41385026D01*
X91884699Y-41479999D01*
X91789726Y-41595724D01*
X91719154Y-41727753D01*
X91675697Y-41871014D01*
X91661023Y-42020000D01*
X91664700Y-42057333D01*
X91664700Y-42322998D01*
X89521219Y-44466480D01*
X89475003Y-44461928D01*
X88649997Y-44461928D01*
X88476743Y-44478992D01*
X88310148Y-44529528D01*
X88156612Y-44611595D01*
X88022037Y-44722037D01*
X87911595Y-44856612D01*
X87829528Y-45010148D01*
X87778992Y-45176743D01*
X87761928Y-45349997D01*
X87761928Y-46650003D01*
X87778992Y-46823257D01*
X87829528Y-46989852D01*
X87911595Y-47143388D01*
X88022037Y-47277963D01*
X88156612Y-47388405D01*
X88302500Y-47466384D01*
X88302500Y-47595354D01*
X88276058Y-47609488D01*
X88143377Y-47718377D01*
X88034488Y-47851058D01*
X88020355Y-47877500D01*
X87007733Y-47877500D01*
X86978085Y-47874580D01*
X86965512Y-47851058D01*
X86856623Y-47718377D01*
X86723942Y-47609488D01*
X86590181Y-47537992D01*
X86600000Y-47538072D01*
X86724482Y-47525812D01*
X86844180Y-47489502D01*
X86954494Y-47430537D01*
X87051185Y-47351185D01*
X87130537Y-47254494D01*
X87189502Y-47144180D01*
X87225812Y-47024482D01*
X87238072Y-46900000D01*
X87235000Y-46285750D01*
X87076250Y-46127000D01*
X86064500Y-46127000D01*
X86064500Y-46147000D01*
X85810500Y-46147000D01*
X85810500Y-46127000D01*
X84798750Y-46127000D01*
X84640000Y-46285750D01*
X84636928Y-46900000D01*
X84649188Y-47024482D01*
X84685498Y-47144180D01*
X84744463Y-47254494D01*
X84823815Y-47351185D01*
X84920506Y-47430537D01*
X85030820Y-47489502D01*
X85150518Y-47525812D01*
X85275000Y-47538072D01*
X85411755Y-47536957D01*
X85276058Y-47609488D01*
X85143377Y-47718377D01*
X85034488Y-47851058D01*
X84953577Y-48002433D01*
X84903752Y-48166684D01*
X84886928Y-48337500D01*
X84886928Y-48937500D01*
X84903752Y-49108316D01*
X84953577Y-49272567D01*
X85033774Y-49422606D01*
X84994463Y-49470506D01*
X84935498Y-49580820D01*
X84899188Y-49700518D01*
X84886928Y-49825000D01*
X84890000Y-50076750D01*
X85048750Y-50235500D01*
X85873000Y-50235500D01*
X85873000Y-50215500D01*
X86127000Y-50215500D01*
X86127000Y-50235500D01*
X86147000Y-50235500D01*
X86147000Y-50489500D01*
X86127000Y-50489500D01*
X86127000Y-51376250D01*
X86210400Y-51459650D01*
X86210400Y-51477850D01*
X86064500Y-51623750D01*
X86064500Y-52873000D01*
X86084500Y-52873000D01*
X86084500Y-53127000D01*
X86064500Y-53127000D01*
X86064500Y-54376250D01*
X86210400Y-54522150D01*
X86210401Y-61541463D01*
X86141814Y-61644111D01*
X86071332Y-61814271D01*
X86035400Y-61994911D01*
X86035400Y-62179089D01*
X86071332Y-62359729D01*
X86141814Y-62529889D01*
X86244138Y-62683028D01*
X86374372Y-62813262D01*
X86527511Y-62915586D01*
X86644680Y-62964119D01*
X86024902Y-63583897D01*
X85995899Y-63607699D01*
X85955477Y-63656954D01*
X85934949Y-63681967D01*
X85866226Y-63553394D01*
X85905537Y-63505494D01*
X85964502Y-63395180D01*
X86000812Y-63275482D01*
X86013072Y-63151000D01*
X86010000Y-62899250D01*
X85851250Y-62740500D01*
X85027000Y-62740500D01*
X85027000Y-62760500D01*
X84773000Y-62760500D01*
X84773000Y-62740500D01*
X83948750Y-62740500D01*
X83790000Y-62899250D01*
X83786928Y-63151000D01*
X83799188Y-63275482D01*
X83835498Y-63395180D01*
X83894463Y-63505494D01*
X83933774Y-63553394D01*
X83907526Y-63602500D01*
X83566384Y-63602500D01*
X83488405Y-63456612D01*
X83377963Y-63322037D01*
X83243388Y-63211595D01*
X83089852Y-63129528D01*
X82923257Y-63078992D01*
X82750003Y-63061928D01*
X81449997Y-63061928D01*
X81276743Y-63078992D01*
X81110148Y-63129528D01*
X80956612Y-63211595D01*
X80822037Y-63322037D01*
X80711595Y-63456612D01*
X80629528Y-63610148D01*
X80578992Y-63776743D01*
X80561928Y-63949997D01*
X80561928Y-64775003D01*
X80566480Y-64821219D01*
X79908103Y-65479596D01*
X79879099Y-65503399D01*
X79823971Y-65570574D01*
X79784126Y-65619124D01*
X79721158Y-65736928D01*
X79713554Y-65751154D01*
X79710000Y-65762870D01*
X79710000Y-61900000D01*
X80561928Y-61900000D01*
X80574188Y-62024482D01*
X80610498Y-62144180D01*
X80669463Y-62254494D01*
X80748815Y-62351185D01*
X80845506Y-62430537D01*
X80955820Y-62489502D01*
X81075518Y-62525812D01*
X81200000Y-62538072D01*
X81814250Y-62535000D01*
X81973000Y-62376250D01*
X81973000Y-61364500D01*
X82227000Y-61364500D01*
X82227000Y-62376250D01*
X82385750Y-62535000D01*
X83000000Y-62538072D01*
X83124482Y-62525812D01*
X83244180Y-62489502D01*
X83354494Y-62430537D01*
X83451185Y-62351185D01*
X83530537Y-62254494D01*
X83589502Y-62144180D01*
X83610184Y-62076000D01*
X83786928Y-62076000D01*
X83790000Y-62327750D01*
X83948750Y-62486500D01*
X84773000Y-62486500D01*
X84773000Y-61599750D01*
X85027000Y-61599750D01*
X85027000Y-62486500D01*
X85851250Y-62486500D01*
X86010000Y-62327750D01*
X86013072Y-62076000D01*
X86000812Y-61951518D01*
X85964502Y-61831820D01*
X85905537Y-61721506D01*
X85826185Y-61624815D01*
X85729494Y-61545463D01*
X85619180Y-61486498D01*
X85499482Y-61450188D01*
X85375000Y-61437928D01*
X85185750Y-61441000D01*
X85027000Y-61599750D01*
X84773000Y-61599750D01*
X84614250Y-61441000D01*
X84425000Y-61437928D01*
X84300518Y-61450188D01*
X84180820Y-61486498D01*
X84070506Y-61545463D01*
X83973815Y-61624815D01*
X83894463Y-61721506D01*
X83835498Y-61831820D01*
X83799188Y-61951518D01*
X83786928Y-62076000D01*
X83610184Y-62076000D01*
X83625812Y-62024482D01*
X83638072Y-61900000D01*
X83635000Y-61523250D01*
X83476250Y-61364500D01*
X82227000Y-61364500D01*
X81973000Y-61364500D01*
X80723750Y-61364500D01*
X80565000Y-61523250D01*
X80561928Y-61900000D01*
X79710000Y-61900000D01*
X79710000Y-60575000D01*
X80561928Y-60575000D01*
X80565000Y-60951750D01*
X80723750Y-61110500D01*
X81973000Y-61110500D01*
X81973000Y-60098750D01*
X82227000Y-60098750D01*
X82227000Y-61110500D01*
X83476250Y-61110500D01*
X83635000Y-60951750D01*
X83638072Y-60575000D01*
X83625812Y-60450518D01*
X83589502Y-60330820D01*
X83530537Y-60220506D01*
X83451185Y-60123815D01*
X83354494Y-60044463D01*
X83244180Y-59985498D01*
X83124482Y-59949188D01*
X83000000Y-59936928D01*
X82385750Y-59940000D01*
X82227000Y-60098750D01*
X81973000Y-60098750D01*
X81814250Y-59940000D01*
X81200000Y-59936928D01*
X81075518Y-59949188D01*
X80955820Y-59985498D01*
X80845506Y-60044463D01*
X80748815Y-60123815D01*
X80669463Y-60220506D01*
X80610498Y-60330820D01*
X80574188Y-60450518D01*
X80561928Y-60575000D01*
X79710000Y-60575000D01*
X79710000Y-56127000D01*
X81000000Y-56127000D01*
X81033544Y-56122490D01*
X81056796Y-56113592D01*
X82056796Y-55613592D01*
X82083211Y-55595943D01*
X82100329Y-55577866D01*
X82113592Y-55556796D01*
X82613592Y-54556796D01*
X82624560Y-54524776D01*
X82627000Y-54500000D01*
X82627000Y-53900000D01*
X84636928Y-53900000D01*
X84649188Y-54024482D01*
X84685498Y-54144180D01*
X84744463Y-54254494D01*
X84823815Y-54351185D01*
X84920506Y-54430537D01*
X85030820Y-54489502D01*
X85150518Y-54525812D01*
X85275000Y-54538072D01*
X85651750Y-54535000D01*
X85810500Y-54376250D01*
X85810500Y-53127000D01*
X84798750Y-53127000D01*
X84640000Y-53285750D01*
X84636928Y-53900000D01*
X82627000Y-53900000D01*
X82627000Y-52100000D01*
X84636928Y-52100000D01*
X84640000Y-52714250D01*
X84798750Y-52873000D01*
X85810500Y-52873000D01*
X85810500Y-51623750D01*
X85718000Y-51531250D01*
X85873000Y-51376250D01*
X85873000Y-50489500D01*
X85048750Y-50489500D01*
X84890000Y-50648250D01*
X84886928Y-50900000D01*
X84899188Y-51024482D01*
X84935498Y-51144180D01*
X84994463Y-51254494D01*
X85073815Y-51351185D01*
X85170506Y-51430537D01*
X85236354Y-51465734D01*
X85150518Y-51474188D01*
X85030820Y-51510498D01*
X84920506Y-51569463D01*
X84823815Y-51648815D01*
X84744463Y-51745506D01*
X84685498Y-51855820D01*
X84649188Y-51975518D01*
X84636928Y-52100000D01*
X82627000Y-52100000D01*
X82627000Y-45100000D01*
X84636928Y-45100000D01*
X84640000Y-45714250D01*
X84798750Y-45873000D01*
X85810500Y-45873000D01*
X85810500Y-44623750D01*
X86064500Y-44623750D01*
X86064500Y-45873000D01*
X87076250Y-45873000D01*
X87235000Y-45714250D01*
X87238072Y-45100000D01*
X87225812Y-44975518D01*
X87189502Y-44855820D01*
X87130537Y-44745506D01*
X87051185Y-44648815D01*
X86954494Y-44569463D01*
X86844180Y-44510498D01*
X86724482Y-44474188D01*
X86600000Y-44461928D01*
X86223250Y-44465000D01*
X86064500Y-44623750D01*
X85810500Y-44623750D01*
X85651750Y-44465000D01*
X85275000Y-44461928D01*
X85150518Y-44474188D01*
X85030820Y-44510498D01*
X84920506Y-44569463D01*
X84823815Y-44648815D01*
X84744463Y-44745506D01*
X84685498Y-44855820D01*
X84649188Y-44975518D01*
X84636928Y-45100000D01*
X82627000Y-45100000D01*
X82627000Y-39710000D01*
X92866629Y-39710000D01*
X92863767Y-39710624D01*
%TA.AperFunction,Conductor*%
D27*
G36*
X92863767Y-39710624D02*
G01*
X92667455Y-39796191D01*
X92491609Y-39918413D01*
X92342986Y-40072592D01*
X92227298Y-40252803D01*
X92155592Y-40455999D01*
X92282498Y-40623000D01*
X93873000Y-40623000D01*
X93873000Y-40603000D01*
X94127000Y-40603000D01*
X94127000Y-40623000D01*
X95717502Y-40623000D01*
X95844408Y-40455999D01*
X95772702Y-40252803D01*
X95657014Y-40072592D01*
X95508391Y-39918413D01*
X95332545Y-39796191D01*
X95136233Y-39710624D01*
X95133371Y-39710000D01*
X110866629Y-39710000D01*
X110863767Y-39710624D01*
X110667455Y-39796191D01*
X110491609Y-39918413D01*
X110342986Y-40072592D01*
X110227298Y-40252803D01*
X110155592Y-40455999D01*
X110282498Y-40623000D01*
X111873000Y-40623000D01*
X111873000Y-40603000D01*
X112127000Y-40603000D01*
X112127000Y-40623000D01*
X113717502Y-40623000D01*
X113844408Y-40455999D01*
X113772702Y-40252803D01*
X113657014Y-40072592D01*
X113508391Y-39918413D01*
X113332545Y-39796191D01*
X113136233Y-39710624D01*
X113133371Y-39710000D01*
X126290001Y-39710000D01*
X126290000Y-81733878D01*
X126190666Y-81634544D01*
X125820511Y-81387214D01*
X125409218Y-81216851D01*
X124972591Y-81130000D01*
X124527409Y-81130000D01*
X124090782Y-81216851D01*
X123679489Y-81387214D01*
X123309334Y-81634544D01*
X122994544Y-81949334D01*
X122747214Y-82319489D01*
X122576851Y-82730782D01*
X122490000Y-83167409D01*
X122490000Y-83612591D01*
X122576851Y-84049218D01*
X122747214Y-84460511D01*
X122994544Y-84830666D01*
X123309334Y-85145456D01*
X123679489Y-85392786D01*
X124090782Y-85563149D01*
X124527409Y-85650000D01*
X124972591Y-85650000D01*
X125409218Y-85563149D01*
X125820511Y-85392786D01*
X126190666Y-85145456D01*
X126290000Y-85046122D01*
X126290000Y-90790000D01*
X100062013Y-90790000D01*
X100143947Y-90765146D01*
X100275976Y-90694574D01*
X100391701Y-90599601D01*
X100415504Y-90570597D01*
X102607707Y-88378394D01*
X105345000Y-88378394D01*
X105345000Y-89194807D01*
X105362147Y-89368900D01*
X105429906Y-89592274D01*
X105539943Y-89798136D01*
X105688026Y-89978575D01*
X105868465Y-90126658D01*
X106074327Y-90236694D01*
X106297701Y-90304453D01*
X106530000Y-90327333D01*
X106762300Y-90304453D01*
X106985674Y-90236694D01*
X107191536Y-90126658D01*
X107371975Y-89978575D01*
X107520058Y-89798136D01*
X107630094Y-89592274D01*
X107697853Y-89368899D01*
X107715000Y-89194806D01*
X107715000Y-88378393D01*
X107697853Y-88204300D01*
X107630094Y-87980926D01*
X107520058Y-87775064D01*
X107371975Y-87594625D01*
X107191535Y-87446542D01*
X106985673Y-87336506D01*
X106762299Y-87268747D01*
X106530000Y-87245867D01*
X106297700Y-87268747D01*
X106074326Y-87336506D01*
X105868464Y-87446542D01*
X105688025Y-87594625D01*
X105539942Y-87775065D01*
X105429906Y-87980927D01*
X105362147Y-88204301D01*
X105345000Y-88378394D01*
X102607707Y-88378394D01*
X103441004Y-87545098D01*
X103470001Y-87521301D01*
X103564974Y-87405576D01*
X103635546Y-87273547D01*
X103639755Y-87259672D01*
X103780000Y-87259672D01*
X103904482Y-87247412D01*
X103907242Y-87246575D01*
X103998250Y-87256600D01*
X104066218Y-87188632D01*
X104134494Y-87152137D01*
X104231185Y-87072785D01*
X104303000Y-86985278D01*
X104303000Y-87097850D01*
X104461750Y-87256600D01*
X104565003Y-87245226D01*
X104684073Y-87206906D01*
X104793378Y-87146092D01*
X104807869Y-87133786D01*
X104987471Y-87208179D01*
X105230901Y-87256600D01*
X105479099Y-87256600D01*
X105722529Y-87208179D01*
X105951834Y-87113198D01*
X106158203Y-86975306D01*
X106333706Y-86799803D01*
X106471598Y-86593434D01*
X106566579Y-86364129D01*
X106615000Y-86120699D01*
X106615000Y-85872501D01*
X106601832Y-85806300D01*
X106824199Y-85806300D01*
X107494901Y-86477003D01*
X107518699Y-86506001D01*
X107634424Y-86600974D01*
X107745928Y-86660575D01*
X107745928Y-86916000D01*
X107758188Y-87040482D01*
X107794498Y-87160180D01*
X107853463Y-87270494D01*
X107932815Y-87367185D01*
X108029506Y-87446537D01*
X108139820Y-87505502D01*
X108259518Y-87541812D01*
X108384000Y-87554072D01*
X109184000Y-87554072D01*
X109308482Y-87541812D01*
X109428180Y-87505502D01*
X109538494Y-87446537D01*
X109635185Y-87367185D01*
X109714537Y-87270494D01*
X109734000Y-87234082D01*
X109753463Y-87270494D01*
X109832815Y-87367185D01*
X109929506Y-87446537D01*
X110039820Y-87505502D01*
X110159518Y-87541812D01*
X110284000Y-87554072D01*
X111084000Y-87554072D01*
X111208482Y-87541812D01*
X111328180Y-87505502D01*
X111438494Y-87446537D01*
X111535185Y-87367185D01*
X111614537Y-87270494D01*
X111673502Y-87160180D01*
X111709812Y-87040482D01*
X111722072Y-86916000D01*
X111722072Y-85016000D01*
X111709812Y-84891518D01*
X111673502Y-84771820D01*
X111614537Y-84661506D01*
X111535185Y-84564815D01*
X111438494Y-84485463D01*
X111328180Y-84426498D01*
X111208482Y-84390188D01*
X111084000Y-84377928D01*
X110572095Y-84377928D01*
X110585185Y-84367185D01*
X110664537Y-84270494D01*
X110723502Y-84160180D01*
X110759812Y-84040482D01*
X110772072Y-83916000D01*
X110772072Y-83660575D01*
X110883576Y-83600974D01*
X110999301Y-83506001D01*
X111023104Y-83476997D01*
X111332692Y-83167409D01*
X112330000Y-83167409D01*
X112330000Y-83612591D01*
X112416851Y-84049218D01*
X112587214Y-84460511D01*
X112834544Y-84830666D01*
X113149334Y-85145456D01*
X113519489Y-85392786D01*
X113930782Y-85563149D01*
X114367409Y-85650000D01*
X114812591Y-85650000D01*
X115249218Y-85563149D01*
X115660511Y-85392786D01*
X116030666Y-85145456D01*
X116345456Y-84830666D01*
X116592786Y-84460511D01*
X116763149Y-84049218D01*
X116850000Y-83612591D01*
X116850000Y-83167409D01*
X116763149Y-82730782D01*
X116592786Y-82319489D01*
X116345456Y-81949334D01*
X116030666Y-81634544D01*
X115660511Y-81387214D01*
X115249218Y-81216851D01*
X114812591Y-81130000D01*
X114367409Y-81130000D01*
X113930782Y-81216851D01*
X113519489Y-81387214D01*
X113149334Y-81634544D01*
X112834544Y-81949334D01*
X112587214Y-82319489D01*
X112416851Y-82730782D01*
X112330000Y-83167409D01*
X111332692Y-83167409D01*
X116684111Y-77815991D01*
X116733814Y-77890376D01*
X116919624Y-78076186D01*
X117138114Y-78222176D01*
X117380886Y-78322735D01*
X117638612Y-78374000D01*
X117901388Y-78374000D01*
X118159114Y-78322735D01*
X118401886Y-78222176D01*
X118620376Y-78076186D01*
X118806186Y-77890376D01*
X118952176Y-77671886D01*
X119040000Y-77459859D01*
X119127824Y-77671886D01*
X119273814Y-77890376D01*
X119459624Y-78076186D01*
X119678114Y-78222176D01*
X119920886Y-78322735D01*
X120178612Y-78374000D01*
X120441388Y-78374000D01*
X120699114Y-78322735D01*
X120941886Y-78222176D01*
X121160376Y-78076186D01*
X121276007Y-77960555D01*
X122109050Y-77960555D01*
X122168389Y-78194221D01*
X122406664Y-78305018D01*
X122661975Y-78367202D01*
X122924512Y-78378382D01*
X123184186Y-78338129D01*
X123431017Y-78247990D01*
X123531611Y-78194221D01*
X123590950Y-77960555D01*
X122850000Y-77219605D01*
X122109050Y-77960555D01*
X121276007Y-77960555D01*
X121346186Y-77890376D01*
X121492176Y-77671886D01*
X121581678Y-77455808D01*
X121642010Y-77621017D01*
X121695779Y-77721611D01*
X121929445Y-77780950D01*
X122670395Y-77040000D01*
X123029605Y-77040000D01*
X123770555Y-77780950D01*
X124004221Y-77721611D01*
X124115018Y-77483336D01*
X124177202Y-77228025D01*
X124188382Y-76965488D01*
X124148129Y-76705814D01*
X124057990Y-76458983D01*
X124004221Y-76358389D01*
X123770555Y-76299050D01*
X123029605Y-77040000D01*
X122670395Y-77040000D01*
X121929445Y-76299050D01*
X121695779Y-76358389D01*
X121584982Y-76596664D01*
X121579536Y-76619022D01*
X121492176Y-76408114D01*
X121346186Y-76189624D01*
X121276007Y-76119445D01*
X122109050Y-76119445D01*
X122850000Y-76860395D01*
X123590950Y-76119445D01*
X123531611Y-75885779D01*
X123293336Y-75774982D01*
X123038025Y-75712798D01*
X122775488Y-75701618D01*
X122515814Y-75741871D01*
X122268983Y-75832010D01*
X122168389Y-75885779D01*
X122109050Y-76119445D01*
X121276007Y-76119445D01*
X121160376Y-76003814D01*
X120941886Y-75857824D01*
X120699114Y-75757265D01*
X120441388Y-75706000D01*
X120178612Y-75706000D01*
X119920886Y-75757265D01*
X119678114Y-75857824D01*
X119459624Y-76003814D01*
X119273814Y-76189624D01*
X119127824Y-76408114D01*
X119040000Y-76620141D01*
X118952176Y-76408114D01*
X118806186Y-76189624D01*
X118620376Y-76003814D01*
X118401886Y-75857824D01*
X118159114Y-75757265D01*
X117901388Y-75706000D01*
X117772200Y-75706000D01*
X117772200Y-75473678D01*
X117788502Y-75443180D01*
X117795365Y-75420555D01*
X118299050Y-75420555D01*
X118358389Y-75654221D01*
X118596664Y-75765018D01*
X118851975Y-75827202D01*
X119114512Y-75838382D01*
X119374186Y-75798129D01*
X119621017Y-75707990D01*
X119721611Y-75654221D01*
X119780950Y-75420555D01*
X119040000Y-74679605D01*
X118299050Y-75420555D01*
X117795365Y-75420555D01*
X117824812Y-75323482D01*
X117837072Y-75199000D01*
X117837072Y-75194575D01*
X117880345Y-75171445D01*
X117885779Y-75181611D01*
X118119445Y-75240950D01*
X118860395Y-74500000D01*
X118846253Y-74485858D01*
X119025858Y-74306253D01*
X119040000Y-74320395D01*
X119780950Y-73579445D01*
X119728033Y-73371068D01*
X122610502Y-70488600D01*
X123076978Y-70488600D01*
X123114300Y-70492276D01*
X123151622Y-70488600D01*
X123151633Y-70488600D01*
X123263286Y-70477603D01*
X123406547Y-70434146D01*
X123538576Y-70363574D01*
X123654301Y-70268601D01*
X123678104Y-70239597D01*
X124197001Y-69720700D01*
X124197001Y-70808197D01*
X121817994Y-73187205D01*
X121711388Y-73166000D01*
X121448612Y-73166000D01*
X121190886Y-73217265D01*
X120948114Y-73317824D01*
X120729624Y-73463814D01*
X120543814Y-73649624D01*
X120397824Y-73868114D01*
X120308322Y-74084192D01*
X120247990Y-73918983D01*
X120194221Y-73818389D01*
X119960555Y-73759050D01*
X119219605Y-74500000D01*
X119960555Y-75240950D01*
X120194221Y-75181611D01*
X120305018Y-74943336D01*
X120310464Y-74920978D01*
X120397824Y-75131886D01*
X120543814Y-75350376D01*
X120729624Y-75536186D01*
X120948114Y-75682176D01*
X121190886Y-75782735D01*
X121448612Y-75834000D01*
X121711388Y-75834000D01*
X121969114Y-75782735D01*
X122211886Y-75682176D01*
X122430376Y-75536186D01*
X122616186Y-75350376D01*
X122762176Y-75131886D01*
X122862735Y-74889114D01*
X122914000Y-74631388D01*
X122914000Y-74368612D01*
X122892795Y-74262006D01*
X125468003Y-71686799D01*
X125497001Y-71663001D01*
X125591974Y-71547276D01*
X125662546Y-71415247D01*
X125706003Y-71271986D01*
X125717000Y-71160333D01*
X125717000Y-71160324D01*
X125720676Y-71123001D01*
X125717000Y-71085678D01*
X125717000Y-57431822D01*
X125720676Y-57394499D01*
X125717000Y-57357176D01*
X125717000Y-57357167D01*
X125706003Y-57245514D01*
X125662546Y-57102253D01*
X125614152Y-57011715D01*
X125591974Y-56970223D01*
X125520799Y-56883497D01*
X125497001Y-56854499D01*
X125468004Y-56830702D01*
X122088072Y-53450771D01*
X122088072Y-53162500D01*
X122071248Y-52991684D01*
X122021423Y-52827433D01*
X121940512Y-52676058D01*
X121831623Y-52543377D01*
X121722500Y-52453822D01*
X121722500Y-52341283D01*
X121723942Y-52340512D01*
X121856623Y-52231623D01*
X121965512Y-52098942D01*
X122046423Y-51947567D01*
X122096248Y-51783316D01*
X122113072Y-51612500D01*
X122113072Y-51112500D01*
X122096248Y-50941684D01*
X122046423Y-50777433D01*
X121965512Y-50626058D01*
X121856623Y-50493377D01*
X121803768Y-50450000D01*
X121856623Y-50406623D01*
X121965512Y-50273942D01*
X122046423Y-50122567D01*
X122096248Y-49958316D01*
X122113072Y-49787500D01*
X122113072Y-49287500D01*
X122096248Y-49116684D01*
X122046423Y-48952433D01*
X121965512Y-48801058D01*
X121856623Y-48668377D01*
X121723942Y-48559488D01*
X121710000Y-48552036D01*
X121710000Y-45476018D01*
X121801185Y-45401185D01*
X121880537Y-45304494D01*
X121939502Y-45194180D01*
X121975812Y-45074482D01*
X121988072Y-44950000D01*
X121988072Y-43050000D01*
X121975812Y-42925518D01*
X121939502Y-42805820D01*
X121880537Y-42695506D01*
X121801185Y-42598815D01*
X121704494Y-42519463D01*
X121594180Y-42460498D01*
X121474482Y-42424188D01*
X121350000Y-42411928D01*
X120550000Y-42411928D01*
X120425518Y-42424188D01*
X120305820Y-42460498D01*
X120195506Y-42519463D01*
X120098815Y-42598815D01*
X120019463Y-42695506D01*
X120000000Y-42731918D01*
X119980537Y-42695506D01*
X119901185Y-42598815D01*
X119804494Y-42519463D01*
X119694180Y-42460498D01*
X119574482Y-42424188D01*
X119450000Y-42411928D01*
X119335750Y-42415000D01*
X119177000Y-42573750D01*
X119177000Y-43873000D01*
X119197000Y-43873000D01*
X119197000Y-44127000D01*
X119177000Y-44127000D01*
X119177000Y-45426250D01*
X119261607Y-45510857D01*
X119245506Y-45519463D01*
X119148815Y-45598815D01*
X119069463Y-45695506D01*
X119010498Y-45805820D01*
X118974188Y-45925518D01*
X118961928Y-46050000D01*
X118961928Y-47950000D01*
X118974188Y-48074482D01*
X119010498Y-48194180D01*
X119069463Y-48304494D01*
X119109463Y-48353235D01*
X119050770Y-48411928D01*
X118762500Y-48411928D01*
X118591684Y-48428752D01*
X118427433Y-48478577D01*
X118276058Y-48559488D01*
X118143377Y-48668377D01*
X118034488Y-48801058D01*
X117953577Y-48952433D01*
X117903752Y-49116684D01*
X117886928Y-49287500D01*
X117886928Y-49575770D01*
X113876871Y-53585828D01*
X113890249Y-53450000D01*
X113869300Y-53237303D01*
X113807259Y-53032780D01*
X113706509Y-52844290D01*
X113682471Y-52815000D01*
X113706509Y-52785710D01*
X113807259Y-52597220D01*
X113869300Y-52392697D01*
X113890249Y-52180000D01*
X113869300Y-51967303D01*
X113807259Y-51762780D01*
X113706509Y-51574290D01*
X113682471Y-51545000D01*
X113706509Y-51515710D01*
X113807259Y-51327220D01*
X113869300Y-51122697D01*
X113890249Y-50910000D01*
X113869300Y-50697303D01*
X113807259Y-50492780D01*
X113706509Y-50304290D01*
X113682471Y-50275000D01*
X113706509Y-50245710D01*
X113807259Y-50057220D01*
X113869300Y-49852697D01*
X113890249Y-49640000D01*
X113869300Y-49427303D01*
X113807259Y-49222780D01*
X113706509Y-49034290D01*
X113682471Y-49005000D01*
X113706509Y-48975710D01*
X113807259Y-48787220D01*
X113869300Y-48582697D01*
X113890249Y-48370000D01*
X113869300Y-48157303D01*
X113807259Y-47952780D01*
X113706509Y-47764290D01*
X113682471Y-47735000D01*
X113706509Y-47705710D01*
X113807259Y-47517220D01*
X113869300Y-47312697D01*
X113890249Y-47100000D01*
X113869300Y-46887303D01*
X113807259Y-46682780D01*
X113706509Y-46494290D01*
X113682471Y-46465000D01*
X113706509Y-46435710D01*
X113807259Y-46247220D01*
X113869300Y-46042697D01*
X113890249Y-45830000D01*
X113869300Y-45617303D01*
X113807259Y-45412780D01*
X113706509Y-45224290D01*
X113682471Y-45195000D01*
X113706509Y-45165710D01*
X113807259Y-44977220D01*
X113815516Y-44950000D01*
X118011928Y-44950000D01*
X118024188Y-45074482D01*
X118060498Y-45194180D01*
X118119463Y-45304494D01*
X118198815Y-45401185D01*
X118295506Y-45480537D01*
X118405820Y-45539502D01*
X118525518Y-45575812D01*
X118650000Y-45588072D01*
X118764250Y-45585000D01*
X118923000Y-45426250D01*
X118923000Y-44127000D01*
X118173750Y-44127000D01*
X118015000Y-44285750D01*
X118011928Y-44950000D01*
X113815516Y-44950000D01*
X113869300Y-44772697D01*
X113890249Y-44560000D01*
X113869300Y-44347303D01*
X113807259Y-44142780D01*
X113706509Y-43954290D01*
X113682471Y-43925000D01*
X113706509Y-43895710D01*
X113807259Y-43707220D01*
X113869300Y-43502697D01*
X113890249Y-43290000D01*
X113869300Y-43077303D01*
X113861018Y-43050000D01*
X118011928Y-43050000D01*
X118015000Y-43714250D01*
X118173750Y-43873000D01*
X118923000Y-43873000D01*
X118923000Y-42573750D01*
X118764250Y-42415000D01*
X118650000Y-42411928D01*
X118525518Y-42424188D01*
X118405820Y-42460498D01*
X118295506Y-42519463D01*
X118198815Y-42598815D01*
X118119463Y-42695506D01*
X118060498Y-42805820D01*
X118024188Y-42925518D01*
X118011928Y-43050000D01*
X113861018Y-43050000D01*
X113807259Y-42872780D01*
X113706509Y-42684290D01*
X113682471Y-42655000D01*
X113706509Y-42625710D01*
X113807259Y-42437220D01*
X113869300Y-42232697D01*
X113890249Y-42020000D01*
X113869300Y-41807303D01*
X113807259Y-41602780D01*
X113706509Y-41414290D01*
X113683463Y-41386208D01*
X113772702Y-41247197D01*
X113844408Y-41044001D01*
X113717502Y-40877000D01*
X112127000Y-40877000D01*
X112127000Y-40897000D01*
X111873000Y-40897000D01*
X111873000Y-40877000D01*
X110282498Y-40877000D01*
X110155592Y-41044001D01*
X110227298Y-41247197D01*
X110316537Y-41386208D01*
X110293491Y-41414290D01*
X110192741Y-41602780D01*
X110130700Y-41807303D01*
X110109751Y-42020000D01*
X110130700Y-42232697D01*
X110192741Y-42437220D01*
X110293491Y-42625710D01*
X110317529Y-42655000D01*
X110293491Y-42684290D01*
X110192741Y-42872780D01*
X110130700Y-43077303D01*
X110109751Y-43290000D01*
X110130700Y-43502697D01*
X110192741Y-43707220D01*
X110252048Y-43818176D01*
X110143790Y-43851015D01*
X110132453Y-43854454D01*
X110000423Y-43925026D01*
X109954558Y-43962667D01*
X109884699Y-44019999D01*
X109860901Y-44048997D01*
X108132803Y-45777096D01*
X108103799Y-45800899D01*
X108055202Y-45860115D01*
X108008826Y-45916624D01*
X107975493Y-45978986D01*
X107938254Y-46048654D01*
X107894797Y-46191915D01*
X107883800Y-46303568D01*
X107883800Y-46303578D01*
X107880124Y-46340900D01*
X107883800Y-46378223D01*
X107883801Y-48678697D01*
X106338072Y-50224426D01*
X106338072Y-45450000D01*
X106325812Y-45325518D01*
X106289502Y-45205820D01*
X106230537Y-45095506D01*
X106151185Y-44998815D01*
X106054494Y-44919463D01*
X105944180Y-44860498D01*
X105824482Y-44824188D01*
X105700000Y-44811928D01*
X99700000Y-44811928D01*
X99575518Y-44824188D01*
X99455820Y-44860498D01*
X99345506Y-44919463D01*
X99248815Y-44998815D01*
X99169463Y-45095506D01*
X99110498Y-45205820D01*
X99074188Y-45325518D01*
X99061928Y-45450000D01*
X99061928Y-51450000D01*
X99074188Y-51574482D01*
X99110498Y-51694180D01*
X99169463Y-51804494D01*
X99248815Y-51901185D01*
X99345506Y-51980537D01*
X99455820Y-52039502D01*
X99575518Y-52075812D01*
X99700000Y-52088072D01*
X104474427Y-52088072D01*
X101936499Y-54626000D01*
X97999722Y-54626000D01*
X97962399Y-54622324D01*
X97925076Y-54626000D01*
X97925067Y-54626000D01*
X97813414Y-54636997D01*
X97670153Y-54680454D01*
X97538124Y-54751026D01*
X97422399Y-54845999D01*
X97398601Y-54874997D01*
X95739373Y-56534225D01*
X95807259Y-56407220D01*
X95869300Y-56202697D01*
X95890249Y-55990000D01*
X95869300Y-55777303D01*
X95807259Y-55572780D01*
X95706509Y-55384290D01*
X95682471Y-55355000D01*
X95706509Y-55325710D01*
X95807259Y-55137220D01*
X95869300Y-54932697D01*
X95890249Y-54720000D01*
X95869300Y-54507303D01*
X95807259Y-54302780D01*
X95706509Y-54114290D01*
X95682471Y-54085000D01*
X95706509Y-54055710D01*
X95807259Y-53867220D01*
X95869300Y-53662697D01*
X95890249Y-53450000D01*
X95869300Y-53237303D01*
X95807259Y-53032780D01*
X95706509Y-52844290D01*
X95682471Y-52815000D01*
X95706509Y-52785710D01*
X95807259Y-52597220D01*
X95869300Y-52392697D01*
X95890249Y-52180000D01*
X95869300Y-51967303D01*
X95807259Y-51762780D01*
X95706509Y-51574290D01*
X95682471Y-51545000D01*
X95706509Y-51515710D01*
X95807259Y-51327220D01*
X95869300Y-51122697D01*
X95890249Y-50910000D01*
X95869300Y-50697303D01*
X95807259Y-50492780D01*
X95706509Y-50304290D01*
X95682471Y-50275000D01*
X95706509Y-50245710D01*
X95807259Y-50057220D01*
X95869300Y-49852697D01*
X95890249Y-49640000D01*
X95869300Y-49427303D01*
X95807259Y-49222780D01*
X95706509Y-49034290D01*
X95682471Y-49005000D01*
X95706509Y-48975710D01*
X95807259Y-48787220D01*
X95869300Y-48582697D01*
X95890249Y-48370000D01*
X95869300Y-48157303D01*
X95807259Y-47952780D01*
X95706509Y-47764290D01*
X95682471Y-47735000D01*
X95706509Y-47705710D01*
X95807259Y-47517220D01*
X95869300Y-47312697D01*
X95890249Y-47100000D01*
X95869300Y-46887303D01*
X95807259Y-46682780D01*
X95706509Y-46494290D01*
X95682471Y-46465000D01*
X95706509Y-46435710D01*
X95807259Y-46247220D01*
X95869300Y-46042697D01*
X95890249Y-45830000D01*
X95869300Y-45617303D01*
X95807259Y-45412780D01*
X95706509Y-45224290D01*
X95682471Y-45195000D01*
X95706509Y-45165710D01*
X95807259Y-44977220D01*
X95869300Y-44772697D01*
X95890249Y-44560000D01*
X95869300Y-44347303D01*
X95807259Y-44142780D01*
X95706509Y-43954290D01*
X95682471Y-43925000D01*
X95706509Y-43895710D01*
X95807259Y-43707220D01*
X95869300Y-43502697D01*
X95890249Y-43290000D01*
X95869300Y-43077303D01*
X95807259Y-42872780D01*
X95706509Y-42684290D01*
X95682471Y-42655000D01*
X95706509Y-42625710D01*
X95807259Y-42437220D01*
X95869300Y-42232697D01*
X95890249Y-42020000D01*
X95869300Y-41807303D01*
X95807259Y-41602780D01*
X95706509Y-41414290D01*
X95683463Y-41386208D01*
X95772702Y-41247197D01*
X95844408Y-41044001D01*
X95717502Y-40877000D01*
X94127000Y-40877000D01*
X94127000Y-40897000D01*
X93873000Y-40897000D01*
X93873000Y-40877000D01*
X92282498Y-40877000D01*
X92155592Y-41044001D01*
X92227298Y-41247197D01*
X92247978Y-41279411D01*
X92132453Y-41314454D01*
X92000424Y-41385026D01*
X91884699Y-41479999D01*
X91789726Y-41595724D01*
X91719154Y-41727753D01*
X91675697Y-41871014D01*
X91661023Y-42020000D01*
X91664700Y-42057333D01*
X91664700Y-42322998D01*
X89521219Y-44466480D01*
X89475003Y-44461928D01*
X88649997Y-44461928D01*
X88476743Y-44478992D01*
X88310148Y-44529528D01*
X88156612Y-44611595D01*
X88022037Y-44722037D01*
X87911595Y-44856612D01*
X87829528Y-45010148D01*
X87778992Y-45176743D01*
X87761928Y-45349997D01*
X87761928Y-46650003D01*
X87778992Y-46823257D01*
X87829528Y-46989852D01*
X87911595Y-47143388D01*
X88022037Y-47277963D01*
X88156612Y-47388405D01*
X88302500Y-47466384D01*
X88302500Y-47595354D01*
X88276058Y-47609488D01*
X88143377Y-47718377D01*
X88034488Y-47851058D01*
X88020355Y-47877500D01*
X87007733Y-47877500D01*
X86978085Y-47874580D01*
X86965512Y-47851058D01*
X86856623Y-47718377D01*
X86723942Y-47609488D01*
X86590181Y-47537992D01*
X86600000Y-47538072D01*
X86724482Y-47525812D01*
X86844180Y-47489502D01*
X86954494Y-47430537D01*
X87051185Y-47351185D01*
X87130537Y-47254494D01*
X87189502Y-47144180D01*
X87225812Y-47024482D01*
X87238072Y-46900000D01*
X87235000Y-46285750D01*
X87076250Y-46127000D01*
X86064500Y-46127000D01*
X86064500Y-46147000D01*
X85810500Y-46147000D01*
X85810500Y-46127000D01*
X84798750Y-46127000D01*
X84640000Y-46285750D01*
X84636928Y-46900000D01*
X84649188Y-47024482D01*
X84685498Y-47144180D01*
X84744463Y-47254494D01*
X84823815Y-47351185D01*
X84920506Y-47430537D01*
X85030820Y-47489502D01*
X85150518Y-47525812D01*
X85275000Y-47538072D01*
X85411755Y-47536957D01*
X85276058Y-47609488D01*
X85143377Y-47718377D01*
X85034488Y-47851058D01*
X84953577Y-48002433D01*
X84903752Y-48166684D01*
X84886928Y-48337500D01*
X84886928Y-48937500D01*
X84903752Y-49108316D01*
X84953577Y-49272567D01*
X85033774Y-49422606D01*
X84994463Y-49470506D01*
X84935498Y-49580820D01*
X84899188Y-49700518D01*
X84886928Y-49825000D01*
X84890000Y-50076750D01*
X85048750Y-50235500D01*
X85873000Y-50235500D01*
X85873000Y-50215500D01*
X86127000Y-50215500D01*
X86127000Y-50235500D01*
X86147000Y-50235500D01*
X86147000Y-50489500D01*
X86127000Y-50489500D01*
X86127000Y-51376250D01*
X86210400Y-51459650D01*
X86210400Y-51477850D01*
X86064500Y-51623750D01*
X86064500Y-52873000D01*
X86084500Y-52873000D01*
X86084500Y-53127000D01*
X86064500Y-53127000D01*
X86064500Y-54376250D01*
X86210400Y-54522150D01*
X86210401Y-61541463D01*
X86141814Y-61644111D01*
X86071332Y-61814271D01*
X86035400Y-61994911D01*
X86035400Y-62179089D01*
X86071332Y-62359729D01*
X86141814Y-62529889D01*
X86244138Y-62683028D01*
X86374372Y-62813262D01*
X86527511Y-62915586D01*
X86644680Y-62964119D01*
X86024902Y-63583897D01*
X85995899Y-63607699D01*
X85955477Y-63656954D01*
X85934949Y-63681967D01*
X85866226Y-63553394D01*
X85905537Y-63505494D01*
X85964502Y-63395180D01*
X86000812Y-63275482D01*
X86013072Y-63151000D01*
X86010000Y-62899250D01*
X85851250Y-62740500D01*
X85027000Y-62740500D01*
X85027000Y-62760500D01*
X84773000Y-62760500D01*
X84773000Y-62740500D01*
X83948750Y-62740500D01*
X83790000Y-62899250D01*
X83786928Y-63151000D01*
X83799188Y-63275482D01*
X83835498Y-63395180D01*
X83894463Y-63505494D01*
X83933774Y-63553394D01*
X83907526Y-63602500D01*
X83566384Y-63602500D01*
X83488405Y-63456612D01*
X83377963Y-63322037D01*
X83243388Y-63211595D01*
X83089852Y-63129528D01*
X82923257Y-63078992D01*
X82750003Y-63061928D01*
X81449997Y-63061928D01*
X81276743Y-63078992D01*
X81110148Y-63129528D01*
X80956612Y-63211595D01*
X80822037Y-63322037D01*
X80711595Y-63456612D01*
X80629528Y-63610148D01*
X80578992Y-63776743D01*
X80561928Y-63949997D01*
X80561928Y-64775003D01*
X80566480Y-64821219D01*
X79908103Y-65479596D01*
X79879099Y-65503399D01*
X79823971Y-65570574D01*
X79784126Y-65619124D01*
X79721158Y-65736928D01*
X79713554Y-65751154D01*
X79710000Y-65762870D01*
X79710000Y-61900000D01*
X80561928Y-61900000D01*
X80574188Y-62024482D01*
X80610498Y-62144180D01*
X80669463Y-62254494D01*
X80748815Y-62351185D01*
X80845506Y-62430537D01*
X80955820Y-62489502D01*
X81075518Y-62525812D01*
X81200000Y-62538072D01*
X81814250Y-62535000D01*
X81973000Y-62376250D01*
X81973000Y-61364500D01*
X82227000Y-61364500D01*
X82227000Y-62376250D01*
X82385750Y-62535000D01*
X83000000Y-62538072D01*
X83124482Y-62525812D01*
X83244180Y-62489502D01*
X83354494Y-62430537D01*
X83451185Y-62351185D01*
X83530537Y-62254494D01*
X83589502Y-62144180D01*
X83610184Y-62076000D01*
X83786928Y-62076000D01*
X83790000Y-62327750D01*
X83948750Y-62486500D01*
X84773000Y-62486500D01*
X84773000Y-61599750D01*
X85027000Y-61599750D01*
X85027000Y-62486500D01*
X85851250Y-62486500D01*
X86010000Y-62327750D01*
X86013072Y-62076000D01*
X86000812Y-61951518D01*
X85964502Y-61831820D01*
X85905537Y-61721506D01*
X85826185Y-61624815D01*
X85729494Y-61545463D01*
X85619180Y-61486498D01*
X85499482Y-61450188D01*
X85375000Y-61437928D01*
X85185750Y-61441000D01*
X85027000Y-61599750D01*
X84773000Y-61599750D01*
X84614250Y-61441000D01*
X84425000Y-61437928D01*
X84300518Y-61450188D01*
X84180820Y-61486498D01*
X84070506Y-61545463D01*
X83973815Y-61624815D01*
X83894463Y-61721506D01*
X83835498Y-61831820D01*
X83799188Y-61951518D01*
X83786928Y-62076000D01*
X83610184Y-62076000D01*
X83625812Y-62024482D01*
X83638072Y-61900000D01*
X83635000Y-61523250D01*
X83476250Y-61364500D01*
X82227000Y-61364500D01*
X81973000Y-61364500D01*
X80723750Y-61364500D01*
X80565000Y-61523250D01*
X80561928Y-61900000D01*
X79710000Y-61900000D01*
X79710000Y-60575000D01*
X80561928Y-60575000D01*
X80565000Y-60951750D01*
X80723750Y-61110500D01*
X81973000Y-61110500D01*
X81973000Y-60098750D01*
X82227000Y-60098750D01*
X82227000Y-61110500D01*
X83476250Y-61110500D01*
X83635000Y-60951750D01*
X83638072Y-60575000D01*
X83625812Y-60450518D01*
X83589502Y-60330820D01*
X83530537Y-60220506D01*
X83451185Y-60123815D01*
X83354494Y-60044463D01*
X83244180Y-59985498D01*
X83124482Y-59949188D01*
X83000000Y-59936928D01*
X82385750Y-59940000D01*
X82227000Y-60098750D01*
X81973000Y-60098750D01*
X81814250Y-59940000D01*
X81200000Y-59936928D01*
X81075518Y-59949188D01*
X80955820Y-59985498D01*
X80845506Y-60044463D01*
X80748815Y-60123815D01*
X80669463Y-60220506D01*
X80610498Y-60330820D01*
X80574188Y-60450518D01*
X80561928Y-60575000D01*
X79710000Y-60575000D01*
X79710000Y-56127000D01*
X81000000Y-56127000D01*
X81033544Y-56122490D01*
X81056796Y-56113592D01*
X82056796Y-55613592D01*
X82083211Y-55595943D01*
X82100329Y-55577866D01*
X82113592Y-55556796D01*
X82613592Y-54556796D01*
X82624560Y-54524776D01*
X82627000Y-54500000D01*
X82627000Y-53900000D01*
X84636928Y-53900000D01*
X84649188Y-54024482D01*
X84685498Y-54144180D01*
X84744463Y-54254494D01*
X84823815Y-54351185D01*
X84920506Y-54430537D01*
X85030820Y-54489502D01*
X85150518Y-54525812D01*
X85275000Y-54538072D01*
X85651750Y-54535000D01*
X85810500Y-54376250D01*
X85810500Y-53127000D01*
X84798750Y-53127000D01*
X84640000Y-53285750D01*
X84636928Y-53900000D01*
X82627000Y-53900000D01*
X82627000Y-52100000D01*
X84636928Y-52100000D01*
X84640000Y-52714250D01*
X84798750Y-52873000D01*
X85810500Y-52873000D01*
X85810500Y-51623750D01*
X85718000Y-51531250D01*
X85873000Y-51376250D01*
X85873000Y-50489500D01*
X85048750Y-50489500D01*
X84890000Y-50648250D01*
X84886928Y-50900000D01*
X84899188Y-51024482D01*
X84935498Y-51144180D01*
X84994463Y-51254494D01*
X85073815Y-51351185D01*
X85170506Y-51430537D01*
X85236354Y-51465734D01*
X85150518Y-51474188D01*
X85030820Y-51510498D01*
X84920506Y-51569463D01*
X84823815Y-51648815D01*
X84744463Y-51745506D01*
X84685498Y-51855820D01*
X84649188Y-51975518D01*
X84636928Y-52100000D01*
X82627000Y-52100000D01*
X82627000Y-45100000D01*
X84636928Y-45100000D01*
X84640000Y-45714250D01*
X84798750Y-45873000D01*
X85810500Y-45873000D01*
X85810500Y-44623750D01*
X86064500Y-44623750D01*
X86064500Y-45873000D01*
X87076250Y-45873000D01*
X87235000Y-45714250D01*
X87238072Y-45100000D01*
X87225812Y-44975518D01*
X87189502Y-44855820D01*
X87130537Y-44745506D01*
X87051185Y-44648815D01*
X86954494Y-44569463D01*
X86844180Y-44510498D01*
X86724482Y-44474188D01*
X86600000Y-44461928D01*
X86223250Y-44465000D01*
X86064500Y-44623750D01*
X85810500Y-44623750D01*
X85651750Y-44465000D01*
X85275000Y-44461928D01*
X85150518Y-44474188D01*
X85030820Y-44510498D01*
X84920506Y-44569463D01*
X84823815Y-44648815D01*
X84744463Y-44745506D01*
X84685498Y-44855820D01*
X84649188Y-44975518D01*
X84636928Y-45100000D01*
X82627000Y-45100000D01*
X82627000Y-39710000D01*
X92866629Y-39710000D01*
X92863767Y-39710624D01*
G37*
%TD.AperFunction*%
D26*
X97412000Y-58623000D02*
X97432000Y-58623000D01*
X97432000Y-58877000D01*
X97412000Y-58877000D01*
X97412000Y-60467502D01*
X97579001Y-60594408D01*
X97782197Y-60522702D01*
X97814411Y-60502022D01*
X97849454Y-60617547D01*
X97920026Y-60749576D01*
X98014999Y-60865301D01*
X98130724Y-60960274D01*
X98262753Y-61030846D01*
X98406014Y-61074303D01*
X98517667Y-61085300D01*
X98555000Y-61088977D01*
X98592333Y-61085300D01*
X100735199Y-61085300D01*
X103810900Y-64161002D01*
X103834699Y-64190001D01*
X103950424Y-64284974D01*
X104082453Y-64355546D01*
X104100433Y-64361000D01*
X104110498Y-64394180D01*
X104169463Y-64504494D01*
X104248815Y-64601185D01*
X104345506Y-64680537D01*
X104455820Y-64739502D01*
X104575518Y-64775812D01*
X104700000Y-64788072D01*
X106200000Y-64788072D01*
X106324482Y-64775812D01*
X106444180Y-64739502D01*
X106554494Y-64680537D01*
X106651185Y-64601185D01*
X106730537Y-64504494D01*
X106789502Y-64394180D01*
X106825812Y-64274482D01*
X106838072Y-64150000D01*
X106838072Y-63150000D01*
X106825812Y-63025518D01*
X106789502Y-62905820D01*
X106730537Y-62795506D01*
X106651185Y-62698815D01*
X106554494Y-62619463D01*
X106444180Y-62560498D01*
X106324482Y-62524188D01*
X106200000Y-62511928D01*
X104700000Y-62511928D01*
X104575518Y-62524188D01*
X104455820Y-62560498D01*
X104393377Y-62593875D01*
X102433048Y-60633547D01*
X102577696Y-60619300D01*
X102782219Y-60557259D01*
X102970710Y-60456509D01*
X103000000Y-60432471D01*
X103029290Y-60456509D01*
X103217780Y-60557259D01*
X103422303Y-60619300D01*
X103635000Y-60640249D01*
X103847696Y-60619300D01*
X104052219Y-60557259D01*
X104240710Y-60456509D01*
X104270000Y-60432471D01*
X104299290Y-60456509D01*
X104487780Y-60557259D01*
X104692303Y-60619300D01*
X104905000Y-60640249D01*
X105117696Y-60619300D01*
X105322219Y-60557259D01*
X105510710Y-60456509D01*
X105540000Y-60432471D01*
X105569290Y-60456509D01*
X105757780Y-60557259D01*
X105962303Y-60619300D01*
X106175000Y-60640249D01*
X106387696Y-60619300D01*
X106592219Y-60557259D01*
X106780710Y-60456509D01*
X106810000Y-60432471D01*
X106839290Y-60456509D01*
X107027780Y-60557259D01*
X107232303Y-60619300D01*
X107445000Y-60640249D01*
X107657696Y-60619300D01*
X107862219Y-60557259D01*
X108050710Y-60456509D01*
X108080000Y-60432471D01*
X108109290Y-60456509D01*
X108297780Y-60557259D01*
X108502303Y-60619300D01*
X108715000Y-60640249D01*
X108927696Y-60619300D01*
X109132219Y-60557259D01*
X109320710Y-60456509D01*
X109485922Y-60320922D01*
X109621509Y-60155710D01*
X109722259Y-59967220D01*
X109784300Y-59762697D01*
X109800000Y-59603294D01*
X109800000Y-58975701D01*
X114111600Y-63287303D01*
X114111601Y-66342568D01*
X114107924Y-66379900D01*
X114111601Y-66417233D01*
X114120123Y-66503752D01*
X114122598Y-66528885D01*
X114166054Y-66672146D01*
X114236626Y-66804176D01*
X114307801Y-66890902D01*
X114331600Y-66919901D01*
X114360598Y-66943699D01*
X116334601Y-68917703D01*
X116358399Y-68946701D01*
X116387397Y-68970499D01*
X116474123Y-69041674D01*
X116592462Y-69104928D01*
X116606153Y-69112246D01*
X116749414Y-69155703D01*
X116861067Y-69166700D01*
X116861076Y-69166700D01*
X116898399Y-69170376D01*
X116935722Y-69166700D01*
X117320997Y-69166700D01*
X111536856Y-74950843D01*
X111535000Y-74723250D01*
X111376250Y-74564500D01*
X110127000Y-74564500D01*
X110127000Y-75576250D01*
X110285750Y-75735000D01*
X110750375Y-75737324D01*
X110225771Y-76261928D01*
X109349997Y-76261928D01*
X109176743Y-76278992D01*
X109010148Y-76329528D01*
X108856612Y-76411595D01*
X108722037Y-76522037D01*
X108611595Y-76656612D01*
X108529528Y-76810148D01*
X108478992Y-76976743D01*
X108461928Y-77149997D01*
X108461928Y-77975003D01*
X108466480Y-78021219D01*
X107422999Y-79064700D01*
X103037333Y-79064700D01*
X103000000Y-79061023D01*
X102962667Y-79064700D01*
X102918302Y-79064700D01*
X102126853Y-78273251D01*
X102102768Y-78152171D01*
X102032286Y-77982011D01*
X101929962Y-77828872D01*
X101799728Y-77698638D01*
X101646589Y-77596314D01*
X101476429Y-77525832D01*
X101295789Y-77489900D01*
X101111611Y-77489900D01*
X100930971Y-77525832D01*
X100760811Y-77596314D01*
X100607672Y-77698638D01*
X100477438Y-77828872D01*
X100375114Y-77982011D01*
X100304632Y-78152171D01*
X100268700Y-78332811D01*
X100268700Y-78516989D01*
X100304632Y-78697629D01*
X100375114Y-78867789D01*
X100477438Y-79020928D01*
X100607672Y-79151162D01*
X100760811Y-79253486D01*
X100930971Y-79323968D01*
X101052051Y-79348053D01*
X101217465Y-79513467D01*
X100985750Y-79515000D01*
X100827000Y-79673750D01*
X100827000Y-81023000D01*
X100847000Y-81023000D01*
X100847000Y-81277000D01*
X100827000Y-81277000D01*
X100827000Y-81297000D01*
X100573000Y-81297000D01*
X100573000Y-81277000D01*
X99473750Y-81277000D01*
X99315000Y-81435750D01*
X99313797Y-81715400D01*
X98265502Y-81715400D01*
X97789103Y-81239002D01*
X97765301Y-81209999D01*
X97649576Y-81115026D01*
X97538072Y-81055425D01*
X97538072Y-80500000D01*
X97525812Y-80375518D01*
X97489502Y-80255820D01*
X97432940Y-80150000D01*
X99311928Y-80150000D01*
X99315000Y-80864250D01*
X99473750Y-81023000D01*
X100573000Y-81023000D01*
X100573000Y-79673750D01*
X100414250Y-79515000D01*
X99950000Y-79511928D01*
X99825518Y-79524188D01*
X99705820Y-79560498D01*
X99595506Y-79619463D01*
X99498815Y-79698815D01*
X99419463Y-79795506D01*
X99360498Y-79905820D01*
X99324188Y-80025518D01*
X99311928Y-80150000D01*
X97432940Y-80150000D01*
X97430537Y-80145506D01*
X97351185Y-80048815D01*
X97254494Y-79969463D01*
X97144180Y-79910498D01*
X97024482Y-79874188D01*
X96900000Y-79861928D01*
X96760000Y-79861928D01*
X96760000Y-78852238D01*
X96823257Y-78846008D01*
X96989852Y-78795472D01*
X97143388Y-78713405D01*
X97277963Y-78602963D01*
X97388405Y-78468388D01*
X97470472Y-78314852D01*
X97521008Y-78148257D01*
X97538072Y-77975003D01*
X97538072Y-77149997D01*
X97521008Y-76976743D01*
X97470472Y-76810148D01*
X97388405Y-76656612D01*
X97277963Y-76522037D01*
X97229795Y-76482507D01*
X99862302Y-73850000D01*
X100461928Y-73850000D01*
X100461928Y-75850000D01*
X100474188Y-75974482D01*
X100510498Y-76094180D01*
X100569463Y-76204494D01*
X100648815Y-76301185D01*
X100745506Y-76380537D01*
X100855820Y-76439502D01*
X100975518Y-76475812D01*
X101100000Y-76488072D01*
X104900000Y-76488072D01*
X105024482Y-76475812D01*
X105144180Y-76439502D01*
X105254494Y-76380537D01*
X105351185Y-76301185D01*
X105430537Y-76204494D01*
X105489502Y-76094180D01*
X105525812Y-75974482D01*
X105538072Y-75850000D01*
X105538072Y-75100000D01*
X108461928Y-75100000D01*
X108474188Y-75224482D01*
X108510498Y-75344180D01*
X108569463Y-75454494D01*
X108648815Y-75551185D01*
X108745506Y-75630537D01*
X108855820Y-75689502D01*
X108975518Y-75725812D01*
X109100000Y-75738072D01*
X109714250Y-75735000D01*
X109873000Y-75576250D01*
X109873000Y-74564500D01*
X108623750Y-74564500D01*
X108465000Y-74723250D01*
X108461928Y-75100000D01*
X105538072Y-75100000D01*
X105538072Y-73850000D01*
X105530686Y-73775000D01*
X108461928Y-73775000D01*
X108465000Y-74151750D01*
X108623750Y-74310500D01*
X109873000Y-74310500D01*
X109873000Y-73298750D01*
X110127000Y-73298750D01*
X110127000Y-74310500D01*
X111376250Y-74310500D01*
X111535000Y-74151750D01*
X111538072Y-73775000D01*
X111525812Y-73650518D01*
X111489502Y-73530820D01*
X111430537Y-73420506D01*
X111351185Y-73323815D01*
X111254494Y-73244463D01*
X111144180Y-73185498D01*
X111024482Y-73149188D01*
X110900000Y-73136928D01*
X110285750Y-73140000D01*
X110127000Y-73298750D01*
X109873000Y-73298750D01*
X109714250Y-73140000D01*
X109100000Y-73136928D01*
X108975518Y-73149188D01*
X108855820Y-73185498D01*
X108745506Y-73244463D01*
X108648815Y-73323815D01*
X108569463Y-73420506D01*
X108510498Y-73530820D01*
X108474188Y-73650518D01*
X108461928Y-73775000D01*
X105530686Y-73775000D01*
X105525812Y-73725518D01*
X105489502Y-73605820D01*
X105430537Y-73495506D01*
X105351185Y-73398815D01*
X105254494Y-73319463D01*
X105144180Y-73260498D01*
X105024482Y-73224188D01*
X104900000Y-73211928D01*
X101100000Y-73211928D01*
X100975518Y-73224188D01*
X100855820Y-73260498D01*
X100745506Y-73319463D01*
X100648815Y-73398815D01*
X100569463Y-73495506D01*
X100510498Y-73605820D01*
X100474188Y-73725518D01*
X100461928Y-73850000D01*
X99862302Y-73850000D01*
X102099230Y-71613072D01*
X102437500Y-71613072D01*
X102608316Y-71596248D01*
X102772567Y-71546423D01*
X102922606Y-71466226D01*
X102970506Y-71505537D01*
X103080820Y-71564502D01*
X103200518Y-71600812D01*
X103325000Y-71613072D01*
X103576750Y-71610000D01*
X103735500Y-71451250D01*
X103735500Y-70627000D01*
X103989500Y-70627000D01*
X103989500Y-71451250D01*
X104148250Y-71610000D01*
X104400000Y-71613072D01*
X104524482Y-71600812D01*
X104644180Y-71564502D01*
X104754494Y-71505537D01*
X104851185Y-71426185D01*
X104930537Y-71329494D01*
X104989502Y-71219180D01*
X105025812Y-71099482D01*
X105038072Y-70975000D01*
X105035000Y-70785750D01*
X104876250Y-70627000D01*
X103989500Y-70627000D01*
X103735500Y-70627000D01*
X103715500Y-70627000D01*
X103715500Y-70373000D01*
X103735500Y-70373000D01*
X103735500Y-69548750D01*
X103989500Y-69548750D01*
X103989500Y-70373000D01*
X104876250Y-70373000D01*
X105035000Y-70214250D01*
X105038072Y-70025000D01*
X105025812Y-69900518D01*
X104989502Y-69780820D01*
X104930537Y-69670506D01*
X104851185Y-69573815D01*
X104754494Y-69494463D01*
X104644180Y-69435498D01*
X104524482Y-69399188D01*
X104400000Y-69386928D01*
X104148250Y-69390000D01*
X103989500Y-69548750D01*
X103735500Y-69548750D01*
X103576750Y-69390000D01*
X103325000Y-69386928D01*
X103200518Y-69399188D01*
X103080820Y-69435498D01*
X102970506Y-69494463D01*
X102922606Y-69533774D01*
X102897500Y-69520355D01*
X102897500Y-67350000D01*
X104061928Y-67350000D01*
X104074188Y-67474482D01*
X104110498Y-67594180D01*
X104169463Y-67704494D01*
X104248815Y-67801185D01*
X104345506Y-67880537D01*
X104455820Y-67939502D01*
X104575518Y-67975812D01*
X104700000Y-67988072D01*
X105164250Y-67985000D01*
X105323000Y-67826250D01*
X105323000Y-66977000D01*
X105577000Y-66977000D01*
X105577000Y-67826250D01*
X105735750Y-67985000D01*
X106200000Y-67988072D01*
X106324482Y-67975812D01*
X106444180Y-67939502D01*
X106554494Y-67880537D01*
X106651185Y-67801185D01*
X106730537Y-67704494D01*
X106789502Y-67594180D01*
X106825812Y-67474482D01*
X106838072Y-67350000D01*
X106835000Y-67135750D01*
X106676250Y-66977000D01*
X105577000Y-66977000D01*
X105323000Y-66977000D01*
X104223750Y-66977000D01*
X104065000Y-67135750D01*
X104061928Y-67350000D01*
X102897500Y-67350000D01*
X102897500Y-66350000D01*
X104061928Y-66350000D01*
X104065000Y-66564250D01*
X104223750Y-66723000D01*
X105323000Y-66723000D01*
X105323000Y-65873750D01*
X105577000Y-65873750D01*
X105577000Y-66723000D01*
X106676250Y-66723000D01*
X106835000Y-66564250D01*
X106838072Y-66350000D01*
X106825812Y-66225518D01*
X106789502Y-66105820D01*
X106730537Y-65995506D01*
X106651185Y-65898815D01*
X106554494Y-65819463D01*
X106444180Y-65760498D01*
X106324482Y-65724188D01*
X106200000Y-65711928D01*
X105735750Y-65715000D01*
X105577000Y-65873750D01*
X105323000Y-65873750D01*
X105164250Y-65715000D01*
X104700000Y-65711928D01*
X104575518Y-65724188D01*
X104455820Y-65760498D01*
X104345506Y-65819463D01*
X104248815Y-65898815D01*
X104169463Y-65995506D01*
X104110498Y-66105820D01*
X104074188Y-66225518D01*
X104061928Y-66350000D01*
X102897500Y-66350000D01*
X102897500Y-64199522D01*
X102901176Y-64162199D01*
X102897500Y-64124876D01*
X102897500Y-64124867D01*
X102886503Y-64013214D01*
X102843046Y-63869953D01*
X102772474Y-63737924D01*
X102677501Y-63622199D01*
X102648503Y-63598402D01*
X102189103Y-63139002D01*
X102165301Y-63109999D01*
X102049576Y-63015026D01*
X101917547Y-62944454D01*
X101899567Y-62939000D01*
X101889502Y-62905820D01*
X101830537Y-62795506D01*
X101751185Y-62698815D01*
X101654494Y-62619463D01*
X101544180Y-62560498D01*
X101424482Y-62524188D01*
X101300000Y-62511928D01*
X99800000Y-62511928D01*
X99675518Y-62524188D01*
X99555820Y-62560498D01*
X99445506Y-62619463D01*
X99348815Y-62698815D01*
X99269463Y-62795506D01*
X99210498Y-62905820D01*
X99174188Y-63025518D01*
X99161928Y-63150000D01*
X99161928Y-64150000D01*
X99174188Y-64274482D01*
X99210498Y-64394180D01*
X99269463Y-64504494D01*
X99348815Y-64601185D01*
X99445506Y-64680537D01*
X99555820Y-64739502D01*
X99675518Y-64775812D01*
X99800000Y-64788072D01*
X101300000Y-64788072D01*
X101377500Y-64780439D01*
X101377500Y-65719561D01*
X101300000Y-65711928D01*
X99800000Y-65711928D01*
X99675518Y-65724188D01*
X99555820Y-65760498D01*
X99445506Y-65819463D01*
X99348815Y-65898815D01*
X99269463Y-65995506D01*
X99210498Y-66105820D01*
X99174188Y-66225518D01*
X99161928Y-66350000D01*
X99161928Y-67350000D01*
X99174188Y-67474482D01*
X99210498Y-67594180D01*
X99269463Y-67704494D01*
X99348815Y-67801185D01*
X99445506Y-67880537D01*
X99555820Y-67939502D01*
X99675518Y-67975812D01*
X99800000Y-67988072D01*
X101300000Y-67988072D01*
X101377501Y-67980439D01*
X101377501Y-69520354D01*
X101351058Y-69534488D01*
X101218377Y-69643377D01*
X101109488Y-69776058D01*
X101028577Y-69927433D01*
X100978752Y-70091684D01*
X100961928Y-70262500D01*
X100961928Y-70600770D01*
X97536020Y-74026679D01*
X97538072Y-73775000D01*
X97525812Y-73650518D01*
X97489502Y-73530820D01*
X97430537Y-73420506D01*
X97351185Y-73323815D01*
X97254494Y-73244463D01*
X97144180Y-73185498D01*
X97024482Y-73149188D01*
X96900000Y-73136928D01*
X96285750Y-73140000D01*
X96127000Y-73298750D01*
X96127000Y-74310500D01*
X96147000Y-74310500D01*
X96147000Y-74564500D01*
X96127000Y-74564500D01*
X96127000Y-74584500D01*
X95873000Y-74584500D01*
X95873000Y-74564500D01*
X94623750Y-74564500D01*
X94465000Y-74723250D01*
X94461928Y-75100000D01*
X94474188Y-75224482D01*
X94510498Y-75344180D01*
X94569463Y-75454494D01*
X94648815Y-75551185D01*
X94745506Y-75630537D01*
X94855820Y-75689502D01*
X94975518Y-75725812D01*
X95100000Y-75738072D01*
X95714250Y-75735000D01*
X95872998Y-75576252D01*
X95872998Y-75689701D01*
X95489003Y-76073696D01*
X95459999Y-76097499D01*
X95409105Y-76159514D01*
X95365026Y-76213224D01*
X95338993Y-76261928D01*
X95338382Y-76263072D01*
X95176743Y-76278992D01*
X95010148Y-76329528D01*
X94856612Y-76411595D01*
X94722037Y-76522037D01*
X94611595Y-76656612D01*
X94529528Y-76810148D01*
X94478992Y-76976743D01*
X94461928Y-77149997D01*
X94461928Y-77975003D01*
X94478992Y-78148257D01*
X94529528Y-78314852D01*
X94611595Y-78468388D01*
X94722037Y-78602963D01*
X94856612Y-78713405D01*
X95010148Y-78795472D01*
X95176743Y-78846008D01*
X95240001Y-78852238D01*
X95240000Y-79861928D01*
X95100000Y-79861928D01*
X94975518Y-79874188D01*
X94855820Y-79910498D01*
X94745506Y-79969463D01*
X94648815Y-80048815D01*
X94569463Y-80145506D01*
X94510498Y-80255820D01*
X94474188Y-80375518D01*
X94461928Y-80500000D01*
X94461928Y-82524427D01*
X92838000Y-80900499D01*
X92838000Y-73775000D01*
X94461928Y-73775000D01*
X94465000Y-74151750D01*
X94623750Y-74310500D01*
X95873000Y-74310500D01*
X95873000Y-73298750D01*
X95714250Y-73140000D01*
X95100000Y-73136928D01*
X94975518Y-73149188D01*
X94855820Y-73185498D01*
X94745506Y-73244463D01*
X94648815Y-73323815D01*
X94569463Y-73420506D01*
X94510498Y-73530820D01*
X94474188Y-73650518D01*
X94461928Y-73775000D01*
X92838000Y-73775000D01*
X92838000Y-71178920D01*
X92934623Y-71099623D01*
X93043512Y-70966942D01*
X93124423Y-70815567D01*
X93174248Y-70651316D01*
X93191072Y-70480500D01*
X93191072Y-69980500D01*
X93174248Y-69809684D01*
X93124423Y-69645433D01*
X93043512Y-69494058D01*
X92954188Y-69385217D01*
X93004185Y-69344185D01*
X93083537Y-69247494D01*
X93124624Y-69170626D01*
X94012928Y-70058930D01*
X94012928Y-70480500D01*
X94029752Y-70651316D01*
X94079577Y-70815567D01*
X94160488Y-70966942D01*
X94269377Y-71099623D01*
X94402058Y-71208512D01*
X94553433Y-71289423D01*
X94717684Y-71339248D01*
X94888500Y-71356072D01*
X95363500Y-71356072D01*
X95534316Y-71339248D01*
X95698567Y-71289423D01*
X95849942Y-71208512D01*
X95982623Y-71099623D01*
X96091512Y-70966942D01*
X96098964Y-70953000D01*
X96439036Y-70953000D01*
X96446488Y-70966942D01*
X96555377Y-71099623D01*
X96688058Y-71208512D01*
X96839433Y-71289423D01*
X97003684Y-71339248D01*
X97174500Y-71356072D01*
X97649500Y-71356072D01*
X97820316Y-71339248D01*
X97984567Y-71289423D01*
X98135942Y-71208512D01*
X98268623Y-71099623D01*
X98377512Y-70966942D01*
X98458423Y-70815567D01*
X98508248Y-70651316D01*
X98525072Y-70480500D01*
X98525072Y-69905500D01*
X98508248Y-69734684D01*
X98458423Y-69570433D01*
X98377512Y-69419058D01*
X98294575Y-69318000D01*
X98377512Y-69216942D01*
X98458423Y-69065567D01*
X98508248Y-68901316D01*
X98525072Y-68730500D01*
X98525072Y-68155500D01*
X98508248Y-67984684D01*
X98458423Y-67820433D01*
X98377512Y-67669058D01*
X98268623Y-67536377D01*
X98135942Y-67427488D01*
X98088000Y-67401863D01*
X98088000Y-66230920D01*
X98184623Y-66151623D01*
X98293512Y-66018942D01*
X98374423Y-65867567D01*
X98424248Y-65703316D01*
X98441072Y-65532500D01*
X98441072Y-65032500D01*
X98424248Y-64861684D01*
X98374423Y-64697433D01*
X98293512Y-64546058D01*
X98184623Y-64413377D01*
X98131768Y-64370000D01*
X98184623Y-64326623D01*
X98293512Y-64193942D01*
X98374423Y-64042567D01*
X98424248Y-63878316D01*
X98441072Y-63707500D01*
X98441072Y-63207500D01*
X98424248Y-63036684D01*
X98374423Y-62872433D01*
X98293512Y-62721058D01*
X98184623Y-62588377D01*
X98051942Y-62479488D01*
X97900567Y-62398577D01*
X97736316Y-62348752D01*
X97565500Y-62331928D01*
X97090500Y-62331928D01*
X96919684Y-62348752D01*
X96755433Y-62398577D01*
X96604058Y-62479488D01*
X96471377Y-62588377D01*
X96362488Y-62721058D01*
X96281577Y-62872433D01*
X96231752Y-63036684D01*
X96214928Y-63207500D01*
X96214928Y-63495771D01*
X96191072Y-63519627D01*
X96191072Y-63207500D01*
X96174248Y-63036684D01*
X96124423Y-62872433D01*
X96043512Y-62721058D01*
X95934623Y-62588377D01*
X95801942Y-62479488D01*
X95650567Y-62398577D01*
X95486316Y-62348752D01*
X95315500Y-62331928D01*
X94840500Y-62331928D01*
X94669684Y-62348752D01*
X94505433Y-62398577D01*
X94354058Y-62479488D01*
X94221377Y-62588377D01*
X94131822Y-62697500D01*
X93547922Y-62697500D01*
X93510599Y-62693824D01*
X93473276Y-62697500D01*
X93473267Y-62697500D01*
X93361614Y-62708497D01*
X93218353Y-62751954D01*
X93086324Y-62822526D01*
X93028403Y-62870061D01*
X93034072Y-62812500D01*
X93034072Y-62687500D01*
X93020611Y-62550825D01*
X93005193Y-62500000D01*
X93020611Y-62449175D01*
X93034072Y-62312500D01*
X93034072Y-62187500D01*
X93020611Y-62050825D01*
X93017973Y-62042128D01*
X96200000Y-58860102D01*
X96200000Y-59677000D01*
X96245624Y-59886233D01*
X96331191Y-60082545D01*
X96453413Y-60258391D01*
X96607592Y-60407014D01*
X96787803Y-60522702D01*
X96990999Y-60594408D01*
X97158000Y-60467502D01*
X97158000Y-58877000D01*
X97138000Y-58877000D01*
X97138000Y-58623000D01*
X97158000Y-58623000D01*
X97158000Y-58603000D01*
X97412000Y-58603000D01*
X97412000Y-58623000D01*
%TA.AperFunction,Conductor*%
D27*
G36*
X97412000Y-58623000D02*
G01*
X97432000Y-58623000D01*
X97432000Y-58877000D01*
X97412000Y-58877000D01*
X97412000Y-60467502D01*
X97579001Y-60594408D01*
X97782197Y-60522702D01*
X97814411Y-60502022D01*
X97849454Y-60617547D01*
X97920026Y-60749576D01*
X98014999Y-60865301D01*
X98130724Y-60960274D01*
X98262753Y-61030846D01*
X98406014Y-61074303D01*
X98517667Y-61085300D01*
X98555000Y-61088977D01*
X98592333Y-61085300D01*
X100735199Y-61085300D01*
X103810900Y-64161002D01*
X103834699Y-64190001D01*
X103950424Y-64284974D01*
X104082453Y-64355546D01*
X104100433Y-64361000D01*
X104110498Y-64394180D01*
X104169463Y-64504494D01*
X104248815Y-64601185D01*
X104345506Y-64680537D01*
X104455820Y-64739502D01*
X104575518Y-64775812D01*
X104700000Y-64788072D01*
X106200000Y-64788072D01*
X106324482Y-64775812D01*
X106444180Y-64739502D01*
X106554494Y-64680537D01*
X106651185Y-64601185D01*
X106730537Y-64504494D01*
X106789502Y-64394180D01*
X106825812Y-64274482D01*
X106838072Y-64150000D01*
X106838072Y-63150000D01*
X106825812Y-63025518D01*
X106789502Y-62905820D01*
X106730537Y-62795506D01*
X106651185Y-62698815D01*
X106554494Y-62619463D01*
X106444180Y-62560498D01*
X106324482Y-62524188D01*
X106200000Y-62511928D01*
X104700000Y-62511928D01*
X104575518Y-62524188D01*
X104455820Y-62560498D01*
X104393377Y-62593875D01*
X102433048Y-60633547D01*
X102577696Y-60619300D01*
X102782219Y-60557259D01*
X102970710Y-60456509D01*
X103000000Y-60432471D01*
X103029290Y-60456509D01*
X103217780Y-60557259D01*
X103422303Y-60619300D01*
X103635000Y-60640249D01*
X103847696Y-60619300D01*
X104052219Y-60557259D01*
X104240710Y-60456509D01*
X104270000Y-60432471D01*
X104299290Y-60456509D01*
X104487780Y-60557259D01*
X104692303Y-60619300D01*
X104905000Y-60640249D01*
X105117696Y-60619300D01*
X105322219Y-60557259D01*
X105510710Y-60456509D01*
X105540000Y-60432471D01*
X105569290Y-60456509D01*
X105757780Y-60557259D01*
X105962303Y-60619300D01*
X106175000Y-60640249D01*
X106387696Y-60619300D01*
X106592219Y-60557259D01*
X106780710Y-60456509D01*
X106810000Y-60432471D01*
X106839290Y-60456509D01*
X107027780Y-60557259D01*
X107232303Y-60619300D01*
X107445000Y-60640249D01*
X107657696Y-60619300D01*
X107862219Y-60557259D01*
X108050710Y-60456509D01*
X108080000Y-60432471D01*
X108109290Y-60456509D01*
X108297780Y-60557259D01*
X108502303Y-60619300D01*
X108715000Y-60640249D01*
X108927696Y-60619300D01*
X109132219Y-60557259D01*
X109320710Y-60456509D01*
X109485922Y-60320922D01*
X109621509Y-60155710D01*
X109722259Y-59967220D01*
X109784300Y-59762697D01*
X109800000Y-59603294D01*
X109800000Y-58975701D01*
X114111600Y-63287303D01*
X114111601Y-66342568D01*
X114107924Y-66379900D01*
X114111601Y-66417233D01*
X114120123Y-66503752D01*
X114122598Y-66528885D01*
X114166054Y-66672146D01*
X114236626Y-66804176D01*
X114307801Y-66890902D01*
X114331600Y-66919901D01*
X114360598Y-66943699D01*
X116334601Y-68917703D01*
X116358399Y-68946701D01*
X116387397Y-68970499D01*
X116474123Y-69041674D01*
X116592462Y-69104928D01*
X116606153Y-69112246D01*
X116749414Y-69155703D01*
X116861067Y-69166700D01*
X116861076Y-69166700D01*
X116898399Y-69170376D01*
X116935722Y-69166700D01*
X117320997Y-69166700D01*
X111536856Y-74950843D01*
X111535000Y-74723250D01*
X111376250Y-74564500D01*
X110127000Y-74564500D01*
X110127000Y-75576250D01*
X110285750Y-75735000D01*
X110750375Y-75737324D01*
X110225771Y-76261928D01*
X109349997Y-76261928D01*
X109176743Y-76278992D01*
X109010148Y-76329528D01*
X108856612Y-76411595D01*
X108722037Y-76522037D01*
X108611595Y-76656612D01*
X108529528Y-76810148D01*
X108478992Y-76976743D01*
X108461928Y-77149997D01*
X108461928Y-77975003D01*
X108466480Y-78021219D01*
X107422999Y-79064700D01*
X103037333Y-79064700D01*
X103000000Y-79061023D01*
X102962667Y-79064700D01*
X102918302Y-79064700D01*
X102126853Y-78273251D01*
X102102768Y-78152171D01*
X102032286Y-77982011D01*
X101929962Y-77828872D01*
X101799728Y-77698638D01*
X101646589Y-77596314D01*
X101476429Y-77525832D01*
X101295789Y-77489900D01*
X101111611Y-77489900D01*
X100930971Y-77525832D01*
X100760811Y-77596314D01*
X100607672Y-77698638D01*
X100477438Y-77828872D01*
X100375114Y-77982011D01*
X100304632Y-78152171D01*
X100268700Y-78332811D01*
X100268700Y-78516989D01*
X100304632Y-78697629D01*
X100375114Y-78867789D01*
X100477438Y-79020928D01*
X100607672Y-79151162D01*
X100760811Y-79253486D01*
X100930971Y-79323968D01*
X101052051Y-79348053D01*
X101217465Y-79513467D01*
X100985750Y-79515000D01*
X100827000Y-79673750D01*
X100827000Y-81023000D01*
X100847000Y-81023000D01*
X100847000Y-81277000D01*
X100827000Y-81277000D01*
X100827000Y-81297000D01*
X100573000Y-81297000D01*
X100573000Y-81277000D01*
X99473750Y-81277000D01*
X99315000Y-81435750D01*
X99313797Y-81715400D01*
X98265502Y-81715400D01*
X97789103Y-81239002D01*
X97765301Y-81209999D01*
X97649576Y-81115026D01*
X97538072Y-81055425D01*
X97538072Y-80500000D01*
X97525812Y-80375518D01*
X97489502Y-80255820D01*
X97432940Y-80150000D01*
X99311928Y-80150000D01*
X99315000Y-80864250D01*
X99473750Y-81023000D01*
X100573000Y-81023000D01*
X100573000Y-79673750D01*
X100414250Y-79515000D01*
X99950000Y-79511928D01*
X99825518Y-79524188D01*
X99705820Y-79560498D01*
X99595506Y-79619463D01*
X99498815Y-79698815D01*
X99419463Y-79795506D01*
X99360498Y-79905820D01*
X99324188Y-80025518D01*
X99311928Y-80150000D01*
X97432940Y-80150000D01*
X97430537Y-80145506D01*
X97351185Y-80048815D01*
X97254494Y-79969463D01*
X97144180Y-79910498D01*
X97024482Y-79874188D01*
X96900000Y-79861928D01*
X96760000Y-79861928D01*
X96760000Y-78852238D01*
X96823257Y-78846008D01*
X96989852Y-78795472D01*
X97143388Y-78713405D01*
X97277963Y-78602963D01*
X97388405Y-78468388D01*
X97470472Y-78314852D01*
X97521008Y-78148257D01*
X97538072Y-77975003D01*
X97538072Y-77149997D01*
X97521008Y-76976743D01*
X97470472Y-76810148D01*
X97388405Y-76656612D01*
X97277963Y-76522037D01*
X97229795Y-76482507D01*
X99862302Y-73850000D01*
X100461928Y-73850000D01*
X100461928Y-75850000D01*
X100474188Y-75974482D01*
X100510498Y-76094180D01*
X100569463Y-76204494D01*
X100648815Y-76301185D01*
X100745506Y-76380537D01*
X100855820Y-76439502D01*
X100975518Y-76475812D01*
X101100000Y-76488072D01*
X104900000Y-76488072D01*
X105024482Y-76475812D01*
X105144180Y-76439502D01*
X105254494Y-76380537D01*
X105351185Y-76301185D01*
X105430537Y-76204494D01*
X105489502Y-76094180D01*
X105525812Y-75974482D01*
X105538072Y-75850000D01*
X105538072Y-75100000D01*
X108461928Y-75100000D01*
X108474188Y-75224482D01*
X108510498Y-75344180D01*
X108569463Y-75454494D01*
X108648815Y-75551185D01*
X108745506Y-75630537D01*
X108855820Y-75689502D01*
X108975518Y-75725812D01*
X109100000Y-75738072D01*
X109714250Y-75735000D01*
X109873000Y-75576250D01*
X109873000Y-74564500D01*
X108623750Y-74564500D01*
X108465000Y-74723250D01*
X108461928Y-75100000D01*
X105538072Y-75100000D01*
X105538072Y-73850000D01*
X105530686Y-73775000D01*
X108461928Y-73775000D01*
X108465000Y-74151750D01*
X108623750Y-74310500D01*
X109873000Y-74310500D01*
X109873000Y-73298750D01*
X110127000Y-73298750D01*
X110127000Y-74310500D01*
X111376250Y-74310500D01*
X111535000Y-74151750D01*
X111538072Y-73775000D01*
X111525812Y-73650518D01*
X111489502Y-73530820D01*
X111430537Y-73420506D01*
X111351185Y-73323815D01*
X111254494Y-73244463D01*
X111144180Y-73185498D01*
X111024482Y-73149188D01*
X110900000Y-73136928D01*
X110285750Y-73140000D01*
X110127000Y-73298750D01*
X109873000Y-73298750D01*
X109714250Y-73140000D01*
X109100000Y-73136928D01*
X108975518Y-73149188D01*
X108855820Y-73185498D01*
X108745506Y-73244463D01*
X108648815Y-73323815D01*
X108569463Y-73420506D01*
X108510498Y-73530820D01*
X108474188Y-73650518D01*
X108461928Y-73775000D01*
X105530686Y-73775000D01*
X105525812Y-73725518D01*
X105489502Y-73605820D01*
X105430537Y-73495506D01*
X105351185Y-73398815D01*
X105254494Y-73319463D01*
X105144180Y-73260498D01*
X105024482Y-73224188D01*
X104900000Y-73211928D01*
X101100000Y-73211928D01*
X100975518Y-73224188D01*
X100855820Y-73260498D01*
X100745506Y-73319463D01*
X100648815Y-73398815D01*
X100569463Y-73495506D01*
X100510498Y-73605820D01*
X100474188Y-73725518D01*
X100461928Y-73850000D01*
X99862302Y-73850000D01*
X102099230Y-71613072D01*
X102437500Y-71613072D01*
X102608316Y-71596248D01*
X102772567Y-71546423D01*
X102922606Y-71466226D01*
X102970506Y-71505537D01*
X103080820Y-71564502D01*
X103200518Y-71600812D01*
X103325000Y-71613072D01*
X103576750Y-71610000D01*
X103735500Y-71451250D01*
X103735500Y-70627000D01*
X103989500Y-70627000D01*
X103989500Y-71451250D01*
X104148250Y-71610000D01*
X104400000Y-71613072D01*
X104524482Y-71600812D01*
X104644180Y-71564502D01*
X104754494Y-71505537D01*
X104851185Y-71426185D01*
X104930537Y-71329494D01*
X104989502Y-71219180D01*
X105025812Y-71099482D01*
X105038072Y-70975000D01*
X105035000Y-70785750D01*
X104876250Y-70627000D01*
X103989500Y-70627000D01*
X103735500Y-70627000D01*
X103715500Y-70627000D01*
X103715500Y-70373000D01*
X103735500Y-70373000D01*
X103735500Y-69548750D01*
X103989500Y-69548750D01*
X103989500Y-70373000D01*
X104876250Y-70373000D01*
X105035000Y-70214250D01*
X105038072Y-70025000D01*
X105025812Y-69900518D01*
X104989502Y-69780820D01*
X104930537Y-69670506D01*
X104851185Y-69573815D01*
X104754494Y-69494463D01*
X104644180Y-69435498D01*
X104524482Y-69399188D01*
X104400000Y-69386928D01*
X104148250Y-69390000D01*
X103989500Y-69548750D01*
X103735500Y-69548750D01*
X103576750Y-69390000D01*
X103325000Y-69386928D01*
X103200518Y-69399188D01*
X103080820Y-69435498D01*
X102970506Y-69494463D01*
X102922606Y-69533774D01*
X102897500Y-69520355D01*
X102897500Y-67350000D01*
X104061928Y-67350000D01*
X104074188Y-67474482D01*
X104110498Y-67594180D01*
X104169463Y-67704494D01*
X104248815Y-67801185D01*
X104345506Y-67880537D01*
X104455820Y-67939502D01*
X104575518Y-67975812D01*
X104700000Y-67988072D01*
X105164250Y-67985000D01*
X105323000Y-67826250D01*
X105323000Y-66977000D01*
X105577000Y-66977000D01*
X105577000Y-67826250D01*
X105735750Y-67985000D01*
X106200000Y-67988072D01*
X106324482Y-67975812D01*
X106444180Y-67939502D01*
X106554494Y-67880537D01*
X106651185Y-67801185D01*
X106730537Y-67704494D01*
X106789502Y-67594180D01*
X106825812Y-67474482D01*
X106838072Y-67350000D01*
X106835000Y-67135750D01*
X106676250Y-66977000D01*
X105577000Y-66977000D01*
X105323000Y-66977000D01*
X104223750Y-66977000D01*
X104065000Y-67135750D01*
X104061928Y-67350000D01*
X102897500Y-67350000D01*
X102897500Y-66350000D01*
X104061928Y-66350000D01*
X104065000Y-66564250D01*
X104223750Y-66723000D01*
X105323000Y-66723000D01*
X105323000Y-65873750D01*
X105577000Y-65873750D01*
X105577000Y-66723000D01*
X106676250Y-66723000D01*
X106835000Y-66564250D01*
X106838072Y-66350000D01*
X106825812Y-66225518D01*
X106789502Y-66105820D01*
X106730537Y-65995506D01*
X106651185Y-65898815D01*
X106554494Y-65819463D01*
X106444180Y-65760498D01*
X106324482Y-65724188D01*
X106200000Y-65711928D01*
X105735750Y-65715000D01*
X105577000Y-65873750D01*
X105323000Y-65873750D01*
X105164250Y-65715000D01*
X104700000Y-65711928D01*
X104575518Y-65724188D01*
X104455820Y-65760498D01*
X104345506Y-65819463D01*
X104248815Y-65898815D01*
X104169463Y-65995506D01*
X104110498Y-66105820D01*
X104074188Y-66225518D01*
X104061928Y-66350000D01*
X102897500Y-66350000D01*
X102897500Y-64199522D01*
X102901176Y-64162199D01*
X102897500Y-64124876D01*
X102897500Y-64124867D01*
X102886503Y-64013214D01*
X102843046Y-63869953D01*
X102772474Y-63737924D01*
X102677501Y-63622199D01*
X102648503Y-63598402D01*
X102189103Y-63139002D01*
X102165301Y-63109999D01*
X102049576Y-63015026D01*
X101917547Y-62944454D01*
X101899567Y-62939000D01*
X101889502Y-62905820D01*
X101830537Y-62795506D01*
X101751185Y-62698815D01*
X101654494Y-62619463D01*
X101544180Y-62560498D01*
X101424482Y-62524188D01*
X101300000Y-62511928D01*
X99800000Y-62511928D01*
X99675518Y-62524188D01*
X99555820Y-62560498D01*
X99445506Y-62619463D01*
X99348815Y-62698815D01*
X99269463Y-62795506D01*
X99210498Y-62905820D01*
X99174188Y-63025518D01*
X99161928Y-63150000D01*
X99161928Y-64150000D01*
X99174188Y-64274482D01*
X99210498Y-64394180D01*
X99269463Y-64504494D01*
X99348815Y-64601185D01*
X99445506Y-64680537D01*
X99555820Y-64739502D01*
X99675518Y-64775812D01*
X99800000Y-64788072D01*
X101300000Y-64788072D01*
X101377500Y-64780439D01*
X101377500Y-65719561D01*
X101300000Y-65711928D01*
X99800000Y-65711928D01*
X99675518Y-65724188D01*
X99555820Y-65760498D01*
X99445506Y-65819463D01*
X99348815Y-65898815D01*
X99269463Y-65995506D01*
X99210498Y-66105820D01*
X99174188Y-66225518D01*
X99161928Y-66350000D01*
X99161928Y-67350000D01*
X99174188Y-67474482D01*
X99210498Y-67594180D01*
X99269463Y-67704494D01*
X99348815Y-67801185D01*
X99445506Y-67880537D01*
X99555820Y-67939502D01*
X99675518Y-67975812D01*
X99800000Y-67988072D01*
X101300000Y-67988072D01*
X101377501Y-67980439D01*
X101377501Y-69520354D01*
X101351058Y-69534488D01*
X101218377Y-69643377D01*
X101109488Y-69776058D01*
X101028577Y-69927433D01*
X100978752Y-70091684D01*
X100961928Y-70262500D01*
X100961928Y-70600770D01*
X97536020Y-74026679D01*
X97538072Y-73775000D01*
X97525812Y-73650518D01*
X97489502Y-73530820D01*
X97430537Y-73420506D01*
X97351185Y-73323815D01*
X97254494Y-73244463D01*
X97144180Y-73185498D01*
X97024482Y-73149188D01*
X96900000Y-73136928D01*
X96285750Y-73140000D01*
X96127000Y-73298750D01*
X96127000Y-74310500D01*
X96147000Y-74310500D01*
X96147000Y-74564500D01*
X96127000Y-74564500D01*
X96127000Y-74584500D01*
X95873000Y-74584500D01*
X95873000Y-74564500D01*
X94623750Y-74564500D01*
X94465000Y-74723250D01*
X94461928Y-75100000D01*
X94474188Y-75224482D01*
X94510498Y-75344180D01*
X94569463Y-75454494D01*
X94648815Y-75551185D01*
X94745506Y-75630537D01*
X94855820Y-75689502D01*
X94975518Y-75725812D01*
X95100000Y-75738072D01*
X95714250Y-75735000D01*
X95872998Y-75576252D01*
X95872998Y-75689701D01*
X95489003Y-76073696D01*
X95459999Y-76097499D01*
X95409105Y-76159514D01*
X95365026Y-76213224D01*
X95338993Y-76261928D01*
X95338382Y-76263072D01*
X95176743Y-76278992D01*
X95010148Y-76329528D01*
X94856612Y-76411595D01*
X94722037Y-76522037D01*
X94611595Y-76656612D01*
X94529528Y-76810148D01*
X94478992Y-76976743D01*
X94461928Y-77149997D01*
X94461928Y-77975003D01*
X94478992Y-78148257D01*
X94529528Y-78314852D01*
X94611595Y-78468388D01*
X94722037Y-78602963D01*
X94856612Y-78713405D01*
X95010148Y-78795472D01*
X95176743Y-78846008D01*
X95240001Y-78852238D01*
X95240000Y-79861928D01*
X95100000Y-79861928D01*
X94975518Y-79874188D01*
X94855820Y-79910498D01*
X94745506Y-79969463D01*
X94648815Y-80048815D01*
X94569463Y-80145506D01*
X94510498Y-80255820D01*
X94474188Y-80375518D01*
X94461928Y-80500000D01*
X94461928Y-82524427D01*
X92838000Y-80900499D01*
X92838000Y-73775000D01*
X94461928Y-73775000D01*
X94465000Y-74151750D01*
X94623750Y-74310500D01*
X95873000Y-74310500D01*
X95873000Y-73298750D01*
X95714250Y-73140000D01*
X95100000Y-73136928D01*
X94975518Y-73149188D01*
X94855820Y-73185498D01*
X94745506Y-73244463D01*
X94648815Y-73323815D01*
X94569463Y-73420506D01*
X94510498Y-73530820D01*
X94474188Y-73650518D01*
X94461928Y-73775000D01*
X92838000Y-73775000D01*
X92838000Y-71178920D01*
X92934623Y-71099623D01*
X93043512Y-70966942D01*
X93124423Y-70815567D01*
X93174248Y-70651316D01*
X93191072Y-70480500D01*
X93191072Y-69980500D01*
X93174248Y-69809684D01*
X93124423Y-69645433D01*
X93043512Y-69494058D01*
X92954188Y-69385217D01*
X93004185Y-69344185D01*
X93083537Y-69247494D01*
X93124624Y-69170626D01*
X94012928Y-70058930D01*
X94012928Y-70480500D01*
X94029752Y-70651316D01*
X94079577Y-70815567D01*
X94160488Y-70966942D01*
X94269377Y-71099623D01*
X94402058Y-71208512D01*
X94553433Y-71289423D01*
X94717684Y-71339248D01*
X94888500Y-71356072D01*
X95363500Y-71356072D01*
X95534316Y-71339248D01*
X95698567Y-71289423D01*
X95849942Y-71208512D01*
X95982623Y-71099623D01*
X96091512Y-70966942D01*
X96098964Y-70953000D01*
X96439036Y-70953000D01*
X96446488Y-70966942D01*
X96555377Y-71099623D01*
X96688058Y-71208512D01*
X96839433Y-71289423D01*
X97003684Y-71339248D01*
X97174500Y-71356072D01*
X97649500Y-71356072D01*
X97820316Y-71339248D01*
X97984567Y-71289423D01*
X98135942Y-71208512D01*
X98268623Y-71099623D01*
X98377512Y-70966942D01*
X98458423Y-70815567D01*
X98508248Y-70651316D01*
X98525072Y-70480500D01*
X98525072Y-69905500D01*
X98508248Y-69734684D01*
X98458423Y-69570433D01*
X98377512Y-69419058D01*
X98294575Y-69318000D01*
X98377512Y-69216942D01*
X98458423Y-69065567D01*
X98508248Y-68901316D01*
X98525072Y-68730500D01*
X98525072Y-68155500D01*
X98508248Y-67984684D01*
X98458423Y-67820433D01*
X98377512Y-67669058D01*
X98268623Y-67536377D01*
X98135942Y-67427488D01*
X98088000Y-67401863D01*
X98088000Y-66230920D01*
X98184623Y-66151623D01*
X98293512Y-66018942D01*
X98374423Y-65867567D01*
X98424248Y-65703316D01*
X98441072Y-65532500D01*
X98441072Y-65032500D01*
X98424248Y-64861684D01*
X98374423Y-64697433D01*
X98293512Y-64546058D01*
X98184623Y-64413377D01*
X98131768Y-64370000D01*
X98184623Y-64326623D01*
X98293512Y-64193942D01*
X98374423Y-64042567D01*
X98424248Y-63878316D01*
X98441072Y-63707500D01*
X98441072Y-63207500D01*
X98424248Y-63036684D01*
X98374423Y-62872433D01*
X98293512Y-62721058D01*
X98184623Y-62588377D01*
X98051942Y-62479488D01*
X97900567Y-62398577D01*
X97736316Y-62348752D01*
X97565500Y-62331928D01*
X97090500Y-62331928D01*
X96919684Y-62348752D01*
X96755433Y-62398577D01*
X96604058Y-62479488D01*
X96471377Y-62588377D01*
X96362488Y-62721058D01*
X96281577Y-62872433D01*
X96231752Y-63036684D01*
X96214928Y-63207500D01*
X96214928Y-63495771D01*
X96191072Y-63519627D01*
X96191072Y-63207500D01*
X96174248Y-63036684D01*
X96124423Y-62872433D01*
X96043512Y-62721058D01*
X95934623Y-62588377D01*
X95801942Y-62479488D01*
X95650567Y-62398577D01*
X95486316Y-62348752D01*
X95315500Y-62331928D01*
X94840500Y-62331928D01*
X94669684Y-62348752D01*
X94505433Y-62398577D01*
X94354058Y-62479488D01*
X94221377Y-62588377D01*
X94131822Y-62697500D01*
X93547922Y-62697500D01*
X93510599Y-62693824D01*
X93473276Y-62697500D01*
X93473267Y-62697500D01*
X93361614Y-62708497D01*
X93218353Y-62751954D01*
X93086324Y-62822526D01*
X93028403Y-62870061D01*
X93034072Y-62812500D01*
X93034072Y-62687500D01*
X93020611Y-62550825D01*
X93005193Y-62500000D01*
X93020611Y-62449175D01*
X93034072Y-62312500D01*
X93034072Y-62187500D01*
X93020611Y-62050825D01*
X93017973Y-62042128D01*
X96200000Y-58860102D01*
X96200000Y-59677000D01*
X96245624Y-59886233D01*
X96331191Y-60082545D01*
X96453413Y-60258391D01*
X96607592Y-60407014D01*
X96787803Y-60522702D01*
X96990999Y-60594408D01*
X97158000Y-60467502D01*
X97158000Y-58877000D01*
X97138000Y-58877000D01*
X97138000Y-58623000D01*
X97158000Y-58623000D01*
X97158000Y-58603000D01*
X97412000Y-58603000D01*
X97412000Y-58623000D01*
G37*
%TD.AperFunction*%
D26*
X83934488Y-65124942D02*
X83987061Y-65189003D01*
X83965000Y-65299911D01*
X83965000Y-65484089D01*
X84000932Y-65664729D01*
X84071414Y-65834889D01*
X84085243Y-65855586D01*
X84070506Y-65863463D01*
X83973815Y-65942815D01*
X83894463Y-66039506D01*
X83835498Y-66149820D01*
X83799188Y-66269518D01*
X83786928Y-66394000D01*
X83790000Y-66645750D01*
X83948750Y-66804500D01*
X84773000Y-66804500D01*
X84773000Y-66784500D01*
X84992191Y-66784500D01*
X85011432Y-66881229D01*
X85047000Y-66967098D01*
X85047000Y-67058500D01*
X85027000Y-67058500D01*
X85027000Y-67078500D01*
X84773000Y-67078500D01*
X84773000Y-67058500D01*
X83948750Y-67058500D01*
X83790000Y-67217250D01*
X83786928Y-67469000D01*
X83799188Y-67593482D01*
X83835498Y-67713180D01*
X83894463Y-67823494D01*
X83933774Y-67871394D01*
X83853577Y-68021433D01*
X83803752Y-68185684D01*
X83786928Y-68356500D01*
X83786928Y-68694770D01*
X83367911Y-69113788D01*
X83243388Y-69011595D01*
X83089852Y-68929528D01*
X82923257Y-68878992D01*
X82750003Y-68861928D01*
X81449997Y-68861928D01*
X81276743Y-68878992D01*
X81179100Y-68908612D01*
X81179100Y-68336014D01*
X81200000Y-68338072D01*
X81814250Y-68335000D01*
X81973000Y-68176250D01*
X81973000Y-67164500D01*
X82227000Y-67164500D01*
X82227000Y-68176250D01*
X82385750Y-68335000D01*
X83000000Y-68338072D01*
X83124482Y-68325812D01*
X83244180Y-68289502D01*
X83354494Y-68230537D01*
X83451185Y-68151185D01*
X83530537Y-68054494D01*
X83589502Y-67944180D01*
X83625812Y-67824482D01*
X83638072Y-67700000D01*
X83635000Y-67323250D01*
X83476250Y-67164500D01*
X82227000Y-67164500D01*
X81973000Y-67164500D01*
X81953000Y-67164500D01*
X81953000Y-66910500D01*
X81973000Y-66910500D01*
X81973000Y-65898750D01*
X82227000Y-65898750D01*
X82227000Y-66910500D01*
X83476250Y-66910500D01*
X83635000Y-66751750D01*
X83638072Y-66375000D01*
X83625812Y-66250518D01*
X83589502Y-66130820D01*
X83530537Y-66020506D01*
X83451185Y-65923815D01*
X83354494Y-65844463D01*
X83244180Y-65785498D01*
X83124482Y-65749188D01*
X83000000Y-65736928D01*
X82385750Y-65740000D01*
X82227000Y-65898750D01*
X81973000Y-65898750D01*
X81814250Y-65740000D01*
X81797386Y-65739916D01*
X81874230Y-65663072D01*
X82750003Y-65663072D01*
X82923257Y-65646008D01*
X83089852Y-65595472D01*
X83243388Y-65513405D01*
X83377963Y-65402963D01*
X83488405Y-65268388D01*
X83566384Y-65122500D01*
X83933183Y-65122500D01*
X83934488Y-65124942D01*
%TA.AperFunction,Conductor*%
D27*
G36*
X83934488Y-65124942D02*
G01*
X83987061Y-65189003D01*
X83965000Y-65299911D01*
X83965000Y-65484089D01*
X84000932Y-65664729D01*
X84071414Y-65834889D01*
X84085243Y-65855586D01*
X84070506Y-65863463D01*
X83973815Y-65942815D01*
X83894463Y-66039506D01*
X83835498Y-66149820D01*
X83799188Y-66269518D01*
X83786928Y-66394000D01*
X83790000Y-66645750D01*
X83948750Y-66804500D01*
X84773000Y-66804500D01*
X84773000Y-66784500D01*
X84992191Y-66784500D01*
X85011432Y-66881229D01*
X85047000Y-66967098D01*
X85047000Y-67058500D01*
X85027000Y-67058500D01*
X85027000Y-67078500D01*
X84773000Y-67078500D01*
X84773000Y-67058500D01*
X83948750Y-67058500D01*
X83790000Y-67217250D01*
X83786928Y-67469000D01*
X83799188Y-67593482D01*
X83835498Y-67713180D01*
X83894463Y-67823494D01*
X83933774Y-67871394D01*
X83853577Y-68021433D01*
X83803752Y-68185684D01*
X83786928Y-68356500D01*
X83786928Y-68694770D01*
X83367911Y-69113788D01*
X83243388Y-69011595D01*
X83089852Y-68929528D01*
X82923257Y-68878992D01*
X82750003Y-68861928D01*
X81449997Y-68861928D01*
X81276743Y-68878992D01*
X81179100Y-68908612D01*
X81179100Y-68336014D01*
X81200000Y-68338072D01*
X81814250Y-68335000D01*
X81973000Y-68176250D01*
X81973000Y-67164500D01*
X82227000Y-67164500D01*
X82227000Y-68176250D01*
X82385750Y-68335000D01*
X83000000Y-68338072D01*
X83124482Y-68325812D01*
X83244180Y-68289502D01*
X83354494Y-68230537D01*
X83451185Y-68151185D01*
X83530537Y-68054494D01*
X83589502Y-67944180D01*
X83625812Y-67824482D01*
X83638072Y-67700000D01*
X83635000Y-67323250D01*
X83476250Y-67164500D01*
X82227000Y-67164500D01*
X81973000Y-67164500D01*
X81953000Y-67164500D01*
X81953000Y-66910500D01*
X81973000Y-66910500D01*
X81973000Y-65898750D01*
X82227000Y-65898750D01*
X82227000Y-66910500D01*
X83476250Y-66910500D01*
X83635000Y-66751750D01*
X83638072Y-66375000D01*
X83625812Y-66250518D01*
X83589502Y-66130820D01*
X83530537Y-66020506D01*
X83451185Y-65923815D01*
X83354494Y-65844463D01*
X83244180Y-65785498D01*
X83124482Y-65749188D01*
X83000000Y-65736928D01*
X82385750Y-65740000D01*
X82227000Y-65898750D01*
X81973000Y-65898750D01*
X81814250Y-65740000D01*
X81797386Y-65739916D01*
X81874230Y-65663072D01*
X82750003Y-65663072D01*
X82923257Y-65646008D01*
X83089852Y-65595472D01*
X83243388Y-65513405D01*
X83377963Y-65402963D01*
X83488405Y-65268388D01*
X83566384Y-65122500D01*
X83933183Y-65122500D01*
X83934488Y-65124942D01*
G37*
%TD.AperFunction*%
D26*
X92225000Y-68532500D02*
X92205000Y-68532500D01*
X92205000Y-68552500D01*
X91951000Y-68552500D01*
X91951000Y-68532500D01*
X91931000Y-68532500D01*
X91931000Y-68346700D01*
X92225000Y-68346700D01*
X92225000Y-68532500D01*
%TA.AperFunction,Conductor*%
D27*
G36*
X92225000Y-68532500D02*
G01*
X92205000Y-68532500D01*
X92205000Y-68552500D01*
X91951000Y-68552500D01*
X91951000Y-68532500D01*
X91931000Y-68532500D01*
X91931000Y-68346700D01*
X92225000Y-68346700D01*
X92225000Y-68532500D01*
G37*
%TD.AperFunction*%
%TD*%
M02*
