%TF.GenerationSoftware,KiCad,Pcbnew,(5.1.9)-1*%
%TF.CreationDate,2021-04-28T14:38:11+02:00*%
%TF.ProjectId,AidonBoard32,4169646f-6e42-46f6-9172-6433322e6b69,1*%
%TF.SameCoordinates,Original*%
%TF.FileFunction,Legend,Top*%
%TF.FilePolarity,Positive*%
%FSLAX46Y46*%
G04 Gerber Fmt 4.6, Leading zero omitted, Abs format (unit mm)*
G04 Created by KiCad (PCBNEW (5.1.9)-1) date 2021-04-28 14:38:11*
%MOMM*%
%LPD*%
G01*
G04 APERTURE LIST*
%ADD10C,0.300000*%
%ADD11C,0.120000*%
%ADD12C,0.010000*%
%ADD13C,0.203200*%
%ADD14C,0.150000*%
%ADD15C,0.500000*%
%ADD16C,0.250000*%
%ADD17C,0.032512*%
G04 APERTURE END LIST*
D10*
X80260000Y-47560571D02*
X80260000Y-46846285D01*
X80688571Y-47703428D02*
X79188571Y-47203428D01*
X80688571Y-46703428D01*
X80688571Y-46203428D02*
X79688571Y-46203428D01*
X79188571Y-46203428D02*
X79260000Y-46274857D01*
X79331428Y-46203428D01*
X79260000Y-46132000D01*
X79188571Y-46203428D01*
X79331428Y-46203428D01*
X80688571Y-44846285D02*
X79188571Y-44846285D01*
X80617142Y-44846285D02*
X80688571Y-44989142D01*
X80688571Y-45274857D01*
X80617142Y-45417714D01*
X80545714Y-45489142D01*
X80402857Y-45560571D01*
X79974285Y-45560571D01*
X79831428Y-45489142D01*
X79760000Y-45417714D01*
X79688571Y-45274857D01*
X79688571Y-44989142D01*
X79760000Y-44846285D01*
X80688571Y-43917714D02*
X80617142Y-44060571D01*
X80545714Y-44132000D01*
X80402857Y-44203428D01*
X79974285Y-44203428D01*
X79831428Y-44132000D01*
X79760000Y-44060571D01*
X79688571Y-43917714D01*
X79688571Y-43703428D01*
X79760000Y-43560571D01*
X79831428Y-43489142D01*
X79974285Y-43417714D01*
X80402857Y-43417714D01*
X80545714Y-43489142D01*
X80617142Y-43560571D01*
X80688571Y-43703428D01*
X80688571Y-43917714D01*
X79688571Y-42774857D02*
X80688571Y-42774857D01*
X79831428Y-42774857D02*
X79760000Y-42703428D01*
X79688571Y-42560571D01*
X79688571Y-42346285D01*
X79760000Y-42203428D01*
X79902857Y-42132000D01*
X80688571Y-42132000D01*
X79902857Y-40917714D02*
X79974285Y-40703428D01*
X80045714Y-40632000D01*
X80188571Y-40560571D01*
X80402857Y-40560571D01*
X80545714Y-40632000D01*
X80617142Y-40703428D01*
X80688571Y-40846285D01*
X80688571Y-41417714D01*
X79188571Y-41417714D01*
X79188571Y-40917714D01*
X79260000Y-40774857D01*
X79331428Y-40703428D01*
X79474285Y-40632000D01*
X79617142Y-40632000D01*
X79760000Y-40703428D01*
X79831428Y-40774857D01*
X79902857Y-40917714D01*
X79902857Y-41417714D01*
X80688571Y-39703428D02*
X80617142Y-39846285D01*
X80545714Y-39917714D01*
X80402857Y-39989142D01*
X79974285Y-39989142D01*
X79831428Y-39917714D01*
X79760000Y-39846285D01*
X79688571Y-39703428D01*
X79688571Y-39489142D01*
X79760000Y-39346285D01*
X79831428Y-39274857D01*
X79974285Y-39203428D01*
X80402857Y-39203428D01*
X80545714Y-39274857D01*
X80617142Y-39346285D01*
X80688571Y-39489142D01*
X80688571Y-39703428D01*
X80688571Y-37917714D02*
X79902857Y-37917714D01*
X79760000Y-37989142D01*
X79688571Y-38132000D01*
X79688571Y-38417714D01*
X79760000Y-38560571D01*
X80617142Y-37917714D02*
X80688571Y-38060571D01*
X80688571Y-38417714D01*
X80617142Y-38560571D01*
X80474285Y-38632000D01*
X80331428Y-38632000D01*
X80188571Y-38560571D01*
X80117142Y-38417714D01*
X80117142Y-38060571D01*
X80045714Y-37917714D01*
X80688571Y-37203428D02*
X79688571Y-37203428D01*
X79974285Y-37203428D02*
X79831428Y-37132000D01*
X79760000Y-37060571D01*
X79688571Y-36917714D01*
X79688571Y-36774857D01*
X80688571Y-35632000D02*
X79188571Y-35632000D01*
X80617142Y-35632000D02*
X80688571Y-35774857D01*
X80688571Y-36060571D01*
X80617142Y-36203428D01*
X80545714Y-36274857D01*
X80402857Y-36346285D01*
X79974285Y-36346285D01*
X79831428Y-36274857D01*
X79760000Y-36203428D01*
X79688571Y-36060571D01*
X79688571Y-35774857D01*
X79760000Y-35632000D01*
X79188571Y-35060571D02*
X79188571Y-34132000D01*
X79760000Y-34632000D01*
X79760000Y-34417714D01*
X79831428Y-34274857D01*
X79902857Y-34203428D01*
X80045714Y-34132000D01*
X80402857Y-34132000D01*
X80545714Y-34203428D01*
X80617142Y-34274857D01*
X80688571Y-34417714D01*
X80688571Y-34846285D01*
X80617142Y-34989142D01*
X80545714Y-35060571D01*
X79331428Y-33560571D02*
X79260000Y-33489142D01*
X79188571Y-33346285D01*
X79188571Y-32989142D01*
X79260000Y-32846285D01*
X79331428Y-32774857D01*
X79474285Y-32703428D01*
X79617142Y-32703428D01*
X79831428Y-32774857D01*
X80688571Y-33632000D01*
X80688571Y-32703428D01*
D11*
%TO.C,D6*%
X102956000Y-82058000D02*
X102956000Y-84058000D01*
X102956000Y-84058000D02*
X106806000Y-84058000D01*
X102956000Y-82058000D02*
X106806000Y-82058000D01*
D12*
%TO.C,G2*%
G36*
X121122368Y-41858233D02*
G01*
X121257948Y-41893117D01*
X121390757Y-41945419D01*
X121502248Y-42011560D01*
X121505193Y-42013815D01*
X121557474Y-42063383D01*
X121543102Y-42078365D01*
X121465299Y-42059178D01*
X121327291Y-42006239D01*
X121275230Y-41984098D01*
X121144039Y-41936724D01*
X121029171Y-41911302D01*
X120972384Y-41911054D01*
X120904830Y-41912978D01*
X120884461Y-41893924D01*
X120917077Y-41855055D01*
X121002562Y-41844352D01*
X121122368Y-41858233D01*
G37*
X121122368Y-41858233D02*
X121257948Y-41893117D01*
X121390757Y-41945419D01*
X121502248Y-42011560D01*
X121505193Y-42013815D01*
X121557474Y-42063383D01*
X121543102Y-42078365D01*
X121465299Y-42059178D01*
X121327291Y-42006239D01*
X121275230Y-41984098D01*
X121144039Y-41936724D01*
X121029171Y-41911302D01*
X120972384Y-41911054D01*
X120904830Y-41912978D01*
X120884461Y-41893924D01*
X120917077Y-41855055D01*
X121002562Y-41844352D01*
X121122368Y-41858233D01*
G36*
X121000556Y-42037429D02*
G01*
X121001692Y-42046769D01*
X120971955Y-42084711D01*
X120962615Y-42085846D01*
X120924674Y-42056110D01*
X120923538Y-42046769D01*
X120953275Y-42008828D01*
X120962615Y-42007692D01*
X121000556Y-42037429D01*
G37*
X121000556Y-42037429D02*
X121001692Y-42046769D01*
X120971955Y-42084711D01*
X120962615Y-42085846D01*
X120924674Y-42056110D01*
X120923538Y-42046769D01*
X120953275Y-42008828D01*
X120962615Y-42007692D01*
X121000556Y-42037429D01*
G36*
X118565897Y-42137949D02*
G01*
X118560533Y-42161180D01*
X118539846Y-42164000D01*
X118507681Y-42149702D01*
X118513795Y-42137949D01*
X118560170Y-42133272D01*
X118565897Y-42137949D01*
G37*
X118565897Y-42137949D02*
X118560533Y-42161180D01*
X118539846Y-42164000D01*
X118507681Y-42149702D01*
X118513795Y-42137949D01*
X118560170Y-42133272D01*
X118565897Y-42137949D01*
G36*
X122241889Y-38212533D02*
G01*
X122334791Y-38304669D01*
X122433245Y-38438059D01*
X122527846Y-38596199D01*
X122609190Y-38762586D01*
X122667871Y-38920718D01*
X122694485Y-39054091D01*
X122692844Y-39106231D01*
X122666444Y-39204937D01*
X122633494Y-39226262D01*
X122599404Y-39170058D01*
X122582823Y-39109240D01*
X122553800Y-39021198D01*
X122498559Y-38886443D01*
X122426705Y-38725397D01*
X122347841Y-38558485D01*
X122271572Y-38406126D01*
X122207501Y-38288745D01*
X122170589Y-38232660D01*
X122149337Y-38187434D01*
X122163945Y-38178154D01*
X122241889Y-38212533D01*
G37*
X122241889Y-38212533D02*
X122334791Y-38304669D01*
X122433245Y-38438059D01*
X122527846Y-38596199D01*
X122609190Y-38762586D01*
X122667871Y-38920718D01*
X122694485Y-39054091D01*
X122692844Y-39106231D01*
X122666444Y-39204937D01*
X122633494Y-39226262D01*
X122599404Y-39170058D01*
X122582823Y-39109240D01*
X122553800Y-39021198D01*
X122498559Y-38886443D01*
X122426705Y-38725397D01*
X122347841Y-38558485D01*
X122271572Y-38406126D01*
X122207501Y-38288745D01*
X122170589Y-38232660D01*
X122149337Y-38187434D01*
X122163945Y-38178154D01*
X122241889Y-38212533D01*
G36*
X122717513Y-39389539D02*
G01*
X122782511Y-39528481D01*
X122790980Y-39627461D01*
X122743971Y-39699362D01*
X122742821Y-39700323D01*
X122698278Y-39724207D01*
X122686820Y-39680475D01*
X122686822Y-39675800D01*
X122681898Y-39593922D01*
X122669059Y-39474043D01*
X122663152Y-39428616D01*
X122639071Y-39252769D01*
X122717513Y-39389539D01*
G37*
X122717513Y-39389539D02*
X122782511Y-39528481D01*
X122790980Y-39627461D01*
X122743971Y-39699362D01*
X122742821Y-39700323D01*
X122698278Y-39724207D01*
X122686820Y-39680475D01*
X122686822Y-39675800D01*
X122681898Y-39593922D01*
X122669059Y-39474043D01*
X122663152Y-39428616D01*
X122639071Y-39252769D01*
X122717513Y-39389539D01*
G36*
X116449230Y-40249231D02*
G01*
X116495224Y-40310993D01*
X116506499Y-40373221D01*
X116478393Y-40405188D01*
X116472950Y-40405539D01*
X116430670Y-40374308D01*
X116414334Y-40343727D01*
X116390900Y-40255675D01*
X116407996Y-40226558D01*
X116449230Y-40249231D01*
G37*
X116449230Y-40249231D02*
X116495224Y-40310993D01*
X116506499Y-40373221D01*
X116478393Y-40405188D01*
X116472950Y-40405539D01*
X116430670Y-40374308D01*
X116414334Y-40343727D01*
X116390900Y-40255675D01*
X116407996Y-40226558D01*
X116449230Y-40249231D01*
G36*
X116618612Y-40861449D02*
G01*
X116682823Y-40901137D01*
X116680171Y-40951217D01*
X116616986Y-40983842D01*
X116554263Y-40962861D01*
X116531381Y-40929402D01*
X116516092Y-40864651D01*
X116549681Y-40847814D01*
X116618612Y-40861449D01*
G37*
X116618612Y-40861449D02*
X116682823Y-40901137D01*
X116680171Y-40951217D01*
X116616986Y-40983842D01*
X116554263Y-40962861D01*
X116531381Y-40929402D01*
X116516092Y-40864651D01*
X116549681Y-40847814D01*
X116618612Y-40861449D01*
G36*
X116616387Y-41454035D02*
G01*
X116625610Y-41507155D01*
X116636769Y-41622656D01*
X116649706Y-41685308D01*
X116652910Y-41755418D01*
X116629634Y-41773231D01*
X116584927Y-41766214D01*
X116582035Y-41763462D01*
X116568315Y-41691637D01*
X116564686Y-41591969D01*
X116570505Y-41497851D01*
X116585127Y-41442675D01*
X116588276Y-41439670D01*
X116616387Y-41454035D01*
G37*
X116616387Y-41454035D02*
X116625610Y-41507155D01*
X116636769Y-41622656D01*
X116649706Y-41685308D01*
X116652910Y-41755418D01*
X116629634Y-41773231D01*
X116584927Y-41766214D01*
X116582035Y-41763462D01*
X116568315Y-41691637D01*
X116564686Y-41591969D01*
X116570505Y-41497851D01*
X116585127Y-41442675D01*
X116588276Y-41439670D01*
X116616387Y-41454035D01*
G36*
X122291230Y-44215539D02*
G01*
X122271692Y-44235077D01*
X122252154Y-44215539D01*
X122271692Y-44196000D01*
X122291230Y-44215539D01*
G37*
X122291230Y-44215539D02*
X122271692Y-44235077D01*
X122252154Y-44215539D01*
X122271692Y-44196000D01*
X122291230Y-44215539D01*
G36*
X119924817Y-36767107D02*
G01*
X120222457Y-36820786D01*
X120474236Y-36905932D01*
X120666675Y-37020948D01*
X120667172Y-37021355D01*
X120800265Y-37115871D01*
X120945698Y-37198207D01*
X121005976Y-37225077D01*
X121116674Y-37270243D01*
X121197761Y-37307174D01*
X121216615Y-37317608D01*
X121282673Y-37346003D01*
X121399355Y-37383527D01*
X121540946Y-37422547D01*
X121679217Y-37454909D01*
X121752615Y-37478568D01*
X121759258Y-37512243D01*
X121745705Y-37531516D01*
X121723995Y-37589532D01*
X121740177Y-37609081D01*
X121782873Y-37653269D01*
X121849715Y-37740139D01*
X121894806Y-37804605D01*
X122010541Y-37976092D01*
X121912286Y-38000752D01*
X121839130Y-38006862D01*
X121760643Y-37982899D01*
X121665055Y-37921457D01*
X121540595Y-37815129D01*
X121393595Y-37674372D01*
X121275902Y-37561878D01*
X121191710Y-37494949D01*
X121120795Y-37462390D01*
X121042934Y-37453007D01*
X120994647Y-37453520D01*
X120880151Y-37462376D01*
X120797463Y-37478514D01*
X120782342Y-37484968D01*
X120722013Y-37502467D01*
X120611430Y-37519792D01*
X120516332Y-37529543D01*
X120339659Y-37555950D01*
X120231638Y-37603206D01*
X120184578Y-37675431D01*
X120181077Y-37709231D01*
X120147014Y-37800421D01*
X120042644Y-37865562D01*
X119975271Y-37886280D01*
X119877970Y-37936864D01*
X119790086Y-38022254D01*
X119786794Y-38026781D01*
X119695960Y-38124551D01*
X119592571Y-38198909D01*
X119516207Y-38235756D01*
X119494381Y-38228853D01*
X119512270Y-38170467D01*
X119516531Y-38159242D01*
X119535445Y-38088178D01*
X119503542Y-38063447D01*
X119448813Y-38060923D01*
X119377109Y-38056794D01*
X119374394Y-38033121D01*
X119411962Y-37992539D01*
X119498425Y-37930816D01*
X119603591Y-37882385D01*
X119693411Y-37839241D01*
X119743208Y-37791490D01*
X119744246Y-37788800D01*
X119735541Y-37762740D01*
X119681535Y-37753681D01*
X119574741Y-37762251D01*
X119407673Y-37789077D01*
X119172843Y-37834786D01*
X119157394Y-37837946D01*
X118957694Y-37888612D01*
X118833157Y-37945281D01*
X118780831Y-38011472D01*
X118797763Y-38090700D01*
X118871941Y-38178099D01*
X118934646Y-38243709D01*
X118943677Y-38288253D01*
X118904957Y-38341224D01*
X118904745Y-38341458D01*
X118863607Y-38403505D01*
X118862604Y-38435784D01*
X118896747Y-38423281D01*
X118948479Y-38361981D01*
X118951525Y-38357391D01*
X119022051Y-38279717D01*
X119083888Y-38260298D01*
X119121312Y-38300741D01*
X119126000Y-38339575D01*
X119135627Y-38393794D01*
X119179319Y-38409934D01*
X119262769Y-38400647D01*
X119355243Y-38392189D01*
X119393617Y-38412930D01*
X119399538Y-38449968D01*
X119432863Y-38521315D01*
X119519968Y-38561626D01*
X119641546Y-38567549D01*
X119778291Y-38535732D01*
X119812288Y-38521623D01*
X119893451Y-38494743D01*
X119943629Y-38515455D01*
X119964962Y-38541147D01*
X120054645Y-38604352D01*
X120174725Y-38605100D01*
X120309249Y-38543858D01*
X120328120Y-38530517D01*
X120453975Y-38437468D01*
X120549095Y-38526828D01*
X120636004Y-38583910D01*
X120700528Y-38580846D01*
X120727996Y-38518880D01*
X120728154Y-38511660D01*
X120757763Y-38475035D01*
X120796944Y-38476998D01*
X120857460Y-38465032D01*
X120906664Y-38386015D01*
X120912252Y-38371750D01*
X120963460Y-38284331D01*
X121014860Y-38271170D01*
X121055304Y-38329198D01*
X121071582Y-38415625D01*
X121087365Y-38551432D01*
X121109777Y-38618643D01*
X121145234Y-38626815D01*
X121191199Y-38593781D01*
X121286845Y-38536584D01*
X121370809Y-38553383D01*
X121448847Y-38646014D01*
X121468672Y-38682345D01*
X121546471Y-38834843D01*
X121464438Y-38939132D01*
X121413786Y-39029347D01*
X121430775Y-39088339D01*
X121517539Y-39118076D01*
X121662004Y-39121234D01*
X121776013Y-39121157D01*
X121845012Y-39143799D01*
X121880439Y-39204262D01*
X121893733Y-39317648D01*
X121895947Y-39430111D01*
X121910468Y-39584891D01*
X121957598Y-39736557D01*
X122046410Y-39911768D01*
X122078173Y-39965676D01*
X122147887Y-40054985D01*
X122230487Y-40089506D01*
X122283237Y-40092676D01*
X122390274Y-40068182D01*
X122496638Y-40007000D01*
X122576354Y-39928147D01*
X122603846Y-39857932D01*
X122614232Y-39819799D01*
X122637320Y-39837165D01*
X122661001Y-39891417D01*
X122673169Y-39963942D01*
X122673187Y-39964530D01*
X122690626Y-40055158D01*
X122733222Y-40186964D01*
X122790031Y-40327385D01*
X122872574Y-40521494D01*
X122920759Y-40663567D01*
X122938258Y-40769848D01*
X122928741Y-40856578D01*
X122917492Y-40891288D01*
X122864343Y-40962983D01*
X122792268Y-40992545D01*
X122729156Y-40973053D01*
X122709712Y-40942846D01*
X122675547Y-40928796D01*
X122606703Y-40982780D01*
X122600359Y-40989310D01*
X122541445Y-41070537D01*
X122515405Y-41171766D01*
X122511774Y-41284634D01*
X122524375Y-41439224D01*
X122552638Y-41591280D01*
X122566275Y-41638708D01*
X122598081Y-41759794D01*
X122611581Y-41864791D01*
X122611191Y-41882044D01*
X122632010Y-41966393D01*
X122701276Y-41999011D01*
X122804783Y-41974886D01*
X122832894Y-41960240D01*
X122990193Y-41886529D01*
X123106221Y-41872673D01*
X123189600Y-41918369D01*
X123211714Y-41946913D01*
X123251885Y-42043898D01*
X123228317Y-42106117D01*
X123157549Y-42124923D01*
X123096437Y-42146936D01*
X122992783Y-42205480D01*
X122865897Y-42289313D01*
X122825481Y-42318229D01*
X122698168Y-42404662D01*
X122590663Y-42466040D01*
X122520899Y-42492519D01*
X122509124Y-42491887D01*
X122472066Y-42514234D01*
X122432294Y-42592187D01*
X122397227Y-42703854D01*
X122374283Y-42827345D01*
X122369384Y-42904227D01*
X122393191Y-42965312D01*
X122454736Y-42975979D01*
X122539204Y-42943657D01*
X122631780Y-42875776D01*
X122717648Y-42779763D01*
X122762072Y-42707316D01*
X122850042Y-42582655D01*
X122975121Y-42496347D01*
X123154690Y-42437640D01*
X123219833Y-42424170D01*
X123305257Y-42412454D01*
X123333213Y-42432847D01*
X123322581Y-42500753D01*
X123321098Y-42506795D01*
X123275607Y-42671660D01*
X123213246Y-42871040D01*
X123140728Y-43086103D01*
X123064767Y-43298014D01*
X122992075Y-43487942D01*
X122929365Y-43637053D01*
X122890400Y-43715144D01*
X122758481Y-43876709D01*
X122592792Y-43981529D01*
X122409622Y-44020868D01*
X122330307Y-44015594D01*
X122240921Y-44008459D01*
X122184870Y-44034034D01*
X122133955Y-44109174D01*
X122115384Y-44144058D01*
X121904504Y-44490216D01*
X121665407Y-44779787D01*
X121629854Y-44815344D01*
X121526432Y-44910144D01*
X121451159Y-44957867D01*
X121380441Y-44970003D01*
X121324519Y-44964056D01*
X121178324Y-44901776D01*
X121057943Y-44770167D01*
X121002750Y-44664718D01*
X120951011Y-44590020D01*
X120868169Y-44510372D01*
X120779076Y-44445879D01*
X120708582Y-44416648D01*
X120696828Y-44417195D01*
X120650567Y-44420678D01*
X120539584Y-44426381D01*
X120377257Y-44433696D01*
X120176966Y-44442011D01*
X120005230Y-44448715D01*
X119779493Y-44458294D01*
X119576319Y-44468782D01*
X119410625Y-44479265D01*
X119297332Y-44488827D01*
X119256472Y-44494654D01*
X119171821Y-44491559D01*
X119053620Y-44460098D01*
X118994369Y-44436760D01*
X118821383Y-44383833D01*
X118687023Y-44393223D01*
X118595855Y-44464019D01*
X118568005Y-44521829D01*
X118558800Y-44637423D01*
X118611622Y-44715753D01*
X118711782Y-44743077D01*
X118807092Y-44765247D01*
X118887178Y-44806944D01*
X118995828Y-44848032D01*
X119168905Y-44869091D01*
X119395138Y-44869537D01*
X119663257Y-44848785D01*
X119673077Y-44847689D01*
X119815292Y-44831903D01*
X120000547Y-44811683D01*
X120194158Y-44790808D01*
X120239692Y-44785941D01*
X120406897Y-44766328D01*
X120551901Y-44746112D01*
X120651553Y-44728641D01*
X120673597Y-44723152D01*
X120733897Y-44721443D01*
X120797459Y-44763774D01*
X120881586Y-44861891D01*
X120885525Y-44867013D01*
X120967317Y-44969801D01*
X121035951Y-45049396D01*
X121063041Y-45076584D01*
X121109095Y-45138244D01*
X121159494Y-45236555D01*
X121166191Y-45252430D01*
X121196385Y-45364157D01*
X121180784Y-45461745D01*
X121111915Y-45560204D01*
X120982308Y-45674543D01*
X120939809Y-45707165D01*
X120797244Y-45818250D01*
X120647060Y-45940684D01*
X120576113Y-46000916D01*
X120404535Y-46149846D01*
X119930765Y-46149846D01*
X119719454Y-46147992D01*
X119568212Y-46140863D01*
X119459011Y-46126112D01*
X119373821Y-46101393D01*
X119301267Y-46067888D01*
X119104609Y-45950512D01*
X118911480Y-45810610D01*
X118733617Y-45659418D01*
X118582757Y-45508171D01*
X118470637Y-45368104D01*
X118408993Y-45250451D01*
X118400792Y-45205915D01*
X118365283Y-45102807D01*
X119332300Y-45102807D01*
X119358171Y-45165068D01*
X119432722Y-45228500D01*
X119542158Y-45285173D01*
X119672678Y-45327159D01*
X119810488Y-45346526D01*
X119882559Y-45344837D01*
X120011310Y-45326404D01*
X120116619Y-45300086D01*
X120146329Y-45287837D01*
X120208420Y-45222273D01*
X120212321Y-45143794D01*
X120159190Y-45082698D01*
X120138140Y-45074006D01*
X120048286Y-45063283D01*
X119924989Y-45068505D01*
X119887605Y-45073247D01*
X119767479Y-45081166D01*
X119699500Y-45063947D01*
X119693774Y-45057567D01*
X119638467Y-45029008D01*
X119541734Y-45018229D01*
X119438445Y-45026079D01*
X119368907Y-45049646D01*
X119332300Y-45102807D01*
X118365283Y-45102807D01*
X118362524Y-45094796D01*
X118264008Y-44993625D01*
X118136831Y-44925851D01*
X118089458Y-44888077D01*
X118090461Y-44860308D01*
X118082069Y-44815498D01*
X118053169Y-44796970D01*
X118005024Y-44747669D01*
X118001846Y-44715261D01*
X117973341Y-44662136D01*
X117875486Y-44605769D01*
X117843233Y-44592707D01*
X117699008Y-44521775D01*
X117554472Y-44424062D01*
X117422318Y-44312023D01*
X117315242Y-44198114D01*
X117245937Y-44094790D01*
X117227100Y-44014505D01*
X117234161Y-43995127D01*
X117228973Y-43963104D01*
X117219177Y-43961539D01*
X117199269Y-43925710D01*
X117179442Y-43831038D01*
X117164777Y-43707275D01*
X119064555Y-43707275D01*
X119074409Y-43790476D01*
X119158715Y-43853469D01*
X119204629Y-43871410D01*
X119427487Y-43916718D01*
X119634044Y-43899365D01*
X119699840Y-43877859D01*
X119795378Y-43851565D01*
X119937117Y-43826600D01*
X120083384Y-43809475D01*
X120229324Y-43793820D01*
X120314071Y-43774479D01*
X120354550Y-43745365D01*
X120366902Y-43707539D01*
X120346944Y-43637384D01*
X120260890Y-43572622D01*
X120238296Y-43561000D01*
X120091298Y-43506238D01*
X119952381Y-43501764D01*
X119788865Y-43545479D01*
X119673473Y-43574604D01*
X119576627Y-43561546D01*
X119534865Y-43545526D01*
X119364146Y-43497131D01*
X119229533Y-43515253D01*
X119127349Y-43597467D01*
X119064555Y-43707275D01*
X117164777Y-43707275D01*
X117163528Y-43696743D01*
X117161613Y-43673014D01*
X117135856Y-43472639D01*
X117094336Y-43312174D01*
X117041517Y-43202572D01*
X116981864Y-43154786D01*
X116951393Y-43157294D01*
X116859565Y-43178248D01*
X116831783Y-43180000D01*
X116801707Y-43191074D01*
X116786409Y-43234306D01*
X116783958Y-43324711D01*
X116792421Y-43477305D01*
X116792812Y-43482846D01*
X116806807Y-43642665D01*
X116823797Y-43783193D01*
X116840368Y-43876703D01*
X116842149Y-43883385D01*
X116850551Y-43929482D01*
X116831865Y-43933017D01*
X116776569Y-43889292D01*
X116690822Y-43808720D01*
X116573504Y-43680745D01*
X116504491Y-43560065D01*
X116470429Y-43444258D01*
X116436531Y-43312782D01*
X116398213Y-43201367D01*
X116382329Y-43167230D01*
X116341508Y-43079433D01*
X116292398Y-42955404D01*
X116271335Y-42896692D01*
X116236585Y-42782931D01*
X116233096Y-42725885D01*
X116257544Y-42711077D01*
X116321522Y-42737562D01*
X116332000Y-42750154D01*
X116383394Y-42781036D01*
X116460053Y-42787820D01*
X116526018Y-42771676D01*
X116546923Y-42743159D01*
X116528957Y-42640089D01*
X116518745Y-42616227D01*
X116774543Y-42616227D01*
X116774851Y-42691820D01*
X116785544Y-42718850D01*
X116842269Y-42774759D01*
X116897839Y-42760680D01*
X116928147Y-42688478D01*
X116916838Y-42594409D01*
X116898096Y-42554769D01*
X116865350Y-42535231D01*
X116937692Y-42535231D01*
X116957230Y-42554769D01*
X116976769Y-42535231D01*
X116957230Y-42515692D01*
X116937692Y-42535231D01*
X116865350Y-42535231D01*
X116850711Y-42526497D01*
X116804678Y-42554051D01*
X116774543Y-42616227D01*
X116518745Y-42616227D01*
X116484744Y-42536785D01*
X116428809Y-42460597D01*
X116384604Y-42437539D01*
X116306370Y-42422735D01*
X116199380Y-42387789D01*
X116105081Y-42346893D01*
X116083874Y-42334552D01*
X116085967Y-42295720D01*
X116092169Y-42272173D01*
X117406795Y-42272173D01*
X117421890Y-42339213D01*
X117477224Y-42378554D01*
X117583599Y-42404099D01*
X117724399Y-42418416D01*
X117869382Y-42420633D01*
X117988307Y-42409877D01*
X118038768Y-42394757D01*
X118111567Y-42375446D01*
X118183459Y-42413386D01*
X118201610Y-42429217D01*
X118325726Y-42520523D01*
X118434832Y-42546335D01*
X118548668Y-42511164D01*
X118552184Y-42509309D01*
X118671616Y-42416316D01*
X118717009Y-42302249D01*
X118711879Y-42232385D01*
X118709228Y-42148417D01*
X118746755Y-42129273D01*
X118821360Y-42174699D01*
X118896548Y-42247517D01*
X118967812Y-42318776D01*
X119012953Y-42354429D01*
X119019688Y-42354979D01*
X119085319Y-42232236D01*
X119117376Y-42147212D01*
X119119904Y-42125400D01*
X120379760Y-42125400D01*
X120405555Y-42155053D01*
X120482392Y-42147622D01*
X120505039Y-42143420D01*
X120596160Y-42132469D01*
X120639333Y-42157589D01*
X120662390Y-42235742D01*
X120663209Y-42239815D01*
X120720529Y-42350853D01*
X120828406Y-42417672D01*
X120969504Y-42434763D01*
X121126484Y-42396614D01*
X121139078Y-42391071D01*
X121233335Y-42307865D01*
X121264193Y-42228955D01*
X121283630Y-42153212D01*
X121306649Y-42145494D01*
X121337895Y-42182468D01*
X121409007Y-42231947D01*
X121488156Y-42226609D01*
X121562277Y-42195238D01*
X121587846Y-42163256D01*
X121620703Y-42132482D01*
X121668865Y-42124923D01*
X121733785Y-42106990D01*
X121736956Y-42059599D01*
X121684314Y-41992363D01*
X121581799Y-41914894D01*
X121515183Y-41876125D01*
X121375640Y-41811338D01*
X121234020Y-41771965D01*
X121057686Y-41749895D01*
X120988022Y-41745128D01*
X120824126Y-41737759D01*
X120714247Y-41741914D01*
X120634623Y-41761467D01*
X120561493Y-41800290D01*
X120532769Y-41819328D01*
X120431034Y-41909691D01*
X120387343Y-42012598D01*
X120383585Y-42040514D01*
X120379760Y-42125400D01*
X119119904Y-42125400D01*
X119125997Y-42072843D01*
X119126000Y-42071167D01*
X119093777Y-41942006D01*
X118995392Y-41847859D01*
X118828272Y-41786620D01*
X118762546Y-41774060D01*
X118600812Y-41759615D01*
X118465906Y-41768916D01*
X118374856Y-41799148D01*
X118344461Y-41843191D01*
X118310239Y-41870748D01*
X118220121Y-41912584D01*
X118092932Y-41960064D01*
X118080692Y-41964191D01*
X117938730Y-42013508D01*
X117819684Y-42058177D01*
X117749233Y-42088560D01*
X117749068Y-42088648D01*
X117664232Y-42119758D01*
X117626535Y-42124923D01*
X117519601Y-42147220D01*
X117442860Y-42202239D01*
X117406795Y-42272173D01*
X116092169Y-42272173D01*
X116108330Y-42210827D01*
X116116212Y-42186157D01*
X116153657Y-42095522D01*
X116204761Y-42056049D01*
X116299644Y-42046835D01*
X116317048Y-42046769D01*
X116454916Y-42065729D01*
X116598882Y-42112580D01*
X116625487Y-42125133D01*
X116721547Y-42168372D01*
X116760034Y-42169144D01*
X116758359Y-42149465D01*
X116763785Y-42083367D01*
X116803469Y-41988363D01*
X116816095Y-41966401D01*
X116861927Y-41876301D01*
X116877505Y-41814125D01*
X116875302Y-41806201D01*
X116872065Y-41751486D01*
X116888163Y-41654836D01*
X116894885Y-41627594D01*
X116916051Y-41514907D01*
X116935264Y-41356844D01*
X116948600Y-41186155D01*
X116949265Y-41173543D01*
X116961226Y-41025658D01*
X116978946Y-40909631D01*
X116988212Y-40880390D01*
X122150797Y-40880390D01*
X122156079Y-40935097D01*
X122195037Y-40978082D01*
X122277912Y-41024696D01*
X122319732Y-41018342D01*
X122314950Y-40968958D01*
X122293864Y-40894510D01*
X122291230Y-40871266D01*
X122263217Y-40839205D01*
X122204469Y-40841991D01*
X122152923Y-40877159D01*
X122150797Y-40880390D01*
X116988212Y-40880390D01*
X116999028Y-40846262D01*
X117003520Y-40841390D01*
X117045170Y-40785830D01*
X117066309Y-40708509D01*
X117060110Y-40645241D01*
X117043856Y-40629798D01*
X117023221Y-40591815D01*
X117037453Y-40559540D01*
X117056725Y-40491724D01*
X117069918Y-40374538D01*
X117073679Y-40268840D01*
X117074461Y-40034450D01*
X117194078Y-40034379D01*
X117289947Y-40015184D01*
X117383947Y-39948387D01*
X117448078Y-39880785D01*
X117595099Y-39752370D01*
X117815504Y-39620227D01*
X117934154Y-39561494D01*
X118178490Y-39439792D01*
X118362780Y-39331175D01*
X118501614Y-39225548D01*
X118609583Y-39112814D01*
X118640761Y-39072554D01*
X118711958Y-38965563D01*
X118726516Y-38906257D01*
X118681896Y-38885917D01*
X118588692Y-38893775D01*
X118460834Y-38896822D01*
X118308565Y-38878658D01*
X118246769Y-38865064D01*
X118063386Y-38838475D01*
X117917723Y-38869718D01*
X117804362Y-38949467D01*
X117726903Y-38987776D01*
X117652445Y-38998769D01*
X117573612Y-39022138D01*
X117464940Y-39082222D01*
X117346593Y-39163984D01*
X117238735Y-39252389D01*
X117161530Y-39332403D01*
X117134925Y-39384654D01*
X117108073Y-39420299D01*
X117023810Y-39416515D01*
X117019254Y-39415620D01*
X116904729Y-39417939D01*
X116857563Y-39450534D01*
X116790273Y-39506360D01*
X116691129Y-39564395D01*
X116682409Y-39568613D01*
X116571332Y-39656976D01*
X116467763Y-39804561D01*
X116384303Y-39992601D01*
X116371844Y-40031073D01*
X116342077Y-40083421D01*
X116310716Y-40067811D01*
X116282592Y-39994176D01*
X116262535Y-39872448D01*
X116256956Y-39794809D01*
X116263661Y-39612585D01*
X116294332Y-39408850D01*
X116342916Y-39208645D01*
X116403359Y-39037006D01*
X116468292Y-38920616D01*
X116529598Y-38830729D01*
X116604347Y-38703824D01*
X116652443Y-38613776D01*
X116733788Y-38478136D01*
X116827506Y-38356018D01*
X116882171Y-38301161D01*
X116902470Y-38281371D01*
X118306828Y-38281371D01*
X118320391Y-38356283D01*
X118371673Y-38404894D01*
X118442367Y-38405734D01*
X118480120Y-38375336D01*
X118493186Y-38303186D01*
X118471591Y-38220485D01*
X118428211Y-38159466D01*
X118389029Y-38147340D01*
X118329366Y-38193246D01*
X118306828Y-38281371D01*
X116902470Y-38281371D01*
X116999952Y-38186338D01*
X117150930Y-38013483D01*
X117327770Y-37791388D01*
X117449266Y-37628675D01*
X119772253Y-37628675D01*
X119782055Y-37671306D01*
X119834097Y-37712064D01*
X119895063Y-37729103D01*
X119916473Y-37723247D01*
X119944085Y-37672394D01*
X119946615Y-37648309D01*
X119915997Y-37605778D01*
X119849807Y-37592524D01*
X119786538Y-37612880D01*
X119772253Y-37628675D01*
X117449266Y-37628675D01*
X117500847Y-37559596D01*
X117626339Y-37409177D01*
X117703472Y-37352168D01*
X119445040Y-37352168D01*
X119462648Y-37378601D01*
X119539195Y-37374446D01*
X119542252Y-37373736D01*
X119635589Y-37343719D01*
X119690010Y-37314068D01*
X119712651Y-37270728D01*
X119674955Y-37251087D01*
X119592732Y-37261238D01*
X119570500Y-37267987D01*
X119482336Y-37310260D01*
X119445040Y-37352168D01*
X117703472Y-37352168D01*
X117745691Y-37320964D01*
X117877801Y-37283129D01*
X117948585Y-37279385D01*
X118028852Y-37261221D01*
X118138073Y-37215115D01*
X118219308Y-37171923D01*
X120229727Y-37171923D01*
X120276813Y-37214429D01*
X120340445Y-37233847D01*
X120429098Y-37257860D01*
X120472200Y-37282694D01*
X120554450Y-37316084D01*
X120646929Y-37282110D01*
X120666053Y-37252290D01*
X120623445Y-37216933D01*
X120554234Y-37185016D01*
X120423283Y-37141295D01*
X120314255Y-37124415D01*
X120244268Y-37135067D01*
X120229727Y-37171923D01*
X118219308Y-37171923D01*
X118253686Y-37153645D01*
X118353127Y-37089388D01*
X118413836Y-37034922D01*
X118422615Y-37015132D01*
X118458595Y-36966020D01*
X118556034Y-36911673D01*
X118699177Y-36858956D01*
X118872270Y-36814730D01*
X118891538Y-36810859D01*
X119245878Y-36760546D01*
X119594798Y-36746495D01*
X119924817Y-36767107D01*
G37*
X119924817Y-36767107D02*
X120222457Y-36820786D01*
X120474236Y-36905932D01*
X120666675Y-37020948D01*
X120667172Y-37021355D01*
X120800265Y-37115871D01*
X120945698Y-37198207D01*
X121005976Y-37225077D01*
X121116674Y-37270243D01*
X121197761Y-37307174D01*
X121216615Y-37317608D01*
X121282673Y-37346003D01*
X121399355Y-37383527D01*
X121540946Y-37422547D01*
X121679217Y-37454909D01*
X121752615Y-37478568D01*
X121759258Y-37512243D01*
X121745705Y-37531516D01*
X121723995Y-37589532D01*
X121740177Y-37609081D01*
X121782873Y-37653269D01*
X121849715Y-37740139D01*
X121894806Y-37804605D01*
X122010541Y-37976092D01*
X121912286Y-38000752D01*
X121839130Y-38006862D01*
X121760643Y-37982899D01*
X121665055Y-37921457D01*
X121540595Y-37815129D01*
X121393595Y-37674372D01*
X121275902Y-37561878D01*
X121191710Y-37494949D01*
X121120795Y-37462390D01*
X121042934Y-37453007D01*
X120994647Y-37453520D01*
X120880151Y-37462376D01*
X120797463Y-37478514D01*
X120782342Y-37484968D01*
X120722013Y-37502467D01*
X120611430Y-37519792D01*
X120516332Y-37529543D01*
X120339659Y-37555950D01*
X120231638Y-37603206D01*
X120184578Y-37675431D01*
X120181077Y-37709231D01*
X120147014Y-37800421D01*
X120042644Y-37865562D01*
X119975271Y-37886280D01*
X119877970Y-37936864D01*
X119790086Y-38022254D01*
X119786794Y-38026781D01*
X119695960Y-38124551D01*
X119592571Y-38198909D01*
X119516207Y-38235756D01*
X119494381Y-38228853D01*
X119512270Y-38170467D01*
X119516531Y-38159242D01*
X119535445Y-38088178D01*
X119503542Y-38063447D01*
X119448813Y-38060923D01*
X119377109Y-38056794D01*
X119374394Y-38033121D01*
X119411962Y-37992539D01*
X119498425Y-37930816D01*
X119603591Y-37882385D01*
X119693411Y-37839241D01*
X119743208Y-37791490D01*
X119744246Y-37788800D01*
X119735541Y-37762740D01*
X119681535Y-37753681D01*
X119574741Y-37762251D01*
X119407673Y-37789077D01*
X119172843Y-37834786D01*
X119157394Y-37837946D01*
X118957694Y-37888612D01*
X118833157Y-37945281D01*
X118780831Y-38011472D01*
X118797763Y-38090700D01*
X118871941Y-38178099D01*
X118934646Y-38243709D01*
X118943677Y-38288253D01*
X118904957Y-38341224D01*
X118904745Y-38341458D01*
X118863607Y-38403505D01*
X118862604Y-38435784D01*
X118896747Y-38423281D01*
X118948479Y-38361981D01*
X118951525Y-38357391D01*
X119022051Y-38279717D01*
X119083888Y-38260298D01*
X119121312Y-38300741D01*
X119126000Y-38339575D01*
X119135627Y-38393794D01*
X119179319Y-38409934D01*
X119262769Y-38400647D01*
X119355243Y-38392189D01*
X119393617Y-38412930D01*
X119399538Y-38449968D01*
X119432863Y-38521315D01*
X119519968Y-38561626D01*
X119641546Y-38567549D01*
X119778291Y-38535732D01*
X119812288Y-38521623D01*
X119893451Y-38494743D01*
X119943629Y-38515455D01*
X119964962Y-38541147D01*
X120054645Y-38604352D01*
X120174725Y-38605100D01*
X120309249Y-38543858D01*
X120328120Y-38530517D01*
X120453975Y-38437468D01*
X120549095Y-38526828D01*
X120636004Y-38583910D01*
X120700528Y-38580846D01*
X120727996Y-38518880D01*
X120728154Y-38511660D01*
X120757763Y-38475035D01*
X120796944Y-38476998D01*
X120857460Y-38465032D01*
X120906664Y-38386015D01*
X120912252Y-38371750D01*
X120963460Y-38284331D01*
X121014860Y-38271170D01*
X121055304Y-38329198D01*
X121071582Y-38415625D01*
X121087365Y-38551432D01*
X121109777Y-38618643D01*
X121145234Y-38626815D01*
X121191199Y-38593781D01*
X121286845Y-38536584D01*
X121370809Y-38553383D01*
X121448847Y-38646014D01*
X121468672Y-38682345D01*
X121546471Y-38834843D01*
X121464438Y-38939132D01*
X121413786Y-39029347D01*
X121430775Y-39088339D01*
X121517539Y-39118076D01*
X121662004Y-39121234D01*
X121776013Y-39121157D01*
X121845012Y-39143799D01*
X121880439Y-39204262D01*
X121893733Y-39317648D01*
X121895947Y-39430111D01*
X121910468Y-39584891D01*
X121957598Y-39736557D01*
X122046410Y-39911768D01*
X122078173Y-39965676D01*
X122147887Y-40054985D01*
X122230487Y-40089506D01*
X122283237Y-40092676D01*
X122390274Y-40068182D01*
X122496638Y-40007000D01*
X122576354Y-39928147D01*
X122603846Y-39857932D01*
X122614232Y-39819799D01*
X122637320Y-39837165D01*
X122661001Y-39891417D01*
X122673169Y-39963942D01*
X122673187Y-39964530D01*
X122690626Y-40055158D01*
X122733222Y-40186964D01*
X122790031Y-40327385D01*
X122872574Y-40521494D01*
X122920759Y-40663567D01*
X122938258Y-40769848D01*
X122928741Y-40856578D01*
X122917492Y-40891288D01*
X122864343Y-40962983D01*
X122792268Y-40992545D01*
X122729156Y-40973053D01*
X122709712Y-40942846D01*
X122675547Y-40928796D01*
X122606703Y-40982780D01*
X122600359Y-40989310D01*
X122541445Y-41070537D01*
X122515405Y-41171766D01*
X122511774Y-41284634D01*
X122524375Y-41439224D01*
X122552638Y-41591280D01*
X122566275Y-41638708D01*
X122598081Y-41759794D01*
X122611581Y-41864791D01*
X122611191Y-41882044D01*
X122632010Y-41966393D01*
X122701276Y-41999011D01*
X122804783Y-41974886D01*
X122832894Y-41960240D01*
X122990193Y-41886529D01*
X123106221Y-41872673D01*
X123189600Y-41918369D01*
X123211714Y-41946913D01*
X123251885Y-42043898D01*
X123228317Y-42106117D01*
X123157549Y-42124923D01*
X123096437Y-42146936D01*
X122992783Y-42205480D01*
X122865897Y-42289313D01*
X122825481Y-42318229D01*
X122698168Y-42404662D01*
X122590663Y-42466040D01*
X122520899Y-42492519D01*
X122509124Y-42491887D01*
X122472066Y-42514234D01*
X122432294Y-42592187D01*
X122397227Y-42703854D01*
X122374283Y-42827345D01*
X122369384Y-42904227D01*
X122393191Y-42965312D01*
X122454736Y-42975979D01*
X122539204Y-42943657D01*
X122631780Y-42875776D01*
X122717648Y-42779763D01*
X122762072Y-42707316D01*
X122850042Y-42582655D01*
X122975121Y-42496347D01*
X123154690Y-42437640D01*
X123219833Y-42424170D01*
X123305257Y-42412454D01*
X123333213Y-42432847D01*
X123322581Y-42500753D01*
X123321098Y-42506795D01*
X123275607Y-42671660D01*
X123213246Y-42871040D01*
X123140728Y-43086103D01*
X123064767Y-43298014D01*
X122992075Y-43487942D01*
X122929365Y-43637053D01*
X122890400Y-43715144D01*
X122758481Y-43876709D01*
X122592792Y-43981529D01*
X122409622Y-44020868D01*
X122330307Y-44015594D01*
X122240921Y-44008459D01*
X122184870Y-44034034D01*
X122133955Y-44109174D01*
X122115384Y-44144058D01*
X121904504Y-44490216D01*
X121665407Y-44779787D01*
X121629854Y-44815344D01*
X121526432Y-44910144D01*
X121451159Y-44957867D01*
X121380441Y-44970003D01*
X121324519Y-44964056D01*
X121178324Y-44901776D01*
X121057943Y-44770167D01*
X121002750Y-44664718D01*
X120951011Y-44590020D01*
X120868169Y-44510372D01*
X120779076Y-44445879D01*
X120708582Y-44416648D01*
X120696828Y-44417195D01*
X120650567Y-44420678D01*
X120539584Y-44426381D01*
X120377257Y-44433696D01*
X120176966Y-44442011D01*
X120005230Y-44448715D01*
X119779493Y-44458294D01*
X119576319Y-44468782D01*
X119410625Y-44479265D01*
X119297332Y-44488827D01*
X119256472Y-44494654D01*
X119171821Y-44491559D01*
X119053620Y-44460098D01*
X118994369Y-44436760D01*
X118821383Y-44383833D01*
X118687023Y-44393223D01*
X118595855Y-44464019D01*
X118568005Y-44521829D01*
X118558800Y-44637423D01*
X118611622Y-44715753D01*
X118711782Y-44743077D01*
X118807092Y-44765247D01*
X118887178Y-44806944D01*
X118995828Y-44848032D01*
X119168905Y-44869091D01*
X119395138Y-44869537D01*
X119663257Y-44848785D01*
X119673077Y-44847689D01*
X119815292Y-44831903D01*
X120000547Y-44811683D01*
X120194158Y-44790808D01*
X120239692Y-44785941D01*
X120406897Y-44766328D01*
X120551901Y-44746112D01*
X120651553Y-44728641D01*
X120673597Y-44723152D01*
X120733897Y-44721443D01*
X120797459Y-44763774D01*
X120881586Y-44861891D01*
X120885525Y-44867013D01*
X120967317Y-44969801D01*
X121035951Y-45049396D01*
X121063041Y-45076584D01*
X121109095Y-45138244D01*
X121159494Y-45236555D01*
X121166191Y-45252430D01*
X121196385Y-45364157D01*
X121180784Y-45461745D01*
X121111915Y-45560204D01*
X120982308Y-45674543D01*
X120939809Y-45707165D01*
X120797244Y-45818250D01*
X120647060Y-45940684D01*
X120576113Y-46000916D01*
X120404535Y-46149846D01*
X119930765Y-46149846D01*
X119719454Y-46147992D01*
X119568212Y-46140863D01*
X119459011Y-46126112D01*
X119373821Y-46101393D01*
X119301267Y-46067888D01*
X119104609Y-45950512D01*
X118911480Y-45810610D01*
X118733617Y-45659418D01*
X118582757Y-45508171D01*
X118470637Y-45368104D01*
X118408993Y-45250451D01*
X118400792Y-45205915D01*
X118365283Y-45102807D01*
X119332300Y-45102807D01*
X119358171Y-45165068D01*
X119432722Y-45228500D01*
X119542158Y-45285173D01*
X119672678Y-45327159D01*
X119810488Y-45346526D01*
X119882559Y-45344837D01*
X120011310Y-45326404D01*
X120116619Y-45300086D01*
X120146329Y-45287837D01*
X120208420Y-45222273D01*
X120212321Y-45143794D01*
X120159190Y-45082698D01*
X120138140Y-45074006D01*
X120048286Y-45063283D01*
X119924989Y-45068505D01*
X119887605Y-45073247D01*
X119767479Y-45081166D01*
X119699500Y-45063947D01*
X119693774Y-45057567D01*
X119638467Y-45029008D01*
X119541734Y-45018229D01*
X119438445Y-45026079D01*
X119368907Y-45049646D01*
X119332300Y-45102807D01*
X118365283Y-45102807D01*
X118362524Y-45094796D01*
X118264008Y-44993625D01*
X118136831Y-44925851D01*
X118089458Y-44888077D01*
X118090461Y-44860308D01*
X118082069Y-44815498D01*
X118053169Y-44796970D01*
X118005024Y-44747669D01*
X118001846Y-44715261D01*
X117973341Y-44662136D01*
X117875486Y-44605769D01*
X117843233Y-44592707D01*
X117699008Y-44521775D01*
X117554472Y-44424062D01*
X117422318Y-44312023D01*
X117315242Y-44198114D01*
X117245937Y-44094790D01*
X117227100Y-44014505D01*
X117234161Y-43995127D01*
X117228973Y-43963104D01*
X117219177Y-43961539D01*
X117199269Y-43925710D01*
X117179442Y-43831038D01*
X117164777Y-43707275D01*
X119064555Y-43707275D01*
X119074409Y-43790476D01*
X119158715Y-43853469D01*
X119204629Y-43871410D01*
X119427487Y-43916718D01*
X119634044Y-43899365D01*
X119699840Y-43877859D01*
X119795378Y-43851565D01*
X119937117Y-43826600D01*
X120083384Y-43809475D01*
X120229324Y-43793820D01*
X120314071Y-43774479D01*
X120354550Y-43745365D01*
X120366902Y-43707539D01*
X120346944Y-43637384D01*
X120260890Y-43572622D01*
X120238296Y-43561000D01*
X120091298Y-43506238D01*
X119952381Y-43501764D01*
X119788865Y-43545479D01*
X119673473Y-43574604D01*
X119576627Y-43561546D01*
X119534865Y-43545526D01*
X119364146Y-43497131D01*
X119229533Y-43515253D01*
X119127349Y-43597467D01*
X119064555Y-43707275D01*
X117164777Y-43707275D01*
X117163528Y-43696743D01*
X117161613Y-43673014D01*
X117135856Y-43472639D01*
X117094336Y-43312174D01*
X117041517Y-43202572D01*
X116981864Y-43154786D01*
X116951393Y-43157294D01*
X116859565Y-43178248D01*
X116831783Y-43180000D01*
X116801707Y-43191074D01*
X116786409Y-43234306D01*
X116783958Y-43324711D01*
X116792421Y-43477305D01*
X116792812Y-43482846D01*
X116806807Y-43642665D01*
X116823797Y-43783193D01*
X116840368Y-43876703D01*
X116842149Y-43883385D01*
X116850551Y-43929482D01*
X116831865Y-43933017D01*
X116776569Y-43889292D01*
X116690822Y-43808720D01*
X116573504Y-43680745D01*
X116504491Y-43560065D01*
X116470429Y-43444258D01*
X116436531Y-43312782D01*
X116398213Y-43201367D01*
X116382329Y-43167230D01*
X116341508Y-43079433D01*
X116292398Y-42955404D01*
X116271335Y-42896692D01*
X116236585Y-42782931D01*
X116233096Y-42725885D01*
X116257544Y-42711077D01*
X116321522Y-42737562D01*
X116332000Y-42750154D01*
X116383394Y-42781036D01*
X116460053Y-42787820D01*
X116526018Y-42771676D01*
X116546923Y-42743159D01*
X116528957Y-42640089D01*
X116518745Y-42616227D01*
X116774543Y-42616227D01*
X116774851Y-42691820D01*
X116785544Y-42718850D01*
X116842269Y-42774759D01*
X116897839Y-42760680D01*
X116928147Y-42688478D01*
X116916838Y-42594409D01*
X116898096Y-42554769D01*
X116865350Y-42535231D01*
X116937692Y-42535231D01*
X116957230Y-42554769D01*
X116976769Y-42535231D01*
X116957230Y-42515692D01*
X116937692Y-42535231D01*
X116865350Y-42535231D01*
X116850711Y-42526497D01*
X116804678Y-42554051D01*
X116774543Y-42616227D01*
X116518745Y-42616227D01*
X116484744Y-42536785D01*
X116428809Y-42460597D01*
X116384604Y-42437539D01*
X116306370Y-42422735D01*
X116199380Y-42387789D01*
X116105081Y-42346893D01*
X116083874Y-42334552D01*
X116085967Y-42295720D01*
X116092169Y-42272173D01*
X117406795Y-42272173D01*
X117421890Y-42339213D01*
X117477224Y-42378554D01*
X117583599Y-42404099D01*
X117724399Y-42418416D01*
X117869382Y-42420633D01*
X117988307Y-42409877D01*
X118038768Y-42394757D01*
X118111567Y-42375446D01*
X118183459Y-42413386D01*
X118201610Y-42429217D01*
X118325726Y-42520523D01*
X118434832Y-42546335D01*
X118548668Y-42511164D01*
X118552184Y-42509309D01*
X118671616Y-42416316D01*
X118717009Y-42302249D01*
X118711879Y-42232385D01*
X118709228Y-42148417D01*
X118746755Y-42129273D01*
X118821360Y-42174699D01*
X118896548Y-42247517D01*
X118967812Y-42318776D01*
X119012953Y-42354429D01*
X119019688Y-42354979D01*
X119085319Y-42232236D01*
X119117376Y-42147212D01*
X119119904Y-42125400D01*
X120379760Y-42125400D01*
X120405555Y-42155053D01*
X120482392Y-42147622D01*
X120505039Y-42143420D01*
X120596160Y-42132469D01*
X120639333Y-42157589D01*
X120662390Y-42235742D01*
X120663209Y-42239815D01*
X120720529Y-42350853D01*
X120828406Y-42417672D01*
X120969504Y-42434763D01*
X121126484Y-42396614D01*
X121139078Y-42391071D01*
X121233335Y-42307865D01*
X121264193Y-42228955D01*
X121283630Y-42153212D01*
X121306649Y-42145494D01*
X121337895Y-42182468D01*
X121409007Y-42231947D01*
X121488156Y-42226609D01*
X121562277Y-42195238D01*
X121587846Y-42163256D01*
X121620703Y-42132482D01*
X121668865Y-42124923D01*
X121733785Y-42106990D01*
X121736956Y-42059599D01*
X121684314Y-41992363D01*
X121581799Y-41914894D01*
X121515183Y-41876125D01*
X121375640Y-41811338D01*
X121234020Y-41771965D01*
X121057686Y-41749895D01*
X120988022Y-41745128D01*
X120824126Y-41737759D01*
X120714247Y-41741914D01*
X120634623Y-41761467D01*
X120561493Y-41800290D01*
X120532769Y-41819328D01*
X120431034Y-41909691D01*
X120387343Y-42012598D01*
X120383585Y-42040514D01*
X120379760Y-42125400D01*
X119119904Y-42125400D01*
X119125997Y-42072843D01*
X119126000Y-42071167D01*
X119093777Y-41942006D01*
X118995392Y-41847859D01*
X118828272Y-41786620D01*
X118762546Y-41774060D01*
X118600812Y-41759615D01*
X118465906Y-41768916D01*
X118374856Y-41799148D01*
X118344461Y-41843191D01*
X118310239Y-41870748D01*
X118220121Y-41912584D01*
X118092932Y-41960064D01*
X118080692Y-41964191D01*
X117938730Y-42013508D01*
X117819684Y-42058177D01*
X117749233Y-42088560D01*
X117749068Y-42088648D01*
X117664232Y-42119758D01*
X117626535Y-42124923D01*
X117519601Y-42147220D01*
X117442860Y-42202239D01*
X117406795Y-42272173D01*
X116092169Y-42272173D01*
X116108330Y-42210827D01*
X116116212Y-42186157D01*
X116153657Y-42095522D01*
X116204761Y-42056049D01*
X116299644Y-42046835D01*
X116317048Y-42046769D01*
X116454916Y-42065729D01*
X116598882Y-42112580D01*
X116625487Y-42125133D01*
X116721547Y-42168372D01*
X116760034Y-42169144D01*
X116758359Y-42149465D01*
X116763785Y-42083367D01*
X116803469Y-41988363D01*
X116816095Y-41966401D01*
X116861927Y-41876301D01*
X116877505Y-41814125D01*
X116875302Y-41806201D01*
X116872065Y-41751486D01*
X116888163Y-41654836D01*
X116894885Y-41627594D01*
X116916051Y-41514907D01*
X116935264Y-41356844D01*
X116948600Y-41186155D01*
X116949265Y-41173543D01*
X116961226Y-41025658D01*
X116978946Y-40909631D01*
X116988212Y-40880390D01*
X122150797Y-40880390D01*
X122156079Y-40935097D01*
X122195037Y-40978082D01*
X122277912Y-41024696D01*
X122319732Y-41018342D01*
X122314950Y-40968958D01*
X122293864Y-40894510D01*
X122291230Y-40871266D01*
X122263217Y-40839205D01*
X122204469Y-40841991D01*
X122152923Y-40877159D01*
X122150797Y-40880390D01*
X116988212Y-40880390D01*
X116999028Y-40846262D01*
X117003520Y-40841390D01*
X117045170Y-40785830D01*
X117066309Y-40708509D01*
X117060110Y-40645241D01*
X117043856Y-40629798D01*
X117023221Y-40591815D01*
X117037453Y-40559540D01*
X117056725Y-40491724D01*
X117069918Y-40374538D01*
X117073679Y-40268840D01*
X117074461Y-40034450D01*
X117194078Y-40034379D01*
X117289947Y-40015184D01*
X117383947Y-39948387D01*
X117448078Y-39880785D01*
X117595099Y-39752370D01*
X117815504Y-39620227D01*
X117934154Y-39561494D01*
X118178490Y-39439792D01*
X118362780Y-39331175D01*
X118501614Y-39225548D01*
X118609583Y-39112814D01*
X118640761Y-39072554D01*
X118711958Y-38965563D01*
X118726516Y-38906257D01*
X118681896Y-38885917D01*
X118588692Y-38893775D01*
X118460834Y-38896822D01*
X118308565Y-38878658D01*
X118246769Y-38865064D01*
X118063386Y-38838475D01*
X117917723Y-38869718D01*
X117804362Y-38949467D01*
X117726903Y-38987776D01*
X117652445Y-38998769D01*
X117573612Y-39022138D01*
X117464940Y-39082222D01*
X117346593Y-39163984D01*
X117238735Y-39252389D01*
X117161530Y-39332403D01*
X117134925Y-39384654D01*
X117108073Y-39420299D01*
X117023810Y-39416515D01*
X117019254Y-39415620D01*
X116904729Y-39417939D01*
X116857563Y-39450534D01*
X116790273Y-39506360D01*
X116691129Y-39564395D01*
X116682409Y-39568613D01*
X116571332Y-39656976D01*
X116467763Y-39804561D01*
X116384303Y-39992601D01*
X116371844Y-40031073D01*
X116342077Y-40083421D01*
X116310716Y-40067811D01*
X116282592Y-39994176D01*
X116262535Y-39872448D01*
X116256956Y-39794809D01*
X116263661Y-39612585D01*
X116294332Y-39408850D01*
X116342916Y-39208645D01*
X116403359Y-39037006D01*
X116468292Y-38920616D01*
X116529598Y-38830729D01*
X116604347Y-38703824D01*
X116652443Y-38613776D01*
X116733788Y-38478136D01*
X116827506Y-38356018D01*
X116882171Y-38301161D01*
X116902470Y-38281371D01*
X118306828Y-38281371D01*
X118320391Y-38356283D01*
X118371673Y-38404894D01*
X118442367Y-38405734D01*
X118480120Y-38375336D01*
X118493186Y-38303186D01*
X118471591Y-38220485D01*
X118428211Y-38159466D01*
X118389029Y-38147340D01*
X118329366Y-38193246D01*
X118306828Y-38281371D01*
X116902470Y-38281371D01*
X116999952Y-38186338D01*
X117150930Y-38013483D01*
X117327770Y-37791388D01*
X117449266Y-37628675D01*
X119772253Y-37628675D01*
X119782055Y-37671306D01*
X119834097Y-37712064D01*
X119895063Y-37729103D01*
X119916473Y-37723247D01*
X119944085Y-37672394D01*
X119946615Y-37648309D01*
X119915997Y-37605778D01*
X119849807Y-37592524D01*
X119786538Y-37612880D01*
X119772253Y-37628675D01*
X117449266Y-37628675D01*
X117500847Y-37559596D01*
X117626339Y-37409177D01*
X117703472Y-37352168D01*
X119445040Y-37352168D01*
X119462648Y-37378601D01*
X119539195Y-37374446D01*
X119542252Y-37373736D01*
X119635589Y-37343719D01*
X119690010Y-37314068D01*
X119712651Y-37270728D01*
X119674955Y-37251087D01*
X119592732Y-37261238D01*
X119570500Y-37267987D01*
X119482336Y-37310260D01*
X119445040Y-37352168D01*
X117703472Y-37352168D01*
X117745691Y-37320964D01*
X117877801Y-37283129D01*
X117948585Y-37279385D01*
X118028852Y-37261221D01*
X118138073Y-37215115D01*
X118219308Y-37171923D01*
X120229727Y-37171923D01*
X120276813Y-37214429D01*
X120340445Y-37233847D01*
X120429098Y-37257860D01*
X120472200Y-37282694D01*
X120554450Y-37316084D01*
X120646929Y-37282110D01*
X120666053Y-37252290D01*
X120623445Y-37216933D01*
X120554234Y-37185016D01*
X120423283Y-37141295D01*
X120314255Y-37124415D01*
X120244268Y-37135067D01*
X120229727Y-37171923D01*
X118219308Y-37171923D01*
X118253686Y-37153645D01*
X118353127Y-37089388D01*
X118413836Y-37034922D01*
X118422615Y-37015132D01*
X118458595Y-36966020D01*
X118556034Y-36911673D01*
X118699177Y-36858956D01*
X118872270Y-36814730D01*
X118891538Y-36810859D01*
X119245878Y-36760546D01*
X119594798Y-36746495D01*
X119924817Y-36767107D01*
%TO.C,G1*%
G36*
X89372368Y-87324233D02*
G01*
X89507948Y-87359117D01*
X89640757Y-87411419D01*
X89752248Y-87477560D01*
X89755193Y-87479815D01*
X89807474Y-87529383D01*
X89793102Y-87544365D01*
X89715299Y-87525178D01*
X89577291Y-87472239D01*
X89525230Y-87450098D01*
X89394039Y-87402724D01*
X89279171Y-87377302D01*
X89222384Y-87377054D01*
X89154830Y-87378978D01*
X89134461Y-87359924D01*
X89167077Y-87321055D01*
X89252562Y-87310352D01*
X89372368Y-87324233D01*
G37*
X89372368Y-87324233D02*
X89507948Y-87359117D01*
X89640757Y-87411419D01*
X89752248Y-87477560D01*
X89755193Y-87479815D01*
X89807474Y-87529383D01*
X89793102Y-87544365D01*
X89715299Y-87525178D01*
X89577291Y-87472239D01*
X89525230Y-87450098D01*
X89394039Y-87402724D01*
X89279171Y-87377302D01*
X89222384Y-87377054D01*
X89154830Y-87378978D01*
X89134461Y-87359924D01*
X89167077Y-87321055D01*
X89252562Y-87310352D01*
X89372368Y-87324233D01*
G36*
X89250556Y-87503429D02*
G01*
X89251692Y-87512769D01*
X89221955Y-87550711D01*
X89212615Y-87551846D01*
X89174674Y-87522110D01*
X89173538Y-87512769D01*
X89203275Y-87474828D01*
X89212615Y-87473692D01*
X89250556Y-87503429D01*
G37*
X89250556Y-87503429D02*
X89251692Y-87512769D01*
X89221955Y-87550711D01*
X89212615Y-87551846D01*
X89174674Y-87522110D01*
X89173538Y-87512769D01*
X89203275Y-87474828D01*
X89212615Y-87473692D01*
X89250556Y-87503429D01*
G36*
X86815897Y-87603949D02*
G01*
X86810533Y-87627180D01*
X86789846Y-87630000D01*
X86757681Y-87615702D01*
X86763795Y-87603949D01*
X86810170Y-87599272D01*
X86815897Y-87603949D01*
G37*
X86815897Y-87603949D02*
X86810533Y-87627180D01*
X86789846Y-87630000D01*
X86757681Y-87615702D01*
X86763795Y-87603949D01*
X86810170Y-87599272D01*
X86815897Y-87603949D01*
G36*
X90491889Y-83678533D02*
G01*
X90584791Y-83770669D01*
X90683245Y-83904059D01*
X90777846Y-84062199D01*
X90859190Y-84228586D01*
X90917871Y-84386718D01*
X90944485Y-84520091D01*
X90942844Y-84572231D01*
X90916444Y-84670937D01*
X90883494Y-84692262D01*
X90849404Y-84636058D01*
X90832823Y-84575240D01*
X90803800Y-84487198D01*
X90748559Y-84352443D01*
X90676705Y-84191397D01*
X90597841Y-84024485D01*
X90521572Y-83872126D01*
X90457501Y-83754745D01*
X90420589Y-83698660D01*
X90399337Y-83653434D01*
X90413945Y-83644154D01*
X90491889Y-83678533D01*
G37*
X90491889Y-83678533D02*
X90584791Y-83770669D01*
X90683245Y-83904059D01*
X90777846Y-84062199D01*
X90859190Y-84228586D01*
X90917871Y-84386718D01*
X90944485Y-84520091D01*
X90942844Y-84572231D01*
X90916444Y-84670937D01*
X90883494Y-84692262D01*
X90849404Y-84636058D01*
X90832823Y-84575240D01*
X90803800Y-84487198D01*
X90748559Y-84352443D01*
X90676705Y-84191397D01*
X90597841Y-84024485D01*
X90521572Y-83872126D01*
X90457501Y-83754745D01*
X90420589Y-83698660D01*
X90399337Y-83653434D01*
X90413945Y-83644154D01*
X90491889Y-83678533D01*
G36*
X90967513Y-84855539D02*
G01*
X91032511Y-84994481D01*
X91040980Y-85093461D01*
X90993971Y-85165362D01*
X90992821Y-85166323D01*
X90948278Y-85190207D01*
X90936820Y-85146475D01*
X90936822Y-85141800D01*
X90931898Y-85059922D01*
X90919059Y-84940043D01*
X90913152Y-84894616D01*
X90889071Y-84718769D01*
X90967513Y-84855539D01*
G37*
X90967513Y-84855539D02*
X91032511Y-84994481D01*
X91040980Y-85093461D01*
X90993971Y-85165362D01*
X90992821Y-85166323D01*
X90948278Y-85190207D01*
X90936820Y-85146475D01*
X90936822Y-85141800D01*
X90931898Y-85059922D01*
X90919059Y-84940043D01*
X90913152Y-84894616D01*
X90889071Y-84718769D01*
X90967513Y-84855539D01*
G36*
X84699230Y-85715231D02*
G01*
X84745224Y-85776993D01*
X84756499Y-85839221D01*
X84728393Y-85871188D01*
X84722950Y-85871539D01*
X84680670Y-85840308D01*
X84664334Y-85809727D01*
X84640900Y-85721675D01*
X84657996Y-85692558D01*
X84699230Y-85715231D01*
G37*
X84699230Y-85715231D02*
X84745224Y-85776993D01*
X84756499Y-85839221D01*
X84728393Y-85871188D01*
X84722950Y-85871539D01*
X84680670Y-85840308D01*
X84664334Y-85809727D01*
X84640900Y-85721675D01*
X84657996Y-85692558D01*
X84699230Y-85715231D01*
G36*
X84868612Y-86327449D02*
G01*
X84932823Y-86367137D01*
X84930171Y-86417217D01*
X84866986Y-86449842D01*
X84804263Y-86428861D01*
X84781381Y-86395402D01*
X84766092Y-86330651D01*
X84799681Y-86313814D01*
X84868612Y-86327449D01*
G37*
X84868612Y-86327449D02*
X84932823Y-86367137D01*
X84930171Y-86417217D01*
X84866986Y-86449842D01*
X84804263Y-86428861D01*
X84781381Y-86395402D01*
X84766092Y-86330651D01*
X84799681Y-86313814D01*
X84868612Y-86327449D01*
G36*
X84866387Y-86920035D02*
G01*
X84875610Y-86973155D01*
X84886769Y-87088656D01*
X84899706Y-87151308D01*
X84902910Y-87221418D01*
X84879634Y-87239231D01*
X84834927Y-87232214D01*
X84832035Y-87229462D01*
X84818315Y-87157637D01*
X84814686Y-87057969D01*
X84820505Y-86963851D01*
X84835127Y-86908675D01*
X84838276Y-86905670D01*
X84866387Y-86920035D01*
G37*
X84866387Y-86920035D02*
X84875610Y-86973155D01*
X84886769Y-87088656D01*
X84899706Y-87151308D01*
X84902910Y-87221418D01*
X84879634Y-87239231D01*
X84834927Y-87232214D01*
X84832035Y-87229462D01*
X84818315Y-87157637D01*
X84814686Y-87057969D01*
X84820505Y-86963851D01*
X84835127Y-86908675D01*
X84838276Y-86905670D01*
X84866387Y-86920035D01*
G36*
X90541230Y-89681539D02*
G01*
X90521692Y-89701077D01*
X90502154Y-89681539D01*
X90521692Y-89662000D01*
X90541230Y-89681539D01*
G37*
X90541230Y-89681539D02*
X90521692Y-89701077D01*
X90502154Y-89681539D01*
X90521692Y-89662000D01*
X90541230Y-89681539D01*
G36*
X88174817Y-82233107D02*
G01*
X88472457Y-82286786D01*
X88724236Y-82371932D01*
X88916675Y-82486948D01*
X88917172Y-82487355D01*
X89050265Y-82581871D01*
X89195698Y-82664207D01*
X89255976Y-82691077D01*
X89366674Y-82736243D01*
X89447761Y-82773174D01*
X89466615Y-82783608D01*
X89532673Y-82812003D01*
X89649355Y-82849527D01*
X89790946Y-82888547D01*
X89929217Y-82920909D01*
X90002615Y-82944568D01*
X90009258Y-82978243D01*
X89995705Y-82997516D01*
X89973995Y-83055532D01*
X89990177Y-83075081D01*
X90032873Y-83119269D01*
X90099715Y-83206139D01*
X90144806Y-83270605D01*
X90260541Y-83442092D01*
X90162286Y-83466752D01*
X90089130Y-83472862D01*
X90010643Y-83448899D01*
X89915055Y-83387457D01*
X89790595Y-83281129D01*
X89643595Y-83140372D01*
X89525902Y-83027878D01*
X89441710Y-82960949D01*
X89370795Y-82928390D01*
X89292934Y-82919007D01*
X89244647Y-82919520D01*
X89130151Y-82928376D01*
X89047463Y-82944514D01*
X89032342Y-82950968D01*
X88972013Y-82968467D01*
X88861430Y-82985792D01*
X88766332Y-82995543D01*
X88589659Y-83021950D01*
X88481638Y-83069206D01*
X88434578Y-83141431D01*
X88431077Y-83175231D01*
X88397014Y-83266421D01*
X88292644Y-83331562D01*
X88225271Y-83352280D01*
X88127970Y-83402864D01*
X88040086Y-83488254D01*
X88036794Y-83492781D01*
X87945960Y-83590551D01*
X87842571Y-83664909D01*
X87766207Y-83701756D01*
X87744381Y-83694853D01*
X87762270Y-83636467D01*
X87766531Y-83625242D01*
X87785445Y-83554178D01*
X87753542Y-83529447D01*
X87698813Y-83526923D01*
X87627109Y-83522794D01*
X87624394Y-83499121D01*
X87661962Y-83458539D01*
X87748425Y-83396816D01*
X87853591Y-83348385D01*
X87943411Y-83305241D01*
X87993208Y-83257490D01*
X87994246Y-83254800D01*
X87985541Y-83228740D01*
X87931535Y-83219681D01*
X87824741Y-83228251D01*
X87657673Y-83255077D01*
X87422843Y-83300786D01*
X87407394Y-83303946D01*
X87207694Y-83354612D01*
X87083157Y-83411281D01*
X87030831Y-83477472D01*
X87047763Y-83556700D01*
X87121941Y-83644099D01*
X87184646Y-83709709D01*
X87193677Y-83754253D01*
X87154957Y-83807224D01*
X87154745Y-83807458D01*
X87113607Y-83869505D01*
X87112604Y-83901784D01*
X87146747Y-83889281D01*
X87198479Y-83827981D01*
X87201525Y-83823391D01*
X87272051Y-83745717D01*
X87333888Y-83726298D01*
X87371312Y-83766741D01*
X87376000Y-83805575D01*
X87385627Y-83859794D01*
X87429319Y-83875934D01*
X87512769Y-83866647D01*
X87605243Y-83858189D01*
X87643617Y-83878930D01*
X87649538Y-83915968D01*
X87682863Y-83987315D01*
X87769968Y-84027626D01*
X87891546Y-84033549D01*
X88028291Y-84001732D01*
X88062288Y-83987623D01*
X88143451Y-83960743D01*
X88193629Y-83981455D01*
X88214962Y-84007147D01*
X88304645Y-84070352D01*
X88424725Y-84071100D01*
X88559249Y-84009858D01*
X88578120Y-83996517D01*
X88703975Y-83903468D01*
X88799095Y-83992828D01*
X88886004Y-84049910D01*
X88950528Y-84046846D01*
X88977996Y-83984880D01*
X88978154Y-83977660D01*
X89007763Y-83941035D01*
X89046944Y-83942998D01*
X89107460Y-83931032D01*
X89156664Y-83852015D01*
X89162252Y-83837750D01*
X89213460Y-83750331D01*
X89264860Y-83737170D01*
X89305304Y-83795198D01*
X89321582Y-83881625D01*
X89337365Y-84017432D01*
X89359777Y-84084643D01*
X89395234Y-84092815D01*
X89441199Y-84059781D01*
X89536845Y-84002584D01*
X89620809Y-84019383D01*
X89698847Y-84112014D01*
X89718672Y-84148345D01*
X89796471Y-84300843D01*
X89714438Y-84405132D01*
X89663786Y-84495347D01*
X89680775Y-84554339D01*
X89767539Y-84584076D01*
X89912004Y-84587234D01*
X90026013Y-84587157D01*
X90095012Y-84609799D01*
X90130439Y-84670262D01*
X90143733Y-84783648D01*
X90145947Y-84896111D01*
X90160468Y-85050891D01*
X90207598Y-85202557D01*
X90296410Y-85377768D01*
X90328173Y-85431676D01*
X90397887Y-85520985D01*
X90480487Y-85555506D01*
X90533237Y-85558676D01*
X90640274Y-85534182D01*
X90746638Y-85473000D01*
X90826354Y-85394147D01*
X90853846Y-85323932D01*
X90864232Y-85285799D01*
X90887320Y-85303165D01*
X90911001Y-85357417D01*
X90923169Y-85429942D01*
X90923187Y-85430530D01*
X90940626Y-85521158D01*
X90983222Y-85652964D01*
X91040031Y-85793385D01*
X91122574Y-85987494D01*
X91170759Y-86129567D01*
X91188258Y-86235848D01*
X91178741Y-86322578D01*
X91167492Y-86357288D01*
X91114343Y-86428983D01*
X91042268Y-86458545D01*
X90979156Y-86439053D01*
X90959712Y-86408846D01*
X90925547Y-86394796D01*
X90856703Y-86448780D01*
X90850359Y-86455310D01*
X90791445Y-86536537D01*
X90765405Y-86637766D01*
X90761774Y-86750634D01*
X90774375Y-86905224D01*
X90802638Y-87057280D01*
X90816275Y-87104708D01*
X90848081Y-87225794D01*
X90861581Y-87330791D01*
X90861191Y-87348044D01*
X90882010Y-87432393D01*
X90951276Y-87465011D01*
X91054783Y-87440886D01*
X91082894Y-87426240D01*
X91240193Y-87352529D01*
X91356221Y-87338673D01*
X91439600Y-87384369D01*
X91461714Y-87412913D01*
X91501885Y-87509898D01*
X91478317Y-87572117D01*
X91407549Y-87590923D01*
X91346437Y-87612936D01*
X91242783Y-87671480D01*
X91115897Y-87755313D01*
X91075481Y-87784229D01*
X90948168Y-87870662D01*
X90840663Y-87932040D01*
X90770899Y-87958519D01*
X90759124Y-87957887D01*
X90722066Y-87980234D01*
X90682294Y-88058187D01*
X90647227Y-88169854D01*
X90624283Y-88293345D01*
X90619384Y-88370227D01*
X90643191Y-88431312D01*
X90704736Y-88441979D01*
X90789204Y-88409657D01*
X90881780Y-88341776D01*
X90967648Y-88245763D01*
X91012072Y-88173316D01*
X91100042Y-88048655D01*
X91225121Y-87962347D01*
X91404690Y-87903640D01*
X91469833Y-87890170D01*
X91555257Y-87878454D01*
X91583213Y-87898847D01*
X91572581Y-87966753D01*
X91571098Y-87972795D01*
X91525607Y-88137660D01*
X91463246Y-88337040D01*
X91390728Y-88552103D01*
X91314767Y-88764014D01*
X91242075Y-88953942D01*
X91179365Y-89103053D01*
X91140400Y-89181144D01*
X91008481Y-89342709D01*
X90842792Y-89447529D01*
X90659622Y-89486868D01*
X90580307Y-89481594D01*
X90490921Y-89474459D01*
X90434870Y-89500034D01*
X90383955Y-89575174D01*
X90365384Y-89610058D01*
X90154504Y-89956216D01*
X89915407Y-90245787D01*
X89879854Y-90281344D01*
X89776432Y-90376144D01*
X89701159Y-90423867D01*
X89630441Y-90436003D01*
X89574519Y-90430056D01*
X89428324Y-90367776D01*
X89307943Y-90236167D01*
X89252750Y-90130718D01*
X89201011Y-90056020D01*
X89118169Y-89976372D01*
X89029076Y-89911879D01*
X88958582Y-89882648D01*
X88946828Y-89883195D01*
X88900567Y-89886678D01*
X88789584Y-89892381D01*
X88627257Y-89899696D01*
X88426966Y-89908011D01*
X88255230Y-89914715D01*
X88029493Y-89924294D01*
X87826319Y-89934782D01*
X87660625Y-89945265D01*
X87547332Y-89954827D01*
X87506472Y-89960654D01*
X87421821Y-89957559D01*
X87303620Y-89926098D01*
X87244369Y-89902760D01*
X87071383Y-89849833D01*
X86937023Y-89859223D01*
X86845855Y-89930019D01*
X86818005Y-89987829D01*
X86808800Y-90103423D01*
X86861622Y-90181753D01*
X86961782Y-90209077D01*
X87057092Y-90231247D01*
X87137178Y-90272944D01*
X87245828Y-90314032D01*
X87418905Y-90335091D01*
X87645138Y-90335537D01*
X87913257Y-90314785D01*
X87923077Y-90313689D01*
X88065292Y-90297903D01*
X88250547Y-90277683D01*
X88444158Y-90256808D01*
X88489692Y-90251941D01*
X88656897Y-90232328D01*
X88801901Y-90212112D01*
X88901553Y-90194641D01*
X88923597Y-90189152D01*
X88983897Y-90187443D01*
X89047459Y-90229774D01*
X89131586Y-90327891D01*
X89135525Y-90333013D01*
X89217317Y-90435801D01*
X89285951Y-90515396D01*
X89313041Y-90542584D01*
X89359095Y-90604244D01*
X89409494Y-90702555D01*
X89416191Y-90718430D01*
X89446385Y-90830157D01*
X89430784Y-90927745D01*
X89361915Y-91026204D01*
X89232308Y-91140543D01*
X89189809Y-91173165D01*
X89047244Y-91284250D01*
X88897060Y-91406684D01*
X88826113Y-91466916D01*
X88654535Y-91615846D01*
X88180765Y-91615846D01*
X87969454Y-91613992D01*
X87818212Y-91606863D01*
X87709011Y-91592112D01*
X87623821Y-91567393D01*
X87551267Y-91533888D01*
X87354609Y-91416512D01*
X87161480Y-91276610D01*
X86983617Y-91125418D01*
X86832757Y-90974171D01*
X86720637Y-90834104D01*
X86658993Y-90716451D01*
X86650792Y-90671915D01*
X86615283Y-90568807D01*
X87582300Y-90568807D01*
X87608171Y-90631068D01*
X87682722Y-90694500D01*
X87792158Y-90751173D01*
X87922678Y-90793159D01*
X88060488Y-90812526D01*
X88132559Y-90810837D01*
X88261310Y-90792404D01*
X88366619Y-90766086D01*
X88396329Y-90753837D01*
X88458420Y-90688273D01*
X88462321Y-90609794D01*
X88409190Y-90548698D01*
X88388140Y-90540006D01*
X88298286Y-90529283D01*
X88174989Y-90534505D01*
X88137605Y-90539247D01*
X88017479Y-90547166D01*
X87949500Y-90529947D01*
X87943774Y-90523567D01*
X87888467Y-90495008D01*
X87791734Y-90484229D01*
X87688445Y-90492079D01*
X87618907Y-90515646D01*
X87582300Y-90568807D01*
X86615283Y-90568807D01*
X86612524Y-90560796D01*
X86514008Y-90459625D01*
X86386831Y-90391851D01*
X86339458Y-90354077D01*
X86340461Y-90326308D01*
X86332069Y-90281498D01*
X86303169Y-90262970D01*
X86255024Y-90213669D01*
X86251846Y-90181261D01*
X86223341Y-90128136D01*
X86125486Y-90071769D01*
X86093233Y-90058707D01*
X85949008Y-89987775D01*
X85804472Y-89890062D01*
X85672318Y-89778023D01*
X85565242Y-89664114D01*
X85495937Y-89560790D01*
X85477100Y-89480505D01*
X85484161Y-89461127D01*
X85478973Y-89429104D01*
X85469177Y-89427539D01*
X85449269Y-89391710D01*
X85429442Y-89297038D01*
X85414777Y-89173275D01*
X87314555Y-89173275D01*
X87324409Y-89256476D01*
X87408715Y-89319469D01*
X87454629Y-89337410D01*
X87677487Y-89382718D01*
X87884044Y-89365365D01*
X87949840Y-89343859D01*
X88045378Y-89317565D01*
X88187117Y-89292600D01*
X88333384Y-89275475D01*
X88479324Y-89259820D01*
X88564071Y-89240479D01*
X88604550Y-89211365D01*
X88616902Y-89173539D01*
X88596944Y-89103384D01*
X88510890Y-89038622D01*
X88488296Y-89027000D01*
X88341298Y-88972238D01*
X88202381Y-88967764D01*
X88038865Y-89011479D01*
X87923473Y-89040604D01*
X87826627Y-89027546D01*
X87784865Y-89011526D01*
X87614146Y-88963131D01*
X87479533Y-88981253D01*
X87377349Y-89063467D01*
X87314555Y-89173275D01*
X85414777Y-89173275D01*
X85413528Y-89162743D01*
X85411613Y-89139014D01*
X85385856Y-88938639D01*
X85344336Y-88778174D01*
X85291517Y-88668572D01*
X85231864Y-88620786D01*
X85201393Y-88623294D01*
X85109565Y-88644248D01*
X85081783Y-88646000D01*
X85051707Y-88657074D01*
X85036409Y-88700306D01*
X85033958Y-88790711D01*
X85042421Y-88943305D01*
X85042812Y-88948846D01*
X85056807Y-89108665D01*
X85073797Y-89249193D01*
X85090368Y-89342703D01*
X85092149Y-89349385D01*
X85100551Y-89395482D01*
X85081865Y-89399017D01*
X85026569Y-89355292D01*
X84940822Y-89274720D01*
X84823504Y-89146745D01*
X84754491Y-89026065D01*
X84720429Y-88910258D01*
X84686531Y-88778782D01*
X84648213Y-88667367D01*
X84632329Y-88633230D01*
X84591508Y-88545433D01*
X84542398Y-88421404D01*
X84521335Y-88362692D01*
X84486585Y-88248931D01*
X84483096Y-88191885D01*
X84507544Y-88177077D01*
X84571522Y-88203562D01*
X84582000Y-88216154D01*
X84633394Y-88247036D01*
X84710053Y-88253820D01*
X84776018Y-88237676D01*
X84796923Y-88209159D01*
X84778957Y-88106089D01*
X84768745Y-88082227D01*
X85024543Y-88082227D01*
X85024851Y-88157820D01*
X85035544Y-88184850D01*
X85092269Y-88240759D01*
X85147839Y-88226680D01*
X85178147Y-88154478D01*
X85166838Y-88060409D01*
X85148096Y-88020769D01*
X85115350Y-88001231D01*
X85187692Y-88001231D01*
X85207230Y-88020769D01*
X85226769Y-88001231D01*
X85207230Y-87981692D01*
X85187692Y-88001231D01*
X85115350Y-88001231D01*
X85100711Y-87992497D01*
X85054678Y-88020051D01*
X85024543Y-88082227D01*
X84768745Y-88082227D01*
X84734744Y-88002785D01*
X84678809Y-87926597D01*
X84634604Y-87903539D01*
X84556370Y-87888735D01*
X84449380Y-87853789D01*
X84355081Y-87812893D01*
X84333874Y-87800552D01*
X84335967Y-87761720D01*
X84342169Y-87738173D01*
X85656795Y-87738173D01*
X85671890Y-87805213D01*
X85727224Y-87844554D01*
X85833599Y-87870099D01*
X85974399Y-87884416D01*
X86119382Y-87886633D01*
X86238307Y-87875877D01*
X86288768Y-87860757D01*
X86361567Y-87841446D01*
X86433459Y-87879386D01*
X86451610Y-87895217D01*
X86575726Y-87986523D01*
X86684832Y-88012335D01*
X86798668Y-87977164D01*
X86802184Y-87975309D01*
X86921616Y-87882316D01*
X86967009Y-87768249D01*
X86961879Y-87698385D01*
X86959228Y-87614417D01*
X86996755Y-87595273D01*
X87071360Y-87640699D01*
X87146548Y-87713517D01*
X87217812Y-87784776D01*
X87262953Y-87820429D01*
X87269688Y-87820979D01*
X87335319Y-87698236D01*
X87367376Y-87613212D01*
X87369904Y-87591400D01*
X88629760Y-87591400D01*
X88655555Y-87621053D01*
X88732392Y-87613622D01*
X88755039Y-87609420D01*
X88846160Y-87598469D01*
X88889333Y-87623589D01*
X88912390Y-87701742D01*
X88913209Y-87705815D01*
X88970529Y-87816853D01*
X89078406Y-87883672D01*
X89219504Y-87900763D01*
X89376484Y-87862614D01*
X89389078Y-87857071D01*
X89483335Y-87773865D01*
X89514193Y-87694955D01*
X89533630Y-87619212D01*
X89556649Y-87611494D01*
X89587895Y-87648468D01*
X89659007Y-87697947D01*
X89738156Y-87692609D01*
X89812277Y-87661238D01*
X89837846Y-87629256D01*
X89870703Y-87598482D01*
X89918865Y-87590923D01*
X89983785Y-87572990D01*
X89986956Y-87525599D01*
X89934314Y-87458363D01*
X89831799Y-87380894D01*
X89765183Y-87342125D01*
X89625640Y-87277338D01*
X89484020Y-87237965D01*
X89307686Y-87215895D01*
X89238022Y-87211128D01*
X89074126Y-87203759D01*
X88964247Y-87207914D01*
X88884623Y-87227467D01*
X88811493Y-87266290D01*
X88782769Y-87285328D01*
X88681034Y-87375691D01*
X88637343Y-87478598D01*
X88633585Y-87506514D01*
X88629760Y-87591400D01*
X87369904Y-87591400D01*
X87375997Y-87538843D01*
X87376000Y-87537167D01*
X87343777Y-87408006D01*
X87245392Y-87313859D01*
X87078272Y-87252620D01*
X87012546Y-87240060D01*
X86850812Y-87225615D01*
X86715906Y-87234916D01*
X86624856Y-87265148D01*
X86594461Y-87309191D01*
X86560239Y-87336748D01*
X86470121Y-87378584D01*
X86342932Y-87426064D01*
X86330692Y-87430191D01*
X86188730Y-87479508D01*
X86069684Y-87524177D01*
X85999233Y-87554560D01*
X85999068Y-87554648D01*
X85914232Y-87585758D01*
X85876535Y-87590923D01*
X85769601Y-87613220D01*
X85692860Y-87668239D01*
X85656795Y-87738173D01*
X84342169Y-87738173D01*
X84358330Y-87676827D01*
X84366212Y-87652157D01*
X84403657Y-87561522D01*
X84454761Y-87522049D01*
X84549644Y-87512835D01*
X84567048Y-87512769D01*
X84704916Y-87531729D01*
X84848882Y-87578580D01*
X84875487Y-87591133D01*
X84971547Y-87634372D01*
X85010034Y-87635144D01*
X85008359Y-87615465D01*
X85013785Y-87549367D01*
X85053469Y-87454363D01*
X85066095Y-87432401D01*
X85111927Y-87342301D01*
X85127505Y-87280125D01*
X85125302Y-87272201D01*
X85122065Y-87217486D01*
X85138163Y-87120836D01*
X85144885Y-87093594D01*
X85166051Y-86980907D01*
X85185264Y-86822844D01*
X85198600Y-86652155D01*
X85199265Y-86639543D01*
X85211226Y-86491658D01*
X85228946Y-86375631D01*
X85238212Y-86346390D01*
X90400797Y-86346390D01*
X90406079Y-86401097D01*
X90445037Y-86444082D01*
X90527912Y-86490696D01*
X90569732Y-86484342D01*
X90564950Y-86434958D01*
X90543864Y-86360510D01*
X90541230Y-86337266D01*
X90513217Y-86305205D01*
X90454469Y-86307991D01*
X90402923Y-86343159D01*
X90400797Y-86346390D01*
X85238212Y-86346390D01*
X85249028Y-86312262D01*
X85253520Y-86307390D01*
X85295170Y-86251830D01*
X85316309Y-86174509D01*
X85310110Y-86111241D01*
X85293856Y-86095798D01*
X85273221Y-86057815D01*
X85287453Y-86025540D01*
X85306725Y-85957724D01*
X85319918Y-85840538D01*
X85323679Y-85734840D01*
X85324461Y-85500450D01*
X85444078Y-85500379D01*
X85539947Y-85481184D01*
X85633947Y-85414387D01*
X85698078Y-85346785D01*
X85845099Y-85218370D01*
X86065504Y-85086227D01*
X86184154Y-85027494D01*
X86428490Y-84905792D01*
X86612780Y-84797175D01*
X86751614Y-84691548D01*
X86859583Y-84578814D01*
X86890761Y-84538554D01*
X86961958Y-84431563D01*
X86976516Y-84372257D01*
X86931896Y-84351917D01*
X86838692Y-84359775D01*
X86710834Y-84362822D01*
X86558565Y-84344658D01*
X86496769Y-84331064D01*
X86313386Y-84304475D01*
X86167723Y-84335718D01*
X86054362Y-84415467D01*
X85976903Y-84453776D01*
X85902445Y-84464769D01*
X85823612Y-84488138D01*
X85714940Y-84548222D01*
X85596593Y-84629984D01*
X85488735Y-84718389D01*
X85411530Y-84798403D01*
X85384925Y-84850654D01*
X85358073Y-84886299D01*
X85273810Y-84882515D01*
X85269254Y-84881620D01*
X85154729Y-84883939D01*
X85107563Y-84916534D01*
X85040273Y-84972360D01*
X84941129Y-85030395D01*
X84932409Y-85034613D01*
X84821332Y-85122976D01*
X84717763Y-85270561D01*
X84634303Y-85458601D01*
X84621844Y-85497073D01*
X84592077Y-85549421D01*
X84560716Y-85533811D01*
X84532592Y-85460176D01*
X84512535Y-85338448D01*
X84506956Y-85260809D01*
X84513661Y-85078585D01*
X84544332Y-84874850D01*
X84592916Y-84674645D01*
X84653359Y-84503006D01*
X84718292Y-84386616D01*
X84779598Y-84296729D01*
X84854347Y-84169824D01*
X84902443Y-84079776D01*
X84983788Y-83944136D01*
X85077506Y-83822018D01*
X85132171Y-83767161D01*
X85152470Y-83747371D01*
X86556828Y-83747371D01*
X86570391Y-83822283D01*
X86621673Y-83870894D01*
X86692367Y-83871734D01*
X86730120Y-83841336D01*
X86743186Y-83769186D01*
X86721591Y-83686485D01*
X86678211Y-83625466D01*
X86639029Y-83613340D01*
X86579366Y-83659246D01*
X86556828Y-83747371D01*
X85152470Y-83747371D01*
X85249952Y-83652338D01*
X85400930Y-83479483D01*
X85577770Y-83257388D01*
X85699266Y-83094675D01*
X88022253Y-83094675D01*
X88032055Y-83137306D01*
X88084097Y-83178064D01*
X88145063Y-83195103D01*
X88166473Y-83189247D01*
X88194085Y-83138394D01*
X88196615Y-83114309D01*
X88165997Y-83071778D01*
X88099807Y-83058524D01*
X88036538Y-83078880D01*
X88022253Y-83094675D01*
X85699266Y-83094675D01*
X85750847Y-83025596D01*
X85876339Y-82875177D01*
X85953472Y-82818168D01*
X87695040Y-82818168D01*
X87712648Y-82844601D01*
X87789195Y-82840446D01*
X87792252Y-82839736D01*
X87885589Y-82809719D01*
X87940010Y-82780068D01*
X87962651Y-82736728D01*
X87924955Y-82717087D01*
X87842732Y-82727238D01*
X87820500Y-82733987D01*
X87732336Y-82776260D01*
X87695040Y-82818168D01*
X85953472Y-82818168D01*
X85995691Y-82786964D01*
X86127801Y-82749129D01*
X86198585Y-82745385D01*
X86278852Y-82727221D01*
X86388073Y-82681115D01*
X86469308Y-82637923D01*
X88479727Y-82637923D01*
X88526813Y-82680429D01*
X88590445Y-82699847D01*
X88679098Y-82723860D01*
X88722200Y-82748694D01*
X88804450Y-82782084D01*
X88896929Y-82748110D01*
X88916053Y-82718290D01*
X88873445Y-82682933D01*
X88804234Y-82651016D01*
X88673283Y-82607295D01*
X88564255Y-82590415D01*
X88494268Y-82601067D01*
X88479727Y-82637923D01*
X86469308Y-82637923D01*
X86503686Y-82619645D01*
X86603127Y-82555388D01*
X86663836Y-82500922D01*
X86672615Y-82481132D01*
X86708595Y-82432020D01*
X86806034Y-82377673D01*
X86949177Y-82324956D01*
X87122270Y-82280730D01*
X87141538Y-82276859D01*
X87495878Y-82226546D01*
X87844798Y-82212495D01*
X88174817Y-82233107D01*
G37*
X88174817Y-82233107D02*
X88472457Y-82286786D01*
X88724236Y-82371932D01*
X88916675Y-82486948D01*
X88917172Y-82487355D01*
X89050265Y-82581871D01*
X89195698Y-82664207D01*
X89255976Y-82691077D01*
X89366674Y-82736243D01*
X89447761Y-82773174D01*
X89466615Y-82783608D01*
X89532673Y-82812003D01*
X89649355Y-82849527D01*
X89790946Y-82888547D01*
X89929217Y-82920909D01*
X90002615Y-82944568D01*
X90009258Y-82978243D01*
X89995705Y-82997516D01*
X89973995Y-83055532D01*
X89990177Y-83075081D01*
X90032873Y-83119269D01*
X90099715Y-83206139D01*
X90144806Y-83270605D01*
X90260541Y-83442092D01*
X90162286Y-83466752D01*
X90089130Y-83472862D01*
X90010643Y-83448899D01*
X89915055Y-83387457D01*
X89790595Y-83281129D01*
X89643595Y-83140372D01*
X89525902Y-83027878D01*
X89441710Y-82960949D01*
X89370795Y-82928390D01*
X89292934Y-82919007D01*
X89244647Y-82919520D01*
X89130151Y-82928376D01*
X89047463Y-82944514D01*
X89032342Y-82950968D01*
X88972013Y-82968467D01*
X88861430Y-82985792D01*
X88766332Y-82995543D01*
X88589659Y-83021950D01*
X88481638Y-83069206D01*
X88434578Y-83141431D01*
X88431077Y-83175231D01*
X88397014Y-83266421D01*
X88292644Y-83331562D01*
X88225271Y-83352280D01*
X88127970Y-83402864D01*
X88040086Y-83488254D01*
X88036794Y-83492781D01*
X87945960Y-83590551D01*
X87842571Y-83664909D01*
X87766207Y-83701756D01*
X87744381Y-83694853D01*
X87762270Y-83636467D01*
X87766531Y-83625242D01*
X87785445Y-83554178D01*
X87753542Y-83529447D01*
X87698813Y-83526923D01*
X87627109Y-83522794D01*
X87624394Y-83499121D01*
X87661962Y-83458539D01*
X87748425Y-83396816D01*
X87853591Y-83348385D01*
X87943411Y-83305241D01*
X87993208Y-83257490D01*
X87994246Y-83254800D01*
X87985541Y-83228740D01*
X87931535Y-83219681D01*
X87824741Y-83228251D01*
X87657673Y-83255077D01*
X87422843Y-83300786D01*
X87407394Y-83303946D01*
X87207694Y-83354612D01*
X87083157Y-83411281D01*
X87030831Y-83477472D01*
X87047763Y-83556700D01*
X87121941Y-83644099D01*
X87184646Y-83709709D01*
X87193677Y-83754253D01*
X87154957Y-83807224D01*
X87154745Y-83807458D01*
X87113607Y-83869505D01*
X87112604Y-83901784D01*
X87146747Y-83889281D01*
X87198479Y-83827981D01*
X87201525Y-83823391D01*
X87272051Y-83745717D01*
X87333888Y-83726298D01*
X87371312Y-83766741D01*
X87376000Y-83805575D01*
X87385627Y-83859794D01*
X87429319Y-83875934D01*
X87512769Y-83866647D01*
X87605243Y-83858189D01*
X87643617Y-83878930D01*
X87649538Y-83915968D01*
X87682863Y-83987315D01*
X87769968Y-84027626D01*
X87891546Y-84033549D01*
X88028291Y-84001732D01*
X88062288Y-83987623D01*
X88143451Y-83960743D01*
X88193629Y-83981455D01*
X88214962Y-84007147D01*
X88304645Y-84070352D01*
X88424725Y-84071100D01*
X88559249Y-84009858D01*
X88578120Y-83996517D01*
X88703975Y-83903468D01*
X88799095Y-83992828D01*
X88886004Y-84049910D01*
X88950528Y-84046846D01*
X88977996Y-83984880D01*
X88978154Y-83977660D01*
X89007763Y-83941035D01*
X89046944Y-83942998D01*
X89107460Y-83931032D01*
X89156664Y-83852015D01*
X89162252Y-83837750D01*
X89213460Y-83750331D01*
X89264860Y-83737170D01*
X89305304Y-83795198D01*
X89321582Y-83881625D01*
X89337365Y-84017432D01*
X89359777Y-84084643D01*
X89395234Y-84092815D01*
X89441199Y-84059781D01*
X89536845Y-84002584D01*
X89620809Y-84019383D01*
X89698847Y-84112014D01*
X89718672Y-84148345D01*
X89796471Y-84300843D01*
X89714438Y-84405132D01*
X89663786Y-84495347D01*
X89680775Y-84554339D01*
X89767539Y-84584076D01*
X89912004Y-84587234D01*
X90026013Y-84587157D01*
X90095012Y-84609799D01*
X90130439Y-84670262D01*
X90143733Y-84783648D01*
X90145947Y-84896111D01*
X90160468Y-85050891D01*
X90207598Y-85202557D01*
X90296410Y-85377768D01*
X90328173Y-85431676D01*
X90397887Y-85520985D01*
X90480487Y-85555506D01*
X90533237Y-85558676D01*
X90640274Y-85534182D01*
X90746638Y-85473000D01*
X90826354Y-85394147D01*
X90853846Y-85323932D01*
X90864232Y-85285799D01*
X90887320Y-85303165D01*
X90911001Y-85357417D01*
X90923169Y-85429942D01*
X90923187Y-85430530D01*
X90940626Y-85521158D01*
X90983222Y-85652964D01*
X91040031Y-85793385D01*
X91122574Y-85987494D01*
X91170759Y-86129567D01*
X91188258Y-86235848D01*
X91178741Y-86322578D01*
X91167492Y-86357288D01*
X91114343Y-86428983D01*
X91042268Y-86458545D01*
X90979156Y-86439053D01*
X90959712Y-86408846D01*
X90925547Y-86394796D01*
X90856703Y-86448780D01*
X90850359Y-86455310D01*
X90791445Y-86536537D01*
X90765405Y-86637766D01*
X90761774Y-86750634D01*
X90774375Y-86905224D01*
X90802638Y-87057280D01*
X90816275Y-87104708D01*
X90848081Y-87225794D01*
X90861581Y-87330791D01*
X90861191Y-87348044D01*
X90882010Y-87432393D01*
X90951276Y-87465011D01*
X91054783Y-87440886D01*
X91082894Y-87426240D01*
X91240193Y-87352529D01*
X91356221Y-87338673D01*
X91439600Y-87384369D01*
X91461714Y-87412913D01*
X91501885Y-87509898D01*
X91478317Y-87572117D01*
X91407549Y-87590923D01*
X91346437Y-87612936D01*
X91242783Y-87671480D01*
X91115897Y-87755313D01*
X91075481Y-87784229D01*
X90948168Y-87870662D01*
X90840663Y-87932040D01*
X90770899Y-87958519D01*
X90759124Y-87957887D01*
X90722066Y-87980234D01*
X90682294Y-88058187D01*
X90647227Y-88169854D01*
X90624283Y-88293345D01*
X90619384Y-88370227D01*
X90643191Y-88431312D01*
X90704736Y-88441979D01*
X90789204Y-88409657D01*
X90881780Y-88341776D01*
X90967648Y-88245763D01*
X91012072Y-88173316D01*
X91100042Y-88048655D01*
X91225121Y-87962347D01*
X91404690Y-87903640D01*
X91469833Y-87890170D01*
X91555257Y-87878454D01*
X91583213Y-87898847D01*
X91572581Y-87966753D01*
X91571098Y-87972795D01*
X91525607Y-88137660D01*
X91463246Y-88337040D01*
X91390728Y-88552103D01*
X91314767Y-88764014D01*
X91242075Y-88953942D01*
X91179365Y-89103053D01*
X91140400Y-89181144D01*
X91008481Y-89342709D01*
X90842792Y-89447529D01*
X90659622Y-89486868D01*
X90580307Y-89481594D01*
X90490921Y-89474459D01*
X90434870Y-89500034D01*
X90383955Y-89575174D01*
X90365384Y-89610058D01*
X90154504Y-89956216D01*
X89915407Y-90245787D01*
X89879854Y-90281344D01*
X89776432Y-90376144D01*
X89701159Y-90423867D01*
X89630441Y-90436003D01*
X89574519Y-90430056D01*
X89428324Y-90367776D01*
X89307943Y-90236167D01*
X89252750Y-90130718D01*
X89201011Y-90056020D01*
X89118169Y-89976372D01*
X89029076Y-89911879D01*
X88958582Y-89882648D01*
X88946828Y-89883195D01*
X88900567Y-89886678D01*
X88789584Y-89892381D01*
X88627257Y-89899696D01*
X88426966Y-89908011D01*
X88255230Y-89914715D01*
X88029493Y-89924294D01*
X87826319Y-89934782D01*
X87660625Y-89945265D01*
X87547332Y-89954827D01*
X87506472Y-89960654D01*
X87421821Y-89957559D01*
X87303620Y-89926098D01*
X87244369Y-89902760D01*
X87071383Y-89849833D01*
X86937023Y-89859223D01*
X86845855Y-89930019D01*
X86818005Y-89987829D01*
X86808800Y-90103423D01*
X86861622Y-90181753D01*
X86961782Y-90209077D01*
X87057092Y-90231247D01*
X87137178Y-90272944D01*
X87245828Y-90314032D01*
X87418905Y-90335091D01*
X87645138Y-90335537D01*
X87913257Y-90314785D01*
X87923077Y-90313689D01*
X88065292Y-90297903D01*
X88250547Y-90277683D01*
X88444158Y-90256808D01*
X88489692Y-90251941D01*
X88656897Y-90232328D01*
X88801901Y-90212112D01*
X88901553Y-90194641D01*
X88923597Y-90189152D01*
X88983897Y-90187443D01*
X89047459Y-90229774D01*
X89131586Y-90327891D01*
X89135525Y-90333013D01*
X89217317Y-90435801D01*
X89285951Y-90515396D01*
X89313041Y-90542584D01*
X89359095Y-90604244D01*
X89409494Y-90702555D01*
X89416191Y-90718430D01*
X89446385Y-90830157D01*
X89430784Y-90927745D01*
X89361915Y-91026204D01*
X89232308Y-91140543D01*
X89189809Y-91173165D01*
X89047244Y-91284250D01*
X88897060Y-91406684D01*
X88826113Y-91466916D01*
X88654535Y-91615846D01*
X88180765Y-91615846D01*
X87969454Y-91613992D01*
X87818212Y-91606863D01*
X87709011Y-91592112D01*
X87623821Y-91567393D01*
X87551267Y-91533888D01*
X87354609Y-91416512D01*
X87161480Y-91276610D01*
X86983617Y-91125418D01*
X86832757Y-90974171D01*
X86720637Y-90834104D01*
X86658993Y-90716451D01*
X86650792Y-90671915D01*
X86615283Y-90568807D01*
X87582300Y-90568807D01*
X87608171Y-90631068D01*
X87682722Y-90694500D01*
X87792158Y-90751173D01*
X87922678Y-90793159D01*
X88060488Y-90812526D01*
X88132559Y-90810837D01*
X88261310Y-90792404D01*
X88366619Y-90766086D01*
X88396329Y-90753837D01*
X88458420Y-90688273D01*
X88462321Y-90609794D01*
X88409190Y-90548698D01*
X88388140Y-90540006D01*
X88298286Y-90529283D01*
X88174989Y-90534505D01*
X88137605Y-90539247D01*
X88017479Y-90547166D01*
X87949500Y-90529947D01*
X87943774Y-90523567D01*
X87888467Y-90495008D01*
X87791734Y-90484229D01*
X87688445Y-90492079D01*
X87618907Y-90515646D01*
X87582300Y-90568807D01*
X86615283Y-90568807D01*
X86612524Y-90560796D01*
X86514008Y-90459625D01*
X86386831Y-90391851D01*
X86339458Y-90354077D01*
X86340461Y-90326308D01*
X86332069Y-90281498D01*
X86303169Y-90262970D01*
X86255024Y-90213669D01*
X86251846Y-90181261D01*
X86223341Y-90128136D01*
X86125486Y-90071769D01*
X86093233Y-90058707D01*
X85949008Y-89987775D01*
X85804472Y-89890062D01*
X85672318Y-89778023D01*
X85565242Y-89664114D01*
X85495937Y-89560790D01*
X85477100Y-89480505D01*
X85484161Y-89461127D01*
X85478973Y-89429104D01*
X85469177Y-89427539D01*
X85449269Y-89391710D01*
X85429442Y-89297038D01*
X85414777Y-89173275D01*
X87314555Y-89173275D01*
X87324409Y-89256476D01*
X87408715Y-89319469D01*
X87454629Y-89337410D01*
X87677487Y-89382718D01*
X87884044Y-89365365D01*
X87949840Y-89343859D01*
X88045378Y-89317565D01*
X88187117Y-89292600D01*
X88333384Y-89275475D01*
X88479324Y-89259820D01*
X88564071Y-89240479D01*
X88604550Y-89211365D01*
X88616902Y-89173539D01*
X88596944Y-89103384D01*
X88510890Y-89038622D01*
X88488296Y-89027000D01*
X88341298Y-88972238D01*
X88202381Y-88967764D01*
X88038865Y-89011479D01*
X87923473Y-89040604D01*
X87826627Y-89027546D01*
X87784865Y-89011526D01*
X87614146Y-88963131D01*
X87479533Y-88981253D01*
X87377349Y-89063467D01*
X87314555Y-89173275D01*
X85414777Y-89173275D01*
X85413528Y-89162743D01*
X85411613Y-89139014D01*
X85385856Y-88938639D01*
X85344336Y-88778174D01*
X85291517Y-88668572D01*
X85231864Y-88620786D01*
X85201393Y-88623294D01*
X85109565Y-88644248D01*
X85081783Y-88646000D01*
X85051707Y-88657074D01*
X85036409Y-88700306D01*
X85033958Y-88790711D01*
X85042421Y-88943305D01*
X85042812Y-88948846D01*
X85056807Y-89108665D01*
X85073797Y-89249193D01*
X85090368Y-89342703D01*
X85092149Y-89349385D01*
X85100551Y-89395482D01*
X85081865Y-89399017D01*
X85026569Y-89355292D01*
X84940822Y-89274720D01*
X84823504Y-89146745D01*
X84754491Y-89026065D01*
X84720429Y-88910258D01*
X84686531Y-88778782D01*
X84648213Y-88667367D01*
X84632329Y-88633230D01*
X84591508Y-88545433D01*
X84542398Y-88421404D01*
X84521335Y-88362692D01*
X84486585Y-88248931D01*
X84483096Y-88191885D01*
X84507544Y-88177077D01*
X84571522Y-88203562D01*
X84582000Y-88216154D01*
X84633394Y-88247036D01*
X84710053Y-88253820D01*
X84776018Y-88237676D01*
X84796923Y-88209159D01*
X84778957Y-88106089D01*
X84768745Y-88082227D01*
X85024543Y-88082227D01*
X85024851Y-88157820D01*
X85035544Y-88184850D01*
X85092269Y-88240759D01*
X85147839Y-88226680D01*
X85178147Y-88154478D01*
X85166838Y-88060409D01*
X85148096Y-88020769D01*
X85115350Y-88001231D01*
X85187692Y-88001231D01*
X85207230Y-88020769D01*
X85226769Y-88001231D01*
X85207230Y-87981692D01*
X85187692Y-88001231D01*
X85115350Y-88001231D01*
X85100711Y-87992497D01*
X85054678Y-88020051D01*
X85024543Y-88082227D01*
X84768745Y-88082227D01*
X84734744Y-88002785D01*
X84678809Y-87926597D01*
X84634604Y-87903539D01*
X84556370Y-87888735D01*
X84449380Y-87853789D01*
X84355081Y-87812893D01*
X84333874Y-87800552D01*
X84335967Y-87761720D01*
X84342169Y-87738173D01*
X85656795Y-87738173D01*
X85671890Y-87805213D01*
X85727224Y-87844554D01*
X85833599Y-87870099D01*
X85974399Y-87884416D01*
X86119382Y-87886633D01*
X86238307Y-87875877D01*
X86288768Y-87860757D01*
X86361567Y-87841446D01*
X86433459Y-87879386D01*
X86451610Y-87895217D01*
X86575726Y-87986523D01*
X86684832Y-88012335D01*
X86798668Y-87977164D01*
X86802184Y-87975309D01*
X86921616Y-87882316D01*
X86967009Y-87768249D01*
X86961879Y-87698385D01*
X86959228Y-87614417D01*
X86996755Y-87595273D01*
X87071360Y-87640699D01*
X87146548Y-87713517D01*
X87217812Y-87784776D01*
X87262953Y-87820429D01*
X87269688Y-87820979D01*
X87335319Y-87698236D01*
X87367376Y-87613212D01*
X87369904Y-87591400D01*
X88629760Y-87591400D01*
X88655555Y-87621053D01*
X88732392Y-87613622D01*
X88755039Y-87609420D01*
X88846160Y-87598469D01*
X88889333Y-87623589D01*
X88912390Y-87701742D01*
X88913209Y-87705815D01*
X88970529Y-87816853D01*
X89078406Y-87883672D01*
X89219504Y-87900763D01*
X89376484Y-87862614D01*
X89389078Y-87857071D01*
X89483335Y-87773865D01*
X89514193Y-87694955D01*
X89533630Y-87619212D01*
X89556649Y-87611494D01*
X89587895Y-87648468D01*
X89659007Y-87697947D01*
X89738156Y-87692609D01*
X89812277Y-87661238D01*
X89837846Y-87629256D01*
X89870703Y-87598482D01*
X89918865Y-87590923D01*
X89983785Y-87572990D01*
X89986956Y-87525599D01*
X89934314Y-87458363D01*
X89831799Y-87380894D01*
X89765183Y-87342125D01*
X89625640Y-87277338D01*
X89484020Y-87237965D01*
X89307686Y-87215895D01*
X89238022Y-87211128D01*
X89074126Y-87203759D01*
X88964247Y-87207914D01*
X88884623Y-87227467D01*
X88811493Y-87266290D01*
X88782769Y-87285328D01*
X88681034Y-87375691D01*
X88637343Y-87478598D01*
X88633585Y-87506514D01*
X88629760Y-87591400D01*
X87369904Y-87591400D01*
X87375997Y-87538843D01*
X87376000Y-87537167D01*
X87343777Y-87408006D01*
X87245392Y-87313859D01*
X87078272Y-87252620D01*
X87012546Y-87240060D01*
X86850812Y-87225615D01*
X86715906Y-87234916D01*
X86624856Y-87265148D01*
X86594461Y-87309191D01*
X86560239Y-87336748D01*
X86470121Y-87378584D01*
X86342932Y-87426064D01*
X86330692Y-87430191D01*
X86188730Y-87479508D01*
X86069684Y-87524177D01*
X85999233Y-87554560D01*
X85999068Y-87554648D01*
X85914232Y-87585758D01*
X85876535Y-87590923D01*
X85769601Y-87613220D01*
X85692860Y-87668239D01*
X85656795Y-87738173D01*
X84342169Y-87738173D01*
X84358330Y-87676827D01*
X84366212Y-87652157D01*
X84403657Y-87561522D01*
X84454761Y-87522049D01*
X84549644Y-87512835D01*
X84567048Y-87512769D01*
X84704916Y-87531729D01*
X84848882Y-87578580D01*
X84875487Y-87591133D01*
X84971547Y-87634372D01*
X85010034Y-87635144D01*
X85008359Y-87615465D01*
X85013785Y-87549367D01*
X85053469Y-87454363D01*
X85066095Y-87432401D01*
X85111927Y-87342301D01*
X85127505Y-87280125D01*
X85125302Y-87272201D01*
X85122065Y-87217486D01*
X85138163Y-87120836D01*
X85144885Y-87093594D01*
X85166051Y-86980907D01*
X85185264Y-86822844D01*
X85198600Y-86652155D01*
X85199265Y-86639543D01*
X85211226Y-86491658D01*
X85228946Y-86375631D01*
X85238212Y-86346390D01*
X90400797Y-86346390D01*
X90406079Y-86401097D01*
X90445037Y-86444082D01*
X90527912Y-86490696D01*
X90569732Y-86484342D01*
X90564950Y-86434958D01*
X90543864Y-86360510D01*
X90541230Y-86337266D01*
X90513217Y-86305205D01*
X90454469Y-86307991D01*
X90402923Y-86343159D01*
X90400797Y-86346390D01*
X85238212Y-86346390D01*
X85249028Y-86312262D01*
X85253520Y-86307390D01*
X85295170Y-86251830D01*
X85316309Y-86174509D01*
X85310110Y-86111241D01*
X85293856Y-86095798D01*
X85273221Y-86057815D01*
X85287453Y-86025540D01*
X85306725Y-85957724D01*
X85319918Y-85840538D01*
X85323679Y-85734840D01*
X85324461Y-85500450D01*
X85444078Y-85500379D01*
X85539947Y-85481184D01*
X85633947Y-85414387D01*
X85698078Y-85346785D01*
X85845099Y-85218370D01*
X86065504Y-85086227D01*
X86184154Y-85027494D01*
X86428490Y-84905792D01*
X86612780Y-84797175D01*
X86751614Y-84691548D01*
X86859583Y-84578814D01*
X86890761Y-84538554D01*
X86961958Y-84431563D01*
X86976516Y-84372257D01*
X86931896Y-84351917D01*
X86838692Y-84359775D01*
X86710834Y-84362822D01*
X86558565Y-84344658D01*
X86496769Y-84331064D01*
X86313386Y-84304475D01*
X86167723Y-84335718D01*
X86054362Y-84415467D01*
X85976903Y-84453776D01*
X85902445Y-84464769D01*
X85823612Y-84488138D01*
X85714940Y-84548222D01*
X85596593Y-84629984D01*
X85488735Y-84718389D01*
X85411530Y-84798403D01*
X85384925Y-84850654D01*
X85358073Y-84886299D01*
X85273810Y-84882515D01*
X85269254Y-84881620D01*
X85154729Y-84883939D01*
X85107563Y-84916534D01*
X85040273Y-84972360D01*
X84941129Y-85030395D01*
X84932409Y-85034613D01*
X84821332Y-85122976D01*
X84717763Y-85270561D01*
X84634303Y-85458601D01*
X84621844Y-85497073D01*
X84592077Y-85549421D01*
X84560716Y-85533811D01*
X84532592Y-85460176D01*
X84512535Y-85338448D01*
X84506956Y-85260809D01*
X84513661Y-85078585D01*
X84544332Y-84874850D01*
X84592916Y-84674645D01*
X84653359Y-84503006D01*
X84718292Y-84386616D01*
X84779598Y-84296729D01*
X84854347Y-84169824D01*
X84902443Y-84079776D01*
X84983788Y-83944136D01*
X85077506Y-83822018D01*
X85132171Y-83767161D01*
X85152470Y-83747371D01*
X86556828Y-83747371D01*
X86570391Y-83822283D01*
X86621673Y-83870894D01*
X86692367Y-83871734D01*
X86730120Y-83841336D01*
X86743186Y-83769186D01*
X86721591Y-83686485D01*
X86678211Y-83625466D01*
X86639029Y-83613340D01*
X86579366Y-83659246D01*
X86556828Y-83747371D01*
X85152470Y-83747371D01*
X85249952Y-83652338D01*
X85400930Y-83479483D01*
X85577770Y-83257388D01*
X85699266Y-83094675D01*
X88022253Y-83094675D01*
X88032055Y-83137306D01*
X88084097Y-83178064D01*
X88145063Y-83195103D01*
X88166473Y-83189247D01*
X88194085Y-83138394D01*
X88196615Y-83114309D01*
X88165997Y-83071778D01*
X88099807Y-83058524D01*
X88036538Y-83078880D01*
X88022253Y-83094675D01*
X85699266Y-83094675D01*
X85750847Y-83025596D01*
X85876339Y-82875177D01*
X85953472Y-82818168D01*
X87695040Y-82818168D01*
X87712648Y-82844601D01*
X87789195Y-82840446D01*
X87792252Y-82839736D01*
X87885589Y-82809719D01*
X87940010Y-82780068D01*
X87962651Y-82736728D01*
X87924955Y-82717087D01*
X87842732Y-82727238D01*
X87820500Y-82733987D01*
X87732336Y-82776260D01*
X87695040Y-82818168D01*
X85953472Y-82818168D01*
X85995691Y-82786964D01*
X86127801Y-82749129D01*
X86198585Y-82745385D01*
X86278852Y-82727221D01*
X86388073Y-82681115D01*
X86469308Y-82637923D01*
X88479727Y-82637923D01*
X88526813Y-82680429D01*
X88590445Y-82699847D01*
X88679098Y-82723860D01*
X88722200Y-82748694D01*
X88804450Y-82782084D01*
X88896929Y-82748110D01*
X88916053Y-82718290D01*
X88873445Y-82682933D01*
X88804234Y-82651016D01*
X88673283Y-82607295D01*
X88564255Y-82590415D01*
X88494268Y-82601067D01*
X88479727Y-82637923D01*
X86469308Y-82637923D01*
X86503686Y-82619645D01*
X86603127Y-82555388D01*
X86663836Y-82500922D01*
X86672615Y-82481132D01*
X86708595Y-82432020D01*
X86806034Y-82377673D01*
X86949177Y-82324956D01*
X87122270Y-82280730D01*
X87141538Y-82276859D01*
X87495878Y-82226546D01*
X87844798Y-82212495D01*
X88174817Y-82233107D01*
D11*
%TO.C,U4*%
X112913000Y-67818000D02*
X112913000Y-71268000D01*
X112913000Y-67818000D02*
X112913000Y-65868000D01*
X121783000Y-67818000D02*
X121783000Y-69768000D01*
X121783000Y-67818000D02*
X121783000Y-65868000D01*
D13*
%TO.C,J1*%
X125476000Y-91567000D02*
X111760000Y-91567000D01*
X111760000Y-75946000D02*
X111760000Y-91567000D01*
X125476000Y-75946000D02*
X111760000Y-75946000D01*
X125476000Y-91567000D02*
X125476000Y-75946000D01*
D14*
%TO.C,U3*%
X111450000Y-25650000D02*
X93450000Y-25650000D01*
X111450000Y-51150000D02*
X93450000Y-51150000D01*
X111450000Y-25650000D02*
X111450000Y-51150000D01*
X93450000Y-25650000D02*
X93450000Y-51150000D01*
X111450000Y-31650000D02*
X93450000Y-31650000D01*
D15*
X93094430Y-31951575D02*
G75*
G03*
X93094430Y-31951575I-283981J0D01*
G01*
D11*
%TO.C,U2*%
X91065000Y-63790000D02*
X90590000Y-63790000D01*
X94810000Y-68010000D02*
X94810000Y-67535000D01*
X94335000Y-68010000D02*
X94810000Y-68010000D01*
X90590000Y-68010000D02*
X90590000Y-67535000D01*
X91065000Y-68010000D02*
X90590000Y-68010000D01*
X94810000Y-63790000D02*
X94810000Y-64265000D01*
X94335000Y-63790000D02*
X94810000Y-63790000D01*
%TO.C,U1*%
X98952000Y-79000000D02*
X98952000Y-72990000D01*
X105772000Y-76750000D02*
X105772000Y-72990000D01*
X98952000Y-72990000D02*
X100212000Y-72990000D01*
X105772000Y-72990000D02*
X104512000Y-72990000D01*
%TO.C,R7*%
X85348000Y-42451836D02*
X85348000Y-43905964D01*
X83528000Y-42451836D02*
X83528000Y-43905964D01*
%TO.C,R6*%
X121264000Y-57184936D02*
X121264000Y-58639064D01*
X123084000Y-57184936D02*
X123084000Y-58639064D01*
%TO.C,R5*%
X86508000Y-58639064D02*
X86508000Y-57184936D01*
X84688000Y-58639064D02*
X84688000Y-57184936D01*
%TO.C,R4*%
X88040000Y-48732936D02*
X88040000Y-50187064D01*
X89860000Y-48732936D02*
X89860000Y-50187064D01*
%TO.C,R3*%
X111540936Y-60092000D02*
X112995064Y-60092000D01*
X111540936Y-58272000D02*
X112995064Y-58272000D01*
%TO.C,R2*%
X91728936Y-60060000D02*
X93183064Y-60060000D01*
X91728936Y-58240000D02*
X93183064Y-58240000D01*
%TO.C,R1*%
X93427064Y-71490000D02*
X91972936Y-71490000D01*
X93427064Y-73310000D02*
X91972936Y-73310000D01*
%TO.C,Q2*%
X120452000Y-56898000D02*
X120452000Y-58358000D01*
X117292000Y-56898000D02*
X117292000Y-60058000D01*
X117292000Y-56898000D02*
X118222000Y-56898000D01*
X120452000Y-56898000D02*
X119522000Y-56898000D01*
%TO.C,Q1*%
X83876000Y-56898000D02*
X83876000Y-58358000D01*
X80716000Y-56898000D02*
X80716000Y-60058000D01*
X80716000Y-56898000D02*
X81646000Y-56898000D01*
X83876000Y-56898000D02*
X82946000Y-56898000D01*
%TO.C,D5*%
X105848000Y-66834000D02*
X105848000Y-65684000D01*
X98548000Y-66834000D02*
X105848000Y-66834000D01*
X98548000Y-61334000D02*
X105848000Y-61334000D01*
%TO.C,D4*%
X85585000Y-51920000D02*
X85585000Y-47860000D01*
X83315000Y-51920000D02*
X85585000Y-51920000D01*
X83315000Y-47860000D02*
X83315000Y-51920000D01*
%TO.C,D3*%
X110062000Y-56507000D02*
X114122000Y-56507000D01*
X110062000Y-54237000D02*
X110062000Y-56507000D01*
X114122000Y-54237000D02*
X110062000Y-54237000D01*
%TO.C,D2*%
X94916000Y-54237000D02*
X90856000Y-54237000D01*
X94916000Y-56507000D02*
X94916000Y-54237000D01*
X90856000Y-56507000D02*
X94916000Y-56507000D01*
%TO.C,D1*%
X102022000Y-84058000D02*
X98172000Y-84058000D01*
X102022000Y-82058000D02*
X98172000Y-82058000D01*
X102022000Y-84058000D02*
X102022000Y-82058000D01*
%TO.C,C10*%
X88023000Y-43955152D02*
X88023000Y-42532648D01*
X89843000Y-43955152D02*
X89843000Y-42532648D01*
%TO.C,C9*%
X88040000Y-35938748D02*
X88040000Y-37361252D01*
X89860000Y-35938748D02*
X89860000Y-37361252D01*
%TO.C,C8*%
X83540000Y-35938748D02*
X83540000Y-37361252D01*
X85360000Y-35938748D02*
X85360000Y-37361252D01*
%TO.C,C7*%
X103073252Y-55986000D02*
X101650748Y-55986000D01*
X103073252Y-57806000D02*
X101650748Y-57806000D01*
%TO.C,C6*%
X83108748Y-73300000D02*
X84531252Y-73300000D01*
X83108748Y-71480000D02*
X84531252Y-71480000D01*
%TO.C,C5*%
X83108748Y-78380000D02*
X84531252Y-78380000D01*
X83108748Y-76560000D02*
X84531252Y-76560000D01*
%TO.C,C4*%
X84682400Y-65187048D02*
X84682400Y-66609552D01*
X86502400Y-65187048D02*
X86502400Y-66609552D01*
%TO.C,C3*%
X81290000Y-65188748D02*
X81290000Y-66611252D01*
X83110000Y-65188748D02*
X83110000Y-66611252D01*
%TO.C,C2*%
X96922000Y-79861252D02*
X96922000Y-78438748D01*
X95102000Y-79861252D02*
X95102000Y-78438748D01*
%TO.C,C1*%
X108056000Y-78282748D02*
X108056000Y-79705252D01*
X109876000Y-78282748D02*
X109876000Y-79705252D01*
D16*
%TO.C,M1*%
X106380000Y-89010000D02*
X98480000Y-89010000D01*
X106380000Y-94650000D02*
X106380000Y-89020000D01*
X98480000Y-89070000D02*
X98480000Y-94650000D01*
X98480000Y-94680000D02*
X106380000Y-94680000D01*
%TO.C,D6*%
D14*
X104290904Y-81605380D02*
X104290904Y-80605380D01*
X104529000Y-80605380D01*
X104671857Y-80653000D01*
X104767095Y-80748238D01*
X104814714Y-80843476D01*
X104862333Y-81033952D01*
X104862333Y-81176809D01*
X104814714Y-81367285D01*
X104767095Y-81462523D01*
X104671857Y-81557761D01*
X104529000Y-81605380D01*
X104290904Y-81605380D01*
X105719476Y-80605380D02*
X105529000Y-80605380D01*
X105433761Y-80653000D01*
X105386142Y-80700619D01*
X105290904Y-80843476D01*
X105243285Y-81033952D01*
X105243285Y-81414904D01*
X105290904Y-81510142D01*
X105338523Y-81557761D01*
X105433761Y-81605380D01*
X105624238Y-81605380D01*
X105719476Y-81557761D01*
X105767095Y-81510142D01*
X105814714Y-81414904D01*
X105814714Y-81176809D01*
X105767095Y-81081571D01*
X105719476Y-81033952D01*
X105624238Y-80986333D01*
X105433761Y-80986333D01*
X105338523Y-81033952D01*
X105290904Y-81081571D01*
X105243285Y-81176809D01*
%TO.C,U4*%
X111520380Y-68579904D02*
X112329904Y-68579904D01*
X112425142Y-68532285D01*
X112472761Y-68484666D01*
X112520380Y-68389428D01*
X112520380Y-68198952D01*
X112472761Y-68103714D01*
X112425142Y-68056095D01*
X112329904Y-68008476D01*
X111520380Y-68008476D01*
X111853714Y-67103714D02*
X112520380Y-67103714D01*
X111472761Y-67341809D02*
X112187047Y-67579904D01*
X112187047Y-66960857D01*
%TO.C,J1*%
D17*
X116191056Y-83544228D02*
X116485212Y-83654537D01*
X116191056Y-83764845D01*
X116669060Y-83801615D02*
X116669060Y-83415535D01*
X116889677Y-83801615D01*
X116889677Y-83415535D01*
X117238988Y-83801615D02*
X117238988Y-83599382D01*
X117220603Y-83562613D01*
X117183833Y-83544228D01*
X117110294Y-83544228D01*
X117073525Y-83562613D01*
X117238988Y-83783230D02*
X117202218Y-83801615D01*
X117110294Y-83801615D01*
X117073525Y-83783230D01*
X117055140Y-83746460D01*
X117055140Y-83709691D01*
X117073525Y-83672921D01*
X117110294Y-83654537D01*
X117202218Y-83654537D01*
X117238988Y-83636152D01*
X117422835Y-83801615D02*
X117422835Y-83544228D01*
X117422835Y-83580998D02*
X117441220Y-83562613D01*
X117477989Y-83544228D01*
X117533144Y-83544228D01*
X117569913Y-83562613D01*
X117588298Y-83599382D01*
X117588298Y-83801615D01*
X117588298Y-83599382D02*
X117606683Y-83562613D01*
X117643452Y-83544228D01*
X117698607Y-83544228D01*
X117735376Y-83562613D01*
X117753761Y-83599382D01*
X117753761Y-83801615D01*
X118084687Y-83783230D02*
X118047917Y-83801615D01*
X117974378Y-83801615D01*
X117937608Y-83783230D01*
X117919224Y-83746460D01*
X117919224Y-83599382D01*
X117937608Y-83562613D01*
X117974378Y-83544228D01*
X118047917Y-83544228D01*
X118084687Y-83562613D01*
X118103071Y-83599382D01*
X118103071Y-83636152D01*
X117919224Y-83672921D01*
%TO.C,U3*%
D14*
X95502075Y-32022498D02*
X95502075Y-32832022D01*
X95549694Y-32927260D01*
X95597313Y-32974879D01*
X95692551Y-33022498D01*
X95883027Y-33022498D01*
X95978265Y-32974879D01*
X96025884Y-32927260D01*
X96073503Y-32832022D01*
X96073503Y-32022498D01*
X96454456Y-32022498D02*
X97073503Y-32022498D01*
X96740170Y-32403451D01*
X96883027Y-32403451D01*
X96978265Y-32451070D01*
X97025884Y-32498689D01*
X97073503Y-32593927D01*
X97073503Y-32832022D01*
X97025884Y-32927260D01*
X96978265Y-32974879D01*
X96883027Y-33022498D01*
X96597313Y-33022498D01*
X96502075Y-32974879D01*
X96454456Y-32927260D01*
%TO.C,U2*%
X89808474Y-62030936D02*
X89808474Y-62840460D01*
X89856093Y-62935698D01*
X89903712Y-62983317D01*
X89998950Y-63030936D01*
X90189426Y-63030936D01*
X90284664Y-62983317D01*
X90332283Y-62935698D01*
X90379902Y-62840460D01*
X90379902Y-62030936D01*
X90808474Y-62126175D02*
X90856093Y-62078556D01*
X90951331Y-62030936D01*
X91189426Y-62030936D01*
X91284664Y-62078556D01*
X91332283Y-62126175D01*
X91379902Y-62221413D01*
X91379902Y-62316651D01*
X91332283Y-62459508D01*
X90760855Y-63030936D01*
X91379902Y-63030936D01*
%TO.C,U1*%
X104719081Y-71676481D02*
X104719081Y-72486005D01*
X104766700Y-72581243D01*
X104814319Y-72628862D01*
X104909557Y-72676481D01*
X105100033Y-72676481D01*
X105195271Y-72628862D01*
X105242890Y-72581243D01*
X105290509Y-72486005D01*
X105290509Y-71676481D01*
X106290509Y-72676481D02*
X105719081Y-72676481D01*
X106004795Y-72676481D02*
X106004795Y-71676481D01*
X105909557Y-71819339D01*
X105814319Y-71914577D01*
X105719081Y-71962196D01*
%TO.C,R7*%
X84261501Y-40561696D02*
X83928168Y-40085506D01*
X83690072Y-40561696D02*
X83690072Y-39561696D01*
X84071025Y-39561696D01*
X84166263Y-39609316D01*
X84213882Y-39656935D01*
X84261501Y-39752173D01*
X84261501Y-39895030D01*
X84213882Y-39990268D01*
X84166263Y-40037887D01*
X84071025Y-40085506D01*
X83690072Y-40085506D01*
X84594834Y-39561696D02*
X85261501Y-39561696D01*
X84832929Y-40561696D01*
%TO.C,R6*%
X122086926Y-55094993D02*
X121753593Y-54618803D01*
X121515497Y-55094993D02*
X121515497Y-54094993D01*
X121896450Y-54094993D01*
X121991688Y-54142613D01*
X122039307Y-54190232D01*
X122086926Y-54285470D01*
X122086926Y-54428327D01*
X122039307Y-54523565D01*
X121991688Y-54571184D01*
X121896450Y-54618803D01*
X121515497Y-54618803D01*
X122944069Y-54094993D02*
X122753593Y-54094993D01*
X122658354Y-54142613D01*
X122610735Y-54190232D01*
X122515497Y-54333089D01*
X122467878Y-54523565D01*
X122467878Y-54904517D01*
X122515497Y-54999755D01*
X122563116Y-55047374D01*
X122658354Y-55094993D01*
X122848831Y-55094993D01*
X122944069Y-55047374D01*
X122991688Y-54999755D01*
X123039307Y-54904517D01*
X123039307Y-54666422D01*
X122991688Y-54571184D01*
X122944069Y-54523565D01*
X122848831Y-54475946D01*
X122658354Y-54475946D01*
X122563116Y-54523565D01*
X122515497Y-54571184D01*
X122467878Y-54666422D01*
%TO.C,R5*%
X85454995Y-55173682D02*
X85121662Y-54697492D01*
X84883566Y-55173682D02*
X84883566Y-54173682D01*
X85264519Y-54173682D01*
X85359757Y-54221302D01*
X85407376Y-54268921D01*
X85454995Y-54364159D01*
X85454995Y-54507016D01*
X85407376Y-54602254D01*
X85359757Y-54649873D01*
X85264519Y-54697492D01*
X84883566Y-54697492D01*
X86359757Y-54173682D02*
X85883566Y-54173682D01*
X85835947Y-54649873D01*
X85883566Y-54602254D01*
X85978804Y-54554635D01*
X86216900Y-54554635D01*
X86312138Y-54602254D01*
X86359757Y-54649873D01*
X86407376Y-54745111D01*
X86407376Y-54983206D01*
X86359757Y-55078444D01*
X86312138Y-55126063D01*
X86216900Y-55173682D01*
X85978804Y-55173682D01*
X85883566Y-55126063D01*
X85835947Y-55078444D01*
%TO.C,R4*%
X88722255Y-46832611D02*
X88388922Y-46356421D01*
X88150826Y-46832611D02*
X88150826Y-45832611D01*
X88531779Y-45832611D01*
X88627017Y-45880231D01*
X88674636Y-45927850D01*
X88722255Y-46023088D01*
X88722255Y-46165945D01*
X88674636Y-46261183D01*
X88627017Y-46308802D01*
X88531779Y-46356421D01*
X88150826Y-46356421D01*
X89579398Y-46165945D02*
X89579398Y-46832611D01*
X89341302Y-45784992D02*
X89103207Y-46499278D01*
X89722255Y-46499278D01*
%TO.C,R3*%
X112101333Y-57814380D02*
X111768000Y-57338190D01*
X111529904Y-57814380D02*
X111529904Y-56814380D01*
X111910857Y-56814380D01*
X112006095Y-56862000D01*
X112053714Y-56909619D01*
X112101333Y-57004857D01*
X112101333Y-57147714D01*
X112053714Y-57242952D01*
X112006095Y-57290571D01*
X111910857Y-57338190D01*
X111529904Y-57338190D01*
X112434666Y-56814380D02*
X113053714Y-56814380D01*
X112720380Y-57195333D01*
X112863238Y-57195333D01*
X112958476Y-57242952D01*
X113006095Y-57290571D01*
X113053714Y-57385809D01*
X113053714Y-57623904D01*
X113006095Y-57719142D01*
X112958476Y-57766761D01*
X112863238Y-57814380D01*
X112577523Y-57814380D01*
X112482285Y-57766761D01*
X112434666Y-57719142D01*
%TO.C,R2*%
X92289333Y-57782380D02*
X91956000Y-57306190D01*
X91717904Y-57782380D02*
X91717904Y-56782380D01*
X92098857Y-56782380D01*
X92194095Y-56830000D01*
X92241714Y-56877619D01*
X92289333Y-56972857D01*
X92289333Y-57115714D01*
X92241714Y-57210952D01*
X92194095Y-57258571D01*
X92098857Y-57306190D01*
X91717904Y-57306190D01*
X92670285Y-56877619D02*
X92717904Y-56830000D01*
X92813142Y-56782380D01*
X93051238Y-56782380D01*
X93146476Y-56830000D01*
X93194095Y-56877619D01*
X93241714Y-56972857D01*
X93241714Y-57068095D01*
X93194095Y-57210952D01*
X92622666Y-57782380D01*
X93241714Y-57782380D01*
%TO.C,R1*%
X93813333Y-70989182D02*
X93480000Y-70512992D01*
X93241904Y-70989182D02*
X93241904Y-69989182D01*
X93622857Y-69989182D01*
X93718095Y-70036802D01*
X93765714Y-70084421D01*
X93813333Y-70179659D01*
X93813333Y-70322516D01*
X93765714Y-70417754D01*
X93718095Y-70465373D01*
X93622857Y-70512992D01*
X93241904Y-70512992D01*
X94765714Y-70989182D02*
X94194285Y-70989182D01*
X94480000Y-70989182D02*
X94480000Y-69989182D01*
X94384761Y-70132040D01*
X94289523Y-70227278D01*
X94194285Y-70274897D01*
%TO.C,Q2*%
X120401337Y-56645059D02*
X120306099Y-56597440D01*
X120210861Y-56502201D01*
X120068004Y-56359344D01*
X119972766Y-56311725D01*
X119877528Y-56311725D01*
X119925147Y-56549820D02*
X119829909Y-56502201D01*
X119734671Y-56406963D01*
X119687052Y-56216487D01*
X119687052Y-55883154D01*
X119734671Y-55692678D01*
X119829909Y-55597440D01*
X119925147Y-55549820D01*
X120115623Y-55549820D01*
X120210861Y-55597440D01*
X120306099Y-55692678D01*
X120353718Y-55883154D01*
X120353718Y-56216487D01*
X120306099Y-56406963D01*
X120210861Y-56502201D01*
X120115623Y-56549820D01*
X119925147Y-56549820D01*
X120734671Y-55645059D02*
X120782290Y-55597440D01*
X120877528Y-55549820D01*
X121115623Y-55549820D01*
X121210861Y-55597440D01*
X121258480Y-55645059D01*
X121306099Y-55740297D01*
X121306099Y-55835535D01*
X121258480Y-55978392D01*
X120687052Y-56549820D01*
X121306099Y-56549820D01*
%TO.C,Q1*%
X83917371Y-56403403D02*
X83822133Y-56355784D01*
X83726895Y-56260545D01*
X83584038Y-56117688D01*
X83488800Y-56070069D01*
X83393562Y-56070069D01*
X83441181Y-56308164D02*
X83345943Y-56260545D01*
X83250705Y-56165307D01*
X83203086Y-55974831D01*
X83203086Y-55641498D01*
X83250705Y-55451022D01*
X83345943Y-55355784D01*
X83441181Y-55308164D01*
X83631657Y-55308164D01*
X83726895Y-55355784D01*
X83822133Y-55451022D01*
X83869752Y-55641498D01*
X83869752Y-55974831D01*
X83822133Y-56165307D01*
X83726895Y-56260545D01*
X83631657Y-56308164D01*
X83441181Y-56308164D01*
X84822133Y-56308164D02*
X84250705Y-56308164D01*
X84536419Y-56308164D02*
X84536419Y-55308164D01*
X84441181Y-55451022D01*
X84345943Y-55546260D01*
X84250705Y-55593879D01*
%TO.C,D5*%
X101459904Y-61036380D02*
X101459904Y-60036380D01*
X101698000Y-60036380D01*
X101840857Y-60084000D01*
X101936095Y-60179238D01*
X101983714Y-60274476D01*
X102031333Y-60464952D01*
X102031333Y-60607809D01*
X101983714Y-60798285D01*
X101936095Y-60893523D01*
X101840857Y-60988761D01*
X101698000Y-61036380D01*
X101459904Y-61036380D01*
X102936095Y-60036380D02*
X102459904Y-60036380D01*
X102412285Y-60512571D01*
X102459904Y-60464952D01*
X102555142Y-60417333D01*
X102793238Y-60417333D01*
X102888476Y-60464952D01*
X102936095Y-60512571D01*
X102983714Y-60607809D01*
X102983714Y-60845904D01*
X102936095Y-60941142D01*
X102888476Y-60988761D01*
X102793238Y-61036380D01*
X102555142Y-61036380D01*
X102459904Y-60988761D01*
X102412285Y-60941142D01*
%TO.C,D4*%
X83690072Y-46832611D02*
X83690072Y-45832611D01*
X83928168Y-45832611D01*
X84071025Y-45880231D01*
X84166263Y-45975469D01*
X84213882Y-46070707D01*
X84261501Y-46261183D01*
X84261501Y-46404040D01*
X84213882Y-46594516D01*
X84166263Y-46689754D01*
X84071025Y-46784992D01*
X83928168Y-46832611D01*
X83690072Y-46832611D01*
X85118644Y-46165945D02*
X85118644Y-46832611D01*
X84880548Y-45784992D02*
X84642453Y-46499278D01*
X85261501Y-46499278D01*
%TO.C,D3*%
X111529904Y-54046380D02*
X111529904Y-53046380D01*
X111768000Y-53046380D01*
X111910857Y-53094000D01*
X112006095Y-53189238D01*
X112053714Y-53284476D01*
X112101333Y-53474952D01*
X112101333Y-53617809D01*
X112053714Y-53808285D01*
X112006095Y-53903523D01*
X111910857Y-53998761D01*
X111768000Y-54046380D01*
X111529904Y-54046380D01*
X112434666Y-53046380D02*
X113053714Y-53046380D01*
X112720380Y-53427333D01*
X112863238Y-53427333D01*
X112958476Y-53474952D01*
X113006095Y-53522571D01*
X113053714Y-53617809D01*
X113053714Y-53855904D01*
X113006095Y-53951142D01*
X112958476Y-53998761D01*
X112863238Y-54046380D01*
X112577523Y-54046380D01*
X112482285Y-53998761D01*
X112434666Y-53951142D01*
%TO.C,D2*%
X91740411Y-53896456D02*
X91740411Y-52896456D01*
X91978507Y-52896456D01*
X92121364Y-52944076D01*
X92216602Y-53039314D01*
X92264221Y-53134552D01*
X92311840Y-53325028D01*
X92311840Y-53467885D01*
X92264221Y-53658361D01*
X92216602Y-53753599D01*
X92121364Y-53848837D01*
X91978507Y-53896456D01*
X91740411Y-53896456D01*
X92692792Y-52991695D02*
X92740411Y-52944076D01*
X92835649Y-52896456D01*
X93073745Y-52896456D01*
X93168983Y-52944076D01*
X93216602Y-52991695D01*
X93264221Y-53086933D01*
X93264221Y-53182171D01*
X93216602Y-53325028D01*
X92645173Y-53896456D01*
X93264221Y-53896456D01*
%TO.C,D1*%
X99046727Y-81699877D02*
X99046727Y-80699877D01*
X99284823Y-80699877D01*
X99427680Y-80747497D01*
X99522918Y-80842735D01*
X99570537Y-80937973D01*
X99618156Y-81128449D01*
X99618156Y-81271306D01*
X99570537Y-81461782D01*
X99522918Y-81557020D01*
X99427680Y-81652258D01*
X99284823Y-81699877D01*
X99046727Y-81699877D01*
X100570537Y-81699877D02*
X99999108Y-81699877D01*
X100284823Y-81699877D02*
X100284823Y-80699877D01*
X100189584Y-80842735D01*
X100094346Y-80937973D01*
X99999108Y-80985592D01*
%TO.C,C10*%
X88278388Y-40466458D02*
X88230769Y-40514077D01*
X88087912Y-40561696D01*
X87992674Y-40561696D01*
X87849817Y-40514077D01*
X87754579Y-40418839D01*
X87706960Y-40323601D01*
X87659341Y-40133125D01*
X87659341Y-39990268D01*
X87706960Y-39799792D01*
X87754579Y-39704554D01*
X87849817Y-39609316D01*
X87992674Y-39561696D01*
X88087912Y-39561696D01*
X88230769Y-39609316D01*
X88278388Y-39656935D01*
X89230769Y-40561696D02*
X88659341Y-40561696D01*
X88945055Y-40561696D02*
X88945055Y-39561696D01*
X88849817Y-39704554D01*
X88754579Y-39799792D01*
X88659341Y-39847411D01*
X89849817Y-39561696D02*
X89945055Y-39561696D01*
X90040293Y-39609316D01*
X90087912Y-39656935D01*
X90135531Y-39752173D01*
X90183150Y-39942649D01*
X90183150Y-40180744D01*
X90135531Y-40371220D01*
X90087912Y-40466458D01*
X90040293Y-40514077D01*
X89945055Y-40561696D01*
X89849817Y-40561696D01*
X89754579Y-40514077D01*
X89706960Y-40466458D01*
X89659341Y-40371220D01*
X89611722Y-40180744D01*
X89611722Y-39942649D01*
X89659341Y-39752173D01*
X89706960Y-39656935D01*
X89754579Y-39609316D01*
X89849817Y-39561696D01*
%TO.C,C9*%
X88786903Y-33807652D02*
X88739284Y-33855271D01*
X88596427Y-33902890D01*
X88501189Y-33902890D01*
X88358331Y-33855271D01*
X88263093Y-33760033D01*
X88215474Y-33664795D01*
X88167855Y-33474319D01*
X88167855Y-33331462D01*
X88215474Y-33140986D01*
X88263093Y-33045748D01*
X88358331Y-32950510D01*
X88501189Y-32902890D01*
X88596427Y-32902890D01*
X88739284Y-32950510D01*
X88786903Y-32998129D01*
X89263093Y-33902890D02*
X89453570Y-33902890D01*
X89548808Y-33855271D01*
X89596427Y-33807652D01*
X89691665Y-33664795D01*
X89739284Y-33474319D01*
X89739284Y-33093367D01*
X89691665Y-32998129D01*
X89644046Y-32950510D01*
X89548808Y-32902890D01*
X89358331Y-32902890D01*
X89263093Y-32950510D01*
X89215474Y-32998129D01*
X89167855Y-33093367D01*
X89167855Y-33331462D01*
X89215474Y-33426700D01*
X89263093Y-33474319D01*
X89358331Y-33521938D01*
X89548808Y-33521938D01*
X89644046Y-33474319D01*
X89691665Y-33426700D01*
X89739284Y-33331462D01*
%TO.C,C8*%
X84196852Y-33839976D02*
X84149233Y-33887595D01*
X84006376Y-33935214D01*
X83911138Y-33935214D01*
X83768280Y-33887595D01*
X83673042Y-33792357D01*
X83625423Y-33697119D01*
X83577804Y-33506643D01*
X83577804Y-33363786D01*
X83625423Y-33173310D01*
X83673042Y-33078072D01*
X83768280Y-32982834D01*
X83911138Y-32935214D01*
X84006376Y-32935214D01*
X84149233Y-32982834D01*
X84196852Y-33030453D01*
X84768280Y-33363786D02*
X84673042Y-33316167D01*
X84625423Y-33268548D01*
X84577804Y-33173310D01*
X84577804Y-33125691D01*
X84625423Y-33030453D01*
X84673042Y-32982834D01*
X84768280Y-32935214D01*
X84958757Y-32935214D01*
X85053995Y-32982834D01*
X85101614Y-33030453D01*
X85149233Y-33125691D01*
X85149233Y-33173310D01*
X85101614Y-33268548D01*
X85053995Y-33316167D01*
X84958757Y-33363786D01*
X84768280Y-33363786D01*
X84673042Y-33411405D01*
X84625423Y-33459024D01*
X84577804Y-33554262D01*
X84577804Y-33744738D01*
X84625423Y-33839976D01*
X84673042Y-33887595D01*
X84768280Y-33935214D01*
X84958757Y-33935214D01*
X85053995Y-33887595D01*
X85101614Y-33839976D01*
X85149233Y-33744738D01*
X85149233Y-33554262D01*
X85101614Y-33459024D01*
X85053995Y-33411405D01*
X84958757Y-33363786D01*
%TO.C,C7*%
X102195333Y-55475142D02*
X102147714Y-55522761D01*
X102004857Y-55570380D01*
X101909619Y-55570380D01*
X101766761Y-55522761D01*
X101671523Y-55427523D01*
X101623904Y-55332285D01*
X101576285Y-55141809D01*
X101576285Y-54998952D01*
X101623904Y-54808476D01*
X101671523Y-54713238D01*
X101766761Y-54618000D01*
X101909619Y-54570380D01*
X102004857Y-54570380D01*
X102147714Y-54618000D01*
X102195333Y-54665619D01*
X102528666Y-54570380D02*
X103195333Y-54570380D01*
X102766761Y-55570380D01*
%TO.C,C6*%
X83653333Y-70897142D02*
X83605714Y-70944761D01*
X83462857Y-70992380D01*
X83367619Y-70992380D01*
X83224761Y-70944761D01*
X83129523Y-70849523D01*
X83081904Y-70754285D01*
X83034285Y-70563809D01*
X83034285Y-70420952D01*
X83081904Y-70230476D01*
X83129523Y-70135238D01*
X83224761Y-70040000D01*
X83367619Y-69992380D01*
X83462857Y-69992380D01*
X83605714Y-70040000D01*
X83653333Y-70087619D01*
X84510476Y-69992380D02*
X84320000Y-69992380D01*
X84224761Y-70040000D01*
X84177142Y-70087619D01*
X84081904Y-70230476D01*
X84034285Y-70420952D01*
X84034285Y-70801904D01*
X84081904Y-70897142D01*
X84129523Y-70944761D01*
X84224761Y-70992380D01*
X84415238Y-70992380D01*
X84510476Y-70944761D01*
X84558095Y-70897142D01*
X84605714Y-70801904D01*
X84605714Y-70563809D01*
X84558095Y-70468571D01*
X84510476Y-70420952D01*
X84415238Y-70373333D01*
X84224761Y-70373333D01*
X84129523Y-70420952D01*
X84081904Y-70468571D01*
X84034285Y-70563809D01*
%TO.C,C5*%
X83653333Y-75977142D02*
X83605714Y-76024761D01*
X83462857Y-76072380D01*
X83367619Y-76072380D01*
X83224761Y-76024761D01*
X83129523Y-75929523D01*
X83081904Y-75834285D01*
X83034285Y-75643809D01*
X83034285Y-75500952D01*
X83081904Y-75310476D01*
X83129523Y-75215238D01*
X83224761Y-75120000D01*
X83367619Y-75072380D01*
X83462857Y-75072380D01*
X83605714Y-75120000D01*
X83653333Y-75167619D01*
X84558095Y-75072380D02*
X84081904Y-75072380D01*
X84034285Y-75548571D01*
X84081904Y-75500952D01*
X84177142Y-75453333D01*
X84415238Y-75453333D01*
X84510476Y-75500952D01*
X84558095Y-75548571D01*
X84605714Y-75643809D01*
X84605714Y-75881904D01*
X84558095Y-75977142D01*
X84510476Y-76024761D01*
X84415238Y-76072380D01*
X84177142Y-76072380D01*
X84081904Y-76024761D01*
X84034285Y-75977142D01*
%TO.C,C4*%
X85370870Y-62896009D02*
X85323251Y-62943628D01*
X85180394Y-62991247D01*
X85085156Y-62991247D01*
X84942298Y-62943628D01*
X84847060Y-62848390D01*
X84799441Y-62753152D01*
X84751822Y-62562676D01*
X84751822Y-62419819D01*
X84799441Y-62229343D01*
X84847060Y-62134105D01*
X84942298Y-62038867D01*
X85085156Y-61991247D01*
X85180394Y-61991247D01*
X85323251Y-62038867D01*
X85370870Y-62086486D01*
X86228013Y-62324581D02*
X86228013Y-62991247D01*
X85989917Y-61943628D02*
X85751822Y-62657914D01*
X86370870Y-62657914D01*
%TO.C,C3*%
X82125266Y-63032666D02*
X82077647Y-63080285D01*
X81934790Y-63127904D01*
X81839552Y-63127904D01*
X81696694Y-63080285D01*
X81601456Y-62985047D01*
X81553837Y-62889809D01*
X81506218Y-62699333D01*
X81506218Y-62556476D01*
X81553837Y-62366000D01*
X81601456Y-62270762D01*
X81696694Y-62175524D01*
X81839552Y-62127904D01*
X81934790Y-62127904D01*
X82077647Y-62175524D01*
X82125266Y-62223143D01*
X82458599Y-62127904D02*
X83077647Y-62127904D01*
X82744313Y-62508857D01*
X82887171Y-62508857D01*
X82982409Y-62556476D01*
X83030028Y-62604095D01*
X83077647Y-62699333D01*
X83077647Y-62937428D01*
X83030028Y-63032666D01*
X82982409Y-63080285D01*
X82887171Y-63127904D01*
X82601456Y-63127904D01*
X82506218Y-63080285D01*
X82458599Y-63032666D01*
%TO.C,C2*%
X95843487Y-76147579D02*
X95795868Y-76195198D01*
X95653011Y-76242817D01*
X95557773Y-76242817D01*
X95414915Y-76195198D01*
X95319677Y-76099960D01*
X95272058Y-76004722D01*
X95224439Y-75814246D01*
X95224439Y-75671389D01*
X95272058Y-75480913D01*
X95319677Y-75385675D01*
X95414915Y-75290437D01*
X95557773Y-75242817D01*
X95653011Y-75242817D01*
X95795868Y-75290437D01*
X95843487Y-75338056D01*
X96224439Y-75338056D02*
X96272058Y-75290437D01*
X96367296Y-75242817D01*
X96605392Y-75242817D01*
X96700630Y-75290437D01*
X96748249Y-75338056D01*
X96795868Y-75433294D01*
X96795868Y-75528532D01*
X96748249Y-75671389D01*
X96176820Y-76242817D01*
X96795868Y-76242817D01*
%TO.C,C1*%
X108765617Y-75886822D02*
X108717998Y-75934441D01*
X108575141Y-75982060D01*
X108479903Y-75982060D01*
X108337045Y-75934441D01*
X108241807Y-75839203D01*
X108194188Y-75743965D01*
X108146569Y-75553489D01*
X108146569Y-75410632D01*
X108194188Y-75220156D01*
X108241807Y-75124918D01*
X108337045Y-75029680D01*
X108479903Y-74982060D01*
X108575141Y-74982060D01*
X108717998Y-75029680D01*
X108765617Y-75077299D01*
X109717998Y-75982060D02*
X109146569Y-75982060D01*
X109432284Y-75982060D02*
X109432284Y-74982060D01*
X109337045Y-75124918D01*
X109241807Y-75220156D01*
X109146569Y-75267775D01*
%TO.C,M1*%
X99480476Y-88382380D02*
X99480476Y-87382380D01*
X99813809Y-88096666D01*
X100147142Y-87382380D01*
X100147142Y-88382380D01*
X101147142Y-88382380D02*
X100575714Y-88382380D01*
X100861428Y-88382380D02*
X100861428Y-87382380D01*
X100766190Y-87525238D01*
X100670952Y-87620476D01*
X100575714Y-87668095D01*
%TD*%
M02*
